<svg width="100%" height="100%" viewBox="0 0 100 100" version="1.1" xmlns="http://www.w3.org/2000/svg" xmlns:xlink="http://www.w3.org/1999/xlink" xml:space="preserve" style="fill-rule:evenodd;clip-rule:evenodd;stroke-linecap:round;stroke-linejoin:round;stroke-miterlimit:1.5;"><g><path d="M62.775,1.927c-0.084,-1.62 -3.715,0.313 -4.934,0.313c-0.799,0 -2.357,-1.1 -2.377,-0.313c-0.396,15.969 -1.218,80.107 0,96.129c0.182,2.392 7.129,2.392 7.311,0c1.218,-16.022 0.822,-80.16 0,-96.129Z" style="fill:url(#_Linear1);stroke:#000;stroke-width:0.3px;"/><path d="M93.201,0.291c-0.483,0.092 -2.503,0.568 -4.47,1.08c-3.772,0.952 -10.154,2.014 -16.983,2.838c-3.486,0.421 -4.845,0.457 -6.883,0.256c-0.143,-0.018 -9.403,-0.037 -9.975,-0.037c-0.84,0 -2.056,1.355 -2.074,2.288c-0.018,0.513 -0.339,0.641 -1.537,0.641c-0.84,0 -2.53,0.225 -3.79,0.384c-1.451,0.183 -3.285,0.426 -4.916,0.714c-1.901,0.336 -4.559,0.903 -6.49,1.3c-1.7,0.349 -8.266,1.995 -9.9,2.592c-3.477,1.271 -7.632,2.581 -10.965,5.033c-3.905,2.874 -8.811,8.483 -12.994,17.049c-1.663,3.386 -1.27,3.576 -0.601,3.896c0.782,0.374 1.577,0.457 2.413,0.043c0.782,-0.387 5.902,-7.196 8.479,-9.602c2.076,-1.938 5.135,-3.69 6.983,-4.834c1.302,-0.805 3.173,-1.633 4.11,-2.026c1.525,-0.641 11.778,-3.695 17.91,-4.317c1.984,-0.201 5.747,-0.863 7.37,-0.514c1.913,0.412 3.446,0.953 4.107,2.985c0.411,1.318 2.678,1.58 3.912,1.826c1.032,0.207 2.317,0.046 3.382,0.114c1.326,0.086 4.757,0.514 4.757,0.514c0.429,0.091 2.251,0.273 3.574,0.383c1.859,0.147 3.879,0.769 8.759,2.746c3.486,1.391 6.794,2.654 7.33,2.782c0.554,0.128 4.612,1.391 6.418,1.977c3.772,1.245 3.307,1.501 5.363,-2.874c3.272,-6.974 3.29,-18.341 0.018,-25.241c-1.019,-2.124 -1.394,-2.362 -3.307,-1.996Z" style="fill:url(#_Radial2);stroke:#000;stroke-width:0.3px;stroke-linecap:butt;stroke-miterlimit:1.41421;"/><path d="M93,0.763c-0.211,0.039 3.957,9.797 3.321,16.21c-0.777,7.827 -4.818,13.102 -3.857,13.413c0.216,0.071 -0.254,-0.082 0,0c2.097,0.676 2.049,0.279 3.718,-3.272c3.165,-6.748 3.183,-17.745 0.018,-24.421c-0.986,-2.054 -1.35,-2.285 -3.2,-1.93Z" style="fill:url(#_Radial3);"/></g><defs><linearGradient id="_Linear1" x1="0" y1="0" x2="1" y2="0" gradientUnits="userSpaceOnUse" gradientTransform="matrix(7.3104,0,0,96.1292,55.4643,49.9914)"><stop offset="0" style="stop-color:#301203;stop-opacity:1"/><stop offset="0.5" style="stop-color:#582106;stop-opacity:1"/><stop offset="1" style="stop-color:#301203;stop-opacity:1"/></linearGradient><radialGradient id="_Radial2" cx="0" cy="0" r="1" gradientUnits="userSpaceOnUse" gradientTransform="matrix(-0.325477,-55.7116,54.7776,-0.320021,58.4605,35.629)"><stop offset="0" style="stop-color:#999;stop-opacity:1"/><stop offset="0.59" style="stop-color:#8b8b8b;stop-opacity:1"/><stop offset="0.8" style="stop-color:#6b6b6b;stop-opacity:1"/><stop offset="1" style="stop-color:#4b4b4b;stop-opacity:1"/></radialGradient><radialGradient id="_Radial3" cx="0" cy="0" r="1" gradientUnits="userSpaceOnUse" gradientTransform="matrix(-0.314892,-53.8997,52.9962,-0.309613,59.3894,34.9509)"><stop offset="0" style="stop-color:#999;stop-opacity:1"/><stop offset="0.66" style="stop-color:#8e8e8e;stop-opacity:1"/><stop offset="0.85" style="stop-color:#707070;stop-opacity:1"/><stop offset="1" style="stop-color:#4b4b4b;stop-opacity:1"/></radialGradient></defs></svg>