<svg width="100px" height="100px" viewBox="0 0 100 100" version="1.1" xmlns="http://www.w3.org/2000/svg" xmlns:xlink="http://www.w3.org/1999/xlink" xml:space="preserve" xmlns:serif="http://www.serif.com/" style="fill-rule:evenodd;clip-rule:evenodd;"><g><g><g><path d="M8.328,57.427c-1.767,-3.933 -2.745,-8.267 -2.745,-12.818c0.001,-17.92 15.179,-32.469 33.873,-32.468c13.822,0.001 25.721,7.956 30.983,19.346c-1.174,0.193 -2.348,0.463 -3.517,0.814c-14.538,4.361 -22.753,19.55 -18.334,33.897c0.942,3.058 2.383,5.833 4.207,8.264c-2.148,0.884 -4.41,1.561 -6.759,2.005c0.349,-5.955 -1.664,-12.039 -6.1,-16.768c-8.331,-8.88 -22.198,-9.771 -31.608,-2.272Z" style="fill:#c2003d;"/><path d="M47.398,58.824c0.048,2.444 0.435,4.921 1.19,7.374c0.502,1.629 1.145,3.178 1.913,4.637c-1.167,-0.27 -2.224,-0.807 -3.079,-1.625c-2.608,-2.494 -2.506,-6.801 -0.024,-10.386Z" style="fill:#200e06;"/><path d="M12.875,54.595c-1.994,-29.276 11.539,-43.162 43.771,-32.018c4.172,1.443 -17.14,-0.156 -27.332,6.856c-7.574,5.212 -12.311,17.97 -14.59,24.386c-0.625,0.232 -1.242,0.49 -1.849,0.776Z" style="fill:#eda3ba;"/></g><g><path d="M24.019,22.075c-0.525,0.629 -0.912,1.269 -1.194,2.677c-0.504,2.52 0.306,6.919 0.306,6.919c0,0 3.406,-2.224 4.889,-4.036c0.601,-0.735 1.106,-1.693 1.433,-2.565c0.193,0.372 0.501,0.728 1.035,1.112c1.642,1.182 5.61,1.44 5.61,1.44c0,0 0.477,-4.199 0.024,-6.243c-0.105,-0.476 -0.65,-1.184 -1.236,-1.735c0.718,0.03 1.443,0.069 1.924,-0.248c2.033,-1.342 4.969,-5.377 4.969,-5.377c0,0 -2.864,-1.781 -4.731,-1.937c-0.427,-0.035 -2.118,0.919 -2.118,0.919c1.629,-3.595 0.574,-7.949 0.574,-7.949c0,0 -2.607,1.558 -3.737,2.693c-0.631,0.634 -1.62,2.437 -1.62,2.437c0,0 -0.491,-1.861 -1.002,-2.56c-0.715,-0.977 -3.26,-2.103 -3.26,-2.103c0,0 -1.854,3.218 -1.708,5.394c0.125,1.862 1.138,2.345 1.421,2.979c-0.613,-0.155 -1.994,-0.527 -3.216,-0.058c-2.145,0.823 -4.297,2.614 -4.297,2.614c0,0 1.449,3.403 2.818,4.634c0.78,0.701 1.974,1.045 2.86,1.017c0.082,-0.002 0.167,-0.011 0.256,-0.024Z" style="fill:#063614;fill-rule:nonzero;stroke:#17540f;stroke-width:0.33px;"/><path d="M30.601,16.823c0.841,-0.44 1.543,-0.951 2.481,-2.324c1.679,-2.458 2.816,-7.482 2.816,-7.482c0,0 -4.62,0.88 -7.015,2.16c-0.97,0.519 -1.941,1.318 -2.683,2.101c-0.036,-0.48 -0.201,-0.991 -0.592,-1.631c-1.206,-1.97 -5.294,-3.97 -5.294,-3.97c0,0 -2.413,4.253 -2.861,6.62c-0.104,0.552 0.152,1.541 0.523,2.381c-0.748,-0.344 -1.499,-0.701 -2.153,-0.573c-2.764,0.541 -7.709,3.55 -7.709,3.55c0,0 2.228,3.137 4.136,4.114c0.437,0.224 2.663,-0.055 2.663,-0.055c-3.359,3.111 -4.218,8.194 -4.218,8.194c0,0 3.471,-0.52 5.185,-1.234c0.957,-0.399 2.824,-1.885 2.824,-1.885c0,0 -0.325,2.191 -0.1,3.155c0.314,1.35 2.501,3.652 2.501,3.652c0,0 3.427,-2.612 4.26,-4.986c0.713,-2.033 -0.142,-2.986 -0.154,-3.782c0.58,0.431 1.875,1.427 3.383,1.46c2.647,0.059 5.742,-0.907 5.742,-0.907c0,0 0.01,-4.245 -0.883,-6.148c-0.509,-1.083 -1.618,-1.968 -2.57,-2.324c-0.088,-0.033 -0.182,-0.061 -0.282,-0.086Z" style="fill:#063614;fill-rule:nonzero;stroke:#17540f;stroke-width:0.38px;"/></g></g><g><g><path d="M9.38,60.721c8.091,-7.336 20.721,-6.832 28.187,1.127c7.466,7.958 6.959,20.376 -1.131,27.713c-8.091,7.337 -20.721,6.832 -28.187,-1.127c-7.466,-7.958 -6.959,-20.376 1.131,-27.713Z" style="fill:#c2003d;"/><path d="M37.073,71.109c2.572,0.099 4.556,2.83 4.427,6.094c-0.129,3.264 -2.322,5.834 -4.894,5.734c-2.573,-0.099 -4.557,-2.83 -4.428,-6.094c0.129,-3.264 2.322,-5.834 4.895,-5.734Z" style="fill:#200e06;"/><path d="M7.443,83.026c-1.858,-18.903 6.232,-28.078 26.381,-21.112c2.528,0.875 -10.386,-0.095 -16.562,4.155c-6.613,4.55 -9.658,18.596 -9.819,16.957Z" style="fill:#eda3ba;"/></g><g><path d="M5.425,73.282c0.017,0.296 0.073,0.561 0.351,1.006c0.497,0.797 1.818,1.776 1.818,1.776c0,0 0.356,-1.423 0.299,-2.269c-0.023,-0.342 -0.129,-0.721 -0.259,-1.034c0.145,0.053 0.317,0.073 0.556,0.046c0.737,-0.084 1.866,-0.98 1.866,-0.98c0,0 -0.925,-1.239 -1.559,-1.675c-0.148,-0.102 -0.472,-0.159 -0.767,-0.163c0.2,-0.167 0.404,-0.333 0.454,-0.535c0.208,-0.853 -0.016,-2.646 -0.016,-2.646c0,0 -1.215,0.221 -1.755,0.633c-0.124,0.095 -0.338,0.761 -0.338,0.761c-0.465,-1.357 -1.84,-2.265 -1.84,-2.265c0,0 -0.308,1.051 -0.327,1.629c-0.01,0.323 0.177,1.046 0.177,1.046c0,0 -0.598,-0.378 -0.911,-0.441c-0.437,-0.087 -1.402,0.231 -1.402,0.231c0,0 0.31,1.311 0.895,1.858c0.501,0.467 0.894,0.35 1.129,0.45c-0.204,0.108 -0.667,0.345 -0.877,0.767c-0.369,0.742 -0.497,1.744 -0.497,1.744c0,0 1.242,0.558 1.918,0.554c0.385,-0.003 0.792,-0.201 1.022,-0.424c0.022,-0.021 0.042,-0.044 0.063,-0.069Z" style="fill:#063614;fill-rule:nonzero;stroke:#17540f;stroke-width:0.12px;"/><path d="M5.873,70.277c0.115,-0.322 0.175,-0.63 0.082,-1.225c-0.166,-1.065 -1.121,-2.685 -1.121,-2.685c0,0 -1.019,1.359 -1.34,2.284c-0.13,0.374 -0.19,0.824 -0.193,1.214c-0.13,-0.119 -0.302,-0.216 -0.568,-0.292c-0.817,-0.233 -2.415,0.226 -2.415,0.226c0,0 0.419,1.724 0.893,2.466c0.11,0.173 0.427,0.375 0.737,0.51c-0.286,0.09 -0.577,0.177 -0.721,0.37c-0.605,0.817 -1.177,2.824 -1.177,2.824c0,0 1.384,0.297 2.142,0.094c0.173,-0.046 0.7,-0.662 0.7,-0.662c-0.121,1.649 0.924,3.216 0.924,3.216c0,0 0.8,-0.983 1.081,-1.591c0.157,-0.339 0.285,-1.191 0.285,-1.191c0,0 0.462,0.665 0.764,0.868c0.423,0.285 1.587,0.368 1.587,0.368c0,0 0.264,-1.532 -0.108,-2.369c-0.319,-0.717 -0.787,-0.764 -0.99,-0.974c0.264,-0.026 0.861,-0.075 1.274,-0.432c0.725,-0.629 1.312,-1.64 1.312,-1.64c0,0 -1.062,-1.137 -1.779,-1.429c-0.408,-0.165 -0.927,-0.132 -1.272,0.004c-0.032,0.013 -0.064,0.028 -0.097,0.046Z" style="fill:#063614;fill-rule:nonzero;stroke:#17540f;stroke-width:0.14px;"/></g></g><g><g><path d="M98.185,51.32c3.902,12.667 -3.351,26.077 -16.187,29.927c-12.835,3.85 -26.423,-3.308 -30.325,-15.975c-3.902,-12.667 3.351,-26.077 16.187,-29.927c12.835,-3.85 26.424,3.308 30.325,15.975Z" style="fill:#c2003d;"/><path d="M71.926,75.783c-1.474,2.733 -5.572,3.428 -9.146,1.552c-3.574,-1.877 -5.279,-5.62 -3.806,-8.353c1.474,-2.734 5.572,-3.429 9.146,-1.552c3.574,1.877 5.28,5.619 3.806,8.353Z" style="fill:#200e06;"/><path d="M56.591,66.758c-2.231,-22.693 7.481,-33.708 31.67,-25.344c3.035,1.049 -12.469,-0.114 -19.883,4.987c-7.939,5.463 -11.594,22.324 -11.787,20.357Z" style="fill:#eda3ba;"/></g><g><path d="M86.668,40.157c-0.339,-0.139 -0.665,-0.219 -1.308,-0.155c-1.153,0.114 -2.944,1.024 -2.944,1.024c0,0 1.399,1.143 2.373,1.531c0.394,0.157 0.873,0.245 1.291,0.27c-0.136,0.129 -0.249,0.304 -0.346,0.578c-0.297,0.843 0.105,2.543 0.105,2.543c0,0 1.873,-0.343 2.695,-0.798c0.192,-0.106 0.427,-0.426 0.588,-0.743c0.081,0.305 0.157,0.614 0.357,0.775c0.841,0.68 2.961,1.391 2.961,1.391c0,0 0.397,-1.433 0.223,-2.237c-0.04,-0.184 -0.67,-0.77 -0.67,-0.77c1.761,0.218 3.501,-0.788 3.501,-0.788c0,0 -1.008,-0.893 -1.644,-1.221c-0.355,-0.183 -1.261,-0.365 -1.261,-0.365c0,0 0.739,-0.447 0.975,-0.752c0.329,-0.427 0.485,-1.641 0.485,-1.641c0,0 -1.628,-0.362 -2.547,-0.02c-0.787,0.294 -0.864,0.782 -1.101,0.982c-0.013,-0.277 -0.031,-0.905 -0.391,-1.357c-0.632,-0.795 -1.683,-1.467 -1.683,-1.467c0,0 -1.28,1.049 -1.634,1.783c-0.201,0.418 -0.195,0.964 -0.068,1.333c0.011,0.034 0.026,0.069 0.043,0.104Z" style="fill:#063614;fill-rule:nonzero;stroke:#17540f;stroke-width:0.15px;"/><path d="M89.784,42.242c0.299,0.296 0.61,0.525 1.323,0.741c1.278,0.387 3.591,0.215 3.591,0.215c0,0 -0.977,-1.827 -1.839,-2.667c-0.349,-0.34 -0.819,-0.644 -1.253,-0.855c0.202,-0.077 0.402,-0.212 0.627,-0.46c0.693,-0.761 1.027,-2.737 1.027,-2.737c0,0 -2.146,-0.462 -3.225,-0.344c-0.251,0.027 -0.645,0.263 -0.959,0.527c0.052,-0.358 0.108,-0.72 -0.031,-0.978c-0.591,-1.091 -2.528,-2.778 -2.528,-2.778c0,0 -1.065,1.341 -1.24,2.269c-0.04,0.213 0.369,1.111 0.369,1.111c-1.776,-1.008 -4.079,-0.711 -4.079,-0.711c0,0 0.673,1.391 1.203,2.018c0.296,0.35 1.178,0.942 1.178,0.942c0,0 -0.987,0.147 -1.374,0.366c-0.541,0.307 -1.251,1.523 -1.251,1.523c0,0 1.57,1.101 2.702,1.144c0.968,0.036 1.269,-0.446 1.61,-0.554c-0.11,0.299 -0.372,0.972 -0.192,1.61c0.318,1.119 1.135,2.294 1.135,2.294c0,0 1.831,-0.546 2.536,-1.167c0.402,-0.353 0.64,-0.934 0.67,-1.38c0.003,-0.041 0.003,-0.084 0,-0.129Z" style="fill:#063614;fill-rule:nonzero;stroke:#17540f;stroke-width:0.17px;"/></g></g></g></svg>