<svg width="100px" height="100px" viewBox="0 0 100 100" version="1.1" xmlns="http://www.w3.org/2000/svg" xmlns:xlink="http://www.w3.org/1999/xlink" xml:space="preserve" xmlns:serif="http://www.serif.com/" style="fill-rule:evenodd;clip-rule:evenodd;"><g><path d="M54.616,0.25c0.5,6.961 -0.02,13.787 -1.854,20.505c-0.114,-0.448 -0.238,-0.89 -0.375,-1.33c-1.934,-6.209 -6.105,-11.529 -12.675,-15.57c-4.474,-3.421 -12.458,-4.899 -23.451,-1.725c0.465,4.602 9.396,5.132 12.436,5.55c-5.973,1.316 -12.569,6.446 -21.371,7.487c8.129,4.288 19.156,0.909 26.681,-2.416c-0.387,3.662 -2.83,6.002 -5.071,12.32c9.889,-2.287 14.647,-7.736 14.917,-12.934c2.31,2.525 3.879,5.336 4.845,8.437c0.725,2.326 1.104,4.836 1.157,7.514c0.8,1.027 1.426,2.198 1.821,3.469c1.099,-0.622 2.315,-1.062 3.605,-1.273c1.263,-3.084 2.684,-5.6 4.245,-7.474c3.076,-3.695 6.401,-5.075 11.06,-4.174l0.007,-0.032c6.74,4.692 4.985,12.604 2.532,18.476c4.463,-1.38 6.905,-4.119 6.913,-8.883c3.71,2.433 5.255,6.428 6.318,10.764c1.493,-4.446 1.193,-9.259 -2.643,-13.406l8.961,3.411c-5.773,-6.897 -11.229,-14.248 -21.765,-14.2c-5.469,-0.92 -10.318,1.027 -13.928,5.078c1.532,-6.46 1.95,-13.011 1.505,-19.594l-3.87,0l0,0Z" style="fill:#10390d;fill-rule:nonzero;"/><g><path d="M41.23,26.555c-4.619,0 -8.317,3.691 -8.317,8.31c0,1.655 0.477,3.191 1.299,4.482c0.889,-0.196 1.811,-0.304 2.757,-0.304c3.174,0 6.085,1.169 8.333,3.092c2.538,-1.419 4.239,-4.134 4.239,-7.27c0,-4.619 -3.691,-8.31 -8.311,-8.31l0,0Z" style="fill:url(#_Radial1);fill-rule:nonzero;"/><ellipse cx="45.251" cy="38.413" rx="1.649" ry="1.649" style="fill:url(#_Radial2);stroke:#000;stroke-width:0.07px;"/></g><g><path d="M29.539,30.41c-4.591,0 -8.267,3.669 -8.267,8.259c0,3.86 2.597,7.077 6.153,8.002c0.967,-2.608 2.764,-4.817 5.066,-6.311c-1.031,-1.84 -1.623,-3.958 -1.623,-6.206c0,-1.227 0.178,-2.415 0.505,-3.54c-0.589,-0.131 -1.204,-0.204 -1.834,-0.204l0,0Z" style="fill:url(#_Radial3);fill-rule:nonzero;"/><ellipse cx="26.019" cy="43.094" rx="1.649" ry="1.649" style="fill:url(#_Radial4);stroke:#000;stroke-width:0.07px;"/></g><g><path d="M57.046,32.916c-4.597,0 -8.278,3.674 -8.278,8.271c0,0.845 0.124,1.66 0.355,2.426c0.998,-0.251 2.042,-0.385 3.115,-0.385c3.92,0 7.438,1.785 9.79,4.581c2.002,-1.506 3.288,-3.903 3.288,-6.622c0,-4.597 -3.673,-8.27 -8.27,-8.27l0,-0.001Z" style="fill:url(#_Radial5);fill-rule:nonzero;"/><ellipse cx="62.094" cy="43.24" rx="1.649" ry="1.649" style="fill:url(#_Radial6);stroke:#000;stroke-width:0.07px;"/></g><g><path d="M37.606,40.961c-4.618,0 -8.317,3.699 -8.317,8.317c0,4.618 3.699,8.316 8.317,8.316c4.617,0 8.316,-3.698 8.316,-8.316c0,-4.618 -3.698,-8.317 -8.316,-8.317Z" style="fill:url(#_Radial7);fill-rule:nonzero;"/><ellipse cx="40.57" cy="53.924" rx="1.599" ry="1.599" style="fill:url(#_Radial8);stroke:#000;stroke-width:0.07px;"/></g><g><path d="M67.856,42.589c-0.142,0 -0.285,0 -0.424,0.007c-0.745,3.031 -2.596,5.634 -5.094,7.363c0.478,1.326 0.735,2.752 0.735,4.239c0,0.987 -0.124,1.947 -0.342,2.87c1.396,1.128 3.175,1.8 5.124,1.8c4.523,0 8.144,-3.621 8.144,-8.143c0,-4.522 -3.621,-8.136 -8.144,-8.136l0.001,0Z" style="fill:url(#_Radial9);fill-rule:nonzero;"/><ellipse cx="71.647" cy="54.668" rx="1.649" ry="1.649" style="fill:url(#_Radial10);stroke:#000;stroke-width:0.07px;"/></g><g><path d="M52.903,45.402c-1.993,0 -3.816,0.688 -5.244,1.837c0.039,0.408 0.061,0.817 0.061,1.235c0,2.977 -1.02,5.723 -2.729,7.913c1.095,3.325 4.203,5.702 7.912,5.702c4.635,0 8.347,-3.712 8.347,-8.348c0,-4.635 -3.712,-8.339 -8.347,-8.339l0,0Z" style="fill:url(#_Radial11);fill-rule:nonzero;"/><ellipse cx="55.872" cy="58.268" rx="1.649" ry="1.649" style="fill:url(#_Radial12);stroke:#000;stroke-width:0.07px;"/></g><g><path d="M23.277,48.171c-4.412,0 -7.937,3.532 -7.937,7.944c0,2.775 1.399,5.199 3.533,6.616c1.017,-4.675 4.714,-8.368 9.387,-9.388c-0.547,-1.27 -0.886,-2.647 -0.972,-4.091c-1.175,-0.685 -2.543,-1.081 -4.011,-1.081Z" style="fill:url(#_Radial13);fill-rule:nonzero;"/><ellipse cx="18.143" cy="57.821" rx="1.649" ry="1.649" style="fill:url(#_Radial14);stroke:#000;stroke-width:0.07px;"/></g><g><path d="M29.88,55.865c-4.659,0 -8.389,3.723 -8.389,8.381c0,4.659 3.73,8.389 8.389,8.389c4.658,0 8.381,-3.73 8.381,-8.389c0,-1.889 -0.609,-3.623 -1.647,-5.018c-2.493,-0.477 -4.741,-1.666 -6.512,-3.355c-0.074,-0.002 -0.148,-0.008 -0.222,-0.008Z" style="fill:url(#_Radial15);fill-rule:nonzero;"/><ellipse cx="33.19" cy="68.961" rx="1.649" ry="1.649" style="fill:url(#_Radial16);stroke:#000;stroke-width:0.07px;"/></g><g><path d="M42.831,57.435c-1.212,0.726 -2.546,1.261 -3.965,1.57c0.688,1.602 1.076,3.359 1.076,5.206c0,2.722 -0.829,5.26 -2.246,7.373c1.565,1.663 3.792,2.693 6.274,2.693c4.774,0 8.597,-3.823 8.597,-8.597c0,-0.384 -0.03,-0.761 -0.078,-1.131c-4.219,-0.707 -7.777,-3.418 -9.658,-7.114Z" style="fill:url(#_Radial17);fill-rule:nonzero;"/><ellipse cx="47.028" cy="70.261" rx="1.727" ry="1.727" style="fill:url(#_Radial18);stroke:#000;stroke-width:0.08px;"/></g><g><path d="M50.063,80.439c-0.636,0.937 -1.425,1.778 -2.352,2.482c1.041,0.933 1.917,2.079 2.542,3.423c0.92,1.98 1.175,4.106 0.859,6.122c1.701,0.68 3.669,0.677 5.474,-0.163c3.473,-1.614 4.96,-5.687 3.346,-9.16c-0.13,-0.279 -0.279,-0.543 -0.439,-0.796c-3.308,0.912 -6.812,0.144 -9.43,-1.908Z" style="fill:url(#_Radial19);fill-rule:nonzero;"/><path d="M56.35,88.583c0.693,-0.322 1.518,-0.021 1.84,0.672c0.322,0.693 0.021,1.518 -0.672,1.84c-0.693,0.322 -1.518,0.021 -1.84,-0.672c-0.322,-0.693 -0.021,-1.518 0.672,-1.84Z" style="fill:url(#_Radial20);stroke:#000;stroke-width:0.06px;"/></g><g><path d="M62.032,58.88c-1.925,2.85 -4.932,4.913 -8.416,5.606c1.257,3.162 4.331,5.378 7.962,5.378c4.762,0 8.574,-3.804 8.574,-8.565c0,-0.078 -0.006,-0.157 -0.008,-0.235c-0.269,0.017 -0.541,0.024 -0.814,0.024c-2.692,0 -5.202,-0.815 -7.297,-2.208l-0.001,0Z" style="fill:url(#_Radial21);fill-rule:nonzero;"/><ellipse cx="64.628" cy="66.619" rx="1.649" ry="1.649" style="fill:url(#_Radial22);stroke:#000;stroke-width:0.07px;"/></g><g><path d="M54.239,69.078c-1.148,2.634 -3.128,4.831 -5.606,6.246c0.993,3.614 4.28,6.238 8.226,6.238c4.742,0 8.532,-3.789 8.532,-8.531c0,-0.177 -0.006,-0.356 -0.016,-0.53c-0.686,0.111 -1.389,0.171 -2.105,0.171c-3.486,0 -6.665,-1.371 -9.031,-3.595l0,0.001Z" style="fill:url(#_Radial23);fill-rule:nonzero;"/><ellipse cx="59.33" cy="78.603" rx="1.649" ry="1.649" style="fill:url(#_Radial24);stroke:#000;stroke-width:0.07px;"/></g><g><path d="M35.729,71.945c-1.445,1.057 -3.112,1.82 -4.912,2.222c-0.204,0.736 -0.32,1.51 -0.32,2.314c0,4.756 3.8,8.557 8.555,8.557c4.756,0 8.564,-3.801 8.564,-8.557c0,-0.251 -0.01,-0.504 -0.031,-0.75c-0.777,0.144 -1.577,0.219 -2.394,0.219c-3.697,0 -7.054,-1.538 -9.462,-4.004l0,-0.001Z" style="fill:url(#_Radial25);fill-rule:nonzero;"/><ellipse cx="41.237" cy="81.766" rx="1.649" ry="1.649" style="fill:url(#_Radial26);stroke:#000;stroke-width:0.07px;"/></g><g><path d="M22.729,71.638c-0.695,1.298 -1.085,2.781 -1.085,4.367c0,5.116 4.097,9.205 9.213,9.205c0.267,0 0.53,-0.012 0.791,-0.034c-1.928,-2.429 -3.08,-5.499 -3.08,-8.826c0,-0.785 0.07,-1.554 0.194,-2.305c-2.217,-0.331 -4.268,-1.173 -6.033,-2.407l0,0Z" style="fill:url(#_Radial27);fill-rule:nonzero;"/><ellipse cx="26.87" cy="81.73" rx="1.649" ry="1.649" style="fill:url(#_Radial28);stroke:#000;stroke-width:0.07px;"/></g><g><path d="M46.706,83.999c-2.286,1.691 -5.108,2.694 -8.156,2.694c-1.729,0 -3.381,-0.324 -4.909,-0.911c-0.984,1.433 -1.562,3.169 -1.562,5.054c0,4.95 3.955,8.914 8.905,8.914c4.949,0 8.913,-3.964 8.913,-8.914c0,-2.763 -1.238,-5.209 -3.19,-6.837l-0.001,0Z" style="fill:url(#_Radial29);fill-rule:nonzero;"/><ellipse cx="43.484" cy="96.044" rx="1.752" ry="1.752" style="fill:url(#_Radial30);stroke:#000;stroke-width:0.08px;"/></g></g><defs><radialGradient id="_Radial1" cx="0" cy="0" r="1" gradientUnits="userSpaceOnUse" gradientTransform="matrix(8.31441,0,0,7.7902,41.227,34.3449)"><stop offset="0" style="stop-color:#591c8e;stop-opacity:1"/><stop offset="1" style="stop-color:#11031d;stop-opacity:1"/></radialGradient><radialGradient id="_Radial2" cx="0" cy="0" r="1" gradientUnits="userSpaceOnUse" gradientTransform="matrix(2.07536,0,0,2.23052,45.2509,38.4126)"><stop offset="0" style="stop-color:#9c91ce;stop-opacity:1"/><stop offset="1" style="stop-color:#170e44;stop-opacity:1"/></radialGradient><radialGradient id="_Radial3" cx="0" cy="0" r="1" gradientUnits="userSpaceOnUse" gradientTransform="matrix(5.60928,0,0,8.13056,26.8816,38.5406)"><stop offset="0" style="stop-color:#591c8e;stop-opacity:1"/><stop offset="1" style="stop-color:#11031d;stop-opacity:1"/></radialGradient><radialGradient id="_Radial4" cx="0" cy="0" r="1" gradientUnits="userSpaceOnUse" gradientTransform="matrix(2.07536,0,0,2.23052,26.0187,43.0943)"><stop offset="0" style="stop-color:#9c91ce;stop-opacity:1"/><stop offset="1" style="stop-color:#170e44;stop-opacity:1"/></radialGradient><radialGradient id="_Radial5" cx="0" cy="0" r="1" gradientUnits="userSpaceOnUse" gradientTransform="matrix(8.27407,0,0,7.44615,57.0424,40.3626)"><stop offset="0" style="stop-color:#591c8e;stop-opacity:1"/><stop offset="1" style="stop-color:#11031d;stop-opacity:1"/></radialGradient><radialGradient id="_Radial6" cx="0" cy="0" r="1" gradientUnits="userSpaceOnUse" gradientTransform="matrix(2.07536,0,0,2.23052,62.0939,43.2395)"><stop offset="0" style="stop-color:#9c91ce;stop-opacity:1"/><stop offset="1" style="stop-color:#170e44;stop-opacity:1"/></radialGradient><radialGradient id="_Radial7" cx="0" cy="0" r="1" gradientUnits="userSpaceOnUse" gradientTransform="matrix(8.31643,0,0,8.31643,37.6059,49.2779)"><stop offset="0" style="stop-color:#591c8e;stop-opacity:1"/><stop offset="1" style="stop-color:#11031d;stop-opacity:1"/></radialGradient><radialGradient id="_Radial8" cx="0" cy="0" r="1" gradientUnits="userSpaceOnUse" gradientTransform="matrix(2.01251,0,0,2.16298,40.5704,53.9239)"><stop offset="0" style="stop-color:#9c91ce;stop-opacity:1"/><stop offset="1" style="stop-color:#170e44;stop-opacity:1"/></radialGradient><radialGradient id="_Radial9" cx="0" cy="0" r="1" gradientUnits="userSpaceOnUse" gradientTransform="matrix(6.8305,0,0,8.13972,69.1681,50.7284)"><stop offset="0" style="stop-color:#591c8e;stop-opacity:1"/><stop offset="1" style="stop-color:#11031d;stop-opacity:1"/></radialGradient><radialGradient id="_Radial10" cx="0" cy="0" r="1" gradientUnits="userSpaceOnUse" gradientTransform="matrix(2.07536,0,0,2.23052,71.6471,54.6679)"><stop offset="0" style="stop-color:#9c91ce;stop-opacity:1"/><stop offset="1" style="stop-color:#170e44;stop-opacity:1"/></radialGradient><radialGradient id="_Radial11" cx="0" cy="0" r="1" gradientUnits="userSpaceOnUse" gradientTransform="matrix(8.1298,0,0,8.34336,53.1205,53.7453)"><stop offset="0" style="stop-color:#591c8e;stop-opacity:1"/><stop offset="1" style="stop-color:#11031d;stop-opacity:1"/></radialGradient><radialGradient id="_Radial12" cx="0" cy="0" r="1" gradientUnits="userSpaceOnUse" gradientTransform="matrix(2.07536,0,0,2.23052,55.8724,58.2681)"><stop offset="0" style="stop-color:#9c91ce;stop-opacity:1"/><stop offset="1" style="stop-color:#170e44;stop-opacity:1"/></radialGradient><radialGradient id="_Radial13" cx="0" cy="0" r="1" gradientUnits="userSpaceOnUse" gradientTransform="matrix(6.45997,0,0,7.28002,21.8004,55.451)"><stop offset="0" style="stop-color:#591c8e;stop-opacity:1"/><stop offset="1" style="stop-color:#11031d;stop-opacity:1"/></radialGradient><radialGradient id="_Radial14" cx="0" cy="0" r="1" gradientUnits="userSpaceOnUse" gradientTransform="matrix(2.07536,0,0,2.23052,18.1434,57.821)"><stop offset="0" style="stop-color:#9c91ce;stop-opacity:1"/><stop offset="1" style="stop-color:#170e44;stop-opacity:1"/></radialGradient><radialGradient id="_Radial15" cx="0" cy="0" r="1" gradientUnits="userSpaceOnUse" gradientTransform="matrix(8.38489,0,0,8.38489,29.8759,64.2501)"><stop offset="0" style="stop-color:#591c8e;stop-opacity:1"/><stop offset="1" style="stop-color:#11031d;stop-opacity:1"/></radialGradient><radialGradient id="_Radial16" cx="0" cy="0" r="1" gradientUnits="userSpaceOnUse" gradientTransform="matrix(2.07536,0,0,2.23052,33.1902,68.9611)"><stop offset="0" style="stop-color:#9c91ce;stop-opacity:1"/><stop offset="1" style="stop-color:#170e44;stop-opacity:1"/></radialGradient><radialGradient id="_Radial17" cx="0" cy="0" r="1" gradientUnits="userSpaceOnUse" gradientTransform="matrix(7.43561,0,0,8.42115,45.1317,65.8563)"><stop offset="0" style="stop-color:#591c8e;stop-opacity:1"/><stop offset="1" style="stop-color:#11031d;stop-opacity:1"/></radialGradient><radialGradient id="_Radial18" cx="0" cy="0" r="1" gradientUnits="userSpaceOnUse" gradientTransform="matrix(2.17383,0,0,2.33636,47.028,70.2612)"><stop offset="0" style="stop-color:#9c91ce;stop-opacity:1"/><stop offset="1" style="stop-color:#170e44;stop-opacity:1"/></radialGradient><radialGradient id="_Radial19" cx="0" cy="0" r="1" gradientUnits="userSpaceOnUse" gradientTransform="matrix(5.40807,-2.51403,2.84724,6.12488,54.5839,85.7858)"><stop offset="0" style="stop-color:#591c8e;stop-opacity:1"/><stop offset="1" style="stop-color:#11031d;stop-opacity:1"/></radialGradient><radialGradient id="_Radial20" cx="0" cy="0" r="1" gradientUnits="userSpaceOnUse" gradientTransform="matrix(1.58107,-0.734986,0.789938,1.69928,56.9339,89.8391)"><stop offset="0" style="stop-color:#9c91ce;stop-opacity:1"/><stop offset="1" style="stop-color:#170e44;stop-opacity:1"/></radialGradient><radialGradient id="_Radial21" cx="0" cy="0" r="1" gradientUnits="userSpaceOnUse" gradientTransform="matrix(8.26788,0,0,5.49225,61.8841,64.3722)"><stop offset="0" style="stop-color:#591c8e;stop-opacity:1"/><stop offset="1" style="stop-color:#11031d;stop-opacity:1"/></radialGradient><radialGradient id="_Radial22" cx="0" cy="0" r="1" gradientUnits="userSpaceOnUse" gradientTransform="matrix(2.07536,0,0,2.23052,64.6277,66.6188)"><stop offset="0" style="stop-color:#9c91ce;stop-opacity:1"/><stop offset="1" style="stop-color:#170e44;stop-opacity:1"/></radialGradient><radialGradient id="_Radial23" cx="0" cy="0" r="1" gradientUnits="userSpaceOnUse" gradientTransform="matrix(8.37909,0,0,6.24221,57.0117,75.3197)"><stop offset="0" style="stop-color:#591c8e;stop-opacity:1"/><stop offset="1" style="stop-color:#11031d;stop-opacity:1"/></radialGradient><radialGradient id="_Radial24" cx="0" cy="0" r="1" gradientUnits="userSpaceOnUse" gradientTransform="matrix(2.07536,0,0,2.23052,59.3299,78.6026)"><stop offset="0" style="stop-color:#9c91ce;stop-opacity:1"/><stop offset="1" style="stop-color:#170e44;stop-opacity:1"/></radialGradient><radialGradient id="_Radial25" cx="0" cy="0" r="1" gradientUnits="userSpaceOnUse" gradientTransform="matrix(8.55965,0,0,6.54618,39.0565,78.4917)"><stop offset="0" style="stop-color:#591c8e;stop-opacity:1"/><stop offset="1" style="stop-color:#11031d;stop-opacity:1"/></radialGradient><radialGradient id="_Radial26" cx="0" cy="0" r="1" gradientUnits="userSpaceOnUse" gradientTransform="matrix(2.07536,0,0,2.23052,41.2374,81.7657)"><stop offset="0" style="stop-color:#9c91ce;stop-opacity:1"/><stop offset="1" style="stop-color:#170e44;stop-opacity:1"/></radialGradient><radialGradient id="_Radial27" cx="0" cy="0" r="1" gradientUnits="userSpaceOnUse" gradientTransform="matrix(5.00214,0,0,6.78619,26.6457,78.4237)"><stop offset="0" style="stop-color:#591c8e;stop-opacity:1"/><stop offset="1" style="stop-color:#11031d;stop-opacity:1"/></radialGradient><radialGradient id="_Radial28" cx="0" cy="0" r="1" gradientUnits="userSpaceOnUse" gradientTransform="matrix(2.07536,0,0,2.23052,26.8701,81.7301)"><stop offset="0" style="stop-color:#9c91ce;stop-opacity:1"/><stop offset="1" style="stop-color:#170e44;stop-opacity:1"/></radialGradient><radialGradient id="_Radial29" cx="0" cy="0" r="1" gradientUnits="userSpaceOnUse" gradientTransform="matrix(8.90945,0,0,7.8756,40.988,91.8744)"><stop offset="0" style="stop-color:#591c8e;stop-opacity:1"/><stop offset="1" style="stop-color:#11031d;stop-opacity:1"/></radialGradient><radialGradient id="_Radial30" cx="0" cy="0" r="1" gradientUnits="userSpaceOnUse" gradientTransform="matrix(2.20594,0,0,2.37087,43.4839,96.0443)"><stop offset="0" style="stop-color:#9c91ce;stop-opacity:1"/><stop offset="1" style="stop-color:#170e44;stop-opacity:1"/></radialGradient></defs></svg>