<svg width="100px" height="100px" viewBox="0 0 100 100" version="1.1" xmlns="http://www.w3.org/2000/svg" xmlns:xlink="http://www.w3.org/1999/xlink" xml:space="preserve" style="fill-rule:evenodd;clip-rule:evenodd;stroke-linejoin:round;stroke-miterlimit:1.41421;"><g><g><path d="M99.794,0.1l0,8.456c-1.584,0.481 -3.17,1.025 -4.753,1.628l-5.171,10.293c-1.202,5.526 -2.52,11.457 -3.769,16.921c4.56,1.698 -7.908,-0.341 -3.921,-0.583c1.135,-4.96 2.325,-10.331 3.445,-15.452l0.257,-7.067c-6.4,3.297 -12.713,7.409 -18.804,12.032l-0.918,11.784c1.445,7.547 2.131,15.536 2.201,23.928c4.654,0.639 -7.942,1.435 -3.96,0.284c-0.066,-9.616 -0.949,-18.62 -2.856,-26.957l-2.004,-2.968c-4.57,3.885 -8.966,8.001 -13.131,12.199c-2.484,3.017 -4.915,6.063 -7.26,9.157l-0.152,5.892c2.805,5.666 4.839,11.976 6.308,18.824c0.028,0 0.057,0 0.086,0c5.273,0 -7.249,2.355 -3.947,0.853c-1.555,-7.242 -3.743,-13.753 -6.77,-19.433c-5.133,7.344 -9.675,15.043 -13.205,23.393c1.92,1.747 -4.385,-2.308 -3.452,-2.003c5.716,-13.355 13.852,-24.983 22.726,-36.002c0.182,-0.283 0.37,-0.563 0.554,-0.846l-2.386,-0.047c-7.41,2.464 -14.773,6.146 -22.17,10.838c1.582,1.703 -4.625,-2.827 -3.557,-2.414c8.596,-5.596 17.232,-9.945 26.044,-12.674l7.537,-3.663c4.774,-6.586 9.982,-12.878 15.718,-18.811l-7.009,-0.761c-7.821,0.725 -15.535,1.754 -23.036,3.624c0.536,1.193 -4.261,-4.807 -2.606,-3.425c8.949,-2.392 18.093,-3.54 27.242,-4.324l13.925,-3.313c3.649,-3.256 7.49,-6.381 11.544,-9.363l17.25,0l0,0Z" style="fill:#145716;fill-rule:nonzero;stroke:#000;stroke-width:0.15px;"/></g><circle cx="12.184" cy="55.918" r="7.633" style="fill:url(#_Radial1);stroke:#000;stroke-width:0.15px;stroke-linejoin:miter;stroke-miterlimit:4;"/><ellipse cx="10.209" cy="52.944" rx="2.237" ry="2.237" style="fill:url(#_Radial2);stroke:#000;stroke-width:0.1px;stroke-linejoin:miter;stroke-miterlimit:4;"/><circle cx="28.006" cy="22.627" r="7.633" style="fill:url(#_Radial3);stroke:#000;stroke-width:0.15px;stroke-linejoin:miter;stroke-miterlimit:4;"/><ellipse cx="26.032" cy="19.652" rx="2.237" ry="2.237" style="fill:url(#_Radial4);stroke:#000;stroke-width:0.1px;stroke-linejoin:miter;stroke-miterlimit:4;"/><circle cx="17.88" cy="84.272" r="7.633" style="fill:url(#_Radial5);stroke:#000;stroke-width:0.15px;stroke-linejoin:miter;stroke-miterlimit:4;"/><ellipse cx="15.906" cy="81.298" rx="2.237" ry="2.237" style="fill:url(#_Radial6);stroke:#000;stroke-width:0.1px;stroke-linejoin:miter;stroke-miterlimit:4;"/><circle cx="42.69" cy="80.854" r="7.633" style="fill:url(#_Radial7);stroke:#000;stroke-width:0.15px;stroke-linejoin:miter;stroke-miterlimit:4;"/><ellipse cx="40.716" cy="77.88" rx="2.237" ry="2.237" style="fill:url(#_Radial8);stroke:#000;stroke-width:0.1px;stroke-linejoin:miter;stroke-miterlimit:4;"/><circle cx="66.487" cy="65.791" r="7.633" style="fill:url(#_Radial9);stroke:#000;stroke-width:0.15px;stroke-linejoin:miter;stroke-miterlimit:4;"/><ellipse cx="64.513" cy="62.817" rx="2.237" ry="2.237" style="fill:url(#_Radial10);stroke:#000;stroke-width:0.1px;stroke-linejoin:miter;stroke-miterlimit:4;"/><circle cx="83.576" cy="41.994" r="7.633" style="fill:url(#_Radial11);stroke:#000;stroke-width:0.15px;stroke-linejoin:miter;stroke-miterlimit:4;"/><ellipse cx="81.602" cy="39.019" rx="2.237" ry="2.237" style="fill:url(#_Radial12);stroke:#000;stroke-width:0.1px;stroke-linejoin:miter;stroke-miterlimit:4;"/></g><defs><radialGradient id="_Radial1" cx="0" cy="0" r="1" gradientUnits="userSpaceOnUse" gradientTransform="matrix(13.6864,-0.0613304,0.0514229,11.476,12.1835,55.9177)"><stop offset="0" style="stop-color:#591c8e;stop-opacity:1"/><stop offset="1" style="stop-color:#11031d;stop-opacity:1"/></radialGradient><radialGradient id="_Radial2" cx="0" cy="0" r="1" gradientUnits="userSpaceOnUse" gradientTransform="matrix(2.81625,0,0,3.02681,10.2095,52.9435)"><stop offset="0" style="stop-color:#9c91ce;stop-opacity:1"/><stop offset="1" style="stop-color:#170e44;stop-opacity:1"/></radialGradient><radialGradient id="_Radial3" cx="0" cy="0" r="1" gradientUnits="userSpaceOnUse" gradientTransform="matrix(13.6864,-0.0613304,0.0514229,11.476,28.0063,22.6266)"><stop offset="0" style="stop-color:#591c8e;stop-opacity:1"/><stop offset="1" style="stop-color:#11031d;stop-opacity:1"/></radialGradient><radialGradient id="_Radial4" cx="0" cy="0" r="1" gradientUnits="userSpaceOnUse" gradientTransform="matrix(2.81625,0,0,3.02681,26.0323,19.6524)"><stop offset="0" style="stop-color:#9c91ce;stop-opacity:1"/><stop offset="1" style="stop-color:#170e44;stop-opacity:1"/></radialGradient><radialGradient id="_Radial5" cx="0" cy="0" r="1" gradientUnits="userSpaceOnUse" gradientTransform="matrix(13.6864,-0.0613304,0.0514229,11.476,17.8797,84.2722)"><stop offset="0" style="stop-color:#591c8e;stop-opacity:1"/><stop offset="1" style="stop-color:#11031d;stop-opacity:1"/></radialGradient><radialGradient id="_Radial6" cx="0" cy="0" r="1" gradientUnits="userSpaceOnUse" gradientTransform="matrix(2.81625,0,0,3.02681,15.9057,81.298)"><stop offset="0" style="stop-color:#9c91ce;stop-opacity:1"/><stop offset="1" style="stop-color:#170e44;stop-opacity:1"/></radialGradient><radialGradient id="_Radial7" cx="0" cy="0" r="1" gradientUnits="userSpaceOnUse" gradientTransform="matrix(13.6864,-0.0613304,0.0514229,11.476,42.6898,80.8544)"><stop offset="0" style="stop-color:#591c8e;stop-opacity:1"/><stop offset="1" style="stop-color:#11031d;stop-opacity:1"/></radialGradient><radialGradient id="_Radial8" cx="0" cy="0" r="1" gradientUnits="userSpaceOnUse" gradientTransform="matrix(2.81625,0,0,3.02681,40.7158,77.8802)"><stop offset="0" style="stop-color:#9c91ce;stop-opacity:1"/><stop offset="1" style="stop-color:#170e44;stop-opacity:1"/></radialGradient><radialGradient id="_Radial9" cx="0" cy="0" r="1" gradientUnits="userSpaceOnUse" gradientTransform="matrix(13.6864,-0.0613304,0.0514229,11.476,66.4873,65.7911)"><stop offset="0" style="stop-color:#591c8e;stop-opacity:1"/><stop offset="1" style="stop-color:#11031d;stop-opacity:1"/></radialGradient><radialGradient id="_Radial10" cx="0" cy="0" r="1" gradientUnits="userSpaceOnUse" gradientTransform="matrix(2.81625,0,0,3.02681,64.5133,62.8169)"><stop offset="0" style="stop-color:#9c91ce;stop-opacity:1"/><stop offset="1" style="stop-color:#170e44;stop-opacity:1"/></radialGradient><radialGradient id="_Radial11" cx="0" cy="0" r="1" gradientUnits="userSpaceOnUse" gradientTransform="matrix(13.6864,-0.0613304,0.0514229,11.476,83.5759,41.9937)"><stop offset="0" style="stop-color:#591c8e;stop-opacity:1"/><stop offset="1" style="stop-color:#11031d;stop-opacity:1"/></radialGradient><radialGradient id="_Radial12" cx="0" cy="0" r="1" gradientUnits="userSpaceOnUse" gradientTransform="matrix(2.81625,0,0,3.02681,81.6019,39.0195)"><stop offset="0" style="stop-color:#9c91ce;stop-opacity:1"/><stop offset="1" style="stop-color:#170e44;stop-opacity:1"/></radialGradient></defs></svg>