<svg width="100px" height="100px" viewBox="0 0 100 100" version="1.1" xmlns="http://www.w3.org/2000/svg" xmlns:xlink="http://www.w3.org/1999/xlink" xml:space="preserve" xmlns:serif="http://www.serif.com/" style="fill-rule:evenodd;clip-rule:evenodd;stroke-linejoin:round;stroke-miterlimit:1.41421;"><g><path d="M49.568,2.377c-3.568,0 -6.46,2.893 -6.46,6.461c0,3.568 2.892,6.46 6.46,6.46c3.569,0 6.461,-2.892 6.461,-6.46c0,-3.568 -2.892,-6.461 -6.461,-6.461l0,0Z" style="fill:#8f0a7e;fill-rule:nonzero;"/><path d="M48.99,4.325c-0.409,0.184 -0.753,0.48 -1.089,0.817c-1.488,1.487 -1.533,3.912 -0.046,5.399c1.488,1.488 3.958,1.488 5.446,0c0.356,-0.356 0.586,-0.788 0.771,-1.225c-0.109,0.988 -0.513,1.965 -1.27,2.722c-1.771,1.772 -4.627,1.726 -6.398,-0.045c-1.771,-1.77 -1.817,-4.626 -0.045,-6.397c0.726,-0.726 1.686,-1.14 2.632,-1.271l-0.001,0l0,0Z" style="fill:#d000b5;fill-rule:nonzero;"/><path d="M30.396,4.803c-4.992,0 -9.038,4.046 -9.038,9.038c0,4.991 4.046,9.037 9.037,9.037c0.674,0 1.331,-0.076 1.963,-0.216c0.267,3.322 3.046,5.935 6.437,5.935c3.568,0 6.46,-2.892 6.46,-6.46c0,-3.418 -2.654,-6.214 -6.013,-6.443c0.124,-0.599 0.191,-1.218 0.191,-1.853c0,-4.992 -4.046,-9.038 -9.037,-9.038l0,0Z" style="fill:#711d66;fill-rule:nonzero;stroke:#000;stroke-width:0.06px;"/><path d="M29.044,8.118c-0.558,0.251 -1.026,0.655 -1.484,1.113c-2.028,2.028 -2.09,5.333 -0.062,7.361c2.027,2.028 5.394,2.028 7.422,0c0.486,-0.486 0.798,-1.075 1.052,-1.671c-0.15,1.348 -0.7,2.68 -1.733,3.712c-2.414,2.414 -6.306,2.352 -8.72,-0.062l-0.001,0c-2.414,-2.414 -2.476,-6.308 -0.061,-8.721c0.989,-0.99 2.298,-1.554 3.587,-1.732l0,0Z" style="fill:#b1009a;fill-rule:nonzero;"/><path d="M61.363,15.924c-6.732,0 -12.19,5.458 -12.19,12.19c0,6.732 5.458,12.19 12.19,12.19c6.732,0 12.19,-5.458 12.19,-12.19c0,-6.732 -5.458,-12.19 -12.19,-12.19l0,0Z" style="fill:#5f1456;fill-rule:nonzero;stroke:#000;stroke-width:0.06px;"/><path d="M38.076,18.375c-0.386,0.173 -0.71,0.453 -1.027,0.769c-1.402,1.403 -1.445,3.688 -0.043,5.091c1.402,1.402 3.731,1.402 5.134,0c0.335,-0.337 0.551,-0.744 0.726,-1.155c-0.103,0.931 -0.484,1.852 -1.197,2.565c-1.67,1.67 -4.362,1.627 -6.031,-0.042c-1.669,-1.67 -1.713,-4.361 -0.043,-6.031c0.684,-0.685 1.59,-1.075 2.481,-1.198l0,0.001Z" style="fill:#a50090;fill-rule:nonzero;"/><path d="M59.969,18.942c-0.817,0.367 -1.502,0.958 -2.172,1.628c-2.966,2.966 -3.056,7.8 -0.09,10.767c2.966,2.966 7.89,2.966 10.856,0c0.71,-0.711 1.168,-1.572 1.538,-2.443c-0.219,1.97 -1.024,3.918 -2.533,5.428c-3.532,3.531 -9.226,3.44 -12.757,-0.091c-3.531,-3.531 -3.622,-9.225 -0.09,-12.756c1.448,-1.448 3.362,-2.272 5.247,-2.533l0.001,0Z" style="fill:#b2009c;fill-rule:nonzero;"/><path d="M39.906,33.149c-4.983,0 -9.021,4.039 -9.021,9.021c0,4.982 4.038,9.02 9.021,9.02c4.982,0 9.02,-4.038 9.02,-9.02c0,-4.982 -4.038,-9.02 -9.02,-9.02l0,-0.001l0,0Z" style="fill:#970784;fill-rule:nonzero;stroke:#000;stroke-width:0.06px;"/><path d="M39.171,35.613c-0.59,0.265 -1.084,0.692 -1.568,1.176c-2.142,2.141 -2.207,5.631 -0.065,7.773c2.142,2.142 5.697,2.142 7.839,0c0.512,-0.513 0.843,-1.135 1.11,-1.764c-0.158,1.422 -0.739,2.829 -1.829,3.919c-2.55,2.55 -6.661,2.485 -9.21,-0.065l-0.001,0c-2.549,-2.549 -2.615,-6.661 -0.065,-9.211c1.045,-1.045 2.428,-1.64 3.789,-1.828l0,0Z" style="fill:#d42ebf;fill-rule:nonzero;"/><path d="M84.461,55.936c-5.255,-1.603 -12.945,-2.839 -18.686,-3.566c-5.218,-0.662 -14.694,-0.8 -15.758,-0.8c-13.389,0 -25.509,1.641 -34.443,4.367c-4.467,1.362 -8.141,2.984 -10.839,4.93c-3.013,2.682 -5.349,5.103 -4.352,8.957c1.146,7.608 6.725,14.271 14.761,19.095c9.046,5.43 21.334,8.704 34.872,8.704c13.539,0 25.827,-3.274 34.873,-8.704c8.032,-4.823 13.609,-11.48 14.759,-19.083c0.147,-0.941 0.31,-2.028 0.106,-2.922c-0.446,-2.354 -2.148,-4.383 -4.455,-6.047c-2.697,-1.946 -6.371,-3.568 -10.838,-4.931" style="fill:#4e1700;fill-rule:nonzero;stroke:#000;stroke-width:0.06px;"/><path d="M50.017,55.473c1.103,0 10.145,0.132 15.167,0.765c5.551,0.7 13.149,1.909 18.137,3.431c4.202,1.282 7.544,2.811 9.695,4.363c1.935,1.396 2.777,2.669 2.927,3.752c-0.022,0.402 -0.059,0.802 -0.112,1.201c-0.31,0.97 -1.165,2.072 -2.815,3.262c-0.503,0.363 -1.072,0.724 -1.7,1.081c-12.638,-14.109 -66.746,-14.924 -82.91,-0.18c-0.506,-0.299 -0.97,-0.599 -1.388,-0.9c-1.654,-1.194 -2.51,-2.299 -2.818,-3.271c-0.052,-0.394 -0.088,-0.79 -0.11,-1.187c0.147,-1.084 0.99,-2.36 2.928,-3.758c2.151,-1.552 5.492,-3.081 9.695,-4.363c8.404,-2.565 20.236,-4.196 33.304,-4.196l0,0Z" style="fill:#b85403;fill-rule:nonzero;stroke:#000;stroke-width:0.06px;"/><path d="M30.774,62.638c0.462,-0.056 0.928,-0.111 1.398,-0.164c1.338,-3.307 4.58,-5.64 8.367,-5.64c3.42,0 6.395,1.903 7.924,4.707c0.494,-0.004 0.99,-0.006 1.488,-0.006c0.107,0 0.213,0 0.32,0.001c1.076,-0.803 2.411,-1.278 3.857,-1.278c1.559,0 2.989,0.552 4.105,1.472c0.391,0.018 0.78,0.038 1.168,0.06c1.583,-1.494 3.811,-2.423 6.279,-2.423c3.173,0 5.949,1.537 7.469,3.834c1.613,0.254 3.153,0.536 4.611,0.841c1.182,-1.531 3.035,-2.517 5.118,-2.517c3.545,0 6.422,2.854 6.46,6.389c1.695,0.977 2.821,2.039 3.246,3.16c0.126,0.323 0.266,0.696 0.091,1.003c-0.384,0.809 -1.845,1.505 -3.827,2.076c-2.317,0.668 -5.473,1.225 -9.31,1.693c-4.514,0.55 -11.119,0.975 -16.051,1.224c-4.482,0.227 -12.622,0.275 -13.536,0.275c-11.501,0 -21.912,-0.563 -29.586,-1.499c-3.837,-0.468 -6.993,-1.025 -9.31,-1.693c-2.588,-0.92 -4.595,-1.752 -3.738,-3.075c0.497,-1.32 1.967,-2.557 4.19,-3.671c0.019,-2.555 2.519,-4.621 5.601,-4.621l0,0.001c1.607,0 3.056,0.561 4.077,1.462c0.8,-0.178 1.626,-0.349 2.477,-0.511c1.151,-1.06 2.688,-1.707 4.375,-1.707c0.979,0 1.906,0.218 2.737,0.607l0,0Z" style="fill:#7d206f;stroke:#000;stroke-width:0.08px;"/></g></svg>