<svg width="100px" height="100px" viewBox="0 0 100 100" version="1.1" xmlns="http://www.w3.org/2000/svg" xmlns:xlink="http://www.w3.org/1999/xlink" xml:space="preserve" style="fill-rule:evenodd;clip-rule:evenodd;"><circle cx="50" cy="50" r="50" style="fill:#e2a850;fill-opacity:0.368627;"/><circle cx="50" cy="50" r="44.371" style="fill:#e6b053;fill-opacity:0.627451;"/><g><g><path d="M40.428,28.021c0,-2.373 -1.926,-4.299 -4.299,-4.299c-2.373,0 -4.299,1.926 -4.299,4.299l0,43.958c0,2.373 1.926,4.299 4.299,4.299c2.373,0 4.299,-1.926 4.299,-4.299l0,-43.958Z" style="fill:#4e1700;stroke:#230b00;stroke-width:0.51px;"/><path d="M68.17,28.021c0,-2.373 -1.926,-4.299 -4.299,-4.299c-2.373,0 -4.299,1.926 -4.299,4.299l0,43.958c0,2.373 1.926,4.299 4.299,4.299c2.373,0 4.299,-1.926 4.299,-4.299l0,-43.958Z" style="fill:#4e1700;stroke:#230b00;stroke-width:0.51px;"/></g><g><path d="M71.979,40.428c2.373,0 4.299,-1.926 4.299,-4.299c0,-2.373 -1.926,-4.299 -4.299,-4.299l-43.958,0c-2.373,0 -4.299,1.926 -4.299,4.299c0,2.373 1.926,4.299 4.299,4.299l43.958,0Z" style="fill:#4e1700;stroke:#230b00;stroke-width:0.51px;"/><path d="M71.979,68.17c2.373,0 4.299,-1.926 4.299,-4.299c0,-2.373 -1.926,-4.299 -4.299,-4.299l-43.958,0c-2.373,0 -4.299,1.926 -4.299,4.299c0,2.373 1.926,4.299 4.299,4.299l43.958,0Z" style="fill:#4e1700;stroke:#230b00;stroke-width:0.51px;"/></g></g><g><circle cx="50" cy="50" r="19.943" style="fill:#a25e06;fill-opacity:0.427451;"/><circle cx="50" cy="50" r="16.477" style="fill:#a25e06;fill-opacity:0.427451;"/><circle cx="50" cy="50" r="12.221" style="fill:#b96b06;"/><circle cx="50" cy="50" r="7.525" style="fill:#ca7505;"/></g></svg>