<svg width="100px" height="100px" viewBox="0 0 100 100" version="1.1" xmlns="http://www.w3.org/2000/svg" xmlns:xlink="http://www.w3.org/1999/xlink" xml:space="preserve" style="fill-rule:evenodd;clip-rule:evenodd;"><g><g><path d="M34.065,13.41c0,-3.949 -3.207,-7.156 -7.157,-7.156c-3.95,0 -7.156,3.207 -7.156,7.156l0,73.18c0,3.949 3.207,7.156 7.156,7.156c3.95,0 7.157,-3.207 7.157,-7.156l0,-73.18Z" style="fill:#4e1700;stroke:#230b00;stroke-width:0.85px;"/><path d="M80.248,13.41c0,-3.949 -3.207,-7.156 -7.156,-7.156c-3.95,0 -7.157,3.207 -7.157,7.156l0,73.18c0,3.949 3.207,7.156 7.157,7.156c3.95,0 7.156,-3.207 7.156,-7.156l0,-73.18Z" style="fill:#4e1700;stroke:#230b00;stroke-width:0.85px;"/></g><g><path d="M86.59,34.065c3.95,0 7.156,-3.207 7.156,-7.157c0,-3.95 -3.206,-7.156 -7.156,-7.156l-73.18,0c-3.95,0 -7.156,3.207 -7.156,7.156c0,3.95 3.206,7.157 7.156,7.157l73.18,0Z" style="fill:#4e1700;stroke:#230b00;stroke-width:0.85px;"/><path d="M86.59,80.248c3.95,0 7.156,-3.207 7.156,-7.156c0,-3.95 -3.206,-7.157 -7.156,-7.157l-73.18,0c-3.95,0 -7.156,3.207 -7.156,7.157c0,3.95 3.206,7.156 7.156,7.156l73.18,0Z" style="fill:#4e1700;stroke:#230b00;stroke-width:0.85px;"/></g></g><g><circle cx="50" cy="50" r="33.2" style="fill:#a25e06;fill-opacity:0.427451;"/><circle cx="50" cy="50" r="27.43" style="fill:#a25e06;fill-opacity:0.427451;"/><circle cx="50" cy="50" r="20.346" style="fill:#b96b06;"/><circle cx="50" cy="50" r="12.528" style="fill:#ca7505;"/></g></svg>