<svg width="100%" height="100%" viewBox="0 0 100 100" version="1.1" xmlns="http://www.w3.org/2000/svg" xmlns:xlink="http://www.w3.org/1999/xlink" xml:space="preserve" style="fill-rule:evenodd;clip-rule:evenodd;"><circle cx="50" cy="50" r="50" style="fill:#e2a850;fill-opacity:0.368627;"/><circle cx="50" cy="50" r="44.371" style="fill:#e6b053;fill-opacity:0.627451;"/><path d="M72.187,30.946c1.919,-2.433 1.503,-5.965 -0.93,-7.885c-2.432,-1.919 -5.965,-1.503 -7.884,0.93l-35.56,45.063c-1.919,2.433 -1.503,5.965 0.93,7.885c2.432,1.919 5.965,1.503 7.884,-0.93l35.56,-45.063Z" style="fill:#4e1700;stroke:#230b00;stroke-width:0.67px;"/><path d="M78.969,45.983c2.93,-1.007 4.492,-4.203 3.485,-7.133c-1.007,-2.93 -4.203,-4.492 -7.134,-3.485l-54.289,18.652c-2.93,1.007 -4.492,4.203 -3.485,7.133c1.007,2.93 4.203,4.492 7.133,3.485l54.29,-18.652Z" style="fill:#4e1700;stroke:#230b00;stroke-width:0.67px;"/><path d="M76.156,63.084c2.986,0.828 6.082,-0.923 6.911,-3.909c0.828,-2.985 -0.923,-6.082 -3.909,-6.91l-55.314,-15.349c-2.986,-0.828 -6.082,0.923 -6.911,3.909c-0.828,2.985 0.923,6.082 3.909,6.91l55.314,15.349Z" style="fill:#4e1700;stroke:#230b00;stroke-width:0.67px;"/><circle cx="50" cy="50" r="26.043" style="fill:#a25e06;fill-opacity:0.427451;"/><circle cx="50" cy="50" r="21.517" style="fill:#a25e06;fill-opacity:0.427451;"/><circle cx="50" cy="50" r="15.96" style="fill:#b96b06;"/><circle cx="50" cy="50" r="9.827" style="fill:#ca7505;"/></svg>