<svg width="100px" height="100px" viewBox="0 0 100 100" version="1.1" xmlns="http://www.w3.org/2000/svg" xmlns:xlink="http://www.w3.org/1999/xlink" xml:space="preserve" style="fill-rule:evenodd;clip-rule:evenodd;stroke-linecap:round;stroke-linejoin:round;stroke-miterlimit:1.5;"><g><circle cx="50" cy="50" r="42.644" style="fill:#704f1b;"/><g><g><circle cx="34.925" cy="34.925" r="5.324" style="fill:#ff9e46;"/><circle cx="50" cy="34.925" r="5.324" style="fill:#ff9e46;"/><circle cx="65.075" cy="34.925" r="5.324" style="fill:#ff9e46;"/></g><g><circle cx="34.925" cy="50" r="5.324" style="fill:#ff9e46;"/><circle cx="50" cy="50" r="5.324" style="fill:#ff9e46;"/><circle cx="65.075" cy="50" r="5.324" style="fill:#ff9e46;"/></g><g><circle cx="34.925" cy="65.075" r="5.324" style="fill:#ff9e46;"/><circle cx="50" cy="65.075" r="5.324" style="fill:#ff9e46;"/><circle cx="65.075" cy="65.075" r="5.324" style="fill:#ff9e46;"/></g></g><path d="M79.713,89.895c-8.294,6.189 -18.579,9.855 -29.713,9.855c-11.134,0 -21.419,-3.666 -29.713,-9.855l59.426,0Z" style="fill:#8b5500;stroke:#000;stroke-width:0.29px;"/><path d="M50,0.25c27.458,0 49.75,22.292 49.75,49.75c0,21.097 -13.16,39.144 -31.711,46.373c-5.594,2.181 -5.698,-2.475 -18.039,-2.475c-13.381,0 -13.217,4.499 -19.099,2.048c-17.991,-7.495 -30.651,-25.254 -30.651,-45.946c0,-27.458 22.292,-49.75 49.75,-49.75Zm0,18.109c17.463,0 31.641,14.178 31.641,31.641c0,11.017 -5.642,20.726 -14.193,26.393c-5.003,3.316 -6.676,-0.604 -17.448,-0.604c-10.772,0 -12.183,4.004 -17.119,0.819c-8.734,-5.634 -14.522,-15.45 -14.522,-26.608c0,-17.463 14.178,-31.641 31.641,-31.641Z" style="fill:url(#_Radial1);stroke:#000;stroke-width:0.29px;"/></g><defs><radialGradient id="_Radial1" cx="0" cy="0" r="1" gradientUnits="userSpaceOnUse" gradientTransform="matrix(47.8958,-0.524789,0.510045,46.5502,49.93,49.6519)"><stop offset="0" style="stop-color:#df8900;stop-opacity:1"/><stop offset="0.63" style="stop-color:#cb7d00;stop-opacity:1"/><stop offset="0.83" style="stop-color:#9a5f00;stop-opacity:1"/><stop offset="1" style="stop-color:#643d00;stop-opacity:1"/></radialGradient></defs></svg>