<svg width="100px" height="100px" clip-rule="evenodd" fill-rule="evenodd" stroke-linecap="round" stroke-linejoin="round" stroke-miterlimit="1.5" version="1.1" viewBox="0 0 100 100" xml:space="preserve" xmlns="http://www.w3.org/2000/svg"><g transform="matrix(2.68 0 0 2.68 -84.1 -87.7)"><circle cx="49.9" cy="51.7" r="10.6" fill="#ff9e46"/><path d="m50 38.3c7.16 0 13 5.82 13 13 0 7.17-5.82 13-13 13s-13-5.82-13-13c0-7.16 5.82-13 13-13zm-4.59 16c0.894 0 1.62 0.726 1.62 1.62 0 0.894-0.726 1.62-1.62 1.62-0.895 0-1.62-0.726-1.62-1.62 0-0.895 0.726-1.62 1.62-1.62zm9.18 0c0.895 0 1.62 0.726 1.62 1.62 0 0.894-0.726 1.62-1.62 1.62-0.894 0-1.62-0.726-1.62-1.62 0-0.895 0.726-1.62 1.62-1.62zm-4.59 0c0.895 0 1.62 0.726 1.62 1.62 0 0.894-0.726 1.62-1.62 1.62s-1.62-0.726-1.62-1.62c0-0.895 0.726-1.62 1.62-1.62zm-4.59-4.59c0.894 0 1.62 0.727 1.62 1.62 0 0.895-0.726 1.62-1.62 1.62-0.895 0-1.62-0.726-1.62-1.62 0-0.894 0.726-1.62 1.62-1.62zm4.59 0c0.895 0 1.62 0.727 1.62 1.62 0 0.895-0.726 1.62-1.62 1.62s-1.62-0.726-1.62-1.62c0-0.894 0.726-1.62 1.62-1.62zm4.59 0c0.895 0 1.62 0.727 1.62 1.62 0 0.895-0.726 1.62-1.62 1.62-0.894 0-1.62-0.726-1.62-1.62 0-0.894 0.726-1.62 1.62-1.62zm-9.18-4.59c0.894 0 1.62 0.726 1.62 1.62 0 0.894-0.726 1.62-1.62 1.62-0.895 0-1.62-0.727-1.62-1.62 0-0.895 0.726-1.62 1.62-1.62zm4.59 0c0.895 0 1.62 0.726 1.62 1.62 0 0.894-0.726 1.62-1.62 1.62s-1.62-0.727-1.62-1.62c0-0.895 0.726-1.62 1.62-1.62zm4.59 0c0.895 0 1.62 0.726 1.62 1.62 0 0.894-0.726 1.62-1.62 1.62-0.894 0-1.62-0.727-1.62-1.62 0-0.895 0.726-1.62 1.62-1.62z" fill="#704f1b"/><path d="m61 66.1c-3.07 2.29-6.88 3.65-11 3.65s-7.94-1.36-11-3.65z" fill="#9c9c9c" stroke="#000" stroke-width=".29px"/><path d="m50 32.9c10.2 0 18.4 8.26 18.4 18.4 0 7.82-4.88 14.5-11.7 17.2-2.07 0.807-2.11-0.918-6.68-0.918-4.96 0-4.9 1.67-7.08 0.759-6.67-2.78-11.4-9.36-11.4-17 0-10.2 8.26-18.4 18.4-18.4zm0 6.71c6.47 0 11.7 5.25 11.7 11.7 0 4.08-2.09 7.68-5.26 9.78-1.85 1.23-2.47-0.224-6.46-0.224s-4.51 1.48-6.34 0.304c-3.24-2.09-5.38-5.72-5.38-9.86 0-6.47 5.25-11.7 11.7-11.7z" fill="#4c4c4c" stroke="#000" stroke-width=".29px"/><g fill="url(#_Radial1)" stroke="#000" stroke-width=".16px"><path d="m45.1 61.7 0.067 0.702 0.235 0.77v0.334l-0.168 0.335-0.053 0.854 0.067 0.268-0.168 1-0.134 0.368-0.1 0.469v0.2l0.034 0.803-0.374 0.569 0.154 0.183-0.087-0.116 0.741-0.234 1.02-0.319 0.669-0.1h0.335l0.368-0.201 0.703 0.167 0.669-0.301h0.267l0.569 0.101 0.301 0.033 1.64 0.234 0.167 0.034h1.1l1.2 0.468 0.335 0.301 0.201 0.067 0.201 0.101v-0.201l0.066-0.636-0.234-0.401-0.803-0.736-0.2-0.301-0.134-0.235-0.034-0.267-0.267-0.368v-0.268l0.167-0.602v-0.268l-0.067-0.602 0.067-0.301-0.268-0.335v-0.2l-0.167-0.67v-0.267l-0.067-0.736v-0.301l-0.836-0.067h-0.368l-1.17-0.067-0.469-0.101-0.635 0.168-0.268 0.067-0.301-0.034-0.904-0.067-1.44 0.402-0.435 0.133h-0.201l-0.535 0.101z"/><path d="m57.2 60.6 0.258-0.011 0.189 0.086 0.205 0.188 0.052 0.326 0.257 0.325v0.274l0.415 0.118v0.171l0.365 0.142 0.529 0.548 0.438 0.282 0.274 0.154 0.206 0.035 0.171 0.257-0.062 0.3 0.12 0.291 0.172 0.154 0.449-0.237 0.274 0.051-0.018 0.394 0.103 0.257 0.075 0.852-0.087 0.233-0.137 0.206-0.445-0.172-0.051 0.052-0.103 0.12-0.052 0.154-0.102 0.12h-0.155l-0.205 0.12-0.326 0.377-0.12 0.257-0.359-0.035-0.429 0.24h-0.137l-0.411 0.411-0.257 0.103-0.171 0.188h-0.12l-0.223 0.069-0.017 0.223h-0.394l-0.12-0.018-0.205 0.018-0.514 0.428-0.154 0.017-0.12 0.051-0.291-0.171-0.343-0.034-0.137-0.411v-0.154l0.017-0.343-0.462-0.36-0.257-0.12-0.069-0.171-0.222-0.325-0.171 0.033-0.017-0.326-0.051-0.188-0.274-0.327v-0.119l0.069-0.377-0.206-0.479-0.017-0.171 0.016-0.479 0.017-0.394-0.172-0.497 0.018-0.205-0.035-0.463-0.154-0.257-0.017-0.102-0.137-0.257-0.034-0.24-0.023-0.366 0.186 0.042 0.316 0.05h0.137l0.326 0.12h0.12l0.205 0.017 0.463-0.035h0.171l0.291-0.068h0.086l0.343-0.069 0.102-0.171 0.24-0.103 0.12-0.154 0.274-0.034 0.154-0.086 0.103-0.154z"/><path d="m60.9 55.8 0.552 0.332 0.214 0.081h0.428l0.589-0.027 0.562 0.321h0.455l0.375 0.161 0.491 0.229h0.241l0.509 0.321h0.241l0.7-0.219 0.375 0.08 0.374 0.241 0.134 0.027-0.138 0.647-0.08 0.214-0.027 0.268-0.268 0.348v0.321l-0.133 0.348-0.188 0.295-0.08 0.267-0.455 0.348-0.027 0.536v0.187l-0.401 0.375-0.081 0.348-0.508 0.348-0.241 0.374-0.509 0.455-0.026 0.241 0.053 0.616-0.669 0.321-0.509 0.027-0.24 0.803h-0.322l-0.321-0.375-0.08-0.321v-0.188l0.027-0.481-0.482-0.268-0.214-0.054-0.268-0.026-0.027-0.161-0.267-0.455-0.509-0.08h-0.214l-0.241-0.375-0.642-0.482-0.589-0.348-0.107-0.374-0.241-0.295-0.241-0.401-0.214-0.161 0.187-0.053 0.214-0.188 0.268-0.267 0.161-0.402 0.214-0.027 0.187-0.187 0.509-0.696 0.08-0.294 0.268-0.268 0.133-0.294 0.375-0.188 0.321-0.401v-0.991l0.107-0.08z"/><path d="m40.3 58 0.328 0.374 0.609 0.75 0.703 0.281 0.421 0.468 0.094 0.375 0.609 0.562 1.08 0.468 0.235 0.047 0.327 0.328v0.328l0.094 0.89v0.656l-0.235 0.779 0.14 0.702-0.234 1.4 0.047 0.562-0.374 1.1v0.703l-0.328-0.047-1.08-0.562-1.36-0.187-1.69-1.03-0.563-0.14-0.234-0.516-0.697-0.6-0.212-1.03-0.766 0.219-0.573-0.886-0.843-0.843-0.188-0.047-0.515-0.702-0.655-0.375-0.338-1.19 0.422-0.375 0.749-0.327 0.572 0.063 0.047-0.281 0.374-0.234 0.984-0.094h0.375l0.873-0.922 0.281-0.046 1.09 0.031 0.047-0.281z"/><path d="m39.8 36.3 0.858 0.513-0.047 1.22 1.26 2.53 0.187 0.421v0.89l0.328 0.188 0.515 0.046 1.03-1.03 0.515-0.187 0.422-0.422 0.374-0.141 0.375 0.047h1.08l0.703-0.562 0.515-0.234 0.281-0.422h1.31l0.328-0.374 0.093-0.328-0.187-0.703-0.065-1.57 0.191-0.735-0.382-0.586 0.132-0.832-0.115-1.09-0.745 0.039-0.721 0.161-0.234-0.093-1.15 0.068-0.937 0.796-1.36-0.327h-0.421l-1.12 0.608-1.03 0.844-0.281 0.421-0.937 0.328-0.281 0.047z"/><path d="m50.4 32.9-0.096 0.672v0.24l0.144 0.455v0.12l0.072 0.456v0.767l0.048 0.432v0.216l-0.192 0.455v0.288l0.072 0.504 0.024 0.288v0.191l-0.024 0.552 0.12 0.552-0.12 0.359 0.312 0.168 0.288 0.048h0.216l0.503 0.168 0.264 0.048 0.384 0.12h1.13l0.479 0.144 1.9 0.791 0.624 0.624 0.383 0.12 0.048-0.216 0.336-0.672 0.336-0.12 0.287-0.024 0.216-0.072 0.096-0.167 0.12-0.6 0.36-0.504 0.12-0.287 0.024-0.144 0.144-0.48 0.575-0.671 0.072-0.192 0.288-0.552 0.432-0.384 0.144-0.191 0.047-0.408-0.023-0.264-0.24-0.24-0.312-0.144-0.552-0.191-0.695-0.648-0.384-0.12-0.24-0.072-0.383-0.24-0.696-0.096h-0.288l-0.311-0.191-0.24-0.048-0.336 0.024-0.504-0.264-0.311-0.12-0.48-0.12h-0.192l-0.312-0.072h-0.215l-0.24-0.024-0.6-0.144h-0.336l-0.407-0.12-0.288-0.024-0.288-0.048-0.384-0.048h-0.527z"/><path d="m57.2 42.1 0.481-0.907 0.606 0.12 0.3-0.487 0.376-1.19 0.187-0.637 0.375-0.413 0.224-0.524 0.488-0.15 0.337-0.637 0.15-0.45 0.508-0.603 0.764 0.818 0.525 0.487 0.262 0.525 0.225 0.225 0.487 0.412 0.15 0.3 0.412 0.3 0.563 0.674 0.337 0.075 0.262 0.225v0.749l0.487 0.675 0.075 0.225 0.526 1.53 0.637 0.831-0.9 0.188-0.453 0.844-1.01 0.165-0.782 0.781-1.21-0.041-0.553 0.052-0.375 0.375h-0.449l-1.12-0.824-0.224-0.787-0.038-0.637-1.46-1.42z"/><path d="m61 47.2 0.479-0.168 0.864-0.455h0.263l0.792 0.096 0.288 0.024 0.239-0.072 0.6-0.288 0.264-0.096 0.527-0.024 0.648-0.828 0.482-0.486 0.309 0.198 0.384-0.035h0.384l0.072 0.767v0.312l0.192 0.384 0.096 0.311 0.119 0.336-0.024 0.216-0.143 0.528v0.191l0.095 0.312 0.264 0.552 0.048 0.216v0.239l-0.144 0.84v1.1l-0.072 0.288v0.12l-0.072 0.359v0.48l0.264 1.22 0.144 0.576-0.432 0.623-0.024 0.192-0.119 0.336-0.024 0.36-0.192 0.359v0.36l-0.312-0.024-0.911-0.216-0.576 0.312-0.36-0.144-0.383-0.144-0.864-0.312-0.455-0.167-0.216-0.024-0.528-0.024-0.36-0.12-0.551-0.024-0.384-0.048-0.527-0.336 0.024-0.36 0.263-0.983-0.024-0.216-0.072-0.288 0.096-0.767 0.072-0.216v-0.599l0.096-1.39 0.048-0.168v-0.168l-0.072-0.504v-0.24l-0.048-0.551v-0.264l-0.24-0.552-0.047-0.479z"/><path d="m42.2 42.6-0.374-0.469-0.843-1.12v-1.03l-1.03-1.36 0.076-0.915-0.374-0.608-0.592-0.069-0.281-0.234-0.047-0.188-0.187 0.281-0.562 0.656-0.796 0.562-0.469 0.188-0.094 1.03-1.31 1.36-0.094 0.375-0.374 0.609-0.422 0.187-0.656 0.75-0.047 0.328-0.468 0.562-0.094 0.281-0.281 0.843 0.797 0.515 0.515 0.188 0.515 0.093 0.047 0.328 0.281 0.984 0.234 0.047 1.17 0.187 0.703 0.094 0.328 0.14 0.187 0.328 0.468 0.187 0.469 0.047-0.047-0.702 0.562-0.563 0.047-0.327 0.374-0.422 0.047-0.468 0.375-0.375 1.73-1.73v-0.141z"/><path d="m32.1 45.5 0.793 1e-3 0.287 0.024 0.552 0.065 0.048 0.215 0.048 0.192 0.264-0.096 0.057 0.942 0.168 0.024 0.239 0.096 0.36 0.168 0.675 0.116 0.239 0.071 0.576 0.288 0.12-0.072 0.599 0.408 0.429 0.324 0.216-0.024 0.336 0.479 0.335-0.095 0.12 0.263-0.048 0.456-0.12 0.48-0.023 0.144-0.072 0.311v0.36l0.287 0.432 0.024 0.168-0.455 0.599v0.336l0.671 0.647v0.216l-0.096 0.624-0.024 0.335 0.168 0.696 0.144 0.264-0.024 0.455v0.168l0.192 0.216 0.096 0.24 0.36 0.144-0.096 0.599 0.407 0.483 0.117 0.308-0.316 0.129-0.424 0.15-0.456-0.11-0.072 0.311-0.216 0.024-0.479 0.192-0.432 0.408h-0.096l-0.288 0.096-0.335 0.216-0.096 0.12-0.216-0.048-0.312 0.311-0.432 0.024-0.215 0.12-0.192 0.24-0.528 0.096-1.03 0.12-0.36-0.024 0.048-0.48v-0.215l-0.432-0.432-0.072-0.384-0.071-0.24v-0.12l-0.096-0.383-0.332-0.727 0.144-0.336 0.048-0.456-0.264-0.336-0.455-0.335-0.168-0.312-0.024-0.336-0.072-0.743-0.072-0.768 0.048-0.24v-0.239l-0.024-0.696 0.024-1.22-0.072-0.24-0.096-0.407v-0.504l-0.12-0.624-0.072-0.215v-0.624l0.072-0.36 0.6-1.24z"/></g><g fill="#9c9c9c"><path d="m61.1 44.9c-1.87-0.383-6.41-1.51-11.2-1.51-4.76 0-9.74 1.6-11.7 2.08-0.255 0.063-0.226 0.817 0.036 0.788 1.94-0.215 6.86-2.08 11.6-2.08s9.36 1.39 11.2 1.51c0.262 0.017 0.222-0.735-0.035-0.788z"/><path d="m62.2 53.3c-2.07 0.289-7.64 0.943-12.4 0.943s-10.2-0.311-12.2-0.53c-0.261-0.029-0.228-0.783 0.035-0.789 2.03-0.043 7.39 0.531 12.1 0.531 4.76 0 10.4-0.917 12.5-0.943 0.263-4e-3 0.225 0.752-0.035 0.788z"/><path d="m61.2 57.7c-1.93 0.327-6.8 1.17-11.6 1.17-4.76 0-9.64-1.56-11.6-2.03-0.255-0.062-0.226-0.816 0.036-0.788 1.92 0.207 6.74 2.03 11.5 2.03s9.69-1.11 11.6-1.17c0.263-9e-3 0.224 0.744-0.036 0.788z"/><path d="m62.3 48.9c-2.09-0.28-7.73-0.892-12.5-0.892s-10.1 1.11-12.2 1.5c-0.259 0.049-0.227 0.804 0.035 0.788 2.02-0.118 7.34-1.5 12.1-1.5 4.76 0 10.5 0.875 12.5 0.892 0.263 2e-3 0.225-0.753-0.035-0.788z"/><path d="m57.1 61.9c0.41-1.82 1.74-6.12 1.67-10.9s-2.12-9.32-2.7-11.2c-0.079-0.251-0.832-0.213-0.788 0.047 0.319 1.86 2.63 6.36 2.7 11.1s-1.52 9.12-1.67 10.9c-0.021 0.262 0.73 0.21 0.787-0.047z"/><path d="m47 62c-0.235-1.81-0.685-6.06-0.619-10.8 0.065-4.76 0.353-10.2 0.581-12.2 0.029-0.261 0.783-0.217 0.788 0.046 0.034 2.04-0.515 7.4-0.581 12.2-0.066 4.76 0.647 9.07 0.618 10.9-4e-3 0.263-0.754 0.214-0.787-0.047z"/><path d="m43.1 61.8c-0.478-1.78-2.15-5.89-2.08-10.7s2.28-9.37 2.89-11.2c0.082-0.25 0.836-0.212 0.787 0.046-0.35 1.87-2.82 6.42-2.89 11.2-0.065 4.76 1.87 8.93 2.08 10.7 0.032 0.261-0.72 0.207-0.788-0.047z"/><path d="m52.6 61.9c0.27-1.81 0.895-6.03 0.83-10.8-0.066-4.76-0.633-10-0.917-12-0.037-0.261-0.791-0.217-0.788 0.046 0.022 2 0.85 7.19 0.916 11.9s-0.822 9.05-0.829 10.8c-1e-3 0.263 0.749 0.214 0.788-0.047z"/></g></g><defs><radialGradient id="_Radial1" cx="0" cy="0" r="1" gradientTransform="matrix(18.3 0 0 18 50.1 50.8)" gradientUnits="userSpaceOnUse"><stop stop-color="#7d7d7d" offset="0"/><stop stop-color="#111" offset="1"/></radialGradient></defs></svg>
