<svg width="100px" height="100px" viewBox="0 0 100 100" version="1.1" xmlns="http://www.w3.org/2000/svg" xmlns:xlink="http://www.w3.org/1999/xlink" xml:space="preserve" xmlns:serif="http://www.serif.com/" style="fill-rule:evenodd;clip-rule:evenodd;"><g><g><path d="M-79.187,181.917c2.091,2.09 5.484,2.09 7.574,0l132.535,-132.535c2.091,-2.09 2.091,-5.484 0,-7.574c-2.09,-2.09 -5.483,-2.09 -7.574,0l-132.535,132.535c-2.09,2.09 -2.09,5.484 0,7.574Z" style="fill:url(#_Radial1);stroke:#000;stroke-width:0.67px;"/></g><g><path d="M85.055,18.87l-1.543,-1.201l-36.256,31.823c1.265,0.714 3.379,2.378 4.333,3.897l33.466,-34.519Z" style="fill:#227cfe;"/><path d="M36.127,46.722c5.289,0.271 9.637,1.606 12.991,4.05c13.045,-12.571 33.623,-32.221 34.934,-32.164c-0.054,1.25 -21.249,20.214 -34.01,32.995c2.926,3.026 6.118,8.319 6.904,13.713c5.033,-7.49 7.418,-13.857 9.085,-21.087c1.226,2.264 2.081,4.97 2.535,8.086c4.924,-7.328 7.095,-13.508 8.668,-20.667c1.045,1.926 1.838,4.165 2.224,6.818c5.686,-8.464 7.055,-15.058 8.7,-24.488l-0.004,0c-10.19,1.672 -16.855,3.786 -25.194,9.749c2.693,0.139 5.011,0.649 7.079,1.492c-7.535,1.855 -13.741,4.521 -20.963,9.686c3.134,0.161 5.905,0.741 8.32,1.713c-7.541,1.977 -13.917,4.846 -21.269,10.104l0,0Z" style="fill:#131313;fill-rule:nonzero;"/><g><path d="M63.378,23.653c1.296,0.067 7.598,-2.952 11.405,-4.408c4.082,-1.561 13.087,-4.96 13.087,-4.96c-8.654,1.688 -17.53,4.66 -24.492,9.368Z" style="fill:#227cfe;fill-opacity:0.75;fill-rule:nonzero;"/><path d="M79.468,38.119c-0.067,-1.296 2.461,-7.348 3.749,-11.002c1.4,-3.972 4.653,-12.832 4.653,-12.832c-1.754,8.487 -3.724,16.712 -8.402,23.834Z" style="fill:#227cfe;fill-opacity:0.75;fill-rule:nonzero;"/><path d="M50.942,34.367c1.296,0.067 5.978,-2.829 9.016,-4.134c3.235,-1.389 10.396,-4.2 10.396,-4.2c-8.654,1.688 -12.451,3.626 -19.412,8.334Z" style="fill:#227cfe;fill-opacity:0.75;fill-rule:nonzero;"/><path d="M37.545,46.387c1.296,0.066 6.893,-3.212 10.214,-4.699c3.223,-1.442 9.715,-4.221 9.715,-4.221c-8.655,1.688 -12.968,4.212 -19.929,8.92Z" style="fill:#227cfe;fill-opacity:0.75;fill-rule:nonzero;"/><path d="M57.007,64.011c-0.066,-1.296 2.539,-6.088 3.79,-9.14c1.394,-3.404 4.579,-11.285 4.579,-11.285c-1.688,8.654 -3.661,13.464 -8.369,20.425Z" style="fill:#227cfe;fill-opacity:0.75;fill-rule:nonzero;"/><path d="M68.667,51.124c-0.066,-1.296 2.062,-5.175 3.09,-7.763c1.341,-3.375 4.956,-12.488 4.956,-12.488c-1.754,8.487 -3.367,13.128 -8.046,20.251Z" style="fill:#227cfe;fill-opacity:0.75;fill-rule:nonzero;"/></g></g><g><path d="M87.792,15.542c-8.978,0.842 -16.326,0.9 -16.398,0.128c-0.073,-0.772 7.157,-2.083 16.135,-2.925c8.978,-0.843 16.325,-0.9 16.398,-0.128c0.072,0.772 -7.158,2.083 -16.135,2.925Z" style="fill:url(#_Radial2);"/><path d="M86.533,14.982c-5.725,-7.702 -9.868,-14.331 -9.246,-14.793c0.623,-0.463 5.776,5.415 11.501,13.116c5.725,7.702 9.867,14.33 9.245,14.793c-0.622,0.463 -5.775,-5.415 -11.5,-13.116Z" style="fill:url(#_Radial3);"/></g><path d="M33.948,62.25c0.015,3.545 2.874,6.383 6.419,6.367c2.619,-0.012 4.725,-1.659 5.706,-3.906c-4.534,-0.207 -7.935,-3.526 -8.006,-8.101c-2.362,0.946 -4.131,2.931 -4.119,5.64l0,0Z" style="fill:url(#_Radial4);fill-rule:nonzero;"/><path d="M40.206,56.175c0.016,3.545 2.879,6.383 6.424,6.367c2.945,-0.013 5.398,-1.993 6.136,-4.695c-4.184,-0.336 -7.546,-3.669 -7.919,-7.849c-2.695,0.762 -4.654,3.232 -4.641,6.177l0,0Z" style="fill:url(#_Radial5);fill-rule:nonzero;"/></g><defs><radialGradient id="_Radial1" cx="0" cy="0" r="1" gradientUnits="userSpaceOnUse" gradientTransform="matrix(-154.879,154.879,-7.57459,-7.57459,9.77252,92.9571)"><stop offset="0" style="stop-color:#582308;stop-opacity:1"/><stop offset="1" style="stop-color:#000;stop-opacity:1"/></radialGradient><radialGradient id="_Radial2" cx="0" cy="0" r="1" gradientUnits="userSpaceOnUse" gradientTransform="matrix(-16.2664,1.52626,-0.131233,-1.39864,87.6603,14.1435)"><stop offset="0" style="stop-color:#227cfe;stop-opacity:1"/><stop offset="1" style="stop-color:#227cfe;stop-opacity:0"/></radialGradient><radialGradient id="_Radial3" cx="0" cy="0" r="1" gradientUnits="userSpaceOnUse" gradientTransform="matrix(-10.3729,-13.9545,1.12743,-0.838053,87.6603,14.1435)"><stop offset="0" style="stop-color:#227cfe;stop-opacity:1"/><stop offset="1" style="stop-color:#227cfe;stop-opacity:0"/></radialGradient><radialGradient id="_Radial4" cx="0" cy="0" r="1" gradientUnits="userSpaceOnUse" gradientTransform="matrix(6.82627,0,0,6.82627,40.0065,62.6099)"><stop offset="0" style="stop-color:#227cfe;stop-opacity:1"/><stop offset="0.44" style="stop-color:#162944;stop-opacity:1"/><stop offset="1" style="stop-color:#131313;stop-opacity:1"/></radialGradient><radialGradient id="_Radial5" cx="0" cy="0" r="1" gradientUnits="userSpaceOnUse" gradientTransform="matrix(7.63144,0,0,7.63144,47.4197,55.3444)"><stop offset="0" style="stop-color:#227cfe;stop-opacity:1"/><stop offset="0.2" style="stop-color:#1c529f;stop-opacity:1"/><stop offset="0.41" style="stop-color:#16273f;stop-opacity:1"/><stop offset="1" style="stop-color:#131313;stop-opacity:1"/></radialGradient></defs></svg>