<svg width="100px" height="100px" viewBox="0 0 100 100" version="1.1" xmlns="http://www.w3.org/2000/svg" xmlns:xlink="http://www.w3.org/1999/xlink" xml:space="preserve" xmlns:serif="http://www.serif.com/" style="fill-rule:evenodd;clip-rule:evenodd;"><g><path d="M50.052,99.822c1.243,0 2.252,-1.009 2.252,-2.252l0,-78.814c0,-1.243 -1.009,-2.252 -2.252,-2.252c-1.243,0 -2.252,1.009 -2.252,2.252l0,78.814c0,1.243 1.009,2.252 2.252,2.252Z" style="fill:url(#_Radial1);stroke:#000;stroke-width:0.28px;"/><g><path d="M48.016,20.775c0.083,0.078 0.179,0.153 0.287,0.222c0.434,0.28 1.058,0.465 1.752,0.465c0.694,0 1.318,-0.184 1.752,-0.464c0.433,-0.28 0.663,-0.634 0.663,-1.001c0,-0.037 -0.003,-0.073 -0.008,-0.11c-0.732,0.542 -1.573,0.818 -2.421,0.818c-0.839,0 -1.67,-0.271 -2.397,-0.8c-0.003,0.031 -0.005,0.061 -0.005,0.092c0,0.275 0.13,0.543 0.377,0.778l0,0Z" style="fill:#a49574;fill-rule:nonzero;"/><path d="M48.016,21.687c0.083,0.078 0.179,0.152 0.287,0.222c0.434,0.28 1.058,0.464 1.752,0.464c0.694,0 1.318,-0.184 1.752,-0.463c0.433,-0.28 0.663,-0.634 0.663,-1.001c0,-0.037 -0.003,-0.074 -0.008,-0.11c-0.732,0.541 -1.573,0.818 -2.421,0.818c-0.839,-0.001 -1.67,-0.271 -2.397,-0.8c-0.003,0.03 -0.005,0.061 -0.005,0.092c0,0.275 0.13,0.543 0.377,0.778l0,0Z" style="fill:#a49574;fill-rule:nonzero;"/><path d="M46.244,18.033c1.131,1.121 2.568,1.879 3.944,1.879c0.019,0 0.227,0.251 0.391,0.23c0.638,-0.081 0.638,-0.083 0.859,-0.136c1.474,-0.355 2.804,-1.812 3.77,-3.508c-1.027,-1.22 -1.498,-2.994 -0.62,-4.702c-1.584,-1.191 -2.859,-4.495 -1.94,-5.9c-0.662,-1.8 -1.579,-3.634 -2.485,-5.263c-0.756,1.455 -1.747,3.25 -2.349,4.859c0.401,1.727 -0.404,3.467 -1.84,4.713c0.315,2.171 0.021,4.304 -1.166,5.774c0.395,0.824 0.884,1.508 1.436,2.054l0,0Z" style="fill:#8c8c8c;fill-rule:nonzero;"/><path d="M46.03,18.401c1.194,1.183 2.662,1.758 4.113,1.759c0.145,0 0.291,-0.007 0.436,-0.018c-0.35,-1.108 -0.349,-2.076 -0.105,-2.904c0.286,-0.974 0.89,-1.734 1.555,-2.346l0.582,0.633c-0.595,0.547 -1.086,1.18 -1.314,1.955c-0.202,0.688 -0.209,1.501 0.141,2.526c1.555,-0.375 3.027,-1.435 4.046,-3.223c-1.083,-1.287 -1.58,-3.158 -0.654,-4.959c-1.67,-1.256 -3.015,-4.741 -2.046,-6.221c-0.698,-1.899 -1.665,-3.833 -2.62,-5.55c-0.797,1.533 -1.843,3.427 -2.478,5.123c0.424,1.821 -0.426,3.656 -1.94,4.97c0.333,2.289 0.022,4.539 -1.23,6.09c0.417,0.868 0.933,1.589 1.514,2.165l0,0Zm1.788,-1.168c1.373,-2.042 0.894,-4.706 -0.224,-6.315l0.705,-0.489c0.295,0.425 0.551,0.909 0.752,1.43c0.863,-0.412 1.297,-1.384 1.308,-2.591c0.012,-1.288 -0.504,-2.772 -1.466,-3.804l0.628,-0.585c1.134,1.215 1.711,2.881 1.697,4.397c-0.001,0.064 -0.002,0.128 -0.005,0.192c0.101,0.904 0.373,1.421 0.746,1.754c0.375,0.334 0.897,0.506 1.563,0.583l-0.1,0.853c-0.759,-0.088 -1.476,-0.297 -2.034,-0.796c-0.22,-0.195 -0.408,-0.431 -0.562,-0.71c-0.31,0.677 -0.81,1.228 -1.513,1.53c0.407,1.609 0.278,3.451 -0.783,5.029l-0.711,-0.478l-0.001,0Z" style="fill:url(#_Radial2);fill-rule:nonzero;"/></g></g><defs><radialGradient id="_Radial1" cx="0" cy="0" r="1" gradientUnits="userSpaceOnUse" gradientTransform="matrix(0,92.1014,-4.50435,0,50.0518,46.9209)"><stop offset="0" style="stop-color:#582308;stop-opacity:1"/><stop offset="1" style="stop-color:#000;stop-opacity:1"/></radialGradient><radialGradient id="_Radial2" cx="0" cy="0" r="1" gradientUnits="userSpaceOnUse" gradientTransform="matrix(9.84702,8.88178e-16,0,8.18706,50.1636,12.9444)"><stop offset="0" style="stop-color:#4f4f4f;stop-opacity:1"/><stop offset="1" style="stop-color:#2f2f2f;stop-opacity:1"/></radialGradient></defs></svg>