<svg width="100px" height="100px" viewBox="0 0 100 100" version="1.1" xmlns="http://www.w3.org/2000/svg" xmlns:xlink="http://www.w3.org/1999/xlink" xml:space="preserve" xmlns:serif="http://www.serif.com/" style="fill-rule:evenodd;clip-rule:evenodd;"><g><g><path d="M50.136,99.711c1.241,0 2.249,-1.007 2.249,-2.249l0,-78.71c0,-1.242 -1.008,-2.249 -2.249,-2.249c-1.242,0 -2.249,1.007 -2.249,2.249l0,78.71c0,1.242 1.007,2.249 2.249,2.249Z" style="fill:url(#_Radial1);stroke:#000;stroke-width:0.28px;"/></g><g><path d="M50.49,2.525l-0.814,0.102l-1.317,20.216c0.588,-0.164 1.71,-0.298 2.444,-0.13l-0.313,-20.188Z" style="fill:#227cfe;"/><path d="M44.232,25.325c1.651,-1.49 3.339,-2.385 5.06,-2.655c0.141,-7.607 0.417,-19.552 0.823,-19.924c0.355,0.387 -0.308,12.312 -0.302,19.896c1.768,0.03 4.287,0.654 6.123,2.022c-0.73,-3.718 -1.912,-6.317 -3.564,-8.959c1.036,0.308 2.093,0.858 3.153,1.648c-0.713,-3.638 -1.904,-6.118 -3.563,-8.711c0.883,0.262 1.783,0.692 2.685,1.364c-0.824,-4.201 -2.376,-6.566 -4.688,-9.854l-0.001,0.001c-2.529,3.522 -3.881,6.129 -4.586,10.376c0.84,-0.759 1.681,-1.295 2.545,-1.659c-1.687,2.788 -2.738,5.423 -3.349,9.101c0.979,-0.883 1.974,-1.534 2.979,-1.962c-1.652,2.826 -2.693,5.571 -3.315,9.316l0,0Z" style="fill:#131313;fill-rule:nonzero;"/><g><path d="M45.474,10.383c0.405,-0.365 1.38,-3.133 2.078,-4.696c0.748,-1.675 2.413,-5.359 2.413,-5.359c-2.068,3.071 -3.822,6.589 -4.491,10.055Z" style="fill:#227cfe;fill-opacity:0.75;fill-rule:nonzero;"/><path d="M54.547,9.901c-0.404,-0.365 -1.451,-2.913 -2.153,-4.381c-0.764,-1.595 -2.429,-5.192 -2.429,-5.192c1.999,3.041 3.857,6.069 4.582,9.573Z" style="fill:#227cfe;fill-opacity:0.75;fill-rule:nonzero;"/><path d="M44.963,17.257c0.404,-0.365 0.935,-2.615 1.449,-3.905c0.549,-1.373 1.84,-4.334 1.84,-4.334c-2.068,3.071 -2.62,4.774 -3.289,8.239Z" style="fill:#227cfe;fill-opacity:0.75;fill-rule:nonzero;"/><path d="M44.554,24.804c0.404,-0.365 1.093,-3 1.637,-4.428c0.529,-1.385 1.632,-4.138 1.632,-4.138c-2.069,3.071 -2.6,5.101 -3.269,8.566Z" style="fill:#227cfe;fill-opacity:0.75;fill-rule:nonzero;"/><path d="M55.566,24.258c-0.404,-0.365 -1.054,-2.561 -1.589,-3.839c-0.596,-1.425 -1.991,-4.711 -1.991,-4.711c2.069,3.071 2.911,5.085 3.58,8.55Z" style="fill:#227cfe;fill-opacity:0.75;fill-rule:nonzero;"/><path d="M55.202,16.969c-0.405,-0.365 -0.925,-2.148 -1.388,-3.222c-0.604,-1.401 -2.236,-5.18 -2.236,-5.18c1.999,3.041 2.898,4.898 3.624,8.402Z" style="fill:#227cfe;fill-opacity:0.75;fill-rule:nonzero;"/></g></g><path d="M48.196,30.583c1.057,1.048 2.749,1.042 3.797,-0.016c0.774,-0.781 0.91,-1.895 0.534,-2.854c-1.408,1.285 -3.403,1.309 -4.783,-0.028c-0.42,0.982 -0.356,2.097 0.452,2.898l0,0Z" style="fill:url(#_Radial2);fill-rule:nonzero;"/><path d="M48.251,26.921c1.057,1.048 2.749,1.04 3.797,-0.017c0.871,-0.879 1.012,-2.195 0.428,-3.216c-1.342,1.142 -3.33,1.151 -4.682,0.02c-0.574,1.027 -0.422,2.342 0.457,3.213l0,0Z" style="fill:url(#_Radial3);fill-rule:nonzero;"/><g><path d="M50.246,3.63c-3.257,1.932 -6.036,3.273 -6.202,2.993c-0.166,-0.28 2.343,-2.076 5.6,-4.008c3.256,-1.932 6.035,-3.273 6.201,-2.993c0.167,0.28 -2.343,2.076 -5.599,4.008Z" style="fill:url(#_Radial4);"/><path d="M49.667,3.643c-3.556,-1.896 -6.319,-3.668 -6.166,-3.955c0.153,-0.287 3.165,1.018 6.721,2.914c3.556,1.895 6.319,3.668 6.166,3.955c-0.153,0.287 -3.165,-1.018 -6.721,-2.914Z" style="fill:url(#_Radial5);"/></g></g><defs><radialGradient id="_Radial1" cx="0" cy="0" r="1" gradientUnits="userSpaceOnUse" gradientTransform="matrix(0,91.9805,-4.49844,0,50.1355,46.8798)"><stop offset="0" style="stop-color:#582308;stop-opacity:1"/><stop offset="1" style="stop-color:#000;stop-opacity:1"/></radialGradient><radialGradient id="_Radial2" cx="0" cy="0" r="1" gradientUnits="userSpaceOnUse" gradientTransform="matrix(2.86663,0,0,2.86663,50.1019,28.8906)"><stop offset="0" style="stop-color:#227cfe;stop-opacity:1"/><stop offset="0.44" style="stop-color:#162944;stop-opacity:1"/><stop offset="1" style="stop-color:#131313;stop-opacity:1"/></radialGradient><radialGradient id="_Radial3" cx="0" cy="0" r="1" gradientUnits="userSpaceOnUse" gradientTransform="matrix(3.20475,0,0,3.20475,50.1458,24.5319)"><stop offset="0" style="stop-color:#227cfe;stop-opacity:1"/><stop offset="0.2" style="stop-color:#1c529f;stop-opacity:1"/><stop offset="0.41" style="stop-color:#16273f;stop-opacity:1"/><stop offset="1" style="stop-color:#131313;stop-opacity:1"/></radialGradient><radialGradient id="_Radial4" cx="0" cy="0" r="1" gradientUnits="userSpaceOnUse" gradientTransform="matrix(-5.90076,3.5005,-0.300984,-0.507367,49.9447,3.12241)"><stop offset="0" style="stop-color:#227cfe;stop-opacity:1"/><stop offset="1" style="stop-color:#227cfe;stop-opacity:0"/></radialGradient><radialGradient id="_Radial5" cx="0" cy="0" r="1" gradientUnits="userSpaceOnUse" gradientTransform="matrix(-6.44356,-3.43448,0.277481,-0.520593,49.9447,3.12241)"><stop offset="0" style="stop-color:#227cfe;stop-opacity:1"/><stop offset="1" style="stop-color:#227cfe;stop-opacity:0"/></radialGradient></defs></svg>