<svg width="100px" height="100px" viewBox="0 0 100 100" version="1.1" xmlns="http://www.w3.org/2000/svg" xmlns:xlink="http://www.w3.org/1999/xlink" xml:space="preserve" xmlns:serif="http://www.serif.com/" style="fill-rule:evenodd;clip-rule:evenodd;stroke-linejoin:round;stroke-miterlimit:1.41421;"><g><path d="M61.003,11.654l-21.363,21.678l-6.044,19.483l3.937,8.242l4.582,2.084l7.447,-12.362l2.535,-0.81l13.858,6.026l4.547,-2.917l1.003,-9.808l2.563,12.037l-2.384,3.178l0.847,0.368l1.175,1.459l1.534,7.708l12.562,-14.986l3.138,0.051l5.026,6.413l-2.121,-11.725l-6.745,-23.124l-26.096,-12.995l-0.001,0Z" style="fill:#4c4c4c;fill-rule:nonzero;"/><path d="M18.149,13.699l-7.012,12.372l-1.093,6.559l6.169,-2.005l2.779,1.752l0.02,0.151l6.719,14.215l3.27,-1.079l2.598,1.108l0.931,1.95l4.635,-14.94l-0.256,-7.916l-9.533,-0.124l-7.06,-5.646l8.875,3.206l6.899,0.403l6.182,3.77l11.018,-11.6c-0.659,-0.28 -1.333,-0.559 -2.037,-0.836l-18.897,2.405l-0.838,-0.06l-13.37,-3.685l0.001,0Z" style="fill:#4c4c4c;fill-rule:nonzero;"/><path d="M18.35,34.526l-14.364,4.668l-3.736,17.565l11.358,1.248l0.133,-1.596l8.422,-8.208l-1.813,-13.676l0,-0.001Z" style="fill:#4c4c4c;fill-rule:nonzero;"/><path d="M29.316,47.039l-8.124,2.679l-7.054,6.875l5.036,6.881l12.779,0.388l3.678,-3.603l-6.315,-13.219l0,-0.001Z" style="fill:#4c4c4c;fill-rule:nonzero;"/><path d="M52.259,51.583l-10.434,17.32l-0.008,13.455l22.905,2.877l10.418,-4.598l-4.16,-20.913l-18.721,-8.14l0,-0.001Z" style="fill:#4c4c4c;fill-rule:nonzero;"/><path d="M89.085,54.197l-11.258,13.429l0.069,0.427l15.658,3.338l6.196,-3.588l-10.664,-13.607l-0.001,0.001Z" style="fill:#4c4c4c;fill-rule:nonzero;"/><path d="M6.736,61.661l-3.039,9.879l4.557,16.806l31.546,-4.127l0.458,-9.154l-21.686,-11.087l-11.836,-2.317l0,0Z" style="fill:#4c4c4c;fill-rule:nonzero;"/><g><path d="M72.83,23.655l9.868,13.845l0.442,13.109l-5.302,-12.52l-13.699,-12.667l8.691,-1.767Z" style="fill:#a5a5a5;fill-rule:nonzero;"/><path d="M58.693,58.641l9.238,5.38l3.158,11.929l-6.315,5.613l-10.601,-0.601l9.081,-6.65l0.585,-9.239l-5.146,-6.431l0,-0.001Z" style="fill:#a5a5a5;fill-rule:nonzero;"/></g></g></svg>