<svg width="100px" height="100px" viewBox="0 0 100 100" version="1.1" xmlns="http://www.w3.org/2000/svg" xmlns:xlink="http://www.w3.org/1999/xlink" xml:space="preserve" xmlns:serif="http://www.serif.com/" style="fill-rule:evenodd;clip-rule:evenodd;stroke-linejoin:round;stroke-miterlimit:1.41421;"><g><path id="path3704" d="M37.173,0.01c2.584,-0.366 42.271,9.239 43.936,10.555c1.942,1.536 18.867,37.964 18.891,40.488c0.024,2.523 -18.692,38.223 -20.37,39.787c-1.679,1.564 -42.019,9.758 -44.292,9.125c-2.273,-0.632 -33.928,-26.211 -34.861,-28.408c-0.932,-2.197 -0.414,-42.42 0.821,-44.549c1.243,-2.14 33.194,-26.618 35.875,-26.998l0,0Z" style="fill-rule:nonzero;"/><path id="path3706" d="M41.464,1.947c2.291,-0.325 37.48,8.192 38.955,9.359c1.723,1.362 16.73,33.662 16.751,35.9c0.022,2.237 -16.572,33.891 -18.06,35.277c-1.489,1.388 -37.258,8.651 -39.273,8.092c-2.015,-0.561 -30.084,-23.241 -30.911,-25.189c-0.825,-1.948 -0.367,-37.613 0.729,-39.501c1.101,-1.898 29.432,-23.601 31.809,-23.938l0,0Z" style="fill:#131313;fill-rule:nonzero;"/><path id="path3710" d="M77.22,72.035c-6.894,-2.487 -6.906,2.273 -8.651,1.529c-1.897,-0.81 -0.841,-11.737 -1.25,-13.834c-1.332,-6.85 -8.297,-16.75 -6.047,-20.353c0.586,-0.941 4.499,3.869 6.107,2.972c3.628,-2.023 2.687,5.051 3.341,10.873c0.679,6.056 1.282,8.086 3.691,10.808c2.443,2.759 6.088,9.189 2.809,8.005l0,0Z" style="fill:#0046aa;fill-rule:nonzero;"/><path id="path3708" d="M82.361,21.655c1.505,-0.717 -1.452,-4.45 1.095,-4.821c0.513,-0.075 1.01,0.096 1.459,0.418c0,0 1.378,2.635 3.652,7.455c2.286,4.832 4.464,9.53 4.464,9.53c-0.017,0.078 0.001,0.119 -0.02,0.194c0,0 0.683,2.747 0.123,3.237c-0.864,0.728 -3.416,0.068 -4.144,-0.354c-0.569,-0.33 -0.803,-0.89 -0.828,-1.577c-0.101,-3.778 -9.929,-4.772 -11.444,-7.504c-1.062,-1.913 -1.317,-7.616 0.94,-8.814c1.532,-0.813 3.451,2.832 4.702,2.236l0.001,0Z" style="fill:#0046aa;fill-rule:nonzero;"/><path id="path3712" d="M50.423,15.491c2.559,3.129 -8.546,6.693 -7.594,9.423c0.91,2.611 7.913,0.019 5.229,3.109c-2.088,2.404 -11.243,3.475 -13.168,6.791c-0.69,1.188 -3.977,8.431 -6.318,10.039c-4.945,3.396 -6.568,-8.272 -5.038,-10.78c1.991,-3.265 2.04,-5.347 6.933,-6.907c2.964,-0.945 3.817,-3.445 4.719,-6.419c0.803,-2.647 6.194,-2.191 7.024,-4.545c0.602,-1.706 6.801,-2.438 8.213,-0.711l0,0Z" style="fill:#0046aa;fill-rule:nonzero;"/><path id="path3714" d="M26.957,67.413c-0.599,-2.386 0.049,-5.341 1.706,-7.179c1.647,-1.826 4.557,-2.959 6.993,-2.502c2.004,0.375 2.748,3.114 4.583,3.992c1.972,0.944 5.002,-0.439 6.471,1.164c2.812,3.065 3.693,9.194 0.991,12.354c-2.299,2.687 -7.217,1.896 -10.658,0.969c-2.485,-0.67 -4.361,-2.749 -6.262,-4.462c-1.434,-1.292 -3.357,-2.478 -3.824,-4.336l0,0Z" style="fill:#0046aa;fill-rule:nonzero;"/></g><g><g><path d="M25.691,67.692c-4.528,-3.271 -7.87,-6.388 -7.46,-6.956c0.411,-0.568 4.42,1.626 8.948,4.897c4.528,3.271 7.87,6.388 7.46,6.956c-0.411,0.568 -4.42,-1.626 -8.948,-4.897Z" style="fill:url(#_Radial1);"/><path d="M26.139,65.427c2.378,-0.569 4.442,-0.478 4.605,0.204c0.163,0.682 -1.635,1.697 -4.013,2.267c-2.378,0.569 -4.442,0.478 -4.605,-0.204c-0.163,-0.682 1.635,-1.697 4.013,-2.267Z" style="fill:url(#_Radial2);"/><path d="M25.169,66.561c0.731,-9.122 1.891,-16.482 2.59,-16.426c0.699,0.056 0.673,7.507 -0.058,16.629c-0.731,9.122 -1.891,16.482 -2.59,16.426c-0.699,-0.056 -0.673,-7.507 0.058,-16.629Z" style="fill:url(#_Radial3);"/></g><g><path d="M61.709,43.862c-5.719,4.885 -10.703,8.453 -11.123,7.961c-0.42,-0.492 3.882,-4.858 9.601,-9.743c5.719,-4.886 10.704,-8.453 11.124,-7.961c0.42,0.492 -3.883,4.857 -9.602,9.743Z" style="fill:url(#_Radial4);"/><path d="M60.582,44.084c-7.604,-2.504 -13.612,-5.036 -13.41,-5.651c0.202,-0.614 6.54,0.921 14.143,3.425c7.603,2.504 13.612,5.036 13.409,5.65c-0.202,0.615 -6.539,-0.92 -14.142,-3.424Z" style="fill:url(#_Radial5);"/></g><g><path d="M75.902,20.029c1.79,-3.421 3.592,-6.017 4.021,-5.792c0.43,0.225 -0.675,3.185 -2.465,6.606c-1.79,3.421 -3.592,6.017 -4.021,5.792c-0.43,-0.225 0.675,-3.185 2.465,-6.606Z" style="fill:url(#_Radial6);"/><path d="M77.496,20.112c1.698,4.268 2.711,7.879 2.26,8.059c-0.45,0.179 -2.194,-3.142 -3.892,-7.41c-1.698,-4.269 -2.711,-7.88 -2.261,-8.059c0.451,-0.18 2.195,3.141 3.893,7.41Z" style="fill:url(#_Radial7);"/><path d="M76.624,19.56c6.652,-0.424 12.078,-0.376 12.109,0.108c0.031,0.483 -5.345,1.22 -11.997,1.644c-6.652,0.424 -12.078,0.376 -12.109,-0.108c-0.031,-0.483 5.345,-1.22 11.997,-1.644Z" style="fill:url(#_Radial8);"/></g><g><path d="M34.912,19.49c5.243,-4.986 9.712,-8.811 9.973,-8.536c0.261,0.275 -3.783,4.545 -9.026,9.531c-5.243,4.986 -9.712,8.81 -9.973,8.536c-0.261,-0.275 3.784,-4.546 9.026,-9.531Z" style="fill:url(#_Radial9);"/><path d="M36.071,19.953c0.09,1.793 -0.144,3.263 -0.523,3.282c-0.378,0.019 -0.758,-1.421 -0.848,-3.213c-0.09,-1.793 0.144,-3.264 0.523,-3.282c0.378,-0.019 0.759,1.42 0.848,3.213Z" style="fill:url(#_Radial10);"/><path d="M35.565,19.325c5.099,1.383 9.159,2.803 9.059,3.168c-0.099,0.366 -4.319,-0.46 -9.418,-1.843c-5.099,-1.383 -9.158,-2.803 -9.059,-3.169c0.099,-0.366 4.319,0.461 9.418,1.844Z" style="fill:url(#_Radial11);"/></g></g><defs><radialGradient id="_Radial1" cx="0" cy="0" r="1" gradientUnits="userSpaceOnUse" gradientTransform="matrix(-8.20382,-5.92651,0.743812,-1.02963,26.4349,66.6625)"><stop offset="0" style="stop-color:#227cfe;stop-opacity:1"/><stop offset="1" style="stop-color:#227cfe;stop-opacity:0"/></radialGradient><radialGradient id="_Radial2" cx="0" cy="0" r="1" gradientUnits="userSpaceOnUse" gradientTransform="matrix(4.30884,-1.0316,0.295745,1.23528,26.4349,66.6625)"><stop offset="0" style="stop-color:#227cfe;stop-opacity:1"/><stop offset="1" style="stop-color:#227cfe;stop-opacity:0"/></radialGradient><radialGradient id="_Radial3" cx="0" cy="0" r="1" gradientUnits="userSpaceOnUse" gradientTransform="matrix(1.32406,-16.5276,1.26614,0.101433,26.4349,66.6625)"><stop offset="0" style="stop-color:#227cfe;stop-opacity:1"/><stop offset="1" style="stop-color:#227cfe;stop-opacity:0"/></radialGradient><radialGradient id="_Radial4" cx="0" cy="0" r="1" gradientUnits="userSpaceOnUse" gradientTransform="matrix(-10.3624,8.85195,-0.76112,-0.890994,60.9482,42.9709)"><stop offset="0" style="stop-color:#227cfe;stop-opacity:1"/><stop offset="1" style="stop-color:#227cfe;stop-opacity:0"/></radialGradient><radialGradient id="_Radial5" cx="0" cy="0" r="1" gradientUnits="userSpaceOnUse" gradientTransform="matrix(-13.7761,-4.53746,0.366594,-1.11301,60.9482,42.9709)"><stop offset="0" style="stop-color:#227cfe;stop-opacity:1"/><stop offset="1" style="stop-color:#227cfe;stop-opacity:0"/></radialGradient><radialGradient id="_Radial6" cx="0" cy="0" r="1" gradientUnits="userSpaceOnUse" gradientTransform="matrix(3.24319,-6.19906,0.778019,0.407041,76.6799,20.436)"><stop offset="0" style="stop-color:#227cfe;stop-opacity:1"/><stop offset="1" style="stop-color:#227cfe;stop-opacity:0"/></radialGradient><radialGradient id="_Radial7" cx="0" cy="0" r="1" gradientUnits="userSpaceOnUse" gradientTransform="matrix(3.07655,7.73446,-0.815887,0.324536,76.6799,20.436)"><stop offset="0" style="stop-color:#227cfe;stop-opacity:1"/><stop offset="1" style="stop-color:#227cfe;stop-opacity:0"/></radialGradient><radialGradient id="_Radial8" cx="0" cy="0" r="1" gradientUnits="userSpaceOnUse" gradientTransform="matrix(12.0528,-0.7682,0.0558513,0.876286,76.6799,20.436)"><stop offset="0" style="stop-color:#227cfe;stop-opacity:1"/><stop offset="1" style="stop-color:#227cfe;stop-opacity:0"/></radialGradient><radialGradient id="_Radial9" cx="0" cy="0" r="1" gradientUnits="userSpaceOnUse" gradientTransform="matrix(9.4995,-9.03326,0.473154,0.497575,35.3856,19.9874)"><stop offset="0" style="stop-color:#227cfe;stop-opacity:1"/><stop offset="1" style="stop-color:#227cfe;stop-opacity:0"/></radialGradient><radialGradient id="_Radial10" cx="0" cy="0" r="1" gradientUnits="userSpaceOnUse" gradientTransform="matrix(0.162686,3.24783,-0.685766,0.0343505,35.3856,19.9874)"><stop offset="0" style="stop-color:#227cfe;stop-opacity:1"/><stop offset="1" style="stop-color:#227cfe;stop-opacity:0"/></radialGradient><radialGradient id="_Radial11" cx="0" cy="0" r="1" gradientUnits="userSpaceOnUse" gradientTransform="matrix(9.23887,2.50612,-0.179757,0.662678,35.3856,19.9874)"><stop offset="0" style="stop-color:#227cfe;stop-opacity:1"/><stop offset="1" style="stop-color:#227cfe;stop-opacity:0"/></radialGradient></defs></svg>