<svg width="100px" height="100px" viewBox="0 0 100 100" version="1.1" xmlns="http://www.w3.org/2000/svg" xmlns:xlink="http://www.w3.org/1999/xlink" xml:space="preserve" xmlns:serif="http://www.serif.com/" style="fill-rule:evenodd;clip-rule:evenodd;stroke-linejoin:round;stroke-miterlimit:1.41421;"><g><path d="M61.003,11.654l-21.363,21.678l-6.044,19.483l3.937,8.242l4.582,2.084l7.447,-12.362l2.535,-0.81l13.858,6.026l4.547,-2.917l1.003,-9.808l2.563,12.037l-2.384,3.178l0.847,0.368l1.175,1.459l1.534,7.708l12.562,-14.986l3.138,0.051l5.026,6.413l-2.121,-11.725l-6.745,-23.124l-26.096,-12.995l-0.001,0Z" style="fill:#131313;fill-rule:nonzero;"/><path d="M18.149,13.699l-7.012,12.372l-1.093,6.559l6.169,-2.005l2.779,1.752l0.02,0.151l6.719,14.215l3.27,-1.079l2.598,1.108l0.931,1.95l4.635,-14.94l-0.256,-7.916l-9.533,-0.124l-7.06,-5.646l8.875,3.206l6.899,0.403l6.182,3.77l11.018,-11.6c-0.659,-0.28 -1.333,-0.559 -2.037,-0.836l-18.897,2.405l-0.838,-0.06l-13.37,-3.685l0.001,0Z" style="fill:#131313;fill-rule:nonzero;"/><path d="M18.35,34.526l-14.364,4.668l-3.736,17.565l11.358,1.248l0.133,-1.596l8.422,-8.208l-1.813,-13.676l0,-0.001Z" style="fill:#131313;fill-rule:nonzero;"/><path d="M29.316,47.039l-8.124,2.679l-7.054,6.875l5.036,6.881l12.779,0.388l3.678,-3.603l-6.315,-13.219l0,-0.001Z" style="fill:#131313;fill-rule:nonzero;"/><path d="M52.259,51.583l-10.434,17.32l-0.008,13.455l22.905,2.877l10.418,-4.598l-4.16,-20.913l-18.721,-8.14l0,-0.001Z" style="fill:#131313;fill-rule:nonzero;"/><path d="M89.085,54.197l-11.258,13.429l0.069,0.427l15.658,3.338l6.196,-3.588l-10.664,-13.607l-0.001,0.001Z" style="fill:#131313;fill-rule:nonzero;"/><path d="M6.736,61.661l-3.039,9.879l4.557,16.806l31.546,-4.127l0.458,-9.154l-21.686,-11.087l-11.836,-2.317l0,0Z" style="fill:#131313;fill-rule:nonzero;"/><g><path d="M72.83,23.655l9.868,13.845l0.442,13.109l-5.302,-12.52l-13.699,-12.667l8.691,-1.767Z" style="fill:#0046aa;fill-rule:nonzero;"/><path d="M58.693,58.641l9.238,5.38l3.158,11.929l-6.315,5.613l-10.601,-0.601l9.081,-6.65l0.585,-9.239l-5.146,-6.431l0,-0.001Z" style="fill:#0046aa;fill-rule:nonzero;"/></g></g><g><path d="M65.054,26.461c-3.563,3.043 -6.765,5.151 -7.147,4.704c-0.382,-0.447 2.2,-3.281 5.763,-6.324c3.562,-3.043 6.764,-5.151 7.146,-4.704c0.382,0.447 -2.2,3.281 -5.762,6.324Z" style="fill:url(#_Radial1);"/><path d="M63.296,25.648c0.007,-2.052 0.49,-3.715 1.078,-3.713c0.588,0.002 1.06,1.668 1.053,3.72c-0.007,2.051 -0.489,3.714 -1.078,3.713c-0.588,-0.002 -1.06,-1.669 -1.053,-3.72Z" style="fill:url(#_Radial2);"/><path d="M64.028,26.663c-2.927,-0.964 -5.155,-2.201 -4.971,-2.759c0.184,-0.559 2.71,-0.229 5.638,0.735c2.928,0.964 5.155,2.201 4.971,2.759c-0.184,0.559 -2.71,0.229 -5.638,-0.735Z" style="fill:url(#_Radial3);"/></g><g><path d="M71.875,74.899c3.028,3.576 5.121,6.788 4.673,7.168c-0.449,0.38 -3.272,-2.215 -6.299,-5.791c-3.028,-3.575 -5.121,-6.787 -4.673,-7.167c0.449,-0.38 3.271,2.215 6.299,5.79Z" style="fill:url(#_Radial4);"/><path d="M71.054,76.653c-2.051,-0.015 -3.713,-0.505 -3.708,-1.093c0.004,-0.588 1.673,-1.053 3.724,-1.038c2.051,0.016 3.713,0.506 3.708,1.094c-0.004,0.588 -1.673,1.053 -3.724,1.037Z" style="fill:url(#_Radial5);"/><path d="M72.072,75.926c-0.977,2.923 -2.223,5.145 -2.78,4.959c-0.558,-0.187 -0.218,-2.711 0.759,-5.635c0.978,-2.923 2.224,-5.146 2.781,-4.959c0.558,0.186 0.218,2.711 -0.76,5.635Z" style="fill:url(#_Radial6);"/></g><defs><radialGradient id="_Radial1" cx="0" cy="0" r="1" gradientUnits="userSpaceOnUse" gradientTransform="matrix(-6.45481,5.51394,-0.692033,-0.810118,64.3616,25.6511)"><stop offset="0" style="stop-color:#227cfe;stop-opacity:1"/><stop offset="1" style="stop-color:#227cfe;stop-opacity:0"/></radialGradient><radialGradient id="_Radial2" cx="0" cy="0" r="1" gradientUnits="userSpaceOnUse" gradientTransform="matrix(0.0120732,-3.71644,1.06545,0.00346122,64.3616,25.6511)"><stop offset="0" style="stop-color:#227cfe;stop-opacity:1"/><stop offset="1" style="stop-color:#227cfe;stop-opacity:0"/></radialGradient><radialGradient id="_Radial3" cx="0" cy="0" r="1" gradientUnits="userSpaceOnUse" gradientTransform="matrix(-5.30465,-1.74721,0.333318,-1.01198,64.3616,25.6511)"><stop offset="0" style="stop-color:#227cfe;stop-opacity:1"/><stop offset="1" style="stop-color:#227cfe;stop-opacity:0"/></radialGradient><radialGradient id="_Radial4" cx="0" cy="0" r="1" gradientUnits="userSpaceOnUse" gradientTransform="matrix(5.48566,6.47886,-0.813136,0.688483,71.0619,75.5879)"><stop offset="0" style="stop-color:#227cfe;stop-opacity:1"/><stop offset="1" style="stop-color:#227cfe;stop-opacity:0"/></radialGradient><radialGradient id="_Radial5" cx="0" cy="0" r="1" gradientUnits="userSpaceOnUse" gradientTransform="matrix(-3.71636,-0.0283256,0.00812054,-1.06543,71.0619,75.5879)"><stop offset="0" style="stop-color:#227cfe;stop-opacity:1"/><stop offset="1" style="stop-color:#227cfe;stop-opacity:0"/></radialGradient><radialGradient id="_Radial6" cx="0" cy="0" r="1" gradientUnits="userSpaceOnUse" gradientTransform="matrix(-1.77039,5.29696,-1.01051,-0.33774,71.0619,75.5879)"><stop offset="0" style="stop-color:#227cfe;stop-opacity:1"/><stop offset="1" style="stop-color:#227cfe;stop-opacity:0"/></radialGradient></defs></svg>