<svg width="100px" height="100px" viewBox="0 0 100 100" version="1.1" xmlns="http://www.w3.org/2000/svg" xmlns:xlink="http://www.w3.org/1999/xlink" xml:space="preserve" style="fill-rule:evenodd;clip-rule:evenodd;stroke-linecap:round;stroke-linejoin:round;stroke-miterlimit:1.5;"><g><path d="M62.775,1.927c-0.084,-1.62 -3.715,0.313 -4.934,0.313c-0.799,0 -2.357,-1.1 -2.377,-0.313c-0.13,5.222 1.483,18.134 1.08,30.285c-0.144,4.341 -1.312,8.855 -1.466,13.408c-0.293,8.702 1.108,20.581 1.123,28.607c0.022,11.643 -1.193,18.533 -0.737,23.829c0.206,2.39 7.129,2.392 7.311,0c0.449,-5.911 0.834,-18.429 0.575,-32.566c-0.096,-5.273 -0.936,-8.382 -0.951,-13.894c-0.008,-2.6 1.12,-7.601 1.105,-10.169c-0.028,-4.607 0.691,-8.868 0.64,-13.136c-0.138,-11.445 -1.112,-21.379 -1.369,-26.364l0,0Z" style="fill:url(#_Linear1);stroke:#000;stroke-width:0.3px;"/><path d="M81.441,7.313c-2.145,-3.07 -12.846,-2.312 -17.286,-2.782c-3.101,-0.328 -7.472,-0.414 -9.355,-0.037c-0.984,0.197 -1.38,1.807 -1.944,2.297c-0.397,0.345 -0.927,0.536 -1.442,0.642c-0.832,0.171 -2.372,0.227 -3.553,0.386c-1.361,0.184 -3.083,0.427 -4.611,0.716c-1.783,0.337 -4.075,0.794 -6.086,1.305c-2.562,0.651 -10.134,1.29 -9.285,2.601c0.849,1.31 10.832,4.471 14.381,5.262c2.255,0.503 5.118,-0.93 6.912,-0.517c1.585,0.365 2.599,2.191 3.852,2.996c1.15,0.739 2.528,1.509 3.668,1.833c1.018,0.29 2.118,0.026 3.172,0.113c1.272,0.105 3.16,0.367 4.462,0.517c1.117,0.129 2.227,0.357 3.351,0.384c2.117,0.051 7.296,2.265 9.349,-0.079c2.294,-2.62 6.56,-12.568 4.415,-15.637Z" style="fill:url(#_Radial2);stroke:#000;stroke-width:0.29px;stroke-linecap:butt;stroke-miterlimit:1.41421;"/><path d="M79.442,6.361c0.181,1.372 -0.938,6.01 -1.69,8.753c-0.736,2.681 -2.95,6.974 -3.181,8.329c-0.057,0.337 0.684,0.17 1.462,-0.159c1.186,-0.5 3.088,-4.581 3.986,-7.149c0.894,-2.556 2.14,-6.718 1.402,-8.256c-0.429,-0.897 -2.027,-1.885 -1.979,-1.518Z" style="fill:url(#_Linear3);"/></g><defs><linearGradient id="_Linear1" x1="0" y1="0" x2="1" y2="0" gradientUnits="userSpaceOnUse" gradientTransform="matrix(7.3104,0,0,7.3104,55.4643,49.9914)"><stop offset="0" style="stop-color:#301203;stop-opacity:1"/><stop offset="0.5" style="stop-color:#582106;stop-opacity:1"/><stop offset="1" style="stop-color:#301203;stop-opacity:1"/></linearGradient><radialGradient id="_Radial2" cx="0" cy="0" r="1" gradientUnits="userSpaceOnUse" gradientTransform="matrix(-0.305187,-55.9107,51.3713,-0.321168,58.1494,35.8064)"><stop offset="0" style="stop-color:#545454;stop-opacity:1"/><stop offset="0.59" style="stop-color:#6d6d6d;stop-opacity:1"/><stop offset="0.8" style="stop-color:#595959;stop-opacity:1"/><stop offset="1" style="stop-color:#4f4f4f;stop-opacity:1"/></radialGradient><linearGradient id="_Linear3" x1="0" y1="0" x2="1" y2="0" gradientUnits="userSpaceOnUse" gradientTransform="matrix(24.1914,0.357923,-0.357923,24.1914,61.2778,17.1224)"><stop offset="0" style="stop-color:#b8b8b8;stop-opacity:1"/><stop offset="0.66" style="stop-color:#ababab;stop-opacity:1"/><stop offset="0.85" style="stop-color:#808080;stop-opacity:1"/><stop offset="1" style="stop-color:#333;stop-opacity:1"/></linearGradient></defs></svg>