<svg width="100px" height="100px" viewBox="0 0 100 100" version="1.1" xmlns="http://www.w3.org/2000/svg" xmlns:xlink="http://www.w3.org/1999/xlink" xml:space="preserve" xmlns:serif="http://www.serif.com/" style="fill-rule:evenodd;clip-rule:evenodd;stroke-linecap:round;stroke-linejoin:round;stroke-miterlimit:1.5;"><g><path d="M89.613,10.406c-13.203,-13.198 -66.018,-13.214 -79.222,-0.012c-11.616,11.614 -11.616,67.609 0,79.221c13.204,13.199 66.019,13.171 79.222,-0.03c11.61,-11.608 11.611,-67.573 0,-79.179Z" style="fill:url(#_Radial1);stroke:#000;stroke-width:0.3px;"/><path d="M78.281,21.733c-9.427,-9.423 -47.132,-9.434 -56.558,-0.009c-8.294,8.292 -8.294,48.268 0,56.558c9.426,9.423 47.131,9.403 56.558,-0.022c8.288,-8.287 8.289,-48.241 0,-56.527Z" style="fill:#7b2e08;"/><path d="M65.866,34.141c-5.288,-5.286 -26.442,-5.292 -31.731,-0.005c-4.652,4.652 -4.652,27.08 0,31.731c5.289,5.287 26.443,5.276 31.731,-0.012c4.651,-4.649 4.651,-27.065 0,-31.714Z" style="fill:#a73f0b;"/><path d="M55.512,44.491c-1.837,-1.837 -9.186,-1.839 -11.023,-0.002c-1.617,1.616 -1.617,9.408 0,11.023c1.837,1.837 9.186,1.833 11.023,-0.004c1.616,-1.615 1.616,-9.402 0,-11.017Z" style="fill:#b8450d;"/><path d="M96.789,70.037l-0.544,2.913l-7.042,0.384l7.586,-3.297Z" style="stroke:#000;stroke-width:0.3px;"/><path d="M2.327,62.957l-0.612,-12.371c0,0 13.069,5.412 29.307,5.876l-28.695,6.495Z" style="stroke:#000;stroke-width:0.3px;"/><path d="M97.547,36.072l0.189,2.169l-7.998,-2.189l7.809,0.02Z" style="stroke:#000;stroke-width:0.3px;"/><path d="M72.975,2.872l2.97,0.732c0,0 -0.603,5.688 -1.059,7.602c-0.457,1.914 -2.532,5.706 -2.488,5.012c0.09,-1.407 0.577,-13.346 0.577,-13.346Z" style="stroke:#000;stroke-width:0.3px;"/><path d="M57.793,0.75c0,0 2.151,5.213 -0.289,11.486c-0.008,0.02 -1.259,1.647 -1.956,1.652c-2.377,0.016 -13.897,-1.654 -13.897,-1.654c0,0 10.852,-0.836 13.001,-2.161c0.836,-0.516 1.451,-4.345 1.456,-5.707c0.005,-1.361 -1.431,-3.744 -1.431,-3.744l3.116,0.128Z" style="stroke:#000;stroke-width:0.3px;"/></g><defs><radialGradient id="_Radial1" cx="0" cy="0" r="1" gradientUnits="userSpaceOnUse" gradientTransform="matrix(49.5,0,0,49.5,50,50)"><stop offset="0" style="stop-color:#7b2e08;stop-opacity:1"/><stop offset="1" style="stop-color:#301203;stop-opacity:1"/></radialGradient></defs></svg>