<svg width="100px" height="100px" viewBox="0 0 100 100" version="1.1" xmlns="http://www.w3.org/2000/svg" xmlns:xlink="http://www.w3.org/1999/xlink" xml:space="preserve" style="fill-rule:evenodd;clip-rule:evenodd;stroke-linecap:round;stroke-linejoin:round;stroke-miterlimit:1.5;"><g><path d="M89.613,10.406c-13.203,-13.198 -66.018,-13.214 -79.222,-0.012c-11.616,11.614 -11.616,67.609 0,79.221c13.204,13.199 66.019,13.171 79.222,-0.03c11.61,-11.608 11.611,-67.573 0,-79.179Z" style="fill:url(#_Radial1);stroke:#000;stroke-width:0.3px;"/><path d="M56.742,43.262c-2.247,-2.247 -11.236,-2.249 -13.483,-0.003c-1.977,1.977 -1.977,11.507 0,13.483c2.247,2.246 11.236,2.242 13.483,-0.005c1.976,-1.976 1.976,-11.5 0,-13.475Z" style="fill:#381302;fill-opacity:0.870588;"/><path d="M81.996,18.02c-10.665,-10.661 -53.324,-10.674 -63.988,-0.011c-9.383,9.381 -9.383,54.609 0,63.989c10.664,10.66 53.323,10.638 63.988,-0.025c9.378,-9.376 9.378,-54.579 0,-63.953Zm-4.047,4.045c-9.316,-9.312 -46.579,-9.323 -55.894,-0.009c-8.196,8.195 -8.196,47.701 0,55.894c9.315,9.312 46.578,9.293 55.894,-0.022c8.191,-8.189 8.191,-47.674 0,-55.863Z" style="fill:#290c00;fill-opacity:0.658824;"/><path d="M69.338,30.671c-6.445,-6.443 -32.228,-6.451 -38.674,-0.006c-5.671,5.67 -5.671,33.005 0,38.674c6.446,6.443 32.229,6.43 38.674,-0.015c5.668,-5.666 5.668,-32.987 0,-38.653Zm-2.446,2.445c-5.63,-5.628 -28.152,-5.634 -33.782,-0.005c-4.953,4.953 -4.953,28.83 0,33.782c5.63,5.628 28.152,5.616 33.782,-0.013c4.951,-4.95 4.951,-28.815 0,-33.764Z" style="fill:#290c00;fill-opacity:0.658824;"/><path d="M96.789,70.037l-0.544,2.913l-7.042,0.384l7.586,-3.297Z" style="stroke:#000;stroke-width:0.3px;"/><path d="M2.327,62.957l-0.612,-12.371c0,0 13.069,5.412 29.307,5.876l-28.695,6.495Z" style="stroke:#000;stroke-width:0.3px;"/><path d="M97.547,36.072l0.189,2.169l-7.998,-2.189l7.809,0.02Z" style="stroke:#000;stroke-width:0.3px;"/><path d="M72.975,2.872l2.97,0.732c0,0 -0.603,5.688 -1.059,7.602c-0.457,1.914 -2.532,5.706 -2.488,5.012c0.09,-1.407 0.577,-13.346 0.577,-13.346Z" style="stroke:#000;stroke-width:0.3px;"/><path d="M57.793,0.75c0,0 2.151,5.213 -0.289,11.486c-0.008,0.02 -1.259,1.647 -1.956,1.652c-2.377,0.016 -13.897,-1.654 -13.897,-1.654c0,0 10.852,-0.836 13.001,-2.161c0.836,-0.516 1.451,-4.345 1.456,-5.707c0.005,-1.361 -1.431,-3.744 -1.431,-3.744l3.116,0.128Z" style="stroke:#000;stroke-width:0.3px;"/></g><defs><radialGradient id="_Radial1" cx="0" cy="0" r="1" gradientUnits="userSpaceOnUse" gradientTransform="matrix(-4.0416e-15,49.5,48.3209,2.98799e-15,50,50)"><stop offset="0" style="stop-color:#7b2e08;stop-opacity:1"/><stop offset="1" style="stop-color:#301203;stop-opacity:1"/></radialGradient></defs></svg>