<svg width="100px" height="100px" viewBox="0 0 100 100" version="1.1" xmlns="http://www.w3.org/2000/svg" xmlns:xlink="http://www.w3.org/1999/xlink" xml:space="preserve" xmlns:serif="http://www.serif.com/" style="fill-rule:evenodd;clip-rule:evenodd;stroke-linejoin:round;stroke-miterlimit:1.41421;"><g><path d="M71.22,1.83l-14.512,11.121c-1.074,1.138 -1.112,1.812 -0.875,2.62c0.241,0.828 1.084,1.885 2.334,2.707c1.251,0.822 2.851,1.389 4.212,1.502c1.197,0.099 2.083,-0.143 2.654,-0.57c0.063,-0.16 0.128,-0.325 0.224,-0.58c0.348,-0.932 0.691,-1.867 1.026,-2.804c0.834,-2.312 1.918,-5.376 2.991,-8.43c0.982,-2.792 1.946,-5.566 1.946,-5.566Z" style="fill:url(#_Radial1);stroke:#000;stroke-width:0.3px;"/><path d="M26.734,97.575l14.085,-11.659c1.03,-1.178 1.042,-1.853 0.776,-2.651c-0.273,-0.818 -1.155,-1.843 -2.435,-2.617c-1.281,-0.775 -2.901,-1.281 -4.265,-1.343c-1.2,-0.054 -2.076,0.221 -2.631,0.669c-0.056,0.163 -0.116,0.33 -0.202,0.588c-0.313,0.945 -0.62,1.892 -0.92,2.84c-0.746,2.343 -1.714,5.445 -2.673,8.537c-0.876,2.827 -1.735,5.636 -1.735,5.636Z" style="fill:url(#_Radial2);stroke:#000;stroke-width:0.3px;"/><path d="M0.916,42.55l16.095,8.673c1.478,0.513 2.109,0.27 2.748,-0.276c0.656,-0.56 1.274,-1.762 1.512,-3.24c0.236,-1.478 0.097,-3.17 -0.358,-4.457c-0.401,-1.132 -0.985,-1.841 -1.609,-2.186c-0.171,0.008 -0.349,0.015 -0.621,0.033c-0.993,0.064 -1.985,0.136 -2.977,0.214c-2.452,0.188 -5.69,0.457 -8.916,0.73c-2.949,0.25 -5.874,0.509 -5.874,0.509Z" style="fill:url(#_Radial3);stroke:#000;stroke-width:0.3px;"/><path d="M99.225,66.936l-14.319,-10.346c-1.345,-0.678 -1.966,-0.527 -2.627,-0.086c-0.679,0.452 -1.389,1.522 -1.766,2.905c-0.378,1.382 -0.422,3.017 -0.125,4.306c0.261,1.134 0.74,1.885 1.293,2.295c0.164,0.015 0.332,0.03 0.591,0.048c0.946,0.065 1.892,0.123 2.838,0.175c2.338,0.133 5.428,0.29 8.507,0.44c2.815,0.137 5.608,0.263 5.608,0.263Z" style="fill:url(#_Radial4);stroke:#000;stroke-width:0.3px;"/></g><g><g><g><path d="M15.89,17.749l12.426,13.709l0.549,0.644l1.581,37.649l-2.233,2.024l-12.314,10.487c-1.667,-2.069 -2.666,-4.699 -2.666,-7.561l0,-49.402c0,-2.908 1.032,-5.578 2.748,-7.662l-0.091,0.112Z" style="fill:url(#_Radial5);"/><path d="M30.446,69.751l0.253,-0.229l37.808,-1.588l13.763,16.16c-2.07,1.672 -4.704,2.673 -7.569,2.673l-49.402,0c-3.662,0 -6.946,-1.636 -9.159,-4.216l0.081,0.094l14.225,-12.894Z" style="fill:url(#_Radial6);"/><path d="M67.367,30.604l0.593,-0.538l15.427,-13.138c2.092,2.17 3.38,5.122 3.38,8.371l0,49.402c0,3.605 -1.585,6.844 -4.096,9.055l0.121,-0.108l-13.838,-15.267l-1.587,-37.777Z" style="fill:url(#_Radial7);"/><path d="M74.701,13.233c3.239,0.001 6.181,1.28 8.35,3.36l-0.111,-0.105l-15.573,14.116l-0.348,0.316l-37.809,1.587l-0.345,-0.405l-12.601,-14.796l-0.095,0.109c2.213,-2.56 5.483,-4.181 9.13,-4.182l49.402,0Z" style="fill:url(#_Radial8);"/><path d="M70.398,35.892c0,-4.087 -3.318,-7.404 -7.404,-7.404l-30.315,0c-4.086,0 -7.404,3.317 -7.404,7.404l0,30.407c0,4.087 3.318,7.405 7.404,7.405l30.315,0c4.086,0 7.404,-3.318 7.404,-7.405l0,-30.407Z" style="fill:url(#_Radial9);stroke:#fff;stroke-width:0.17px;stroke-linecap:round;stroke-linejoin:miter;stroke-miterlimit:1;"/></g></g><g><path d="M34.109,14.884c1.02,1.019 1.651,2.427 1.651,3.981l0,11.263c0,1.554 -0.631,2.962 -1.651,3.981l-9.612,-9.612l9.612,-9.613Z" style="fill:url(#_Radial10);stroke:#fff;stroke-width:0.09px;stroke-linecap:round;stroke-miterlimit:1.5;"/><path d="M24.497,24.497l-9.613,9.612c-1.02,-1.019 -1.651,-2.427 -1.651,-3.981l0,-11.263c0,-1.554 0.631,-2.962 1.651,-3.981l9.613,9.613Z" style="fill:url(#_Radial11);stroke:#fff;stroke-width:0.09px;stroke-linecap:round;stroke-miterlimit:1.5;"/><path d="M34.109,34.109c-1.019,1.02 -2.427,1.651 -3.981,1.651l-11.263,0c-1.554,0 -2.962,-0.631 -3.981,-1.651l9.613,-9.612l9.612,9.612Z" style="fill:url(#_Radial12);stroke:#fff;stroke-width:0.09px;stroke-linecap:round;stroke-miterlimit:1.5;"/><path d="M30.128,13.233c1.554,0 2.962,0.631 3.981,1.651l-9.612,9.613l-9.613,-9.613c1.019,-1.02 2.427,-1.651 3.981,-1.651l11.263,0Z" style="fill:url(#_Radial13);stroke:#fff;stroke-width:0.09px;stroke-linecap:round;stroke-miterlimit:1.5;"/></g><g><path d="M34.109,65.891c1.02,1.019 1.651,2.427 1.651,3.981l0,11.263c0,1.554 -0.631,2.962 -1.651,3.981l-9.612,-9.613l9.612,-9.612Z" style="fill:url(#_Radial14);stroke:#fff;stroke-width:0.09px;stroke-linecap:round;stroke-miterlimit:1.5;"/><path d="M24.497,75.503l-9.613,9.613c-1.02,-1.019 -1.651,-2.427 -1.651,-3.981l0,-11.263c0,-1.554 0.631,-2.962 1.651,-3.981l9.613,9.612Z" style="fill:url(#_Radial15);stroke:#fff;stroke-width:0.09px;stroke-linecap:round;stroke-miterlimit:1.5;"/><path d="M34.109,85.116c-1.019,1.02 -2.427,1.651 -3.981,1.651l-11.263,0c-1.554,0 -2.962,-0.631 -3.981,-1.651l9.613,-9.613l9.612,9.613Z" style="fill:url(#_Radial16);stroke:#fff;stroke-width:0.09px;stroke-linecap:round;stroke-miterlimit:1.5;"/><path d="M30.128,64.24c1.554,0 2.962,0.631 3.981,1.651l-9.612,9.612l-9.613,-9.612c1.019,-1.02 2.427,-1.651 3.981,-1.651l11.263,0Z" style="fill:url(#_Radial17);stroke:#fff;stroke-width:0.09px;stroke-linecap:round;stroke-miterlimit:1.5;"/></g><g><path d="M85.116,14.884c1.02,1.019 1.651,2.427 1.651,3.981l0,11.263c0,1.554 -0.631,2.962 -1.651,3.981l-9.613,-9.612l9.613,-9.613Z" style="fill:url(#_Radial18);stroke:#fff;stroke-width:0.09px;stroke-linecap:round;stroke-miterlimit:1.5;"/><path d="M75.503,24.497l-9.612,9.612c-1.02,-1.019 -1.651,-2.427 -1.651,-3.981l0,-11.263c0,-1.554 0.631,-2.962 1.651,-3.981l9.612,9.613Z" style="fill:url(#_Radial19);stroke:#fff;stroke-width:0.09px;stroke-linecap:round;stroke-miterlimit:1.5;"/><path d="M85.116,34.109c-1.019,1.02 -2.427,1.651 -3.981,1.651l-11.263,0c-1.554,0 -2.962,-0.631 -3.981,-1.651l9.612,-9.612l9.613,9.612Z" style="fill:url(#_Radial20);stroke:#fff;stroke-width:0.09px;stroke-linecap:round;stroke-miterlimit:1.5;"/><path d="M81.135,13.233c1.554,0 2.962,0.631 3.981,1.651l-9.613,9.613l-9.612,-9.613c1.019,-1.02 2.427,-1.651 3.981,-1.651l11.263,0Z" style="fill:url(#_Radial21);stroke:#fff;stroke-width:0.09px;stroke-linecap:round;stroke-miterlimit:1.5;"/></g><g><path d="M85.116,65.891c1.02,1.019 1.651,2.427 1.651,3.981l0,11.263c0,1.554 -0.631,2.962 -1.651,3.981l-9.613,-9.613l9.613,-9.612Z" style="fill:url(#_Radial22);stroke:#fff;stroke-width:0.09px;stroke-linecap:round;stroke-miterlimit:1.5;"/><path d="M75.503,75.503l-9.612,9.613c-1.02,-1.019 -1.651,-2.427 -1.651,-3.981l0,-11.263c0,-1.554 0.631,-2.962 1.651,-3.981l9.612,9.612Z" style="fill:url(#_Radial23);stroke:#fff;stroke-width:0.09px;stroke-linecap:round;stroke-miterlimit:1.5;"/><path d="M85.116,85.116c-1.019,1.02 -2.427,1.651 -3.981,1.651l-11.263,0c-1.554,0 -2.962,-0.631 -3.981,-1.651l9.612,-9.613l9.613,9.613Z" style="fill:url(#_Radial24);stroke:#fff;stroke-width:0.09px;stroke-linecap:round;stroke-miterlimit:1.5;"/><path d="M81.135,64.24c1.554,0 2.962,0.631 3.981,1.651l-9.613,9.612l-9.612,-9.612c1.019,-1.02 2.427,-1.651 3.981,-1.651l11.263,0Z" style="fill:url(#_Radial25);stroke:#fff;stroke-width:0.09px;stroke-linecap:round;stroke-miterlimit:1.5;"/></g><g><path d="M13.238,34.136l-0.005,-2.373l5.959,-0.215l-5.954,2.588Z" style="fill:#8a6b50;"/><path d="M63.242,28.634l-8.927,-0.013c0,0 5.936,10.201 8.958,21.79l-0.031,-21.777Z" style="fill:#8a6b50;"/><path d="M86.767,51.132l0,2.251l-6.883,-2.022l6.883,-0.229Z" style="fill:#8a6b50;"/><path d="M36.747,86.76l-2.524,0.007c0,0 -1.341,-4.345 -1.656,-5.857c-0.316,-1.512 -0.108,-4.899 0.092,-4.391c0.407,1.03 4.088,10.241 4.088,10.241Z" style="fill:#8a6b50;"/></g></g><g><path d="M65.967,99.026l2.277,-18.141c-0.055,-1.563 -0.509,-2.063 -1.249,-2.463c-0.76,-0.409 -2.104,-0.552 -3.567,-0.239c-1.464,0.312 -2.991,1.053 -4.027,1.942c-0.912,0.783 -1.362,1.583 -1.459,2.289c0.07,0.158 0.141,0.32 0.255,0.568c0.419,0.902 0.844,1.802 1.275,2.699c1.061,2.218 2.48,5.142 3.899,8.051c1.298,2.66 2.596,5.294 2.596,5.294Z" style="fill:url(#_Radial26);stroke:#000;stroke-width:0.3px;"/><path d="M90.324,10.023l-16.565,7.74c-1.293,0.881 -1.475,1.531 -1.418,2.37c0.058,0.861 0.654,2.074 1.698,3.146c1.045,1.072 2.486,1.97 3.79,2.373c1.148,0.354 2.065,0.308 2.714,0.014c0.096,-0.143 0.196,-0.29 0.345,-0.518c0.54,-0.836 1.075,-1.675 1.605,-2.517c1.311,-2.08 3.028,-4.839 4.734,-7.59c1.559,-2.516 3.097,-5.018 3.097,-5.018Z" style="fill:url(#_Radial27);stroke:#000;stroke-width:0.3px;"/><path d="M98.919,36.554l-18.224,1.475c-1.52,0.374 -1.917,0.92 -2.156,1.726c-0.246,0.827 -0.111,2.172 0.493,3.541c0.605,1.369 1.642,2.713 2.724,3.546c0.953,0.732 1.828,1.009 2.539,0.96c0.14,-0.1 0.284,-0.203 0.503,-0.366c0.799,-0.594 1.593,-1.194 2.383,-1.799c1.954,-1.491 4.527,-3.477 7.085,-5.461c2.339,-1.814 4.653,-3.622 4.653,-3.622Z" style="fill:url(#_Radial28);stroke:#000;stroke-width:0.3px;"/><path d="M92.093,84.936l-7.703,-16.581c-0.878,-1.295 -1.527,-1.479 -2.367,-1.424c-0.861,0.057 -2.076,0.649 -3.15,1.691c-1.074,1.043 -1.975,2.481 -2.381,3.785c-0.356,1.147 -0.312,2.064 -0.02,2.714c0.143,0.096 0.289,0.196 0.517,0.345c0.835,0.543 1.673,1.08 2.514,1.611c2.077,1.316 4.832,3.04 7.58,4.751c2.512,1.565 5.01,3.108 5.01,3.108Z" style="fill:url(#_Radial29);stroke:#000;stroke-width:0.3px;"/><path d="M1.722,74.513l18.283,-0.032c1.544,-0.253 1.983,-0.766 2.286,-1.551c0.31,-0.805 0.282,-2.156 -0.213,-3.568c-0.495,-1.413 -1.423,-2.834 -2.436,-3.75c-0.892,-0.805 -1.742,-1.15 -2.455,-1.157c-0.147,0.089 -0.299,0.18 -0.53,0.324c-0.843,0.53 -1.682,1.065 -2.517,1.606c-2.066,1.332 -4.787,3.109 -7.494,4.885c-2.475,1.623 -4.924,3.243 -4.924,3.243Z" style="fill:url(#_Radial30);stroke:#000;stroke-width:0.3px;"/><path d="M13.138,9.258l7.839,16.518c0.889,1.288 1.54,1.465 2.379,1.403c0.861,-0.063 2.07,-0.666 3.136,-1.717c1.065,-1.051 1.954,-2.497 2.349,-3.803c0.348,-1.151 0.296,-2.067 -0.002,-2.715c-0.143,-0.095 -0.29,-0.194 -0.52,-0.341c-0.839,-0.535 -1.681,-1.065 -2.527,-1.59c-2.087,-1.299 -4.856,-3 -7.618,-4.689c-2.525,-1.543 -5.036,-3.066 -5.036,-3.066Z" style="fill:url(#_Radial31);stroke:#000;stroke-width:0.3px;"/><path d="M45.261,1.172l-7.987,16.447c-0.449,1.499 -0.181,2.118 0.392,2.734c0.588,0.632 1.814,1.199 3.301,1.373c1.486,0.175 3.171,-0.036 4.438,-0.545c1.114,-0.449 1.797,-1.062 2.116,-1.699c-0.015,-0.172 -0.03,-0.348 -0.059,-0.619c-0.106,-0.99 -0.219,-1.978 -0.339,-2.966c-0.292,-2.441 -0.697,-5.666 -1.106,-8.877c-0.374,-2.936 -0.756,-5.848 -0.756,-5.848Z" style="fill:url(#_Radial32);stroke:#000;stroke-width:0.3px;"/></g><defs><radialGradient id="_Radial1" cx="0" cy="0" r="1" gradientUnits="userSpaceOnUse" gradientTransform="matrix(14.0355,-23.2523,18.8215,11.361,51.4968,30.3097)"><stop offset="0" style="stop-color:#4f4f4f;stop-opacity:1"/><stop offset="1" style="stop-color:#999;stop-opacity:1"/></radialGradient><radialGradient id="_Radial2" cx="0" cy="0" r="1" gradientUnits="userSpaceOnUse" gradientTransform="matrix(-13.1522,23.7631,-19.235,-10.646,45.3738,68.374)"><stop offset="0" style="stop-color:#4f4f4f;stop-opacity:1"/><stop offset="1" style="stop-color:#999;stop-opacity:1"/></radialGradient><radialGradient id="_Radial3" cx="0" cy="0" r="1" gradientUnits="userSpaceOnUse" gradientTransform="matrix(-26.9633,-3.26275,2.64102,-21.8254,34.9795,48.8554)"><stop offset="0" style="stop-color:#4f4f4f;stop-opacity:1"/><stop offset="1" style="stop-color:#999;stop-opacity:1"/></radialGradient><radialGradient id="_Radial4" cx="0" cy="0" r="1" gradientUnits="userSpaceOnUse" gradientTransform="matrix(25.1584,6.55964,-4.76613,20.5281,67.6683,56.5614)"><stop offset="0" style="stop-color:#4f4f4f;stop-opacity:1"/><stop offset="1" style="stop-color:#999;stop-opacity:1"/></radialGradient><radialGradient id="_Radial5" cx="0" cy="0" r="1" gradientUnits="userSpaceOnUse" gradientTransform="matrix(44.5814,0,0,47.6825,50,50)"><stop offset="0" style="stop-color:#999;stop-opacity:1"/><stop offset="0.3" style="stop-color:#c27432;stop-opacity:1"/><stop offset="0.54" style="stop-color:#d36507;stop-opacity:1"/><stop offset="0.83" style="stop-color:#d36507;stop-opacity:1"/><stop offset="1" style="stop-color:#a14d05;stop-opacity:1"/></radialGradient><radialGradient id="_Radial6" cx="0" cy="0" r="1" gradientUnits="userSpaceOnUse" gradientTransform="matrix(44.5814,0,0,47.6825,50,50)"><stop offset="0" style="stop-color:#999;stop-opacity:1"/><stop offset="0.3" style="stop-color:#c27432;stop-opacity:1"/><stop offset="0.54" style="stop-color:#d36507;stop-opacity:1"/><stop offset="0.83" style="stop-color:#d36507;stop-opacity:1"/><stop offset="1" style="stop-color:#a14d05;stop-opacity:1"/></radialGradient><radialGradient id="_Radial7" cx="0" cy="0" r="1" gradientUnits="userSpaceOnUse" gradientTransform="matrix(44.5814,0,0,47.6825,50,50)"><stop offset="0" style="stop-color:#999;stop-opacity:1"/><stop offset="0.3" style="stop-color:#c27432;stop-opacity:1"/><stop offset="0.54" style="stop-color:#d36507;stop-opacity:1"/><stop offset="0.83" style="stop-color:#d36507;stop-opacity:1"/><stop offset="1" style="stop-color:#a14d05;stop-opacity:1"/></radialGradient><radialGradient id="_Radial8" cx="0" cy="0" r="1" gradientUnits="userSpaceOnUse" gradientTransform="matrix(44.5814,0,0,47.6825,50,50)"><stop offset="0" style="stop-color:#999;stop-opacity:1"/><stop offset="0.3" style="stop-color:#c27432;stop-opacity:1"/><stop offset="0.54" style="stop-color:#d36507;stop-opacity:1"/><stop offset="0.83" style="stop-color:#d36507;stop-opacity:1"/><stop offset="1" style="stop-color:#a14d05;stop-opacity:1"/></radialGradient><radialGradient id="_Radial9" cx="0" cy="0" r="1" gradientUnits="userSpaceOnUse" gradientTransform="matrix(44.5814,0,0,47.6825,50,50)"><stop offset="0" style="stop-color:#999;stop-opacity:1"/><stop offset="0.3" style="stop-color:#c27432;stop-opacity:1"/><stop offset="0.54" style="stop-color:#d36507;stop-opacity:1"/><stop offset="0.83" style="stop-color:#d36507;stop-opacity:1"/><stop offset="1" style="stop-color:#a14d05;stop-opacity:1"/></radialGradient><radialGradient id="_Radial10" cx="0" cy="0" r="1" gradientUnits="userSpaceOnUse" gradientTransform="matrix(14.9429,0,0,14.6467,24.3725,24.0748)"><stop offset="0" style="stop-color:#999;stop-opacity:1"/><stop offset="0.4" style="stop-color:#c37330;stop-opacity:1"/><stop offset="0.74" style="stop-color:#d36507;stop-opacity:1"/><stop offset="1" style="stop-color:#a14d05;stop-opacity:1"/></radialGradient><radialGradient id="_Radial11" cx="0" cy="0" r="1" gradientUnits="userSpaceOnUse" gradientTransform="matrix(14.9429,0,0,14.6467,24.3725,24.0748)"><stop offset="0" style="stop-color:#999;stop-opacity:1"/><stop offset="0.4" style="stop-color:#c37330;stop-opacity:1"/><stop offset="0.74" style="stop-color:#d36507;stop-opacity:1"/><stop offset="1" style="stop-color:#a14d05;stop-opacity:1"/></radialGradient><radialGradient id="_Radial12" cx="0" cy="0" r="1" gradientUnits="userSpaceOnUse" gradientTransform="matrix(14.9429,0,0,14.6467,24.3725,24.0748)"><stop offset="0" style="stop-color:#999;stop-opacity:1"/><stop offset="0.4" style="stop-color:#c37330;stop-opacity:1"/><stop offset="0.74" style="stop-color:#d36507;stop-opacity:1"/><stop offset="1" style="stop-color:#a14d05;stop-opacity:1"/></radialGradient><radialGradient id="_Radial13" cx="0" cy="0" r="1" gradientUnits="userSpaceOnUse" gradientTransform="matrix(14.9429,0,0,14.6467,24.3725,24.0748)"><stop offset="0" style="stop-color:#999;stop-opacity:1"/><stop offset="0.4" style="stop-color:#c37330;stop-opacity:1"/><stop offset="0.74" style="stop-color:#d36507;stop-opacity:1"/><stop offset="1" style="stop-color:#a14d05;stop-opacity:1"/></radialGradient><radialGradient id="_Radial14" cx="0" cy="0" r="1" gradientUnits="userSpaceOnUse" gradientTransform="matrix(14.9429,0,0,14.6467,24.3725,75.0817)"><stop offset="0" style="stop-color:#999;stop-opacity:1"/><stop offset="0.41" style="stop-color:#c27431;stop-opacity:1"/><stop offset="0.74" style="stop-color:#d36507;stop-opacity:1"/><stop offset="1" style="stop-color:#a14d05;stop-opacity:1"/></radialGradient><radialGradient id="_Radial15" cx="0" cy="0" r="1" gradientUnits="userSpaceOnUse" gradientTransform="matrix(14.9429,0,0,14.6467,24.3725,75.0817)"><stop offset="0" style="stop-color:#999;stop-opacity:1"/><stop offset="0.41" style="stop-color:#c27431;stop-opacity:1"/><stop offset="0.74" style="stop-color:#d36507;stop-opacity:1"/><stop offset="1" style="stop-color:#a14d05;stop-opacity:1"/></radialGradient><radialGradient id="_Radial16" cx="0" cy="0" r="1" gradientUnits="userSpaceOnUse" gradientTransform="matrix(14.9429,0,0,14.6467,24.3725,75.0817)"><stop offset="0" style="stop-color:#999;stop-opacity:1"/><stop offset="0.41" style="stop-color:#c27431;stop-opacity:1"/><stop offset="0.74" style="stop-color:#d36507;stop-opacity:1"/><stop offset="1" style="stop-color:#a14d05;stop-opacity:1"/></radialGradient><radialGradient id="_Radial17" cx="0" cy="0" r="1" gradientUnits="userSpaceOnUse" gradientTransform="matrix(14.9429,0,0,14.6467,24.3725,75.0817)"><stop offset="0" style="stop-color:#999;stop-opacity:1"/><stop offset="0.41" style="stop-color:#c27431;stop-opacity:1"/><stop offset="0.74" style="stop-color:#d36507;stop-opacity:1"/><stop offset="1" style="stop-color:#a14d05;stop-opacity:1"/></radialGradient><radialGradient id="_Radial18" cx="0" cy="0" r="1" gradientUnits="userSpaceOnUse" gradientTransform="matrix(14.9429,0,0,14.6467,75.3794,24.0748)"><stop offset="0" style="stop-color:#999;stop-opacity:1"/><stop offset="0.39" style="stop-color:#c3732f;stop-opacity:1"/><stop offset="0.74" style="stop-color:#d36507;stop-opacity:1"/><stop offset="1" style="stop-color:#a14d05;stop-opacity:1"/></radialGradient><radialGradient id="_Radial19" cx="0" cy="0" r="1" gradientUnits="userSpaceOnUse" gradientTransform="matrix(14.9429,0,0,14.6467,75.3794,24.0748)"><stop offset="0" style="stop-color:#999;stop-opacity:1"/><stop offset="0.39" style="stop-color:#c3732f;stop-opacity:1"/><stop offset="0.74" style="stop-color:#d36507;stop-opacity:1"/><stop offset="1" style="stop-color:#a14d05;stop-opacity:1"/></radialGradient><radialGradient id="_Radial20" cx="0" cy="0" r="1" gradientUnits="userSpaceOnUse" gradientTransform="matrix(14.9429,0,0,14.6467,75.3794,24.0748)"><stop offset="0" style="stop-color:#999;stop-opacity:1"/><stop offset="0.39" style="stop-color:#c3732f;stop-opacity:1"/><stop offset="0.74" style="stop-color:#d36507;stop-opacity:1"/><stop offset="1" style="stop-color:#a14d05;stop-opacity:1"/></radialGradient><radialGradient id="_Radial21" cx="0" cy="0" r="1" gradientUnits="userSpaceOnUse" gradientTransform="matrix(14.9429,0,0,14.6467,75.3794,24.0748)"><stop offset="0" style="stop-color:#999;stop-opacity:1"/><stop offset="0.39" style="stop-color:#c3732f;stop-opacity:1"/><stop offset="0.74" style="stop-color:#d36507;stop-opacity:1"/><stop offset="1" style="stop-color:#a14d05;stop-opacity:1"/></radialGradient><radialGradient id="_Radial22" cx="0" cy="0" r="1" gradientUnits="userSpaceOnUse" gradientTransform="matrix(14.9429,0,0,14.6467,75.3794,75.0817)"><stop offset="0" style="stop-color:#999;stop-opacity:1"/><stop offset="0.4" style="stop-color:#c37430;stop-opacity:1"/><stop offset="0.74" style="stop-color:#d36507;stop-opacity:1"/><stop offset="1" style="stop-color:#a14d05;stop-opacity:1"/></radialGradient><radialGradient id="_Radial23" cx="0" cy="0" r="1" gradientUnits="userSpaceOnUse" gradientTransform="matrix(14.9429,0,0,14.6467,75.3794,75.0817)"><stop offset="0" style="stop-color:#999;stop-opacity:1"/><stop offset="0.4" style="stop-color:#c37430;stop-opacity:1"/><stop offset="0.74" style="stop-color:#d36507;stop-opacity:1"/><stop offset="1" style="stop-color:#a14d05;stop-opacity:1"/></radialGradient><radialGradient id="_Radial24" cx="0" cy="0" r="1" gradientUnits="userSpaceOnUse" gradientTransform="matrix(14.9429,0,0,14.6467,75.3794,75.0817)"><stop offset="0" style="stop-color:#999;stop-opacity:1"/><stop offset="0.4" style="stop-color:#c37430;stop-opacity:1"/><stop offset="0.74" style="stop-color:#d36507;stop-opacity:1"/><stop offset="1" style="stop-color:#a14d05;stop-opacity:1"/></radialGradient><radialGradient id="_Radial25" cx="0" cy="0" r="1" gradientUnits="userSpaceOnUse" gradientTransform="matrix(14.9429,0,0,14.6467,75.3794,75.0817)"><stop offset="0" style="stop-color:#999;stop-opacity:1"/><stop offset="0.4" style="stop-color:#c37430;stop-opacity:1"/><stop offset="0.74" style="stop-color:#d36507;stop-opacity:1"/><stop offset="1" style="stop-color:#a14d05;stop-opacity:1"/></radialGradient><radialGradient id="_Radial26" cx="0" cy="0" r="1" gradientUnits="userSpaceOnUse" gradientTransform="matrix(6.69149,26.3228,-21.3069,5.4164,59.5495,64.9836)"><stop offset="0" style="stop-color:#4f4f4f;stop-opacity:1"/><stop offset="1" style="stop-color:#999;stop-opacity:1"/></radialGradient><radialGradient id="_Radial27" cx="0" cy="0" r="1" gradientUnits="userSpaceOnUse" gradientTransform="matrix(18.7079,-19.6896,15.9377,15.1431,64.9372,33.5948)"><stop offset="0" style="stop-color:#4f4f4f;stop-opacity:1"/><stop offset="1" style="stop-color:#999;stop-opacity:1"/></radialGradient><radialGradient id="_Radial28" cx="0" cy="0" r="1" gradientUnits="userSpaceOnUse" gradientTransform="matrix(24.4019,-11.9253,9.65286,19.7521,66.9033,49.7876)"><stop offset="0" style="stop-color:#4f4f4f;stop-opacity:1"/><stop offset="1" style="stop-color:#999;stop-opacity:1"/></radialGradient><radialGradient id="_Radial29" cx="0" cy="0" r="1" gradientUnits="userSpaceOnUse" gradientTransform="matrix(19.6478,18.7518,-15.1786,15.9039,68.5781,59.4973)"><stop offset="0" style="stop-color:#4f4f4f;stop-opacity:1"/><stop offset="1" style="stop-color:#999;stop-opacity:1"/></radialGradient><radialGradient id="_Radial30" cx="0" cy="0" r="1" gradientUnits="userSpaceOnUse" gradientTransform="matrix(-25.2669,9.96251,-8.06412,-20.4522,34.6814,63.8475)"><stop offset="0" style="stop-color:#4f4f4f;stop-opacity:1"/><stop offset="1" style="stop-color:#999;stop-opacity:1"/></radialGradient><radialGradient id="_Radial31" cx="0" cy="0" r="1" gradientUnits="userSpaceOnUse" gradientTransform="matrix(-19.8014,-18.5895,15.0472,-16.0282,36.8616,34.5025)"><stop offset="0" style="stop-color:#4f4f4f;stop-opacity:1"/><stop offset="1" style="stop-color:#999;stop-opacity:1"/></radialGradient><radialGradient id="_Radial32" cx="0" cy="0" r="1" gradientUnits="userSpaceOnUse" gradientTransform="matrix(2.12295,-27.0769,21.9173,1.71842,40.3975,35.4715)"><stop offset="0" style="stop-color:#4f4f4f;stop-opacity:1"/><stop offset="1" style="stop-color:#999;stop-opacity:1"/></radialGradient></defs></svg>