<svg width="100px" height="100px" viewBox="0 0 100 100" version="1.1" xmlns="http://www.w3.org/2000/svg" xmlns:xlink="http://www.w3.org/1999/xlink" xml:space="preserve" xmlns:serif="http://www.serif.com/" style="fill-rule:evenodd;clip-rule:evenodd;stroke-linecap:round;stroke-miterlimit:1;"><g><path d="M4.444,6.926l16.596,18.31l0.732,0.859l2.112,50.284l-2.982,2.703l-16.446,14.007c-2.227,-2.764 -3.56,-6.277 -3.56,-10.099l0,-65.98c0,-3.884 1.377,-7.449 3.669,-10.233l-0.121,0.149Z" style="fill:#595959;"/><path d="M23.884,76.379l0.338,-0.306l50.496,-2.121l18.381,21.583c-2.765,2.232 -6.282,3.569 -10.109,3.569l-65.98,0c-4.891,0 -9.277,-2.184 -12.233,-5.629l0.108,0.125l18.999,-17.221Z" style="fill:#8c8c8c;"/><path d="M73.195,24.095l0.792,-0.718l20.603,-17.547c2.795,2.898 4.514,6.84 4.514,11.18l0,65.98c0,4.815 -2.116,9.14 -5.47,12.094l0.162,-0.145l-18.482,-20.39l-2.119,-50.454Z" style="fill:#808080;"/><path d="M82.99,0.896c4.326,0 8.256,1.708 11.152,4.486l-0.148,-0.139l-20.799,18.852l-0.465,0.422l-50.496,2.12l-0.462,-0.542l-16.829,-19.76l-0.127,0.145c2.955,-3.419 7.324,-5.584 12.194,-5.584l65.98,0Z" style="fill:#404040;"/><path d="M77.243,31.157c0,-5.457 -4.431,-9.888 -9.889,-9.888l-40.487,0c-5.458,0 -9.889,4.431 -9.889,9.888l0,40.612c0,5.458 4.431,9.889 9.889,9.889l40.487,0c5.458,0 9.889,-4.431 9.889,-9.889l0,-40.612Z" style="fill:#545454;stroke:#fff;stroke-width:0.17px;"/><g><path d="M0.902,28.813l-0.006,-3.169l7.958,-0.287l-7.952,3.456Z" style="fill:#454545;"/><path d="M67.685,21.465l-11.922,-0.018c0,0 7.928,13.624 11.964,29.102l-0.042,-29.084Z" style="fill:#454545;"/><path d="M99.104,51.511l0,3.007l-9.192,-2.701l9.192,-0.306Z" style="fill:#454545;"/><path d="M32.299,99.096l-3.371,0.008c0,0 -1.79,-5.802 -2.211,-7.821c-0.421,-2.02 -0.145,-6.543 0.123,-5.865c0.543,1.375 5.459,13.678 5.459,13.678Z" style="fill:#454545;"/></g></g></svg>