<svg width="100px" height="100px" viewBox="0 0 100 100" version="1.1" xmlns="http://www.w3.org/2000/svg" xmlns:xlink="http://www.w3.org/1999/xlink" xml:space="preserve" xmlns:serif="http://www.serif.com/" style="fill-rule:evenodd;clip-rule:evenodd;stroke-linecap:round;stroke-miterlimit:1;"><g><path d="M6.545,8.913l15.831,17.465l0.698,0.82l2.015,47.965l-2.845,2.578l-15.687,13.36c-2.124,-2.636 -3.396,-5.987 -3.396,-9.633l0,-62.936c0,-3.705 1.313,-7.106 3.5,-9.761l-0.116,0.142Z" style="fill:#595959;"/><path d="M25.089,75.163l0.322,-0.293l48.167,-2.022l17.533,20.587c-2.637,2.129 -5.993,3.404 -9.643,3.404l-62.936,0c-4.666,0 -8.849,-2.083 -11.669,-5.37l0.103,0.12l18.123,-16.426Z" style="fill:#8c8c8c;"/><path d="M72.126,25.29l0.755,-0.685l19.652,-16.738c2.666,2.765 4.306,6.525 4.306,10.665l0,62.936c0,4.593 -2.019,8.719 -5.217,11.536l0.154,-0.137l-17.629,-19.45l-2.021,-48.127Z" style="fill:#808080;"/><path d="M81.468,3.161c4.126,0 7.875,1.629 10.638,4.279l-0.141,-0.133l-19.839,17.983l-0.445,0.402l-48.166,2.023l-0.441,-0.517l-16.053,-18.849l-0.121,0.139c2.819,-3.262 6.986,-5.327 11.632,-5.327l62.936,0Z" style="fill:#404040;"/><path d="M75.986,32.027c0,-5.206 -4.226,-9.433 -9.432,-9.433l-38.62,0c-5.206,0 -9.433,4.227 -9.433,9.433l0,38.738c0,5.206 4.227,9.433 9.433,9.433l38.62,0c5.206,0 9.432,-4.227 9.432,-9.433l0,-38.738Z" style="fill:#545454;stroke:#fff;stroke-width:0.17px;"/><g><path d="M3.166,29.79l-0.005,-3.023l7.591,-0.274l-7.586,3.297Z" style="fill:#454545;"/><path d="M66.87,22.781l-11.373,-0.017c0,0 7.562,12.995 11.412,27.76l-0.039,-27.743Z" style="fill:#454545;"/><path d="M96.839,51.442l0,2.867l-8.768,-2.575l8.768,-0.292Z" style="fill:#454545;"/><path d="M33.116,96.831l-3.216,0.008c0,0 -1.707,-5.534 -2.109,-7.461c-0.402,-1.926 -0.138,-6.241 0.117,-5.594c0.518,1.312 5.208,13.047 5.208,13.047Z" style="fill:#454545;"/></g></g></svg>