<svg width="100px" height="100px" viewBox="0 0 100 100" version="1.1" xmlns="http://www.w3.org/2000/svg" xmlns:xlink="http://www.w3.org/1999/xlink" xml:space="preserve" xmlns:serif="http://www.serif.com/" style="fill-rule:evenodd;clip-rule:evenodd;stroke-linejoin:round;stroke-miterlimit:1.41421;"><path d="M71.22,1.83l-14.512,11.121c-1.074,1.138 -1.112,1.812 -0.875,2.62c0.241,0.828 1.084,1.885 2.334,2.707c1.251,0.822 2.851,1.389 4.212,1.502c1.197,0.099 2.083,-0.143 2.654,-0.57c0.063,-0.16 0.128,-0.325 0.224,-0.58c0.348,-0.932 0.691,-1.867 1.026,-2.804c0.834,-2.312 1.918,-5.376 2.991,-8.43c0.982,-2.792 1.946,-5.566 1.946,-5.566Z" style="fill:url(#_Radial1);stroke:#000;stroke-width:0.3px;"/><path d="M24.712,98.712l14.084,-11.658c1.03,-1.178 1.042,-1.853 0.776,-2.651c-0.273,-0.819 -1.154,-1.843 -2.435,-2.618c-1.281,-0.774 -2.901,-1.281 -4.265,-1.342c-1.2,-0.054 -2.076,0.221 -2.63,0.669c-0.057,0.162 -0.117,0.329 -0.203,0.588c-0.313,0.945 -0.62,1.891 -0.92,2.84c-0.746,2.343 -1.714,5.445 -2.672,8.537c-0.876,2.827 -1.735,5.635 -1.735,5.635Z" style="fill:url(#_Radial2);stroke:#000;stroke-width:0.3px;"/><path d="M0.916,42.55l16.095,8.673c1.478,0.513 2.109,0.27 2.748,-0.276c0.656,-0.56 1.274,-1.762 1.512,-3.24c0.236,-1.478 0.097,-3.17 -0.358,-4.457c-0.401,-1.132 -0.985,-1.841 -1.609,-2.186c-0.171,0.008 -0.349,0.015 -0.621,0.033c-0.993,0.064 -1.985,0.136 -2.977,0.214c-2.452,0.188 -5.69,0.457 -8.916,0.73c-2.949,0.25 -5.874,0.509 -5.874,0.509Z" style="fill:url(#_Radial3);stroke:#000;stroke-width:0.3px;"/><path d="M98.719,64.913l-14.319,-10.345c-1.344,-0.679 -1.965,-0.528 -2.627,-0.087c-0.679,0.452 -1.388,1.522 -1.766,2.905c-0.378,1.382 -0.422,3.017 -0.125,4.306c0.262,1.134 0.74,1.886 1.294,2.296c0.163,0.014 0.331,0.029 0.59,0.047c0.946,0.065 1.892,0.124 2.839,0.176c2.337,0.132 5.428,0.289 8.506,0.439c2.815,0.137 5.608,0.263 5.608,0.263Z" style="fill:url(#_Radial4);stroke:#000;stroke-width:0.3px;"/><g><path d="M80.7,19.13c-9.869,-10.182 -49.343,-10.194 -59.211,-0.01c-8.682,8.96 -8.683,52.157 0,61.116c9.868,10.182 49.342,10.161 59.211,-0.024c8.677,-8.955 8.677,-52.129 0,-61.082Z" style="fill:url(#_Radial5);"/><path d="M72.23,27.868c-7.046,-7.269 -35.227,-7.278 -42.272,-0.007c-6.199,6.397 -6.199,37.236 0,43.632c7.045,7.269 35.226,7.254 42.272,-0.017c6.195,-6.393 6.195,-37.216 0,-43.608Z" style="fill:#7b2e08;"/><path d="M62.951,37.44c-3.953,-4.078 -19.763,-4.083 -23.716,-0.004c-3.477,3.589 -3.478,20.891 0,24.479c3.953,4.079 19.763,4.07 23.716,-0.009c3.476,-3.587 3.476,-20.88 0,-24.466Z" style="fill:#a73f0b;"/><path d="M55.212,45.424c-1.373,-1.417 -6.866,-1.418 -8.239,-0.001c-1.208,1.247 -1.208,7.257 0,8.504c1.373,1.417 6.866,1.414 8.239,-0.003c1.208,-1.246 1.208,-7.254 0,-8.5Z" style="fill:#b8450d;"/><path d="M86.11,65.135l-0.383,2.253l-5.334,0.287l5.717,-2.54Z"/><path d="M15.415,59.679l-0.437,-9.552c0,0 9.794,4.174 21.93,4.533l-21.493,5.019Z"/><path d="M86.702,38.956l0.15,1.68l-6.012,-1.695l5.862,0.015Z"/><path d="M68.264,13.317l2.22,0.565c0,0 -0.451,4.388 -0.792,5.864c-0.341,1.477 -1.892,4.402 -1.859,3.867c0.067,-1.086 0.431,-10.296 0.431,-10.296Z"/><path d="M56.917,11.68c0,0 1.607,4.022 -0.216,8.861c-0.006,0.015 -0.941,1.271 -1.462,1.274c-1.776,0.013 -10.386,-1.276 -10.386,-1.276c0,0 8.11,-0.645 9.716,-1.667c0.625,-0.397 1.084,-3.351 1.088,-4.402c0.004,-1.051 -1.069,-2.889 -1.069,-2.889l2.329,0.099Z"/></g><path d="M57.845,99.544l8.742,-16.058c0.519,-1.477 0.279,-2.108 -0.265,-2.75c-0.557,-0.658 -1.756,-1.281 -3.233,-1.525c-1.477,-0.243 -3.169,-0.111 -4.458,0.339c-1.135,0.396 -1.845,0.977 -2.194,1.599c0.008,0.172 0.015,0.349 0.031,0.621c0.06,0.994 0.127,1.987 0.201,2.979c0.178,2.452 0.433,5.692 0.692,8.919c0.238,2.95 0.484,5.876 0.484,5.876Z" style="fill:url(#_Radial6);stroke:#000;stroke-width:0.3px;"/><path d="M92.473,7.874l-16.564,7.74c-1.294,0.88 -1.475,1.531 -1.419,2.37c0.058,0.861 0.654,2.074 1.698,3.146c1.045,1.072 2.486,1.97 3.79,2.372c1.148,0.355 2.065,0.309 2.715,0.015c0.096,-0.143 0.195,-0.29 0.344,-0.518c0.54,-0.836 1.075,-1.675 1.605,-2.518c1.311,-2.079 3.029,-4.838 4.734,-7.59c1.559,-2.515 3.097,-5.017 3.097,-5.017Z" style="fill:url(#_Radial7);stroke:#000;stroke-width:0.3px;"/><path d="M99.045,38.704l-18.224,1.474c-1.519,0.374 -1.916,0.92 -2.156,1.726c-0.246,0.827 -0.111,2.172 0.494,3.541c0.605,1.369 1.642,2.713 2.724,3.546c0.952,0.732 1.827,1.009 2.539,0.96c0.139,-0.1 0.284,-0.203 0.503,-0.365c0.798,-0.595 1.592,-1.194 2.382,-1.8c1.955,-1.491 4.527,-3.477 7.085,-5.461c2.339,-1.814 4.653,-3.621 4.653,-3.621Z" style="fill:url(#_Radial8);stroke:#000;stroke-width:0.3px;"/><path d="M93.5,88.275l-10.39,-15.044c-1.084,-1.129 -1.755,-1.2 -2.573,-1.004c-0.839,0.201 -1.936,0.99 -2.82,2.198c-0.883,1.209 -1.528,2.779 -1.708,4.132c-0.158,1.192 0.04,2.088 0.438,2.679c0.157,0.071 0.318,0.145 0.568,0.253c0.914,0.394 1.831,0.782 2.75,1.164c2.269,0.946 5.275,2.18 8.272,3.404c2.74,1.118 5.463,2.218 5.463,2.218Z" style="fill:url(#_Radial9);stroke:#000;stroke-width:0.3px;"/><path d="M3.618,75.777l18.284,-0.032c1.544,-0.252 1.982,-0.765 2.285,-1.55c0.31,-0.805 0.282,-2.157 -0.213,-3.569c-0.495,-1.413 -1.423,-2.834 -2.436,-3.749c-0.891,-0.806 -1.742,-1.151 -2.455,-1.158c-0.147,0.089 -0.299,0.18 -0.53,0.324c-0.843,0.53 -1.682,1.065 -2.517,1.606c-2.066,1.332 -4.787,3.11 -7.494,4.885c-2.475,1.624 -4.924,3.243 -4.924,3.243Z" style="fill:url(#_Radial10);stroke:#000;stroke-width:0.3px;"/><path d="M9.725,17.475l7.839,16.518c0.888,1.288 1.54,1.466 2.379,1.404c0.86,-0.063 2.07,-0.666 3.135,-1.717c1.066,-1.051 1.955,-2.497 2.35,-3.804c0.347,-1.15 0.296,-2.067 -0.002,-2.714c-0.143,-0.096 -0.291,-0.194 -0.52,-0.341c-0.839,-0.536 -1.681,-1.066 -2.527,-1.59c-2.087,-1.299 -4.857,-3 -7.618,-4.689c-2.525,-1.544 -5.036,-3.067 -5.036,-3.067Z" style="fill:url(#_Radial11);stroke:#000;stroke-width:0.3px;"/><path d="M32.988,1.084l-1.857,18.189c0.092,1.562 0.557,2.051 1.307,2.433c0.768,0.392 2.115,0.503 3.571,0.157c1.456,-0.346 2.966,-1.122 3.981,-2.035c0.893,-0.804 1.324,-1.614 1.405,-2.323c-0.073,-0.155 -0.148,-0.316 -0.268,-0.561c-0.439,-0.892 -0.885,-1.782 -1.337,-2.669c-1.111,-2.193 -2.598,-5.083 -4.084,-7.959c-1.36,-2.629 -2.718,-5.232 -2.718,-5.232Z" style="fill:url(#_Radial12);stroke:#000;stroke-width:0.3px;"/><defs><radialGradient id="_Radial1" cx="0" cy="0" r="1" gradientUnits="userSpaceOnUse" gradientTransform="matrix(14.0355,-23.2523,18.8215,11.361,51.4968,30.3097)"><stop offset="0" style="stop-color:#4f4f4f;stop-opacity:1"/><stop offset="1" style="stop-color:#999;stop-opacity:1"/></radialGradient><radialGradient id="_Radial2" cx="0" cy="0" r="1" gradientUnits="userSpaceOnUse" gradientTransform="matrix(-13.1522,23.7631,-19.235,-10.646,43.351,69.5118)"><stop offset="0" style="stop-color:#4f4f4f;stop-opacity:1"/><stop offset="1" style="stop-color:#999;stop-opacity:1"/></radialGradient><radialGradient id="_Radial3" cx="0" cy="0" r="1" gradientUnits="userSpaceOnUse" gradientTransform="matrix(-26.9633,-3.26275,2.64102,-21.8254,34.9795,48.8554)"><stop offset="0" style="stop-color:#4f4f4f;stop-opacity:1"/><stop offset="1" style="stop-color:#999;stop-opacity:1"/></radialGradient><radialGradient id="_Radial4" cx="0" cy="0" r="1" gradientUnits="userSpaceOnUse" gradientTransform="matrix(25.1584,6.55964,-4.76613,20.5281,67.1626,54.5386)"><stop offset="0" style="stop-color:#4f4f4f;stop-opacity:1"/><stop offset="1" style="stop-color:#999;stop-opacity:1"/></radialGradient><radialGradient id="_Radial5" cx="0" cy="0" r="1" gradientUnits="userSpaceOnUse" gradientTransform="matrix(38.1871,0,0,38.1871,51.0924,49.6744)"><stop offset="0" style="stop-color:#7b2e08;stop-opacity:1"/><stop offset="1" style="stop-color:#301203;stop-opacity:1"/></radialGradient><radialGradient id="_Radial6" cx="0" cy="0" r="1" gradientUnits="userSpaceOnUse" gradientTransform="matrix(-3.37732,26.9492,-21.814,-2.73376,64.2956,65.5073)"><stop offset="0" style="stop-color:#4f4f4f;stop-opacity:1"/><stop offset="1" style="stop-color:#999;stop-opacity:1"/></radialGradient><radialGradient id="_Radial7" cx="0" cy="0" r="1" gradientUnits="userSpaceOnUse" gradientTransform="matrix(18.7079,-19.6896,15.9377,15.1431,67.0864,31.4456)"><stop offset="0" style="stop-color:#4f4f4f;stop-opacity:1"/><stop offset="1" style="stop-color:#999;stop-opacity:1"/></radialGradient><radialGradient id="_Radial8" cx="0" cy="0" r="1" gradientUnits="userSpaceOnUse" gradientTransform="matrix(24.4019,-11.9253,9.65286,19.7521,67.0298,51.9367)"><stop offset="0" style="stop-color:#4f4f4f;stop-opacity:1"/><stop offset="1" style="stop-color:#999;stop-opacity:1"/></radialGradient><radialGradient id="_Radial9" cx="0" cy="0" r="1" gradientUnits="userSpaceOnUse" gradientTransform="matrix(22.53,15.168,-12.2777,18.2368,66.0303,67.1682)"><stop offset="0" style="stop-color:#4f4f4f;stop-opacity:1"/><stop offset="1" style="stop-color:#999;stop-opacity:1"/></radialGradient><radialGradient id="_Radial10" cx="0" cy="0" r="1" gradientUnits="userSpaceOnUse" gradientTransform="matrix(-25.2669,9.96251,-8.06412,-20.4522,36.5777,65.1117)"><stop offset="0" style="stop-color:#4f4f4f;stop-opacity:1"/><stop offset="1" style="stop-color:#999;stop-opacity:1"/></radialGradient><radialGradient id="_Radial11" cx="0" cy="0" r="1" gradientUnits="userSpaceOnUse" gradientTransform="matrix(-19.8014,-18.5895,15.0472,-16.0282,33.4482,42.72)"><stop offset="0" style="stop-color:#4f4f4f;stop-opacity:1"/><stop offset="1" style="stop-color:#999;stop-opacity:1"/></radialGradient><radialGradient id="_Radial12" cx="0" cy="0" r="1" gradientUnits="userSpaceOnUse" gradientTransform="matrix(-7.29895,-26.1609,21.1758,-5.90811,40.1919,34.9689)"><stop offset="0" style="stop-color:#4f4f4f;stop-opacity:1"/><stop offset="1" style="stop-color:#999;stop-opacity:1"/></radialGradient></defs></svg>