<svg width="100px" height="100px" viewBox="0 0 100 100" version="1.1" xmlns="http://www.w3.org/2000/svg" xmlns:xlink="http://www.w3.org/1999/xlink" xml:space="preserve" xmlns:serif="http://www.serif.com/" style="fill-rule:evenodd;clip-rule:evenodd;stroke-linecap:round;stroke-miterlimit:1;"><g><g><path d="M6.545,8.913l15.831,17.465l0.698,0.82l2.015,47.965l-2.845,2.578l-15.687,13.36c-2.124,-2.636 -3.396,-5.987 -3.396,-9.633l0,-62.936c0,-3.705 1.313,-7.106 3.5,-9.761l-0.116,0.142Z" style="fill:url(#_Radial1);"/><path d="M25.089,75.163l0.322,-0.293l48.167,-2.022l17.533,20.587c-2.637,2.129 -5.993,3.404 -9.643,3.404l-62.936,0c-4.666,0 -8.849,-2.083 -11.669,-5.37l0.103,0.12l18.123,-16.426Z" style="fill:url(#_Radial2);"/><path d="M72.126,25.29l0.755,-0.685l19.652,-16.738c2.666,2.765 4.306,6.525 4.306,10.665l0,62.936c0,4.593 -2.019,8.719 -5.217,11.536l0.154,-0.137l-17.629,-19.45l-2.021,-48.127Z" style="fill:url(#_Radial3);"/><path d="M81.468,3.161c4.126,0 7.875,1.629 10.638,4.279l-0.141,-0.133l-19.839,17.983l-0.445,0.402l-48.166,2.023l-0.441,-0.517l-16.053,-18.849l-0.121,0.139c2.819,-3.262 6.986,-5.327 11.632,-5.327l62.936,0Z" style="fill:url(#_Radial4);"/><path d="M75.986,32.027c0,-5.206 -4.226,-9.433 -9.432,-9.433l-38.62,0c-5.206,0 -9.433,4.227 -9.433,9.433l0,38.738c0,5.206 4.227,9.433 9.433,9.433l38.62,0c5.206,0 9.432,-4.227 9.432,-9.433l0,-38.738Z" style="fill:url(#_Radial5);stroke:#fff;stroke-width:0.17px;"/></g></g><g><path d="M29.756,5.263c1.299,1.299 2.102,3.092 2.102,5.072l0,14.349c0,1.98 -0.803,3.773 -2.102,5.072l-12.247,-12.247l12.247,-12.246Z" style="fill:url(#_Radial6);stroke:#fff;stroke-width:0.09px;stroke-linejoin:round;stroke-miterlimit:1.5;"/><path d="M17.509,17.509l-12.246,12.247c-1.299,-1.299 -2.102,-3.092 -2.102,-5.072l0,-14.349c0,-1.98 0.803,-3.773 2.102,-5.072l12.246,12.246Z" style="fill:url(#_Radial7);stroke:#fff;stroke-width:0.09px;stroke-linejoin:round;stroke-miterlimit:1.5;"/><path d="M29.756,29.756c-1.299,1.299 -3.092,2.102 -5.072,2.102l-14.349,0c-1.98,0 -3.773,-0.803 -5.072,-2.102l12.246,-12.247l12.247,12.247Z" style="fill:url(#_Radial8);stroke:#fff;stroke-width:0.09px;stroke-linejoin:round;stroke-miterlimit:1.5;"/><path d="M24.684,3.161c1.98,0 3.773,0.803 5.072,2.102l-12.247,12.246l-12.246,-12.246c1.298,-1.299 3.092,-2.102 5.072,-2.102l14.349,0Z" style="fill:url(#_Radial9);stroke:#fff;stroke-width:0.09px;stroke-linejoin:round;stroke-miterlimit:1.5;"/></g><g><path d="M29.756,70.244c1.299,1.299 2.102,3.092 2.102,5.072l0,14.349c0,1.98 -0.803,3.773 -2.102,5.072l-12.247,-12.246l12.247,-12.247Z" style="fill:url(#_Radial10);stroke:#fff;stroke-width:0.09px;stroke-linejoin:round;stroke-miterlimit:1.5;"/><path d="M17.509,82.491l-12.246,12.246c-1.299,-1.299 -2.102,-3.092 -2.102,-5.072l0,-14.349c0,-1.98 0.803,-3.773 2.102,-5.072l12.246,12.247Z" style="fill:url(#_Radial11);stroke:#fff;stroke-width:0.09px;stroke-linejoin:round;stroke-miterlimit:1.5;"/><path d="M29.756,94.737c-1.299,1.299 -3.092,2.102 -5.072,2.102l-14.349,0c-1.98,0 -3.773,-0.803 -5.072,-2.102l12.246,-12.246l12.247,12.246Z" style="fill:url(#_Radial12);stroke:#fff;stroke-width:0.09px;stroke-linejoin:round;stroke-miterlimit:1.5;"/><path d="M24.684,68.142c1.98,0 3.773,0.803 5.072,2.102l-12.247,12.247l-12.246,-12.247c1.298,-1.299 3.092,-2.102 5.072,-2.102l14.349,0Z" style="fill:url(#_Radial13);stroke:#fff;stroke-width:0.09px;stroke-linejoin:round;stroke-miterlimit:1.5;"/></g><g><path d="M94.737,5.263c1.299,1.299 2.102,3.092 2.102,5.072l0,14.349c0,1.98 -0.803,3.773 -2.102,5.072l-12.246,-12.247l12.246,-12.246Z" style="fill:url(#_Radial14);stroke:#fff;stroke-width:0.09px;stroke-linejoin:round;stroke-miterlimit:1.5;"/><path d="M82.491,17.509l-12.247,12.247c-1.299,-1.299 -2.102,-3.092 -2.102,-5.072l0,-14.349c0,-1.98 0.803,-3.773 2.102,-5.072l12.247,12.246Z" style="fill:url(#_Radial15);stroke:#fff;stroke-width:0.09px;stroke-linejoin:round;stroke-miterlimit:1.5;"/><path d="M94.737,29.756c-1.299,1.299 -3.092,2.102 -5.072,2.102l-14.349,0c-1.98,0 -3.773,-0.803 -5.072,-2.102l12.247,-12.247l12.246,12.247Z" style="fill:url(#_Radial16);stroke:#fff;stroke-width:0.09px;stroke-linejoin:round;stroke-miterlimit:1.5;"/><path d="M89.665,3.161c1.98,0 3.774,0.803 5.072,2.102l-12.246,12.246l-12.247,-12.246c1.299,-1.299 3.092,-2.102 5.072,-2.102l14.349,0Z" style="fill:url(#_Radial17);stroke:#fff;stroke-width:0.09px;stroke-linejoin:round;stroke-miterlimit:1.5;"/></g><g><path d="M94.737,70.244c1.299,1.299 2.102,3.092 2.102,5.072l0,14.349c0,1.98 -0.803,3.773 -2.102,5.072l-12.246,-12.246l12.246,-12.247Z" style="fill:url(#_Radial18);stroke:#fff;stroke-width:0.09px;stroke-linejoin:round;stroke-miterlimit:1.5;"/><path d="M82.491,82.491l-12.247,12.246c-1.299,-1.299 -2.102,-3.092 -2.102,-5.072l0,-14.349c0,-1.98 0.803,-3.773 2.102,-5.072l12.247,12.247Z" style="fill:url(#_Radial19);stroke:#fff;stroke-width:0.09px;stroke-linejoin:round;stroke-miterlimit:1.5;"/><path d="M94.737,94.737c-1.299,1.299 -3.092,2.102 -5.072,2.102l-14.349,0c-1.98,0 -3.773,-0.803 -5.072,-2.102l12.247,-12.246l12.246,12.246Z" style="fill:url(#_Radial20);stroke:#fff;stroke-width:0.09px;stroke-linejoin:round;stroke-miterlimit:1.5;"/><path d="M89.665,68.142c1.98,0 3.774,0.803 5.072,2.102l-12.246,12.247l-12.247,-12.247c1.299,-1.299 3.092,-2.102 5.072,-2.102l14.349,0Z" style="fill:url(#_Radial21);stroke:#fff;stroke-width:0.09px;stroke-linejoin:round;stroke-miterlimit:1.5;"/></g><g><path d="M3.166,29.79l-0.005,-3.023l7.591,-0.274l-7.586,3.297Z" style="fill:#8a6b50;"/><path d="M66.87,22.781l-11.373,-0.017c0,0 7.562,12.995 11.412,27.76l-0.039,-27.743Z" style="fill:#8a6b50;"/><path d="M96.839,51.442l0,2.867l-8.768,-2.575l8.768,-0.292Z" style="fill:#8a6b50;"/><path d="M33.116,96.831l-3.216,0.008c0,0 -1.707,-5.534 -2.109,-7.461c-0.402,-1.926 -0.138,-6.241 0.117,-5.594c0.518,1.312 5.208,13.047 5.208,13.047Z" style="fill:#8a6b50;"/></g><defs><radialGradient id="_Radial1" cx="0" cy="0" r="1" gradientUnits="userSpaceOnUse" gradientTransform="matrix(56.7952,0,0,60.7459,50,50)"><stop offset="0" style="stop-color:#999;stop-opacity:1"/><stop offset="0.54" style="stop-color:#d36507;stop-opacity:1"/><stop offset="0.83" style="stop-color:#d36507;stop-opacity:1"/><stop offset="1" style="stop-color:#a14d05;stop-opacity:1"/></radialGradient><radialGradient id="_Radial2" cx="0" cy="0" r="1" gradientUnits="userSpaceOnUse" gradientTransform="matrix(56.7952,0,0,60.7459,50,50)"><stop offset="0" style="stop-color:#999;stop-opacity:1"/><stop offset="0.54" style="stop-color:#d36507;stop-opacity:1"/><stop offset="0.83" style="stop-color:#d36507;stop-opacity:1"/><stop offset="1" style="stop-color:#a14d05;stop-opacity:1"/></radialGradient><radialGradient id="_Radial3" cx="0" cy="0" r="1" gradientUnits="userSpaceOnUse" gradientTransform="matrix(56.7952,0,0,60.7459,50,50)"><stop offset="0" style="stop-color:#999;stop-opacity:1"/><stop offset="0.54" style="stop-color:#d36507;stop-opacity:1"/><stop offset="0.83" style="stop-color:#d36507;stop-opacity:1"/><stop offset="1" style="stop-color:#a14d05;stop-opacity:1"/></radialGradient><radialGradient id="_Radial4" cx="0" cy="0" r="1" gradientUnits="userSpaceOnUse" gradientTransform="matrix(56.7952,0,0,60.7459,50,50)"><stop offset="0" style="stop-color:#999;stop-opacity:1"/><stop offset="0.54" style="stop-color:#d36507;stop-opacity:1"/><stop offset="0.83" style="stop-color:#d36507;stop-opacity:1"/><stop offset="1" style="stop-color:#a14d05;stop-opacity:1"/></radialGradient><radialGradient id="_Radial5" cx="0" cy="0" r="1" gradientUnits="userSpaceOnUse" gradientTransform="matrix(56.7952,0,0,60.7459,50,50)"><stop offset="0" style="stop-color:#999;stop-opacity:1"/><stop offset="0.54" style="stop-color:#d36507;stop-opacity:1"/><stop offset="0.83" style="stop-color:#d36507;stop-opacity:1"/><stop offset="1" style="stop-color:#a14d05;stop-opacity:1"/></radialGradient><radialGradient id="_Radial6" cx="0" cy="0" r="1" gradientUnits="userSpaceOnUse" gradientTransform="matrix(19.0368,0,0,18.6593,17.3514,16.9722)"><stop offset="0" style="stop-color:#999;stop-opacity:1"/><stop offset="0.74" style="stop-color:#d36507;stop-opacity:1"/><stop offset="1" style="stop-color:#a14d05;stop-opacity:1"/></radialGradient><radialGradient id="_Radial7" cx="0" cy="0" r="1" gradientUnits="userSpaceOnUse" gradientTransform="matrix(19.0368,0,0,18.6593,17.3514,16.9722)"><stop offset="0" style="stop-color:#999;stop-opacity:1"/><stop offset="0.74" style="stop-color:#d36507;stop-opacity:1"/><stop offset="1" style="stop-color:#a14d05;stop-opacity:1"/></radialGradient><radialGradient id="_Radial8" cx="0" cy="0" r="1" gradientUnits="userSpaceOnUse" gradientTransform="matrix(19.0368,0,0,18.6593,17.3514,16.9722)"><stop offset="0" style="stop-color:#999;stop-opacity:1"/><stop offset="0.74" style="stop-color:#d36507;stop-opacity:1"/><stop offset="1" style="stop-color:#a14d05;stop-opacity:1"/></radialGradient><radialGradient id="_Radial9" cx="0" cy="0" r="1" gradientUnits="userSpaceOnUse" gradientTransform="matrix(19.0368,0,0,18.6593,17.3514,16.9722)"><stop offset="0" style="stop-color:#999;stop-opacity:1"/><stop offset="0.74" style="stop-color:#d36507;stop-opacity:1"/><stop offset="1" style="stop-color:#a14d05;stop-opacity:1"/></radialGradient><radialGradient id="_Radial10" cx="0" cy="0" r="1" gradientUnits="userSpaceOnUse" gradientTransform="matrix(19.0368,0,0,18.6593,17.3514,81.9532)"><stop offset="0" style="stop-color:#999;stop-opacity:1"/><stop offset="0.74" style="stop-color:#d36507;stop-opacity:1"/><stop offset="1" style="stop-color:#a14d05;stop-opacity:1"/></radialGradient><radialGradient id="_Radial11" cx="0" cy="0" r="1" gradientUnits="userSpaceOnUse" gradientTransform="matrix(19.0368,0,0,18.6593,17.3514,81.9532)"><stop offset="0" style="stop-color:#999;stop-opacity:1"/><stop offset="0.74" style="stop-color:#d36507;stop-opacity:1"/><stop offset="1" style="stop-color:#a14d05;stop-opacity:1"/></radialGradient><radialGradient id="_Radial12" cx="0" cy="0" r="1" gradientUnits="userSpaceOnUse" gradientTransform="matrix(19.0368,0,0,18.6593,17.3514,81.9532)"><stop offset="0" style="stop-color:#999;stop-opacity:1"/><stop offset="0.74" style="stop-color:#d36507;stop-opacity:1"/><stop offset="1" style="stop-color:#a14d05;stop-opacity:1"/></radialGradient><radialGradient id="_Radial13" cx="0" cy="0" r="1" gradientUnits="userSpaceOnUse" gradientTransform="matrix(19.0368,0,0,18.6593,17.3514,81.9532)"><stop offset="0" style="stop-color:#999;stop-opacity:1"/><stop offset="0.74" style="stop-color:#d36507;stop-opacity:1"/><stop offset="1" style="stop-color:#a14d05;stop-opacity:1"/></radialGradient><radialGradient id="_Radial14" cx="0" cy="0" r="1" gradientUnits="userSpaceOnUse" gradientTransform="matrix(19.0368,0,0,18.6593,82.3325,16.9722)"><stop offset="0" style="stop-color:#999;stop-opacity:1"/><stop offset="0.74" style="stop-color:#d36507;stop-opacity:1"/><stop offset="1" style="stop-color:#a14d05;stop-opacity:1"/></radialGradient><radialGradient id="_Radial15" cx="0" cy="0" r="1" gradientUnits="userSpaceOnUse" gradientTransform="matrix(19.0368,0,0,18.6593,82.3325,16.9722)"><stop offset="0" style="stop-color:#999;stop-opacity:1"/><stop offset="0.74" style="stop-color:#d36507;stop-opacity:1"/><stop offset="1" style="stop-color:#a14d05;stop-opacity:1"/></radialGradient><radialGradient id="_Radial16" cx="0" cy="0" r="1" gradientUnits="userSpaceOnUse" gradientTransform="matrix(19.0368,0,0,18.6593,82.3325,16.9722)"><stop offset="0" style="stop-color:#999;stop-opacity:1"/><stop offset="0.74" style="stop-color:#d36507;stop-opacity:1"/><stop offset="1" style="stop-color:#a14d05;stop-opacity:1"/></radialGradient><radialGradient id="_Radial17" cx="0" cy="0" r="1" gradientUnits="userSpaceOnUse" gradientTransform="matrix(19.0368,0,0,18.6593,82.3325,16.9722)"><stop offset="0" style="stop-color:#999;stop-opacity:1"/><stop offset="0.74" style="stop-color:#d36507;stop-opacity:1"/><stop offset="1" style="stop-color:#a14d05;stop-opacity:1"/></radialGradient><radialGradient id="_Radial18" cx="0" cy="0" r="1" gradientUnits="userSpaceOnUse" gradientTransform="matrix(19.0368,0,0,18.6593,82.3325,81.9532)"><stop offset="0" style="stop-color:#999;stop-opacity:1"/><stop offset="0.74" style="stop-color:#d36507;stop-opacity:1"/><stop offset="1" style="stop-color:#a14d05;stop-opacity:1"/></radialGradient><radialGradient id="_Radial19" cx="0" cy="0" r="1" gradientUnits="userSpaceOnUse" gradientTransform="matrix(19.0368,0,0,18.6593,82.3325,81.9532)"><stop offset="0" style="stop-color:#999;stop-opacity:1"/><stop offset="0.74" style="stop-color:#d36507;stop-opacity:1"/><stop offset="1" style="stop-color:#a14d05;stop-opacity:1"/></radialGradient><radialGradient id="_Radial20" cx="0" cy="0" r="1" gradientUnits="userSpaceOnUse" gradientTransform="matrix(19.0368,0,0,18.6593,82.3325,81.9532)"><stop offset="0" style="stop-color:#999;stop-opacity:1"/><stop offset="0.74" style="stop-color:#d36507;stop-opacity:1"/><stop offset="1" style="stop-color:#a14d05;stop-opacity:1"/></radialGradient><radialGradient id="_Radial21" cx="0" cy="0" r="1" gradientUnits="userSpaceOnUse" gradientTransform="matrix(19.0368,0,0,18.6593,82.3325,81.9532)"><stop offset="0" style="stop-color:#999;stop-opacity:1"/><stop offset="0.74" style="stop-color:#d36507;stop-opacity:1"/><stop offset="1" style="stop-color:#a14d05;stop-opacity:1"/></radialGradient></defs></svg>