<svg width="100%" height="100%" viewBox="0 0 100 100" version="1.1" xmlns="http://www.w3.org/2000/svg" xmlns:xlink="http://www.w3.org/1999/xlink" xml:space="preserve" style="fill-rule:evenodd;clip-rule:evenodd;stroke-linecap:round;stroke-linejoin:round;stroke-miterlimit:1.5;"><path d="M99.75,25.265c0,-1.851 -1.502,-3.353 -3.353,-3.353l-92.794,0c-1.851,0 -3.353,1.502 -3.353,3.353l0,49.47c0,1.851 1.502,3.353 3.353,3.353l92.794,0c1.851,0 3.353,-1.502 3.353,-3.353l0,-49.47Z" style="fill:#74391d;stroke:#4b1400;stroke-width:0.52px;"/><path d="M66.022,35.279c0,-5.17 -4.197,-9.367 -9.367,-9.367l-43.038,0c-5.17,0 -9.367,4.197 -9.367,9.367l0,18.734c0,5.17 4.197,9.367 9.367,9.367l43.038,0c5.17,0 9.367,-4.197 9.367,-9.367l0,-18.734Z" style="fill:#d8d3ba;fill-opacity:0.772549;"/><g><path d="M86.505,49.353c-0.664,-0.065 -1.333,-0.065 -1.997,0l-0.301,1.578c-0.635,0.096 -1.259,0.263 -1.857,0.498l-1.049,-1.216c-0.608,0.275 -1.188,0.61 -1.73,0.998l0.529,1.517c-0.503,0.401 -0.959,0.857 -1.36,1.36l-1.516,-0.529c-0.389,0.542 -0.724,1.122 -0.999,1.73l1.216,1.048c-0.235,0.599 -0.402,1.222 -0.498,1.858l-1.577,0.3c-0.066,0.665 -0.066,1.334 0,1.998l1.577,0.3c0.096,0.636 0.263,1.259 0.498,1.858l-1.216,1.049c0.275,0.608 0.61,1.187 0.999,1.73l1.516,-0.529c0.401,0.502 0.857,0.958 1.36,1.36l-0.529,1.516c0.542,0.389 1.122,0.723 1.73,0.999l1.049,-1.216c0.598,0.234 1.222,0.401 1.857,0.498l0.301,1.577c0.664,0.065 1.333,0.065 1.997,0l0.3,-1.577c0.636,-0.097 1.259,-0.264 1.858,-0.498l1.049,1.216c0.608,-0.276 1.187,-0.61 1.73,-0.999l-0.529,-1.516c0.502,-0.402 0.959,-0.858 1.36,-1.36l1.516,0.529c0.389,-0.543 0.723,-1.122 0.999,-1.73l-1.216,-1.049c0.234,-0.599 0.401,-1.222 0.498,-1.858l1.577,-0.3c0.066,-0.664 0.066,-1.333 0,-1.998l-1.577,-0.3c-0.097,-0.636 -0.264,-1.259 -0.498,-1.858l1.216,-1.048c-0.276,-0.608 -0.61,-1.188 -0.999,-1.73l-1.516,0.529c-0.401,-0.503 -0.858,-0.959 -1.36,-1.36l0.529,-1.517c-0.543,-0.388 -1.122,-0.723 -1.73,-0.998l-1.049,1.216c-0.599,-0.235 -1.222,-0.402 -1.858,-0.498l-0.3,-1.578Zm-0.999,8.103c1.125,0 2.038,0.913 2.038,2.038c0,1.125 -0.913,2.038 -2.038,2.038c-1.124,0 -2.038,-0.913 -2.038,-2.038c0,-1.125 0.914,-2.038 2.038,-2.038Z" style="fill:url(#_Linear1);"/><path d="M89.033,30.82c-0.626,-0.231 -1.273,-0.4 -1.933,-0.504l-0.688,1.45c-0.64,-0.067 -1.285,-0.063 -1.924,0.013l-0.707,-1.441c-0.658,0.113 -1.303,0.29 -1.926,0.529l0.128,1.601c-0.587,0.261 -1.144,0.588 -1.659,0.972l-1.333,-0.894c-0.514,0.427 -0.984,0.903 -1.404,1.422l0.912,1.321c-0.378,0.521 -0.697,1.081 -0.951,1.672l-1.602,-0.108c-0.231,0.627 -0.4,1.274 -0.504,1.933l1.45,0.689c-0.067,0.64 -0.063,1.285 0.013,1.923l-1.441,0.708c0.113,0.658 0.29,1.303 0.529,1.926l1.601,-0.129c0.261,0.588 0.588,1.144 0.972,1.66l-0.894,1.333c0.427,0.513 0.903,0.983 1.422,1.403l1.321,-0.911c0.521,0.378 1.081,0.696 1.672,0.95l-0.108,1.602c0.627,0.231 1.274,0.4 1.933,0.505l0.689,-1.451c0.64,0.067 1.285,0.063 1.923,-0.012l0.708,1.441c0.658,-0.113 1.303,-0.29 1.926,-0.53l-0.129,-1.6c0.588,-0.262 1.144,-0.588 1.66,-0.973l1.333,0.895c0.513,-0.427 0.983,-0.903 1.403,-1.422l-0.911,-1.322c0.378,-0.52 0.696,-1.081 0.95,-1.672l1.602,0.108c0.231,-0.626 0.4,-1.273 0.505,-1.933l-1.451,-0.688c0.067,-0.64 0.063,-1.285 -0.012,-1.924l1.441,-0.707c-0.113,-0.658 -0.29,-1.303 -0.53,-1.926l-1.6,0.128c-0.262,-0.587 -0.588,-1.144 -0.973,-1.659l0.895,-1.333c-0.427,-0.514 -0.903,-0.984 -1.422,-1.404l-1.322,0.912c-0.52,-0.378 -1.081,-0.697 -1.672,-0.951l0.108,-1.602Zm-3.012,7.588c1.088,0.284 1.741,1.399 1.457,2.487c-0.284,1.088 -1.398,1.741 -2.486,1.457c-1.089,-0.284 -1.742,-1.398 -1.458,-2.486c0.284,-1.089 1.399,-1.742 2.487,-1.458Z" style="fill:url(#_Linear2);"/></g><path d="M96.456,28.892c0,-1.519 -1.234,-2.753 -2.753,-2.753l-5.507,0c-1.519,0 -2.753,1.234 -2.753,2.753l0,42.216c0,1.519 1.234,2.753 2.753,2.753l5.507,0c1.519,0 2.753,-1.234 2.753,-2.753l0,-42.216Z" style="fill:#d8d3ba;"/><path d="M72.234,41.847c0.471,-0.493 0.452,-1.276 -0.041,-1.747l-1.788,-1.705c-0.493,-0.471 -1.276,-0.452 -1.747,0.041l-28.107,29.464c-0.471,0.493 -0.452,1.276 0.041,1.747l1.788,1.705c0.493,0.471 1.276,0.452 1.746,-0.041l28.108,-29.464Z" style="fill-opacity:0.678431;stroke:#000;stroke-width:0.22px;"/><path d="M25.568,42.675l-21.214,8.031l9.695,25.609l11.519,-33.64Zm-6.051,5.943l-5.986,17.481l-5.038,-13.307l11.024,-4.174Z" style="fill-opacity:0.678431;stroke:#000;stroke-width:0.22px;"/><defs><linearGradient id="_Linear1" x1="0" y1="0" x2="1" y2="0" gradientUnits="userSpaceOnUse" gradientTransform="matrix(4.4557,0,0,4.4557,83.4548,49.4598)"><stop offset="0" style="stop-color:#353431;stop-opacity:1"/><stop offset="1" style="stop-color:#7a7871;stop-opacity:1"/></linearGradient><linearGradient id="_Linear2" x1="0" y1="0" x2="1" y2="0" gradientUnits="userSpaceOnUse" gradientTransform="matrix(4.4557,0,0,4.4557,83.4548,49.4598)"><stop offset="0" style="stop-color:#353431;stop-opacity:1"/><stop offset="1" style="stop-color:#7a7871;stop-opacity:1"/></linearGradient></defs></svg>