<svg width="100px" height="100px" viewBox="0 0 100 100" version="1.1" xmlns="http://www.w3.org/2000/svg" xmlns:xlink="http://www.w3.org/1999/xlink" xml:space="preserve" style="fill-rule:evenodd;clip-rule:evenodd;stroke-linejoin:round;stroke-miterlimit:1.41421;"><g><path d="M99.508,36.065l-3.138,-14.923l-13.064,1.279l-38.941,-2.121l-19.85,5.502l-14.831,-4.98l-8.314,9.7l1.479,13.913l-2.357,23.847l5.781,4.131l-1.172,5.97l14.624,1.317l36.778,-2.219l15.353,-4.748l14.008,4.264l9.69,-4.573l3.954,-9.071l-1.812,-10.932l1.812,-16.356Z" style="fill:#74391d;stroke:#3b1d0f;stroke-width:1px;"/><path d="M92.655,37.994l-2.703,-12.858l-11.256,1.102l-33.551,-1.827l-17.103,4.741l-12.777,-4.291l-7.164,8.357l1.274,11.987l-2.03,20.546l4.981,3.56l-1.01,5.143l12.599,1.135l31.688,-1.912l13.228,-4.09l12.069,3.673l8.348,-3.94l3.407,-7.815l-1.561,-9.419l1.561,-14.092Z" style="fill:#3e3e3e;stroke:#6b6b6b;stroke-width:0.79px;"/><g><path d="M64.279,41.407l10.848,-6.393l0.835,-0.292l1.146,-0.973l1.518,-0.805l0.442,-0.392l0.554,-0.053l0.62,-0.267l0.51,-0.26c0,0 0.596,-0.099 0.59,-0.099c-0.007,0.002 1.975,-1.4 1.975,-1.4l0.959,0.437c0,0 0.309,0.355 0.301,0.355c-0.006,0.001 0.684,0.338 0.684,0.338l1.189,1.601c0,0 1.1,1.018 1.093,1.019c-0.006,0 3.883,2.447 3.883,2.447l0.371,2.102l-0.683,0.589l-0.69,0.546l-1.234,1.418c0,0 -1.685,3.412 -1.685,3.402c-0.002,-0.008 -0.837,2.063 -0.837,2.063l-1.443,0.574l-2.982,-0.922l-2.995,-0.151l-1.708,-0.87l-2.189,-0.054l-0.661,0.191l-0.737,-0.28l-0.501,0.559l-7.95,-1.91l-2.145,-0.7l0.005,-0.9c0,0 0.91,-0.894 0.917,-0.92l0,0Z" style="fill:#6e6e6e;fill-rule:nonzero;"/><path d="M83.302,29.855c-0.425,0.138 -1.027,0.564 -1.003,0.712c0.009,0.062 -0.09,0.14 -0.218,0.169c-1.276,0.271 -2.584,1.04 -2.271,1.334c0.034,0.039 -0.246,0.083 -0.619,0.104c-0.374,0.022 -0.777,0.121 -0.895,0.211c-0.117,0.1 -0.363,0.219 -0.541,0.282c-0.554,0.167 -1.008,0.598 -1.164,1.099c-0.11,0.322 -0.199,0.417 -0.29,0.287c-0.1,-0.146 -0.255,-0.113 -0.625,0.152c-0.27,0.185 -0.688,0.412 -0.926,0.494c-0.237,0.09 -0.498,0.248 -0.572,0.35c-0.074,0.11 -0.564,0.357 -1.09,0.564c-0.526,0.199 -0.944,0.426 -0.931,0.505c0.012,0.078 -0.099,0.123 -0.243,0.1c-0.144,-0.031 -0.608,0.212 -1.026,0.528c-0.416,0.316 -0.853,0.555 -0.971,0.511c-0.117,-0.035 -0.24,0.029 -0.271,0.141c-0.032,0.104 -0.229,0.224 -0.44,0.258c-0.211,0.032 -0.559,0.212 -0.773,0.407c-0.219,0.196 -0.676,0.438 -1.017,0.535c-0.341,0.099 -0.773,0.319 -0.955,0.49c-0.183,0.165 -0.444,0.321 -0.594,0.345c-0.143,0.022 -0.316,0.166 -0.387,0.33c-0.072,0.155 -0.264,0.31 -0.435,0.338c-0.17,0.025 -0.361,0.182 -0.434,0.336c-0.073,0.155 -0.196,0.301 -0.279,0.313c-0.251,0.04 -1.327,0.998 -1.301,1.155c0.012,0.079 -0.053,0.278 -0.139,0.445c-0.211,0.374 -0.103,1.049 0.207,1.289c0.105,0.083 0.282,0.146 0.42,0.23c0.171,0.103 0.327,0.179 0.502,0.337c0.227,0.199 0.407,0.314 0.396,0.245c-0.011,-0.071 0.158,-0.016 0.374,0.112c0.357,0.223 0.404,0.215 0.587,-0.083c0.25,-0.407 0.37,-0.435 0.425,-0.093c0.024,0.15 0.165,0.244 0.315,0.221c0.15,-0.023 0.274,0.057 0.273,0.182c0.002,0.144 0.15,0.193 0.441,0.13c0.241,-0.055 0.414,-0.028 0.392,0.056c-0.08,0.282 0.447,0.524 1.094,0.513c0.376,-0.013 0.748,0.091 0.876,0.232c0.199,0.239 0.154,0.167 0.389,-0.025c0.03,-0.025 0.323,0.115 0.461,0.102c0.098,-0.006 0.296,0.015 0.528,0.025c0.232,0.009 0.665,-0.005 1.015,-0.042c0,0 0.426,-0.09 0.641,-0.055c0.246,0.042 0.274,0.21 0.716,0.303c0.658,0.141 1.051,0.026 0.98,-0.288c-0.029,-0.138 0.42,-0.344 0.458,-0.107c0.032,0.202 0.126,0.394 0.211,0.444c0.084,0.05 0.135,-0.029 0.112,-0.17c-0.053,-0.333 2.881,-0.061 2.579,0.147c-0.137,0.103 0.072,0.187 0.629,0.262c0.463,0.063 0.954,0.203 1.092,0.325c0.298,0.242 0.468,0.26 1.278,0.089c0.507,-0.105 1.303,0.328 1.555,0.289c0.191,-0.03 0.463,0.188 0.621,-0.178c0.085,-0.202 1.44,0.577 1.685,0.539c0.082,-0.013 0.161,0.047 0.175,0.134c0.013,0.079 0.188,0.169 0.379,0.184c0.204,0.013 0.341,-0.053 0.322,-0.167c-0.014,-0.133 0.013,-0.137 0.104,-0.007c0.135,0.186 0.84,0.103 1.061,-0.129c0.067,-0.064 0.282,-0.206 0.483,-0.3c0.227,-0.107 0.402,-0.368 0.45,-0.681c0.363,-2.133 3.128,-6.779 4.014,-6.746c0.991,0.043 1.441,-2.724 0.578,-3.534c-0.188,-0.177 -0.391,-0.263 -0.456,-0.189c-0.065,0.072 -0.422,-0.15 -0.792,-0.498c-0.369,-0.347 -0.728,-0.624 -0.803,-0.612c-0.294,0.045 -1.786,-0.685 -1.986,-0.968c-0.117,-0.171 -0.264,-0.301 -0.325,-0.291c-0.457,0.071 -1.473,-1.129 -1.885,-2.215c-0.051,-0.146 -0.429,-0.411 -0.834,-0.59c-0.408,-0.188 -0.799,-0.497 -0.865,-0.684c-0.095,-0.246 -0.223,-0.307 -0.462,-0.233l0,0Zm-0.857,1.455c-0.364,0.116 -0.877,0.481 -0.857,0.608c0.008,0.053 -0.076,0.12 -0.186,0.145c-1.089,0.23 -2.207,0.887 -1.94,1.138c0.029,0.033 -0.209,0.071 -0.528,0.09c-0.319,0.019 -0.664,0.102 -0.765,0.18c-0.099,0.085 -0.31,0.186 -0.462,0.241c-0.472,0.142 -0.861,0.51 -0.994,0.937c-0.093,0.276 -0.17,0.357 -0.247,0.246c-0.086,-0.125 -0.218,-0.097 -0.535,0.129c-0.231,0.159 -0.587,0.352 -0.79,0.422c-0.203,0.078 -0.426,0.213 -0.489,0.299c-0.063,0.094 -0.482,0.305 -0.931,0.483c-0.45,0.169 -0.807,0.363 -0.796,0.431c0.011,0.067 -0.083,0.105 -0.206,0.086c-0.123,-0.027 -0.52,0.18 -0.876,0.451c-0.356,0.27 -0.729,0.473 -0.83,0.436c-0.101,-0.03 -0.205,0.024 -0.232,0.12c-0.028,0.089 -0.195,0.192 -0.376,0.22c-0.181,0.028 -0.477,0.182 -0.66,0.348c-0.187,0.167 -0.578,0.374 -0.868,0.458c-0.292,0.083 -0.66,0.271 -0.816,0.418c-0.157,0.14 -0.38,0.274 -0.508,0.294c-0.122,0.019 -0.269,0.141 -0.33,0.282c-0.062,0.132 -0.226,0.265 -0.372,0.288c-0.145,0.023 -0.309,0.156 -0.371,0.288c-0.062,0.132 -0.168,0.256 -0.237,0.268c-0.216,0.033 -1.134,0.851 -1.112,0.987c0.011,0.067 -0.045,0.237 -0.118,0.379c-0.181,0.32 -0.089,0.897 0.177,1.101c0.089,0.07 0.24,0.124 0.357,0.196c0.146,0.089 0.28,0.153 0.43,0.288c0.194,0.169 0.347,0.268 0.338,0.209c-0.01,-0.06 0.134,-0.014 0.319,0.096c0.305,0.19 0.345,0.184 0.502,-0.07c0.212,-0.348 0.316,-0.371 0.363,-0.08c0.02,0.127 0.14,0.209 0.269,0.189c0.127,-0.02 0.234,0.047 0.233,0.155c0.002,0.123 0.128,0.165 0.376,0.111c0.207,-0.047 0.354,-0.024 0.335,0.047c-0.069,0.242 0.382,0.448 0.935,0.439c0.32,-0.012 0.639,0.077 0.748,0.198c0.17,0.205 0.131,0.143 0.332,-0.022c0.026,-0.021 0.276,0.099 0.394,0.088c0.083,-0.005 0.253,0.013 0.451,0.021c0.197,0.007 0.569,-0.004 0.868,-0.036c0,0 0.362,-0.077 0.547,-0.046c0.21,0.034 0.234,0.178 0.611,0.257c0.562,0.121 0.899,0.023 0.837,-0.244c-0.025,-0.119 0.358,-0.294 0.391,-0.092c0.028,0.173 0.108,0.336 0.18,0.379c0.072,0.042 0.116,-0.025 0.096,-0.145c-0.046,-0.285 2.461,-0.053 2.203,0.126c-0.117,0.087 0.062,0.159 0.537,0.224c0.396,0.053 0.815,0.172 0.933,0.277c0.254,0.206 0.399,0.222 1.092,0.076c0.432,-0.091 1.112,0.28 1.327,0.247c0.164,-0.026 0.396,0.16 0.531,-0.152c0.074,-0.172 1.229,0.492 1.439,0.46c0.071,-0.011 0.137,0.04 0.15,0.115c0.011,0.067 0.16,0.143 0.323,0.157c0.175,0.011 0.292,-0.046 0.276,-0.143c-0.013,-0.113 0.011,-0.117 0.088,-0.006c0.115,0.159 0.718,0.088 0.907,-0.11c0.057,-0.055 0.241,-0.176 0.412,-0.256c0.194,-0.092 0.343,-0.315 0.384,-0.582c0.309,-1.822 2.673,-5.791 3.429,-5.762c0.847,0.036 1.231,-2.326 0.494,-3.018c-0.162,-0.152 -0.335,-0.225 -0.39,-0.163c-0.056,0.063 -0.361,-0.128 -0.677,-0.424c-0.315,-0.296 -0.622,-0.533 -0.685,-0.523c-0.251,0.039 -1.526,-0.585 -1.696,-0.827c-0.101,-0.146 -0.226,-0.257 -0.278,-0.249c-0.39,0.061 -1.259,-0.964 -1.61,-1.892c-0.043,-0.124 -0.366,-0.35 -0.712,-0.503c-0.349,-0.161 -0.683,-0.424 -0.738,-0.585c-0.083,-0.21 -0.192,-0.262 -0.396,-0.198l0,0Z"/></g><g><path d="M36.367,49.151l-2.981,12.234l-0.373,0.802l-0.102,1.5l-0.481,1.649l-0.027,0.591l-0.349,0.434l-0.241,0.631l-0.169,0.546c0,0 -0.345,0.497 -0.341,0.492c0.004,-0.006 -0.373,2.392 -0.373,2.392l-0.982,0.383c0,0 -0.47,-0.026 -0.465,-0.032c0.004,-0.005 -0.718,0.255 -0.718,0.255l-1.977,-0.264c0,0 -1.497,0.078 -1.493,0.073c0.004,-0.005 -4.461,1.077 -4.461,1.077l-1.766,-1.2l0.055,-0.901l0.089,-0.875l-0.156,-1.873c0,0 -1.271,-3.586 -1.263,-3.581c0.007,0.005 -0.895,-2.037 -0.895,-2.037l0.594,-1.435l2.741,-1.495l2.196,-2.041l1.815,-0.618l1.565,-1.531l0.323,-0.607l0.715,-0.333l-0.051,-0.749l6.912,-4.367l1.998,-1.049l0.642,0.631c0,0 0.006,1.275 0.019,1.298l0,0Z" style="fill:#343434;fill-rule:nonzero;"/><path d="M31.384,70.842c0.197,-0.401 0.311,-1.129 0.188,-1.215c-0.05,-0.037 -0.038,-0.162 0.031,-0.274c0.696,-1.104 1.056,-2.577 0.628,-2.558c-0.051,-0.003 0.112,-0.234 0.356,-0.516c0.245,-0.284 0.456,-0.642 0.473,-0.789c0.01,-0.153 0.097,-0.413 0.175,-0.585c0.267,-0.513 0.275,-1.139 0.025,-1.6c-0.155,-0.303 -0.16,-0.434 -0.004,-0.408c0.174,0.03 0.259,-0.104 0.327,-0.554c0.056,-0.323 0.184,-0.78 0.292,-1.008c0.1,-0.233 0.168,-0.53 0.148,-0.655c-0.028,-0.129 0.137,-0.653 0.355,-1.174c0.224,-0.516 0.353,-0.973 0.288,-1.019c-0.065,-0.046 -0.019,-0.157 0.097,-0.245c0.122,-0.081 0.272,-0.583 0.336,-1.103c0.064,-0.519 0.198,-0.998 0.312,-1.053c0.107,-0.059 0.147,-0.191 0.088,-0.292c-0.052,-0.096 -0.002,-0.32 0.122,-0.495c0.124,-0.174 0.238,-0.549 0.247,-0.838c0.012,-0.294 0.158,-0.79 0.326,-1.102c0.166,-0.313 0.309,-0.776 0.314,-1.026c0.01,-0.246 0.08,-0.542 0.167,-0.666c0.084,-0.119 0.101,-0.343 0.033,-0.508c-0.06,-0.16 -0.038,-0.406 0.061,-0.547c0.101,-0.14 0.122,-0.386 0.063,-0.546c-0.061,-0.161 -0.08,-0.35 -0.031,-0.418c0.147,-0.208 0.21,-1.647 0.08,-1.739c-0.066,-0.046 -0.162,-0.231 -0.222,-0.409c-0.121,-0.413 -0.681,-0.806 -1.069,-0.75c-0.132,0.017 -0.301,0.1 -0.457,0.14c-0.193,0.051 -0.356,0.11 -0.592,0.125c-0.301,0.025 -0.509,0.073 -0.451,0.113c0.058,0.041 -0.099,0.125 -0.342,0.19c-0.409,0.1 -0.436,0.14 -0.35,0.479c0.118,0.462 0.054,0.568 -0.229,0.369c-0.124,-0.087 -0.29,-0.052 -0.379,0.072c-0.087,0.123 -0.231,0.157 -0.32,0.068c-0.105,-0.098 -0.243,-0.026 -0.401,0.226c-0.129,0.211 -0.268,0.316 -0.313,0.242c-0.146,-0.254 -0.687,-0.045 -1.131,0.427c-0.252,0.278 -0.587,0.472 -0.777,0.465c-0.31,-0.023 -0.227,-0.006 -0.253,0.297c-0.003,0.039 -0.308,0.151 -0.395,0.26c-0.064,0.073 -0.217,0.201 -0.385,0.361c-0.169,0.159 -0.461,0.48 -0.679,0.756c0,0 -0.232,0.368 -0.407,0.498c-0.201,0.147 -0.342,0.051 -0.717,0.302c-0.559,0.373 -0.751,0.735 -0.477,0.903c0.12,0.076 -0.046,0.541 -0.242,0.403c-0.167,-0.118 -0.37,-0.185 -0.465,-0.158c-0.095,0.025 -0.073,0.117 0.043,0.198c0.277,0.195 -1.965,2.109 -1.904,1.747c0.022,-0.17 -0.184,-0.08 -0.626,0.267c-0.368,0.289 -0.811,0.543 -0.994,0.557c-0.381,0.045 -0.513,0.154 -0.956,0.854c-0.277,0.436 -1.143,0.705 -1.291,0.913c-0.111,0.158 -0.457,0.2 -0.305,0.569c0.085,0.202 -1.418,0.63 -1.561,0.832c-0.048,0.068 -0.146,0.083 -0.219,0.032c-0.065,-0.046 -0.252,0.017 -0.395,0.143c-0.152,0.138 -0.2,0.282 -0.106,0.348c0.106,0.082 0.089,0.104 -0.067,0.079c-0.227,-0.033 -0.659,0.531 -0.648,0.851c0,0.092 -0.048,0.345 -0.121,0.555c-0.082,0.237 -0.017,0.544 0.175,0.797c1.276,1.748 2.678,6.97 2.036,7.582c-0.722,0.68 0.948,2.932 2.13,2.878c0.258,-0.012 0.461,-0.097 0.454,-0.195c-0.007,-0.097 0.402,-0.198 0.909,-0.22c0.506,-0.023 0.955,-0.088 0.998,-0.15c0.173,-0.241 1.737,-0.802 2.079,-0.747c0.204,0.035 0.4,0.019 0.435,-0.031c0.268,-0.377 1.836,-0.268 2.902,0.194c0.14,0.065 0.594,-0.022 1.005,-0.187c0.419,-0.161 0.913,-0.226 1.093,-0.142c0.243,0.103 0.376,0.053 0.49,-0.17l0,0Zm-0.445,-1.628c0.169,-0.342 0.266,-0.965 0.161,-1.039c-0.044,-0.031 -0.033,-0.137 0.026,-0.234c0.594,-0.941 0.903,-2.201 0.537,-2.184c-0.044,-0.002 0.094,-0.199 0.303,-0.442c0.21,-0.241 0.39,-0.546 0.404,-0.673c0.009,-0.131 0.084,-0.352 0.15,-0.499c0.227,-0.438 0.235,-0.973 0.022,-1.367c-0.133,-0.258 -0.138,-0.37 -0.005,-0.348c0.15,0.026 0.222,-0.089 0.281,-0.473c0.047,-0.277 0.157,-0.667 0.248,-0.861c0.086,-0.2 0.145,-0.454 0.127,-0.559c-0.024,-0.111 0.117,-0.558 0.303,-1.004c0.192,-0.44 0.302,-0.831 0.246,-0.871c-0.056,-0.039 -0.017,-0.133 0.082,-0.208c0.106,-0.069 0.234,-0.498 0.288,-0.942c0.054,-0.444 0.169,-0.853 0.266,-0.899c0.092,-0.052 0.126,-0.164 0.076,-0.25c-0.045,-0.082 -0.002,-0.274 0.104,-0.423c0.106,-0.149 0.203,-0.469 0.211,-0.716c0.011,-0.251 0.135,-0.675 0.277,-0.942c0.144,-0.267 0.266,-0.662 0.269,-0.876c0.009,-0.21 0.069,-0.463 0.144,-0.569c0.071,-0.1 0.086,-0.291 0.028,-0.433c-0.052,-0.137 -0.033,-0.347 0.053,-0.467c0.085,-0.12 0.103,-0.33 0.052,-0.467c-0.052,-0.137 -0.067,-0.299 -0.027,-0.357c0.127,-0.178 0.18,-1.406 0.068,-1.485c-0.056,-0.039 -0.138,-0.198 -0.189,-0.349c-0.103,-0.353 -0.581,-0.689 -0.913,-0.641c-0.112,0.015 -0.257,0.086 -0.39,0.119c-0.165,0.043 -0.305,0.094 -0.506,0.108c-0.256,0.021 -0.434,0.061 -0.385,0.096c0.05,0.035 -0.084,0.106 -0.292,0.162c-0.349,0.086 -0.372,0.119 -0.299,0.408c0.101,0.396 0.046,0.486 -0.196,0.317c-0.106,-0.075 -0.248,-0.046 -0.323,0.06c-0.074,0.105 -0.197,0.135 -0.274,0.059c-0.089,-0.084 -0.207,-0.023 -0.341,0.193c-0.111,0.181 -0.23,0.27 -0.268,0.207c-0.125,-0.218 -0.587,-0.038 -0.966,0.364c-0.215,0.238 -0.501,0.405 -0.664,0.398c-0.265,-0.021 -0.194,-0.006 -0.216,0.254c-0.003,0.033 -0.263,0.129 -0.338,0.221c-0.053,0.062 -0.185,0.172 -0.329,0.309c-0.143,0.135 -0.394,0.41 -0.579,0.646c0,0 -0.198,0.314 -0.349,0.424c-0.171,0.127 -0.291,0.044 -0.61,0.259c-0.479,0.319 -0.643,0.628 -0.409,0.771c0.102,0.064 -0.039,0.461 -0.207,0.343c-0.143,-0.1 -0.316,-0.157 -0.397,-0.135c-0.08,0.023 -0.062,0.101 0.037,0.171c0.237,0.166 -1.677,1.8 -1.626,1.491c0.019,-0.145 -0.158,-0.067 -0.535,0.229c-0.315,0.246 -0.692,0.463 -0.849,0.476c-0.325,0.037 -0.438,0.13 -0.816,0.729c-0.237,0.373 -0.977,0.602 -1.103,0.779c-0.095,0.135 -0.39,0.172 -0.261,0.487c0.072,0.173 -1.21,0.537 -1.333,0.71c-0.041,0.059 -0.124,0.071 -0.187,0.027c-0.056,-0.038 -0.214,0.015 -0.338,0.123c-0.13,0.117 -0.17,0.24 -0.09,0.297c0.09,0.07 0.076,0.089 -0.057,0.067c-0.194,-0.028 -0.564,0.453 -0.553,0.727c0,0.079 -0.042,0.295 -0.104,0.474c-0.07,0.203 -0.014,0.465 0.149,0.681c1.09,1.492 2.288,5.954 1.739,6.476c-0.616,0.582 0.809,2.504 1.82,2.458c0.221,-0.01 0.394,-0.083 0.388,-0.166c-0.006,-0.083 0.343,-0.169 0.776,-0.189c0.432,-0.02 0.816,-0.075 0.853,-0.127c0.147,-0.207 1.483,-0.686 1.775,-0.639c0.175,0.029 0.342,0.017 0.372,-0.026c0.228,-0.321 1.569,-0.23 2.479,0.166c0.119,0.055 0.506,-0.018 0.857,-0.16c0.359,-0.137 0.78,-0.194 0.934,-0.121c0.208,0.087 0.321,0.045 0.419,-0.145l0,0Z"/></g></g></svg>