<svg width="100px" height="100px" viewBox="0 0 100 100" version="1.1" xmlns="http://www.w3.org/2000/svg" xmlns:xlink="http://www.w3.org/1999/xlink" xml:space="preserve" xmlns:serif="http://www.serif.com/" style="fill-rule:evenodd;clip-rule:evenodd;stroke-linejoin:round;stroke-miterlimit:1.41421;"><g><path d="M93.571,66.488c11.455,14.164 -84.681,43.797 -65.961,16.571c3.641,-5.296 51.69,-34.216 65.961,-16.571Z" style="fill:#575757;"/><path d="M2.454,45.73c-0.766,-15.811 56.125,18.428 26.169,24.551c-5.827,1.19 -25.214,-4.853 -26.169,-24.551Z" style="fill:#575757;"/><path d="M53.78,23.415c-4.445,-5.927 13.631,-13.959 25.634,-14.219c13.644,-0.296 21.169,8.249 9.798,19.88c-2.488,2.545 -8.457,2.557 -16.99,1.269c-5.72,-0.863 -13.693,-0.598 -18.442,-6.93Z" style="fill:#575757;"/><path d="M34.983,43.49c-6.191,10.919 -34.691,-29.919 -12.023,-21.317c4.409,1.673 19.737,7.714 12.023,21.317Z" style="fill:#575757;"/><path d="M45.577,39.285c2.079,-6.786 20.16,0.553 25.237,7.935c3.903,5.674 -2.658,11.539 -13.084,10.026c-4.667,-0.678 -16.734,-3.009 -12.153,-17.961Z" style="fill:#575757;"/></g></svg>