<svg width="100px" height="100px" viewBox="0 0 100 100" version="1.1" xmlns="http://www.w3.org/2000/svg"  xml:space="preserve"  style="fill-rule:evenodd;clip-rule:evenodd;"><g><path d="M86.184,31.713c0.144,0.435 0.347,0.794 1.012,1.257c1.189,0.83 3.916,1.312 3.916,1.312c0,0 0.086,-2.424 -0.341,-3.661c-0.172,-0.501 -0.505,-0.995 -0.857,-1.37c0.279,-0.03 0.592,-0.13 1.007,-0.352c1.279,-0.685 2.943,-2.897 2.943,-2.897c0,0 -2.122,-1.174 -3.418,-1.356c-0.301,-0.041 -0.899,0.118 -1.425,0.334c0.291,-0.403 0.591,-0.81 0.601,-1.152c0.043,-1.45 -1.044,-3.996 -1.044,-3.996c0,0 -2.077,1.255 -2.879,2.288c-0.183,0.237 -0.308,1.408 -0.308,1.408c-1.349,-1.704 -4.144,-2.036 -4.144,-2.036c0,0 -0.145,1.824 0.044,2.714c0.106,0.497 0.718,1.449 0.718,1.449c0,0 -1.212,-0.119 -1.791,0.023c-0.811,0.198 -2.405,1.411 -2.405,1.411c0,0 1.055,1.752 2.304,2.135c1.071,0.328 1.725,-0.146 2.181,-0.171c-0.32,0.317 -1.054,1.026 -1.265,1.824c-0.372,1.403 -0.214,3.018 -0.214,3.018c0,0 2.424,-0.097 3.624,-0.615c0.685,-0.294 1.332,-0.903 1.657,-1.415c0.03,-0.048 0.057,-0.098 0.084,-0.152Z" style="fill:#efa5e3;fill-rule:nonzero;stroke:#fff;stroke-width:1.36px;"/><path d="M93.444,62.044c0.378,-0.26 0.666,-0.554 0.926,-1.322c0.466,-1.373 0.17,-4.126 0.17,-4.126c0,0 -2.353,0.592 -3.422,1.346c-0.433,0.305 -0.815,0.762 -1.077,1.205c-0.106,-0.26 -0.29,-0.532 -0.618,-0.869c-1.014,-1.038 -3.602,-2.021 -3.602,-2.021c0,0 -0.538,2.365 -0.351,3.661c0.044,0.3 0.363,0.83 0.718,1.275c-0.469,-0.166 -0.943,-0.341 -1.275,-0.256c-1.405,0.362 -3.547,2.115 -3.547,2.115c0,0 1.784,1.645 3,2.129c0.278,0.109 1.437,-0.097 1.437,-0.097c-1.261,1.77 -0.802,4.547 -0.802,4.547c0,0 1.793,-0.368 2.595,-0.798c0.448,-0.239 1.191,-1.092 1.191,-1.092c0,0 0.224,1.196 0.522,1.713c0.415,0.724 2.024,1.917 2.024,1.917c0,0 1.389,-1.5 1.409,-2.807c0.017,-1.12 -0.62,-1.616 -0.771,-2.047c0.393,0.219 1.278,0.726 2.104,0.707c1.451,-0.033 2.958,-0.635 2.958,-0.635c0,0 -0.768,-2.301 -1.599,-3.309c-0.473,-0.576 -1.238,-1.028 -1.821,-1.197c-0.054,-0.016 -0.11,-0.028 -0.169,-0.039Z" style="fill:#efa5e3;fill-rule:nonzero;stroke:#fff;stroke-width:1.36px;"/><path d="M52.65,18.084c0.171,-0.426 0.247,-0.831 0.039,-1.614c-0.373,-1.401 -2.144,-3.529 -2.144,-3.529c0,0 -1.631,1.795 -2.104,3.016c-0.192,0.493 -0.256,1.086 -0.229,1.599c-0.232,-0.157 -0.536,-0.282 -0.996,-0.381c-1.419,-0.303 -4.118,0.313 -4.118,0.313c0,0 0.862,2.267 1.735,3.242c0.203,0.226 0.763,0.49 1.304,0.665c-0.482,0.12 -0.974,0.237 -1.203,0.492c-0.969,1.079 -1.781,3.726 -1.781,3.726c0,0 2.396,0.381 3.676,0.111c0.292,-0.063 1.143,-0.877 1.143,-0.877c-0.07,2.172 1.851,4.23 1.851,4.23c0,0 1.288,-1.3 1.718,-2.102c0.24,-0.447 0.387,-1.569 0.387,-1.569c0,0 0.849,0.873 1.383,1.138c0.747,0.372 2.747,0.475 2.747,0.475c0,0 0.326,-2.019 -0.381,-3.118c-0.606,-0.942 -1.412,-1.002 -1.776,-1.277c0.449,-0.036 1.467,-0.104 2.143,-0.577c1.19,-0.831 2.112,-2.167 2.112,-2.167c0,0 -1.914,-1.491 -3.165,-1.87c-0.713,-0.217 -1.6,-0.169 -2.179,0.012c-0.053,0.017 -0.107,0.038 -0.162,0.062Z" style="fill:#efa5e3;fill-rule:nonzero;stroke:#fff;stroke-width:1.36px;"/><path d="M28.322,39.966c0.171,-0.425 0.247,-0.83 0.039,-1.613c-0.373,-1.401 -2.144,-3.529 -2.144,-3.529c0,0 -1.631,1.795 -2.103,3.015c-0.192,0.494 -0.257,1.087 -0.23,1.6c-0.232,-0.157 -0.536,-0.282 -0.996,-0.381c-1.419,-0.303 -4.118,0.313 -4.118,0.313c0,0 0.862,2.266 1.735,3.242c0.203,0.226 0.763,0.49 1.304,0.665c-0.482,0.12 -0.974,0.237 -1.203,0.492c-0.969,1.079 -1.781,3.726 -1.781,3.726c0,0 2.396,0.381 3.676,0.111c0.292,-0.063 1.143,-0.877 1.143,-0.877c-0.07,2.172 1.851,4.23 1.851,4.23c0,0 1.289,-1.3 1.718,-2.102c0.24,-0.447 0.387,-1.569 0.387,-1.569c0,0 0.849,0.872 1.383,1.138c0.747,0.372 2.747,0.475 2.747,0.475c0,0 0.326,-2.019 -0.381,-3.118c-0.606,-0.942 -1.412,-1.002 -1.776,-1.278c0.449,-0.035 1.467,-0.103 2.143,-0.576c1.19,-0.831 2.112,-2.167 2.112,-2.167c0,0 -1.914,-1.491 -3.165,-1.87c-0.713,-0.217 -1.6,-0.169 -2.179,0.012c-0.053,0.017 -0.107,0.038 -0.162,0.061Z" style="fill:#efa5e3;fill-rule:nonzero;stroke:#fff;stroke-width:1.36px;"/><path d="M69.445,43.09c0.171,-0.425 0.247,-0.83 0.039,-1.613c-0.374,-1.402 -2.145,-3.53 -2.145,-3.53c0,0 -1.63,1.796 -2.103,3.016c-0.192,0.494 -0.257,1.086 -0.229,1.6c-0.233,-0.157 -0.536,-0.282 -0.997,-0.381c-1.419,-0.303 -4.118,0.312 -4.118,0.312c0,0 0.863,2.267 1.736,3.242c0.203,0.226 0.763,0.491 1.304,0.665c-0.483,0.121 -0.974,0.238 -1.203,0.492c-0.969,1.08 -1.782,3.726 -1.782,3.726c0,0 2.396,0.382 3.676,0.111c0.292,-0.063 1.144,-0.876 1.144,-0.876c-0.07,2.171 1.85,4.23 1.85,4.23c0,0 1.289,-1.3 1.719,-2.102c0.24,-0.448 0.387,-1.569 0.387,-1.569c0,0 0.849,0.872 1.383,1.137c0.747,0.373 2.747,0.475 2.747,0.475c0,0 0.326,-2.018 -0.381,-3.117c-0.607,-0.943 -1.412,-1.002 -1.777,-1.278c0.449,-0.035 1.467,-0.103 2.144,-0.576c1.189,-0.832 2.111,-2.167 2.111,-2.167c0,0 -1.914,-1.491 -3.164,-1.87c-0.713,-0.217 -1.6,-0.17 -2.179,0.012c-0.054,0.017 -0.107,0.038 -0.162,0.061Z" style="fill:#efa5e3;fill-rule:nonzero;stroke:#fff;stroke-width:1.36px;"/><path d="M48.325,62.251c-0.109,0.445 -0.126,0.857 0.191,1.602c0.569,1.335 2.625,3.189 2.625,3.189c0,0 1.358,-2.009 1.653,-3.284c0.119,-0.516 0.099,-1.112 -0.001,-1.616c0.253,0.122 0.571,0.203 1.041,0.235c1.447,0.099 4.031,-0.894 4.031,-0.894c0,0 -1.176,-2.121 -2.179,-2.963c-0.232,-0.194 -0.824,-0.377 -1.385,-0.472c0.461,-0.188 0.93,-0.374 1.121,-0.659c0.806,-1.206 1.234,-3.941 1.234,-3.941c0,0 -2.426,-0.037 -3.655,0.413c-0.28,0.104 -1.007,1.03 -1.007,1.03c-0.24,-2.159 -2.433,-3.924 -2.433,-3.924c0,0 -1.091,1.47 -1.402,2.325c-0.174,0.477 -0.16,1.608 -0.16,1.608c0,0 -0.965,-0.743 -1.531,-0.929c-0.793,-0.263 -2.787,-0.08 -2.787,-0.08c0,0 -0.035,2.045 0.821,3.032c0.734,0.846 1.54,0.791 1.94,1.012c-0.44,0.099 -1.438,0.311 -2.04,0.875c-1.059,0.992 -1.782,2.445 -1.782,2.445c0,0 2.106,1.204 3.398,1.401c0.737,0.114 1.608,-0.059 2.155,-0.321c0.051,-0.025 0.101,-0.053 0.152,-0.084Z" style="fill:#efa5e3;fill-rule:nonzero;stroke:#fff;stroke-width:1.36px;"/><path d="M37.755,84.126c0.111,0.445 0.286,0.818 0.914,1.33c1.124,0.917 3.806,1.603 3.806,1.603c0,0 0.269,-2.41 -0.063,-3.676c-0.134,-0.512 -0.429,-1.031 -0.752,-1.431c0.281,-0.009 0.6,-0.085 1.031,-0.275c1.327,-0.586 3.154,-2.666 3.154,-2.666c0,0 -2.028,-1.331 -3.307,-1.61c-0.296,-0.064 -0.905,0.049 -1.446,0.225c0.321,-0.38 0.65,-0.763 0.687,-1.104c0.152,-1.442 -0.74,-4.063 -0.74,-4.063c0,0 -2.165,1.095 -3.044,2.065c-0.2,0.222 -0.413,1.38 -0.413,1.38c-1.216,-1.8 -3.978,-2.343 -3.978,-2.343c0,0 -0.283,1.808 -0.161,2.71c0.068,0.503 0.606,1.499 0.606,1.499c0,0 -1.199,-0.21 -1.788,-0.112c-0.823,0.136 -2.504,1.225 -2.504,1.225c0,0 0.919,1.826 2.136,2.303c1.044,0.408 1.731,-0.016 2.188,-0.006c-0.343,0.292 -1.128,0.943 -1.399,1.723c-0.476,1.371 -0.441,2.993 -0.441,2.993c0,0 2.424,0.087 3.66,-0.339c0.705,-0.242 1.396,-0.8 1.758,-1.286c0.034,-0.045 0.065,-0.094 0.096,-0.145Z" style="fill:#efa5e3;fill-rule:nonzero;stroke:#fff;stroke-width:1.36px;"/><path d="M8.756,78.543c-0.045,0.456 -0.004,0.866 0.416,1.558c0.752,1.241 3.049,2.785 3.049,2.785c0,0 1.061,-2.181 1.171,-3.485c0.046,-0.528 -0.059,-1.115 -0.229,-1.6c0.267,0.086 0.594,0.121 1.063,0.086c1.447,-0.108 3.865,-1.457 3.865,-1.457c0,0 -1.465,-1.933 -2.577,-2.624c-0.258,-0.16 -0.87,-0.256 -1.438,-0.271c0.429,-0.252 0.868,-0.502 1.016,-0.811c0.627,-1.308 0.663,-4.076 0.663,-4.076c0,0 -2.407,0.307 -3.559,0.926c-0.263,0.143 -0.851,1.163 -0.851,1.163c-0.544,-2.104 -2.965,-3.54 -2.965,-3.54c0,0 -0.872,1.61 -1.059,2.501c-0.105,0.496 0.07,1.614 0.07,1.614c0,0 -1.06,-0.599 -1.647,-0.703c-0.822,-0.148 -2.77,0.316 -2.77,0.316c0,0 0.255,2.029 1.242,2.885c0.847,0.734 1.636,0.565 2.064,0.727c-0.421,0.16 -1.379,0.511 -1.896,1.155c-0.907,1.133 -1.417,2.673 -1.417,2.673c0,0 2.256,0.893 3.563,0.906c0.744,0.007 1.583,-0.287 2.087,-0.624c0.047,-0.031 0.092,-0.067 0.139,-0.104Z" style="fill:#efa5e3;fill-rule:nonzero;stroke:#fff;stroke-width:1.36px;"/><path d="M66.127,81.258c-0.169,0.426 -0.244,0.831 -0.033,1.613c0.378,1.401 2.157,3.522 2.157,3.522c0,0 1.624,-1.801 2.092,-3.023c0.191,-0.494 0.253,-1.087 0.224,-1.601c0.233,0.157 0.537,0.281 0.998,0.378c1.42,0.298 4.117,-0.327 4.117,-0.327c0,0 -0.871,-2.264 -1.747,-3.236c-0.204,-0.225 -0.765,-0.488 -1.307,-0.66c0.483,-0.123 0.973,-0.241 1.202,-0.497c0.965,-1.083 1.768,-3.732 1.768,-3.732c0,0 -2.397,-0.373 -3.676,-0.098c-0.292,0.064 -1.141,0.881 -1.141,0.881c0.062,-2.172 -1.865,-4.224 -1.865,-4.224c0,0 -1.284,1.305 -1.711,2.108c-0.239,0.449 -0.382,1.571 -0.382,1.571c0,0 -0.852,-0.87 -1.387,-1.133c-0.748,-0.37 -2.748,-0.465 -2.748,-0.465c0,0 -0.319,2.02 0.392,3.116c0.609,0.94 1.415,0.997 1.781,1.271c-0.449,0.037 -1.467,0.109 -2.142,0.584c-1.186,0.836 -2.104,2.175 -2.104,2.175c0,0 1.919,1.484 3.172,1.858c0.713,0.215 1.6,0.165 2.178,-0.019c0.054,-0.017 0.107,-0.038 0.162,-0.062Z" style="fill:#efa5e3;fill-rule:nonzero;stroke:#fff;stroke-width:1.36px;"/></g></svg>