<svg width="100px" height="100px" viewBox="0 0 100 100" version="1.1" xmlns="http://www.w3.org/2000/svg"  xml:space="preserve"  style="fill-rule:evenodd;clip-rule:evenodd;stroke-linejoin:round;stroke-miterlimit:1.41421;"><path d="M22.329,31.976c40.509,-4.862 45.075,101.327 21.638,14.723c-4.538,-16.769 -78.892,-7.851 -21.638,-14.723Z" style="fill:#0e3f11;"/><path d="M37.682,56.063c18.006,-8.272 27.923,51.988 10.898,5.511c-3.297,-8.999 -36.346,6.181 -10.898,-5.511Z" style="fill:#0e3f11;"/><path d="M77.675,23.286c-40.316,6.27 -16.006,109.74 -16.853,20.025c-0.164,-17.372 73.833,-28.886 16.853,-20.025Z" style="fill:#0e3f11;"/><path d="M74.759,44.457c-27.114,1.242 -18.49,71.422 -12.588,12.029c1.143,-11.501 50.909,-13.785 12.588,-12.029Z" style="fill:#0e3f11;"/><path d="M57.736,25.739c-24.011,12.656 13.642,72.504 -6.276,16.24c-3.857,-10.894 40.212,-34.128 6.276,-16.24Z" style="fill:#0e3f11;"/></svg>