<svg width="100px" height="100px" viewBox="0 0 100 100" version="1.1" xmlns="http://www.w3.org/2000/svg" xmlns:xlink="http://www.w3.org/1999/xlink" xml:space="preserve" xmlns:serif="http://www.serif.com/" style="fill-rule:evenodd;clip-rule:evenodd;stroke-linejoin:round;stroke-miterlimit:1.41421;"><g><path d="M36.354,84.154c3.979,5.126 -30.47,14.996 -23.609,5.433c1.334,-1.861 18.652,-11.818 23.609,-5.433Z" style="fill:#656565;"/><path d="M65.526,9.38c3.919,2.019 -14.479,17.964 -12.991,10.108c0.29,-1.529 8.108,-12.623 12.991,-10.108Z" style="fill:#656565;"/><path d="M97.492,53.027c1.821,3.422 -19.458,5.728 -14.448,0.797c0.975,-0.959 12.18,-5.059 14.448,-0.797Z" style="fill:#656565;"/><path d="M61.066,45.387c2.582,-0.468 2.261,6.532 0.44,10.376c-2.069,4.37 -5.97,5.399 -7.852,-0.048c-0.411,-1.192 0.531,-3.085 2.292,-5.584c1.181,-1.675 2.361,-4.243 5.12,-4.744Z" style="fill:#656565;"/><path d="M71.879,8.301c-0.121,1.779 -4.678,0.401 -6.907,-1.438c-2.534,-2.091 -2.562,-4.831 1.339,-5.164c0.854,-0.073 1.944,0.863 3.296,2.439c0.907,1.057 2.402,2.262 2.272,4.163Z" style="fill:#656565;"/><path d="M73.991,92.232c-0.681,-1.452 3.503,-2.357 6.058,-1.883c2.904,0.539 4.121,2.681 1.199,4.644c-0.639,0.43 -1.904,0.169 -3.655,-0.48c-1.174,-0.435 -2.875,-0.73 -3.602,-2.281Z" style="fill:#656565;"/><path d="M60.032,75.279c-0.686,2.533 -6.869,-0.764 -9.558,-4.06c-3.057,-3.746 -2.31,-7.71 3.416,-7.069c1.254,0.14 2.558,1.804 4.058,4.468c1.006,1.786 2.818,3.954 2.084,6.661Z" style="fill:#656565;"/><path d="M42.924,80.926c-1.765,1.487 -4.58,-3.993 -4.873,-7.72c-0.332,-4.238 2.193,-6.728 6.009,-3.397c0.836,0.729 0.944,2.585 0.694,5.261c-0.167,1.793 0.055,4.268 -1.83,5.856Z" style="fill:#656565;"/><path d="M8.241,36.818c-2.019,0.19 -1.309,-5.179 0.346,-8.019c1.882,-3.228 4.954,-3.763 6.043,0.555c0.238,0.946 -0.612,2.341 -2.133,4.149c-1.02,1.212 -2.098,3.111 -4.256,3.315Z" style="fill:#656565;"/><path d="M88.648,39.39c-0.42,-0.865 0.953,-1.554 2.656,-1.859c1.072,-0.191 2.274,-0.23 3.241,-0.065c2.846,0.487 4.066,2.565 1.237,4.524c-0.619,0.429 -1.86,0.191 -3.581,-0.419c-1.154,-0.409 -2.821,-0.675 -3.553,-2.181Z" style="fill:#656565;"/><path d="M91.803,88.167c1.604,0.009 0.623,4.176 -0.902,6.28c-1.734,2.39 -4.192,2.57 -4.709,-0.912c-0.113,-0.762 0.666,-1.793 2.004,-3.095c0.897,-0.873 1.895,-2.282 3.607,-2.273Z" style="fill:#656565;"/><path d="M31.458,42.011c-1.992,-1.708 3.642,-5.875 7.773,-6.888c4.696,-1.151 7.955,1.226 4.916,6.122c-0.665,1.072 -2.728,1.535 -5.778,1.745c-2.045,0.141 -4.781,0.846 -6.911,-0.979Z" style="fill:#656565;"/><path d="M72.005,49.86c-2.464,0.906 -3.352,-6.045 -2.221,-10.145c1.287,-4.661 4.952,-6.346 7.743,-1.305c0.611,1.104 0.008,3.131 -1.296,5.895c-0.874,1.854 -1.595,4.587 -4.226,5.555Z" style="fill:#656565;"/><path d="M48.449,23.229c1.53,1.528 -3.795,5.518 -7.473,6.557c-4.181,1.181 -6.731,-0.933 -3.565,-5.533c0.693,-1.006 2.526,-1.485 5.181,-1.756c1.781,-0.182 4.221,-0.901 5.857,0.732Z" style="fill:#656565;"/><path d="M3.151,75.675c-0.155,-5.437 19.153,6.716 8.821,8.613c-2.01,0.37 -8.628,-1.84 -8.821,-8.613Z" style="fill:#656565;"/><path d="M61.739,23.766c4.976,2.196 -14.292,14.412 -11.567,4.266c0.53,-1.974 5.368,-7.001 11.567,-4.266Z" style="fill:#656565;"/><path d="M70.852,14.526c4.345,-3.272 5.607,19.507 -1.92,12.179c-1.464,-1.426 -3.492,-8.102 1.92,-12.179Z" style="fill:#656565;"/><path d="M20.288,40.842c-4.052,-1.904 13.935,-13.672 10.457,-4.231c-0.676,1.837 -5.41,6.603 -10.457,4.231Z" style="fill:#656565;"/><path d="M79.267,85.176c-4.12,3.55 -6.873,-19.098 1.118,-12.278c1.554,1.326 4.016,7.855 -1.118,12.278Z" style="fill:#656565;"/><path d="M51.865,97.71c-4.755,0.501 4.598,-17.24 6.956,-8.311c0.459,1.737 -1.032,7.686 -6.956,8.311Z" style="fill:#656565;"/><path d="M29.08,17.029c-3.687,-2.019 11.957,-10.153 9.189,-2.521c-0.539,1.485 -4.596,5.037 -9.189,2.521Z" style="fill:#656565;"/><path d="M42.641,13.664c-1.653,-3.305 13.723,-1.347 7.901,2.781c-1.133,0.803 -5.843,1.337 -7.901,-2.781Z" style="fill:#656565;"/><path d="M78.812,44.661c0.462,-3.216 10.59,5.9 4.316,5.966c-1.22,0.013 -4.891,-1.96 -4.316,-5.966Z" style="fill:#656565;"/><path d="M94.639,75.262c2.741,1.878 -10.202,7.045 -7.424,1.26c0.54,-1.126 4.01,-3.6 7.424,-1.26Z" style="fill:#656565;"/><path d="M14.258,55.129c-1.435,-5.246 20.199,1.997 10.607,6.284c-1.865,0.833 -8.818,0.251 -10.607,-6.284Z" style="fill:#656565;"/><path d="M14.611,74.045c-2.152,3.624 -11.446,-10.277 -3.893,-7.237c1.469,0.591 6.574,2.722 3.893,7.237Z" style="fill:#656565;"/><path d="M58.289,34.816c-2.349,-3.5 14.197,-5.921 8.207,-0.407c-1.164,1.072 -5.282,4.767 -8.207,0.407Z" style="fill:#656565;"/><path d="M78.814,22.929c-4.201,0.343 1.758,-15.281 3.649,-7.363c0.368,1.54 1.584,6.937 -3.649,7.363Z" style="fill:#656565;"/><path d="M24.492,30.547c1.639,3.175 -12.911,5.826 -7.129,0.582c1.124,-1.02 5.088,-4.537 7.129,-0.582Z" style="fill:#656565;"/><path d="M70.772,77.313c4.169,-0.617 -0.752,15.364 -3.159,7.586c-0.468,-1.512 -2.035,-6.818 3.159,-7.586Z" style="fill:#656565;"/><path d="M49.665,87.774c3.321,1.642 -8.239,10.724 -6.082,3.9c0.419,-1.328 1.944,-5.946 6.082,-3.9Z" style="fill:#656565;"/><path d="M9.682,45.141c1.577,2.85 -11.323,3.622 -6.347,-0.228c0.968,-0.749 4.382,-3.323 6.347,0.228Z" style="fill:#656565;"/><path d="M49.235,9.378c-0.288,2.849 -9.995,-3.054 -4.472,-3.344c1.075,-0.057 4.83,-0.206 4.472,3.344Z" style="fill:#656565;"/><path d="M85.723,44.867c-1.635,1.914 -5.692,-7.213 -1.556,-4.656c0.805,0.498 3.593,2.271 1.556,4.656Z" style="fill:#656565;"/><path d="M91.325,81.508c-1.016,-2.366 9.19,-1.959 4.974,0.678c-0.82,0.513 -3.708,2.269 -4.974,-0.678Z" style="fill:#656565;"/><path d="M25.008,50.835c-1.234,4.03 -13.55,-7.28 -5.494,-6.111c1.567,0.227 7.032,1.09 5.494,6.111Z" style="fill:#656565;"/><path d="M19.488,73.376c0.771,-2.349 7.018,0.333 8.735,2.939c1.32,2.004 -1.006,4.001 -4.627,3.401c-1.621,-0.268 -5.807,-1.164 -4.108,-6.34Z" style="fill:#656565;"/><path d="M56.797,39.507c1.79,1.706 -3.315,6.194 -6.407,6.625c-2.376,0.331 -3.18,-2.627 -1.083,-5.639c0.939,-1.349 3.546,-4.744 7.49,-0.986Z" style="fill:#656565;"/><path d="M82.181,26.52c2.362,-0.73 3.79,5.916 2.657,8.825c-0.87,2.235 -3.844,1.494 -5.451,-1.806c-0.719,-1.477 -2.411,-5.41 2.794,-7.019Z" style="fill:#656565;"/><path d="M26.3,26.176c-1.356,-1.531 3.549,-5.805 6.265,-6.281c2.088,-0.365 2.454,2.348 0.309,5.183c-0.959,1.269 -3.587,4.471 -6.574,1.098Z" style="fill:#656565;"/><path d="M67.177,73.95c-2.31,0.884 -4.17,-5.654 -3.231,-8.631c0.722,-2.288 3.739,-1.743 5.558,1.445c0.814,1.426 2.76,5.24 -2.327,7.186Z" style="fill:#656565;"/><path d="M48.751,83.544c-2.111,-0.518 -0.18,-6.173 1.989,-7.854c1.667,-1.291 3.574,0.613 3.292,3.827c-0.126,1.439 -0.63,5.169 -5.281,4.027Z" style="fill:#656565;"/><path d="M11.14,41.627c-1.266,-1.431 2.962,-4.55 5.371,-4.678c1.851,-0.098 2.275,2.233 0.461,4.414c-0.811,0.976 -3.043,3.419 -5.832,0.264Z" style="fill:#656565;"/><path d="M52.048,7.569c-0.197,-1.668 4.419,-1.804 6.223,-0.69c1.387,0.856 0.526,2.753 -1.877,3.42c-1.075,0.299 -3.911,0.946 -4.346,-2.73Z" style="fill:#656565;"/><path d="M88.661,44.969c0.693,-1.304 4.097,0.909 4.842,2.618c0.573,1.313 -0.999,2.252 -3.069,1.531c-0.926,-0.323 -3.299,-1.275 -1.773,-4.149Z" style="fill:#656565;"/><path d="M89.902,84.157c0.883,1.225 -2.687,3.346 -4.592,3.257c-1.464,-0.069 -1.614,-1.935 -0.016,-3.508c0.715,-0.704 2.662,-2.449 4.608,0.251Z" style="fill:#656565;"/><path d="M64.898,54.065c1.467,-6.321 30.858,14.18 19.11,14.89c-2.285,0.138 -20.937,-7.016 -19.11,-14.89Z" style="fill:#656565;"/><path d="M48.525,55.518c5.078,4.04 -26.062,21.774 -21.656,10.86c0.857,-2.123 15.33,-15.892 21.656,-10.86Z" style="fill:#656565;"/><path d="M29.589,49.033c0.194,-2.465 6.897,-1.336 9.182,0.791c1.756,1.634 -0.032,4.125 -3.692,4.398c-1.638,0.122 -5.918,0.242 -5.49,-5.189Z" style="fill:#656565;"/></g></svg>