<svg width="100px" height="100px" viewBox="0 0 100 100" version="1.1" xmlns="http://www.w3.org/2000/svg"  xml:space="preserve"  style="fill-rule:evenodd;clip-rule:evenodd;stroke-linejoin:round;stroke-miterlimit:1.41421;"><path d="M37.298,83.876c4.286,5.521 -32.818,16.152 -25.429,5.851c1.438,-2.003 20.09,-12.728 25.429,-5.851Z" style="fill:#575757;"/><path d="M64.087,53.508c1.58,-6.809 33.236,15.273 20.582,16.038c-2.461,0.149 -22.55,-7.557 -20.582,-16.038Z" style="fill:#575757;"/><path d="M66.028,8.938c4.221,2.175 -15.595,19.349 -13.992,10.887c0.312,-1.646 8.733,-13.595 13.992,-10.887Z" style="fill:#575757;"/><path d="M98.076,52.96c1.961,3.685 -20.958,6.169 -15.561,0.858c1.049,-1.033 13.118,-5.449 15.561,-0.858Z" style="fill:#575757;"/><path d="M49.377,55.025c5.469,4.351 -28.071,23.452 -23.325,11.697c0.923,-2.287 16.511,-17.118 23.325,-11.697Z" style="fill:#575757;"/><path d="M36.354,84.154c3.979,5.126 -30.47,14.996 -23.609,5.433c1.334,-1.861 18.652,-11.818 23.609,-5.433Z" style="fill:#656565;"/><path d="M64.898,54.065c1.467,-6.321 30.858,14.18 19.11,14.89c-2.285,0.138 -20.937,-7.016 -19.11,-14.89Z" style="fill:#656565;"/><path d="M65.526,9.38c3.919,2.019 -14.479,17.964 -12.991,10.108c0.29,-1.529 8.108,-12.623 12.991,-10.108Z" style="fill:#656565;"/><path d="M97.492,53.027c1.821,3.422 -19.458,5.728 -14.448,0.797c0.975,-0.959 12.18,-5.059 14.448,-0.797Z" style="fill:#656565;"/><path d="M48.525,55.518c5.078,4.04 -26.062,21.774 -21.656,10.86c0.857,-2.123 15.33,-15.892 21.656,-10.86Z" style="fill:#656565;"/><path d="M2.506,75.216c-0.173,-6.071 21.387,7.499 9.85,9.618c-2.244,0.412 -9.635,-2.055 -9.85,-9.618Z" style="fill:#575757;"/><path d="M62.431,23.381c5.557,2.452 -15.959,16.092 -12.916,4.763c0.592,-2.203 5.994,-7.817 12.916,-4.763Z" style="fill:#575757;"/><path d="M70.854,13.734c4.851,-3.654 6.26,21.783 -2.144,13.599c-1.635,-1.592 -3.9,-9.047 2.144,-13.599Z" style="fill:#575757;"/><path d="M19.648,41.215c-4.524,-2.126 15.561,-15.266 11.677,-4.724c-0.756,2.051 -6.042,7.372 -11.677,4.724Z" style="fill:#575757;"/><path d="M79.318,85.966c-4.601,3.964 -7.675,-21.325 1.248,-13.71c1.735,1.481 4.484,8.771 -1.248,13.71Z" style="fill:#575757;"/><path d="M51.505,98.306c-5.309,0.56 5.135,-19.251 7.768,-9.28c0.512,1.939 -1.153,8.583 -7.768,9.28Z" style="fill:#575757;"/><path d="M28.522,17.28c-4.117,-2.255 13.351,-11.337 10.26,-2.815c-0.601,1.658 -5.132,5.624 -10.26,2.815Z" style="fill:#575757;"/><path d="M42.112,13.566c-1.845,-3.691 15.324,-1.505 8.822,3.105c-1.264,0.896 -6.524,1.493 -8.822,-3.105Z" style="fill:#575757;"/><path d="M78.479,44.325c0.516,-3.591 11.825,6.588 4.819,6.662c-1.362,0.015 -5.461,-2.189 -4.819,-6.662Z" style="fill:#575757;"/><path d="M95.098,75.108c3.061,2.097 -11.392,7.867 -8.291,1.407c0.604,-1.256 4.479,-4.019 8.291,-1.407Z" style="fill:#575757;"/><path d="M13.523,54.835c-1.603,-5.858 22.554,2.23 11.844,7.016c-2.083,0.931 -9.847,0.282 -11.844,-7.016Z" style="fill:#575757;"/><path d="M61.275,44.823c2.797,-0.508 2.448,7.073 0.477,11.236c-2.241,4.732 -6.466,5.847 -8.503,-0.051c-0.446,-1.291 0.574,-3.341 2.481,-6.048c1.279,-1.814 2.557,-4.595 5.545,-5.137Z" style="fill:#575757;"/><path d="M72.217,8.532c-0.132,1.927 -5.067,0.435 -7.481,-1.557c-2.744,-2.264 -2.775,-5.232 1.45,-5.592c0.925,-0.079 2.105,0.935 3.57,2.642c0.982,1.144 2.601,2.449 2.461,4.507Z" style="fill:#575757;"/><path d="M73.625,92.196c-0.737,-1.572 3.794,-2.552 6.56,-2.038c3.145,0.583 4.464,2.903 1.3,5.029c-0.693,0.465 -2.063,0.183 -3.959,-0.52c-1.272,-0.471 -3.114,-0.791 -3.901,-2.471Z" style="fill:#575757;"/><path d="M60.453,75.71c-0.744,2.744 -7.44,-0.827 -10.352,-4.396c-3.311,-4.057 -2.502,-8.35 3.7,-7.657c1.357,0.152 2.77,1.955 4.394,4.839c1.089,1.934 3.052,4.283 2.258,7.214Z" style="fill:#575757;"/><path d="M43.012,81.448c-1.912,1.61 -4.961,-4.324 -5.278,-8.361c-0.36,-4.589 2.375,-7.286 6.508,-3.679c0.905,0.79 1.022,2.8 0.752,5.698c-0.182,1.942 0.059,4.622 -1.982,6.342Z" style="fill:#575757;"/><path d="M8.043,37.239c-2.187,0.206 -1.418,-5.609 0.375,-8.684c2.038,-3.496 5.364,-4.075 6.544,0.601c0.258,1.024 -0.663,2.535 -2.31,4.493c-1.105,1.312 -2.272,3.369 -4.609,3.59Z" style="fill:#575757;"/><path d="M88.29,39.361c-0.742,-1.527 3.674,-2.547 6.386,-2.084c3.082,0.527 4.404,2.777 1.339,4.899c-0.67,0.465 -2.014,0.208 -3.877,-0.453c-1.25,-0.444 -3.055,-0.731 -3.848,-2.362Z" style="fill:#575757;"/><path d="M91.992,87.852c1.737,0.01 0.675,4.522 -0.977,6.8c-1.878,2.589 -4.539,2.783 -5.1,-0.987c-0.122,-0.826 0.721,-1.942 2.171,-3.352c0.971,-0.946 2.051,-2.472 3.906,-2.461Z" style="fill:#575757;"/><path d="M30.888,42.205c-2.158,-1.85 3.944,-6.363 8.418,-7.459c5.085,-1.247 8.615,1.328 5.324,6.63c-0.72,1.16 -2.955,1.662 -6.258,1.89c-2.214,0.152 -5.178,0.915 -7.484,-1.061Z" style="fill:#575757;"/><path d="M71.896,50.452c-2.668,0.982 -3.63,-6.546 -2.405,-10.987c1.393,-5.047 5.363,-6.872 8.386,-1.413c0.661,1.195 0.009,3.39 -1.404,6.385c-0.947,2.007 -1.727,4.967 -4.577,6.015Z" style="fill:#575757;"/><path d="M48.962,23.035c1.658,1.655 -4.11,5.977 -8.093,7.102c-4.528,1.279 -7.288,-1.011 -3.86,-5.992c0.751,-1.09 2.735,-1.609 5.611,-1.902c1.928,-0.197 4.571,-0.976 6.342,0.792Z" style="fill:#575757;"/><path d="M61.066,45.387c2.582,-0.468 2.261,6.532 0.44,10.376c-2.069,4.37 -5.97,5.399 -7.852,-0.048c-0.411,-1.192 0.531,-3.085 2.292,-5.584c1.181,-1.675 2.361,-4.243 5.12,-4.744Z" style="fill:#656565;"/><path d="M71.879,8.301c-0.121,1.779 -4.678,0.401 -6.907,-1.438c-2.534,-2.091 -2.562,-4.831 1.339,-5.164c0.854,-0.073 1.944,0.863 3.296,2.439c0.907,1.057 2.402,2.262 2.272,4.163Z" style="fill:#656565;"/><path d="M73.991,92.232c-0.681,-1.452 3.503,-2.357 6.058,-1.883c2.904,0.539 4.121,2.681 1.199,4.644c-0.639,0.43 -1.904,0.169 -3.655,-0.48c-1.174,-0.435 -2.875,-0.73 -3.602,-2.281Z" style="fill:#656565;"/><path d="M60.032,75.279c-0.686,2.533 -6.869,-0.764 -9.558,-4.06c-3.057,-3.746 -2.31,-7.71 3.416,-7.069c1.254,0.14 2.558,1.804 4.058,4.468c1.006,1.786 2.818,3.954 2.084,6.661Z" style="fill:#656565;"/><path d="M42.924,80.926c-1.765,1.487 -4.58,-3.993 -4.873,-7.72c-0.332,-4.238 2.193,-6.728 6.009,-3.397c0.836,0.729 0.944,2.585 0.694,5.261c-0.167,1.793 0.055,4.268 -1.83,5.856Z" style="fill:#656565;"/><path d="M8.241,36.818c-2.019,0.19 -1.309,-5.179 0.346,-8.019c1.882,-3.228 4.954,-3.763 6.043,0.555c0.238,0.946 -0.612,2.341 -2.133,4.149c-1.02,1.212 -2.098,3.111 -4.256,3.315Z" style="fill:#656565;"/><path d="M88.648,39.39c-0.42,-0.865 0.953,-1.554 2.656,-1.859c1.072,-0.191 2.274,-0.23 3.241,-0.065c2.846,0.487 4.066,2.565 1.237,4.524c-0.619,0.429 -1.86,0.191 -3.581,-0.419c-1.154,-0.409 -2.821,-0.675 -3.553,-2.181Z" style="fill:#656565;"/><path d="M91.803,88.167c1.604,0.009 0.623,4.176 -0.902,6.28c-1.734,2.39 -4.192,2.57 -4.709,-0.912c-0.113,-0.762 0.666,-1.793 2.004,-3.095c0.897,-0.873 1.895,-2.282 3.607,-2.273Z" style="fill:#656565;"/><path d="M31.458,42.011c-1.992,-1.708 3.642,-5.875 7.773,-6.888c4.696,-1.151 7.955,1.226 4.916,6.122c-0.665,1.072 -2.728,1.535 -5.778,1.745c-2.045,0.141 -4.781,0.846 -6.911,-0.979Z" style="fill:#656565;"/><path d="M72.005,49.86c-2.464,0.906 -3.352,-6.045 -2.221,-10.145c1.287,-4.661 4.952,-6.346 7.743,-1.305c0.611,1.104 0.008,3.131 -1.296,5.895c-0.874,1.854 -1.595,4.587 -4.226,5.555Z" style="fill:#656565;"/><path d="M48.449,23.229c1.53,1.528 -3.795,5.518 -7.473,6.557c-4.181,1.181 -6.731,-0.933 -3.565,-5.533c0.693,-1.006 2.526,-1.485 5.181,-1.756c1.781,-0.182 4.221,-0.901 5.857,0.732Z" style="fill:#656565;"/><path d="M3.151,75.675c-0.155,-5.437 19.153,6.716 8.821,8.613c-2.01,0.37 -8.628,-1.84 -8.821,-8.613Z" style="fill:#656565;"/><path d="M61.739,23.766c4.976,2.196 -14.292,14.412 -11.567,4.266c0.53,-1.974 5.368,-7.001 11.567,-4.266Z" style="fill:#656565;"/><path d="M70.852,14.526c4.345,-3.272 5.607,19.507 -1.92,12.179c-1.464,-1.426 -3.492,-8.102 1.92,-12.179Z" style="fill:#656565;"/><path d="M20.288,40.842c-4.052,-1.904 13.935,-13.672 10.457,-4.231c-0.676,1.837 -5.41,6.603 -10.457,4.231Z" style="fill:#656565;"/><path d="M79.267,85.176c-4.12,3.55 -6.873,-19.098 1.118,-12.278c1.554,1.326 4.016,7.855 -1.118,12.278Z" style="fill:#656565;"/><path d="M51.865,97.71c-4.755,0.501 4.598,-17.24 6.956,-8.311c0.459,1.737 -1.032,7.686 -6.956,8.311Z" style="fill:#656565;"/><path d="M29.08,17.029c-3.687,-2.019 11.957,-10.153 9.189,-2.521c-0.539,1.485 -4.596,5.037 -9.189,2.521Z" style="fill:#656565;"/><path d="M42.641,13.664c-1.653,-3.305 13.723,-1.347 7.901,2.781c-1.133,0.803 -5.843,1.337 -7.901,-2.781Z" style="fill:#656565;"/><path d="M78.812,44.661c0.462,-3.216 10.59,5.9 4.316,5.966c-1.22,0.013 -4.891,-1.96 -4.316,-5.966Z" style="fill:#656565;"/><path d="M94.639,75.262c2.741,1.878 -10.202,7.045 -7.424,1.26c0.54,-1.126 4.01,-3.6 7.424,-1.26Z" style="fill:#656565;"/><path d="M14.258,55.129c-1.435,-5.246 20.199,1.997 10.607,6.284c-1.865,0.833 -8.818,0.251 -10.607,-6.284Z" style="fill:#656565;"/><path d="M15.001,74.606c-2.459,4.141 -13.078,-11.743 -4.449,-8.269c1.678,0.675 7.512,3.11 4.449,8.269Z" style="fill:#575757;"/><path d="M57.614,34.927c-2.683,-4 16.222,-6.766 9.379,-0.465c-1.331,1.225 -6.036,5.447 -9.379,0.465Z" style="fill:#575757;"/><path d="M78.582,23.572c-4.8,0.391 2.008,-17.461 4.169,-8.414c0.421,1.76 1.811,7.927 -4.169,8.414Z" style="fill:#575757;"/><path d="M25.086,30.428c1.873,3.628 -14.752,6.656 -8.146,0.665c1.285,-1.166 5.814,-5.184 8.146,-0.665Z" style="fill:#575757;"/><path d="M70.961,76.656c4.765,-0.705 -0.859,17.555 -3.609,8.669c-0.534,-1.728 -2.326,-7.79 3.609,-8.669Z" style="fill:#575757;"/><path d="M50.13,87.395c3.796,1.877 -9.413,12.253 -6.949,4.455c0.48,-1.516 2.222,-6.793 6.949,-4.455Z" style="fill:#575757;"/><path d="M10.208,45.1c1.802,3.257 -12.937,4.139 -7.252,-0.261c1.106,-0.855 5.007,-3.796 7.252,0.261Z" style="fill:#575757;"/><path d="M49.635,9.612c-0.329,3.255 -11.42,-3.49 -5.109,-3.821c1.228,-0.064 5.519,-0.235 5.109,3.821Z" style="fill:#575757;"/><path d="M85.895,45.236c-1.868,2.188 -6.503,-8.24 -1.778,-5.319c0.92,0.569 4.105,2.595 1.778,5.319Z" style="fill:#575757;"/><path d="M90.908,81.498c-1.162,-2.703 10.5,-2.237 5.683,0.776c-0.937,0.586 -4.237,2.592 -5.683,-0.776Z" style="fill:#575757;"/><path d="M25.52,51.288c-1.411,4.605 -15.484,-8.318 -6.278,-6.983c1.791,0.26 8.034,1.247 6.278,6.983Z" style="fill:#575757;"/><path d="M14.611,74.045c-2.152,3.624 -11.446,-10.277 -3.893,-7.237c1.469,0.591 6.574,2.722 3.893,7.237Z" style="fill:#656565;"/><path d="M58.289,34.816c-2.349,-3.5 14.197,-5.921 8.207,-0.407c-1.164,1.072 -5.282,4.767 -8.207,0.407Z" style="fill:#656565;"/><path d="M78.814,22.929c-4.201,0.343 1.758,-15.281 3.649,-7.363c0.368,1.54 1.584,6.937 -3.649,7.363Z" style="fill:#656565;"/><path d="M24.492,30.547c1.639,3.175 -12.911,5.826 -7.129,0.582c1.124,-1.02 5.088,-4.537 7.129,-0.582Z" style="fill:#656565;"/><path d="M70.772,77.313c4.169,-0.617 -0.752,15.364 -3.159,7.586c-0.468,-1.512 -2.035,-6.818 3.159,-7.586Z" style="fill:#656565;"/><path d="M49.665,87.774c3.321,1.642 -8.239,10.724 -6.082,3.9c0.419,-1.328 1.944,-5.946 6.082,-3.9Z" style="fill:#656565;"/><path d="M9.682,45.141c1.577,2.85 -11.323,3.622 -6.347,-0.228c0.968,-0.749 4.382,-3.323 6.347,0.228Z" style="fill:#656565;"/><path d="M49.235,9.378c-0.288,2.849 -9.995,-3.054 -4.472,-3.344c1.075,-0.057 4.83,-0.206 4.472,3.344Z" style="fill:#656565;"/><path d="M85.723,44.867c-1.635,1.914 -5.692,-7.213 -1.556,-4.656c0.805,0.498 3.593,2.271 1.556,4.656Z" style="fill:#656565;"/><path d="M91.325,81.508c-1.016,-2.366 9.19,-1.959 4.974,0.678c-0.82,0.513 -3.708,2.269 -4.974,-0.678Z" style="fill:#656565;"/><path d="M25.008,50.835c-1.234,4.03 -13.55,-7.28 -5.494,-6.111c1.567,0.227 7.032,1.09 5.494,6.111Z" style="fill:#656565;"/><path d="M19.097,73.074c0.849,-2.587 7.728,0.366 9.62,3.237c1.453,2.206 -1.108,4.406 -5.096,3.745c-1.785,-0.295 -6.396,-1.282 -4.524,-6.982Z" style="fill:#575757;"/><path d="M57.238,39.283c1.972,1.879 -3.651,6.822 -7.056,7.297c-2.616,0.364 -3.502,-2.893 -1.193,-6.211c1.034,-1.485 3.906,-5.225 8.249,-1.086Z" style="fill:#575757;"/><path d="M82.201,26.026c2.602,-0.805 4.174,6.515 2.927,9.719c-0.958,2.462 -4.235,1.646 -6.004,-1.989c-0.792,-1.627 -2.655,-5.958 3.077,-7.73Z" style="fill:#575757;"/><path d="M25.895,26.394c-1.494,-1.686 3.908,-6.394 6.899,-6.917c2.299,-0.403 2.702,2.585 0.341,5.707c-1.057,1.398 -3.951,4.925 -7.24,1.21Z" style="fill:#575757;"/><path d="M67.189,74.445c-2.543,0.973 -4.592,-6.228 -3.558,-9.506c0.795,-2.52 4.118,-1.92 6.121,1.591c0.897,1.571 3.04,5.771 -2.563,7.915Z" style="fill:#575757;"/><path d="M48.512,83.908c-2.325,-0.571 -0.198,-6.8 2.191,-8.65c1.836,-1.423 3.936,0.675 3.626,4.215c-0.139,1.584 -0.694,5.692 -5.817,4.435Z" style="fill:#575757;"/><path d="M10.786,41.771c-1.394,-1.577 3.261,-5.012 5.914,-5.153c2.039,-0.108 2.506,2.459 0.509,4.861c-0.894,1.075 -3.352,3.765 -6.423,0.292Z" style="fill:#575757;"/><path d="M51.72,7.495c-0.217,-1.837 4.867,-1.987 6.854,-0.76c1.527,0.943 0.579,3.031 -2.067,3.767c-1.184,0.329 -4.308,1.041 -4.787,-3.007Z" style="fill:#575757;"/><path d="M88.461,44.751c0.764,-1.436 4.512,1.002 5.333,2.884c0.631,1.446 -1.1,2.48 -3.38,1.686c-1.02,-0.356 -3.634,-1.405 -1.953,-4.57Z" style="fill:#575757;"/><path d="M90.192,84.072c0.972,1.35 -2.96,3.685 -5.057,3.587c-1.612,-0.075 -1.778,-2.131 -0.018,-3.863c0.788,-0.775 2.932,-2.698 5.075,0.276Z" style="fill:#575757;"/><path d="M29.137,48.832c0.214,-2.715 7.597,-1.471 10.113,0.871c1.934,1.8 -0.035,4.543 -4.066,4.844c-1.805,0.135 -6.518,0.266 -6.047,-5.715Z" style="fill:#575757;"/><path d="M19.488,73.376c0.771,-2.349 7.018,0.333 8.735,2.939c1.32,2.004 -1.006,4.001 -4.627,3.401c-1.621,-0.268 -5.807,-1.164 -4.108,-6.34Z" style="fill:#656565;"/><path d="M56.797,39.507c1.79,1.706 -3.315,6.194 -6.407,6.625c-2.376,0.331 -3.18,-2.627 -1.083,-5.639c0.939,-1.349 3.546,-4.744 7.49,-0.986Z" style="fill:#656565;"/><path d="M82.181,26.52c2.362,-0.73 3.79,5.916 2.657,8.825c-0.87,2.235 -3.844,1.494 -5.451,-1.806c-0.719,-1.477 -2.411,-5.41 2.794,-7.019Z" style="fill:#656565;"/><path d="M26.3,26.176c-1.356,-1.531 3.549,-5.805 6.265,-6.281c2.088,-0.365 2.454,2.348 0.309,5.183c-0.959,1.269 -3.587,4.471 -6.574,1.098Z" style="fill:#656565;"/><path d="M67.177,73.95c-2.31,0.884 -4.17,-5.654 -3.231,-8.631c0.722,-2.288 3.739,-1.743 5.558,1.445c0.814,1.426 2.76,5.24 -2.327,7.186Z" style="fill:#656565;"/><path d="M48.751,83.544c-2.111,-0.518 -0.18,-6.173 1.989,-7.854c1.667,-1.291 3.574,0.613 3.292,3.827c-0.126,1.439 -0.63,5.169 -5.281,4.027Z" style="fill:#656565;"/><path d="M11.14,41.627c-1.266,-1.431 2.962,-4.55 5.371,-4.678c1.851,-0.098 2.275,2.233 0.461,4.414c-0.811,0.976 -3.043,3.419 -5.832,0.264Z" style="fill:#656565;"/><path d="M52.048,7.569c-0.197,-1.668 4.419,-1.804 6.223,-0.69c1.387,0.856 0.526,2.753 -1.877,3.42c-1.075,0.299 -3.911,0.946 -4.346,-2.73Z" style="fill:#656565;"/><path d="M88.661,44.969c0.693,-1.304 4.097,0.909 4.842,2.618c0.573,1.313 -0.999,2.252 -3.069,1.531c-0.926,-0.323 -3.299,-1.275 -1.773,-4.149Z" style="fill:#656565;"/><path d="M89.902,84.157c0.883,1.225 -2.687,3.346 -4.592,3.257c-1.464,-0.069 -1.614,-1.935 -0.016,-3.508c0.715,-0.704 2.662,-2.449 4.608,0.251Z" style="fill:#656565;"/><path d="M29.589,49.033c0.194,-2.465 6.897,-1.336 9.182,0.791c1.756,1.634 -0.032,4.125 -3.692,4.398c-1.638,0.122 -5.918,0.242 -5.49,-5.189Z" style="fill:#656565;"/></svg>