<svg width="100px" height="100px" viewBox="0 0 100 100" version="1.1" xmlns="http://www.w3.org/2000/svg"  xml:space="preserve" style="fill-rule:evenodd;clip-rule:evenodd;stroke-linejoin:round;stroke-miterlimit:1.41421;"><path d="M14.537,29.4C19.456,22.345 29.282,29.784 30.958,27.152C33.955,22.441 33.15,13.594 39.529,11.141C40.459,10.783 41.458,10.57 42.45,10.487C43.781,10.376 45.072,10.452 46.379,10.739C53.826,12.374 52.369,21.148 59.091,24.236C67.204,27.964 75.371,23.447 83.61,24.362C87.744,24.822 92.945,27.639 94.185,31.835C94.893,34.229 95.124,37.388 94.217,39.748C92.586,43.987 88.498,46.636 86.799,50.827C85.989,52.826 85.935,55.307 86.264,57.417C86.916,61.608 91.242,64.691 93.587,67.929C96.144,71.46 96.771,75.545 96.209,79.858C95.943,81.897 95.038,84.233 93.445,85.606C86.423,91.66 78.516,83.216 72.39,80.402C69.869,79.243 66.824,78.113 64.138,79.417C61.247,80.821 58.001,83.214 56.516,86.102C54.177,90.65 53.794,97.043 47.453,97.748C37.005,98.909 27.744,90.755 21.846,83.063C19.764,80.347 18.628,76.722 16.028,74.457C11.642,70.637 3.555,71.279 2.972,64.283C2.895,63.351 2.929,62.411 3.13,61.496C3.908,57.953 6.565,54.214 9.949,52.764C14.232,50.928 19.767,50.968 21.854,45.819C23.691,41.289 9.619,36.454 14.537,29.4Z" style="fill:#f3e86b;"/></svg>