<svg width="100px" height="100px" viewBox="0 0 100 100" version="1.1" xmlns="http://www.w3.org/2000/svg"  xml:space="preserve"  style="fill-rule:evenodd;clip-rule:evenodd;stroke-linejoin:round;stroke-miterlimit:1.41421;"><path d="M33.417,3.917c121.008,-13.456 38.882,26.364 35.833,39.992c-4.571,20.433 53.077,21.539 20.977,45.503c-6.243,4.661 -17.027,-3.884 -39.072,-2.397c-15.697,1.058 -36.383,24.737 -48.5,1.917c-9.726,-18.318 8.8,-82.573 30.762,-85.015Z" style="fill:#575757;"/><path d="M33.275,4.698c118.338,-13.301 38.024,26.062 35.043,39.533c-4.471,20.2 51.905,21.293 20.514,44.981c-6.106,4.608 -16.651,-3.839 -38.21,-2.369c-15.35,1.046 -35.581,24.454 -47.43,1.896c-9.512,-18.108 8.606,-81.627 30.083,-84.041Z" style="fill:#656565;"/></svg>