<svg version="1" xmlns="http://www.w3.org/2000/svg" width="921.333" height="921.333" viewBox="0 0 691.000000 691.000000"><path d="M472.2 6.3c-1.7 1.2-3.2 2.8-3.2 3.4 0 .7-.7 1.3-1.5 1.3s-1.5.4-1.5.9c0 .4-2 3.8-4.5 7.5-2.4 3.6-4.7 8.3-5 10.4-.4 2-2 7.1-3.6 11.2-2.7 6.8-7.7 20.2-13.1 35-1.6 4.3-1.9 7.4-1.6 14.7.2 6.9 0 9.3-.9 9.3-.7 0-4.5-1.5-8.5-3.4-4-1.8-12-5.4-17.8-7.9-18.3-7.9-34-12-54.5-14.2-3.3-.4-11.5-.2-18.3.4-9.1.8-14.1.8-19.3 0-6.4-1.1-7.1-1.1-8.3.7-1.2 1.6-2.8 1.9-10.8 2-5.5.1-11.8.8-15.5 1.9-3.7 1-6.7 1.4-7.6.9-.9-.5-4.2-3.4-7.4-6.4-3.2-3-7.6-6.8-9.8-8.5-2.2-1.6-4.2-3.1-4.5-3.5-.3-.3-2.7-2.1-5.3-4-2.7-1.9-6.1-4.5-7.7-5.8-1.5-1.2-3.5-2.2-4.3-2.2-.9 0-1.9-.5-2.2-1-.3-.6-1.3-1-2.2-1-1.1 0-1.4.6-.9 2.6.6 2.4.5 2.6-1.9 2-2.9-.7-3-.5-.9 3.5.8 1.7 1.3 3.8.9 4.7-.3.8 0 1.9.7 2.4 1 .6.9.8-.3.8-1.4 0-1.6 1.2-1.3 8.7.2 5 .8 8.9 1.5 9.3.7.5.7 1 .1 1.4-.5.3-1 2-1 3.8-.1 11 .3 10.2-5.4 12.3-5 1.7-14.2 7.5-21.4 13.4-1.7 1.5-4.9 3.9-7 5.6-2.2 1.6-7.3 6.2-11.4 10.2-4.1 3.9-9.7 8.9-12.5 11.1-5.7 4.4-14.6 13.9-18.3 19.5-2.1 3.1-2.3 4.1-1.4 6.1.9 2.1.6 3.2-2.2 7.8-3 5.1-6.7 12.5-11.5 23.2-2.8 6.1-4.8 8.8-13.2 18-3.6 3.9-7.6 8.7-8.9 10.6-1.4 1.9-3 4.1-3.7 4.8-.7.7-1.3 1.9-1.3 2.7 0 .7-.6 1.5-1.3 1.8-.7.2-3 3.9-5.1 8.1-2.1 4.2-4.4 7.6-5.1 7.6-1.5 0-6-9.8-7.5-16.3-2.3-10.4-8.8-19.8-16.9-24.4-2.5-1.5-9.5-5.6-15.4-9.2-15.2-9.3-19.6-11.3-24.4-11.5-3.5 0-4.6.4-6 2.4-3.4 4.8-5 8.6-6.2 15-.7 3.6-2 9.8-2.8 13.9-1.6 7.8-1.3 17.2.7 19.6.6.8 3.2 1.7 5.6 2.1 3.6.5 4.9.3 6.5-1.2 3-2.7 4.9-8 5.4-14.9.8-10.4 1.6-14.5 2.7-14.5 3.5 0 21.8 15.2 21.8 18.1 0 .4 1.4 2.3 3.1 4.1 4.3 4.6 14.1 17.7 16.1 21.4.9 1.8 3.3 5.6 5.2 8.6 3.3 5.3 3.6 5.4 9.9 6.6 9.1 1.7 9.4 1.6 14.9-2.8 4.8-3.8 7.6-5.2 6.3-3-.3.5-.2 1 .4 1 .5 0 1.3-.5 1.6-1 1.6-2.6 2 .2 2.1 15.3.1 15.5 1.5 27.7 4.8 42.9 2.1 9.9.8 19-7.3 49.8-4.2 15.9-7.7 28.6-9.2 33-.5 1.4-1.5 6.3-2.4 11-2.6 14.8-2.8 15.3-6.5 17.7-9.4 6.1-11.3 7.8-13.2 12.1-3.8 8.4-4.1 20.5-.7 24.6.5.6 1.9 2.3 3 3.9 2.8 3.7 9.6 8.2 14.2 9.5 3.1.9 4.5.7 8.5-1 9-4 13.8-7.6 15.5-11.5 6.7-16.2 6.1-24.1-2.3-32.1l-4.9-4.7 2.4-10.5c1.4-5.8 3.6-15.5 5-21.5 1.4-6.1 3.5-14.2 4.5-18 1.1-3.9 1.9-7.9 1.9-9 0-2.5 2.4-9.5 3.3-9.5 1 0 6.6 9.6 10.8 18.5 5.8 12.8 10.6 19.8 29.4 43.4 4.8 6 7.4 8.1 22.1 17.6 3.3 2.2 8.3 5.6 11 7.6 6.7 4.8 15.4 8.8 30.8 13.9 7.1 2.3 13.1 4.8 13.4 5.6.3.8.9 1.4 1.5 1.4.5 0 .6-.5.3-1-.3-.6-.2-1 .4-1 1.8 0 2.1 1.7.7 3.6-.9 1.2-1.1 2.5-.5 3.5.4.9.6 1.9.4 2.1-.3.3-.5 7.2-.5 15.4.1 8.2.1 15.8.1 16.8 0 1.1-.7 2.3-1.5 2.8s-1.3 1.5-1 2.3c.4.8.2 1.5-.3 1.5s-.7 1.5-.5 3.4c.4 3.4.5 3.4 5.5 3.6 9.7.2 52.3.4 60.7.1 3-.1 6.6.3 8 .9 1.4.5 6.6 1.4 11.5 1.9 8.4.9 12.7 1.6 28 4.2 3.3.5 8 1.2 10.5 1.5 8.8.9 10.6 2 13 7.7 1.3 2.9 2.4 7 2.5 9.2.1 2.7 1 5 2.6 6.8 3.2 3.7 6.2 9.1 15.7 28.2 9.6 19.6 12.2 25.2 15.6 33.5 1.5 3.6 4.5 10 6.7 14.2 4 8 5 12.8 2.5 12.8-.8 0-1.7-.6-1.9-1.3-.3-.6-.6.5-.6 2.5-.1 2.1-.6 3.8-1.2 3.8s-.8.7-.5 1.6c.4.9-.2 2.2-1.4 3.2-2 1.7-1.9 2 9.2 17.4l11.2 15.8H512c31.6 0 57.1-.4 56.5-.8-.5-.4-1.1-2.2-1.1-4-.2-2.7 0-3.1 1.2-2.1 2 1.6 1.7.6-.5-1.9-1-1.2-2.6-2.2-3.5-2.2-1.4 0-1.5-.4-.5-2.1.8-1.5 1.3-1.8 1.9-1 .5.9.9.9 1.3-.3.4-.9 1.4-1.6 2.2-1.6.9 0 1.3-.5 1-1-.4-.6-1.1-.8-1.6-.5-.5.4-.9.4-.9.1 0-.3 1.2-1.2 2.7-1.9 2.7-1.4 2.7-1.4 8.6 6.2 3.2 4.2 6.6 8.8 7.5 10.4l1.6 2.7h28.9c17.2 0 28.6-.4 28.3-.9-.4-.5-4.3-3.1-8.8-5.6-4.5-2.6-10.2-6.2-12.7-8-2.5-1.8-8.2-5.1-12.6-7.3-12.2-6.2-18.4-10.6-22.5-16.1-2.1-2.8-4.6-5.8-5.5-6.7-.9-.9-1.4-2.3-1.1-3 .3-.8-.1-1.4-1-1.4-.8 0-1.3-.4-.9-.9.3-.5-1.1-3.9-3.1-7.5-1.9-3.6-3.3-7-2.9-7.6.3-.5.1-1-.4-1-.6 0-1.1-.6-1.1-1.3 0-.8-1.2-2.4-2.6-3.8-1.5-1.3-3.7-4.7-5-7.4-1.3-2.8-2.4-4.6-2.5-4 0 .5-.5-.1-1.1-1.5-.6-1.4-1-3.1-.9-3.7.1-.8-.5-1-1.6-.6-1.6.6-1.6.5-.4-1 1.2-1.5 1.2-1.7-.3-1.1-1.1.4-1.6.1-1.6-1.4 0-1.1-1.1-2.9-2.5-4s-2.5-2.4-2.5-2.9-.9-1.5-1.9-2.3c-1.1-.7-1.8-1.7-1.5-2.1.2-.4-.7-1.9-2.1-3.3-1.4-1.4-2.5-3.4-2.5-4.5s-.9-2.2-1.9-2.6c-1.2-.4-1.8-1.2-1.4-2.1.3-.7 0-1.4-.7-1.4s-.9-.8-.5-2c.4-1.3.2-2-.7-2-1.6 0-5-5.8-4.2-7.1.3-.5 0-.9-.6-.9s-1.6-1.2-2.3-2.8c-1.3-3-2.2-4.3-5.4-7.8-1.9-2.1-2-2.4-.5-2.5 1.4 0 1.4-.2.2-.6-2-.7-7-6.5-7-8.1 0-.6-.4-1.2-1-1.2-.5 0-.7-.7-.4-1.5.4-.8.2-1.5-.4-1.5-1.3 0-7.5-10-6.8-10.8.3-.3-.1-1-.9-1.6-.7-.6-2.3-3.6-3.5-6.6-1.2-3-3.7-7-5.7-8.8-3.4-3.3-3.5-3.5-2.8-9 .4-3.2 1-6.2 1.3-6.7.7-1.1 1-2.7 1.4-6.3.1-1.2.5-2.2.8-2.2.4 0 1.2-2.3 1.9-5s1.7-5 2.3-5c.6 0 .8-.6.5-1.4-.8-2.1 3-8 14.4-22.1 5.7-7.2 12.2-15.6 14.4-18.7 2.2-3.2 4.5-5.8 5.2-5.8.6 0 2.9-3.3 5.1-7.3 5-9 6.6-13.9 8.1-24 .4-2.7 1.2-5.2 1.7-5.5 1.9-1.4 3.6-6.1 3.1-8.4-.4-1.3-2.9-4.8-5.6-7.8l-5-5.5 3-.3c2.9-.3 4.2-2.2 1.4-2.2-.8 0-1.5-.4-1.5-.8s-2.1-1.8-4.6-3c-3.2-1.6-4.4-2.7-4-3.7.4-1-.1-1.5-1.4-1.5-1.1 0-2-.5-2-1 0-.6-.5-1-1-1-.6 0-1.6-.5-2.3-1.1-.7-.6-4.1-2.7-7.7-4.8-5.8-3.4-6.5-4.1-6.2-6.6.5-4.3 7.7-26.3 10.9-33 2.4-5.2 2.8-7.2 2.8-15.3 0-5 0-9.2.1-9.2 1 0 29.7 9.8 34.4 11.7 10.7 4.5 29.2 14.5 30.2 16.5.3.7 1.4 3.5 2.3 6.3 2.6 7.5 10.7 14.9 19.2 17.5 10.1 3.1 11.5 2.8 17.7-3.4 8.2-8.2 9.2-13.6 5.1-27.2-2.1-7-3.2-8.8-6.6-11.8-8.5-7.2-15.4-8.4-23.9-4.1-2.7 1.3-5.1 2.9-5.5 3.5-1.5 2.5-9.1.5-25.7-6.8-5-2.2-8.1-3.5-31.3-13l-17-6.9.3-3.2c.2-1.7-.1-4.6-.6-6.4-.9-3.1-3.1-13.3-5.3-24.7-.6-3-1.8-7.5-2.6-9.9-.9-2.4-1.9-5.8-2.3-7.5-1.5-6.1-8-22.8-9.9-25.4-1-1.5-4.5-7.9-7.7-14.2-6.4-12.7-11.3-20.9-13.9-23-.9-.7-3.2-3.6-5-6.4-1.9-2.8-4.6-6.5-6.1-8.1-5.6-6.5-5.6-6.7-5.8-43.5-.1-11.3.3-23 .8-26 1.4-8.7 8.5-26 10.6-26 .5 0 4.4 3.4 8.7 7.6 4.3 4.2 8.8 8 10.1 8.5 1.3.5 2.1 1.3 1.8 1.8-1.6 2.4 16.1 12 23.7 12.8 4.6.5 5.9.2 9.5-2.1 2.3-1.4 4.9-3.7 5.8-5.1.9-1.4 2.2-2.5 2.9-2.5.8 0 1.7-1 2.1-2.3 1-2.8 1.2-6.7.4-6.7-.4 0-1.3-1.2-2.1-2.8-1.8-3.6-2.8-4.8-6.4-8.6-3.5-3.5-7.2-6.6-8.1-6.6-.3 0-2.4-1.4-4.5-3.1-2.2-1.7-6.3-4.2-9.2-5.6-2.8-1.4-6.6-4-8.3-5.8-1.7-1.8-4.5-4-6.4-5-1.8-.9-4.5-2.8-5.9-4.2-3.4-3.2-6.1-4.7-6.1-3.4 0 .6-3 0-6.7-1.4-3.7-1.3-7-2.2-7.5-1.9-.4.3-1.6 0-2.6-.5-1.4-.8-2.6-.5-5 1.2zm-96.4 84.8c2 1.1 4.6 1.9 5.7 1.9 1.2 0 8.4 3.2 16 7.1 10.9 5.5 13.1 7 10.1 6.5-2.2-.3-4.2-1-4.6-1.6-.4-.7-.9-1.1-1.1-1-.2.1-1.7-.3-3.2-.9-1.6-.6-3.2-1.1-3.6-1.1-.4 0-2.8-1.3-5.3-2.9-3.8-2.4-5.7-2.9-10.6-3-5 0-7.5-.7-14.4-4.1l-8.3-4 7.8.6c4.4.4 9.4 1.5 11.5 2.5zM274 106.2c0-.4-.7-1.7-1.5-3-1.4-1.8-1.4-2.1-.1-1.6.8.3 1.7 1.2 2 2 .3.8 1.1 1.4 1.9 1.4 2.3 0 23 21.2 28.7 29.5 1.9 2.7 4.7 6.3 6.2 8 1.6 1.6 2.8 3.4 2.8 3.8 0 1.9 7.5 9.8 14.8 15.8 4.2 3.5 8.6 7.1 9.7 8.1 1.1.9 4.4 3.6 7.3 5.8 5 3.9 5.3 4.4 4.6 7.3-1.2 5.8-4.5 8.6-8.9 7.7-.5-.1 0 .8 1.2 1.9 1.2 1.2 2.5 2.1 2.8 2.1.8 0 9.2 8.8 11.2 11.8 1.4 2 1.4 2.4-.1 4.1-.9.9-1.6 2.3-1.6 2.9 0 .6-.7.9-1.6.5-1.4-.5-1.6-.2-1 2 .6 2.4.4 2.7-2.1 2.7-1.7 0-3.8 1.1-5.2 2.5-1.3 1.4-2.7 2.5-3.2 2.5s-.7 1.9-.4 4.4c.5 3.1-.2 7.9-2.4 16.8-1.7 6.9-3.1 13.9-3.1 15.6 0 4.9-1.5 4.5-3.8-.9-1.2-2.7-2.2-5.2-2.2-5.5 0-.3-1-1.8-2.2-3.2-1.2-1.5-1.8-1.9-1.5-1 1.4 4-1.2 1.4-3.9-3.8-5-9.5-6.8-9.7-2.9-.3 2 4.6 4.3 9.8 5.1 11.6 1.1 2.1 1.4 4.3.9 7.1-.4 2.7-.1 5.1 1 7.8 4.5 10.5 5.8 19 3 20-.8.4-2.1.1-2.8-.5-.7-.5-2.9-1.2-4.8-1.5-2.1-.2-4.8-1.7-6.9-3.6-4.1-3.8-9.5-7.4-12.9-8.5-2-.6-2.3-.5-1.7 1 .5 1.4.2 1.6-1.1 1-1-.4-3.1-1.1-4.7-1.6s-4-1.9-5.3-3.1c-1.4-1.3-3.1-2.3-4-2.3-.9 0-2.3-2.2-3.7-5.6-1.1-3.1-2.9-6.7-3.9-8-1-1.3-1.6-1.9-1.3-1.3.9 1.9 2.4 5.9 2.5 6.7 0 .4.7 2 1.6 3.7 1 1.8 1.1 3.1.5 3.5-.6.4-.8 1-.5 1.5.7 1.1-2.5 2-7.7 2.3-2 .1-3.4.5-3.1.9.2.5-.7.8-2.1.8-1.6 0-3.2.9-4.1 2.4-.9 1.3-3.4 3.6-5.6 5L254 288l-1.1-2.6c-.9-2.5-.1-4.3 2.1-4.4.7 0 3-5.1 3-6.7 0-.7-.6-1.3-1.3-1.3-2.2 0-5.7-3.5-5.7-5.6 0-2.5 1.6-4.9 3.2-4.9.7 0 1.2-.8 1.2-1.8-.1-.9.2-1.7.7-1.7 1.5 0 1-2.7-.6-3.4-2.1-.8-2.1-8.6.1-8.6.8 0 1.2-.5.9-1-.4-.6-1.1-.8-1.6-.5-1.1.7-2.5-2.3-1.5-3.3.4-.3 1.1 0 1.7.8.7 1.1.9-.3.8-4.6-.1-3.3.1-6.6.5-7.2.4-.7.2-1.2-.4-1.2-.5 0-1-1.2-1.1-2.8 0-1.5-.2-4.7-.4-7.2-.3-2.5-.7-6.8-.9-9.5-.2-2.8-.6-7.5-.9-10.5-.4-3-.9-9.1-1.3-13.5-.3-4.4-.9-9.9-1.4-12.2-.8-4.6-.7-9.5.5-18.6.6-4.5.5-5.7-.5-5.5-.7.2-2-1.5-2.9-3.7-.8-2.2-2-4.3-2.5-4.7-.7-.5.4-2.1 2.8-4.1 2.3-2 3.6-3.8 3.2-4.5-1.3-2.1-2-38.2-.7-38.2.6 0 1.1.5 1.1 1 0 .6 1 1.4 2.2 1.9 2.8 1 7.8-.8 7.8-2.9 0-.8 2.9 1.5 6.5 5.2s6.5 6.4 6.5 6zm147 2.6c.6.6-7.2-.8-8.3-1.5-.5-.3-.3-.9.4-1.4 1.1-.6 6.3 1.2 7.9 2.9zm9 .3c2.1 1.7 2.2 1.9.3 1-1.2-.6-3.3-1.1-4.8-1.1s-2.4-.4-2-1c1-1.6 3.8-1.1 6.5 1.1zm-202.5 7.6c1 17 1.6 24.7 2.1 25.4.2.4.6 6.5.9 13.5.2 6.9.7 12.9 1 13.2.3.3.3 3.3 0 6.6-.4 4.8-.3 5.6.5 3.7.6-1.3 1.2-2.2 1.4-2 .2.2.6 3.5 1 7.4.3 3.8.8 8.2 1.1 9.7 1.9 9.8 2.1 18.8.7 21.3-1 1.8-1.2 1.7-1.3-1-.8-15.6-1.8-20.3-4.1-18.9-.6.4-.6 1 .1 1.7 1.7 1.7 1.3 3.7-.8 3.7-1.8 0-3.8 3.3-3.3 5.4.2.5-.6 2.8-1.8 5.2-1.1 2.4-2 4.8-2 5.4 0 1-3.6 3.3-5.8 3.6-.6.1-1-.1-.7-.6.3-.4-.2-1-1-1.3-1-.4-1.2-.1-.8 1 .5 1.1.3 1.4-.6.9-.7-.5-1-1.7-.7-2.9.3-1.1-.2-3.4-1.1-5-1.3-2.6-1.3-3.4-.3-5.1 1.2-1.9 1.2-2-.3-.7-1.5 1.2-1.7 1.1-1.7-.3 0-.9.5-1.6 1-1.6.6 0 1-.5 1-1.1 0-.5-.4-.8-.9-.5-.5.3-1.2-.1-1.5-1-.3-.8-1-1.3-1.5-1-1 .7-2.3-1.9-1.4-2.8 1.1-1.1 2.3-.6 2.3.8 0 .8.7 1.7 1.6 2 1.4.5 1.5.4.5-.8-.8-.9-.8-1.6-.2-2 .6-.4.7-1.4.4-2.3-.4-1.1-.3-1.4.5-.9.8.5 1 .1.5-1-.4-1-.8-1.3-1-.7-.3.7-1.2.9-2 .6-1.2-.5-1.5-.2-1 1 .3.9.2 1.7-.3 1.7-.6 0-1-.7-1-1.5s-.6-1.5-1.2-1.6c-.7 0-.3-.4 1-.9 1.6-.7 2.2-1.8 2.2-4.2 0-2.6.3-3 1.1-1.8.8 1.1.9.8.4-1.3-.3-1.7-.2-2.6.3-2.3.5.3 1.2-1.7 1.6-4.4.4-2.7 1.3-6.8 2.2-9.2.8-2.4 1.7-8.1 1.9-12.8.2-4.7.5-9.4.8-10.5.3-1.1 1-7 1.7-13 1.5-14.2 2.8-19.2 5.3-21 2.7-1.9 2.9-1.6 3.2 4.2zm110.9 20.6c2.1.9 4.1 1.7 4.5 1.7.3 0 2.4 1.5 4.5 3.3 3 2.5 4 4.2 4.2 6.8.3 4.3-1.6 6.9-5.3 7.3-4.2.5-6.1-.9-5.5-4 .6-3.2-1.1-4.5-4.9-3.7-3.3.6-5-1-13.2-12.5-2-2.8-3.7-5.4-3.7-5.5 0-.5 14.6 4.5 19.4 6.6zm-133.1 52.4c.4.3 0 1.5-.9 2.4-1.5 1.7-1.5 1.9 0 2.5.9.3 1.3 1 1 1.6-.3.5-1.2.1-1.9-.9-1.1-1.5-1.1-2.1.1-3.4 1.2-1.4 1.3-1.8.2-2.2-.7-.3-.8-.6-.2-.6.6-.1 1.4.2 1.7.6zm-.3 9.2c0 1.2-2 2.5-2.7 1.8-.7-.7.6-2.7 1.8-2.7.5 0 .9.4.9.9zm1.9 5.1c1.1 2.4 1.1 2.4-.3.6-.9-1.1-1.6-2.4-1.6-3 0-1.2.5-.7 1.9 2.4zm-3.5 6.2c-.3.4-1.1.5-1.9.1-2.1-.7-1.9-1.2.4-1 1.1 0 1.8.5 1.5.9zm35.6 9.9c0 .5-.7.9-1.5.9-.9 0-1.2-.6-.9-1.5.6-1.5 2.4-1.1 2.4.6zm124 .7c0 1.1-5.6 5.2-7 5.2-.5 0-1 .7-1 1.5 0 1.6-4.6 3.9-6 3-.5-.3-.7-1.2-.3-2.1.3-.8.8-1.2 1.1-1 .6.7 3.2-1.3 3.2-2.5 0-.5-.7-.6-1.4-.3-1.3.5-1.3.2-.3-2 .8-1.8 1.7-2.4 3-2 .9.3 2.4-.2 3.3-1 1.2-1.2 2-1.3 3.5-.6 1 .6 1.9 1.4 1.9 1.8zm-148.2 5.1c.3.8-.3 1.2-1.4.9-2.3-.4-3.1-2.7-.8-2.4 1 .2 2 .8 2.2 1.5zm-2.4 2.9c.2.4-.4.8-1.5.8-1 0-1.9-.4-1.9-.8s.6-.8 1.4-.8c.8 0 1.7.4 2 .8zm213.5 6.4c1.7 1.8 3.1 4 3.1 4.9 0 3.5-4.1 10.7-7.4 13-1.9 1.3-4 3.4-4.5 4.6-1.3 2.7-4.9 3.1-5.7.5-.3-.9-1.4-3.3-2.4-5.4-1-2-1.5-4-1-4.5.4-.4 1.3-3.1 1.9-5.8.8-3.5 2.1-5.8 4.4-7.7 4.4-3.7 7.9-3.6 11.6.4zM251 248c0 .5-.4 1-1 1-.5 0-1-.5-1-1 0-.6.5-1 1-1 .6 0 1 .4 1 1zm167.7 21.9c6.1 1.5 12.4 3.5 13.9 4.3 14.4 7.4 25.1 16 31.7 25.4 10.5 15 12.9 18.8 14.3 22.6.9 2.4 2.8 6.8 4.1 9.8 1.6 3.5 3 8.9 3.7 14.8.6 5.2 1.4 9.1 1.7 8.7.4-.3.9.5 1.3 1.8.7 3.1-1.8 9.3-4.4 10.9-1.1.7-2 1.6-2 1.9 0 1-7.6 8.2-13.5 12.9-8.6 6.9-12.8 8.5-22.7 8.3-5.2 0-8.8.4-8.8.9 0 1.5-6.3.1-11.8-2.6-2.6-1.3-6.3-2.7-8.2-3.1-4.7-1-10-3.8-12.5-6.5-1.1-1.3-5.5-5.7-9.7-9.8-4.3-4.1-7.8-8.1-7.8-8.7 0-.7-.7-1.5-1.5-1.9-.8-.3-1.5-.1-1.5.5s-.5.7-1.2.3c-.8-.5-.9-.2-.5.9s-.1 2.1-1.6 2.8c-1.2.7-2.5 1.6-2.8 2-.3.5-1.4.3-2.5-.5-1.9-1.4-1.9-1.4.1-1.3 1.4.2 1.9-.3 1.7-1.6-.4-2.1 2.4-5.7 4.5-5.7 1.9 0 1.6-1.7-.5-3.2-1.9-1.3-9-12.6-13.2-20.7-3.2-6.3-6.2-16.1-5.6-17.8.4-.8.9-4.3 1.2-7.6.6-7.1 2.1-11 6.3-16.9 3.5-5.2 10.6-12.6 14.3-15.1 1.5-1.1 2.4-2.5 2.2-3.2-.8-1.9 1-2.6 7.8-3 3.4-.3 6.6-.9 7.2-1.5 1.5-1.5 4.2-1.2 16.3 1.9zm-275.5 15.6c-.2 1.1.1 1.4.9.9.8-.4 1-.3.5.4-.4.6-1.3.9-2.1.6-.8-.4-1.2-1-.9-1.6.3-.5-.2-1.9-1.3-3.1l-1.8-2.1 2.5 1.6c1.4.9 2.4 2.3 2.2 3.3zm6-2c-.2 1.4-.8 2.5-1.2 2.5-1 0-.8-2 .3-3.8 1.2-1.8 1.5-1.5.9 1.3zm-9.4 1.8c1.6 2.8 1.7 3.7.7 5.1-1.1 1.4-1.3 1.4-1.8.2-.4-.9-.2-1.8.3-2.1.6-.4.4-1.8-.5-3.6-2.1-4-1.2-3.7 1.3.4zM138 287c0 .5-.4 1-1 1-.5 0-1-.5-1-1 0-.6.5-1 1-1 .6 0 1 .4 1 1zm6.5 5.9c-.1.9-1 1.5-1.9 1.3-.9-.2-1.6.2-1.6.8 0 .5.5.9 1.1.7 1.6-.3 1.7 5.1.1 5.8-.7.2-1 0-.7-.5.5-.9-.6-1.4-2.6-1.2-.3.1-.6-.4-.6-1.1 0-.7-.4-2.1-.9-3.1-.5-1.4-.4-1.7.4-1.2.7.4 1.2 1.4 1.2 2.2 0 .8.5 1.4 1 1.4.7 0 .7-.6 0-1.9-.8-1.6-.6-2.2.7-3 1-.6 1.4-1.1.9-1.1-.5 0-.3-.7.4-1.5 1.5-1.8 3-.4 2.5 2.4zm138.5 3.5c0 .5-.6.3-1.3-.3-.8-.6-1.7-.8-2-.4-.4.3-.7.1-.7-.6s-.4-1-1-.6c-1.3.8 1 5.6 2.4 4.8.6-.3.5 0-.1.8-1.7 1.7-1.6 2.6.3 3.3 1.2.5 1.5.2 1-.9-.3-.9-.2-1.3.4-1 .6.3 1 1.3 1 2.1s.8 1.4 1.8 1.5c1.4 0 1.4.2-.3.9-1.9.8-1.9.9.2.9 3.1.1 4 2.1 1 2.1-2 0-2.4.4-2 2 .3 1 1.4 2.2 2.4 2.5 1.1.4 1.7.9 1.5 1.3-.2.4 1.1 2.3 3 4.2 2.2 2.1 3.1 3.7 2.4 4.4-.6.6-1.4.5-2.3-.2-1-.9-1.6-.9-2.5 0-1.5 1.5.9 3.8 4 3.8 1.3 0 4.7 1.5 7.7 3.3 2.9 1.7 6.5 3.8 8 4.6 3.7 2.1 5.7 4.7 10 13.6 5 10.6 6.8 15.2 7.6 19.8.5 3.3.9 3.7 2.8 3.3 1.2-.3 1.7-.3 1 0s-.9 1.3-.6 2.2c.4 1.4.3 1.5-.6.2-1.4-2-.4 9.1 1.1 11.5.8 1.4 2.3 21.8 2.1 29.3-.1 4.1-.8 7.3-1.9 9-1 1.5-3.4 6.7-5.4 11.7-2.7 6.9-4 8.9-5.3 8.7-.9-.2-1.7.1-1.7.6 0 2-11.9 13.1-14.6 13.7-1.6.4-4.6 1.3-6.7 2.1-2 .8-4.8 1.4-6.2 1.4-1.3 0-3 .6-3.7 1.4-.9.9-2 1.1-3.6.5-1.5-.6-3.1-.5-4.5.3-2.5 1.4-5.9 1.9-5.2.8.2-.4-1.3-.7-3.4-.7-5.3 0-10.6-3.2-10.7-6.4 0-1.3-.6-2.3-1.2-2.1-.7.1-1.1-.2-1-.6.2-.4-1.8-3.2-4.3-6.2-2.6-3-6.4-9.1-8.6-13.5-2.2-4.5-4.5-9-5.1-10-1.5-2.9-6.1-21.1-6.9-27.5-2.1-17.4.3-32.4 7.7-47.5 5-10 8.8-15.5 10.8-15.5.6 0 2-1.3 3.2-3 1.2-1.6 2.4-2.9 2.8-2.8.4.2 1.9-.6 3.4-1.6 2.6-1.7 5.4-1.4 4.3.4-.3.5 1.6.3 4.3-.5 2.7-.8 7.7-1.5 11-1.6 3.4-.1 6.3-.4 6.4-.8 0-.3.2-1.8.3-3.2.2-2.4-.1-2.6-3.2-2.2-1.8.2-3.3 0-3.2-.4.6-3.4-.2-5.1-2.1-4.6-1.1.3-2 1-2 1.5s.6.6 1.3.2c.8-.5.8-.3-.2.9-.7.9-1.7 1.4-2.2 1.1-.5-.3-.6.2-.3 1 .3.9.2 1.6-.4 1.6-1.1 0-1-2.5.1-3.6s.8-2.6-.3-1.9c-.5.3-1 .1-1-.4 0-.6-.7-1.1-1.5-1.1s-1.5-.7-1.5-1.6c0-.9.5-1.3 1.3-.9.6.4.2-.2-1.1-1.4-2.2-1.9-2.2-2-.2-2.6 1.1-.4 1.8-.9 1.6-1.3-.2-.4.2-1.3 1-2 .9-.8 1.4-.9 1.4-.2 0 .6.4.9.9.5.5-.3 1.3 0 1.7.6.4.8.3.9-.4.5-.8-.5-1 .3-.5 2.6.6 3 .5 3.2-1 2-1.4-1.2-1.6-1.1-1.4.5.1 1.3.9 1.8 3.1 1.8 2.4 0 3.1-.5 2.9-1.8 0-1.2.4-1.6 1.4-1.3.8.3 1.1.2.8-.3-.3-.5-.1-1.2.5-1.6.5-.3 1-1 1-1.6 0-.5-1 .1-2.2 1.3-1.3 1.3-2.2 2.6-2 3 .1.5-.2.8-.8.8-1.7 0-1.1-2.8 1.2-4.9 1.9-1.8 1.9-2.1.5-2.7-.9-.3-1.5-1-1.2-1.4.3-.4-.1-1.3-.9-1.9-1.8-1.5-.8-6.2 1.5-6.8 1-.3 1.6-1 1.3-1.7-.3-.6.4 0 1.5 1.4s2.1 2.9 2.1 3.4zm4.3-.9c-.3.9-.8 1.4-1 1.1-.3-.3-.2-.9.2-1.5.9-1.6 1.5-1.3.8.4zm-15.6 4c0 1.7-1.3 2-2.1.6-.4-.5 0-1.2.6-1.4.7-.3 1.3-.6 1.4-.6 0-.1.1.6.1 1.4zm37.8-.1c4.5 1.9 4.9 4.9.7 5.1-1.5 0-2.1-.4-1.7-1.3.3-.9 0-1.2-.9-.9-1 .4-1.3.1-.9-.9.3-.9-.1-1.4-1.2-1.4-.9 0-1.3-.5-1-1 .8-1.3.9-1.3 5 .4zM147 301c0 .5-.5 1-1.1 1-.5 0-.7-.5-.4-1 .3-.6.8-1 1.1-1 .2 0 .4.4.4 1zm142 5.2c0 2-1.8.5-2.3-1.9-.5-2.6-.4-2.6.9-.8.8 1 1.4 2.2 1.4 2.7zm-.8 6c-.9.9-1.5.9-2.4-.1-1.1-1.1-1-1.3.5-.8 1 .4 1.7.2 1.7-.5 0-.6.3-.8.7-.5.4.4.1 1.3-.5 1.9zm-57.3 5.8c5 2.7 8.7 7.2 7.5 9.1-.3.5.2 1.2 1 1.5 1.6.6 2.3 5.3.9 5.5-6.7.7-18 .5-22.1-.3-6.2-1.3-7.2-2.7-7.5-9.9-.2-4.3.2-5.4 2.2-7 3.6-3 11.3-2.5 18 1.1zm45.6 2c.3.5.1 1-.4 1-.6 0-1.1-.5-1.1-1 0-.6.2-1 .4-1 .3 0 .8.4 1.1 1zm8.5 2.5c0 .8-.4 1.5-1 1.5-.5 0-.7-.7-.4-1.5.4-.8.8-1.5 1-1.5.2 0 .4.7.4 1.5zm-8.6 2.4c-.4.3-.9 0-1.1-.7-.3-.6-1-.9-1.5-.6-.7.4-.8.2-.4-.5.6-.9 1.1-.9 2.2 0 .8.6 1.2 1.5.8 1.8zm18.6.1c0 .5-.5 1-1.1 1-.5 0-.7-.5-.4-1 .3-.6.8-1 1.1-1 .2 0 .4.4.4 1zm-139 .6c0 .8-1.9 1.3-2.4.6-.3-.5.1-.9.9-.9s1.5.2 1.5.3zm178.8 3.1c-.1 1 .1 2.4.6 3.2.6.8.1 2-1.5 3.5l-2.2 2.1 1.8-2.9c1.5-2.6 1.6-2.8.1-2.3-1.9.7-2.1-.4-.4-2.1.9-.9.9-1.2-.2-1.2-1.3 0-1.3-.2 0-1 2-1.3 2.2-1.3 1.8.7zm11.4.7c1.4 2.1.8 3-.7 1-.9-1.2-1.4-1.4-1.5-.6 0 1.4-2 .7-2-.7 0-1.2 3.4-.9 4.2.3zM156 331c0 .5-.5 1-1.1 1-.5 0-.7.4-.4 1 .4.6-.1.7-1.1.3-1.1-.4-1.3-.8-.6-1.1.7-.2 1-.8.6-1.3-.3-.5.2-.9 1-.9.9 0 1.6.4 1.6 1zm-3.7 4.5c-.3.9-.8 1.4-1 1.1-.3-.3-.2-.9.2-1.5.9-1.6 1.5-1.3.8.4zm3 1.2c-.6 1.7-.5 1.6 1.5 0 2.2-2 4.2-1.6 4.2.9 0 .8.4 1.4.9 1.4.4 0 .6 1.1.4 2.5-.3 1.3-.9 2.3-1.3 2.2-.4-.1-.8.1-.9.5-.1.5-1 1.7-2.1 2.8-2.2 2.2-2.6 4-1 4 .6 0 1-.7 1-1.5 0-1.8 2.6-2 3.4-.3.3.7.4.1.1-1.5-.4-2-.1-2.7.9-2.7.9 0 1.3.6 1 1.4-.3.7.2 2 1.1 2.9 1.4 1.4 1.3 1.6-.7 1.5-1.3-.1-2.9-.6-3.5-1.1-2-1.5-1.6 1.3.5 3.7 1.3 1.6 1.4 1.8.1.8-1.7-1.3-3.1-.4-4.1 2.8-.3 1-.6.8-1-.8-.4-1.2-.3-2 .2-1.7.4.3 1-.1 1.3-.9.3-.8-.1-1.3-1.1-1.2-1.1.1-1.7-.7-1.7-2 0-1.1-.7-2.9-1.5-4-1.4-1.9-1.4-1.9.7-.1 1.4 1.2 2.3 1.5 2.8.8.3-.6.1-1.1-.6-1.1-.8 0-.8-.5.2-1.8.7-.9 1-1.4.5-1-.5.4-1.8-.4-2.8-1.8-1.9-2.4-1.9-2.6-.3-4.4 2.2-2.5 2.6-2.5 1.8-.3zm195-.3c.4 1 .1 1.3-.9.9-.7-.3-1.4-.9-1.4-1.4 0-1.4 1.7-1 2.3.5zm-19.4 1c.8.9.8 1.6.2 2-.6.4-.7 1.4-.4 2.3.4 1.1.3 1.4-.6.9-.7-.4-1-1.3-.8-1.9.2-.7 0-2-.5-3-1.1-2.1.4-2.3 2.1-.3zm6 0c.9 1 .7 1.7-.6 2.7-1.6 1.2-1.7 1.2-.6-.2 1-1.2 1-1.8.1-2.7-.7-.7-.9-1.2-.6-1.2.3 0 1.1.6 1.7 1.4zm7.6.6c.3.5.1 1-.4 1-.6 0-1.1-.5-1.1-1 0-.6.2-1 .4-1 .3 0 .8.4 1.1 1zm-191 5c.3.6-.1.7-.9.4-1.8-.7-2.1-1.4-.7-1.4.6 0 1.3.4 1.6 1zm200 0c.3.5.1 1-.4 1-.6 0-1.1-.5-1.1-1 0-.6.2-1 .4-1 .3 0 .8.4 1.1 1zm2.5 3c0 .5-.4 1-1 1-.5 0-1-.5-1-1 0-.6.5-1 1-1 .6 0 1 .4 1 1zm-20 2.5c0 1.2-1.9 1.2-2.3 0-.4-.9-.1-1.2.9-.8.7.3 1.4.7 1.4.8zm-157 9c1.1 1.3 1 1.4-.4.9-.9-.3-1.6-1-1.6-1.5 0-1.3.6-1.1 2 .6zm.8 3c1.6-.3 1.9 0 1.5 1.2-.5 1.3-.2 1.3 2-.2 1.5-.9 2.7-1.3 2.7-.7 0 .6-.8 1.6-1.7 2.2-1.7 1.1-1.7 1.1 0 .6 1.2-.4 1.7-.2 1.4.6-.2.7-1 1.2-1.6 1-.7-.1-1 .3-.6 1s0 .5-.7-.4c-1.4-1.6-1.5-1.6-3 .2-.9 1-1.3 2.2-1 2.6.4.4.1.4-.5 0-.8-.4-1.3-.2-1.3.5s-1.1-.1-2.5-1.7c-1.3-1.5-2.2-3-1.9-3.3.3-.3.8 0 1.2.6 1 1.7 4.8 2.1 4.4.5-.1-.8.2-1.1.7-.8.5.4 1.2.2 1.6-.4.3-.5-.5-1.4-1.9-2-1.4-.5-3-1.9-3.6-3.2l-1.1-2.3 1.9 2.2c1.2 1.4 2.8 2.1 4 1.8zm192.3 1.7c.7 1.3.4 2.3-1.1 3.8-1.1 1.1-2.1 1.8-2.1 1.5-.1-.3-.3-1-.4-1.5-.1-.6-.4-2.5-.5-4.3-.2-2.9-.3-3-.9-.8-.8 3.1-3.2 4.1-2.6 1.1.2-1.2 1-2.8 1.6-3.6 1-1.2 1.5-1.2 3.1.3 1.1 1 2.4 2.6 2.9 3.5zm1.1-3.3c.7 1.1 1.8 1.7 2.7 1.3 1.4-.5 1.3-.3-.1 1.1-1.8 1.8-3.3 2.3-2.3.8.3-.6-.3-1.4-1.2-2-1-.6-1.3-1.1-.8-1.1.6 0 .3-.5-.5-1-1-.6-1.1-1-.3-1 .7 0 1.8.9 2.5 1.9zm5.3-.9c-.3.5-1.1 1-1.6 1-.6 0-.7-.5-.4-1 .3-.6 1.1-1 1.6-1 .6 0 .7.4.4 1zm-186 1.1c-.4.6 0 .9 1 .7 1-.2 1.9.4 2 1.3.3 1.7-.6 1.8-3.7.5-1.7-.8-1.4-3.6.4-3.6.5 0 .6.5.3 1.1zm-27 2.9c-.5.8 2.3 2.5 3.8 2.2 1.1-.3.8.5-.9 1.8-1.2 1.1-1.5 1.1-1.2-.1.2-.9-.5-1.4-1.8-1.3-1.1 0-2.1-.6-2.1-1.3 0-.7.4-1.3.9-1.3s.6-.5.2-1.2c-.4-.7-.3-.8.5-.4.6.4.9 1.1.6 1.6zm37.5-1.6c0 .2-.7.7-1.6 1-.8.3-1.2.2-.9-.4.6-1 2.5-1.4 2.5-.6zm328.4 8.1c3.3 3 6.3 5.5 6.8 5.5.4 0 .8.4.8 1 0 .5-1.6 1-3.6 1-3.2 0-3.5.2-2.4 1.5.7.9 1.1 1.7.9 2-.8.7-8.9-1.7-8.9-2.6 0-.5-.6-.9-1.4-.9-.7 0-1.9-.7-2.6-1.5-.7-.8-1.7-1.5-2.2-1.5-1.3 0 1.9 4.9 4.6 7.2 2 1.8 2 1.8.1 1.2-1.4-.4-1 .3 1.4 2.5 3.5 3.2 4.7 3.9 3.5 2-.9-1.6 3.6.9 6.4 3.4 1.2 1.1 2.2 2.6 2.2 3.3 0 .6.7 1.4 1.5 1.8 2.3.8 1.8 4.8-.9 7.7-2.9 3.1-7 2.9-8.8-.5-.6-1.1-1.4-2.3-1.7-2.6-1.1-.9-10.1-15-10.1-15.7 0-.5.7.1 1.5 1.1.8 1.1 1.7 1.7 2 1.5.3-.3-.6-2-2-3.9-1.3-1.8-2.2-3.6-2-4 .3-.4-.6-1.6-2-2.6l-2.4-1.8 5.2-5.7c3.1-3.4 5.8-5.6 6.7-5.3.8.2 4.2 2.9 7.4 5.9zm-333.5-2.8c.1.1 0 .6-.4 1.2-.4.7-1 .8-1.8.1-.7-.6-2.1-1.7-3.2-2.5-1.8-1.3-1.6-1.3 1.5-.2 1.9.6 3.7 1.3 3.9 1.4zm131.9-1.5c-.3 1.4 2.2 1.8 3.9.5.9-.6.9-.3 0 1.6-.6 1.3-1.7 2.4-2.4 2.4-1 0-1-.3 0-1.5 1-1.3.9-1.4-.8-.4-1.8.9-2.1.7-2.3-1.4-.1-1.3.3-2.4.8-2.4.6 0 .9.5.8 1.2zm32.7-.1c.3.3-.6 1.1-2 1.7-1.6.7-2.6.8-3 .1-.4-.5-.3-.9.2-.8 2 .3 2.7-.2 1.3-1.1-1.2-.8-1-.9.7-.7 1.2.2 2.5.6 2.8.8zm-158.1 1.5c.5 1.4.4 1.5-.9.4-1.7-1.4-1.9-2-.6-2 .5 0 1.2.7 1.5 1.6zm135.6-1.2c0 1.2-3.3 3.5-4.2 3-.5-.3.1-1.2 1.4-1.9 2.9-1.6 2.8-1.6 2.8-1.1zm11 .8c0 .6-.3.8-.6.5-.4-.3-1.6-.1-2.8.5-1.9 1-2 1-.7-.5 1.6-1.9 4.1-2.3 4.1-.5zm-159.7 4.6c-.1 2.5.3 4.2 1 4.2.6 0 .2.6-.8 1.4-1.8 1.3-1.8 1.5 1.1 4.1l2.9 2.7-2.9-2.1c-1.6-1.2-3.6-2.1-4.4-2.1-1.3 0-1.2-.3.4-1.5 1.2-.9 1.4-1.4.6-1.5-.7 0-1-.5-.7-1 .9-1.4-.9-1.2-2.4.2-1 1.1-1.1.9-.5-.7 1.1-2.9 3.3-6 4.1-5.7.4.2.9-.1 1.1-.6.2-.6-.5-1.3-1.5-1.6-1.5-.4-1.4-.4.2-.3 1.7.2 2 .9 1.8 4.5zM187 367c0 .5-.4 1-1 1-.5 0-1-.5-1-1 0-.6.5-1 1-1 .6 0 1 .4 1 1zm188.8.8c.6 1.8-1.5 1.4-2.2-.4-.4-1-.1-1.4.6-1.2.6.2 1.4 1 1.6 1.6zm-24.3.2c.3.5.1 1-.4 1-.6 0-1.1-.5-1.1-1 0-.6.2-1 .4-1 .3 0 .8.4 1.1 1zm14.5.5c-.7.9-1.5 1.3-1.7 1.1-.7-.7.7-2.6 1.9-2.6.6 0 .6.6-.2 1.5zm-158.6.9c-1 .8-2.1 1.2-2.4 1-.5-.6 2.1-2.4 3.4-2.4.6 0 .1.6-1 1.4zm-9 1.2c.4.9.4 1.9.1 2.2-.3.3-.5 0-.5-.6 0-.8-.7-.9-2.6-.2-1.6.7-2.3.7-1.9 0 .3-.6 1.3-1 2.1-1s1.2-.5.9-1c-.3-.6-.2-1 .3-1 .6 0 1.3.7 1.6 1.6zm139.6-.1c.7.9.8 1.5.2 1.5-.5 0-1.2-.7-1.6-1.5-.3-.8-.4-1.5-.2-1.5s.9.7 1.6 1.5zm11.5-.3c.4.4-.2.4-1.3.1-1.1-.2-2.3 0-2.6.6-.5.7.2 1.1 1.6 1.2 1.3 0 1.7.3 1 .6-.6.2-1 .8-.8 1.2.3.4-.4 1.2-1.4 1.9-1.2.7-2.1.8-2.5.2-.3-.6.1-1 1-1s1.4-.4 1-1c-.3-.5-1.2-.7-2-.3-1.1.3-1.5-.2-1.5-1.8 0-2.1.5-2.4 3.4-2.4 1.9 0 3.7.3 4.1.7zM175 371c0 .5-.2 1-.4 1-.3 0-.8-.5-1.1-1-.3-.6-.1-1 .4-1 .6 0 1.1.4 1.1 1zm198.1 1.7c-1.2 2-1.4 1.4-.5-1.2.4-.9.9-1.4 1.1-1.1.3.2 0 1.3-.6 2.3zm-164.6.7c0 1.5-.4 2.1-.9 1.6s-.6-1.6-.3-2.4c.9-2.2 1.2-2 1.2.8zm-5.8-.8c-.3.3-1.2.4-1.9.1-.8-.3-.5-.6.6-.6 1.1-.1 1.7.2 1.3.5zm129.7.9c-.6 1.6-2.4 2.1-2.4.7 0-1.1 1.1-2.2 2.1-2.2.5 0 .6.7.3 1.5zm25 1.7c-.4.5-1.1.5-1.8-.1s-1.7-.7-2.2-.3c-.4.4-.2-.1.5-1.1 1-1.3 1.7-1.5 2.7-.6.8.6 1.1 1.5.8 2.1zm22.9-1.8c.4 1 .1 1.3-.9.9-1.4-.5-2 1.2-.6 2 .4.2.1.2-.7 0-.9-.2-1.1.2-.7 1.4.6 1.6.6 1.6-1.2 0-1-.9-2.2-1.4-2.7-1-.4.5-.5.2-.1-.5s1.1-1 1.6-.7c.5.3 1.4-.4 2-1.5 1.3-2.4 2.6-2.6 3.3-.6zm-29.4 2.3c-1.1 1.2-.9 1.3 1.3.8 1.8-.5 2.7-.2 3.1.9.4.9 1.5 1.6 2.6 1.6 2.2 0 3.6 2.9 2.1 4.4-1.5 1.5-1.2 2.6.6 2.6 2.8 0 .8 2.5-2.2 2.7-1.6.1-4.1.4-5.6.7-1.6.2-2.8 0-2.8-.5s-.5-.8-1.2-.7c-1.4.4-2.7-5.2-2-8.7.2-1.4 1.3-3 2.4-3.6 1-.5 1.5-1.5 1.2-2.1-.4-.7-.2-.8.5-.4.9.6.9 1.1 0 2.3zm-151.2-1.1c-.3.3-1.2.4-1.9.1-.8-.3-.5-.6.6-.6 1.1-.1 1.7.2 1.3.5zm168.3.2c0 .5-1.2 1.4-2.7 2.1l-2.8 1.2 2.5-2.1c2.9-2.2 3-2.3 3-1.2zM195 376c0 .5-.8 1-1.7 1-1.5 0-1.6-.2-.3-1 1.9-1.2 2-1.2 2 0zm-14 .6c0 .8-1.9 1.3-2.4.6-.3-.5.1-.9.9-.9s1.5.2 1.5.3zm4 3.2c-.6.2-.3 1.6.7 3.5 1.4 2.8 1.4 3 0 1.9-1-.9-1.7-1-2.2-.2-.3.5-.1 1 .4 1 .6 0 1.1.5 1.1 1.1 0 .8-.4.9-1.3 0-.8-.6-1.8-.7-2.2-.3-.5.4-.4.1 0-.7.6-1.1.4-1.3-.9-.8-1.1.4-1.5.3-1.1-.4.4-.6 1.3-.8 2.1-.5 2.3.9 2.9-2.3.8-3.8-1.6-1.2-1.6-1.6-.4-3.1 1.3-1.6 1.5-1.6 2.7.1.9 1.2 1 2 .3 2.2zm186.3-1.2c-.5 1.3-.7 1.3-1.4.2s-.9-1-.9.1c0 .8-.3 1.2-.6.8-.9-.9.5-2.7 2.1-2.7.9 0 1.2.6.8 1.6zm-192.2 2.7c-1 .9-1.1.8-.5-.6.3-1 .9-1.5 1.2-1.2.3.3 0 1.1-.7 1.8zm194.6.3c-.3.3-1.2.4-1.9.1-.8-.3-.5-.6.6-.6 1.1-.1 1.7.2 1.3.5zm140.9 2.6c.9 1.5-1.8 2.9-4.1 2.1-2-.6-2-.6 0 1.6 1.4 1.6 1.6 2.4.7 3-2.3 1.4 9.7 11.1 13.8 11.1 2.7 0 2.6 1.8-.2 2.5-1.3.3-10.1.7-19.7.8l-17.4.4 2.9-2.6c1.6-1.5 3.9-3.9 5.2-5.5 1.6-2.1 2.2-2.4 2.2-1.2 0 1 .5 1.4 1.1 1 .6-.3 1.5-.1 1.9.5 1.2 2.1 5.8-4.4 7-10.2 1.1-4.9 1.5-5.3 3.6-4.9 1.4.2 2.7.9 3 1.4zm-317.2 0c-.3.4-.9.8-1.5.8-.5 0-.9-.4-.9-.8 0-.5.7-.9 1.5-.9s1.2.4.9.9zm346.3.8c1.8 2.8.6 5.2-2.1 4.4-1.1-.4-2.7-1.5-3.4-2.5-.7-1.1-2-1.9-2.8-1.9-.8 0-1.4-.5-1.4-1 0-.6 1.9-1 4.3-1 3.1 0 4.5.5 5.4 2zM193 389.7c0 .7-.5 1.3-1.1 1.3-.5 0-.7.5-.3 1.2.4.7.3.8-.4.4-.6-.4-.8-1.4-.5-2.3.4-1.1.3-1.4-.5-.9-1.8 1.1-1.5 2.5 1.3 5.7 2.5 3 2.5 6.2-.1 5.2-.8-.3-1.1-.9-.8-1.4.3-.5-.1-.9-.8-1-1 0-1-.2 0-.6 1.3-.5 1.7-2.4.5-2.2-2 .3-3.4-.2-2.8-1 .3-.5.1-1.2-.5-1.6-1.6-1-1.2-2.1 1.2-3.2 3.1-1.3 4.8-1.2 4.8.4zm13.5 7.3c.3.5.1 1-.4 1-.6 0-1.1-.5-1.1-1 0-.6.2-1 .4-1 .3 0 .8.4 1.1 1zm19.9 15.9c-.2.2-1.2-.3-2.1-1.1-1-.9-2.4-1.3-3-1.1-1.6.6-1.7-.9-.1-2.5.9-.9 1.7-.6 3.4 1.5 1.2 1.6 2 3 1.8 3.2zm1.6-2.9c0 .5-.4 1-1 1-.5 0-1-.5-1-1 0-.6.5-1 1-1 .6 0 1 .4 1 1zm105.6 6.1c-.9 1.3-1.6 1.8-1.6 1.2 0-.7.5-1.5 1.1-1.8.6-.4.8-1.4.4-2.4-.5-1.2-.3-1.3.6-.4.9.9.8 1.7-.5 3.4zm194.7 1.6c-1 2.1-3.7 6.3-6 9.3-2.3 3-4.6 6.7-5.2 8.3-.6 1.5-1.9 3.1-2.9 3.5-1.8.7-11 10.2-9.8 10.2.3 0-1.6 3.1-4.3 6.8-2.7 3.8-5.2 7.8-5.5 9-.4 1.2-1.1 2.2-1.6 2.2s-1.9 1.9-3.1 4.2c-1.2 2.4-2.6 4.6-3.2 4.9-.7.5-2 9-1.9 13.4.1 3.5 1.8 9.7 3.9 14.2 1.3 2.9 2.3 6.1 2.2 7-.1 1 .3 2.9.8 4.3.6 1.4.8 3 .6 3.6-.2.6.3 1.4 1.1 1.7.9.4 1.6 1.3 1.6 2.2 0 .8.8 2.3 1.8 3.3s5.3 8.3 9.7 16.3c4.3 7.9 11.3 20.5 15.5 27.9 7.9 14.1 9.5 18.6 5.9 17.7-1.3-.3-1.9 0-1.9 1.1 0 .8-.3 1.2-.6.9-.4-.4-2 .5-3.7 1.9-1.6 1.4-5.2 3.7-8 5-5.9 3-7.8 2.5-12.3-3.7-3.1-4.2-4.9-5.1-3.9-2 .9 2.8-1.2 3.6-2.6 1-1.1-2.1-1.2-2.1-2.1-.5-.8 1.4-.4 2.3 2 4.4 3.5 3.1 4.7 7.7 2 7.7-.9 0-2 .4-2.5.9-.4.5-.3.6.5.2.6-.4 1.2-.5 1.2-.2 0 .8-6.2 4-8 4.2-3.3.2-19.7 10.8-25.2 16.1-1.3 1.1-1.8 1.3-1.8.4s-.8-1.1-2.5-.7c-1.6.4-2.5.2-2.5-.5 0-.6-1.2-2-2.6-3.1-1.4-1.1-2.3-2.7-2-3.4.3-.8-.1-1.4-1-1.4-1 0-1.4-.6-1-1.5.3-.9-.1-1.8-.9-2.1-.8-.4-1.2-1.1-.8-1.7.3-.6-.7-2.1-2.3-3.4-1.6-1.2-2.3-2.3-1.6-2.3.9 0 .8-.7-.4-2.5-.9-1.4-2.5-2.5-3.6-2.5s-1.6-.5-1.3-1.1c.4-.5 0-1.8-.8-2.7-1.9-2.2-4.8-8.4-3.6-7.7.5.3.6-.1.3-.9-.3-.9-1-1.6-1.5-1.6s-.9-.7-.9-1.5-.7-1.5-1.5-1.5c-.9 0-1.2-.6-.9-1.5.4-1 0-1.5-1.2-1.5-1.6 0-1.7-.2-.4-1 1.3-.9.7-1.4-1.2-1.1-.5 0-.8-.8-.8-1.9 0-1.1-.4-2-1-2-.5 0-.6-.7-.3-1.7.4-1.1.3-1.4-.5-.9-.7.4-1.2.1-1.2-.8 0-2.6-2.2-6.6-3.3-5.9-.6.3-.7.2-.4-.4.4-.5-.1-1.9-1.1-2.9-.9-1-4.5-7.6-8-14.6s-6.8-12.8-7.3-13c-.6-.2-1.1-1.3-1.2-2.5 0-1.2-.3-2-.6-1.8-.2.3-1.3-.5-2.3-1.7-1.2-1.4-1.5-2.4-.8-2.6.8-.3.8-.8 0-1.7-.6-.8-.7-2.1-.2-3.6 1.2-3.2-.5-6.8-3.5-7.5-1.3-.4-2.6-1.6-2.9-3-.3-1.3-1-2.4-1.6-2.4-.5 0-.7.4-.4.9.3.5-1.8 1.1-4.7 1.4-6.1.6-8.2-.5-14.1-7-2.1-2.4-4.4-4.2-5-4.1-.6.1-2.1-.3-3.3-1-2.2-1.2-3.4 0-1.3 1.3.6.4.8 1.1.4 1.6-.3.5-1 .7-1.5.4-2.3-1.5-.5.9 3.8 4.9 2.6 2.5 4.4 4.9 3.9 5.3-1 1-37.5 1.1-39.7.2-.8-.4-2.2-2.6-2.9-4.9-1.6-4.9-3.6-6.7-2.6-2.4.5 2.5.3 2.3-1.6-1.1-2.5-4.8-3.5-3.2-1.9 3.2.7 2.5.9 4.8.6 5.1-.7.7-9.3 1.9-19.5 2.8-6.3.6-6.6.5-9.4-2.5-2.5-2.6-2.7-3.3-1.6-4.6 1.2-1.4 11.6-8.5 29.8-20.2l6.3-4.1 10.2.5c7.4.3 11 .9 13 2.2l2.8 1.8-2.7 1.8c-2.1 1.3-2.4 1.9-1.3 2.6 1.9 1.2 6.6 1.1 7.4 0 .3-.5.1-1.2-.5-1.6-1.6-1-1.2-2.5.5-1.9.8.4 2.1.1 2.9-.5 1.3-1.1 12.1-5 19.6-7.2 1.9-.5 4.4-1.4 5.5-1.9 6.8-2.9 19.5-3.5 27.1-1.1 3.5 1.1 4.2 1.9 5.8 6.2.9 2.8 1.5 5.8 1.1 6.7-.3 1.2.5 2.8 2.5 4.7 1.6 1.6 3 2.5 3 2 0-.4.8-.1 1.8.8 1.6 1.4 2.1 1.5 4.5.2 1.5-.8 2.9-1 3.2-.4.4.5 0 .9-.7.9-.8 0-.7.4.4 1.1.9.5 1.5 1.6 1.2 2.4-.4.8.1 1.8 1 2.1 1.6.6 5.3 11.1 4.2 12.1-.3.4 0 1.3.6 2.1.7.7 1.3 2.3 1.5 3.3.3 2.2 4.1 8 6 9.2.7.4 1.8 1.4 2.6 2.2.8.8 1.7 1.2 2 .9.3-.3 1.2.3 1.9 1.5s1.9 2.1 2.7 2.1c1 0 1.1-.3.2-1.4-.7-.8-1.4-3-1.6-4.8-.5-3.4-2.3-8.5-5.4-14.8-1-2.2-2.3-3.4-3.3-3.2-.9.1-1.9-.2-2.3-.8-.3-.5-1.5-1-2.5-1-1.8 0-2.6-1.8-4.6-10-.2-.8-.6-2.6-.9-4-.5-2-.2-1.8 1.3.9 1.3 2.3 2.1 3 2.5 2 .4-1 1.2-.6 3.1 1.6 1.4 1.6 2.5 3.3 2.6 3.7 0 1.3 4.9 5.6 5.6 4.9.4-.3.5.1.1 1-.4 1.1.3 2 2 2.8 2.4 1.1 2.5 1.1 1.3-.4-1.1-1.4-1.2-1.8 0-2.5 1.1-.7 1-1.4-.3-4.2-.9-1.9-2.5-4.2-3.7-5.3-1.1-1-2-2.4-2-3.2 0-.8-.9-3.2-2-5.3-1.1-2.2-1.6-4-1.1-4s1.2.6 1.4 1.2c.3.7.6.3.6-1 .1-1.9.5-2.2 2.1-1.7 1.2.4 2 .2 2-.5 0-.6.5-.8 1.1-.4 1.4.8.4-2.6-2.2-7.8-2-3.9-3.5-5.2-5.9-5.3-.8 0-2.4-1.7-3.5-3.8l-2-3.8 2.4-2c1.2-1 2.7-1.6 3.2-1.3.5.3.9-.2.9-1 0-.9.3-1.6.8-1.6.4 0 2.4-1.6 4.6-3.5 3.1-2.9 3.6-3.8 2.6-5-.6-.8-.9-1.9-.5-2.5.4-.6.1-1.7-.5-2.5-1-1.2-.9-1.5.8-1.5 2.6 0 7.2-6.1 7.2-9.6 0-2.5.2-2.6 4-2.1l3.9.5-.5-3.2c-.3-1.7-.7-3.6-.9-4.3-.2-.6 1.1-2.7 2.8-4.7 3-3.4 3.7-3.7 10-4.1 5.9-.3 6.7-.2 6.5 1.3-.2 1.1.9 2.3 3 3.4 4.3 2.1 4.9 2.7 3.4 3.7-1.6 1 4.4 6.6 8 7.5 2.3.5 2.6.3 2.1-1.1-.5-1.1-.3-1.4.6-.8 1 .5 1.1.2.7-1.3-.9-2.6-6-8.2-7.5-8.2-.7 0-1.4-.7-1.7-1.5-.4-.8-1-1.2-1.5-.9-.5.3-.9-.1-.9-.9 0-2.2 2.5-2.9 14-3.4 5.8-.3 10.6-.7 10.8-.8.1-.1 3.4-.3 7.2-.4l7-.2-1.7 3.8zM289.5 464c-.3.5-.2 1 .4 1 .5 0 1.2-.6 1.4-1.3.3-.7.6-.5.6.5.1 1.9-.7 2.2-3.4 1.2-1.3-.5-1.4-.8-.3-1.5 1.7-1.1 2-1.1 1.3.1zm3.2 27.6c-4.2 3-7.7 6-7.7 6.5s-.9.9-2 .9c-2.2 0-2.8-3.4-.9-4.6.8-.4.7-.9-.2-1.4-1-.7-1-1.1 0-2.4.8-.9 2-1.6 2.8-1.6 1.3 0 1.3.2.2 1.7-1.3 1.5-1.2 1.5.9.2 1.2-.8 2.2-1.7 2.2-2.2 0-1.3 4.2-2.6 8.5-2.6l3.9-.1-7.7 5.6zm31.8 17.4c.3.5.1 1-.4 1-.6 0-1.1-.5-1.1-1 0-.6.2-1 .4-1 .3 0 .8.4 1.1 1zm-63 15c.3.6-.4 1-1.7 1-1.8 0-2-.2-.8-1 1.9-1.2 1.8-1.2 2.5 0zm309.8 143.3c.6 1.7-.1 2.8-3 4.4-1.8 1-2.2.9-2.7-.4-.7-1.7 2-5.1 4-5.2.7-.1 1.4.5 1.7 1.2z"/><path d="M256.1 107.6c.8.9.9 1.8.3 2.2-.5.4-1 1.2-.9 1.8 0 1.8 11.7 14.4 12.7 13.8 1.4-.9 4.6 2.5 7.5 7.8 2.6 4.7 6.6 8.4 8.2 7.4 1.5-.9 4.3 3.1 3.7 5.2-.6 1.9.7 4 7.4 11.4 3.5 3.8 9.1 7.8 10.9 7.8 4-.1 4.4-1.6 1.7-6.6-2.9-5.7-13.2-16.8-14.7-15.9-1.2.8-6.2-2.3-5.5-3.3.7-1.1-2.8-8.3-5.2-10.8-1.1-1.1-3.1-3.8-4.5-6-1.3-2.2-4.5-5.5-7.1-7.4-2.5-1.9-4.6-4-4.6-4.5 0-2.1-4.1-4.5-7.6-4.5-3.2 0-3.5.2-2.3 1.6zM255.7 132.3c2.5 4.5 6.4 9.9 6.9 9.4.3-.2 0-1.6-.5-3.1-1.2-3-.5-3.4 1.6-.9.8 1 .4-.1-.9-2.4-1.3-2.4-2.7-4.3-3.2-4.3s-.3.7.4 1.5c.7.9 1 1.8.8 2.1-.3.3-1.6-.9-2.8-2.5-2.8-4.1-4.5-4-2.3.2zM276 141.5c.7.9 1.5 1.3 1.7 1.1.7-.7-.7-2.6-1.9-2.6-.6 0-.6.6.2 1.5zM256.1 153.7c1.1 3.4 1.9 4.2 1.9 2 0-.7-.7-2.2-1.5-3.3-1.3-1.7-1.4-1.6-.4 1.3zM303.4 170.6c.3.8.9 2.2 1.2 3.1.5 1.5.4 1.5-.5.3-.5-.8-1.3-1.1-1.8-.7-.4.5 1.6 2.9 4.4 5.5 2.8 2.6 7.1 7.4 9.5 10.6 3.9 5.4 14.6 15.1 15.6 14.1.2-.2-.8-2-2.3-4-1.9-2.4-2.2-3.3-1.1-2.9 2.3.9 2.1 0-2.6-8.4-4.7-8.5-10.4-15.2-13-15.2-1 0-1.8-.7-1.8-1.5s-.3-1.5-.7-1.6c-5.3-.8-7.4-.5-6.9.7zM276.8 174.6c.8 1.4.7 2.3-.5 3.6-1.4 1.6-1.4 1.8-.1 1.8.9 0 3 1.6 4.7 3.6 1.8 2 3.6 3.2 4.3 2.8.8-.5.9-.2.4 1.1-.5 1.4.6 3 4.6 6.6 4.9 4.4 5.4 4.6 6 2.8.9-2.4.2-4-6-12.9-5-7.1-7.8-10-9.8-10-.7 0-2-.3-3-.7-1.4-.5-1.5-.3-.6 1.3zm12.1 10.8c-.3.3-1.1-.5-1.8-1.7-1.3-2.1-1.2-2.1.5-.5 1 1 1.6 2 1.3 2.2zm4.2 6.1c.7 1.3.3 1.2-1-.5-1.1-1.4-2.1-3-2.1-3.5 0-1.1 1.4.7 3.1 4zm2.9 3.5c0 .5-.2 1-.4 1-.3 0-.8-.5-1.1-1-.3-.6-.1-1 .4-1 .6 0 1.1.4 1.1 1zM258.9 186.7l-.1 3.8-1-3c-1.4-3.9-1.7-4.2-2.8-2.6-.5.8-.1 4 1 7.8 1.8 6.6 4 10.4 4 6.9 0-1.2.5-1.6 1.5-1.2 1.9.7 2-2.3.1-8.6-.8-2.5-1.2-4.8-1-5.1.3-.3.1-.8-.5-1.2-.7-.4-1.1.8-1.2 3.2zM274 186.7c0 .6.7 2.7 1.5 4.7s1.3 3.6 1 3.6c-1.3 0 3.6 7.8 6.8 10.8 2.4 2.3 4.2 3.3 5.8 3 4-.5 3.5-4-1.3-9.5-2.4-2.7-5.3-6.3-6.6-7.9-1.7-2.1-2.2-2.4-1.8-.9.4 1.4-.3.9-2.4-1.5-1.7-1.9-3-2.9-3-2.3zM330.5 187.5c.4 1.1.8 2.7.9 3.5.3 2.4 1.1 3.3 5.8 6.7 3 2.1 4.9 2.9 5.8 2.3 1.2-.7 1.1-1.2-.5-3-1.4-1.6-2.1-1.8-2.7-.8-.7 1-.8.9-.6-.2.4-2.7-1.3-5.9-3.5-6.6-1.2-.3-3.1-1.4-4.1-2.3-1.8-1.5-1.9-1.5-1.1.4zM315 214.2c0 .4.5.8 1 .8.6 0 1 .7 1 1.6 0 .8-.4 1.2-1 .9-.5-.3-1-.2-1 .3 0 1.4 5.2 4.6 7.3 4.5 1.6-.2 1.6-.1 0 1.5s-1.6 1.7.1 2c1.2.3 1.5.9 1 2.5-.5 1.8-.4 2 .7 1 .9-.9 1.6-1 2.6-.1 1.9 1.6 6-.8 6.6-3.8.4-2.4.1-2.6-3.7-2.8-1.2-.1-2.8-1.7-4-4.1-1.9-3.5-2.7-4.1-6.4-4.6-2.3-.3-4.2-.2-4.2.3zM273.4 229.4c.1 2.3.7 4.9 1.1 5.7.8 1.2.6 1.2-.8 0-1.5-1.2-1.7-1.1-1.7.7 0 1.7 1.1 2.7 4 3.7 2.6.9 4.8 2 6.1 3.2 1.5 1.2 1.6 1.1 1.2-1.2-.3-1.5-.1-2.5.6-2.5 1.8 0 1.3-1.9-2.1-7.6-3.2-5.2-5.4-7.2-4.1-3.7.5 1.4.1 1.3-1.6-.5-1.2-1.2-2.4-2.2-2.6-2.2-.3 0-.3 2-.1 4.4zM288.7 225.7c-.2.5-.7 1.9-1 3.3-.6 2.5-.6 2.5 6.4 2.6 4.2 0 6.4-.3 5.6-.8-.9-.4-1.3-1.6-1-2.7.3-1.3-.2-2-1.9-2.4-3.2-.9-7.6-.9-8.1 0zM305.7 240.9c-.7 2.8.9 8.5 2.8 10.1.8.7 1.5 1.9 1.5 2.6 0 .8.5 1.4 1 1.4.6 0 1 .6 1 1.3 0 .7.7 2.2 1.6 3.3 1.5 1.8 1.5 1.8 1-1.1-.2-1.7-.8-3.9-1.1-5-.6-1.7-.3-1.6 1.6.5 1.8 2 2.1 2.1 1.4.5-.4-1.1-1.5-4-2.3-6.5-.8-2.5-2.1-5.4-2.9-6.5-1.3-1.9-1.3-1.9-1.3 0 0 1.8-.2 1.8-1.9-.4l-1.8-2.4-.6 2.2zM323 243.5c0 .5.5 1.7 1 2.5s1 1 1 .5c0-.6-.5-1.7-1-2.5s-1-1.1-1-.5zM230 183.1c0 .5.5.7 1 .4.6-.3 1-.8 1-1.1 0-.2-.4-.4-1-.4-.5 0-1 .5-1 1.1zM386.6 294.7c-4.5 1.1-9.3 5.3-12 10.3-2.4 4.3-2.8 6-2.4 10.3.9 9.3 2.9 12.4 10.2 15.7 7.4 3.4 12.3 3.7 19.3 1.4 5.5-1.9 8.6-4.1 12-8.7 2.2-2.8 2.4-4 2.1-10.4-.3-6.4-.7-7.6-3.3-10.3-5.9-6.3-18.3-10.2-25.9-8.3zM276.5 299c.3.5.8 1 1.1 1 .2 0 .4-.5.4-1 0-.6-.5-1-1.1-1-.5 0-.7.4-.4 1zM281.5 339.2c-7.1 2.7-13.6 13.8-13.9 23.8-.1 6.5 1.3 9.2 7.5 14.2 7.5 6 22.3 2.7 29-6.5 3.7-5 6.3-13.1 5.5-16.9-.8-3.8-5.2-10-9.2-12.7-3.7-2.6-14.4-3.6-18.9-1.9zM156.5 338c-.3.5-1.3.6-2.3.3-1.3-.4-1.2-.1.5 1.6 2.7 2.6 5.3 2.8 4.8.3-.2-.9-.4-2-.4-2.5-.1-1-1.9-.9-2.6.3zM187.8 371.7c.6.2 1.8.2 2.5 0 .6-.3.1-.5-1.3-.5-1.4 0-1.9.2-1.2.5zM182.6 378.7c-.6 1.4-.5 1.5.5.6.7-.7 1-1.5.7-1.8-.3-.3-.9.2-1.2 1.2zM479.1 448.6c1 1.2 1 1.7 0 2.3-.8.5 0 1.6 2.7 3.4 3.8 2.7 9 3.7 7.6 1.6-.3-.6-.1-1.5.7-2 1.1-.6 1-1.2-.5-2.8-1-1.1-2.2-1.8-2.6-1.6-.4.3-2.4-.2-4.4-1-4.5-1.9-5.2-1.9-3.5.1zM452.2 450.1c.2.6.8 1 1.3 1s1.1-.4 1.3-1c.2-.6-.4-1.1-1.3-1.1s-1.5.5-1.3 1.1zM471.7 455.8c-1.6.7-1.5 1 .8 4.2 1.4 1.8 2.5 3 2.5 2.5s1.4.4 3.2 2.1c1.9 1.8 2.9 2.3 2.5 1.2-.4-1.2-.2-1.5 1-1.1 2.6 1 .5-3.8-3.1-6.9-3.2-2.9-4-3.1-6.9-2zM476.1 465.7c.7 1.2 1.5 2 1.8 1.7.3-.2-.3-1.2-1.3-2.2-1.7-1.6-1.8-1.6-.5.5zM479 470.9c.5 1.1 1.5 2.3 2.1 2.7.6.3.3-.5-.6-2-2-3-3-3.5-1.5-.7zM387.3 493.7c.1 1.8.6 3.3 1 3.3.5 0 .7.6.4 1.2-.2.7.3 2.1 1.1 3.1 1.4 1.6 1.4 2 .2 2.8-1.2.8-1.1.9.5.5 1.5-.4 3.5.7 7 3.7 5.5 4.7 8.5 5.5 10.2 2.8 1-1.6-.1-3-7.8-10.4-5.8-5.5-8.8-7.8-8.4-6.4.6 1.8.2 1.7-1.9-.8l-2.5-3 .2 3.2zM405 492c-1.2.8-.9 1 1.3 1 1.5 0 2.7-.5 2.7-1 0-1.3-2-1.3-4 0zM411.8 491.7c.6.2 1.8.2 2.5 0 .6-.3.1-.5-1.3-.5-1.4 0-1.9.2-1.2.5zM402.1 495.5c.9.9 12.9 1.3 12.3.4-.3-.5-3.3-.9-6.6-.9-3.4 0-5.9.2-5.7.5zM468.7 502.1c.9.9.9 1.6 0 3-.8 1.3-.8 2.4.1 4.4.7 1.4 1.2 4.1 1.2 6 0 3.2 2.8 9.2 11.1 24.1 1.6 2.9 2.9 6.2 2.9 7.3 0 1.2.3 2.1.8 2.1.4 0 1.3 1.5 2.1 3.2.8 1.8 2.8 4.9 4.5 6.8 1.7 2 4.3 5.1 5.9 7 1.5 1.9 2.7 3.2 2.7 2.9 0-.2-2-4.4-4.5-9.3-2.4-4.9-4.2-9.3-3.9-9.7.3-.5 0-1.7-.6-2.6-1-1.6-1.1-1.6-.6.2.4 1.5-.1 1.2-1.9-1-2.6-3.2-3.4-6.1-1.2-4.9.7.4.9.3.4-.2s-1.4-.9-2-.9c-1.3 0-7.6-10.4-7.6-12.5 0-1.1.3-1 1.4.4 1.9 2.5 1.9 2-.1-3.8-.9-2.6-1.4-5.9-1.1-7.3.5-2.7-3.1-14.3-4.5-14.3-.4 0-.5.7-.2 1.5 1 2.5-1.2 1.7-2.6-1-.7-1.4-1.8-2.5-2.4-2.5-.6 0-.6.4.1 1.1zm6.7 9.4c.3.8.1 1.5-.4 1.5-.6 0-1-.7-1-1.5s.2-1.5.4-1.5.6.7 1 1.5zM414 518c0 3.3 4.5 15.6 6.7 18.1.7.8 1.3 2 1.3 2.6 0 1.7 5 5.7 7.5 6 2 .3 2.3 0 1.8-1.3-.4-1.2-.3-1.5.5-1 2.3 1.4 1.2-2.5-2.9-10.2-5.8-10.9-9-15.4-10.6-14.8-.7.3-1.3.1-1.3-.3 0-.5-.7-1.1-1.5-1.5-1.1-.4-1.5.2-1.5 2.4zM461 530.6c0 .3.8 1.8 1.8 3.2 7 10.8 7.5 12.1 6.3 16.2-1.9 6.3-1.4 10.8 1.1 11.6 1.4.4 2.5.1 3.3-1 1.1-1.4 1.3-1.3 2.5.9.7 1.4 1.7 2.5 2.2 2.5 1 0 1.1-1.4.1-2.4-.8-.7-1.1-2.7-1.6-8.8-.1-1.4-.5-2.4-.8-2.2-.3.2-3.7-4.4-7.4-10.1-6.4-9.9-7.5-11.3-7.5-9.9z"/><path d="M483 534.6c0 .5.7 1.9 1.5 3 .8 1 1.5 1.4 1.5.8 0-.5-.7-1.9-1.5-3-.8-1-1.5-1.4-1.5-.8zM438.6 570.4c-1 3.9 2 11.3 8.1 20.3 3.2 4.7 6.6 9.7 7.5 11.1 2.2 3.4 4.3 4.4 9.4 4.8 5.5.3 7.1-1.3 5.3-5.6-.8-1.6-1.7-3-2.1-3-.5 0-.8-1.1-.8-2.5s-.4-2.5-.9-2.5-.8-1.2-.7-2.8c.2-1.7-.6-4.1-2.3-6.4-3.1-4.4-4.1-4.7-4.1-1.2 0 3.3-1 2.6-5.4-3.8-5.5-8.1-6.9-9.5-10.3-10.1-2.7-.5-3.2-.3-3.7 1.7zM482.1 577.7c1.4 4.3 3.3 5.8 4.8 3.9 1-1.1 1-1.9.1-3.3-.9-1.6-1-1.5-.5.7.6 2.3.4 2.2-2.4-1l-3.1-3.5 1.1 3.2zM490 6.4c0 .2.7.7 1.6 1 .8.3 1.2.2.9-.4-.6-1-2.5-1.4-2.5-.6zM543.5 358c.3.5.8 1 1.1 1 .2 0 .4-.5.4-1 0-.6-.5-1-1.1-1-.5 0-.7.4-.4 1zM550 360.6c0 1 3.3 3.3 4.8 3.4.6 0 1.2-.5 1.2-1 0-.6-.3-.9-.7-.9-2 .3-3.4-.2-2.8-1.1.3-.6-.1-1-.9-1-.9 0-1.6.3-1.6.6zM574.2 419c-.7 1.2-1 2.6-.6 3.2.5.8.2.9-.9.5-1-.3-1.7-.2-1.7.3 0 .6.4 1 .9 1 .8 0 10.3 5 21.6 11.4 1.1.6 4.5 3 7.5 5.2 6 4.5 17.5 11.1 13 7.4-1.4-1.1-3-2.4-3.5-2.8-.6-.5-1.5-1.1-2.1-1.3-2.7-1.1-11.3-7.4-10.5-7.7.5-.2 4.8 1.7 9.6 4.2 9 4.8 10 5.2 9 3.6-.3-.6-.1-1 .5-1 1.1 0 12.2 3.1 21.6 6 1.7.6 3.9 1 5 1 1.9-.1 1.9-.1 0-1.5-1.1-.8-2.8-1.5-3.8-1.5s-1.8-.5-1.8-1.1c0-.7.7-.8 1.8-.4 3.4 1.4 5.2 1.7 5.2.9-.1-1.1-8.3-5-12.5-6-1.6-.4-4.1-1.2-5.5-1.9-5-2.6-9.8-4.5-11.3-4.5-.8 0-4.4-1.3-7.9-3-3.4-1.6-6.8-3-7.4-3-.6 0-4.8-1.8-9.3-4-4.5-2.2-8.6-4-9.1-4-.6 0-1-.4-1-.8 0-.5-.6-.9-1.2-.9-.7 0-2-.3-2.8-.7-.9-.4-2 .2-2.8 1.4zM574.1 444.7c.8 1 3.3 3.7 5.7 6 2.5 2.2 4.1 4.6 3.8 5.2-.4.6-.1.9.7.5 1.6-.6 12 8.3 11.2 9.6-.3.4 1.2 2 3.2 3.6 2 1.5 3.3 2.2 2.9 1.6-1.1-1.9.3-1.4 3.2 1 1.5 1.2 1.9 1.8 1 1.5-3.3-1.2-1.7.8 4 5 3.1 2.3 6.6 4.9 7.7 5.7 8.9 7 11.2 8.6 12.3 8.6.6 0 1.2.4 1.2 1 0 1.5 11.9 9.2 13.2 8.4.6-.4.8-.3.5.3-1 1.5 4.1 4.6 8.2 4.9 1.9.1 4.7 1.2 6.2 2.3 3.3 2.4 3.9 2.6 3.9.8 0-1.7-7-9.1-15.5-16.3-9.7-8.3-12.6-10.7-14-12.1-3.3-3.1-19.8-14.4-24.6-16.7l-5.4-2.7 3.3 3.1c1.9 1.7 3.2 3.4 2.9 3.7-.5.5-13.9-9.2-18.7-13.5-1.4-1.2-2.8-2.2-3.2-2.2-.4 0-1.8-1-3-2.3-3.3-3.1-10.6-8.7-11.4-8.7-.3 0 0 .8.7 1.7zm25.5 23.4c1.9 2.2 1.9 2.2-.3.8-1.3-.8-2.3-1.7-2.3-2.1 0-1.2.6-.9 2.6 1.3zm15.8 3.9c7.2 4 11.6 7.3 11.6 8.7 0 1.1-.8.9-3.2-.8-1.8-1.3-3.5-2.6-3.8-3-.3-.3-2.4-1.8-4.7-3.3-3.9-2.4-5.2-3.6-3.8-3.6.2 0 2 .9 3.9 2zm15.6 12c.6 1.1.9 2 .7 2-.2 0-1.2-.9-2.2-2-1-1.1-1.3-2-.7-2 .6 0 1.6.9 2.2 2zm4.5 3c.3.5.2 1-.4 1-.5 0-1.3-.5-1.6-1-.3-.6-.2-1 .4-1 .5 0 1.3.4 1.6 1zM540.8 457.2c1.9 1.9 1.4 2.6-1.3 2-2.1-.3-2.5 0-2.5 1.8 0 1.9-.4 2.1-2.7 1.5-2.7-.6-2.7-.6-1 1.3 1.2 1.3 2.6 1.8 3.9 1.4 1.4-.3 1.9-.1 1.4.6-.4.8 0 1.2 1.1 1.2 1.7 0 9.3 3.6 21 10 2.3 1.3 10.2 6.8 17.5 12.2 7.3 5.5 14.2 10.4 15.3 11 1.8 1 1.9 1 .6-.5-2.1-2.6-.5-2 4.6 1.5 2.5 1.7 6.1 3.2 7.9 3.4 3.1.2 3.3 0 2.4-1.7-.6-1-.8-1.9-.5-1.9.3 0-2.8-3.3-6.8-7.3-4.6-4.5-9.5-8.3-13.2-10.1-3.3-1.6-11.4-6.5-17.9-10.8-6.6-4.4-13.1-8.4-14.4-8.9-1.3-.5-3.8-1.9-5.5-3.2-3.5-2.6-11.9-5.5-9.9-3.5zM613.6 464.5c1 .8 2.5 1.5 3.2 1.5.6 0 1.2.4 1.2.9s.9 1.1 2 1.4c3 .8 2.4 0-2-2.8-4.2-2.7-7.7-3.5-4.4-1zM624 471c0 .5.5 1 1 1 .6 0 1-.5 1-1 0-.6-.4-1-1-1-.5 0-1 .4-1 1zM628 473.4c0 1 3.5 4.2 5.4 4.9 2.8 1.1 1.4-1.2-2.2-3.4-1.7-1.2-3.2-1.8-3.2-1.5zM638 482.5c1.9 1.4 3.7 3 4.1 3.7.5.7 1.1 1 1.4.6.9-.9-5.4-6.8-7.3-6.8-1 0-.3.9 1.8 2.5zM647.7 490.9c.3 1.2.9 2.1 1.4 2.1 1.4 0 1.1-1.6-.5-2.9-1.2-1-1.3-.8-.9.8zM542.6 493.5c.4 1.5.2 2.5-.5 2.5-1.7 0-1.3 1.3 1.2 4 6.1 6.9 18.8 21 22.3 25 10.8 12.4 29.2 30.6 31.9 31.6 4 1.6 6.8.3 7.9-3.5.7-2.5.5-3.5-.9-5.1-1-1.1-1.4-2-.8-2 1.6 0 .5-7-1.7-9.7-3.3-4.2-12.6-12-21.9-18.3-8.5-5.8-11.5-8.3-22.1-18.3-8.7-8.3-10.1-9.2-11.1-7.6-.6 1.1-1.1 1.1-2.1.1-1.9-1.9-2.9-1.4-2.2 1.3zM522.1 504.5c.6 1.6 1.3 4.8 1.5 7 .4 3.5.8 6.4 1.3 8.6 0 .3 1.3 1.1 2.7 1.8 1.7.7 2.4 1.7 2 2.7-.7 1.8 1.4 5.4 3.1 5.4.7 0 1 .6.7 1.4-.9 2.2 6.4 11.4 10.4 13.3 2.1.9 4 2.2 4.4 2.7 1.1 1.6-1.4 2.6-3.1 1.3-.8-.7-.5.3.8 2 1.2 1.8 2.6 3.3 3.1 3.3s.7.6.4 1.3c-.3.8 1.2 2.8 3.2 4.5 3.8 3.3 6.1 4.2 4.8 1.9-.4-.6.3-.3 1.5.8 1.9 1.6 1.7.9-1.3-4.9-3.9-7.5-4.1-8-2.6-7.1 1.4.9 1.3-.8-.2-2.3-.6-.6-.8-1.5-.4-1.9 1.2-1.2 2.7 2 2 4.6-.4 2.1-.3 2.3 1 1.2 1.3-1.1 2.4-.5 6.8 3.8 2.9 2.8 5.7 5.1 6.1 5.1 1 0-2.5-5.1-4.8-7-.8-.7-1.5-1.7-1.5-2.3 0-.5 1-.2 2.2.9l2.2 1.9-2-2.7c-1-1.5-2.4-2.6-3.1-2.3-.7.2-1-.2-.7-.9.3-.7-.3-1.9-1.2-2.7-1.6-1.3-1.7-1.2-1 .5.7 1.9.6 1.9-1.3.2-1.1-1-1.7-2.4-1.5-3.1.3-.7-2.8-4.8-6.8-9.2-4-4.3-8.4-9.3-9.7-11.1-1.4-1.8-3-3.1-3.7-2.8-.9.3-1.1-.1-.7-1.1.5-1.3.2-1.5-1.1-1-1.4.6-1.6.3-1-1.5.5-1.6.3-2-.9-1.5-1.1.4-1.5 0-1.4-1.1.1-1.5-5-11.2-5.8-11.2-.2 0 .3 1.7 1.1 3.7l1.5 3.8-4.1-4.5c-3.7-4.1-3.9-4.3-2.9-1.5zm20.8 24c-.3.2-1.6-1-2.9-2.8l-2.3-3.2 2.9 2.7c1.5 1.5 2.6 3 2.3 3.3zM539 537c0 .5-.2 1-.4 1-.3 0-.8-.5-1.1-1-.3-.6-.1-1 .4-1 .6 0 1.1.4 1.1 1zm11 14c1.2.8 1.1 1-.7 1-1.3 0-2.3-.5-2.3-1 0-1.3 1.1-1.3 3 0zm3.1 3.3c-.1 1.2-1.5.9-1.9-.4-.3-.6.1-1 .8-.8.6.3 1.1.8 1.1 1.2zM578.5 506.4c2.2 1.9 4.2 3.2 4.5 2.9.6-.6-6.1-6.3-7.5-6.3-.5 0 .8 1.6 3 3.4zM273.8 547.1c-1 1.7-1.8 4.1-1.8 5.4 0 1.3-.4 2.6-.9 2.9-.5.3-1.1 1.8-1.4 3.3-.2 1.6-1.7 7.5-3.2 13.3-4.4 17-10.5 45.3-9.9 46.1.3.5-.1 2.8-.8 5.1-.7 2.4-1.3 4.7-1.3 5.3-.1.5-.5 3.5-1 6.5s-.8 6.2-.6 7.2c.1.9-.3 1.9-.8 2.2-.6.4-.8 1.3-.4 2.2.4 1.2.8 1.2 2.2.2.9-.7.6-.1-.7 1.4-1.8 2-2.1 2.8-1 3.4.7.5 2.1.7 3.1.5 1.5-.2 1.8.2 1.2 2.1-.7 2.2-.6 2.2.8.3 2.1-3 3.3-7.4 6.7-25 1.7-8.8 3.5-17.6 4-19.5l.8-3.5.2 4 .2 4 1.3-5.5c.7-3 1.1-5.7.9-5.9-.2-.2 0-.9.6-1.6.9-1.1 2-7 2.5-13.5.1-1.9.5-4.2.8-5 1.2-3.3 1.5-6 .5-6-.5 0-.6-.5-.2-1.2.4-.7.9-2.7 1.1-4.5.2-1.8 1.5-7.6 2.8-13 1.4-5.4 2.5-10.7 2.5-11.8-.1-1.9-.1-1.9-1.4-.3-1.7 2.3-2.2 2.3-2.9-.2-.7-2.8-1.9-2.5-3.9 1.1zm-17.1 103.1c-.3.8-.6.5-.6-.6-.1-1.1.2-1.7.5-1.3.3.3.4 1.2.1 1.9z"/><path d="M542 546c0 .5.5 1 1 1 .6 0 1-.5 1-1 0-.6-.4-1-1-1-.5 0-1 .4-1 1zM324.3 551.1c-1 1.4-2.3 5.7-2.8 9.6-.2 1.2-.6 2.7-1 3.3-.4.7-.9 3.5-1.2 6.4-.2 2.8-1.1 6.8-1.9 8.9-.7 2-1.6 5.9-2 8.5-.3 2.6-1.2 8.5-2 13.1-.7 4.6-1.4 9.5-1.4 11 0 1.4-1.5 8.5-3.3 15.6-3.7 15.1-4 18.1-1.4 17.9.9-.1 1.7.2 1.7.7 0 1.8 3 .8 4.6-1.6 2.1-3.2 6.9-16.3 8.9-24.1 3.5-14 11-64.4 10-67.5-.9-2.6-2.5-2.4-2.5.3 0 2.2-.1 2.2-2.3-.6-1.8-2.3-2.5-2.6-3.4-1.5zM353.4 555.8c-2.5 2-3.2 8.3-3.8 35.7-.2 9.3-.7 29.3-1.2 44.2-.7 26.2-.6 27.3 1.2 28 1 .3 2.2 1.1 2.6 1.7 1.1 1.6 3.4-1 4.7-5.3.6-2.2 1.3-7.2 1.6-11.3.3-4 1-9.3 1.7-11.7 1-4 1.3-4.2 2.5-2.5 1.1 1.5 1.3.4 1.3-8.2-.1-5.4-.5-11.9-1-14.4-.6-2.5-1.3-12.6-1.6-22.5-.3-9.9-.7-19.1-.8-20.5-.2-1.4-.4-5.2-.5-8.5-.1-5.5-.3-5.8-1.6-4.1-1.4 1.9-1.5 1.9-2.2-.2-.8-2-.9-2-2.9-.4zM371.2 562.3c-.6.7-.9 3.7-.7 6.8.9 11.8 1.7 19.4 2.1 20 .2.4.8 4 1.4 8 2.4 17.1 6.5 31.3 9.8 34.4 2.5 2.4 2.8 2.4 4 .8.7-1 1.8-1.7 2.3-1.5 1.2.3 1.2.3-1.5-11.7-3.3-14.3-5.5-26-6.6-35.6-.5-4.4-1.6-11.4-2.6-15.5-1.7-7.3-1.7-7.4-2.9-4.6l-1.2 2.9-.7-2.7c-.7-2.9-1.8-3.3-3.4-1.3zM556.5 565c.3.5 1.1 1 1.6 1 .6 0 .7-.5.4-1-.3-.6-1.1-1-1.6-1-.6 0-.7.4-.4 1zM306 567c-.6 1.1-1.7 2-2.5 2s-1.5.5-1.5 1.1c0 .5.4.7 1 .4.6-.3.7.1.4.9-.3.9-1.1 1.4-1.7 1.3-.6-.1-2.6 2.3-4.4 5.3-3 5-3.3 5.2-3.3 2.5 0-4.6-.8-2.5-1.5 4-.3 3.3-1.5 8.9-2.6 12.5-3.1 10.2-5.8 27.9-4.8 31.3.5 1.7.6 3.4.3 3.8-.3.5.2.6 1 .3.9-.3 1.6-1 1.6-1.5s.8-.9 1.9-.9c1.1 0 2.1-.9 2.5-2.3.9-3 7.6-28.5 8.6-32.2 1-4 4.2-13.4 7.4-21.9 3.1-8.2 3.2-9.5.6-7.1-1.1 1-2 2.4-2 3.1 0 .7-.5 1.6-1.1 1.9-.5.4-.3-.9.5-2.9 1.6-3.9 1.4-4.9-.4-1.6zm-1.5 8.9c-.3 1.2-1 2.1-1.5 2.1s-.4-1.1.2-2.5c1.3-2.9 2.3-2.6 1.3.4zM394.2 573.5c-1.6 3.5-1.5 6.4.2 7.1.8.3 1.3 1.1 1 1.8-.3.7.8 2.5 2.3 4.1 1.7 1.8 2.2 2.6 1.1 2.2-2.6-.9-1.2 1.6 2.1 4.1l2.9 2.1-.5-2.2c-1.3-5.8-5.5-18.6-6.7-20.2-1.1-1.5-1.3-1.4-2.4 1zM390 577.9c0 1.1.5 2.3 1 2.6.6.3 1-.3 1-1.4 0-1.1-.4-2.3-1-2.6-.5-.3-1 .3-1 1.4zM401.8 578.6c-.4.5 0 1.8.8 2.9 1.5 2 1.7 1.2.5-1.9-.4-1.1-1-1.5-1.3-1zM392 583.9c.5 1.1 1 2.9 1 4.1 0 1.2.5 2 1.1 1.8 1.3-.4 1.3-.4-.3-4.6-.7-1.7-1.6-3.2-2.1-3.2-.4 0-.3.9.3 1.9zM404.1 586c0 .8.4 2.2.9 3 1.2 1.8 1.2.2 0-2.5-.6-1.3-.9-1.5-.9-.5zM394.3 594.4c.7 4.4 1.1 5.1 2.6 4.2.7-.5.7-1.5-.1-3.4-2-4.6-3.1-5-2.5-.8zM397.1 603c.6 1.6 1.5 3 1.9 3 .5 0 .3-1.4-.3-3-.6-1.7-1.5-3-1.9-3-.4 0-.2 1.3.3 3zM398 608.2c.1 2.2 3.6 6.2 4.4 4.9.4-.6.3-1.1-.2-1.1-.6 0-1.3-1.1-1.6-2.5-.7-2.6-2.6-3.5-2.6-1.3zM267.2 622c-1.5 2.4-1.5 3-.2 3 .6 0 1-.7 1-1.5s.5-1.5 1-1.5c.6 0 1-.5 1-1 0-1.6-1.4-1.1-2.8 1zM266 626.4c0 .2-.5 2.8-1.1 5.7-.5 3-1.2 6.9-1.5 8.8-.2 1.9-.7 3.8-1 4.2-.3.5.1.9 1 .9 1.3 0 3.1-5.6 3.5-11 0-.8.4-3.2.7-5.3.4-2.4.2-3.7-.5-3.7-.6 0-1.1.2-1.1.4zM261.6 648.7c-.6 1.4-.5 1.5.5.6.7-.7 1-1.5.7-1.8-.3-.3-.9.2-1.2 1.2zM260.6 658.6c-.8 2.2-.7 3.4.3 3.4.5 0 1.1-1.1 1.3-2.5.6-2.8-.6-3.4-1.6-.9zM572.9 688.3l-2 2.2 3 .3c1.7.2 3.9-.2 4.8-.8 1.3-.8 1.4-1 .3-.9-3.1.3-4.4-.3-2-1l2.5-.7-2.3-.6c-1.6-.5-2.9 0-4.3 1.5z"/></svg>