<svg width="100px" height="100px" viewBox="0 0 100 100" version="1.1" xmlns="http://www.w3.org/2000/svg" xmlns:xlink="http://www.w3.org/1999/xlink" xml:space="preserve" style="fill-rule:evenodd;clip-rule:evenodd;stroke-linejoin:round;stroke-miterlimit:1.41421;"><g><path d="M81.982,81.281c-5.716,-13.355 -6.982,-6.347 -3.452,2.003c-1.92,1.747 -3.128,4.268 -3.128,7.068c0,5.273 4.269,9.548 9.542,9.548c1.364,0 2.661,-0.284 3.834,-0.799c0.121,0.006 0.241,0.006 0.364,0.006c3.851,0 7.016,-3.165 7.016,-7.015c-0.001,-2.046 -0.894,-3.898 -2.309,-5.184c-1.381,-3.568 -4.848,-6.103 -8.905,-6.103c-1.036,0 -2.029,0.171 -2.962,0.476l0,0Z" style="fill:#751a83;fill-rule:nonzero;stroke:#000;stroke-width:0.15px;"/><path d="M58.555,79.324c1.555,-7.242 -2.392,-7.701 -3.861,-0.853c-0.028,0 -0.057,0 -0.086,0c-5.273,0 -9.548,4.274 -9.548,9.548c0,2.206 0.752,4.24 2.01,5.857c0.682,3.157 3.508,5.548 6.857,5.548c2.58,0 4.851,-1.421 6.07,-3.517c2.512,-1.72 4.159,-4.614 4.159,-7.888c0,-3.864 -2.299,-7.193 -5.601,-8.695l0,0Z" style="fill:#751a83;fill-rule:nonzero;stroke:#000;stroke-width:0.15px;"/><path d="M70.167,17.1c-8.949,-2.392 -10.107,1.555 -2.606,3.425c-0.536,1.193 -0.833,2.514 -0.833,3.907c0,4.529 3.155,8.317 7.386,9.297c1.174,0.887 2.631,1.415 4.204,1.415c3.853,0 7.023,-3.165 7.023,-7.016c0,-0.205 -0.016,-0.407 -0.034,-0.608c0.333,-0.97 0.516,-2.005 0.516,-3.088c0,-5.271 -4.274,-9.548 -9.547,-9.548c-2.325,0 -4.454,0.834 -6.109,2.216l0,0Z" style="fill:#751a83;fill-rule:nonzero;stroke:#000;stroke-width:0.15px;"/><path d="M17.82,36.815c-1.135,-4.96 -5.17,-4.881 -3.921,0.583c-4.56,1.698 -7.162,6.623 -5.878,11.418c0.679,2.531 2.307,4.548 4.404,5.773c1.679,2.178 4.578,3.264 7.386,2.512c2.441,-0.654 4.243,-2.55 4.913,-4.827c0,-0.002 -0.001,-0.005 0,-0.007c1.805,-2.285 2.55,-5.367 1.738,-8.397c-1.091,-4.071 -4.655,-6.813 -8.642,-7.055l0,0Z" style="fill:#751a83;fill-rule:nonzero;stroke:#000;stroke-width:0.15px;"/><path d="M86.815,52.81c-8.596,-5.596 -10.954,-2.278 -3.557,2.414c-1.582,1.703 -2.553,3.984 -2.553,6.493c0,4.068 2.545,7.538 6.13,8.913c1.285,1.696 3.32,2.803 5.594,2.803c3.85,0 7.015,-3.165 7.015,-7.015c0,-0.534 -0.064,-1.054 -0.179,-1.554c0.346,-0.987 0.529,-2.044 0.529,-3.147c0,-5.273 -4.268,-9.548 -9.541,-9.548c-1.213,0 -2.37,0.228 -3.438,0.641l0,0Z" style="fill:#751a83;fill-rule:nonzero;stroke:#000;stroke-width:0.15px;"/><path d="M35.599,62.324c0.066,-9.616 -3.89,-8.676 -3.96,-0.284c-4.654,0.639 -8.239,4.627 -8.239,9.455c0,2.004 0.618,3.86 1.673,5.395c0.21,3.669 3.284,6.619 7.002,6.619c2.88,0 5.371,-1.769 6.446,-4.272c2.404,-1.733 3.974,-4.551 3.974,-7.742c0,-4.351 -2.914,-8.02 -6.896,-9.171l0,0Z" style="fill:#751a83;fill-rule:nonzero;stroke:#000;stroke-width:0.15px;"/><path d="M78.319,25.067c1.715,0 3.061,1.346 3.061,3.061c0,1.714 -1.346,3.062 -3.061,3.062c-1.714,0 -3.061,-1.348 -3.061,-3.062c0,-1.714 1.347,-3.061 3.061,-3.061Z" style="fill:#b400d1;fill-rule:nonzero;stroke:#000;stroke-width:0.15px;"/><path d="M92.429,63.356c1.714,0 3.061,1.348 3.061,3.061c0,1.715 -1.346,3.062 -3.061,3.062c-1.715,0 -3.062,-1.347 -3.062,-3.062c0,-1.713 1.347,-3.061 3.062,-3.061l0,0Z" style="fill:#b400d1;fill-rule:nonzero;stroke:#000;stroke-width:0.15px;"/><path d="M32.076,73.433c1.713,0 3.061,1.347 3.061,3.061c0,1.714 -1.348,3.062 -3.062,3.062c-1.714,0 -3.061,-1.348 -3.061,-3.062c0,-1.714 1.347,-3.061 3.062,-3.061l0,0Z" style="fill:#b400d1;fill-rule:nonzero;stroke:#000;stroke-width:0.15px;"/><path d="M18.085,47.256c1.324,0.029 2.505,0.917 2.869,2.275c0.443,1.656 -0.513,3.304 -2.168,3.748c-1.656,0.445 -3.306,-0.506 -3.75,-2.162c-0.443,-1.656 0.513,-3.305 2.169,-3.749c0.207,-0.055 0.41,-0.093 0.615,-0.106c0.089,-0.006 0.176,-0.008 0.265,-0.006Z" style="fill:#b400d1;fill-rule:nonzero;stroke:#000;stroke-width:0.15px;"/><path d="M89.143,89.031c1.714,0 3.061,1.346 3.061,3.061c0,1.713 -1.347,3.062 -3.061,3.062c-1.715,-0.001 -3.061,-1.349 -3.061,-3.062c0,-1.715 1.346,-3.062 3.061,-3.062l0,0.001Z" style="fill:#b400d1;fill-rule:nonzero;stroke:#000;stroke-width:0.15px;"/><path d="M53.927,89.348c1.715,0 3.062,1.346 3.062,3.061c0,1.714 -1.347,3.062 -3.062,3.062c-1.713,-0.001 -3.061,-1.348 -3.061,-3.062c0,-1.715 1.348,-3.062 3.061,-3.062l0,0.001Z" style="fill:#b400d1;fill-rule:nonzero;stroke:#000;stroke-width:0.15px;"/><path d="M0.206,0.1l0,8.456c1.584,0.481 3.17,1.025 4.753,1.628l5.171,10.293c1.202,5.526 2.52,11.457 3.769,16.921c-4.56,1.698 7.908,-0.341 3.921,-0.583c-1.135,-4.96 -2.325,-10.331 -3.445,-15.452l-0.257,-7.067c6.4,3.297 12.713,7.409 18.804,12.032l0.918,11.784c-1.445,7.547 -2.131,15.536 -2.201,23.928c-4.654,0.639 7.942,1.435 3.96,0.284c0.066,-9.616 0.949,-18.62 2.856,-26.957l2.004,-2.968c4.57,3.885 8.966,8.001 13.131,12.199c2.484,3.017 4.915,6.063 7.26,9.157l0.152,5.892c-2.805,5.666 -4.839,11.976 -6.308,18.824c-0.028,0 -0.057,0 -0.086,0c-5.273,0 7.249,2.355 3.947,0.853c1.555,-7.242 3.743,-13.753 6.77,-19.433c5.133,7.344 9.675,15.043 13.205,23.393c-1.92,1.747 4.385,-2.308 3.452,-2.003c-5.716,-13.355 -13.852,-24.983 -22.726,-36.002c-0.182,-0.283 -0.37,-0.563 -0.554,-0.846l2.386,-0.047c7.41,2.464 14.773,6.146 22.17,10.838c-1.582,1.703 4.625,-2.827 3.557,-2.414c-8.596,-5.596 -17.232,-9.945 -26.044,-12.674l-7.537,-3.663c-4.774,-6.586 -9.982,-12.878 -15.718,-18.811l7.009,-0.761c7.821,0.725 15.535,1.754 23.036,3.624c-0.536,1.193 4.261,-4.807 2.606,-3.425c-8.949,-2.392 -18.093,-3.54 -27.242,-4.324l-13.925,-3.313c-3.649,-3.256 -7.49,-6.381 -11.544,-9.363l-17.25,0l0,0Z" style="fill:#014303;fill-rule:nonzero;stroke:#000;stroke-width:0.15px;"/></g></svg>