<svg width="100px" height="100px" viewBox="0 0 100 100" version="1.1" xmlns="http://www.w3.org/2000/svg" xmlns:xlink="http://www.w3.org/1999/xlink" xml:space="preserve" style="fill-rule:evenodd;clip-rule:evenodd;"><g><path d="M3.614,96.404c1.157,1.156 3.035,1.156 4.191,0l73.339,-73.34c1.157,-1.156 1.157,-3.034 0,-4.191c-1.156,-1.156 -3.034,-1.156 -4.191,0l-73.339,73.339c-1.156,1.157 -1.156,3.035 0,4.192l0,0Z" style="fill:url(#_Radial1);stroke:#000;stroke-width:0.37px;"/><path d="M95.71,5.211l-5.126,11.501l-0.511,0.722l-0.369,1.458l-0.769,1.536l-0.132,0.576l-0.421,0.365l-0.35,0.577l-0.265,0.507c0,0 -0.428,0.427 -0.423,0.423c0.005,-0.005 -0.796,2.286 -0.796,2.286l-1.035,0.201c0,0 -0.457,-0.11 -0.451,-0.115c0.004,-0.004 -0.753,0.122 -0.753,0.122l-1.897,-0.614c0,0 -1.487,-0.191 -1.482,-0.196c0.005,-0.004 -4.582,0.26 -4.582,0.26l-1.522,-1.497l0.215,-0.876l0.245,-0.845l0.182,-1.871c0,0 -0.607,-3.756 -0.601,-3.749c0.006,0.006 -0.515,-2.165 -0.515,-2.165l0.842,-1.305l2.964,-0.979l2.527,-1.615l1.896,-0.282l1.814,-1.226l0.427,-0.539l0.763,-0.2l0.084,-0.746l7.583,-3.057l2.153,-0.674l0.519,0.736c0,0 -0.223,1.256 -0.214,1.281l0,0Z" style="fill:url(#_Radial2);fill-rule:nonzero;"/><path d="M86.919,25.657c0.266,-0.359 0.509,-1.055 0.403,-1.162c-0.043,-0.045 -0.008,-0.166 0.08,-0.264c0.882,-0.961 1.501,-2.346 1.076,-2.404c-0.05,-0.012 0.152,-0.21 0.443,-0.444c0.292,-0.235 0.563,-0.549 0.607,-0.691c0.037,-0.149 0.169,-0.389 0.277,-0.544c0.354,-0.457 0.474,-1.071 0.311,-1.57c-0.098,-0.326 -0.08,-0.455 0.069,-0.402c0.166,0.061 0.274,-0.056 0.421,-0.486c0.113,-0.308 0.321,-0.735 0.468,-0.94c0.14,-0.211 0.261,-0.491 0.263,-0.617c-0.004,-0.132 0.252,-0.618 0.56,-1.092c0.313,-0.467 0.522,-0.894 0.466,-0.951c-0.056,-0.057 0.009,-0.158 0.139,-0.223c0.135,-0.058 0.372,-0.525 0.529,-1.025c0.156,-0.499 0.373,-0.947 0.495,-0.98c0.116,-0.039 0.179,-0.162 0.139,-0.272c-0.034,-0.103 0.056,-0.315 0.209,-0.465c0.153,-0.149 0.332,-0.497 0.393,-0.78c0.065,-0.287 0.297,-0.749 0.518,-1.026c0.22,-0.278 0.444,-0.708 0.493,-0.953c0.054,-0.24 0.176,-0.519 0.284,-0.625c0.104,-0.102 0.161,-0.319 0.124,-0.494c-0.031,-0.168 0.035,-0.406 0.158,-0.527c0.124,-0.12 0.189,-0.358 0.159,-0.526c-0.031,-0.169 -0.015,-0.359 0.045,-0.417c0.182,-0.178 0.502,-1.582 0.39,-1.696c-0.056,-0.057 -0.118,-0.257 -0.145,-0.442c-0.045,-0.428 -0.525,-0.915 -0.917,-0.93c-0.133,-0.007 -0.314,0.045 -0.475,0.056c-0.199,0.015 -0.37,0.044 -0.605,0.017c-0.3,-0.03 -0.513,-0.02 -0.464,0.03c0.05,0.051 -0.119,0.105 -0.37,0.126c-0.42,0.025 -0.454,0.059 -0.43,0.408c0.033,0.476 -0.049,0.569 -0.292,0.322c-0.106,-0.108 -0.276,-0.103 -0.385,0.003c-0.108,0.106 -0.256,0.113 -0.328,0.01c-0.085,-0.116 -0.234,-0.07 -0.434,0.15c-0.165,0.185 -0.321,0.263 -0.352,0.182c-0.098,-0.276 -0.668,-0.167 -1.189,0.217c-0.298,0.229 -0.662,0.36 -0.848,0.319c-0.301,-0.079 -0.222,-0.047 -0.302,0.246c-0.01,0.038 -0.33,0.094 -0.435,0.185c-0.076,0.061 -0.25,0.159 -0.444,0.286c-0.194,0.127 -0.539,0.39 -0.803,0.623c0,0 -0.294,0.32 -0.49,0.416c-0.224,0.109 -0.345,-0.011 -0.759,0.169c-0.617,0.267 -0.871,0.589 -0.631,0.803c0.104,0.096 -0.143,0.524 -0.311,0.353c-0.143,-0.146 -0.331,-0.248 -0.429,-0.239c-0.098,0.008 -0.093,0.102 0.007,0.203c0.237,0.241 -2.311,1.722 -2.186,1.377c0.052,-0.163 -0.167,-0.111 -0.664,0.151c-0.414,0.218 -0.895,0.389 -1.078,0.369c-0.383,-0.024 -0.532,0.06 -1.093,0.669c-0.351,0.38 -1.251,0.489 -1.434,0.667c-0.138,0.135 -0.486,0.115 -0.402,0.505c0.047,0.214 -1.508,0.366 -1.685,0.539c-0.06,0.058 -0.159,0.055 -0.221,-0.008c-0.056,-0.057 -0.251,-0.028 -0.415,0.07c-0.174,0.108 -0.247,0.241 -0.166,0.323c0.089,0.1 0.069,0.119 -0.08,0.066c-0.218,-0.073 -0.744,0.404 -0.79,0.721c-0.017,0.091 -0.11,0.331 -0.219,0.524c-0.123,0.219 -0.114,0.533 0.029,0.816c0.942,1.948 1.385,7.337 0.644,7.824c-0.832,0.54 0.407,3.054 1.58,3.213c0.256,0.035 0.471,-0.013 0.481,-0.11c0.011,-0.097 0.431,-0.123 0.934,-0.054c0.502,0.068 0.955,0.085 1.009,0.032c0.213,-0.207 1.852,-0.478 2.179,-0.363c0.195,0.071 0.39,0.091 0.434,0.048c0.331,-0.323 1.854,0.065 2.82,0.711c0.126,0.089 0.588,0.085 1.022,-0.004c0.441,-0.083 0.939,-0.059 1.101,0.056c0.22,0.145 0.36,0.12 0.512,-0.079l0,0Zm-0.146,-1.682c0.228,-0.306 0.435,-0.901 0.345,-0.993c-0.038,-0.038 -0.008,-0.141 0.067,-0.225c0.754,-0.82 1.283,-2.004 0.92,-2.053c-0.043,-0.01 0.129,-0.179 0.378,-0.38c0.249,-0.2 0.481,-0.468 0.518,-0.59c0.032,-0.127 0.145,-0.331 0.237,-0.464c0.302,-0.39 0.405,-0.915 0.266,-1.341c-0.084,-0.278 -0.069,-0.389 0.058,-0.343c0.143,0.052 0.234,-0.048 0.361,-0.415c0.096,-0.264 0.274,-0.628 0.399,-0.803c0.12,-0.181 0.223,-0.42 0.225,-0.527c-0.004,-0.113 0.215,-0.528 0.478,-0.933c0.268,-0.399 0.446,-0.764 0.398,-0.813c-0.048,-0.048 0.007,-0.134 0.118,-0.19c0.116,-0.049 0.319,-0.448 0.452,-0.875c0.133,-0.427 0.319,-0.809 0.423,-0.837c0.1,-0.034 0.153,-0.139 0.119,-0.232c-0.029,-0.089 0.048,-0.27 0.179,-0.398c0.131,-0.127 0.283,-0.425 0.335,-0.666c0.056,-0.245 0.254,-0.64 0.442,-0.877c0.189,-0.237 0.38,-0.604 0.422,-0.814c0.046,-0.205 0.15,-0.443 0.243,-0.534c0.088,-0.086 0.137,-0.271 0.105,-0.421c-0.026,-0.144 0.03,-0.347 0.136,-0.45c0.105,-0.103 0.161,-0.306 0.135,-0.45c-0.026,-0.144 -0.012,-0.306 0.038,-0.356c0.156,-0.152 0.429,-1.351 0.333,-1.449c-0.048,-0.048 -0.101,-0.219 -0.124,-0.377c-0.038,-0.366 -0.448,-0.782 -0.783,-0.794c-0.113,-0.006 -0.268,0.038 -0.405,0.047c-0.17,0.013 -0.317,0.038 -0.517,0.015c-0.256,-0.025 -0.438,-0.017 -0.396,0.026c0.043,0.043 -0.102,0.089 -0.316,0.107c-0.359,0.022 -0.388,0.05 -0.368,0.348c0.029,0.407 -0.042,0.486 -0.249,0.276c-0.091,-0.092 -0.236,-0.089 -0.329,0.002c-0.092,0.09 -0.218,0.097 -0.28,0.009c-0.073,-0.099 -0.2,-0.06 -0.37,0.128c-0.142,0.158 -0.275,0.225 -0.301,0.156c-0.084,-0.237 -0.571,-0.143 -1.016,0.185c-0.254,0.195 -0.565,0.308 -0.724,0.272c-0.257,-0.068 -0.19,-0.04 -0.258,0.211c-0.009,0.032 -0.282,0.08 -0.372,0.157c-0.064,0.052 -0.213,0.136 -0.379,0.245c-0.165,0.108 -0.461,0.333 -0.686,0.532c0,0 -0.251,0.273 -0.419,0.355c-0.191,0.094 -0.294,-0.009 -0.647,0.145c-0.528,0.228 -0.745,0.503 -0.54,0.685c0.089,0.082 -0.121,0.447 -0.265,0.301c-0.123,-0.124 -0.283,-0.211 -0.367,-0.204c-0.083,0.008 -0.079,0.088 0.006,0.174c0.203,0.206 -1.973,1.471 -1.867,1.176c0.045,-0.139 -0.143,-0.094 -0.567,0.129c-0.354,0.186 -0.764,0.332 -0.921,0.316c-0.326,-0.021 -0.454,0.05 -0.933,0.571c-0.3,0.325 -1.069,0.417 -1.225,0.569c-0.118,0.116 -0.415,0.099 -0.344,0.432c0.04,0.183 -1.287,0.312 -1.439,0.46c-0.051,0.05 -0.135,0.047 -0.189,-0.007c-0.048,-0.048 -0.213,-0.024 -0.354,0.06c-0.149,0.092 -0.211,0.206 -0.142,0.276c0.076,0.085 0.059,0.102 -0.068,0.056c-0.186,-0.062 -0.636,0.345 -0.675,0.616c-0.014,0.078 -0.094,0.283 -0.187,0.448c-0.105,0.187 -0.097,0.455 0.025,0.696c0.805,1.664 1.183,6.268 0.55,6.683c-0.711,0.462 0.347,2.609 1.349,2.745c0.22,0.03 0.403,-0.011 0.412,-0.094c0.009,-0.083 0.368,-0.105 0.797,-0.047c0.429,0.058 0.816,0.073 0.862,0.028c0.182,-0.177 1.582,-0.409 1.861,-0.31c0.167,0.06 0.333,0.078 0.371,0.041c0.282,-0.275 1.584,0.055 2.409,0.607c0.107,0.076 0.501,0.073 0.872,-0.003c0.377,-0.071 0.802,-0.051 0.94,0.048c0.189,0.123 0.308,0.102 0.438,-0.068l0,0Z"/></g><defs><radialGradient id="_Radial1" cx="0" cy="0" r="1" gradientUnits="userSpaceOnUse" gradientTransform="matrix(-85.7036,85.7036,-4.19146,-4.19146,52.8406,47.1775)"><stop offset="0" style="stop-color:#582308;stop-opacity:1"/><stop offset="1" style="stop-color:#000;stop-opacity:1"/></radialGradient><radialGradient id="_Radial2" cx="0" cy="0" r="1" gradientUnits="userSpaceOnUse" gradientTransform="matrix(8.33744,-8.2406,9.05573,9.16215,84.0087,15.6507)"><stop offset="0" style="stop-color:#4f4f4f;stop-opacity:1"/><stop offset="1" style="stop-color:#2f2f2f;stop-opacity:1"/></radialGradient></defs></svg>