<svg width="100px" height="100px" viewBox="0 0 100 100" version="1.1" xmlns="http://www.w3.org/2000/svg" xmlns:xlink="http://www.w3.org/1999/xlink" xml:space="preserve" style="fill-rule:evenodd;clip-rule:evenodd;"><g><path d="M50.052,99.822c1.243,0 2.252,-1.009 2.252,-2.252l0,-78.814c0,-1.243 -1.009,-2.252 -2.252,-2.252c-1.243,0 -2.252,1.009 -2.252,2.252l0,78.814c0,1.243 1.009,2.252 2.252,2.252Z" style="fill:url(#_Radial1);stroke:#000;stroke-width:0.28px;"/><path d="M50.597,1.374l3.401,8.869l0.112,0.657l0.581,0.975l0.409,1.229l0.237,0.378l-0.03,0.419l0.121,0.495l0.129,0.412c0,0 0,0.456 0,0.451c0,-0.005 0.795,1.644 0.795,1.644l-0.445,0.659c0,0 -0.302,0.185 -0.302,0.179c0,-0.004 -0.336,0.467 -0.336,0.467l-1.34,0.685c0,0 -0.895,0.691 -0.895,0.686c0.001,-0.005 -2.305,2.582 -2.305,2.582l-1.61,0.014l-0.353,-0.582l-0.32,-0.582l-0.901,-1.095c0,0 -2.327,-1.68 -2.32,-1.679c0.006,0 -1.43,-0.88 -1.43,-0.88l-0.247,-1.145l1.059,-2.104l0.486,-2.209l0.861,-1.162l0.314,-1.621l-0.06,-0.516l0.301,-0.513l-0.353,-0.443l2.414,-5.676l0.789,-1.508l0.669,0.116c0,0 0.551,0.789 0.569,0.798l0,0Z" style="fill:url(#_Radial2);fill-rule:nonzero;"/><path d="M56.8,17.046c-0.05,-0.336 -0.294,-0.84 -0.408,-0.841c-0.048,-0.001 -0.094,-0.085 -0.099,-0.184c-0.042,-0.991 -0.454,-2.068 -0.713,-1.871c-0.034,0.021 -0.032,-0.194 -0.001,-0.476c0.03,-0.283 0.007,-0.598 -0.046,-0.698c-0.059,-0.1 -0.118,-0.299 -0.143,-0.441c-0.055,-0.435 -0.321,-0.83 -0.676,-1.011c-0.228,-0.122 -0.288,-0.201 -0.179,-0.252c0.122,-0.057 0.117,-0.177 -0.035,-0.488c-0.105,-0.226 -0.222,-0.567 -0.254,-0.756c-0.038,-0.189 -0.123,-0.404 -0.19,-0.473c-0.073,-0.069 -0.197,-0.468 -0.286,-0.887c-0.083,-0.42 -0.2,-0.762 -0.261,-0.762c-0.06,-0.001 -0.08,-0.09 -0.045,-0.194c0.042,-0.105 -0.082,-0.483 -0.266,-0.835c-0.185,-0.353 -0.309,-0.71 -0.261,-0.793c0.042,-0.084 0.009,-0.183 -0.071,-0.221c-0.074,-0.037 -0.139,-0.2 -0.137,-0.362c0.002,-0.163 -0.09,-0.446 -0.209,-0.63c-0.119,-0.19 -0.243,-0.563 -0.273,-0.83c-0.031,-0.268 -0.141,-0.619 -0.247,-0.777c-0.1,-0.158 -0.185,-0.374 -0.183,-0.489c0.001,-0.11 -0.085,-0.257 -0.199,-0.332c-0.107,-0.074 -0.2,-0.237 -0.198,-0.368c0.002,-0.131 -0.091,-0.294 -0.198,-0.368c-0.107,-0.074 -0.2,-0.185 -0.199,-0.248c0.002,-0.194 -0.581,-1.12 -0.702,-1.121c-0.061,0 -0.202,-0.075 -0.316,-0.159c-0.254,-0.206 -0.773,-0.21 -0.992,-0.008c-0.075,0.068 -0.145,0.193 -0.225,0.286c-0.099,0.115 -0.176,0.222 -0.316,0.334c-0.177,0.145 -0.287,0.265 -0.233,0.265c0.054,0.001 -0.008,0.121 -0.131,0.267c-0.212,0.239 -0.213,0.276 -0.012,0.45c0.273,0.238 0.279,0.332 0.016,0.33c-0.115,-0.001 -0.204,0.093 -0.205,0.208c-0.002,0.116 -0.077,0.199 -0.171,0.183c-0.108,-0.017 -0.164,0.087 -0.153,0.313c0.011,0.188 -0.031,0.314 -0.091,0.287c-0.201,-0.096 -0.449,0.269 -0.522,0.756c-0.038,0.282 -0.162,0.549 -0.285,0.627c-0.204,0.119 -0.144,0.094 -0.029,0.294c0.014,0.026 -0.128,0.228 -0.135,0.333c-0.008,0.074 -0.049,0.22 -0.085,0.392c-0.036,0.173 -0.08,0.5 -0.097,0.767c0,0 0.014,0.33 -0.039,0.487c-0.062,0.179 -0.192,0.179 -0.317,0.498c-0.188,0.475 -0.152,0.785 0.092,0.771c0.108,-0.005 0.205,0.358 0.022,0.356c-0.155,-0.001 -0.311,0.045 -0.359,0.102c-0.048,0.058 0.006,0.105 0.114,0.106c0.256,0.002 -0.317,2.167 -0.436,1.914c-0.059,-0.115 -0.149,0.031 -0.275,0.438c-0.105,0.34 -0.272,0.69 -0.381,0.778c-0.218,0.192 -0.254,0.318 -0.228,0.947c0.016,0.393 -0.409,0.934 -0.412,1.128c-0.001,0.147 -0.199,0.324 0.055,0.488c0.141,0.09 -0.613,1.007 -0.615,1.195c-0.001,0.063 -0.056,0.115 -0.123,0.114c-0.061,0 -0.15,0.12 -0.186,0.261c-0.035,0.152 -0.003,0.262 0.085,0.263c0.101,0.006 0.101,0.026 -0.008,0.078c-0.156,0.077 -0.183,0.617 -0.037,0.812c0.04,0.058 0.119,0.236 0.164,0.399c0.052,0.184 0.225,0.348 0.454,0.423c1.553,0.54 4.687,3.198 4.55,3.858c-0.157,0.737 1.86,1.423 2.575,0.878c0.157,-0.119 0.247,-0.26 0.2,-0.318c-0.047,-0.058 0.166,-0.298 0.472,-0.531c0.307,-0.234 0.56,-0.468 0.56,-0.525c0.003,-0.225 0.738,-1.252 0.976,-1.366c0.142,-0.067 0.258,-0.16 0.259,-0.207c0.004,-0.351 1.031,-0.962 1.897,-1.134c0.115,-0.02 0.362,-0.269 0.547,-0.551c0.193,-0.281 0.473,-0.536 0.622,-0.561c0.196,-0.041 0.257,-0.129 0.233,-0.318l0,0Zm-0.982,-0.825c-0.043,-0.287 -0.251,-0.718 -0.349,-0.719c-0.04,0 -0.08,-0.072 -0.084,-0.157c-0.036,-0.846 -0.388,-1.766 -0.61,-1.597c-0.029,0.017 -0.026,-0.166 0,-0.408c0.026,-0.241 0.006,-0.51 -0.039,-0.595c-0.051,-0.086 -0.101,-0.256 -0.122,-0.377c-0.048,-0.372 -0.274,-0.709 -0.578,-0.863c-0.195,-0.105 -0.246,-0.172 -0.153,-0.216c0.104,-0.049 0.1,-0.152 -0.03,-0.417c-0.089,-0.193 -0.19,-0.484 -0.216,-0.645c-0.033,-0.162 -0.106,-0.346 -0.163,-0.405c-0.063,-0.058 -0.168,-0.399 -0.244,-0.757c-0.071,-0.359 -0.171,-0.651 -0.223,-0.651c-0.052,0 -0.068,-0.077 -0.038,-0.166c0.035,-0.089 -0.07,-0.412 -0.228,-0.713c-0.158,-0.301 -0.263,-0.606 -0.222,-0.677c0.035,-0.072 0.007,-0.157 -0.062,-0.189c-0.063,-0.032 -0.118,-0.171 -0.117,-0.309c0.002,-0.139 -0.076,-0.381 -0.178,-0.539c-0.101,-0.161 -0.207,-0.48 -0.233,-0.708c-0.026,-0.229 -0.121,-0.529 -0.211,-0.664c-0.085,-0.135 -0.158,-0.319 -0.156,-0.417c0.001,-0.095 -0.073,-0.22 -0.17,-0.284c-0.092,-0.063 -0.171,-0.202 -0.169,-0.314c0.001,-0.112 -0.078,-0.251 -0.169,-0.315c-0.092,-0.063 -0.171,-0.158 -0.171,-0.211c0.002,-0.166 -0.496,-0.957 -0.599,-0.958c-0.052,0 -0.173,-0.064 -0.27,-0.136c-0.217,-0.176 -0.661,-0.179 -0.847,-0.006c-0.064,0.058 -0.124,0.164 -0.192,0.243c-0.085,0.098 -0.151,0.19 -0.27,0.286c-0.152,0.124 -0.245,0.226 -0.199,0.227c0.046,0 -0.007,0.103 -0.113,0.227c-0.181,0.205 -0.181,0.236 -0.01,0.385c0.234,0.203 0.239,0.283 0.014,0.282c-0.098,-0.001 -0.174,0.079 -0.175,0.177c-0.001,0.099 -0.066,0.17 -0.146,0.156c-0.092,-0.014 -0.14,0.075 -0.13,0.268c0.009,0.161 -0.027,0.268 -0.078,0.245c-0.172,-0.082 -0.384,0.23 -0.447,0.646c-0.031,0.241 -0.138,0.468 -0.243,0.535c-0.174,0.101 -0.123,0.08 -0.025,0.251c0.013,0.022 -0.108,0.195 -0.115,0.285c-0.007,0.063 -0.041,0.187 -0.072,0.335c-0.031,0.147 -0.069,0.426 -0.083,0.655c0,0 0.012,0.281 -0.034,0.415c-0.053,0.153 -0.163,0.154 -0.27,0.426c-0.161,0.406 -0.13,0.67 0.078,0.658c0.092,-0.004 0.175,0.306 0.019,0.305c-0.132,-0.001 -0.265,0.038 -0.306,0.087c-0.041,0.049 0.004,0.09 0.097,0.09c0.219,0.002 -0.271,1.851 -0.372,1.635c-0.051,-0.098 -0.127,0.026 -0.236,0.374c-0.089,0.291 -0.231,0.589 -0.325,0.665c-0.186,0.164 -0.216,0.271 -0.194,0.808c0.013,0.336 -0.35,0.799 -0.352,0.964c-0.002,0.126 -0.171,0.276 0.047,0.417c0.12,0.077 -0.524,0.86 -0.526,1.021c-0.001,0.053 -0.048,0.098 -0.105,0.097c-0.052,0 -0.128,0.102 -0.159,0.223c-0.03,0.129 -0.002,0.224 0.073,0.224c0.086,0.005 0.086,0.023 -0.007,0.067c-0.133,0.066 -0.156,0.527 -0.031,0.693c0.034,0.05 0.101,0.203 0.14,0.342c0.044,0.157 0.192,0.296 0.387,0.36c1.327,0.462 4.003,2.733 3.887,3.296c-0.135,0.63 1.588,1.215 2.199,0.75c0.134,-0.102 0.211,-0.222 0.171,-0.272c-0.04,-0.049 0.141,-0.254 0.403,-0.453c0.262,-0.2 0.478,-0.4 0.479,-0.449c0.002,-0.192 0.63,-1.069 0.833,-1.166c0.122,-0.057 0.221,-0.137 0.221,-0.177c0.004,-0.3 0.881,-0.822 1.621,-0.968c0.098,-0.018 0.308,-0.231 0.467,-0.471c0.164,-0.241 0.403,-0.458 0.53,-0.48c0.168,-0.034 0.221,-0.11 0.2,-0.271l0,0Z"/></g><defs><radialGradient id="_Radial1" cx="0" cy="0" r="1" gradientUnits="userSpaceOnUse" gradientTransform="matrix(0,92.1014,-4.50435,0,50.0518,46.9209)"><stop offset="0" style="stop-color:#582308;stop-opacity:1"/><stop offset="1" style="stop-color:#000;stop-opacity:1"/></radialGradient><radialGradient id="_Radial2" cx="0" cy="0" r="1" gradientUnits="userSpaceOnUse" gradientTransform="matrix(0.0516558,-8.84295,9.71766,0.0567659,49.9243,13.184)"><stop offset="0" style="stop-color:#8c8c8c;stop-opacity:1"/><stop offset="1" style="stop-color:#c6c6c6;stop-opacity:1"/></radialGradient></defs></svg>