<svg width="100px" height="100px" viewBox="0 0 100 100" version="1.1" xmlns="http://www.w3.org/2000/svg" xmlns:xlink="http://www.w3.org/1999/xlink" xml:space="preserve" style="fill-rule:evenodd;clip-rule:evenodd;stroke-linecap:round;stroke-linejoin:round;stroke-miterlimit:1.5;"><g><path d="M62.775,1.927c-0.084,-1.62 -3.715,0.313 -4.934,0.313c-0.799,0 -2.357,-1.1 -2.377,-0.313c-0.396,15.969 -1.218,80.107 0,96.129c0.182,2.392 7.129,2.392 7.311,0c1.218,-16.022 0.822,-80.16 0,-96.129l0,0Z" style="fill:url(#_Linear1);stroke:#000;stroke-width:0.3px;"/><path d="M90.73,0.342c-0.453,0.092 -2.348,0.57 -4.193,1.084c-3.537,0.956 -9.522,2.021 -15.927,2.848c-3.269,0.423 -4.543,0.459 -6.455,0.257c-0.133,-0.018 -8.817,-0.037 -9.355,-0.037c-0.787,0 -1.927,1.36 -1.944,2.297c-0.017,0.514 -0.318,0.642 -1.442,0.642c-0.788,0 -2.372,0.226 -3.553,0.386c-1.362,0.184 -3.081,0.427 -4.611,0.716c-1.783,0.337 -4.275,0.906 -6.086,1.305c-1.595,0.35 -7.753,2.002 -9.285,2.601c-3.26,1.276 -7.157,2.59 -10.283,5.052c-3.662,2.884 -8.263,8.512 -12.186,17.109c-1.56,3.399 -1.191,3.589 -0.563,3.91c0.733,0.376 1.478,0.459 2.262,0.043c0.734,-0.389 5.536,-7.221 7.952,-9.636c1.947,-1.945 4.816,-3.703 6.548,-4.852c1.222,-0.807 2.977,-1.638 3.855,-2.033c1.43,-0.642 11.046,-3.708 16.796,-4.331c1.862,-0.203 5.39,-0.867 6.912,-0.517c1.794,0.413 3.232,0.957 3.852,2.996c0.385,1.323 2.511,1.586 3.668,1.833c0.969,0.207 2.173,0.046 3.172,0.113c1.244,0.087 4.462,0.517 4.462,0.517c0.402,0.091 2.11,0.273 3.351,0.384c1.743,0.148 3.638,0.772 8.215,2.756c3.268,1.396 6.371,2.663 6.874,2.792c0.519,0.128 4.325,1.395 6.019,1.984c3.536,1.249 3.101,1.506 5.028,-2.885c3.069,-6.999 3.086,-18.406 0.018,-25.33c-0.955,-2.132 -1.307,-2.371 -3.101,-2.004l0,0Z" style="fill:url(#_Radial2);stroke:#000;stroke-width:0.29px;stroke-linecap:butt;stroke-miterlimit:1.41421;"/><path d="M90.541,0.816c-0.198,0.038 3.711,9.832 3.114,16.268c-0.728,7.854 -4.518,13.149 -3.617,13.461c0.202,0.071 -0.238,-0.083 0,0c1.967,0.678 1.922,0.28 3.487,-3.284c2.968,-6.772 2.985,-17.808 0.017,-24.509c-0.925,-2.06 -1.266,-2.292 -3.001,-1.936l0,0Z" style="fill:url(#_Radial3);"/></g><defs><linearGradient id="_Linear1" x1="0" y1="0" x2="1" y2="0" gradientUnits="userSpaceOnUse" gradientTransform="matrix(7.3104,0,0,7.3104,55.4643,49.9914)"><stop offset="0" style="stop-color:#301203;stop-opacity:1"/><stop offset="0.5" style="stop-color:#582106;stop-opacity:1"/><stop offset="1" style="stop-color:#301203;stop-opacity:1"/></linearGradient><radialGradient id="_Radial2" cx="0" cy="0" r="1" gradientUnits="userSpaceOnUse" gradientTransform="matrix(-0.305187,-55.9107,51.3713,-0.321168,58.1494,35.8064)"><stop offset="0" style="stop-color:#fff;stop-opacity:1"/><stop offset="0.59" style="stop-color:#b1b1b1;stop-opacity:1"/><stop offset="0.8" style="stop-color:#999;stop-opacity:1"/><stop offset="1" style="stop-color:#c8c8c8;stop-opacity:1"/></radialGradient><radialGradient id="_Radial3" cx="0" cy="0" r="1" gradientUnits="userSpaceOnUse" gradientTransform="matrix(-0.295288,-54.0923,49.7006,-0.310773,59.0204,35.1259)"><stop offset="0" style="stop-color:#e9e9e9;stop-opacity:0.501961"/><stop offset="0.66" style="stop-color:#dedede;stop-opacity:0.501961"/><stop offset="0.85" style="stop-color:#eee;stop-opacity:0.501961"/><stop offset="1" style="stop-color:#e1e1e1;stop-opacity:0.501961"/></radialGradient></defs></svg>