<svg width="100px" height="100px" viewBox="0 0 100 100" version="1.1" xmlns="http://www.w3.org/2000/svg" xmlns:xlink="http://www.w3.org/1999/xlink" xml:space="preserve" xmlns:serif="http://www.serif.com/" style="fill-rule:evenodd;clip-rule:evenodd;stroke-linejoin:round;stroke-miterlimit:2;">
    <g id="ShardSpot">
        <g>
            <g transform="matrix(1.24817,0,0,1.24817,-13.2295,-11.9865)">
                <path d="M36.139,27.709C35.606,28.058 37.282,28.892 36.952,29.437C36.613,29.996 34.884,30.296 34.106,31.063C33.021,32.13 31.377,34.064 30.446,35.841C29.345,37.941 27.82,41.177 27.498,43.668C27.191,46.044 28.244,48.75 28.515,50.783C28.74,52.475 28.853,54.182 29.125,55.866C29.48,58.069 29.735,62.321 30.649,63.998C31.353,65.289 33.648,64.879 34.614,65.93C35.58,66.98 35.461,69.386 36.444,70.301C37.426,71.215 39.241,70.814 40.51,71.419C41.967,72.113 43.864,73.808 45.186,74.468C46.193,74.972 47.482,74.788 48.439,75.383C49.472,76.027 50.2,78.162 51.386,78.331C52.572,78.501 54.035,76.593 55.554,76.4C57.553,76.146 61.077,77.433 63.381,76.806C65.685,76.179 67.49,74.175 69.379,72.639C71.378,71.012 74.173,68.573 75.376,67.048C76.153,66.063 76.152,64.663 76.596,63.49C77.07,62.236 78.544,60.593 78.222,59.526C77.901,58.458 75.105,58.373 74.665,57.086C74.224,55.798 74.987,52.918 75.58,51.8C76.048,50.916 78.133,51.373 78.222,50.377C78.358,48.869 76.24,44.888 76.393,42.753C76.532,40.803 79.544,38.992 79.137,37.569C78.731,36.146 75.666,35.356 73.953,34.214C72.174,33.028 70.192,31.249 68.464,30.453C66.955,29.758 64.872,29.996 63.585,29.437C62.458,28.948 61.845,27.629 60.738,27.099C59.502,26.506 57.44,26.807 56.164,25.879C54.86,24.93 53.911,22.66 52.911,21.406C52.059,20.337 51.376,17.719 50.167,18.357C48.913,19.017 47.049,23.88 45.389,25.371C44.017,26.603 41.746,26.912 40.205,27.302C38.884,27.636 36.681,27.353 36.139,27.709Z" style="fill:rgb(200,178,146);"/>
            </g>
            <path d="M36.139,27.709C35.606,28.058 37.282,28.892 36.952,29.437C36.613,29.996 34.884,30.296 34.106,31.063C33.021,32.13 31.377,34.064 30.446,35.841C29.345,37.941 27.82,41.177 27.498,43.668C27.191,46.044 28.244,48.75 28.515,50.783C28.74,52.475 28.853,54.182 29.125,55.866C29.48,58.069 29.735,62.321 30.649,63.998C31.353,65.289 33.648,64.879 34.614,65.93C35.58,66.98 35.461,69.386 36.444,70.301C37.426,71.215 39.241,70.814 40.51,71.419C41.967,72.113 43.864,73.808 45.186,74.468C46.193,74.972 47.482,74.788 48.439,75.383C49.472,76.027 50.2,78.162 51.386,78.331C52.572,78.501 54.035,76.593 55.554,76.4C57.553,76.146 61.077,77.433 63.381,76.806C65.685,76.179 67.49,74.175 69.379,72.639C71.378,71.012 74.173,68.573 75.376,67.048C76.153,66.063 76.152,64.663 76.596,63.49C77.07,62.236 78.544,60.593 78.222,59.526C77.901,58.458 75.105,58.373 74.665,57.086C74.224,55.798 74.987,52.918 75.58,51.8C76.048,50.916 78.133,51.373 78.222,50.377C78.358,48.869 76.24,44.888 76.393,42.753C76.532,40.803 79.544,38.992 79.137,37.569C78.731,36.146 75.666,35.356 73.953,34.214C72.174,33.028 70.192,31.249 68.464,30.453C66.955,29.758 64.872,29.996 63.585,29.437C62.458,28.948 61.845,27.629 60.738,27.099C59.502,26.506 57.44,26.807 56.164,25.879C54.86,24.93 53.911,22.66 52.911,21.406C52.059,20.337 51.376,17.719 50.167,18.357C48.913,19.017 47.049,23.88 45.389,25.371C44.017,26.603 41.746,26.912 40.205,27.302C38.884,27.636 36.681,27.353 36.139,27.709Z" style="fill:rgb(99,78,50);"/>
            <path d="M44.779,14.189C43.915,14.866 47.507,25.404 47.117,27.81C46.864,29.372 43.727,27.702 42.441,28.623C40.052,30.335 35.969,36.976 32.784,38.077C29.674,39.152 23.568,34.231 23.331,35.231C23.093,36.23 30.09,41.635 31.361,44.074C32.255,45.792 30.887,48.157 30.954,49.869C31.014,51.383 32.218,52.894 31.768,54.341C30.971,56.9 26.041,63.981 26.177,65.218C26.312,66.455 30.768,61.677 32.581,61.762C34.394,61.847 35.384,64.639 37.053,65.726C39.578,67.37 45.519,68.21 47.727,71.622C49.963,75.078 49.574,84.718 50.472,86.463C51.251,87.977 52.629,83.724 53.114,82.092C53.724,80.042 52.386,75.722 54.131,74.163C55.876,72.605 61.213,73.706 63.585,72.74C65.584,71.926 66.837,69.572 68.362,68.369C69.727,67.292 71.937,66.76 72.733,65.523C73.53,64.286 71.988,61.44 73.14,60.949C74.292,60.457 79.256,63.083 79.646,62.575C80.035,62.067 77.02,58.763 75.478,57.899C73.993,57.067 70.802,58.475 70.395,57.391C69.989,56.307 72.447,53.496 73.038,51.393C73.648,49.225 73.953,46.345 74.055,44.379C74.137,42.783 72.639,40.841 73.648,39.602C74.766,38.229 80.544,36.789 80.764,36.146C80.984,35.502 76.477,35.671 74.97,35.739C73.853,35.789 72.772,36.92 71.717,36.552C69.87,35.908 66.692,33.052 63.89,31.876C60.942,30.639 55.961,30.487 54.029,29.132C52.486,28.048 53.294,25.348 52.301,23.744C50.76,21.254 45.643,13.511 44.779,14.189Z" style="fill:rgb(93,90,86);"/>
            <g transform="matrix(0.424227,0,0,0.424227,26.715,26.6169)">
                <path d="M44.779,14.189C43.915,14.866 47.507,25.404 47.117,27.81C46.864,29.372 43.727,27.702 42.441,28.623C40.052,30.335 35.969,36.976 32.784,38.077C29.674,39.152 23.568,34.231 23.331,35.231C23.093,36.23 30.09,41.635 31.361,44.074C32.255,45.792 30.887,48.157 30.954,49.869C31.014,51.383 32.218,52.894 31.768,54.341C30.971,56.9 26.041,63.981 26.177,65.218C26.312,66.455 30.768,61.677 32.581,61.762C34.394,61.847 35.384,64.639 37.053,65.726C39.578,67.37 45.519,68.21 47.727,71.622C49.963,75.078 49.574,84.718 50.472,86.463C51.251,87.977 52.629,83.724 53.114,82.092C53.724,80.042 52.386,75.722 54.131,74.163C55.876,72.605 61.213,73.706 63.585,72.74C65.584,71.926 66.837,69.572 68.362,68.369C69.727,67.292 71.937,66.76 72.733,65.523C73.53,64.286 71.988,61.44 73.14,60.949C74.292,60.457 79.256,63.083 79.646,62.575C80.035,62.067 77.02,58.763 75.478,57.899C73.993,57.067 70.802,58.475 70.395,57.391C69.989,56.307 72.447,53.496 73.038,51.393C73.648,49.225 73.953,46.345 74.055,44.379C74.137,42.783 72.639,40.841 73.648,39.602C74.766,38.229 80.544,36.789 80.764,36.146C80.984,35.502 76.477,35.671 74.97,35.739C73.853,35.789 72.772,36.92 71.717,36.552C69.87,35.908 66.692,33.052 63.89,31.876C60.942,30.639 55.961,30.487 54.029,29.132C52.486,28.048 53.294,25.348 52.301,23.744C50.76,21.254 45.643,13.511 44.779,14.189Z" style="fill:rgb(34,33,31);"/>
            </g>
        </g>
    </g>
</svg>
