<svg width="100px" height="100px" viewBox="0 0 100 100" version="1.1" xmlns="http://www.w3.org/2000/svg" xml:space="preserve" style="fill-rule:evenodd;clip-rule:evenodd;stroke-linecap:round;stroke-linejoin:round;"><g id="svg_rdy"><circle cx="46.06" cy="35.46" r="19.339" style="fill:#813b8f;"/><path d="M42.904,20.229C46.035,19.425 49,20.418 49.52,22.445C50.041,24.472 47.923,26.771 44.792,27.576C41.661,28.38 38.697,27.387 38.176,25.36C37.655,23.333 39.774,21.034 42.904,20.229Z" style="fill:#985fa3;"/><path d="M46.06,16.121C45.582,16.121 45.114,16.121 44.647,16.192C53.136,16.922 59.736,24.113 59.736,32.634C59.736,41.687 52.287,49.136 43.234,49.136C34.713,49.136 27.522,42.536 26.792,34.047C26.792,34.514 26.721,34.982 26.721,35.46C26.721,46.058 35.442,54.779 46.04,54.779C56.638,54.779 65.358,46.058 65.358,35.46C65.358,24.862 56.638,16.141 46.04,16.141L46.06,16.121Z" style="fill:#1d1d1b;fill-opacity:0.5;fill-rule:nonzero;"/><circle cx="46.06" cy="35.46" r="19.339" style="fill:none;stroke:#000;stroke-width:4.07px;"/><path d="M46.507,27.112C47.643,25.348 49.508,24.18 51.591,23.93C52.511,23.812 53.445,23.881 54.337,24.133C55.427,24.445 56.428,25.013 57.255,25.791C56.639,26.745 55.807,27.539 54.825,28.109C54.021,28.571 53.132,28.865 52.211,28.973C50.143,29.22 48.067,28.538 46.548,27.112L46.507,27.112Z" style="fill-rule:nonzero;"/><path d="M52.71,31.444C51.629,30.905 50.689,30.122 49.964,29.156C48.725,27.533 48.127,25.508 48.287,23.472C48.376,22.269 48.745,21.102 49.365,20.066C50.447,20.602 51.39,21.382 52.12,22.344C52.739,23.147 53.198,24.062 53.472,25.038C53.77,26.026 53.877,27.061 53.787,28.088C53.686,29.274 53.317,30.421 52.71,31.444Z" style="fill-rule:nonzero;"/><circle cx="76.675" cy="49.817" r="15.638" style="fill:#813b8f;"/><path d="M74.122,37.494C76.655,36.843 79.054,37.647 79.476,39.289C79.897,40.93 78.183,42.791 75.651,43.442C73.118,44.093 70.719,43.288 70.297,41.647C69.876,40.006 71.59,38.145 74.122,37.494Z" style="fill:#985fa3;"/><path d="M76.675,34.179C76.146,34.179 75.658,34.179 75.119,34.26C81.53,34.959 86.443,40.436 86.443,46.885C86.443,53.852 80.71,59.585 73.743,59.585C67.294,59.585 61.817,54.672 61.118,48.261C61.118,48.77 61.037,49.278 61.037,49.817C61.037,58.396 68.096,65.455 76.675,65.455C85.254,65.455 92.313,58.396 92.313,49.817C92.313,41.238 85.254,34.179 76.675,34.179Z" style="fill:#1d1d1b;fill-opacity:0.5;fill-rule:nonzero;"/><circle cx="76.675" cy="49.817" r="15.638" style="fill:none;stroke:#000;stroke-width:4.07px;"/><path d="M68.49,47.265C69.305,47.444 70.074,47.79 70.747,48.282C71.348,48.714 71.879,49.235 72.323,49.827C72.756,50.421 73.099,51.075 73.34,51.769C73.624,52.56 73.742,53.401 73.686,54.24C72.868,54.06 72.096,53.714 71.418,53.223C70.835,52.797 70.317,52.286 69.883,51.708C69.446,51.117 69.103,50.462 68.866,49.766C68.565,48.968 68.437,48.116 68.49,47.265Z" style="fill:#010101;fill-rule:nonzero;"/><path d="M67.941,53.355C68.038,52.46 68.311,51.593 68.744,50.803C69.123,50.088 69.599,49.427 70.158,48.841C70.719,48.258 71.355,47.752 72.049,47.336C72.825,46.872 73.685,46.568 74.581,46.441C74.483,47.338 74.214,48.208 73.787,49.004C73.015,50.437 71.865,51.632 70.463,52.461C69.69,52.923 68.833,53.227 67.941,53.355Z" style="fill:#010101;fill-rule:nonzero;"/><circle cx="84.82" cy="66.451" r="13.157" style="fill:#813b8f;"/><path d="M82.677,56.092C84.807,55.544 86.825,56.221 87.18,57.601C87.535,58.982 86.093,60.547 83.962,61.095C81.832,61.642 79.814,60.966 79.459,59.585C79.104,58.205 80.546,56.639 82.677,56.092Z" style="fill:#985fa3;"/><path d="M84.82,53.294C84.341,53.295 83.862,53.323 83.386,53.376C88.626,54.002 92.615,58.497 92.615,63.774C92.615,69.52 87.888,74.247 82.143,74.247C76.865,74.247 72.37,70.258 71.744,65.018C71.692,65.491 71.666,65.966 71.666,66.441C71.666,73.653 77.601,79.588 84.813,79.588C92.026,79.588 97.96,73.653 97.96,66.441C97.96,59.231 92.029,53.298 84.82,53.294Z" style="fill:#1d1d1b;fill-opacity:0.5;fill-rule:nonzero;"/><circle cx="84.82" cy="66.451" r="13.157" style="fill:none;stroke:#000;stroke-width:4.07px;"/><path d="M87.9,61.805C88.626,61.902 89.32,62.159 89.934,62.557C90.458,62.899 90.919,63.329 91.296,63.828C91.673,64.33 91.959,64.895 92.14,65.496C92.348,66.205 92.397,66.951 92.283,67.682C91.557,67.588 90.861,67.331 90.249,66.929C89.723,66.59 89.262,66.16 88.887,65.658C88.513,65.156 88.231,64.591 88.053,63.991C87.837,63.283 87.785,62.536 87.9,61.805Z" style="fill-rule:nonzero;"/><path d="M87.443,66.96C87.45,66.171 87.63,65.393 87.972,64.682C88.56,63.434 89.538,62.41 90.757,61.764C91.457,61.391 92.232,61.179 93.025,61.144C93.023,61.92 92.853,62.687 92.527,63.391C92.238,64.015 91.846,64.586 91.368,65.079C90.893,65.568 90.344,65.98 89.741,66.299C89.033,66.686 88.248,66.912 87.443,66.96Z" style="fill-rule:nonzero;"/><circle cx="25.582" cy="60.32" r="23.549" style="fill:#813b8f;"/><path d="M21.752,41.778C25.568,40.797 29.18,42.005 29.814,44.472C30.448,46.94 27.865,49.739 24.05,50.72C20.234,51.7 16.622,50.493 15.988,48.025C15.354,45.557 17.937,42.758 21.752,41.778Z" style="fill:#985fa3;"/><path d="M25.582,36.772C24.972,36.772 24.372,36.772 23.772,36.853C34.273,37.633 42.497,46.491 42.497,57.021C42.497,68.116 33.368,77.245 22.274,77.245C11.74,77.245 2.88,69.015 2.105,58.51C2.034,59.11 2.034,59.71 2.034,60.32C2.034,60.324 2.034,60.327 2.034,60.33C2.034,73.254 12.668,83.889 25.592,83.889C38.516,83.889 49.151,73.254 49.151,60.33C49.151,47.407 38.516,36.772 25.592,36.772C25.589,36.772 25.585,36.772 25.582,36.772Z" style="fill:#1d1d1b;fill-opacity:0.5;fill-rule:nonzero;"/><circle cx="25.582" cy="60.32" r="23.549" style="fill:none;stroke:#000;stroke-width:4.07px;"/><path d="M10.92,50.468C12.201,50.676 13.42,51.166 14.489,51.901C15.413,52.533 16.227,53.313 16.899,54.209C17.573,55.099 18.092,56.096 18.434,57.158C18.84,58.393 18.969,59.702 18.81,60.991C17.534,60.78 16.319,60.29 15.252,59.558C14.326,58.931 13.514,58.15 12.852,57.25C12.18,56.355 11.661,55.355 11.317,54.291C10.909,53.06 10.773,51.756 10.92,50.468Z" style="fill-rule:nonzero;"/><path d="M10.107,59.649C10.163,58.264 10.509,56.906 11.124,55.663C11.689,54.583 12.412,53.593 13.269,52.725C14.11,51.835 15.084,51.08 16.157,50.488C17.373,49.813 18.716,49.398 20.102,49.268C20.048,50.653 19.702,52.012 19.085,53.254C18.542,54.353 17.832,55.361 16.98,56.243C16.132,57.124 15.155,57.871 14.082,58.46C12.857,59.134 11.501,59.539 10.107,59.649Z" style="fill-rule:nonzero;"/><circle cx="56.289" cy="59.293" r="23.549" style="fill:#813b8f;"/><path d="M56.289,35.745C55.516,35.745 54.753,35.745 54.001,35.857C63.72,36.895 71.178,45.191 71.178,54.965C71.178,65.507 62.503,74.182 51.961,74.182C42.186,74.182 33.89,66.725 32.852,57.006C32.781,57.758 32.74,58.521 32.74,59.293C32.74,72.212 43.37,82.842 56.289,82.842C69.207,82.842 79.837,72.212 79.837,59.293C79.837,46.375 69.207,35.745 56.289,35.745Z" style="fill:#1d1d1b;fill-opacity:0.5;fill-rule:nonzero;"/><circle cx="56.289" cy="59.293" r="23.549" style="fill:none;stroke:#000;stroke-width:4.07px;"/><path d="M64.637,57.524C65.914,57.733 67.13,58.222 68.195,58.958C69.122,59.587 69.936,60.367 70.605,61.266C71.299,62.151 71.835,63.148 72.191,64.215C72.602,65.448 72.731,66.758 72.567,68.048C71.286,67.841 70.067,67.351 68.998,66.614C68.07,65.988 67.255,65.207 66.589,64.306C65.92,63.411 65.404,62.411 65.064,61.347C64.635,60.121 64.489,58.814 64.637,57.524Z" style="fill-rule:nonzero;"/><path d="M63.813,66.706C63.889,65.317 64.252,63.96 64.881,62.72C65.42,61.624 66.127,60.619 66.975,59.741C67.818,58.853 68.792,58.098 69.863,57.504C71.077,56.824 72.422,56.409 73.808,56.284C73.754,57.669 73.408,59.028 72.791,60.269C72.248,61.368 71.538,62.377 70.686,63.259C69.838,64.14 68.861,64.887 67.789,65.475C66.567,66.165 65.211,66.585 63.813,66.706Z" style="fill-rule:nonzero;"/><path d="M52.447,40.75C56.263,39.769 59.875,40.977 60.509,43.444C61.143,45.912 58.56,48.711 54.745,49.691C50.929,50.672 47.317,49.464 46.683,46.997C46.049,44.529 48.632,41.73 52.447,40.75Z" style="fill:#985fa3;"/></g></svg>
