<svg width="100px" height="100px" viewBox="0 0 100 100" version="1.1" xmlns="http://www.w3.org/2000/svg" xmlns:xlink="http://www.w3.org/1999/xlink" xml:space="preserve" xmlns:serif="http://www.serif.com/" style="fill-rule:evenodd;clip-rule:evenodd;stroke-linejoin:round;stroke-miterlimit:1.41421;"><g><path d="M43.668,0.5l-33.801,10.407l-6.176,23.19l2.098,10.901l6.309,20.385l29.59,32.336l11.186,1.781l33.774,-5.556l9.661,-42.855l-17.857,-31.405l-34.783,-19.184l-0.001,0Z" style="fill:#709763;fill-rule:nonzero;"/><clipPath id="_clip1"><path d="M43.668,0.5l-33.801,10.407l-6.176,23.19l2.098,10.901l6.309,20.385l29.59,32.336l11.186,1.781l33.774,-5.556l9.661,-42.855l-17.857,-31.405l-34.783,-19.184l-0.001,0Z" clip-rule="nonzero"/></clipPath><g clip-path="url(#_clip1)"><path d="M8.542,34.519l1.325,-23.612l-6.176,23.19l2.098,10.901l6.309,20.385l29.59,32.336l11.186,1.781l33.774,-5.556l-32.427,1.132l-9.313,-3.715l-26.714,-32l-9.652,-24.842Z" style="fill:#4d6744;fill-opacity:0.5;fill-rule:nonzero;"/></g><path d="M43.668,0.5l-33.801,10.407l-6.176,23.19l2.098,10.901l6.309,20.385l29.59,32.336l11.186,1.781l33.774,-5.556l9.661,-42.855l-17.857,-31.405l-34.783,-19.184l-0.001,0Z" style="fill:none;stroke:#000;stroke-width:0.02px;"/><path d="M43.669,0.5l34.783,19.184l17.857,31.405l-9.661,42.855l-33.774,5.556l-11.555,-34.546l-2.198,-6.56l-1.59,6.731l-2.039,8.593l-29.703,-28.72l5.959,-6.83l3.319,2.983l4.593,4.124l-1.352,-6.025l-1.848,-8.262l-0.528,-2.356l-2.204,0.983l-10.037,4.482l6.176,-23.19l33.801,-10.407l0.001,0Zm-31.571,64.883l28.416,18.425l1.174,13.911l-29.59,-32.336l0,0l0,0Zm23.156,-21.896l23.368,27.03l22.675,0.178l-22.154,-7.153l-23.889,-32.785l0,12.73Zm-3.768,-32.454l-12.301,5.153l5.741,18.782l0.687,-15.509l5.873,-8.426l0,-0.001l0,0l0,0.001Z" style="fill:#b07539;fill-rule:nonzero;"/><clipPath id="_clip2"><path d="M43.669,0.5l34.783,19.184l17.857,31.405l-9.661,42.855l-33.774,5.556l-11.555,-34.546l-2.198,-6.56l-1.59,6.731l-2.039,8.593l-29.703,-28.72l5.959,-6.83l3.319,2.983l4.593,4.124l-1.352,-6.025l-1.848,-8.262l-0.528,-2.356l-2.204,0.983l-10.037,4.482l6.176,-23.19l33.801,-10.407l0.001,0Zm-31.571,64.883l28.416,18.425l1.174,13.911l-29.59,-32.336l0,0l0,0Zm23.156,-21.896l23.368,27.03l22.675,0.178l-22.154,-7.153l-23.889,-32.785l0,12.73Zm-3.768,-32.454l-12.301,5.153l5.741,18.782l0.687,-15.509l5.873,-8.426l0,-0.001l0,0l0,0.001Z" clip-rule="nonzero"/></clipPath><g clip-path="url(#_clip2)"><path d="M8.542,34.519l1.325,-23.612l-6.176,23.19l2.098,10.901l6.309,20.385l29.59,32.336l11.186,1.781l33.774,-5.556l-32.427,1.132l-9.313,-3.715l-26.714,-32l-9.652,-24.842Z" style="fill:#6b4723;fill-opacity:0.5;fill-rule:nonzero;"/></g><path d="M43.669,0.5l34.783,19.184l17.857,31.405l-9.661,42.855l-33.774,5.556l-11.555,-34.546l-2.198,-6.56l-1.59,6.731l-2.039,8.593l-29.703,-28.72l5.959,-6.83l3.319,2.983l4.593,4.124l-1.352,-6.025l-1.848,-8.262l-0.528,-2.356l-2.204,0.983l-10.037,4.482l6.176,-23.19l33.801,-10.407l0.001,0Zm-31.571,64.883l28.416,18.425l1.174,13.911l-29.59,-32.336l0,0l0,0Zm23.156,-21.896l23.368,27.03l22.675,0.178l-22.154,-7.153l-23.889,-32.785l0,12.73Zm-3.768,-32.454l-12.301,5.153l5.741,18.782l0.687,-15.509l5.873,-8.426l0,-0.001l0,0l0,0.001Z" style="fill:none;stroke:#000;stroke-width:0.62px;"/><path d="M43.669,0.5l34.783,19.184l17.857,31.405l-9.661,42.855l1.353,-40.488l-14.491,-28.553l-30.737,-17.863l-32.906,3.867l33.801,-10.407l0.001,0Z" style="fill:#c78d51;fill-rule:nonzero;"/><path d="M43.668,0.5l-33.801,10.407l-6.176,23.19l2.098,10.901l6.309,20.385l29.59,32.336l11.186,1.781l33.774,-5.556l9.661,-42.855l-17.857,-31.405l-34.783,-19.184l-0.001,0Z" style="fill:none;stroke:#000;stroke-width:0.6px;"/></g></svg>