<svg width="100px" height="100px" viewBox="0 0 100 100" version="1.1" xmlns="http://www.w3.org/2000/svg" xmlns:xlink="http://www.w3.org/1999/xlink" xml:space="preserve" xmlns:serif="http://www.serif.com/" style="fill-rule:evenodd;clip-rule:evenodd;stroke-linejoin:round;stroke-miterlimit:1.41421;"><g id="Offene-Tür--außen-" serif:id="Offene Tür (außen)"><path d="M88.528,11.491c-12.842,-12.837 -64.209,-12.852 -77.051,-0.012c-11.298,11.296 -11.299,65.757 0,77.051c12.842,12.837 64.209,12.81 77.051,-0.03c11.292,-11.29 11.292,-65.721 0,-77.009Z" style="fill:#491b05;"/><path d="M18.458,5.458l0,89.091c-3.369,-1.363 -6.139,-3.008 -8.067,-4.934c-11.616,-11.612 -11.616,-67.607 0,-79.221c1.928,-1.927 4.698,-3.572 8.067,-4.936Zm63.716,0.272c3.086,1.312 5.633,2.871 7.439,4.676c11.611,11.606 11.61,67.571 0,79.179c-1.806,1.806 -4.353,3.365 -7.439,4.677l0,-88.532Z" style="fill:url(#_Radial1);stroke:#000;stroke-width:0.3px;"/><path d="M18.3,27.534l0,44.939c-3.96,-11.503 -3.96,-33.434 0,-44.939Zm64.036,2.053c3.112,11.183 3.112,29.635 0,40.819l0,-40.819Z" style="fill:#7b2e08;"/><path d="M96.852,70.041l-0.513,2.92l-7.136,0.373l7.649,-3.293Z"/><path d="M97.644,36.107l0.2,2.177l-8.043,-2.197l7.843,0.02Z"/><path d="M18.458,59.305l-16.192,3.663l-0.586,-12.381c0,0 6.848,2.827 16.778,4.57l0,4.148Z"/></g><defs><radialGradient id="_Radial1" cx="0" cy="0" r="1" gradientUnits="userSpaceOnUse" gradientTransform="matrix(48.3209,0,0,48.3209,50,50.0035)"><stop offset="0" style="stop-color:#7b2e08;stop-opacity:1"/><stop offset="1" style="stop-color:#301203;stop-opacity:1"/></radialGradient></defs></svg>