<svg width="100px" height="100px" viewBox="0 0 100 100" version="1.1" xmlns="http://www.w3.org/2000/svg" xmlns:xlink="http://www.w3.org/1999/xlink" xml:space="preserve" xmlns:serif="http://www.serif.com/" style="fill-rule:evenodd;clip-rule:evenodd;stroke-miterlimit:1.5;"><g><path d="M86.532,13.543C84.677,11.716 82.035,10.649 80.428,12.138C78.168,14.39 79.653,16.724 81.526,18.547C83.107,20.276 86.326,21.809 87.906,19.511C89.454,17.968 88.395,15.386 86.532,13.543Z" style="fill:url(#_Radial1);stroke:#000;stroke-width:0.3px;"/><path d="M90.579,23.284C86.932,27.36 81.261,24.694 78.336,21.806C75.375,18.882 72.756,13.403 76.681,9.434C75.379,8.461 73.96,7.424 72.358,6.271C72.28,7.922 71.92,9.654 71.34,11.381C69.761,16.085 66.513,21.125 61.942,25.68C57.371,30.236 52.318,33.469 47.603,35.037C45.874,35.611 44.14,35.969 42.487,36.044C44.646,40.46 57.294,55.049 69.609,61.878C71.314,62.812 73.775,63.616 77.647,62.329C81.518,61.042 86.125,58.164 90.279,54.025C94.432,49.885 97.323,45.291 98.62,41.428C99.916,37.566 99.363,34.945 98.183,33.403C95.6,29.731 93.118,26.673 90.58,23.285L90.579,23.284Z" style="fill:url(#_Linear2);stroke:#000;stroke-width:0.3px;"/><path d="M66.624,2.11C65.327,0.813 62.622,0.433 58.788,1.707C54.953,2.982 50.367,5.844 46.231,9.966C42.096,14.087 39.22,18.661 37.936,22.487C36.652,26.313 37.028,29.014 38.325,30.311C39.621,31.608 42.327,31.989 46.161,30.714C49.995,29.439 54.582,26.577 58.717,22.456C60.286,20.892 61.69,19.275 62.862,17.634C63.286,17.041 57.026,16.249 57.026,16.249C57.026,16.249 64.731,14.816 65.026,14.295C65.884,12.782 66.551,11.309 67.013,9.934C68.297,6.108 67.921,3.406 66.625,2.109L66.624,2.11Z" style="fill:url(#_Radial3);stroke:#000;stroke-width:0.3px;"/><path d="M45.241,47.205L2.319,89.98C0.94,91.353 0.57,92.635 0.642,93.892C0.714,95.149 1.33,96.43 2.303,97.402C3.275,98.375 4.559,98.994 5.821,99.069C7.082,99.143 8.37,98.774 9.748,97.401L52.649,54.646C49.827,52.275 47.618,50.055 45.24,47.205L45.241,47.205Z" style="fill:url(#_Linear4);stroke:#000;stroke-width:0.3px;"/></g><defs><radialGradient id="_Radial1" cx="0" cy="0" r="1" gradientUnits="userSpaceOnUse" gradientTransform="matrix(3.73088,3.73088,-2.50479,2.50479,84.0036,16.0242)"><stop offset="0" style="stop-color:#582106;stop-opacity:1"/><stop offset="0.51" style="stop-color:#4e1d05;stop-opacity:1"/><stop offset="1" style="stop-color:#301203;stop-opacity:1"/></radialGradient><linearGradient id="_Linear2" x1="0" y1="0" x2="1" y2="0" gradientUnits="userSpaceOnUse" gradientTransform="matrix(31.5582,-31.5582,31.5582,31.5582,55.834,51.6555)"><stop offset="0" style="stop-color:#301203;stop-opacity:1"/><stop offset="0.5" style="stop-color:#582106;stop-opacity:1"/><stop offset="1" style="stop-color:#301203;stop-opacity:1"/></linearGradient><radialGradient id="_Radial3" cx="0" cy="0" r="1" gradientUnits="userSpaceOnUse" gradientTransform="matrix(6.24399,6.24399,-14.1254,14.1254,52.4748,16.2103)"><stop offset="0" style="stop-color:#582106;stop-opacity:1"/><stop offset="0.51" style="stop-color:#4e1d05;stop-opacity:1"/><stop offset="1" style="stop-color:#301203;stop-opacity:1"/></radialGradient><linearGradient id="_Linear4" x1="0" y1="0" x2="1" y2="0" gradientUnits="userSpaceOnUse" gradientTransform="matrix(7.49812,7.49812,-46.5676,46.5676,21.8833,70.4154)"><stop offset="0" style="stop-color:#301203;stop-opacity:1"/><stop offset="0.5" style="stop-color:#582106;stop-opacity:1"/><stop offset="1" style="stop-color:#301203;stop-opacity:1"/></linearGradient></defs></svg>