<svg width="100px" height="100px" viewBox="0 0 100 100" version="1.1" xmlns="http://www.w3.org/2000/svg" xmlns:xlink="http://www.w3.org/1999/xlink" xml:space="preserve" xmlns:serif="http://www.serif.com/" style="fill-rule:evenodd;clip-rule:evenodd;stroke-linecap:round;stroke-linejoin:round;stroke-miterlimit:1.5;">
    <g id="Bronzehammer" transform="matrix(-0.127092,-0.101954,-0.101954,0.127092,107.402,36.5048)">
        <g transform="matrix(6.11416,-0.671035,0.671035,6.11416,-57.5367,-37.4242)">
            <path d="M76.035,24.42C77.129,23.215 73.349,22.179 72.541,21.371C72.011,20.841 71.759,19.027 71.187,19.572C59.592,30.642 13.533,75.611 2.97,87.789C1.394,89.607 6.001,94.214 7.819,92.637C19.996,82.075 65.248,36.298 76.035,24.42Z" style="fill:url(#_Linear1);stroke:black;stroke-width:0.29px;"/>
        </g>
        <g transform="matrix(-1.27914,0.140387,0.140387,1.27914,510.39,-57.719)">
            <path d="M219.396,43.104L168.786,49.854L133.85,43.444L21.13,156.163L84.231,219.271L239.897,63.608L219.396,43.104Z" style="fill:url(#_Radial2);fill-rule:nonzero;"/>
        </g>
    </g>
    <defs>
        <linearGradient id="_Linear1" x1="0" y1="0" x2="1" y2="0" gradientUnits="userSpaceOnUse" gradientTransform="matrix(4.84778,4.84778,-4.84778,4.84778,37.0789,53.6806)"><stop offset="0" style="stop-color:rgb(48,18,3);stop-opacity:1"/><stop offset="0.5" style="stop-color:rgb(88,33,6);stop-opacity:1"/><stop offset="1" style="stop-color:rgb(48,18,3);stop-opacity:1"/></linearGradient>
        <radialGradient id="_Radial2" cx="0" cy="0" r="1" gradientUnits="userSpaceOnUse" gradientTransform="matrix(117.756,-117.756,60.7264,60.7264,155.833,143.101)"><stop offset="0" style="stop-color:rgb(153,153,153);stop-opacity:1"/><stop offset="0.29" style="stop-color:rgb(199,112,38);stop-opacity:1"/><stop offset="0.64" style="stop-color:rgb(211,101,7);stop-opacity:1"/><stop offset="1" style="stop-color:rgb(161,77,5);stop-opacity:1"/></radialGradient>
    </defs>
</svg>
