<svg width="100px" height="100px" viewBox="0 0 100 100" version="1.1" xmlns="http://www.w3.org/2000/svg" xmlns:xlink="http://www.w3.org/1999/xlink" xml:space="preserve" xmlns:serif="http://www.serif.com/" style="fill-rule:evenodd;clip-rule:evenodd;stroke-linecap:round;stroke-linejoin:round;stroke-miterlimit:1.5;"><path d="M46.818,1.927C46.902,0.307 50.533,2.24 51.752,2.24C52.551,2.24 54.109,1.14 54.129,1.927C54.258,7.149 52.646,20.061 53.049,32.212C53.192,36.553 54.361,41.067 54.514,45.62C54.808,54.322 53.407,66.201 53.392,74.227C53.369,85.87 54.585,92.76 54.129,98.056C53.923,100.446 47,100.448 46.818,98.056C46.368,92.145 45.984,79.627 46.242,65.49C46.339,60.217 47.179,57.108 47.194,51.596C47.201,48.996 46.074,43.995 46.089,41.427C46.117,36.82 45.398,32.559 45.449,28.291C45.586,16.846 46.561,6.912 46.818,1.927Z" style="fill:url(#_Linear1);stroke:#000;stroke-width:0.3px;"/><path d="M29.719,4.5L34.468,4.597L54.712,4.669L56.864,4.322L59.808,4.316L60.866,1.508L64.328,1.641L64.026,4.47L65.33,4.416L71.01,5.625C71.01,5.625 73.792,5.884 75.353,12.086C75.785,13.805 76.141,15.747 76.197,17.552C76.276,20.106 75.92,22.536 75.749,24.985C75.526,28.18 75.256,30.543 74.79,32.387C73.803,36.293 72.455,37.592 72.455,37.592C72.455,37.592 72.451,37.593 72.07,38.2C71.534,39.056 70.899,39.423 68.424,39.619C64.191,39.954 52.795,39.699 52.795,39.699L37.115,40.085L35.589,40.528L30.273,40.548L28.854,39.3L25.391,32.048L23.909,22.152C23.909,22.152 23.535,16.519 24.54,12.614C25.707,8.084 29.719,4.5 29.719,4.5Z"/><path d="M73.394,36.618C72.372,38.998 71.151,40.405 69.787,40.406L35.475,40.406C35.769,39.86 36.037,39.265 36.279,38.625C36.462,38.145 36.629,37.64 36.781,37.113C37.478,34.707 37.878,31.914 38.042,28.978C41.23,28.531 54.309,25.738 54.309,25.738C48.881,24.834 43.231,25.499 38.06,22.784C38.052,22.591 38.044,22.397 38.034,22.202C37.752,16.917 36.877,11.694 35.569,7.671C35.184,6.49 34.758,5.405 34.295,4.462L58.925,4.462L58.23,6.271C58.187,6.31 58.144,6.349 58.097,6.395L52.266,9.7L57.894,9.701C57.888,9.687 57.884,9.672 57.879,9.657L57.891,9.664L60.92,1.647C61.366,2.323 61.866,2.76 62.405,2.848C63.028,2.951 63.666,2.537 64.254,1.641L63.39,9.663L64.926,8.762L65.391,4.462L69.786,4.461C72.402,4.462 73.998,6.643 74.989,9.884C75.506,11.574 75.85,13.609 76.035,15.823L66.972,15.823L76.189,18.916C76.208,20.008 76.193,21.122 76.144,22.244C76.041,24.61 75.788,26.987 75.413,29.202C75.413,29.149 75.414,29.096 75.414,29.044L69.786,32.349L73.828,35.514C73.752,35.724 73.674,35.931 73.596,36.128C73.529,36.296 73.462,36.459 73.394,36.618L73.394,36.618Z" style="fill:url(#_Linear2);stroke:#000;stroke-width:0.3px;stroke-linecap:butt;stroke-linejoin:miter;"/><path d="M34.881,36.714C33.934,38.958 32.537,40.381 30.44,40.404C28.585,40.376 27.059,38.256 25.897,34.896C24.727,31.513 23.976,26.876 23.813,22.279C23.787,21.557 23.777,20.837 23.781,20.123C24.79,21.39 27.283,21.64 28.982,22.433C27.16,20.479 25.468,18.12 24.117,14.693C24.34,12.937 24.674,11.315 25.123,9.921C26.166,6.684 27.814,4.494 30.421,4.463C31.852,4.494 33.209,6.54 34.311,9.928C35.421,13.342 36.217,18.035 36.463,22.664C36.709,27.294 36.405,31.803 35.473,35.022L34.881,36.714Z" style="fill:url(#_Radial3);stroke:#000;stroke-width:0.3px;stroke-linecap:butt;stroke-linejoin:miter;"/><path d="M33.14,35.021C34.466,32.181 35.26,27.464 35.26,22.434C35.26,14.067 33.061,7.182 30.389,7.182C29.001,7.189 27.678,9.053 26.756,12.3C27.486,10.643 28.376,9.743 29.29,9.737C31.606,9.737 33.512,15.468 33.512,22.433C33.512,29.398 31.607,35.13 29.291,35.13C28.376,35.126 27.486,34.227 26.756,32.571C27.678,35.817 29.001,37.68 30.389,37.685C31.37,37.686 32.329,36.757 33.139,35.022L33.14,35.021Z"/><defs><linearGradient id="_Linear1" x1="0" y1="0" x2="1" y2="0" gradientUnits="userSpaceOnUse" gradientTransform="matrix(-7.3104,8.95266e-16,-8.95266e-16,-7.3104,54.1278,49.9914)"><stop offset="0" style="stop-color:#301203;stop-opacity:1"/><stop offset="0.5" style="stop-color:#582106;stop-opacity:1"/><stop offset="1" style="stop-color:#301203;stop-opacity:1"/></linearGradient><linearGradient id="_Linear2" x1="0" y1="0" x2="1" y2="0" gradientUnits="userSpaceOnUse" gradientTransform="matrix(-2.36421,-35.9418,-35.9418,2.36421,50.875,40.4044)"><stop offset="0" style="stop-color:#301203;stop-opacity:1"/><stop offset="0.5" style="stop-color:#582106;stop-opacity:1"/><stop offset="1" style="stop-color:#301203;stop-opacity:1"/></linearGradient><radialGradient id="_Radial3" cx="0" cy="0" r="1" gradientUnits="userSpaceOnUse" gradientTransform="matrix(-4.80162,11.2791,5.31047,12.4743,30.2377,22.6736)"><stop offset="0" style="stop-color:#582106;stop-opacity:1"/><stop offset="0.51" style="stop-color:#4e1d05;stop-opacity:1"/><stop offset="1" style="stop-color:#301203;stop-opacity:1"/></radialGradient></defs></svg>