<svg width="100px" height="100px" viewBox="0 0 100 100" version="1.1" xmlns="http://www.w3.org/2000/svg" xmlns:xlink="http://www.w3.org/1999/xlink" xml:space="preserve" xmlns:serif="http://www.serif.com/" style="fill-rule:evenodd;clip-rule:evenodd;">
    <g id="IvorySword" transform="matrix(-2.91985,1.01856,-1.01856,-2.91985,251.524,255.802)">
        <path d="M36.221,86.405C36.467,85.983 37.248,85.803 37.473,85.389C37.679,85.009 37.331,84.394 37.52,84.022C42.627,73.963 41.703,66.77 45.175,70.219C45.604,70.645 44.946,72.015 44.612,73.886C44.375,75.213 44.092,76.492 43.762,77.722C43.629,78.22 42.518,79.161 42.369,79.643C42.249,80.033 42.428,81.824 42.131,82.532C39.935,87.779 36.67,91.908 32.335,94.922C30.481,96.21 23.881,95.564 23.226,95.339C21.586,94.777 30.375,96.422 36.221,86.405Z" style="fill:rgb(234,225,110);fill-rule:nonzero;stroke:black;stroke-width:0.64px;"/>
        <g transform="matrix(0.066226,-0.289024,0.128923,0.0295409,36.9201,83.0307)">
            <path d="M48.714,47.042C49.957,47.042 50.966,46.033 50.966,44.79L52.304,18.756C52.304,17.513 51.151,16.119 49.908,16.119C48.665,16.119 47.8,17.513 47.8,18.756L46.462,44.79C46.462,46.033 47.471,47.042 48.714,47.042Z" style="fill:rgb(68,41,28);stroke:black;stroke-width:0.28px;"/>
        </g>
        <g transform="matrix(0.105473,-0.277121,0.123613,0.0470474,34.9475,82.6523)">
            <path d="M48.714,47.042C49.957,47.042 50.966,46.033 50.966,44.79L52.304,18.756C52.304,17.513 51.151,16.119 49.908,16.119C48.665,16.119 47.8,17.513 47.8,18.756L46.462,44.79C46.462,46.033 47.471,47.042 48.714,47.042Z" style="fill:rgb(68,41,28);stroke:black;stroke-width:0.28px;"/>
        </g>
        <g transform="matrix(0.0181999,-0.295955,0.132014,0.00811831,38.8842,85.3441)">
            <path d="M48.714,47.042C49.957,47.042 50.966,46.033 50.966,44.79L52.304,18.756C52.304,17.513 51.151,16.119 49.908,16.119C48.665,16.119 47.8,17.513 47.8,18.756L46.462,44.79C46.462,46.033 47.471,47.042 48.714,47.042Z" style="fill:rgb(68,41,28);stroke:black;stroke-width:0.28px;"/>
        </g>
        <g transform="matrix(0.0521369,-0.291895,0.130203,0.0232563,37.047,85.2338)">
            <path d="M48.714,47.042C49.957,47.042 50.966,46.033 50.966,44.79L52.304,18.756C52.304,17.513 51.151,16.119 49.908,16.119C48.665,16.119 47.8,17.513 47.8,18.756L46.462,44.79C46.462,46.033 47.471,47.042 48.714,47.042Z" style="fill:rgb(68,41,28);stroke:black;stroke-width:0.28px;"/>
        </g>
        <g transform="matrix(-0.0100087,-0.296345,0.137624,-0.00464808,39.7853,86.9506)">
            <path d="M48.714,47.042C49.957,47.042 50.966,46.033 50.966,44.79L52.304,18.756C52.304,17.513 51.151,16.119 49.908,16.119C48.665,16.119 47.8,17.513 47.8,18.756L46.462,44.79C46.462,46.033 47.471,47.042 48.714,47.042Z" style="fill:rgb(68,41,28);stroke:black;stroke-width:0.28px;"/>
        </g>
    </g>
</svg>
