<svg width="100px" height="100px" viewBox="0 0 100 100" version="1.1" xmlns="http://www.w3.org/2000/svg" xmlns:xlink="http://www.w3.org/1999/xlink" xml:space="preserve" xmlns:serif="http://www.serif.com/" style="fill-rule:evenodd;clip-rule:evenodd;stroke-linecap:round;stroke-linejoin:round;stroke-miterlimit:1.5;">
    <g id="Player" transform="matrix(-1.28556,1.57436e-16,-1.57436e-16,-1.28556,115.333,99.8926)">
        <ellipse id="path3698.-1" cx="51.37" cy="42.573" rx="28.844" ry="30.422" style="fill:rgb(242,165,134);"/>
        <g transform="matrix(1,0,0,0.662336,0.622177,18.2365)">
            <path d="M50.809,62.685C54.371,62.685 58.483,63.619 58.483,64.554C58.483,65.49 54.626,64.656 51.063,64.656C47.501,64.656 43.542,65.895 43.542,64.96C43.542,64.024 47.247,62.685 50.809,62.685Z" style="stroke:rgb(255,133,81);stroke-width:0.3px;"/>
        </g>
        <g transform="matrix(1,0,0,1,-0.995,0)">
            <g transform="matrix(1,0,0,0.455571,0,31.7654)">
                <circle cx="63.329" cy="38.636" r="4.83" style="stroke:white;stroke-width:0.2px;"/>
                <circle cx="65.061" cy="40.807" r="2.055" style="fill:white;"/>
            </g>
            <g transform="matrix(1,0,0,0.455571,0,31.7654)">
                <circle cx="41.401" cy="38.636" r="4.83" style="stroke:white;stroke-width:0.2px;"/>
                <circle cx="43.133" cy="40.807" r="2.055" style="fill:white;"/>
            </g>
        </g>
        <g transform="matrix(-0.777872,-9.52618e-17,9.52618e-17,-0.777872,89.7142,77.7036)">
            <path d="M94.26,25.528C94.953,27.866 95.471,30.308 95.471,32.374C95.471,35.288 95.06,37.977 94.367,40.135C94.449,40.257 94.527,40.383 94.602,40.511C96.026,41.951 95.922,44.242 96.067,46.092C96.21,47.936 95.467,51.609 95.467,51.609C95.467,51.609 96.673,55.516 96.775,57.537C96.885,59.72 96.757,62.309 96.127,64.707C96.055,65.677 96.517,68.497 96.129,70.482C95.629,73.032 94.263,74.832 94.263,76.219C94.263,79.902 92.342,82.85 90.444,85.348C88.547,87.847 82.891,91.26 82.879,91.278C81.451,93.415 79.941,93.712 77.305,94.794C74.545,95.927 71.853,96.38 70.338,96.137C63.342,95.015 59.79,94.647 63.895,95.99C75.329,99.731 55.241,100.177 50.915,99.346C50.863,99.336 26.758,92.389 40.202,97.876C45.032,99.846 31.03,99.88 16.997,90.436C12.219,87.222 5.95,81.055 5.95,75.495C5.95,74.627 6.015,73.784 6.139,72.977C4.487,71.479 3.362,68.533 3.362,65.146C3.362,62.671 3.962,60.431 4.932,58.82C4.639,58.251 4.392,57.62 4.198,56.941C3.993,56.229 3.848,55.464 3.771,54.663C3.728,54.228 3.707,53.783 3.707,53.331C3.707,52.122 3.861,50.972 4.14,49.928C3.542,48.848 3.19,47.52 3.19,46.086C3.19,43.463 4.367,41.199 6.067,40.151C5.882,39.249 5.776,38.215 5.776,37.116C5.776,34.496 6.375,32.244 7.23,31.26C6.857,30.2 6.639,28.921 6.639,27.544C6.639,27.127 6.703,26.268 6.808,25.302C7.089,24.089 7.664,22.516 8.077,23.617C8.408,24.497 12.248,22.659 12.009,21.865C11.88,21.442 13.329,22.071 14.207,22.011C14.855,21.315 15.684,20.2 14.992,19.326C14.63,18.867 16.963,20.056 17.344,20.44C17.602,20.701 18.057,19.533 17.767,18.671C17.734,18.575 19.552,19.191 19.748,19.217C19.809,17.179 23.721,15.139 22.324,13.878C21.396,13.04 24.946,14.096 25.661,15.811C25.998,16.621 25.132,9.952 26.372,10.934C27.403,11.749 28.27,11.719 28.61,12.198C28.776,12.139 28.948,12.094 29.125,12.061C29.082,11.819 29.059,11.572 29.059,11.32C29.059,8.362 33.834,8.422 33.889,5.316C33.899,4.718 38.438,6.232 39.466,6.705C39.809,4.959 43.662,2.301 45.892,2.301C46.356,2.301 46.35,4.343 46.35,4.343C46.35,4.343 48.666,0.3 49.798,0.3C50.652,0.3 54.5,6.038 55.541,3.351C55.889,2.453 59.516,6.098 59.739,5.629C60.393,4.251 63.463,9.962 63.779,7.241C63.935,5.909 66.887,9.499 68.267,10.283C69.159,10.789 71.164,12.278 70.981,11.787C70.585,10.725 74.151,9.904 74.158,10.024C74.24,11.764 76.008,12.616 76.292,14.639C77.405,14.778 80.395,12.992 80.125,13.79C79.907,14.433 79.548,17.331 80.259,17.926C81.322,16.197 83.599,14.674 83.992,15.359C84.27,15.843 83.481,16.252 85.325,18.093C86.579,19.343 86.493,21.685 88.831,20.643C90.333,19.975 87.975,23.453 89.092,21.998C89.448,21.534 90.005,20.508 90.962,21.426C91.518,21.959 93.065,23.559 94.192,25.302L94.26,25.528ZM50.195,24.048C42.457,24.048 33.004,22.509 33.004,20.843C33.004,19.178 41.385,20.663 49.123,20.663C56.86,20.663 65.461,18.456 65.461,20.121C65.461,21.786 57.933,24.048 50.195,24.048ZM83.363,36.531C84.508,40.857 83.288,56.198 82.558,59.774C81.253,66.173 70.048,83.311 51.757,83.311C33.465,83.311 25.919,74.759 21.26,68.922C16.79,63.322 15.684,58.646 15.01,53.702C14.327,48.696 15.232,39.596 15.232,39.596C15.081,36.605 14.298,34.473 18.11,29.739C20.208,27.134 30.184,29.827 30.122,29.579C33.006,28.914 34.679,26.69 36.468,26.267C37.915,25.922 39.406,27.027 40.856,27.032C42.308,27.037 43.718,26.229 45.173,26.294C46.848,26.369 48.964,27.505 50.909,27.479C53.219,27.449 57.521,26.204 59.036,26.105C61.24,25.96 65.173,26.889 68.249,27.185C71.42,27.49 74.508,26.59 78.062,27.935C81.078,29.079 83.063,35.399 83.363,36.531Z" style="fill:rgb(20,14,11);stroke:black;stroke-width:0.46px;"/>
        </g>
    </g>
</svg>
