<svg width="160px" height="90px" viewBox="0 0 160 90" version="1.1" xmlns="http://www.w3.org/2000/svg" xmlns:xlink="http://www.w3.org/1999/xlink" xml:space="preserve" xmlns:serif="http://www.serif.com/" style="fill-rule:evenodd;clip-rule:evenodd;stroke-linejoin:round;stroke-miterlimit:1.41421;"><g><g><rect x="-0.5" y="17.956" width="161" height="71.975" style="fill:url(#_Linear1);"/><rect x="-0.5" y="-0.358" width="161" height="72.402" style="fill:url(#_Linear2);"/><path d="M87.401,-0.833l0,91.666l72.544,0l0,-91.666l-72.544,0Z" style="fill:url(#_Linear3);"/><path d="M72.084,90.833l0,-91.666l-72.258,0l0,91.666l72.258,0Z" style="fill:url(#_Linear4);"/></g><g><path d="M147.251,64.983c-0.08,0.059 -0.139,0.378 -0.139,0.696c0,0.537 -0.06,0.576 -0.637,0.517c-0.855,-0.08 -0.894,0.298 -0.059,0.855c0.616,0.417 0.696,0.576 0.696,1.312c0,0.994 -0.279,1.094 -1.193,0.418c-0.517,-0.378 -0.597,-0.557 -0.597,-1.412c0,-1.114 -0.378,-1.213 -0.696,-0.179c-0.139,0.477 -0.258,0.616 -0.497,0.517c-0.736,-0.318 -1.193,-0.318 -1.193,-0.02c0,0.179 0.119,0.398 0.258,0.477c0.12,0.08 0.358,0.319 0.517,0.497c0.239,0.319 0.199,0.378 -0.278,0.557c-0.557,0.219 -0.517,0.597 0.099,0.597c0.199,0 0.637,-0.159 0.955,-0.338c0.557,-0.318 0.636,-0.318 0.974,-0.04c0.199,0.179 0.537,0.378 0.736,0.457c0.358,0.12 0.358,0.159 -0.08,0.617c-0.576,0.616 -1.332,0.636 -2.266,0.079c-0.657,-0.378 -0.716,-0.378 -0.836,-0.079c-0.079,0.199 0.02,0.437 0.299,0.616c0.517,0.378 0.537,0.796 0.02,1.074c-0.438,0.239 -0.537,0.815 -0.14,0.775c0.12,-0.019 0.458,-0.079 0.736,-0.159c0.438,-0.119 0.517,-0.059 0.716,0.458c0.338,0.994 0.676,0.875 0.676,-0.239c0,-0.895 0.06,-1.034 0.696,-1.511c0.378,-0.298 0.795,-0.477 0.895,-0.418c0.318,0.199 0.238,1.651 -0.12,1.929c-0.755,0.617 -1.073,0.974 -1.073,1.153c0,0.259 0.457,0.259 0.735,-0.019c0.358,-0.358 0.657,-0.02 0.657,0.735c0,0.438 0.099,0.676 0.278,0.676c0.298,0 0.517,-0.417 0.517,-1.034c0,-0.397 0.099,-0.417 1.193,-0.139c0.577,0.159 0.298,-0.596 -0.398,-1.054c-0.576,-0.397 -0.696,-0.596 -0.755,-1.312c-0.08,-0.974 0.238,-1.094 1.153,-0.438c0.457,0.319 0.597,0.597 0.636,1.253c0.04,0.597 0.159,0.855 0.398,0.895c0.219,0.04 0.358,-0.099 0.398,-0.398c0.059,-0.397 0.159,-0.457 0.815,-0.417c0.616,0.039 0.736,-0.02 0.736,-0.338c0,-0.219 -0.12,-0.398 -0.279,-0.398c-0.517,0 -0.576,-0.418 -0.159,-0.994c0.557,-0.736 0.199,-1.154 -0.517,-0.597c-0.636,0.517 -1.451,0.497 -2.048,0l-0.477,-0.398l0.497,-0.397c0.716,-0.577 1.173,-0.676 1.551,-0.338c0.179,0.139 0.497,0.338 0.696,0.397c0.517,0.179 0.676,-0.417 0.219,-0.755c-0.358,-0.279 -0.358,-0.318 0.179,-0.776c0.298,-0.278 0.537,-0.596 0.537,-0.716c0,-0.258 -0.855,-0.258 -1.134,0.02c-0.298,0.299 -0.656,0.06 -0.656,-0.437c0,-0.239 -0.139,-0.378 -0.398,-0.378c-0.338,0 -0.397,0.139 -0.397,0.776c0,0.616 -0.12,0.875 -0.517,1.193c-0.855,0.676 -1.273,0.556 -1.273,-0.358c0,-0.617 0.119,-0.875 0.517,-1.193c0.298,-0.239 0.656,-0.418 0.815,-0.418c0.159,0 0.259,-0.139 0.219,-0.358c-0.06,-0.258 -0.239,-0.318 -0.815,-0.278c-0.617,0.059 -0.736,0.02 -0.736,-0.318c0,-0.796 -0.318,-1.233 -0.656,-0.895Z" style="fill:#33b4ff;fill-opacity:0.670588;fill-rule:nonzero;"/><path d="M11.758,7.927c-0.095,0.071 -0.167,0.452 -0.167,0.834c0,0.643 -0.071,0.691 -0.763,0.62c-1.025,-0.096 -1.072,0.357 -0.071,1.024c0.739,0.501 0.834,0.692 0.834,1.574c0,1.191 -0.334,1.311 -1.43,0.5c-0.62,-0.453 -0.715,-0.667 -0.715,-1.692c0,-1.335 -0.453,-1.454 -0.834,-0.215c-0.167,0.572 -0.31,0.739 -0.596,0.62c-0.882,-0.381 -1.43,-0.381 -1.43,-0.024c0,0.215 0.143,0.477 0.309,0.572c0.143,0.096 0.43,0.382 0.62,0.596c0.286,0.382 0.239,0.453 -0.334,0.668c-0.667,0.262 -0.619,0.715 0.12,0.715c0.238,0 0.762,-0.191 1.144,-0.406c0.667,-0.381 0.763,-0.381 1.168,-0.047c0.238,0.214 0.643,0.453 0.882,0.548c0.429,0.143 0.429,0.191 -0.096,0.739c-0.691,0.739 -1.597,0.763 -2.717,0.095c-0.787,-0.453 -0.858,-0.453 -1.001,-0.095c-0.095,0.238 0.024,0.524 0.357,0.739c0.62,0.453 0.644,0.953 0.024,1.287c-0.524,0.286 -0.643,0.977 -0.167,0.93c0.143,-0.024 0.549,-0.096 0.882,-0.191c0.525,-0.143 0.62,-0.072 0.858,0.548c0.406,1.192 0.811,1.049 0.811,-0.286c0,-1.073 0.071,-1.239 0.834,-1.811c0.453,-0.358 0.954,-0.573 1.073,-0.501c0.381,0.238 0.286,1.978 -0.143,2.312c-0.906,0.739 -1.287,1.168 -1.287,1.383c0,0.309 0.548,0.309 0.882,-0.024c0.429,-0.429 0.786,-0.024 0.786,0.882c0,0.524 0.119,0.81 0.334,0.81c0.357,0 0.62,-0.5 0.62,-1.239c0,-0.477 0.119,-0.501 1.43,-0.167c0.691,0.19 0.357,-0.715 -0.477,-1.264c-0.691,-0.476 -0.834,-0.715 -0.906,-1.573c-0.095,-1.168 0.286,-1.311 1.383,-0.524c0.548,0.381 0.715,0.715 0.762,1.502c0.048,0.715 0.191,1.024 0.477,1.072c0.262,0.048 0.429,-0.119 0.477,-0.477c0.071,-0.476 0.191,-0.548 0.977,-0.5c0.739,0.048 0.882,-0.024 0.882,-0.405c0,-0.263 -0.143,-0.477 -0.334,-0.477c-0.619,0 -0.691,-0.501 -0.19,-1.192c0.667,-0.882 0.238,-1.382 -0.62,-0.715c-0.763,0.62 -1.74,0.596 -2.455,0l-0.572,-0.477l0.596,-0.476c0.858,-0.692 1.406,-0.811 1.859,-0.406c0.214,0.167 0.596,0.406 0.834,0.477c0.62,0.215 0.811,-0.5 0.262,-0.906c-0.429,-0.333 -0.429,-0.381 0.215,-0.929c0.357,-0.334 0.643,-0.715 0.643,-0.858c0,-0.31 -1.024,-0.31 -1.358,0.024c-0.358,0.357 -0.787,0.071 -0.787,-0.525c0,-0.286 -0.167,-0.453 -0.476,-0.453c-0.406,0 -0.477,0.167 -0.477,0.93c0,0.739 -0.143,1.049 -0.62,1.43c-1.025,0.81 -1.525,0.667 -1.525,-0.429c0,-0.739 0.143,-1.049 0.619,-1.43c0.358,-0.286 0.787,-0.501 0.978,-0.501c0.19,0 0.309,-0.167 0.262,-0.429c-0.072,-0.31 -0.286,-0.381 -0.978,-0.333c-0.738,0.071 -0.881,0.023 -0.881,-0.382c0,-0.953 -0.382,-1.478 -0.787,-1.072Z" style="fill:#33b4ff;fill-opacity:0.670588;fill-rule:nonzero;"/><path d="M122.536,1.689c-0.074,0.055 -0.129,0.35 -0.129,0.645c0,0.497 -0.055,0.534 -0.59,0.478c-0.792,-0.073 -0.829,0.277 -0.055,0.793c0.571,0.387 0.645,0.534 0.645,1.216c0,0.921 -0.258,1.013 -1.105,0.386c-0.479,-0.35 -0.553,-0.515 -0.553,-1.308c0,-1.031 -0.35,-1.123 -0.645,-0.165c-0.129,0.442 -0.239,0.571 -0.46,0.479c-0.682,-0.295 -1.106,-0.295 -1.106,-0.019c0,0.166 0.111,0.369 0.24,0.442c0.11,0.074 0.331,0.295 0.479,0.461c0.221,0.295 0.184,0.35 -0.258,0.516c-0.516,0.202 -0.479,0.552 0.092,0.552c0.184,0 0.59,-0.147 0.884,-0.313c0.516,-0.295 0.59,-0.295 0.903,-0.037c0.184,0.166 0.497,0.35 0.682,0.424c0.331,0.111 0.331,0.147 -0.074,0.571c-0.534,0.571 -1.234,0.59 -2.1,0.074c-0.608,-0.35 -0.663,-0.35 -0.774,-0.074c-0.074,0.184 0.018,0.405 0.276,0.571c0.479,0.35 0.498,0.737 0.019,0.995c-0.406,0.221 -0.498,0.755 -0.129,0.719c0.11,-0.019 0.424,-0.074 0.681,-0.148c0.406,-0.11 0.479,-0.055 0.664,0.424c0.313,0.921 0.626,0.81 0.626,-0.221c0,-0.829 0.055,-0.958 0.645,-1.4c0.35,-0.277 0.737,-0.442 0.829,-0.387c0.295,0.184 0.221,1.529 -0.111,1.787c-0.7,0.571 -0.995,0.902 -0.995,1.068c0,0.24 0.424,0.24 0.682,-0.018c0.332,-0.332 0.608,-0.019 0.608,0.681c0,0.406 0.092,0.627 0.258,0.627c0.276,0 0.479,-0.387 0.479,-0.958c0,-0.369 0.092,-0.387 1.105,-0.129c0.534,0.147 0.277,-0.553 -0.368,-0.976c-0.534,-0.369 -0.645,-0.553 -0.7,-1.216c-0.074,-0.903 0.221,-1.014 1.068,-0.406c0.424,0.295 0.553,0.553 0.59,1.161c0.037,0.553 0.147,0.792 0.368,0.829c0.203,0.037 0.332,-0.092 0.369,-0.368c0.055,-0.369 0.147,-0.424 0.755,-0.387c0.571,0.037 0.682,-0.019 0.682,-0.314c0,-0.202 -0.111,-0.368 -0.258,-0.368c-0.479,0 -0.535,-0.387 -0.148,-0.921c0.516,-0.682 0.185,-1.069 -0.479,-0.553c-0.589,0.479 -1.345,0.461 -1.897,0l-0.442,-0.368l0.46,-0.369c0.663,-0.534 1.087,-0.626 1.437,-0.313c0.166,0.129 0.461,0.313 0.645,0.369c0.479,0.165 0.626,-0.387 0.203,-0.7c-0.332,-0.258 -0.332,-0.295 0.165,-0.719c0.277,-0.258 0.498,-0.553 0.498,-0.663c0,-0.24 -0.792,-0.24 -1.05,0.018c-0.277,0.277 -0.608,0.056 -0.608,-0.405c0,-0.221 -0.129,-0.35 -0.369,-0.35c-0.313,0 -0.368,0.129 -0.368,0.718c0,0.572 -0.111,0.811 -0.479,1.106c-0.792,0.626 -1.179,0.516 -1.179,-0.332c0,-0.571 0.11,-0.81 0.479,-1.105c0.276,-0.221 0.608,-0.387 0.755,-0.387c0.148,0 0.24,-0.129 0.203,-0.332c-0.055,-0.239 -0.221,-0.294 -0.755,-0.258c-0.572,0.056 -0.682,0.019 -0.682,-0.294c0,-0.737 -0.295,-1.142 -0.608,-0.829Z" style="fill:#33b4ff;fill-opacity:0.670588;fill-rule:nonzero;"/><path d="M29.094,78.128c-0.059,0.045 -0.103,0.28 -0.103,0.515c0,0.396 -0.044,0.425 -0.47,0.381c-0.631,-0.058 -0.661,0.221 -0.044,0.632c0.455,0.308 0.514,0.426 0.514,0.969c0,0.735 -0.205,0.808 -0.881,0.309c-0.382,-0.279 -0.441,-0.412 -0.441,-1.043c0,-0.823 -0.279,-0.896 -0.514,-0.132c-0.103,0.352 -0.191,0.455 -0.367,0.382c-0.543,-0.235 -0.881,-0.235 -0.881,-0.015c0,0.132 0.088,0.294 0.191,0.352c0.088,0.059 0.264,0.235 0.382,0.368c0.176,0.235 0.147,0.279 -0.206,0.411c-0.411,0.161 -0.382,0.44 0.074,0.44c0.146,0 0.469,-0.117 0.704,-0.249c0.412,-0.235 0.47,-0.235 0.72,-0.03c0.147,0.133 0.397,0.279 0.544,0.338c0.264,0.088 0.264,0.118 -0.059,0.455c-0.426,0.456 -0.984,0.47 -1.675,0.059c-0.484,-0.279 -0.528,-0.279 -0.616,-0.059c-0.059,0.147 0.014,0.324 0.22,0.456c0.382,0.279 0.396,0.587 0.015,0.793c-0.323,0.176 -0.397,0.602 -0.103,0.573c0.088,-0.015 0.338,-0.059 0.543,-0.118c0.323,-0.088 0.382,-0.044 0.529,0.338c0.25,0.734 0.499,0.646 0.499,-0.176c0,-0.661 0.044,-0.764 0.514,-1.117c0.279,-0.22 0.588,-0.352 0.661,-0.308c0.235,0.147 0.177,1.219 -0.088,1.425c-0.558,0.455 -0.793,0.719 -0.793,0.852c0,0.19 0.338,0.19 0.543,-0.015c0.265,-0.265 0.485,-0.015 0.485,0.543c0,0.323 0.074,0.5 0.206,0.5c0.22,0 0.382,-0.309 0.382,-0.764c0,-0.294 0.073,-0.309 0.881,-0.103c0.426,0.118 0.22,-0.441 -0.294,-0.778c-0.426,-0.294 -0.514,-0.441 -0.558,-0.97c-0.059,-0.719 0.176,-0.807 0.852,-0.323c0.338,0.235 0.44,0.441 0.47,0.925c0.029,0.441 0.117,0.632 0.294,0.661c0.161,0.03 0.264,-0.073 0.293,-0.293c0.044,-0.294 0.118,-0.338 0.602,-0.309c0.456,0.03 0.544,-0.014 0.544,-0.249c0,-0.162 -0.088,-0.294 -0.206,-0.294c-0.382,0 -0.426,-0.309 -0.117,-0.735c0.411,-0.543 0.147,-0.851 -0.382,-0.44c-0.47,0.382 -1.072,0.367 -1.513,0l-0.352,-0.294l0.367,-0.294c0.529,-0.426 0.866,-0.499 1.145,-0.249c0.133,0.103 0.368,0.249 0.514,0.293c0.382,0.133 0.5,-0.308 0.162,-0.558c-0.264,-0.205 -0.264,-0.235 0.132,-0.572c0.22,-0.206 0.397,-0.441 0.397,-0.529c0,-0.191 -0.632,-0.191 -0.837,0.015c-0.221,0.22 -0.485,0.044 -0.485,-0.324c0,-0.176 -0.103,-0.279 -0.294,-0.279c-0.25,0 -0.294,0.103 -0.294,0.573c0,0.455 -0.088,0.646 -0.381,0.881c-0.632,0.5 -0.94,0.412 -0.94,-0.264c0,-0.455 0.088,-0.646 0.381,-0.881c0.221,-0.176 0.485,-0.309 0.603,-0.309c0.117,0 0.191,-0.102 0.161,-0.264c-0.044,-0.191 -0.176,-0.235 -0.602,-0.206c-0.455,0.044 -0.543,0.015 -0.543,-0.235c0,-0.587 -0.235,-0.91 -0.485,-0.661Z" style="fill:#33b4ff;fill-opacity:0.670588;fill-rule:nonzero;"/><path d="M55.76,7.66c-0.042,0.032 -0.074,0.202 -0.074,0.373c0,0.287 -0.032,0.308 -0.341,0.276c-0.457,-0.042 -0.479,0.16 -0.032,0.458c0.33,0.224 0.373,0.309 0.373,0.703c0,0.532 -0.149,0.585 -0.639,0.223c-0.277,-0.202 -0.319,-0.298 -0.319,-0.756c0,-0.596 -0.202,-0.649 -0.373,-0.095c-0.074,0.255 -0.138,0.33 -0.266,0.276c-0.394,-0.17 -0.639,-0.17 -0.639,-0.01c0,0.096 0.064,0.213 0.139,0.255c0.064,0.043 0.191,0.171 0.277,0.266c0.127,0.171 0.106,0.203 -0.149,0.299c-0.299,0.117 -0.277,0.319 0.053,0.319c0.106,0 0.34,-0.085 0.511,-0.181c0.298,-0.17 0.34,-0.17 0.521,-0.021c0.107,0.095 0.288,0.202 0.394,0.244c0.192,0.064 0.192,0.086 -0.042,0.33c-0.309,0.33 -0.714,0.341 -1.214,0.043c-0.351,-0.202 -0.383,-0.202 -0.447,-0.043c-0.043,0.107 0.011,0.235 0.16,0.33c0.276,0.203 0.287,0.426 0.01,0.575c-0.234,0.128 -0.287,0.437 -0.074,0.415c0.064,-0.01 0.245,-0.042 0.394,-0.085c0.234,-0.064 0.276,-0.032 0.383,0.245c0.181,0.532 0.362,0.469 0.362,-0.128c0,-0.479 0.032,-0.553 0.372,-0.809c0.203,-0.159 0.426,-0.255 0.479,-0.223c0.171,0.106 0.128,0.883 -0.063,1.032c-0.405,0.33 -0.575,0.522 -0.575,0.618c0,0.138 0.245,0.138 0.394,-0.011c0.191,-0.191 0.351,-0.01 0.351,0.394c0,0.234 0.053,0.362 0.149,0.362c0.16,0 0.277,-0.224 0.277,-0.554c0,-0.212 0.053,-0.223 0.638,-0.074c0.309,0.085 0.16,-0.319 -0.212,-0.564c-0.309,-0.213 -0.373,-0.32 -0.405,-0.703c-0.043,-0.521 0.128,-0.585 0.617,-0.234c0.245,0.17 0.32,0.319 0.341,0.671c0.021,0.319 0.085,0.457 0.213,0.479c0.117,0.021 0.192,-0.054 0.213,-0.213c0.032,-0.213 0.085,-0.245 0.436,-0.224c0.33,0.021 0.394,-0.01 0.394,-0.181c0,-0.117 -0.064,-0.213 -0.149,-0.213c-0.277,0 -0.308,-0.223 -0.085,-0.532c0.298,-0.394 0.107,-0.617 -0.277,-0.319c-0.34,0.276 -0.777,0.266 -1.096,0l-0.256,-0.213l0.266,-0.213c0.384,-0.309 0.629,-0.362 0.831,-0.181c0.096,0.074 0.266,0.181 0.372,0.213c0.277,0.096 0.362,-0.224 0.117,-0.405c-0.191,-0.149 -0.191,-0.17 0.096,-0.415c0.16,-0.149 0.288,-0.319 0.288,-0.383c0,-0.139 -0.458,-0.139 -0.607,0.011c-0.16,0.159 -0.351,0.031 -0.351,-0.235c0,-0.127 -0.075,-0.202 -0.213,-0.202c-0.181,0 -0.213,0.075 -0.213,0.415c0,0.33 -0.064,0.469 -0.277,0.639c-0.458,0.362 -0.681,0.298 -0.681,-0.192c0,-0.33 0.064,-0.468 0.277,-0.638c0.159,-0.128 0.351,-0.224 0.436,-0.224c0.085,0 0.138,-0.074 0.117,-0.192c-0.032,-0.138 -0.128,-0.17 -0.436,-0.149c-0.33,0.032 -0.394,0.011 -0.394,-0.17c0,-0.426 -0.171,-0.66 -0.352,-0.479Z" style="fill:#33b4ff;fill-opacity:0.670588;fill-rule:nonzero;"/><path d="M5.654,29.557c-0.109,0.328 -0.156,0.766 -0.093,1.063c0.109,0.485 0.093,0.485 -0.141,0.188c-0.25,-0.313 -0.25,-0.313 -0.563,0.062c-0.266,0.297 -0.328,0.313 -0.407,0.11c-0.125,-0.344 -1.172,-0.923 -1.344,-0.751c-0.203,0.203 0.453,1.251 0.86,1.376c0.313,0.094 0.313,0.109 -0.094,0.328c-0.5,0.25 -0.516,0.329 -0.141,0.626c0.235,0.187 0.219,0.203 -0.25,0.125c-0.453,-0.094 -1.595,0.25 -1.595,0.469c0,0.047 0.219,0.187 0.485,0.313c0.328,0.171 0.688,0.234 1.126,0.171c0.563,-0.078 0.61,-0.062 0.312,0.094c-0.453,0.219 -0.453,0.376 -0.015,0.61c0.328,0.172 0.328,0.188 0.015,0.438c-0.469,0.391 -0.875,1.125 -0.703,1.297c0.203,0.204 1.235,-0.437 1.376,-0.859c0.094,-0.313 0.109,-0.313 0.328,0.093c0.25,0.501 0.328,0.516 0.625,0.141c0.188,-0.234 0.204,-0.203 0.11,0.297c-0.078,0.5 0.25,1.548 0.485,1.548c0.031,0 0.187,-0.219 0.312,-0.485c0.172,-0.328 0.235,-0.688 0.172,-1.125c-0.078,-0.563 -0.062,-0.61 0.094,-0.313c0.235,0.469 0.375,0.453 0.641,-0.063c0.219,-0.406 0.235,-0.406 0.328,-0.093c0.141,0.437 1.173,1.063 1.392,0.844c0.187,-0.188 -0.219,-0.876 -0.719,-1.282l-0.313,-0.266l0.328,-0.172c0.438,-0.234 0.438,-0.453 0,-0.657c-0.297,-0.109 -0.25,-0.125 0.235,-0.062c0.641,0.109 1.673,-0.188 1.673,-0.469c0,-0.282 -1.032,-0.579 -1.673,-0.469c-0.501,0.062 -0.532,0.062 -0.235,-0.078c0.438,-0.188 0.391,-0.469 -0.109,-0.72c-0.36,-0.187 -0.36,-0.187 -0.047,-0.281c0.422,-0.141 1.063,-1.157 0.86,-1.36c-0.219,-0.219 -1.251,0.422 -1.392,0.844c-0.093,0.313 -0.109,0.313 -0.328,-0.094c-0.266,-0.516 -0.485,-0.531 -0.672,-0.078c-0.125,0.282 -0.141,0.203 -0.063,-0.297c0.094,-0.703 -0.187,-1.61 -0.484,-1.61c-0.094,0 -0.266,0.25 -0.376,0.547Zm-0.015,2.111c0,0.203 -0.11,0.312 -0.282,0.312c-0.469,0 -0.531,-0.203 -0.156,-0.422c0.469,-0.25 0.438,-0.25 0.438,0.11Zm1.469,0.172c-0.172,0.281 -0.688,0.14 -0.688,-0.172c0,-0.266 0.047,-0.282 0.391,-0.126c0.204,0.094 0.344,0.235 0.297,0.298Zm-2.251,0.625c0,0.203 -0.109,0.297 -0.328,0.297c-0.172,0 -0.282,-0.047 -0.25,-0.125c0.031,-0.063 0.109,-0.235 0.156,-0.391c0.125,-0.344 0.422,-0.203 0.422,0.219Zm2.861,-0.016c0.063,0.235 0,0.313 -0.219,0.313c-0.187,0 -0.297,-0.109 -0.297,-0.281c0,-0.579 0.36,-0.595 0.516,-0.032Zm-2.892,1.439c-0.063,0.437 -0.297,0.422 -0.469,-0.016c-0.094,-0.266 -0.047,-0.328 0.203,-0.328c0.234,0 0.313,0.078 0.266,0.344Zm2.876,-0.016c-0.172,0.438 -0.406,0.453 -0.469,0.016c-0.047,-0.266 0.032,-0.344 0.266,-0.344c0.25,0 0.297,0.062 0.203,0.328Zm-2.063,0.782c0,0.172 -0.047,0.281 -0.11,0.25c-0.078,-0.031 -0.25,-0.11 -0.406,-0.156c-0.344,-0.126 -0.203,-0.423 0.219,-0.423c0.203,0 0.297,0.11 0.297,0.329Zm1.454,-0.094c-0.016,0.078 -0.172,0.188 -0.344,0.266c-0.266,0.093 -0.329,0.047 -0.329,-0.204c0,-0.234 0.079,-0.312 0.36,-0.265c0.188,0.031 0.328,0.109 0.313,0.203Z" style="fill:#33b4ff;fill-opacity:0.670588;fill-rule:nonzero;"/><path d="M98.355,6.443c-0.119,0.358 -0.17,0.835 -0.102,1.159c0.119,0.528 0.102,0.528 -0.153,0.204c-0.273,-0.341 -0.273,-0.341 -0.614,0.068c-0.29,0.324 -0.358,0.341 -0.443,0.12c-0.136,-0.375 -1.278,-1.006 -1.466,-0.818c-0.221,0.221 0.495,1.363 0.938,1.499c0.341,0.103 0.341,0.12 -0.103,0.358c-0.545,0.273 -0.562,0.358 -0.153,0.682c0.256,0.205 0.239,0.222 -0.273,0.136c-0.494,-0.102 -1.738,0.273 -1.738,0.512c0,0.051 0.239,0.204 0.528,0.341c0.358,0.187 0.75,0.255 1.227,0.187c0.614,-0.085 0.665,-0.068 0.341,0.102c-0.494,0.239 -0.494,0.409 -0.017,0.665c0.358,0.187 0.358,0.204 0.017,0.477c-0.511,0.426 -0.954,1.227 -0.767,1.415c0.222,0.221 1.347,-0.478 1.5,-0.938c0.102,-0.341 0.119,-0.341 0.358,0.103c0.273,0.545 0.358,0.562 0.682,0.153c0.204,-0.256 0.221,-0.222 0.119,0.324c-0.085,0.545 0.273,1.687 0.528,1.687c0.034,0 0.205,-0.239 0.341,-0.528c0.188,-0.358 0.256,-0.75 0.188,-1.227c-0.086,-0.614 -0.068,-0.665 0.102,-0.341c0.256,0.511 0.409,0.494 0.699,-0.068c0.238,-0.444 0.255,-0.444 0.358,-0.103c0.153,0.478 1.278,1.159 1.516,0.921c0.205,-0.205 -0.238,-0.955 -0.784,-1.398l-0.34,-0.29l0.358,-0.187c0.477,-0.256 0.477,-0.494 0,-0.716c-0.324,-0.119 -0.273,-0.136 0.255,-0.068c0.699,0.119 1.824,-0.205 1.824,-0.511c0,-0.307 -1.125,-0.631 -1.824,-0.512c-0.545,0.069 -0.579,0.069 -0.255,-0.085c0.477,-0.204 0.426,-0.511 -0.12,-0.784c-0.392,-0.204 -0.392,-0.204 -0.051,-0.307c0.46,-0.153 1.159,-1.261 0.937,-1.482c-0.238,-0.239 -1.363,0.46 -1.516,0.92c-0.103,0.341 -0.12,0.341 -0.358,-0.102c-0.29,-0.563 -0.529,-0.58 -0.733,-0.086c-0.136,0.307 -0.154,0.222 -0.068,-0.323c0.102,-0.767 -0.205,-1.756 -0.529,-1.756c-0.102,0 -0.289,0.273 -0.409,0.597Zm-0.017,2.301c0,0.221 -0.119,0.34 -0.306,0.34c-0.512,0 -0.58,-0.221 -0.171,-0.46c0.511,-0.272 0.477,-0.272 0.477,0.12Zm1.602,0.187c-0.187,0.307 -0.75,0.153 -0.75,-0.187c0,-0.29 0.052,-0.307 0.427,-0.137c0.221,0.102 0.374,0.256 0.323,0.324Zm-2.454,0.682c0,0.221 -0.119,0.324 -0.358,0.324c-0.187,0 -0.307,-0.052 -0.272,-0.137c0.034,-0.068 0.119,-0.255 0.17,-0.426c0.136,-0.375 0.46,-0.221 0.46,0.239Zm3.119,-0.017c0.068,0.255 0,0.341 -0.239,0.341c-0.204,0 -0.323,-0.12 -0.323,-0.307c0,-0.631 0.392,-0.648 0.562,-0.034Zm-3.153,1.568c-0.068,0.477 -0.324,0.46 -0.511,-0.017c-0.102,-0.29 -0.051,-0.358 0.221,-0.358c0.256,0 0.341,0.085 0.29,0.375Zm3.136,-0.017c-0.187,0.477 -0.443,0.494 -0.511,0.017c-0.051,-0.29 0.034,-0.375 0.289,-0.375c0.273,0 0.324,0.068 0.222,0.358Zm-2.25,0.852c0,0.187 -0.051,0.307 -0.119,0.272c-0.085,-0.034 -0.273,-0.119 -0.443,-0.17c-0.375,-0.136 -0.222,-0.46 0.238,-0.46c0.222,0 0.324,0.119 0.324,0.358Zm1.585,-0.102c-0.017,0.085 -0.187,0.204 -0.375,0.289c-0.289,0.103 -0.358,0.051 -0.358,-0.221c0,-0.256 0.086,-0.341 0.392,-0.29c0.205,0.034 0.358,0.119 0.341,0.222Z" style="fill:#33b4ff;fill-opacity:0.670588;fill-rule:nonzero;"/><path d="M141.488,3.856c-0.152,0.456 -0.217,1.065 -0.13,1.478c0.152,0.674 0.13,0.674 -0.196,0.261c-0.348,-0.435 -0.348,-0.435 -0.783,0.087c-0.369,0.413 -0.456,0.435 -0.565,0.152c-0.174,-0.478 -1.63,-1.283 -1.869,-1.043c-0.283,0.282 0.63,1.739 1.195,1.913c0.435,0.13 0.435,0.152 -0.13,0.456c-0.696,0.348 -0.717,0.457 -0.196,0.87c0.326,0.261 0.305,0.282 -0.348,0.174c-0.63,-0.131 -2.217,0.347 -2.217,0.652c0,0.065 0.304,0.261 0.674,0.434c0.457,0.24 0.957,0.327 1.565,0.24c0.783,-0.109 0.848,-0.087 0.435,0.13c-0.63,0.304 -0.63,0.522 -0.022,0.848c0.457,0.239 0.457,0.261 0.022,0.609c-0.652,0.543 -1.217,1.565 -0.978,1.804c0.282,0.282 1.717,-0.609 1.913,-1.196c0.13,-0.435 0.152,-0.435 0.456,0.131c0.348,0.695 0.457,0.717 0.87,0.195c0.261,-0.326 0.282,-0.282 0.152,0.413c-0.109,0.696 0.348,2.152 0.674,2.152c0.043,0 0.261,-0.304 0.435,-0.673c0.239,-0.457 0.326,-0.957 0.239,-1.566c-0.109,-0.782 -0.087,-0.847 0.13,-0.434c0.326,0.652 0.522,0.63 0.892,-0.087c0.304,-0.566 0.326,-0.566 0.456,-0.131c0.196,0.609 1.63,1.478 1.935,1.174c0.261,-0.261 -0.305,-1.217 -1,-1.782l-0.435,-0.37l0.457,-0.239c0.608,-0.326 0.608,-0.631 0,-0.913c-0.414,-0.152 -0.348,-0.174 0.326,-0.087c0.891,0.152 2.326,-0.261 2.326,-0.652c0,-0.392 -1.435,-0.805 -2.326,-0.652c-0.696,0.087 -0.74,0.087 -0.326,-0.109c0.608,-0.261 0.543,-0.652 -0.153,-1c-0.5,-0.261 -0.5,-0.261 -0.065,-0.391c0.587,-0.196 1.478,-1.609 1.196,-1.892c-0.305,-0.304 -1.739,0.587 -1.935,1.174c-0.13,0.435 -0.152,0.435 -0.456,-0.13c-0.37,-0.718 -0.674,-0.739 -0.935,-0.109c-0.174,0.391 -0.196,0.283 -0.087,-0.413c0.13,-0.978 -0.261,-2.239 -0.674,-2.239c-0.131,0 -0.37,0.348 -0.522,0.761Zm-0.022,2.935c0,0.282 -0.152,0.434 -0.391,0.434c-0.652,0 -0.739,-0.282 -0.217,-0.587c0.652,-0.347 0.608,-0.347 0.608,0.153Zm2.044,0.239c-0.239,0.391 -0.957,0.195 -0.957,-0.239c0,-0.37 0.066,-0.392 0.544,-0.174c0.282,0.13 0.478,0.326 0.413,0.413Zm-3.131,0.869c0,0.283 -0.152,0.413 -0.456,0.413c-0.239,0 -0.391,-0.065 -0.348,-0.174c0.044,-0.087 0.152,-0.326 0.218,-0.543c0.173,-0.478 0.586,-0.283 0.586,0.304Zm3.979,-0.022c0.087,0.327 0,0.435 -0.305,0.435c-0.261,0 -0.413,-0.152 -0.413,-0.391c0,-0.804 0.5,-0.826 0.718,-0.044Zm-4.022,2c-0.087,0.609 -0.413,0.587 -0.652,-0.021c-0.131,-0.37 -0.065,-0.457 0.282,-0.457c0.327,0 0.435,0.109 0.37,0.478Zm4,-0.021c-0.239,0.608 -0.565,0.63 -0.652,0.021c-0.065,-0.369 0.043,-0.478 0.369,-0.478c0.348,0 0.413,0.087 0.283,0.457Zm-2.87,1.087c0,0.239 -0.065,0.391 -0.152,0.347c-0.108,-0.043 -0.348,-0.152 -0.565,-0.217c-0.478,-0.174 -0.283,-0.587 0.304,-0.587c0.283,0 0.413,0.152 0.413,0.457Zm2.022,-0.131c-0.022,0.109 -0.239,0.261 -0.478,0.37c-0.37,0.13 -0.457,0.065 -0.457,-0.283c0,-0.326 0.109,-0.435 0.5,-0.369c0.261,0.043 0.457,0.152 0.435,0.282Z" style="fill:#33b4ff;fill-opacity:0.670588;fill-rule:nonzero;"/><path d="M6.993,56.661c-0.08,0.24 -0.114,0.559 -0.068,0.776c0.079,0.354 0.068,0.354 -0.103,0.137c-0.183,-0.228 -0.183,-0.228 -0.411,0.045c-0.194,0.217 -0.239,0.229 -0.296,0.08c-0.092,-0.251 -0.856,-0.673 -0.982,-0.547c-0.148,0.148 0.331,0.912 0.628,1.004c0.228,0.068 0.228,0.08 -0.069,0.239c-0.365,0.183 -0.376,0.24 -0.102,0.457c0.171,0.136 0.159,0.148 -0.183,0.091c-0.331,-0.069 -1.163,0.182 -1.163,0.342c0,0.034 0.159,0.137 0.353,0.228c0.24,0.126 0.502,0.171 0.822,0.126c0.41,-0.057 0.445,-0.046 0.228,0.068c-0.331,0.16 -0.331,0.274 -0.012,0.445c0.24,0.126 0.24,0.137 0.012,0.32c-0.342,0.285 -0.639,0.821 -0.514,0.946c0.149,0.149 0.902,-0.319 1.004,-0.627c0.069,-0.228 0.08,-0.228 0.24,0.068c0.182,0.365 0.24,0.377 0.456,0.103c0.137,-0.171 0.149,-0.148 0.08,0.217c-0.057,0.365 0.183,1.129 0.354,1.129c0.023,0 0.137,-0.159 0.228,-0.353c0.125,-0.24 0.171,-0.502 0.125,-0.822c-0.057,-0.41 -0.045,-0.445 0.069,-0.228c0.171,0.342 0.274,0.331 0.468,-0.046c0.159,-0.296 0.171,-0.296 0.239,-0.068c0.103,0.319 0.856,0.776 1.016,0.616c0.136,-0.137 -0.16,-0.639 -0.525,-0.935l-0.228,-0.194l0.239,-0.126c0.32,-0.171 0.32,-0.331 0,-0.479c-0.217,-0.08 -0.182,-0.091 0.171,-0.046c0.468,0.08 1.221,-0.137 1.221,-0.342c0,-0.205 -0.753,-0.422 -1.221,-0.342c-0.365,0.045 -0.388,0.045 -0.171,-0.057c0.32,-0.137 0.285,-0.342 -0.08,-0.525c-0.262,-0.137 -0.262,-0.137 -0.034,-0.205c0.308,-0.103 0.776,-0.845 0.628,-0.993c-0.16,-0.16 -0.913,0.308 -1.016,0.616c-0.068,0.228 -0.08,0.228 -0.239,-0.068c-0.194,-0.377 -0.354,-0.388 -0.491,-0.057c-0.091,0.205 -0.103,0.148 -0.046,-0.217c0.069,-0.513 -0.136,-1.175 -0.353,-1.175c-0.069,0 -0.194,0.182 -0.274,0.399Zm-0.011,1.54c0,0.149 -0.08,0.228 -0.206,0.228c-0.342,0 -0.388,-0.148 -0.114,-0.308c0.342,-0.182 0.32,-0.182 0.32,0.08Zm1.072,0.126c-0.126,0.205 -0.502,0.102 -0.502,-0.126c0,-0.194 0.034,-0.205 0.285,-0.091c0.149,0.068 0.251,0.171 0.217,0.217Zm-1.643,0.456c0,0.148 -0.08,0.217 -0.239,0.217c-0.126,0 -0.206,-0.034 -0.183,-0.091c0.023,-0.046 0.08,-0.172 0.114,-0.286c0.091,-0.251 0.308,-0.148 0.308,0.16Zm2.088,-0.011c0.046,0.171 0,0.228 -0.16,0.228c-0.137,0 -0.217,-0.08 -0.217,-0.205c0,-0.423 0.263,-0.434 0.377,-0.023Zm-2.111,1.049c-0.045,0.32 -0.216,0.308 -0.342,-0.011c-0.068,-0.194 -0.034,-0.24 0.148,-0.24c0.172,0 0.229,0.057 0.194,0.251Zm2.099,-0.011c-0.125,0.319 -0.296,0.331 -0.342,0.011c-0.034,-0.194 0.023,-0.251 0.194,-0.251c0.183,0 0.217,0.046 0.148,0.24Zm-1.505,0.57c0,0.126 -0.035,0.206 -0.08,0.183c-0.057,-0.023 -0.183,-0.08 -0.297,-0.114c-0.251,-0.092 -0.148,-0.308 0.16,-0.308c0.148,0 0.217,0.08 0.217,0.239Zm1.061,-0.068c-0.012,0.057 -0.126,0.137 -0.251,0.194c-0.194,0.068 -0.24,0.034 -0.24,-0.149c0,-0.171 0.057,-0.228 0.262,-0.193c0.137,0.022 0.24,0.079 0.229,0.148Z" style="fill:#33b4ff;fill-opacity:0.670588;fill-rule:nonzero;"/><path d="M150.564,50.316c-0.097,0.292 -0.139,0.681 -0.083,0.946c0.097,0.431 0.083,0.431 -0.126,0.167c-0.222,-0.279 -0.222,-0.279 -0.5,0.055c-0.237,0.265 -0.293,0.279 -0.362,0.098c-0.111,-0.306 -1.044,-0.821 -1.197,-0.668c-0.181,0.181 0.404,1.113 0.766,1.224c0.278,0.084 0.278,0.098 -0.084,0.292c-0.445,0.223 -0.459,0.293 -0.125,0.557c0.209,0.167 0.195,0.181 -0.223,0.111c-0.403,-0.083 -1.419,0.223 -1.419,0.418c0,0.041 0.195,0.167 0.431,0.278c0.293,0.153 0.613,0.209 1.002,0.153c0.501,-0.07 0.543,-0.056 0.278,0.083c-0.403,0.195 -0.403,0.334 -0.014,0.543c0.293,0.153 0.293,0.167 0.014,0.39c-0.417,0.347 -0.779,1.001 -0.626,1.154c0.181,0.181 1.099,-0.389 1.225,-0.765c0.083,-0.278 0.097,-0.278 0.292,0.084c0.222,0.445 0.292,0.459 0.556,0.125c0.167,-0.209 0.181,-0.181 0.098,0.264c-0.07,0.445 0.222,1.377 0.431,1.377c0.028,0 0.167,-0.194 0.278,-0.431c0.153,-0.292 0.209,-0.612 0.153,-1.002c-0.069,-0.5 -0.055,-0.542 0.084,-0.278c0.208,0.418 0.334,0.404 0.57,-0.055c0.195,-0.362 0.209,-0.362 0.292,-0.084c0.126,0.39 1.044,0.946 1.239,0.751c0.166,-0.167 -0.195,-0.779 -0.64,-1.14l-0.279,-0.237l0.292,-0.153c0.39,-0.209 0.39,-0.404 0,-0.584c-0.264,-0.098 -0.222,-0.112 0.209,-0.056c0.571,0.097 1.489,-0.167 1.489,-0.417c0,-0.251 -0.918,-0.515 -1.489,-0.418c-0.445,0.056 -0.473,0.056 -0.209,-0.069c0.39,-0.167 0.348,-0.418 -0.097,-0.64c-0.32,-0.167 -0.32,-0.167 -0.042,-0.251c0.376,-0.125 0.946,-1.029 0.766,-1.21c-0.195,-0.195 -1.113,0.376 -1.239,0.751c-0.083,0.278 -0.097,0.278 -0.292,-0.083c-0.236,-0.459 -0.431,-0.473 -0.598,-0.07c-0.111,0.251 -0.125,0.181 -0.056,-0.264c0.084,-0.626 -0.167,-1.433 -0.431,-1.433c-0.083,0 -0.237,0.222 -0.334,0.487Zm-0.014,1.878c0,0.181 -0.097,0.278 -0.25,0.278c-0.418,0 -0.473,-0.181 -0.139,-0.375c0.417,-0.223 0.389,-0.223 0.389,0.097Zm1.308,0.153c-0.153,0.25 -0.612,0.125 -0.612,-0.153c0,-0.237 0.042,-0.251 0.348,-0.111c0.18,0.083 0.306,0.208 0.264,0.264Zm-2.003,0.556c0,0.181 -0.098,0.265 -0.293,0.265c-0.153,0 -0.25,-0.042 -0.222,-0.112c0.028,-0.055 0.097,-0.208 0.139,-0.347c0.111,-0.306 0.376,-0.181 0.376,0.194Zm2.546,-0.013c0.055,0.208 0,0.278 -0.195,0.278c-0.167,0 -0.265,-0.098 -0.265,-0.251c0,-0.514 0.32,-0.528 0.46,-0.027Zm-2.574,1.279c-0.056,0.39 -0.265,0.376 -0.418,-0.013c-0.083,-0.237 -0.041,-0.293 0.181,-0.293c0.209,0 0.278,0.07 0.237,0.306Zm2.56,-0.013c-0.153,0.389 -0.362,0.403 -0.418,0.013c-0.041,-0.236 0.028,-0.306 0.237,-0.306c0.222,0 0.264,0.056 0.181,0.293Zm-1.837,0.695c0,0.153 -0.042,0.251 -0.097,0.223c-0.07,-0.028 -0.223,-0.098 -0.362,-0.139c-0.306,-0.112 -0.181,-0.376 0.195,-0.376c0.181,0 0.264,0.097 0.264,0.292Zm1.294,-0.083c-0.014,0.069 -0.153,0.167 -0.306,0.236c-0.237,0.084 -0.292,0.042 -0.292,-0.181c0,-0.208 0.069,-0.278 0.32,-0.236c0.167,0.028 0.292,0.097 0.278,0.181Z" style="fill:#33b4ff;fill-opacity:0.670588;fill-rule:nonzero;"/><path d="M152.076,16.925c-0.12,0.24 -0.18,0.621 -0.12,0.861c0.06,0.221 -0.06,0.682 -0.241,0.983c-0.32,0.561 -0.32,0.601 0.02,0.781c0.562,0.321 0.421,0.822 -0.2,0.742c-0.381,-0.04 -0.581,-0.201 -0.662,-0.561c-0.06,-0.281 -0.28,-0.541 -0.501,-0.582c-0.2,-0.04 -0.641,-0.34 -0.942,-0.681c-0.401,-0.421 -0.641,-0.541 -0.781,-0.401c-0.301,0.301 -0.04,1.022 0.421,1.163c0.2,0.06 0.481,0.421 0.601,0.801c0.18,0.542 0.321,0.682 0.661,0.642c0.321,-0.02 0.461,0.08 0.501,0.401c0.061,0.36 -0.02,0.461 -0.4,0.461c-0.261,0 -0.582,-0.101 -0.722,-0.241c-0.18,-0.18 -0.301,-0.18 -0.481,0c-0.14,0.14 -0.662,0.241 -1.163,0.241c-0.521,0 -1.002,0.06 -1.062,0.14c-0.281,0.261 0.321,0.661 0.982,0.661c0.381,0 0.862,0.101 1.083,0.241c0.3,0.2 0.461,0.18 0.801,-0.14c0.381,-0.341 0.441,-0.341 0.742,-0.06c0.421,0.44 0.2,0.962 -0.401,0.962c-0.381,0 -0.521,0.14 -0.601,0.601c-0.08,0.361 -0.261,0.601 -0.441,0.601c-0.321,0 -0.862,0.922 -0.642,1.123c0.241,0.24 1.123,-0.121 1.243,-0.501c0.06,-0.221 0.381,-0.481 0.702,-0.602c0.4,-0.12 0.601,-0.34 0.601,-0.581c0,-0.481 0.601,-0.762 0.842,-0.401c0.24,0.401 0.2,0.722 -0.161,0.922c-0.3,0.161 -0.3,0.221 0.02,0.702c0.221,0.34 0.301,0.721 0.221,1.042c-0.14,0.561 0.2,1.383 0.501,1.203c0.1,-0.081 0.18,-0.562 0.18,-1.083c0,-0.521 0.121,-1.062 0.241,-1.182c0.2,-0.201 0.2,-0.341 0,-0.642c-0.461,-0.741 -0.221,-1.343 0.441,-1.082c0.18,0.06 0.321,0.301 0.321,0.501c0,0.2 0.26,0.501 0.601,0.681c0.321,0.161 0.681,0.482 0.802,0.702c0.24,0.461 1.202,0.561 1.202,0.12c0,-0.16 -0.24,-0.481 -0.541,-0.721c-0.321,-0.241 -0.601,-0.622 -0.661,-0.862c-0.08,-0.301 -0.301,-0.461 -0.662,-0.501c-0.421,-0.06 -0.541,-0.181 -0.541,-0.541c0,-0.662 0.321,-0.802 0.942,-0.401c0.361,0.24 0.561,0.28 0.722,0.12c0.12,-0.12 0.541,-0.221 0.922,-0.221c0.401,0 0.862,-0.1 1.022,-0.2c0.581,-0.361 -0.14,-0.621 -1.884,-0.661c-1.624,-0.041 -1.744,-0.061 -1.684,-0.441c0.04,-0.281 0.201,-0.381 0.521,-0.361c0.361,0.04 0.481,-0.06 0.582,-0.541c0.06,-0.341 0.28,-0.702 0.481,-0.822c0.561,-0.281 0.882,-0.962 0.581,-1.263c-0.16,-0.16 -0.361,-0.06 -0.782,0.401c-0.321,0.341 -0.802,0.681 -1.102,0.762c-0.381,0.1 -0.521,0.26 -0.521,0.621c0,0.401 -0.101,0.501 -0.501,0.501c-0.562,0 -0.622,-0.22 -0.261,-0.802c0.18,-0.28 0.18,-0.501 0.02,-0.842c-0.12,-0.26 -0.22,-0.761 -0.22,-1.122c0.04,-0.882 -0.321,-1.223 -0.642,-0.641Z" style="fill:#33b4ff;fill-opacity:0.670588;fill-rule:nonzero;"/><path d="M16.493,68.459c-0.166,0.11 -0.203,0.35 -0.129,0.83c0.129,0.627 -0.092,0.922 -0.369,0.479c-0.203,-0.313 -0.646,-0.203 -0.812,0.222c-0.092,0.258 -0.184,0.313 -0.277,0.184c-0.258,-0.424 -0.664,-0.24 -0.664,0.314c0,0.83 -0.276,0.83 -0.811,0.018c-0.259,-0.406 -0.609,-0.738 -0.757,-0.738c-0.147,0 -0.332,0 -0.387,0c-0.074,0 -0.148,0.296 -0.166,0.646c-0.037,0.535 0.037,0.646 0.313,0.646c0.499,0 1.107,0.35 0.978,0.572c-0.074,0.092 -0.277,0.166 -0.479,0.166c-0.259,0 -0.351,0.092 -0.314,0.313c0.074,0.351 0.277,0.369 1.107,0.148c0.369,-0.092 0.572,-0.037 0.83,0.258c0.314,0.387 0.978,0.535 0.978,0.221c0,-0.073 -0.166,-0.369 -0.388,-0.645c-0.442,-0.554 -0.406,-1.365 0.056,-1.661c0.442,-0.276 1.272,0.499 0.922,0.849c-0.129,0.129 -0.221,0.498 -0.221,0.83c0,0.72 -0.48,1.347 -1.015,1.347c-0.221,0 -0.48,0.092 -0.59,0.203c-0.259,0.258 -0.923,-0.129 -1.052,-0.627c-0.055,-0.222 -0.203,-0.314 -0.424,-0.277c-0.48,0.092 -0.517,0.646 -0.074,0.793c0.48,0.148 0.498,0.388 0.019,0.646c-0.259,0.147 -0.462,0.129 -0.738,-0.037c-0.314,-0.203 -0.406,-0.185 -0.554,0.037c-0.313,0.498 -0.203,0.922 0.314,1.125c0.406,0.148 0.553,0.129 0.738,-0.129c0.129,-0.185 0.24,-0.406 0.24,-0.498c0,-0.092 0.11,-0.129 0.239,-0.074c0.129,0.037 0.203,0.277 0.166,0.553c-0.037,0.333 0.037,0.535 0.222,0.609c0.166,0.056 0.295,0.314 0.295,0.554c0,0.535 0.461,0.59 0.978,0.129c0.332,-0.314 0.369,-0.314 0.719,0.129l0.369,0.461l-0.424,0.055c-0.24,0.037 -0.535,0.148 -0.646,0.24c-0.258,0.222 -0.129,0.812 0.24,1.126c0.24,0.184 0.35,0.147 0.627,-0.203c0.203,-0.24 0.351,-0.591 0.351,-0.775c0,-0.221 0.129,-0.351 0.369,-0.351c0.221,0 0.368,-0.129 0.368,-0.332c0,-0.184 -0.166,-0.461 -0.368,-0.645c-0.406,-0.351 -0.48,-0.867 -0.166,-1.181c0.147,-0.148 0.092,-0.258 -0.185,-0.424c-0.424,-0.222 -0.48,-0.148 -0.609,0.645c-0.037,0.277 -0.221,0.388 -0.719,0.425c-0.554,0.055 -0.683,-0.019 -0.775,-0.351c-0.148,-0.535 0.48,-1.033 1.513,-1.18c0.664,-0.093 0.848,-0.056 1.143,0.258c0.203,0.221 0.48,0.387 0.609,0.387c0.148,0 0.314,0.129 0.369,0.295c0.185,0.498 0.129,0.997 -0.147,0.997c-0.332,0 -0.554,0.553 -0.314,0.793c0.277,0.276 1.162,-0.166 1.088,-0.535c-0.11,-0.572 0.406,-0.48 0.609,0.11c0.166,0.48 0.295,0.572 0.701,0.517c0.406,-0.037 0.48,-0.148 0.48,-0.609c0,-0.498 -0.074,-0.553 -0.591,-0.609c-0.682,-0.073 -0.811,-0.387 -0.239,-0.535c0.239,-0.055 0.369,-0.221 0.332,-0.405c-0.056,-0.24 -0.259,-0.277 -0.941,-0.24c-0.554,0.037 -0.867,0 -0.867,-0.129c0,-0.129 -0.222,-0.295 -0.48,-0.388c-0.516,-0.203 -0.443,-0.553 0.111,-0.553c0.184,0 0.424,-0.129 0.516,-0.295c0.13,-0.24 0.24,-0.259 0.554,-0.093c0.203,0.111 0.424,0.369 0.498,0.554c0.148,0.48 0.646,0.646 0.978,0.332c0.221,-0.24 0.203,-0.314 -0.111,-0.609c-0.572,-0.572 -0.996,-1.328 -0.793,-1.439c0.092,-0.074 0.24,0 0.332,0.148c0.074,0.129 0.461,0.35 0.848,0.443c0.812,0.221 1.052,-0.037 0.72,-0.812c-0.258,-0.517 -0.517,-0.554 -1.015,-0.129c-0.332,0.313 -0.35,0.313 -0.516,0c-0.111,-0.166 -0.388,-0.314 -0.628,-0.314c-0.35,0 -0.442,0.111 -0.498,0.59c-0.036,0.443 -0.166,0.628 -0.424,0.665c-0.203,0.037 -0.498,0.184 -0.664,0.332c-0.258,0.221 -0.332,0.221 -0.517,0.018c-0.166,-0.203 -0.147,-0.313 0.074,-0.498c0.203,-0.166 0.222,-0.295 0.074,-0.48c-0.295,-0.35 -0.055,-0.59 0.719,-0.738c0.775,-0.129 1.144,-0.368 1.144,-0.719c0,-0.406 -0.719,-0.461 -0.977,-0.074c-0.148,0.185 -0.314,0.295 -0.369,0.222c-0.222,-0.203 -0.13,-0.738 0.147,-0.978c0.148,-0.129 0.277,-0.461 0.277,-0.756c0,-0.425 -0.074,-0.535 -0.406,-0.535c-0.24,0 -0.535,0.073 -0.664,0.166Z" style="fill:#33b4ff;fill-opacity:0.670588;fill-rule:nonzero;"/><path d="M35.302,1.717c-0.166,0.111 -0.203,0.351 -0.129,0.83c0.129,0.628 -0.092,0.923 -0.369,0.48c-0.203,-0.314 -0.645,-0.203 -0.812,0.221c-0.092,0.259 -0.184,0.314 -0.276,0.185c-0.259,-0.425 -0.664,-0.24 -0.664,0.313c0,0.831 -0.277,0.831 -0.812,0.019c-0.258,-0.406 -0.609,-0.738 -0.756,-0.738c-0.148,0 -0.332,0 -0.388,0c-0.074,0 -0.147,0.295 -0.166,0.646c-0.037,0.535 0.037,0.645 0.314,0.645c0.498,0 1.107,0.351 0.978,0.572c-0.074,0.092 -0.277,0.166 -0.48,0.166c-0.258,0 -0.351,0.092 -0.314,0.314c0.074,0.35 0.277,0.369 1.107,0.147c0.369,-0.092 0.572,-0.037 0.83,0.259c0.314,0.387 0.978,0.535 0.978,0.221c0,-0.074 -0.166,-0.369 -0.387,-0.646c-0.443,-0.553 -0.406,-1.365 0.055,-1.66c0.443,-0.277 1.273,0.498 0.922,0.849c-0.129,0.129 -0.221,0.498 -0.221,0.83c0,0.719 -0.48,1.346 -1.015,1.346c-0.221,0 -0.479,0.093 -0.59,0.203c-0.258,0.259 -0.922,-0.129 -1.052,-0.627c-0.055,-0.221 -0.202,-0.313 -0.424,-0.277c-0.479,0.093 -0.516,0.646 -0.074,0.794c0.48,0.147 0.498,0.387 0.019,0.645c-0.258,0.148 -0.461,0.129 -0.738,-0.037c-0.314,-0.202 -0.406,-0.184 -0.553,0.037c-0.314,0.498 -0.203,0.923 0.313,1.126c0.406,0.147 0.554,0.129 0.738,-0.129c0.129,-0.185 0.24,-0.406 0.24,-0.499c0,-0.092 0.111,-0.129 0.24,-0.073c0.129,0.037 0.203,0.276 0.166,0.553c-0.037,0.332 0.037,0.535 0.221,0.609c0.166,0.055 0.295,0.313 0.295,0.553c0,0.535 0.461,0.591 0.978,0.129c0.332,-0.313 0.369,-0.313 0.719,0.13l0.369,0.461l-0.424,0.055c-0.24,0.037 -0.535,0.148 -0.646,0.24c-0.258,0.221 -0.129,0.812 0.24,1.125c0.24,0.185 0.351,0.148 0.627,-0.203c0.203,-0.24 0.351,-0.59 0.351,-0.775c0,-0.221 0.129,-0.35 0.369,-0.35c0.221,0 0.369,-0.129 0.369,-0.332c0,-0.185 -0.166,-0.461 -0.369,-0.646c-0.406,-0.35 -0.48,-0.867 -0.166,-1.18c0.147,-0.148 0.092,-0.259 -0.185,-0.425c-0.424,-0.221 -0.479,-0.147 -0.608,0.646c-0.037,0.277 -0.222,0.387 -0.72,0.424c-0.553,0.056 -0.682,-0.018 -0.775,-0.35c-0.147,-0.535 0.48,-1.033 1.513,-1.181c0.664,-0.092 0.849,-0.055 1.144,0.258c0.203,0.222 0.479,0.388 0.609,0.388c0.147,0 0.313,0.129 0.369,0.295c0.184,0.498 0.129,0.996 -0.148,0.996c-0.332,0 -0.553,0.554 -0.314,0.793c0.277,0.277 1.163,-0.166 1.089,-0.535c-0.111,-0.572 0.406,-0.479 0.608,0.111c0.167,0.48 0.296,0.572 0.701,0.517c0.406,-0.037 0.48,-0.148 0.48,-0.609c0,-0.498 -0.074,-0.554 -0.59,-0.609c-0.683,-0.074 -0.812,-0.387 -0.24,-0.535c0.24,-0.055 0.369,-0.221 0.332,-0.406c-0.055,-0.24 -0.258,-0.277 -0.941,-0.24c-0.553,0.037 -0.867,0 -0.867,-0.129c0,-0.129 -0.221,-0.295 -0.479,-0.387c-0.517,-0.203 -0.443,-0.554 0.11,-0.554c0.185,0 0.425,-0.129 0.517,-0.295c0.129,-0.24 0.24,-0.258 0.553,-0.092c0.203,0.111 0.424,0.369 0.498,0.553c0.148,0.48 0.646,0.646 0.978,0.333c0.221,-0.24 0.203,-0.314 -0.111,-0.609c-0.572,-0.572 -0.996,-1.328 -0.793,-1.439c0.092,-0.074 0.24,0 0.332,0.147c0.074,0.13 0.461,0.351 0.849,0.443c0.811,0.222 1.051,-0.037 0.719,-0.812c-0.258,-0.516 -0.516,-0.553 -1.014,-0.129c-0.333,0.314 -0.351,0.314 -0.517,0c-0.111,-0.166 -0.387,-0.313 -0.627,-0.313c-0.351,0 -0.443,0.11 -0.498,0.59c-0.037,0.443 -0.166,0.627 -0.425,0.664c-0.202,0.037 -0.498,0.185 -0.664,0.332c-0.258,0.222 -0.332,0.222 -0.516,0.019c-0.166,-0.203 -0.148,-0.314 0.074,-0.498c0.203,-0.166 0.221,-0.296 0.073,-0.48c-0.295,-0.351 -0.055,-0.59 0.72,-0.738c0.775,-0.129 1.144,-0.369 1.144,-0.719c0,-0.406 -0.72,-0.462 -0.978,-0.074c-0.148,0.184 -0.314,0.295 -0.369,0.221c-0.221,-0.203 -0.129,-0.738 0.147,-0.978c0.148,-0.129 0.277,-0.461 0.277,-0.756c0,-0.424 -0.074,-0.535 -0.406,-0.535c-0.239,0 -0.535,0.074 -0.664,0.166Z" style="fill:#33b4ff;fill-opacity:0.670588;fill-rule:nonzero;"/><path d="M94.894,79.376c-0.115,0.077 -0.141,0.242 -0.09,0.574c0.09,0.434 -0.063,0.638 -0.255,0.332c-0.14,-0.217 -0.446,-0.141 -0.561,0.153c-0.063,0.178 -0.127,0.216 -0.191,0.127c-0.179,-0.293 -0.459,-0.166 -0.459,0.217c0,0.574 -0.191,0.574 -0.561,0.013c-0.179,-0.281 -0.421,-0.51 -0.523,-0.51c-0.102,0 -0.229,0 -0.268,0c-0.051,0 -0.102,0.204 -0.114,0.446c-0.026,0.37 0.025,0.446 0.216,0.446c0.345,0 0.765,0.242 0.676,0.395c-0.051,0.064 -0.191,0.115 -0.331,0.115c-0.179,0 -0.243,0.064 -0.217,0.217c0.051,0.242 0.191,0.255 0.765,0.102c0.255,-0.064 0.395,-0.026 0.574,0.178c0.217,0.268 0.676,0.37 0.676,0.153c0,-0.051 -0.115,-0.255 -0.268,-0.446c-0.306,-0.382 -0.281,-0.943 0.038,-1.147c0.306,-0.192 0.88,0.344 0.638,0.586c-0.09,0.089 -0.153,0.344 -0.153,0.574c0,0.497 -0.332,0.931 -0.702,0.931c-0.153,0 -0.331,0.063 -0.408,0.14c-0.178,0.178 -0.637,-0.089 -0.727,-0.434c-0.038,-0.153 -0.14,-0.216 -0.293,-0.191c-0.331,0.064 -0.357,0.446 -0.051,0.548c0.332,0.102 0.344,0.268 0.013,0.447c-0.179,0.102 -0.319,0.089 -0.51,-0.026c-0.217,-0.14 -0.281,-0.127 -0.383,0.026c-0.216,0.344 -0.14,0.637 0.217,0.777c0.281,0.102 0.383,0.09 0.51,-0.089c0.089,-0.127 0.166,-0.28 0.166,-0.344c0,-0.064 0.076,-0.089 0.166,-0.051c0.089,0.025 0.14,0.191 0.114,0.382c-0.025,0.23 0.026,0.37 0.153,0.421c0.115,0.038 0.204,0.217 0.204,0.383c0,0.37 0.319,0.408 0.676,0.089c0.23,-0.217 0.255,-0.217 0.498,0.089l0.255,0.319l-0.294,0.038c-0.165,0.026 -0.369,0.102 -0.446,0.166c-0.179,0.153 -0.089,0.561 0.166,0.778c0.166,0.127 0.242,0.102 0.433,-0.14c0.141,-0.166 0.243,-0.408 0.243,-0.536c0,-0.153 0.089,-0.242 0.255,-0.242c0.153,0 0.255,-0.089 0.255,-0.23c0,-0.127 -0.115,-0.319 -0.255,-0.446c-0.281,-0.242 -0.332,-0.599 -0.115,-0.816c0.102,-0.102 0.064,-0.179 -0.128,-0.293c-0.293,-0.153 -0.331,-0.102 -0.42,0.446c-0.026,0.191 -0.153,0.268 -0.498,0.293c-0.382,0.038 -0.472,-0.013 -0.535,-0.242c-0.102,-0.37 0.331,-0.714 1.045,-0.816c0.459,-0.064 0.587,-0.038 0.791,0.178c0.14,0.153 0.331,0.268 0.421,0.268c0.102,0 0.216,0.089 0.255,0.204c0.127,0.344 0.089,0.689 -0.102,0.689c-0.23,0 -0.383,0.382 -0.217,0.548c0.191,0.191 0.803,-0.115 0.752,-0.37c-0.076,-0.395 0.281,-0.331 0.421,0.077c0.115,0.331 0.204,0.395 0.484,0.357c0.281,-0.026 0.332,-0.102 0.332,-0.421c0,-0.344 -0.051,-0.383 -0.408,-0.421c-0.472,-0.051 -0.561,-0.268 -0.166,-0.37c0.166,-0.038 0.255,-0.153 0.23,-0.28c-0.039,-0.166 -0.179,-0.191 -0.651,-0.166c-0.382,0.026 -0.599,0 -0.599,-0.089c0,-0.089 -0.153,-0.204 -0.331,-0.268c-0.357,-0.14 -0.306,-0.382 0.076,-0.382c0.128,0 0.293,-0.09 0.357,-0.204c0.089,-0.166 0.166,-0.179 0.383,-0.064c0.14,0.076 0.293,0.255 0.344,0.382c0.102,0.332 0.446,0.447 0.676,0.23c0.153,-0.166 0.14,-0.217 -0.077,-0.421c-0.395,-0.395 -0.688,-0.918 -0.548,-0.994c0.064,-0.051 0.166,0 0.229,0.102c0.051,0.089 0.319,0.242 0.587,0.306c0.561,0.153 0.727,-0.026 0.497,-0.561c-0.178,-0.357 -0.357,-0.383 -0.701,-0.09c-0.23,0.217 -0.242,0.217 -0.357,0c-0.077,-0.114 -0.268,-0.216 -0.434,-0.216c-0.242,0 -0.306,0.076 -0.344,0.408c-0.025,0.306 -0.115,0.433 -0.293,0.459c-0.14,0.025 -0.344,0.127 -0.459,0.229c-0.179,0.153 -0.23,0.153 -0.357,0.013c-0.115,-0.14 -0.102,-0.217 0.051,-0.344c0.14,-0.115 0.153,-0.204 0.051,-0.332c-0.204,-0.242 -0.038,-0.408 0.497,-0.51c0.536,-0.089 0.791,-0.255 0.791,-0.497c0,-0.281 -0.498,-0.319 -0.676,-0.051c-0.102,0.127 -0.217,0.204 -0.255,0.153c-0.153,-0.14 -0.089,-0.51 0.102,-0.676c0.102,-0.089 0.191,-0.319 0.191,-0.523c0,-0.293 -0.051,-0.37 -0.28,-0.37c-0.166,0 -0.37,0.051 -0.459,0.115Z" style="fill:#33b4ff;fill-opacity:0.670588;fill-rule:nonzero;"/><path d="M130.487,75.777c-0.188,0.126 -0.23,0.397 -0.146,0.941c0.146,0.711 -0.105,1.046 -0.418,0.544c-0.23,-0.356 -0.732,-0.23 -0.92,0.251c-0.105,0.292 -0.209,0.355 -0.314,0.209c-0.293,-0.481 -0.753,-0.272 -0.753,0.355c0,0.941 -0.313,0.941 -0.92,0.021c-0.292,-0.46 -0.69,-0.836 -0.857,-0.836c-0.167,0 -0.376,0 -0.439,0c-0.084,0 -0.167,0.334 -0.188,0.732c-0.042,0.606 0.042,0.731 0.355,0.731c0.565,0 1.255,0.398 1.108,0.648c-0.083,0.105 -0.313,0.189 -0.543,0.189c-0.293,0 -0.397,0.104 -0.356,0.355c0.084,0.397 0.314,0.418 1.255,0.167c0.418,-0.104 0.648,-0.041 0.941,0.293c0.355,0.439 1.108,0.606 1.108,0.251c0,-0.084 -0.188,-0.418 -0.439,-0.732c-0.502,-0.627 -0.46,-1.547 0.063,-1.882c0.501,-0.313 1.442,0.565 1.045,0.962c-0.146,0.147 -0.251,0.565 -0.251,0.941c0,0.816 -0.543,1.526 -1.15,1.526c-0.251,0 -0.543,0.105 -0.669,0.23c-0.293,0.293 -1.045,-0.146 -1.192,-0.71c-0.062,-0.251 -0.23,-0.356 -0.481,-0.314c-0.543,0.104 -0.585,0.732 -0.083,0.899c0.543,0.167 0.564,0.439 0.021,0.732c-0.293,0.167 -0.523,0.146 -0.837,-0.042c-0.355,-0.23 -0.46,-0.209 -0.627,0.042c-0.355,0.564 -0.23,1.045 0.356,1.275c0.46,0.167 0.627,0.147 0.836,-0.146c0.146,-0.209 0.272,-0.46 0.272,-0.565c0,-0.104 0.125,-0.146 0.271,-0.083c0.147,0.041 0.23,0.313 0.189,0.627c-0.042,0.376 0.041,0.606 0.251,0.69c0.188,0.063 0.334,0.355 0.334,0.627c0,0.607 0.523,0.669 1.108,0.147c0.377,-0.356 0.418,-0.356 0.816,0.146l0.418,0.523l-0.481,0.062c-0.272,0.042 -0.606,0.168 -0.732,0.272c-0.293,0.251 -0.146,0.92 0.272,1.276c0.272,0.209 0.397,0.167 0.711,-0.23c0.23,-0.272 0.397,-0.67 0.397,-0.879c0,-0.25 0.147,-0.397 0.418,-0.397c0.251,0 0.418,-0.146 0.418,-0.376c0,-0.209 -0.188,-0.523 -0.418,-0.732c-0.46,-0.397 -0.543,-0.983 -0.188,-1.338c0.167,-0.167 0.105,-0.293 -0.209,-0.481c-0.481,-0.251 -0.544,-0.167 -0.69,0.732c-0.042,0.313 -0.251,0.439 -0.815,0.481c-0.628,0.062 -0.774,-0.021 -0.879,-0.398c-0.167,-0.606 0.544,-1.171 1.715,-1.338c0.753,-0.104 0.962,-0.062 1.296,0.293c0.23,0.251 0.544,0.439 0.69,0.439c0.168,0 0.356,0.146 0.418,0.335c0.21,0.564 0.147,1.129 -0.167,1.129c-0.376,0 -0.627,0.627 -0.355,0.899c0.313,0.313 1.317,-0.188 1.233,-0.607c-0.125,-0.648 0.46,-0.543 0.69,0.126c0.189,0.543 0.335,0.648 0.795,0.585c0.46,-0.042 0.543,-0.167 0.543,-0.69c0,-0.564 -0.083,-0.627 -0.669,-0.69c-0.773,-0.083 -0.92,-0.439 -0.271,-0.606c0.271,-0.063 0.418,-0.251 0.376,-0.46c-0.063,-0.272 -0.293,-0.314 -1.066,-0.272c-0.628,0.042 -0.983,0 -0.983,-0.146c0,-0.147 -0.251,-0.335 -0.544,-0.439c-0.585,-0.23 -0.502,-0.628 0.126,-0.628c0.209,0 0.481,-0.146 0.585,-0.334c0.147,-0.272 0.272,-0.293 0.627,-0.105c0.23,0.126 0.481,0.419 0.565,0.628c0.167,0.543 0.732,0.731 1.108,0.376c0.251,-0.272 0.23,-0.355 -0.125,-0.69c-0.648,-0.648 -1.129,-1.505 -0.899,-1.631c0.104,-0.084 0.271,0 0.376,0.167c0.084,0.147 0.523,0.398 0.962,0.502c0.92,0.251 1.192,-0.042 0.815,-0.92c-0.293,-0.585 -0.585,-0.627 -1.15,-0.146c-0.376,0.355 -0.397,0.355 -0.585,0c-0.126,-0.188 -0.439,-0.356 -0.711,-0.356c-0.397,0 -0.502,0.126 -0.565,0.669c-0.041,0.502 -0.188,0.711 -0.481,0.753c-0.23,0.042 -0.564,0.209 -0.752,0.377c-0.293,0.25 -0.377,0.25 -0.586,0.02c-0.188,-0.23 -0.167,-0.355 0.084,-0.564c0.23,-0.188 0.251,-0.335 0.084,-0.544c-0.335,-0.397 -0.063,-0.669 0.815,-0.836c0.878,-0.146 1.296,-0.418 1.296,-0.815c0,-0.46 -0.815,-0.523 -1.108,-0.084c-0.167,0.209 -0.355,0.334 -0.418,0.251c-0.251,-0.23 -0.146,-0.837 0.167,-1.108c0.168,-0.147 0.314,-0.523 0.314,-0.858c0,-0.481 -0.084,-0.606 -0.46,-0.606c-0.272,0 -0.606,0.084 -0.753,0.188Z" style="fill:#33b4ff;fill-opacity:0.670588;fill-rule:nonzero;"/><path d="M75.226,4.131c-0.108,0.072 -0.132,0.228 -0.084,0.54c0.084,0.409 -0.06,0.601 -0.241,0.313c-0.132,-0.205 -0.42,-0.133 -0.528,0.144c-0.06,0.168 -0.12,0.204 -0.18,0.12c-0.168,-0.276 -0.432,-0.156 -0.432,0.204c0,0.54 -0.181,0.54 -0.529,0.012c-0.168,-0.264 -0.396,-0.48 -0.492,-0.48c-0.096,0 -0.216,0 -0.252,0c-0.048,0 -0.097,0.192 -0.109,0.42c-0.024,0.348 0.024,0.42 0.205,0.42c0.324,0 0.72,0.228 0.636,0.372c-0.048,0.061 -0.18,0.109 -0.312,0.109c-0.168,0 -0.228,0.06 -0.204,0.204c0.048,0.228 0.18,0.24 0.72,0.096c0.24,-0.06 0.373,-0.024 0.541,0.168c0.204,0.252 0.636,0.348 0.636,0.144c0,-0.048 -0.108,-0.24 -0.252,-0.42c-0.288,-0.361 -0.264,-0.889 0.036,-1.081c0.288,-0.18 0.829,0.324 0.6,0.552c-0.084,0.084 -0.144,0.325 -0.144,0.541c0,0.468 -0.312,0.876 -0.66,0.876c-0.144,0 -0.312,0.06 -0.384,0.132c-0.169,0.169 -0.601,-0.084 -0.685,-0.408c-0.036,-0.144 -0.132,-0.204 -0.276,-0.18c-0.312,0.06 -0.336,0.42 -0.048,0.516c0.312,0.096 0.324,0.253 0.012,0.421c-0.168,0.096 -0.3,0.084 -0.481,-0.024c-0.204,-0.132 -0.264,-0.12 -0.36,0.024c-0.204,0.324 -0.132,0.6 0.204,0.732c0.265,0.096 0.361,0.084 0.481,-0.084c0.084,-0.12 0.156,-0.264 0.156,-0.324c0,-0.06 0.072,-0.084 0.156,-0.048c0.084,0.024 0.132,0.18 0.108,0.36c-0.024,0.216 0.024,0.348 0.144,0.397c0.108,0.036 0.192,0.204 0.192,0.36c0,0.348 0.3,0.384 0.637,0.084c0.216,-0.204 0.24,-0.204 0.468,0.084l0.24,0.3l-0.276,0.036c-0.156,0.024 -0.348,0.096 -0.42,0.156c-0.168,0.144 -0.084,0.529 0.156,0.733c0.156,0.12 0.228,0.096 0.408,-0.132c0.132,-0.156 0.228,-0.385 0.228,-0.505c0,-0.144 0.084,-0.228 0.241,-0.228c0.144,0 0.24,-0.084 0.24,-0.216c0,-0.12 -0.108,-0.3 -0.24,-0.42c-0.265,-0.228 -0.313,-0.565 -0.109,-0.769c0.097,-0.096 0.06,-0.168 -0.12,-0.276c-0.276,-0.144 -0.312,-0.096 -0.396,0.42c-0.024,0.18 -0.144,0.252 -0.468,0.276c-0.361,0.036 -0.445,-0.012 -0.505,-0.228c-0.096,-0.348 0.313,-0.672 0.985,-0.768c0.432,-0.06 0.552,-0.036 0.745,0.168c0.132,0.144 0.312,0.252 0.396,0.252c0.096,0 0.204,0.084 0.24,0.192c0.12,0.324 0.084,0.649 -0.096,0.649c-0.216,0 -0.36,0.36 -0.204,0.516c0.18,0.18 0.756,-0.108 0.708,-0.348c-0.072,-0.373 0.265,-0.312 0.397,0.072c0.108,0.312 0.192,0.372 0.456,0.336c0.264,-0.024 0.312,-0.096 0.312,-0.396c0,-0.324 -0.048,-0.361 -0.384,-0.397c-0.444,-0.048 -0.528,-0.252 -0.156,-0.348c0.156,-0.036 0.24,-0.144 0.216,-0.264c-0.036,-0.156 -0.168,-0.18 -0.612,-0.156c-0.361,0.024 -0.565,0 -0.565,-0.084c0,-0.084 -0.144,-0.192 -0.312,-0.252c-0.336,-0.132 -0.288,-0.361 0.072,-0.361c0.12,0 0.276,-0.084 0.336,-0.192c0.084,-0.156 0.156,-0.168 0.361,-0.06c0.132,0.072 0.276,0.24 0.324,0.36c0.096,0.313 0.42,0.421 0.636,0.217c0.144,-0.157 0.132,-0.205 -0.072,-0.397c-0.372,-0.372 -0.648,-0.864 -0.516,-0.936c0.06,-0.048 0.156,0 0.216,0.096c0.048,0.084 0.3,0.228 0.552,0.288c0.529,0.144 0.685,-0.024 0.469,-0.529c-0.168,-0.336 -0.337,-0.36 -0.661,-0.084c-0.216,0.205 -0.228,0.205 -0.336,0c-0.072,-0.108 -0.252,-0.204 -0.408,-0.204c-0.229,0 -0.289,0.072 -0.325,0.385c-0.024,0.288 -0.108,0.408 -0.276,0.432c-0.132,0.024 -0.324,0.12 -0.432,0.216c-0.168,0.144 -0.216,0.144 -0.336,0.012c-0.108,-0.132 -0.096,-0.204 0.048,-0.324c0.132,-0.108 0.144,-0.192 0.048,-0.312c-0.192,-0.229 -0.036,-0.385 0.468,-0.481c0.504,-0.084 0.745,-0.24 0.745,-0.468c0,-0.264 -0.469,-0.3 -0.637,-0.048c-0.096,0.12 -0.204,0.192 -0.24,0.144c-0.144,-0.132 -0.084,-0.48 0.096,-0.637c0.096,-0.084 0.18,-0.3 0.18,-0.492c0,-0.276 -0.048,-0.348 -0.264,-0.348c-0.156,0 -0.348,0.048 -0.432,0.108Z" style="fill:#33b4ff;fill-opacity:0.670588;fill-rule:nonzero;"/></g></g><defs><linearGradient id="_Linear1" x1="0" y1="0" x2="1" y2="0" gradientUnits="userSpaceOnUse" gradientTransform="matrix(1.78571e-15,23.066,-29.1628,1.41238e-15,80,66.3782)"><stop offset="0" style="stop-color:#33b4ff;stop-opacity:0"/><stop offset="0.34" style="stop-color:#33b4ff;stop-opacity:0"/><stop offset="1" style="stop-color:#32b3ff;stop-opacity:0.717647"/></linearGradient><linearGradient id="_Linear2" x1="0" y1="0" x2="1" y2="0" gradientUnits="userSpaceOnUse" gradientTransform="matrix(1.05581e-15,-23.2027,29.1628,2.15066e-15,80,23.3348)"><stop offset="0" style="stop-color:#33b4ff;stop-opacity:0"/><stop offset="0.34" style="stop-color:#33b4ff;stop-opacity:0"/><stop offset="1" style="stop-color:#32b3ff;stop-opacity:0.717647"/></linearGradient><linearGradient id="_Linear3" x1="0" y1="0" x2="1" y2="0" gradientUnits="userSpaceOnUse" gradientTransform="matrix(23.2483,4.06856e-16,4.06856e-16,16.6038,136.206,45)"><stop offset="0" style="stop-color:#33b4ff;stop-opacity:0"/><stop offset="0.34" style="stop-color:#33b4ff;stop-opacity:0"/><stop offset="1" style="stop-color:#32b3ff;stop-opacity:0.717647"/></linearGradient><linearGradient id="_Linear4" x1="0" y1="0" x2="1" y2="0" gradientUnits="userSpaceOnUse" gradientTransform="matrix(-23.1565,2.43462e-15,-2.43462e-15,-16.6038,23.4711,45)"><stop offset="0" style="stop-color:#33b4ff;stop-opacity:0"/><stop offset="0.34" style="stop-color:#33b4ff;stop-opacity:0"/><stop offset="1" style="stop-color:#32b3ff;stop-opacity:0.717647"/></linearGradient></defs></svg>