<svg width="100px" height="100px" viewBox="0 0 160 90" version="1.1" xmlns="http://www.w3.org/2000/svg" xmlns:xlink="http://www.w3.org/1999/xlink" xml:space="preserve" xmlns:serif="http://www.serif.com/" style="fill-rule:evenodd;clip-rule:evenodd;stroke-linejoin:round;stroke-miterlimit:1.41421;"><g><rect x="-0.5" y="-0.5" width="161" height="91" style="fill:url(#_Linear1);"/><rect x="-0.5" y="-0.5" width="161" height="91" style="fill:url(#_Linear2);"/><rect x="-0.5" y="-0.5" width="161" height="91" style="fill:url(#_Linear3);"/><rect x="-0.5" y="-0.5" width="161" height="91" style="fill:url(#_Linear4);"/></g><g><path d="M147.593,57.806c-0.08,0.059 -0.14,0.377 -0.14,0.696c0,0.536 -0.059,0.576 -0.636,0.517c-0.855,-0.08 -0.895,0.298 -0.06,0.855c0.617,0.417 0.696,0.576 0.696,1.312c0,0.994 -0.278,1.094 -1.193,0.418c-0.517,-0.378 -0.596,-0.557 -0.596,-1.412c0,-1.114 -0.378,-1.213 -0.696,-0.179c-0.139,0.477 -0.259,0.616 -0.497,0.517c-0.736,-0.318 -1.193,-0.318 -1.193,-0.02c0,0.179 0.119,0.398 0.258,0.477c0.119,0.08 0.358,0.318 0.517,0.497c0.239,0.318 0.199,0.378 -0.278,0.557c-0.557,0.219 -0.517,0.597 0.099,0.597c0.199,0 0.636,-0.16 0.955,-0.338c0.556,-0.319 0.636,-0.319 0.974,-0.04c0.199,0.179 0.537,0.378 0.736,0.457c0.358,0.119 0.358,0.159 -0.08,0.617c-0.576,0.616 -1.332,0.636 -2.267,0.079c-0.656,-0.378 -0.716,-0.378 -0.835,-0.079c-0.079,0.198 0.02,0.437 0.298,0.616c0.517,0.378 0.537,0.795 0.02,1.074c-0.437,0.238 -0.537,0.815 -0.139,0.775c0.119,-0.02 0.457,-0.079 0.736,-0.159c0.437,-0.119 0.517,-0.06 0.716,0.457c0.338,0.995 0.676,0.875 0.676,-0.238c0,-0.895 0.059,-1.034 0.696,-1.511c0.378,-0.299 0.795,-0.478 0.895,-0.418c0.318,0.199 0.238,1.65 -0.12,1.929c-0.755,0.616 -1.074,0.974 -1.074,1.153c0,0.259 0.458,0.259 0.736,-0.02c0.358,-0.358 0.656,-0.02 0.656,0.736c0,0.437 0.1,0.676 0.279,0.676c0.298,0 0.517,-0.417 0.517,-1.034c0,-0.398 0.099,-0.417 1.193,-0.139c0.576,0.159 0.298,-0.597 -0.398,-1.054c-0.577,-0.398 -0.696,-0.597 -0.755,-1.312c-0.08,-0.975 0.238,-1.094 1.153,-0.438c0.457,0.318 0.596,0.597 0.636,1.253c0.04,0.596 0.159,0.855 0.398,0.895c0.219,0.039 0.358,-0.1 0.398,-0.398c0.059,-0.398 0.159,-0.457 0.815,-0.418c0.616,0.04 0.736,-0.019 0.736,-0.338c0,-0.218 -0.12,-0.397 -0.279,-0.397c-0.517,0 -0.577,-0.418 -0.159,-0.995c0.557,-0.735 0.199,-1.153 -0.517,-0.596c-0.636,0.517 -1.452,0.497 -2.048,0l-0.477,-0.398l0.497,-0.397c0.716,-0.577 1.173,-0.677 1.551,-0.338c0.179,0.139 0.497,0.338 0.696,0.397c0.517,0.179 0.676,-0.417 0.219,-0.755c-0.358,-0.279 -0.358,-0.319 0.178,-0.776c0.299,-0.278 0.537,-0.596 0.537,-0.716c0,-0.258 -0.855,-0.258 -1.133,0.02c-0.298,0.298 -0.656,0.06 -0.656,-0.437c0,-0.239 -0.139,-0.378 -0.398,-0.378c-0.338,0 -0.398,0.139 -0.398,0.775c0,0.617 -0.119,0.875 -0.517,1.193c-0.855,0.677 -1.272,0.557 -1.272,-0.357c0,-0.617 0.119,-0.875 0.517,-1.194c0.298,-0.238 0.656,-0.417 0.815,-0.417c0.159,0 0.259,-0.139 0.219,-0.358c-0.06,-0.259 -0.239,-0.318 -0.816,-0.278c-0.616,0.059 -0.735,0.019 -0.735,-0.319c0,-0.795 -0.318,-1.232 -0.656,-0.894Z" style="fill:#49b0c2;fill-opacity:0.670588;fill-rule:nonzero;"/><path d="M11.986,32.762c-0.096,0.072 -0.167,0.453 -0.167,0.834c0,0.644 -0.072,0.691 -0.763,0.62c-1.025,-0.095 -1.072,0.358 -0.071,1.025c0.739,0.5 0.834,0.691 0.834,1.573c0,1.192 -0.334,1.311 -1.43,0.501c-0.62,-0.453 -0.715,-0.668 -0.715,-1.693c0,-1.335 -0.453,-1.454 -0.835,-0.214c-0.166,0.572 -0.309,0.739 -0.595,0.62c-0.882,-0.382 -1.431,-0.382 -1.431,-0.024c0,0.214 0.143,0.476 0.31,0.572c0.143,0.095 0.429,0.381 0.62,0.596c0.286,0.381 0.238,0.453 -0.334,0.667c-0.667,0.262 -0.619,0.715 0.12,0.715c0.238,0 0.762,-0.191 1.144,-0.405c0.667,-0.381 0.762,-0.381 1.168,-0.048c0.238,0.215 0.643,0.453 0.882,0.548c0.429,0.143 0.429,0.191 -0.096,0.739c-0.691,0.739 -1.597,0.763 -2.717,0.096c-0.787,-0.453 -0.858,-0.453 -1.001,-0.096c-0.096,0.239 0.024,0.525 0.357,0.739c0.62,0.453 0.644,0.954 0.024,1.287c-0.524,0.286 -0.643,0.978 -0.167,0.93c0.143,-0.024 0.549,-0.095 0.882,-0.191c0.525,-0.143 0.62,-0.071 0.858,0.549c0.406,1.191 0.811,1.048 0.811,-0.286c0,-1.073 0.071,-1.24 0.834,-1.812c0.453,-0.358 0.953,-0.572 1.073,-0.501c0.381,0.239 0.286,1.979 -0.143,2.313c-0.906,0.738 -1.288,1.167 -1.288,1.382c0,0.31 0.549,0.31 0.882,-0.024c0.429,-0.429 0.787,-0.024 0.787,0.882c0,0.524 0.119,0.81 0.334,0.81c0.357,0 0.619,-0.5 0.619,-1.239c0,-0.477 0.12,-0.501 1.431,-0.167c0.691,0.191 0.357,-0.715 -0.477,-1.263c-0.691,-0.477 -0.834,-0.715 -0.906,-1.573c-0.095,-1.168 0.286,-1.311 1.383,-0.525c0.548,0.382 0.715,0.715 0.762,1.502c0.048,0.715 0.191,1.025 0.477,1.073c0.262,0.047 0.429,-0.12 0.477,-0.477c0.071,-0.477 0.19,-0.548 0.977,-0.501c0.739,0.048 0.882,-0.024 0.882,-0.405c0,-0.262 -0.143,-0.477 -0.334,-0.477c-0.62,0 -0.691,-0.5 -0.19,-1.191c0.667,-0.882 0.238,-1.383 -0.62,-0.715c-0.763,0.619 -1.74,0.595 -2.455,0l-0.572,-0.477l0.596,-0.477c0.858,-0.691 1.406,-0.81 1.859,-0.405c0.214,0.167 0.596,0.405 0.834,0.477c0.62,0.214 0.81,-0.501 0.262,-0.906c-0.429,-0.334 -0.429,-0.382 0.215,-0.93c0.357,-0.333 0.643,-0.715 0.643,-0.858c0,-0.31 -1.025,-0.31 -1.358,0.024c-0.358,0.358 -0.787,0.072 -0.787,-0.524c0,-0.286 -0.167,-0.453 -0.477,-0.453c-0.405,0 -0.476,0.167 -0.476,0.929c0,0.739 -0.143,1.049 -0.62,1.43c-1.025,0.811 -1.526,0.668 -1.526,-0.429c0,-0.738 0.143,-1.048 0.62,-1.43c0.358,-0.286 0.787,-0.5 0.977,-0.5c0.191,0 0.31,-0.167 0.263,-0.429c-0.072,-0.31 -0.286,-0.382 -0.978,-0.334c-0.739,0.071 -0.882,0.024 -0.882,-0.381c0,-0.954 -0.381,-1.478 -0.786,-1.073Z" style="fill:#49b0c2;fill-opacity:0.670588;fill-rule:nonzero;"/><path d="M107.954,3.17c-0.074,0.055 -0.129,0.35 -0.129,0.645c0,0.497 -0.056,0.534 -0.59,0.478c-0.792,-0.073 -0.829,0.277 -0.055,0.793c0.571,0.387 0.645,0.534 0.645,1.216c0,0.921 -0.258,1.013 -1.106,0.386c-0.479,-0.35 -0.552,-0.515 -0.552,-1.308c0,-1.031 -0.35,-1.123 -0.645,-0.165c-0.129,0.442 -0.24,0.571 -0.461,0.479c-0.681,-0.295 -1.105,-0.295 -1.105,-0.019c0,0.166 0.111,0.369 0.24,0.442c0.11,0.074 0.331,0.295 0.479,0.461c0.221,0.295 0.184,0.35 -0.258,0.516c-0.516,0.202 -0.479,0.552 0.092,0.552c0.184,0 0.589,-0.147 0.884,-0.313c0.516,-0.295 0.589,-0.295 0.903,-0.037c0.184,0.166 0.497,0.35 0.681,0.424c0.332,0.111 0.332,0.147 -0.073,0.571c-0.535,0.571 -1.235,0.59 -2.101,0.074c-0.607,-0.35 -0.663,-0.35 -0.773,-0.074c-0.074,0.184 0.018,0.405 0.276,0.571c0.479,0.35 0.497,0.737 0.018,0.995c-0.405,0.221 -0.497,0.755 -0.128,0.719c0.11,-0.019 0.423,-0.074 0.681,-0.148c0.405,-0.11 0.479,-0.055 0.663,0.424c0.314,0.921 0.627,0.81 0.627,-0.221c0,-0.829 0.055,-0.958 0.645,-1.4c0.35,-0.277 0.736,-0.442 0.829,-0.387c0.294,0.184 0.221,1.529 -0.111,1.787c-0.7,0.571 -0.995,0.902 -0.995,1.068c0,0.24 0.424,0.24 0.682,-0.018c0.331,-0.332 0.608,-0.019 0.608,0.681c0,0.406 0.092,0.627 0.258,0.627c0.276,0 0.479,-0.387 0.479,-0.958c0,-0.369 0.092,-0.387 1.105,-0.129c0.534,0.147 0.276,-0.553 -0.368,-0.976c-0.535,-0.369 -0.645,-0.553 -0.701,-1.216c-0.073,-0.903 0.222,-1.014 1.069,-0.406c0.424,0.295 0.553,0.553 0.589,1.161c0.037,0.553 0.148,0.792 0.369,0.829c0.203,0.037 0.332,-0.092 0.368,-0.368c0.056,-0.369 0.148,-0.424 0.756,-0.387c0.571,0.037 0.681,-0.019 0.681,-0.314c0,-0.202 -0.11,-0.368 -0.258,-0.368c-0.479,0 -0.534,-0.387 -0.147,-0.921c0.516,-0.682 0.184,-1.069 -0.479,-0.553c-0.589,0.479 -1.345,0.461 -1.897,0l-0.443,-0.368l0.461,-0.369c0.663,-0.534 1.087,-0.626 1.437,-0.313c0.166,0.129 0.46,0.313 0.645,0.369c0.479,0.165 0.626,-0.387 0.202,-0.7c-0.331,-0.258 -0.331,-0.295 0.166,-0.719c0.276,-0.258 0.498,-0.553 0.498,-0.663c0,-0.24 -0.793,-0.24 -1.051,0.018c-0.276,0.277 -0.607,0.056 -0.607,-0.405c0,-0.221 -0.129,-0.35 -0.369,-0.35c-0.313,0 -0.368,0.129 -0.368,0.718c0,0.572 -0.111,0.811 -0.479,1.106c-0.793,0.626 -1.179,0.516 -1.179,-0.332c0,-0.571 0.11,-0.81 0.479,-1.105c0.276,-0.221 0.608,-0.387 0.755,-0.387c0.147,0 0.239,-0.129 0.203,-0.332c-0.056,-0.239 -0.221,-0.294 -0.756,-0.258c-0.571,0.056 -0.681,0.019 -0.681,-0.294c0,-0.737 -0.295,-1.142 -0.608,-0.829Z" style="fill:#49b0c2;fill-opacity:0.670588;fill-rule:nonzero;"/><path d="M31.486,75.508c-0.058,0.044 -0.102,0.279 -0.102,0.514c0,0.397 -0.045,0.426 -0.47,0.382c-0.632,-0.059 -0.661,0.22 -0.044,0.632c0.455,0.308 0.514,0.426 0.514,0.969c0,0.734 -0.206,0.808 -0.882,0.308c-0.382,-0.279 -0.44,-0.411 -0.44,-1.042c0,-0.823 -0.279,-0.896 -0.514,-0.133c-0.103,0.353 -0.191,0.456 -0.367,0.382c-0.544,-0.235 -0.882,-0.235 -0.882,-0.014c0,0.132 0.088,0.293 0.191,0.352c0.088,0.059 0.265,0.235 0.382,0.367c0.176,0.235 0.147,0.279 -0.206,0.412c-0.411,0.161 -0.381,0.44 0.074,0.44c0.147,0 0.47,-0.117 0.705,-0.25c0.411,-0.235 0.47,-0.235 0.72,-0.029c0.146,0.132 0.396,0.279 0.543,0.338c0.264,0.088 0.264,0.117 -0.059,0.455c-0.426,0.455 -0.984,0.47 -1.674,0.059c-0.485,-0.279 -0.529,-0.279 -0.617,-0.059c-0.059,0.147 0.015,0.323 0.22,0.455c0.382,0.28 0.397,0.588 0.015,0.794c-0.323,0.176 -0.397,0.602 -0.103,0.572c0.088,-0.014 0.338,-0.058 0.544,-0.117c0.323,-0.088 0.382,-0.044 0.528,0.338c0.25,0.734 0.5,0.646 0.5,-0.177c0,-0.66 0.044,-0.763 0.514,-1.116c0.279,-0.22 0.587,-0.352 0.661,-0.308c0.235,0.147 0.176,1.219 -0.088,1.424c-0.559,0.456 -0.794,0.72 -0.794,0.852c0,0.191 0.338,0.191 0.544,-0.014c0.264,-0.265 0.485,-0.015 0.485,0.543c0,0.323 0.073,0.499 0.205,0.499c0.22,0 0.382,-0.308 0.382,-0.763c0,-0.294 0.073,-0.309 0.881,-0.103c0.426,0.117 0.221,-0.441 -0.294,-0.779c-0.425,-0.293 -0.514,-0.44 -0.558,-0.969c-0.058,-0.72 0.177,-0.808 0.852,-0.323c0.338,0.235 0.441,0.441 0.47,0.925c0.03,0.441 0.118,0.632 0.294,0.661c0.162,0.03 0.264,-0.073 0.294,-0.294c0.044,-0.293 0.117,-0.337 0.602,-0.308c0.455,0.029 0.543,-0.015 0.543,-0.25c0,-0.161 -0.088,-0.293 -0.205,-0.293c-0.382,0 -0.426,-0.309 -0.118,-0.735c0.411,-0.543 0.147,-0.852 -0.382,-0.44c-0.47,0.381 -1.072,0.367 -1.512,0l-0.353,-0.294l0.367,-0.294c0.529,-0.426 0.867,-0.499 1.146,-0.25c0.132,0.103 0.367,0.25 0.514,0.294c0.382,0.132 0.499,-0.308 0.161,-0.558c-0.264,-0.206 -0.264,-0.235 0.133,-0.573c0.22,-0.205 0.396,-0.44 0.396,-0.528c0,-0.191 -0.631,-0.191 -0.837,0.014c-0.22,0.221 -0.485,0.044 -0.485,-0.323c0,-0.176 -0.102,-0.279 -0.293,-0.279c-0.25,0 -0.294,0.103 -0.294,0.573c0,0.455 -0.088,0.646 -0.382,0.881c-0.632,0.499 -0.94,0.411 -0.94,-0.264c0,-0.456 0.088,-0.646 0.382,-0.881c0.22,-0.177 0.485,-0.309 0.602,-0.309c0.118,0 0.191,-0.103 0.162,-0.264c-0.044,-0.191 -0.177,-0.235 -0.603,-0.206c-0.455,0.044 -0.543,0.015 -0.543,-0.235c0,-0.587 -0.235,-0.91 -0.485,-0.661Z" style="fill:#49b0c2;fill-opacity:0.670588;fill-rule:nonzero;"/><path d="M26.254,10.052c-0.042,0.032 -0.074,0.203 -0.074,0.373c0,0.287 -0.032,0.309 -0.341,0.277c-0.458,-0.043 -0.479,0.16 -0.032,0.458c0.33,0.223 0.373,0.308 0.373,0.702c0,0.532 -0.149,0.586 -0.639,0.224c-0.277,-0.203 -0.319,-0.298 -0.319,-0.756c0,-0.596 -0.203,-0.649 -0.373,-0.096c-0.075,0.256 -0.138,0.33 -0.266,0.277c-0.394,-0.17 -0.639,-0.17 -0.639,-0.011c0,0.096 0.064,0.213 0.138,0.256c0.064,0.042 0.192,0.17 0.277,0.266c0.128,0.17 0.107,0.202 -0.149,0.298c-0.298,0.117 -0.277,0.319 0.053,0.319c0.107,0 0.341,-0.085 0.511,-0.181c0.298,-0.17 0.341,-0.17 0.522,-0.021c0.106,0.096 0.287,0.202 0.394,0.245c0.192,0.064 0.192,0.085 -0.043,0.33c-0.308,0.33 -0.713,0.341 -1.213,0.042c-0.352,-0.202 -0.383,-0.202 -0.447,-0.042c-0.043,0.106 0.01,0.234 0.159,0.33c0.277,0.202 0.288,0.426 0.011,0.575c-0.234,0.127 -0.287,0.436 -0.075,0.415c0.064,-0.011 0.245,-0.043 0.394,-0.085c0.235,-0.064 0.277,-0.032 0.384,0.245c0.181,0.532 0.362,0.468 0.362,-0.128c0,-0.479 0.031,-0.554 0.372,-0.809c0.202,-0.16 0.426,-0.256 0.479,-0.224c0.17,0.107 0.128,0.884 -0.064,1.033c-0.404,0.33 -0.575,0.521 -0.575,0.617c0,0.139 0.245,0.139 0.394,-0.01c0.192,-0.192 0.352,-0.011 0.352,0.393c0,0.235 0.053,0.362 0.149,0.362c0.159,0 0.276,-0.223 0.276,-0.553c0,-0.213 0.054,-0.224 0.639,-0.075c0.309,0.086 0.16,-0.319 -0.213,-0.564c-0.309,-0.213 -0.372,-0.319 -0.404,-0.702c-0.043,-0.522 0.127,-0.586 0.617,-0.235c0.245,0.171 0.319,0.32 0.341,0.671c0.021,0.319 0.085,0.458 0.213,0.479c0.117,0.021 0.191,-0.053 0.213,-0.213c0.032,-0.213 0.085,-0.245 0.436,-0.223c0.33,0.021 0.394,-0.011 0.394,-0.181c0,-0.117 -0.064,-0.213 -0.149,-0.213c-0.277,0 -0.309,-0.224 -0.085,-0.533c0.298,-0.393 0.106,-0.617 -0.277,-0.319c-0.341,0.277 -0.777,0.266 -1.097,0l-0.255,-0.213l0.266,-0.213c0.383,-0.308 0.628,-0.362 0.83,-0.181c0.096,0.075 0.267,0.181 0.373,0.213c0.277,0.096 0.362,-0.223 0.117,-0.404c-0.191,-0.149 -0.191,-0.171 0.096,-0.415c0.16,-0.15 0.287,-0.32 0.287,-0.384c0,-0.138 -0.457,-0.138 -0.606,0.011c-0.16,0.16 -0.352,0.032 -0.352,-0.234c0,-0.128 -0.074,-0.203 -0.213,-0.203c-0.181,0 -0.213,0.075 -0.213,0.416c0,0.33 -0.063,0.468 -0.276,0.638c-0.458,0.362 -0.682,0.298 -0.682,-0.191c0,-0.33 0.064,-0.469 0.277,-0.639c0.16,-0.128 0.351,-0.224 0.437,-0.224c0.085,0 0.138,-0.074 0.117,-0.191c-0.032,-0.139 -0.128,-0.17 -0.437,-0.149c-0.33,0.032 -0.394,0.01 -0.394,-0.17c0,-0.426 -0.17,-0.661 -0.351,-0.48Z" style="fill:#49b0c2;fill-opacity:0.670588;fill-rule:nonzero;"/><path d="M11.692,17.139c-0.109,0.329 -0.156,0.766 -0.094,1.063c0.11,0.485 0.094,0.485 -0.14,0.188c-0.25,-0.313 -0.25,-0.313 -0.563,0.062c-0.266,0.298 -0.328,0.313 -0.407,0.11c-0.125,-0.344 -1.172,-0.923 -1.344,-0.751c-0.203,0.204 0.453,1.251 0.86,1.376c0.312,0.094 0.312,0.11 -0.094,0.329c-0.5,0.25 -0.516,0.328 -0.141,0.625c0.235,0.188 0.219,0.203 -0.25,0.125c-0.453,-0.094 -1.595,0.25 -1.595,0.469c0,0.047 0.219,0.188 0.485,0.313c0.328,0.172 0.688,0.234 1.126,0.172c0.563,-0.078 0.609,-0.063 0.312,0.094c-0.453,0.218 -0.453,0.375 -0.015,0.609c0.328,0.172 0.328,0.188 0.015,0.438c-0.469,0.391 -0.875,1.126 -0.703,1.298c0.203,0.203 1.235,-0.438 1.376,-0.86c0.094,-0.313 0.109,-0.313 0.328,0.094c0.25,0.5 0.328,0.516 0.625,0.14c0.188,-0.234 0.204,-0.203 0.11,0.297c-0.078,0.501 0.25,1.548 0.485,1.548c0.031,0 0.187,-0.219 0.312,-0.484c0.172,-0.329 0.235,-0.688 0.172,-1.126c-0.078,-0.563 -0.062,-0.61 0.094,-0.313c0.235,0.469 0.375,0.454 0.641,-0.062c0.219,-0.407 0.235,-0.407 0.328,-0.094c0.141,0.438 1.173,1.063 1.392,0.844c0.187,-0.188 -0.219,-0.875 -0.719,-1.282l-0.313,-0.266l0.328,-0.172c0.438,-0.234 0.438,-0.453 0,-0.656c-0.297,-0.11 -0.25,-0.125 0.235,-0.063c0.641,0.11 1.673,-0.187 1.673,-0.469c0,-0.281 -1.032,-0.578 -1.673,-0.469c-0.501,0.063 -0.532,0.063 -0.235,-0.078c0.438,-0.188 0.391,-0.469 -0.109,-0.719c-0.36,-0.188 -0.36,-0.188 -0.047,-0.282c0.422,-0.14 1.063,-1.157 0.86,-1.36c-0.219,-0.219 -1.251,0.422 -1.392,0.844c-0.093,0.313 -0.109,0.313 -0.328,-0.093c-0.266,-0.516 -0.485,-0.532 -0.672,-0.079c-0.125,0.282 -0.141,0.204 -0.063,-0.297c0.094,-0.703 -0.187,-1.61 -0.484,-1.61c-0.094,0 -0.266,0.25 -0.376,0.547Zm-0.015,2.111c0,0.203 -0.11,0.313 -0.282,0.313c-0.469,0 -0.531,-0.204 -0.156,-0.423c0.469,-0.25 0.438,-0.25 0.438,0.11Zm1.469,0.172c-0.172,0.281 -0.688,0.141 -0.688,-0.172c0,-0.266 0.047,-0.282 0.391,-0.125c0.203,0.094 0.344,0.234 0.297,0.297Zm-2.251,0.625c0,0.203 -0.109,0.297 -0.328,0.297c-0.172,0 -0.282,-0.047 -0.251,-0.125c0.032,-0.062 0.11,-0.234 0.157,-0.391c0.125,-0.344 0.422,-0.203 0.422,0.219Zm2.861,-0.015c0.063,0.234 0,0.312 -0.219,0.312c-0.187,0 -0.297,-0.109 -0.297,-0.281c0,-0.579 0.36,-0.594 0.516,-0.031Zm-2.892,1.438c-0.063,0.438 -0.297,0.422 -0.469,-0.016c-0.094,-0.266 -0.047,-0.328 0.203,-0.328c0.234,0 0.313,0.078 0.266,0.344Zm2.876,-0.016c-0.172,0.438 -0.406,0.454 -0.469,0.016c-0.047,-0.266 0.032,-0.344 0.266,-0.344c0.25,0 0.297,0.062 0.203,0.328Zm-2.063,0.782c0,0.172 -0.047,0.281 -0.11,0.25c-0.078,-0.031 -0.25,-0.109 -0.406,-0.156c-0.344,-0.125 -0.204,-0.422 0.219,-0.422c0.203,0 0.297,0.109 0.297,0.328Zm1.454,-0.094c-0.016,0.078 -0.172,0.188 -0.344,0.266c-0.266,0.094 -0.329,0.047 -0.329,-0.203c0,-0.235 0.079,-0.313 0.36,-0.266c0.188,0.031 0.328,0.109 0.313,0.203Z" style="fill:#49b0c2;fill-opacity:0.670588;fill-rule:nonzero;"/><path d="M87.191,4.164c-0.12,0.358 -0.171,0.835 -0.102,1.159c0.119,0.529 0.102,0.529 -0.154,0.205c-0.273,-0.341 -0.273,-0.341 -0.613,0.068c-0.29,0.324 -0.358,0.341 -0.444,0.119c-0.136,-0.375 -1.278,-1.005 -1.465,-0.818c-0.222,0.222 0.494,1.364 0.937,1.5c0.341,0.102 0.341,0.119 -0.102,0.358c-0.545,0.272 -0.563,0.358 -0.154,0.682c0.256,0.204 0.239,0.221 -0.272,0.136c-0.494,-0.102 -1.739,0.273 -1.739,0.511c0,0.051 0.239,0.205 0.529,0.341c0.358,0.187 0.75,0.256 1.227,0.187c0.613,-0.085 0.665,-0.068 0.341,0.103c-0.495,0.238 -0.495,0.409 -0.017,0.664c0.358,0.188 0.358,0.205 0.017,0.478c-0.512,0.426 -0.955,1.227 -0.767,1.414c0.221,0.222 1.346,-0.477 1.5,-0.937c0.102,-0.341 0.119,-0.341 0.357,0.102c0.273,0.545 0.358,0.563 0.682,0.153c0.205,-0.255 0.222,-0.221 0.119,0.324c-0.085,0.546 0.273,1.688 0.529,1.688c0.034,0 0.204,-0.239 0.341,-0.529c0.187,-0.358 0.255,-0.75 0.187,-1.227c-0.085,-0.613 -0.068,-0.665 0.102,-0.341c0.256,0.512 0.409,0.495 0.699,-0.068c0.239,-0.443 0.256,-0.443 0.358,-0.102c0.153,0.477 1.278,1.159 1.517,0.92c0.204,-0.204 -0.239,-0.954 -0.784,-1.397l-0.341,-0.29l0.358,-0.188c0.477,-0.255 0.477,-0.494 0,-0.715c-0.324,-0.12 -0.273,-0.137 0.256,-0.069c0.698,0.12 1.823,-0.204 1.823,-0.511c0,-0.307 -1.125,-0.63 -1.823,-0.511c-0.546,0.068 -0.58,0.068 -0.256,-0.085c0.477,-0.205 0.426,-0.512 -0.119,-0.784c-0.392,-0.205 -0.392,-0.205 -0.051,-0.307c0.46,-0.153 1.158,-1.261 0.937,-1.483c-0.239,-0.238 -1.364,0.46 -1.517,0.92c-0.102,0.341 -0.119,0.341 -0.358,-0.102c-0.29,-0.562 -0.528,-0.579 -0.733,-0.085c-0.136,0.307 -0.153,0.222 -0.068,-0.324c0.102,-0.767 -0.204,-1.755 -0.528,-1.755c-0.102,0 -0.29,0.272 -0.409,0.596Zm-0.017,2.301c0,0.222 -0.12,0.341 -0.307,0.341c-0.511,0 -0.579,-0.222 -0.17,-0.46c0.511,-0.273 0.477,-0.273 0.477,0.119Zm1.602,0.188c-0.188,0.306 -0.75,0.153 -0.75,-0.188c0,-0.29 0.051,-0.307 0.426,-0.136c0.222,0.102 0.375,0.255 0.324,0.324Zm-2.454,0.681c0,0.222 -0.12,0.324 -0.358,0.324c-0.188,0 -0.307,-0.051 -0.273,-0.136c0.034,-0.068 0.119,-0.256 0.17,-0.426c0.137,-0.375 0.461,-0.222 0.461,0.238Zm3.118,-0.017c0.069,0.256 0,0.341 -0.238,0.341c-0.205,0 -0.324,-0.119 -0.324,-0.307c0,-0.63 0.392,-0.647 0.562,-0.034Zm-3.152,1.568c-0.069,0.477 -0.324,0.46 -0.512,-0.017c-0.102,-0.29 -0.051,-0.358 0.222,-0.358c0.255,0 0.341,0.085 0.29,0.375Zm3.135,-0.017c-0.187,0.477 -0.443,0.494 -0.511,0.017c-0.051,-0.29 0.034,-0.375 0.29,-0.375c0.273,0 0.324,0.068 0.221,0.358Zm-2.249,0.852c0,0.188 -0.051,0.307 -0.12,0.273c-0.085,-0.034 -0.272,-0.119 -0.443,-0.17c-0.375,-0.137 -0.221,-0.461 0.239,-0.461c0.221,0 0.324,0.12 0.324,0.358Zm1.585,-0.102c-0.017,0.085 -0.188,0.205 -0.375,0.29c-0.29,0.102 -0.358,0.051 -0.358,-0.222c0,-0.255 0.085,-0.341 0.392,-0.29c0.204,0.035 0.358,0.12 0.341,0.222Z" style="fill:#49b0c2;fill-opacity:0.670588;fill-rule:nonzero;"/><path d="M150.374,23.906c-0.152,0.457 -0.217,1.066 -0.13,1.479c0.152,0.674 0.13,0.674 -0.196,0.261c-0.348,-0.435 -0.348,-0.435 -0.782,0.086c-0.37,0.414 -0.457,0.435 -0.566,0.153c-0.174,-0.479 -1.63,-1.283 -1.869,-1.044c-0.283,0.283 0.63,1.739 1.195,1.913c0.435,0.131 0.435,0.152 -0.13,0.457c-0.696,0.348 -0.717,0.456 -0.196,0.869c0.326,0.261 0.305,0.283 -0.347,0.174c-0.631,-0.13 -2.218,0.348 -2.218,0.652c0,0.066 0.305,0.261 0.674,0.435c0.457,0.239 0.957,0.326 1.565,0.239c0.783,-0.108 0.848,-0.087 0.435,0.131c-0.63,0.304 -0.63,0.521 -0.022,0.847c0.457,0.24 0.457,0.261 0.022,0.609c-0.652,0.544 -1.217,1.565 -0.978,1.804c0.282,0.283 1.717,-0.608 1.913,-1.195c0.13,-0.435 0.152,-0.435 0.456,0.13c0.348,0.696 0.457,0.718 0.87,0.196c0.261,-0.326 0.283,-0.283 0.152,0.413c-0.109,0.696 0.348,2.152 0.674,2.152c0.043,0 0.261,-0.304 0.435,-0.674c0.239,-0.456 0.326,-0.956 0.239,-1.565c-0.109,-0.783 -0.087,-0.848 0.13,-0.435c0.326,0.652 0.522,0.631 0.892,-0.087c0.304,-0.565 0.326,-0.565 0.456,-0.13c0.196,0.609 1.631,1.478 1.935,1.174c0.261,-0.261 -0.304,-1.218 -1,-1.783l-0.435,-0.369l0.457,-0.24c0.608,-0.326 0.608,-0.63 0,-0.913c-0.413,-0.152 -0.348,-0.173 0.326,-0.086c0.891,0.152 2.326,-0.261 2.326,-0.653c0,-0.391 -1.435,-0.804 -2.326,-0.652c-0.696,0.087 -0.739,0.087 -0.326,-0.109c0.608,-0.26 0.543,-0.652 -0.153,-0.999c-0.5,-0.261 -0.5,-0.261 -0.065,-0.392c0.587,-0.195 1.478,-1.608 1.196,-1.891c-0.304,-0.304 -1.739,0.587 -1.935,1.174c-0.13,0.435 -0.152,0.435 -0.456,-0.131c-0.37,-0.717 -0.674,-0.739 -0.935,-0.108c-0.174,0.391 -0.196,0.282 -0.087,-0.413c0.13,-0.979 -0.261,-2.239 -0.674,-2.239c-0.13,0 -0.37,0.347 -0.522,0.76Zm-0.021,2.935c0,0.283 -0.153,0.435 -0.392,0.435c-0.652,0 -0.739,-0.283 -0.217,-0.587c0.652,-0.348 0.609,-0.348 0.609,0.152Zm2.043,0.239c-0.239,0.392 -0.957,0.196 -0.957,-0.239c0,-0.369 0.066,-0.391 0.544,-0.174c0.283,0.131 0.478,0.326 0.413,0.413Zm-3.13,0.87c0,0.282 -0.153,0.413 -0.457,0.413c-0.239,0 -0.391,-0.065 -0.348,-0.174c0.044,-0.087 0.152,-0.326 0.218,-0.543c0.174,-0.479 0.587,-0.283 0.587,0.304Zm3.978,-0.022c0.087,0.326 0,0.435 -0.305,0.435c-0.26,0 -0.413,-0.152 -0.413,-0.391c0,-0.805 0.5,-0.826 0.718,-0.044Zm-4.022,2c-0.087,0.609 -0.413,0.587 -0.652,-0.022c-0.131,-0.369 -0.065,-0.456 0.283,-0.456c0.326,0 0.434,0.109 0.369,0.478Zm4,-0.022c-0.239,0.609 -0.565,0.631 -0.652,0.022c-0.065,-0.369 0.043,-0.478 0.369,-0.478c0.348,0 0.413,0.087 0.283,0.456Zm-2.869,1.087c0,0.239 -0.066,0.392 -0.153,0.348c-0.108,-0.043 -0.347,-0.152 -0.565,-0.217c-0.478,-0.174 -0.282,-0.587 0.304,-0.587c0.283,0 0.414,0.152 0.414,0.456Zm2.021,-0.13c-0.022,0.109 -0.239,0.261 -0.478,0.369c-0.37,0.131 -0.457,0.066 -0.457,-0.282c0,-0.326 0.109,-0.435 0.5,-0.37c0.261,0.044 0.457,0.152 0.435,0.283Z" style="fill:#49b0c2;fill-opacity:0.670588;fill-rule:nonzero;"/><path d="M15.651,53.243c-0.08,0.24 -0.114,0.559 -0.068,0.776c0.08,0.354 0.068,0.354 -0.103,0.137c-0.182,-0.228 -0.182,-0.228 -0.411,0.046c-0.194,0.217 -0.239,0.228 -0.296,0.08c-0.091,-0.251 -0.856,-0.673 -0.981,-0.548c-0.149,0.148 0.331,0.913 0.627,1.004c0.228,0.068 0.228,0.08 -0.068,0.24c-0.365,0.182 -0.377,0.239 -0.103,0.456c0.171,0.137 0.16,0.148 -0.183,0.091c-0.33,-0.068 -1.163,0.183 -1.163,0.342c0,0.035 0.16,0.137 0.353,0.229c0.24,0.125 0.502,0.171 0.822,0.125c0.411,-0.057 0.445,-0.046 0.228,0.068c-0.331,0.16 -0.331,0.274 -0.011,0.445c0.239,0.126 0.239,0.137 0.011,0.32c-0.342,0.285 -0.639,0.821 -0.513,0.947c0.148,0.148 0.901,-0.32 1.004,-0.628c0.068,-0.228 0.079,-0.228 0.239,0.069c0.183,0.365 0.24,0.376 0.457,0.102c0.136,-0.171 0.148,-0.148 0.079,0.217c-0.057,0.365 0.183,1.13 0.354,1.13c0.023,0 0.137,-0.16 0.228,-0.354c0.126,-0.24 0.171,-0.502 0.126,-0.822c-0.057,-0.41 -0.046,-0.444 0.068,-0.228c0.171,0.343 0.274,0.331 0.468,-0.045c0.16,-0.297 0.171,-0.297 0.239,-0.069c0.103,0.32 0.856,0.776 1.016,0.616c0.137,-0.137 -0.16,-0.639 -0.525,-0.935l-0.228,-0.194l0.239,-0.126c0.32,-0.171 0.32,-0.33 0,-0.479c-0.216,-0.08 -0.182,-0.091 0.172,-0.045c0.467,0.079 1.22,-0.137 1.22,-0.343c0,-0.205 -0.753,-0.422 -1.22,-0.342c-0.366,0.046 -0.388,0.046 -0.172,-0.057c0.32,-0.137 0.286,-0.342 -0.079,-0.525c-0.263,-0.137 -0.263,-0.137 -0.035,-0.205c0.308,-0.103 0.776,-0.844 0.628,-0.993c-0.16,-0.159 -0.913,0.308 -1.016,0.616c-0.068,0.229 -0.079,0.229 -0.239,-0.068c-0.194,-0.376 -0.354,-0.388 -0.491,-0.057c-0.091,0.205 -0.102,0.148 -0.045,-0.217c0.068,-0.513 -0.137,-1.175 -0.354,-1.175c-0.068,0 -0.194,0.183 -0.274,0.399Zm-0.011,1.541c0,0.148 -0.08,0.228 -0.206,0.228c-0.342,0 -0.387,-0.149 -0.114,-0.308c0.343,-0.183 0.32,-0.183 0.32,0.08Zm1.072,0.125c-0.125,0.205 -0.502,0.103 -0.502,-0.125c0,-0.194 0.034,-0.206 0.285,-0.092c0.149,0.069 0.251,0.171 0.217,0.217Zm-1.643,0.456c0,0.149 -0.079,0.217 -0.239,0.217c-0.126,0 -0.206,-0.034 -0.183,-0.091c0.023,-0.046 0.08,-0.171 0.114,-0.285c0.092,-0.251 0.308,-0.149 0.308,0.159Zm2.088,-0.011c0.046,0.171 0,0.228 -0.16,0.228c-0.137,0 -0.216,-0.08 -0.216,-0.205c0,-0.422 0.262,-0.434 0.376,-0.023Zm-2.11,1.05c-0.046,0.319 -0.217,0.308 -0.343,-0.012c-0.068,-0.194 -0.034,-0.239 0.149,-0.239c0.171,0 0.228,0.057 0.194,0.251Zm2.099,-0.012c-0.126,0.32 -0.297,0.331 -0.343,0.012c-0.034,-0.194 0.023,-0.251 0.194,-0.251c0.183,0 0.217,0.045 0.149,0.239Zm-1.506,0.571c0,0.125 -0.034,0.205 -0.08,0.182c-0.057,-0.023 -0.183,-0.08 -0.297,-0.114c-0.251,-0.091 -0.148,-0.308 0.16,-0.308c0.148,0 0.217,0.08 0.217,0.24Zm1.061,-0.069c-0.012,0.057 -0.126,0.137 -0.251,0.194c-0.194,0.068 -0.24,0.034 -0.24,-0.148c0,-0.171 0.057,-0.228 0.263,-0.194c0.137,0.023 0.239,0.08 0.228,0.148Z" style="fill:#49b0c2;fill-opacity:0.670588;fill-rule:nonzero;"/><path d="M143.843,43.708c-0.098,0.292 -0.14,0.682 -0.084,0.946c0.097,0.431 0.084,0.431 -0.125,0.167c-0.223,-0.278 -0.223,-0.278 -0.501,0.056c-0.237,0.264 -0.292,0.278 -0.362,0.097c-0.111,-0.306 -1.043,-0.821 -1.196,-0.668c-0.181,0.181 0.403,1.113 0.765,1.225c0.278,0.083 0.278,0.097 -0.083,0.292c-0.446,0.222 -0.46,0.292 -0.126,0.556c0.209,0.167 0.195,0.181 -0.222,0.112c-0.404,-0.084 -1.419,0.222 -1.419,0.417c0,0.042 0.194,0.167 0.431,0.278c0.292,0.153 0.612,0.209 1.002,0.153c0.5,-0.069 0.542,-0.055 0.278,0.084c-0.404,0.195 -0.404,0.334 -0.014,0.542c0.292,0.153 0.292,0.167 0.014,0.39c-0.418,0.348 -0.779,1.002 -0.626,1.155c0.181,0.181 1.099,-0.39 1.224,-0.766c0.084,-0.278 0.097,-0.278 0.292,0.084c0.223,0.445 0.292,0.459 0.557,0.125c0.167,-0.209 0.181,-0.181 0.097,0.265c-0.069,0.445 0.223,1.377 0.431,1.377c0.028,0 0.167,-0.195 0.279,-0.431c0.153,-0.293 0.208,-0.613 0.153,-1.002c-0.07,-0.501 -0.056,-0.543 0.083,-0.278c0.209,0.417 0.334,0.403 0.571,-0.056c0.194,-0.362 0.208,-0.362 0.292,-0.084c0.125,0.39 1.043,0.947 1.238,0.752c0.167,-0.167 -0.195,-0.779 -0.64,-1.141l-0.278,-0.237l0.292,-0.153c0.39,-0.208 0.39,-0.403 0,-0.584c-0.264,-0.097 -0.223,-0.111 0.209,-0.056c0.57,0.098 1.488,-0.167 1.488,-0.417c0,-0.25 -0.918,-0.515 -1.488,-0.417c-0.446,0.055 -0.473,0.055 -0.209,-0.07c0.39,-0.167 0.348,-0.417 -0.097,-0.64c-0.32,-0.167 -0.32,-0.167 -0.042,-0.25c0.375,-0.126 0.946,-1.03 0.765,-1.211c-0.195,-0.195 -1.113,0.376 -1.238,0.752c-0.084,0.278 -0.098,0.278 -0.292,-0.084c-0.237,-0.459 -0.432,-0.473 -0.599,-0.069c-0.111,0.25 -0.125,0.18 -0.055,-0.265c0.083,-0.626 -0.167,-1.433 -0.432,-1.433c-0.083,0 -0.236,0.223 -0.333,0.487Zm-0.014,1.878c0,0.181 -0.098,0.279 -0.251,0.279c-0.417,0 -0.473,-0.181 -0.139,-0.376c0.417,-0.223 0.39,-0.223 0.39,0.097Zm1.307,0.153c-0.153,0.251 -0.612,0.126 -0.612,-0.153c0,-0.236 0.042,-0.25 0.348,-0.111c0.181,0.083 0.306,0.209 0.264,0.264Zm-2.003,0.557c0,0.181 -0.097,0.264 -0.292,0.264c-0.153,0 -0.251,-0.042 -0.223,-0.111c0.028,-0.056 0.098,-0.209 0.139,-0.348c0.112,-0.306 0.376,-0.181 0.376,0.195Zm2.546,-0.014c0.056,0.209 0,0.278 -0.195,0.278c-0.167,0 -0.264,-0.097 -0.264,-0.25c0,-0.515 0.32,-0.529 0.459,-0.028Zm-2.574,1.28c-0.055,0.389 -0.264,0.376 -0.417,-0.014c-0.084,-0.237 -0.042,-0.292 0.181,-0.292c0.208,0 0.278,0.069 0.236,0.306Zm2.56,-0.014c-0.153,0.39 -0.362,0.403 -0.417,0.014c-0.042,-0.237 0.028,-0.306 0.236,-0.306c0.223,0 0.265,0.055 0.181,0.292Zm-1.836,0.696c0,0.153 -0.042,0.25 -0.098,0.222c-0.069,-0.028 -0.222,-0.097 -0.361,-0.139c-0.307,-0.111 -0.181,-0.376 0.194,-0.376c0.181,0 0.265,0.098 0.265,0.293Zm1.294,-0.084c-0.014,0.07 -0.154,0.167 -0.307,0.237c-0.236,0.083 -0.292,0.041 -0.292,-0.181c0,-0.209 0.07,-0.278 0.32,-0.237c0.167,0.028 0.292,0.098 0.279,0.181Z" style="fill:#49b0c2;fill-opacity:0.670588;fill-rule:nonzero;"/><path d="M128.836,5.874c-0.121,0.24 -0.181,0.621 -0.121,0.862c0.06,0.22 -0.06,0.681 -0.24,0.982c-0.321,0.561 -0.321,0.601 0.02,0.782c0.561,0.32 0.421,0.821 -0.201,0.741c-0.38,-0.04 -0.581,-0.2 -0.661,-0.561c-0.06,-0.281 -0.281,-0.541 -0.501,-0.581c-0.201,-0.04 -0.642,-0.341 -0.942,-0.682c-0.401,-0.421 -0.642,-0.541 -0.782,-0.401c-0.301,0.301 -0.04,1.023 0.421,1.163c0.2,0.06 0.481,0.421 0.601,0.802c0.181,0.541 0.321,0.681 0.662,0.641c0.32,-0.02 0.461,0.08 0.501,0.401c0.06,0.361 -0.02,0.461 -0.401,0.461c-0.261,0 -0.581,-0.1 -0.722,-0.241c-0.18,-0.18 -0.3,-0.18 -0.481,0c-0.14,0.141 -0.661,0.241 -1.162,0.241c-0.521,0 -1.002,0.06 -1.063,0.14c-0.28,0.261 0.321,0.662 0.983,0.662c0.38,0 0.862,0.1 1.082,0.24c0.301,0.201 0.461,0.181 0.802,-0.14c0.381,-0.341 0.441,-0.341 0.741,-0.06c0.421,0.441 0.201,0.962 -0.4,0.962c-0.381,0 -0.522,0.14 -0.602,0.601c-0.08,0.361 -0.26,0.602 -0.441,0.602c-0.32,0 -0.862,0.922 -0.641,1.122c0.24,0.241 1.122,-0.12 1.243,-0.501c0.06,-0.22 0.38,-0.481 0.701,-0.601c0.401,-0.121 0.601,-0.341 0.601,-0.582c0,-0.481 0.602,-0.761 0.842,-0.4c0.241,0.4 0.201,0.721 -0.16,0.922c-0.301,0.16 -0.301,0.22 0.02,0.701c0.22,0.341 0.301,0.722 0.22,1.042c-0.14,0.562 0.201,1.383 0.502,1.203c0.1,-0.08 0.18,-0.561 0.18,-1.082c0,-0.522 0.12,-1.063 0.24,-1.183c0.201,-0.2 0.201,-0.341 0,-0.641c-0.461,-0.742 -0.22,-1.343 0.441,-1.083c0.181,0.06 0.321,0.301 0.321,0.501c0,0.201 0.261,0.501 0.601,0.682c0.321,0.16 0.682,0.481 0.802,0.701c0.241,0.461 1.203,0.562 1.203,0.121c0,-0.161 -0.241,-0.481 -0.541,-0.722c-0.321,-0.24 -0.602,-0.621 -0.662,-0.862c-0.08,-0.3 -0.3,-0.461 -0.661,-0.501c-0.421,-0.06 -0.541,-0.18 -0.541,-0.541c0,-0.662 0.32,-0.802 0.942,-0.401c0.36,0.241 0.561,0.281 0.721,0.12c0.12,-0.12 0.541,-0.22 0.922,-0.22c0.401,0 0.862,-0.1 1.022,-0.201c0.582,-0.36 -0.14,-0.621 -1.884,-0.661c-1.623,-0.04 -1.743,-0.06 -1.683,-0.441c0.04,-0.281 0.2,-0.381 0.521,-0.361c0.361,0.04 0.481,-0.06 0.581,-0.541c0.06,-0.341 0.281,-0.702 0.481,-0.822c0.561,-0.28 0.882,-0.962 0.581,-1.263c-0.16,-0.16 -0.36,-0.06 -0.781,0.401c-0.321,0.341 -0.802,0.682 -1.103,0.762c-0.381,0.1 -0.521,0.26 -0.521,0.621c0,0.401 -0.1,0.501 -0.501,0.501c-0.561,0 -0.621,-0.22 -0.261,-0.801c0.181,-0.281 0.181,-0.501 0.021,-0.842c-0.121,-0.261 -0.221,-0.762 -0.221,-1.123c0.04,-0.882 -0.321,-1.222 -0.641,-0.641Z" style="fill:#49b0c2;fill-opacity:0.670588;fill-rule:nonzero;"/><path d="M15.923,64.927c-0.166,0.111 -0.203,0.35 -0.129,0.83c0.129,0.627 -0.092,0.922 -0.369,0.48c-0.203,-0.314 -0.645,-0.203 -0.811,0.221c-0.093,0.258 -0.185,0.314 -0.277,0.185c-0.258,-0.425 -0.664,-0.24 -0.664,0.313c0,0.83 -0.277,0.83 -0.812,0.019c-0.258,-0.406 -0.609,-0.738 -0.756,-0.738c-0.148,0 -0.332,0 -0.388,0c-0.074,0 -0.147,0.295 -0.166,0.645c-0.037,0.535 0.037,0.646 0.314,0.646c0.498,0 1.107,0.351 0.978,0.572c-0.074,0.092 -0.277,0.166 -0.48,0.166c-0.258,0 -0.351,0.092 -0.314,0.314c0.074,0.35 0.277,0.369 1.107,0.147c0.369,-0.092 0.572,-0.037 0.83,0.258c0.314,0.388 0.978,0.535 0.978,0.222c0,-0.074 -0.166,-0.369 -0.387,-0.646c-0.443,-0.553 -0.406,-1.365 0.055,-1.66c0.443,-0.277 1.273,0.498 0.922,0.848c-0.129,0.13 -0.221,0.499 -0.221,0.831c0,0.719 -0.48,1.346 -1.015,1.346c-0.221,0 -0.479,0.092 -0.59,0.203c-0.258,0.258 -0.922,-0.129 -1.051,-0.627c-0.056,-0.221 -0.203,-0.314 -0.425,-0.277c-0.479,0.092 -0.516,0.646 -0.074,0.793c0.48,0.148 0.499,0.388 0.019,0.646c-0.258,0.148 -0.461,0.129 -0.738,-0.037c-0.314,-0.203 -0.406,-0.184 -0.553,0.037c-0.314,0.498 -0.203,0.923 0.313,1.125c0.406,0.148 0.554,0.13 0.738,-0.129c0.129,-0.184 0.24,-0.406 0.24,-0.498c0,-0.092 0.111,-0.129 0.24,-0.074c0.129,0.037 0.203,0.277 0.166,0.554c-0.037,0.332 0.037,0.535 0.221,0.609c0.166,0.055 0.295,0.313 0.295,0.553c0,0.535 0.461,0.59 0.978,0.129c0.332,-0.313 0.369,-0.313 0.719,0.129l0.369,0.461l-0.424,0.056c-0.24,0.037 -0.535,0.147 -0.646,0.24c-0.258,0.221 -0.129,0.811 0.24,1.125c0.24,0.184 0.351,0.148 0.627,-0.203c0.203,-0.24 0.351,-0.59 0.351,-0.775c0,-0.221 0.129,-0.35 0.369,-0.35c0.221,0 0.369,-0.129 0.369,-0.332c0,-0.185 -0.166,-0.462 -0.369,-0.646c-0.406,-0.35 -0.48,-0.867 -0.166,-1.181c0.147,-0.147 0.092,-0.258 -0.185,-0.424c-0.424,-0.221 -0.479,-0.148 -0.608,0.646c-0.037,0.276 -0.222,0.387 -0.72,0.424c-0.553,0.055 -0.682,-0.018 -0.775,-0.35c-0.147,-0.535 0.48,-1.034 1.513,-1.181c0.664,-0.092 0.849,-0.055 1.144,0.258c0.203,0.222 0.479,0.388 0.609,0.388c0.147,0 0.313,0.129 0.369,0.295c0.184,0.498 0.129,0.996 -0.148,0.996c-0.332,0 -0.553,0.553 -0.314,0.793c0.277,0.277 1.163,-0.166 1.089,-0.535c-0.111,-0.572 0.406,-0.479 0.609,0.111c0.166,0.479 0.295,0.572 0.701,0.516c0.405,-0.037 0.479,-0.147 0.479,-0.608c0,-0.498 -0.074,-0.554 -0.59,-0.609c-0.683,-0.074 -0.812,-0.388 -0.24,-0.535c0.24,-0.055 0.369,-0.222 0.332,-0.406c-0.055,-0.24 -0.258,-0.277 -0.941,-0.24c-0.553,0.037 -0.867,0 -0.867,-0.129c0,-0.129 -0.221,-0.295 -0.479,-0.387c-0.517,-0.203 -0.443,-0.554 0.11,-0.554c0.185,0 0.425,-0.129 0.517,-0.295c0.129,-0.24 0.24,-0.258 0.553,-0.092c0.203,0.111 0.425,0.369 0.498,0.553c0.148,0.48 0.646,0.646 0.978,0.332c0.221,-0.24 0.203,-0.313 -0.111,-0.608c-0.572,-0.572 -0.996,-1.329 -0.793,-1.439c0.092,-0.074 0.24,0 0.332,0.147c0.074,0.129 0.461,0.351 0.849,0.443c0.811,0.221 1.051,-0.037 0.719,-0.812c-0.258,-0.516 -0.516,-0.553 -1.014,-0.129c-0.332,0.314 -0.351,0.314 -0.517,0c-0.111,-0.166 -0.387,-0.313 -0.627,-0.313c-0.351,0 -0.443,0.11 -0.498,0.59c-0.037,0.443 -0.166,0.627 -0.425,0.664c-0.202,0.037 -0.498,0.184 -0.664,0.332c-0.258,0.221 -0.332,0.221 -0.516,0.018c-0.166,-0.202 -0.148,-0.313 0.074,-0.498c0.203,-0.166 0.221,-0.295 0.073,-0.479c-0.295,-0.351 -0.055,-0.591 0.72,-0.738c0.775,-0.129 1.144,-0.369 1.144,-0.72c0,-0.405 -0.72,-0.461 -0.978,-0.073c-0.148,0.184 -0.314,0.295 -0.369,0.221c-0.221,-0.203 -0.129,-0.738 0.148,-0.978c0.147,-0.129 0.276,-0.461 0.276,-0.756c0,-0.424 -0.074,-0.535 -0.406,-0.535c-0.239,0 -0.535,0.074 -0.664,0.166Z" style="fill:#49b0c2;fill-opacity:0.670588;fill-rule:nonzero;"/><path d="M42.138,4.451c-0.166,0.111 -0.203,0.351 -0.129,0.83c0.129,0.628 -0.093,0.923 -0.369,0.48c-0.203,-0.313 -0.646,-0.203 -0.812,0.221c-0.092,0.259 -0.185,0.314 -0.277,0.185c-0.258,-0.424 -0.664,-0.24 -0.664,0.314c0,0.83 -0.277,0.83 -0.812,0.018c-0.258,-0.406 -0.608,-0.738 -0.756,-0.738c-0.148,0 -0.332,0 -0.387,0c-0.074,0 -0.148,0.295 -0.166,0.646c-0.037,0.535 0.037,0.645 0.313,0.645c0.498,0 1.107,0.351 0.978,0.572c-0.074,0.093 -0.277,0.166 -0.48,0.166c-0.258,0 -0.35,0.093 -0.313,0.314c0.074,0.35 0.276,0.369 1.107,0.148c0.369,-0.093 0.571,-0.037 0.83,0.258c0.313,0.387 0.977,0.535 0.977,0.221c0,-0.074 -0.166,-0.369 -0.387,-0.645c-0.443,-0.554 -0.406,-1.366 0.055,-1.661c0.443,-0.276 1.273,0.498 0.923,0.849c-0.129,0.129 -0.222,0.498 -0.222,0.83c0,0.719 -0.479,1.347 -1.014,1.347c-0.222,0 -0.48,0.092 -0.591,0.203c-0.258,0.258 -0.922,-0.13 -1.051,-0.628c-0.055,-0.221 -0.203,-0.313 -0.424,-0.276c-0.48,0.092 -0.517,0.645 -0.074,0.793c0.479,0.147 0.498,0.387 0.018,0.646c-0.258,0.147 -0.461,0.129 -0.738,-0.037c-0.313,-0.203 -0.405,-0.185 -0.553,0.037c-0.314,0.498 -0.203,0.922 0.314,1.125c0.405,0.147 0.553,0.129 0.737,-0.129c0.13,-0.185 0.24,-0.406 0.24,-0.498c0,-0.093 0.111,-0.13 0.24,-0.074c0.129,0.037 0.203,0.277 0.166,0.553c-0.037,0.332 0.037,0.535 0.222,0.609c0.166,0.055 0.295,0.314 0.295,0.553c0,0.535 0.461,0.591 0.977,0.13c0.332,-0.314 0.369,-0.314 0.72,0.129l0.369,0.461l-0.425,0.055c-0.239,0.037 -0.534,0.148 -0.645,0.24c-0.258,0.221 -0.129,0.812 0.24,1.125c0.239,0.185 0.35,0.148 0.627,-0.203c0.203,-0.239 0.35,-0.59 0.35,-0.774c0,-0.222 0.13,-0.351 0.369,-0.351c0.222,0 0.369,-0.129 0.369,-0.332c0,-0.184 -0.166,-0.461 -0.369,-0.646c-0.406,-0.35 -0.479,-0.867 -0.166,-1.18c0.148,-0.148 0.093,-0.259 -0.184,-0.425c-0.424,-0.221 -0.48,-0.147 -0.609,0.646c-0.037,0.277 -0.221,0.388 -0.719,0.424c-0.554,0.056 -0.683,-0.018 -0.775,-0.35c-0.148,-0.535 0.479,-1.033 1.512,-1.181c0.665,-0.092 0.849,-0.055 1.144,0.259c0.203,0.221 0.48,0.387 0.609,0.387c0.148,0 0.314,0.129 0.369,0.295c0.184,0.498 0.129,0.996 -0.148,0.996c-0.332,0 -0.553,0.554 -0.313,0.794c0.276,0.276 1.162,-0.167 1.088,-0.535c-0.111,-0.572 0.406,-0.48 0.609,0.11c0.166,0.48 0.295,0.572 0.701,0.517c0.406,-0.037 0.48,-0.148 0.48,-0.609c0,-0.498 -0.074,-0.553 -0.591,-0.609c-0.682,-0.074 -0.811,-0.387 -0.24,-0.535c0.24,-0.055 0.369,-0.221 0.332,-0.406c-0.055,-0.239 -0.258,-0.276 -0.94,-0.239c-0.554,0.036 -0.867,0 -0.867,-0.13c0,-0.129 -0.222,-0.295 -0.48,-0.387c-0.517,-0.203 -0.443,-0.553 0.111,-0.553c0.184,0 0.424,-0.13 0.516,-0.296c0.129,-0.239 0.24,-0.258 0.554,-0.092c0.203,0.111 0.424,0.369 0.498,0.554c0.147,0.479 0.645,0.645 0.977,0.332c0.222,-0.24 0.203,-0.314 -0.11,-0.609c-0.572,-0.572 -0.996,-1.328 -0.793,-1.439c0.092,-0.074 0.239,0 0.332,0.148c0.073,0.129 0.461,0.35 0.848,0.442c0.812,0.222 1.052,-0.037 0.72,-0.811c-0.259,-0.517 -0.517,-0.554 -1.015,-0.129c-0.332,0.313 -0.351,0.313 -0.517,0c-0.11,-0.167 -0.387,-0.314 -0.627,-0.314c-0.35,0 -0.442,0.111 -0.498,0.59c-0.037,0.443 -0.166,0.627 -0.424,0.664c-0.203,0.037 -0.498,0.185 -0.664,0.332c-0.258,0.222 -0.332,0.222 -0.517,0.019c-0.166,-0.203 -0.147,-0.314 0.074,-0.498c0.203,-0.166 0.221,-0.295 0.074,-0.48c-0.295,-0.35 -0.056,-0.59 0.719,-0.738c0.775,-0.129 1.144,-0.369 1.144,-0.719c0,-0.406 -0.719,-0.461 -0.978,-0.074c-0.147,0.184 -0.313,0.295 -0.369,0.221c-0.221,-0.203 -0.129,-0.738 0.148,-0.977c0.148,-0.129 0.277,-0.462 0.277,-0.757c0,-0.424 -0.074,-0.535 -0.406,-0.535c-0.24,0 -0.535,0.074 -0.664,0.166Z" style="fill:#49b0c2;fill-opacity:0.670588;fill-rule:nonzero;"/><path d="M146.387,11.477c-0.115,0.077 -0.14,0.243 -0.089,0.574c0.089,0.434 -0.064,0.638 -0.255,0.332c-0.14,-0.217 -0.446,-0.14 -0.561,0.153c-0.064,0.178 -0.128,0.217 -0.191,0.127c-0.179,-0.293 -0.459,-0.165 -0.459,0.217c0,0.574 -0.192,0.574 -0.561,0.013c-0.179,-0.281 -0.421,-0.51 -0.523,-0.51c-0.102,0 -0.23,0 -0.268,0c-0.051,0 -0.102,0.204 -0.115,0.446c-0.025,0.37 0.026,0.446 0.217,0.446c0.344,0 0.765,0.243 0.676,0.396c-0.051,0.063 -0.191,0.114 -0.332,0.114c-0.178,0 -0.242,0.064 -0.216,0.217c0.051,0.242 0.191,0.255 0.765,0.102c0.255,-0.064 0.395,-0.025 0.573,0.179c0.217,0.267 0.676,0.369 0.676,0.153c0,-0.051 -0.115,-0.255 -0.268,-0.447c-0.306,-0.382 -0.28,-0.943 0.039,-1.147c0.306,-0.191 0.879,0.344 0.637,0.586c-0.089,0.09 -0.153,0.345 -0.153,0.574c0,0.497 -0.331,0.931 -0.701,0.931c-0.153,0 -0.332,0.064 -0.408,0.14c-0.179,0.179 -0.638,-0.089 -0.727,-0.433c-0.038,-0.153 -0.14,-0.217 -0.293,-0.192c-0.332,0.064 -0.357,0.447 -0.051,0.549c0.331,0.102 0.344,0.267 0.013,0.446c-0.179,0.102 -0.319,0.089 -0.51,-0.026c-0.217,-0.14 -0.281,-0.127 -0.383,0.026c-0.217,0.344 -0.14,0.637 0.217,0.778c0.28,0.102 0.382,0.089 0.51,-0.09c0.089,-0.127 0.166,-0.28 0.166,-0.344c0,-0.064 0.076,-0.089 0.165,-0.051c0.09,0.026 0.141,0.191 0.115,0.383c-0.025,0.229 0.026,0.369 0.153,0.42c0.115,0.039 0.204,0.217 0.204,0.383c0,0.37 0.319,0.408 0.676,0.089c0.229,-0.217 0.255,-0.217 0.497,0.09l0.255,0.318l-0.293,0.039c-0.166,0.025 -0.37,0.102 -0.446,0.165c-0.179,0.153 -0.09,0.561 0.165,0.778c0.166,0.128 0.243,0.102 0.434,-0.14c0.14,-0.166 0.242,-0.408 0.242,-0.536c0,-0.153 0.089,-0.242 0.255,-0.242c0.153,0 0.255,-0.089 0.255,-0.229c0,-0.128 -0.115,-0.319 -0.255,-0.447c-0.28,-0.242 -0.331,-0.599 -0.115,-0.816c0.102,-0.102 0.064,-0.178 -0.127,-0.293c-0.293,-0.153 -0.332,-0.102 -0.421,0.446c-0.025,0.191 -0.153,0.268 -0.497,0.293c-0.383,0.039 -0.472,-0.012 -0.536,-0.242c-0.102,-0.37 0.332,-0.714 1.046,-0.816c0.459,-0.064 0.586,-0.038 0.79,0.179c0.141,0.153 0.332,0.267 0.421,0.267c0.102,0 0.217,0.09 0.255,0.204c0.128,0.345 0.09,0.689 -0.102,0.689c-0.229,0 -0.382,0.383 -0.217,0.548c0.192,0.192 0.804,-0.114 0.753,-0.369c-0.077,-0.396 0.28,-0.332 0.421,0.076c0.114,0.332 0.204,0.395 0.484,0.357c0.281,-0.025 0.332,-0.102 0.332,-0.421c0,-0.344 -0.051,-0.382 -0.408,-0.421c-0.472,-0.051 -0.561,-0.267 -0.166,-0.369c0.166,-0.039 0.255,-0.153 0.229,-0.281c-0.038,-0.166 -0.178,-0.191 -0.65,-0.166c-0.382,0.026 -0.599,0 -0.599,-0.089c0,-0.089 -0.153,-0.204 -0.332,-0.268c-0.357,-0.14 -0.306,-0.382 0.077,-0.382c0.127,0 0.293,-0.089 0.357,-0.204c0.089,-0.166 0.166,-0.179 0.382,-0.064c0.141,0.077 0.294,0.255 0.345,0.383c0.102,0.331 0.446,0.446 0.675,0.229c0.153,-0.166 0.141,-0.217 -0.076,-0.421c-0.395,-0.395 -0.689,-0.918 -0.548,-0.994c0.063,-0.051 0.165,0 0.229,0.102c0.051,0.089 0.319,0.242 0.587,0.306c0.561,0.153 0.726,-0.026 0.497,-0.561c-0.179,-0.357 -0.357,-0.383 -0.701,-0.089c-0.23,0.216 -0.243,0.216 -0.357,0c-0.077,-0.115 -0.268,-0.217 -0.434,-0.217c-0.242,0 -0.306,0.076 -0.344,0.408c-0.026,0.306 -0.115,0.433 -0.293,0.459c-0.141,0.025 -0.345,0.127 -0.46,0.229c-0.178,0.153 -0.229,0.153 -0.357,0.013c-0.114,-0.14 -0.102,-0.217 0.051,-0.344c0.141,-0.115 0.153,-0.204 0.051,-0.332c-0.204,-0.242 -0.038,-0.408 0.498,-0.51c0.535,-0.089 0.79,-0.255 0.79,-0.497c0,-0.28 -0.497,-0.319 -0.675,-0.051c-0.102,0.128 -0.217,0.204 -0.255,0.153c-0.154,-0.14 -0.09,-0.51 0.102,-0.676c0.102,-0.089 0.191,-0.318 0.191,-0.523c0,-0.293 -0.051,-0.369 -0.281,-0.369c-0.166,0 -0.37,0.051 -0.459,0.114Z" style="fill:#49b0c2;fill-opacity:0.670588;fill-rule:nonzero;"/><path d="M132.424,72.701c-0.188,0.126 -0.23,0.398 -0.146,0.941c0.146,0.711 -0.105,1.046 -0.419,0.544c-0.23,-0.356 -0.731,-0.23 -0.92,0.251c-0.104,0.292 -0.209,0.355 -0.313,0.209c-0.293,-0.481 -0.753,-0.272 -0.753,0.355c0,0.941 -0.314,0.941 -0.92,0.021c-0.293,-0.46 -0.69,-0.836 -0.857,-0.836c-0.167,0 -0.377,0 -0.439,0c-0.084,0 -0.167,0.334 -0.188,0.732c-0.042,0.606 0.041,0.731 0.355,0.731c0.565,0 1.255,0.398 1.108,0.649c-0.083,0.104 -0.313,0.188 -0.543,0.188c-0.293,0 -0.398,0.104 -0.356,0.355c0.084,0.397 0.314,0.418 1.255,0.167c0.418,-0.104 0.648,-0.041 0.941,0.293c0.355,0.439 1.108,0.606 1.108,0.251c0,-0.084 -0.188,-0.418 -0.439,-0.732c-0.502,-0.627 -0.46,-1.547 0.062,-1.882c0.502,-0.313 1.443,0.565 1.046,0.962c-0.147,0.147 -0.251,0.565 -0.251,0.941c0,0.816 -0.544,1.526 -1.15,1.526c-0.251,0 -0.544,0.105 -0.669,0.23c-0.293,0.293 -1.046,-0.146 -1.192,-0.71c-0.063,-0.251 -0.23,-0.356 -0.481,-0.314c-0.544,0.104 -0.585,0.732 -0.084,0.899c0.544,0.167 0.565,0.439 0.021,0.732c-0.292,0.167 -0.522,0.146 -0.836,-0.042c-0.355,-0.23 -0.46,-0.209 -0.627,0.042c-0.356,0.564 -0.23,1.045 0.355,1.275c0.46,0.168 0.627,0.147 0.837,-0.146c0.146,-0.209 0.271,-0.46 0.271,-0.565c0,-0.104 0.126,-0.146 0.272,-0.083c0.147,0.042 0.23,0.313 0.188,0.627c-0.041,0.376 0.042,0.606 0.251,0.69c0.188,0.063 0.335,0.355 0.335,0.627c0,0.607 0.523,0.669 1.108,0.147c0.376,-0.356 0.418,-0.356 0.815,0.146l0.419,0.523l-0.481,0.062c-0.272,0.042 -0.607,0.168 -0.732,0.272c-0.293,0.251 -0.146,0.92 0.272,1.276c0.272,0.209 0.397,0.167 0.711,-0.23c0.23,-0.272 0.397,-0.669 0.397,-0.879c0,-0.25 0.146,-0.397 0.418,-0.397c0.251,0 0.418,-0.146 0.418,-0.376c0,-0.209 -0.188,-0.523 -0.418,-0.732c-0.46,-0.397 -0.544,-0.983 -0.188,-1.338c0.167,-0.167 0.104,-0.293 -0.209,-0.481c-0.481,-0.251 -0.544,-0.167 -0.69,0.732c-0.042,0.313 -0.251,0.439 -0.816,0.481c-0.627,0.062 -0.773,-0.021 -0.878,-0.398c-0.167,-0.606 0.544,-1.17 1.715,-1.338c0.752,-0.104 0.961,-0.062 1.296,0.293c0.23,0.251 0.544,0.439 0.69,0.439c0.167,0 0.355,0.146 0.418,0.335c0.209,0.564 0.147,1.129 -0.167,1.129c-0.376,0 -0.627,0.627 -0.356,0.899c0.314,0.313 1.318,-0.188 1.234,-0.607c-0.125,-0.648 0.46,-0.543 0.69,0.126c0.188,0.543 0.335,0.648 0.795,0.585c0.46,-0.042 0.543,-0.167 0.543,-0.69c0,-0.564 -0.083,-0.627 -0.669,-0.69c-0.773,-0.083 -0.92,-0.439 -0.272,-0.606c0.272,-0.063 0.418,-0.251 0.377,-0.46c-0.063,-0.272 -0.293,-0.314 -1.067,-0.272c-0.627,0.042 -0.982,0 -0.982,-0.146c0,-0.147 -0.251,-0.335 -0.544,-0.439c-0.585,-0.23 -0.502,-0.628 0.125,-0.628c0.21,0 0.481,-0.146 0.586,-0.334c0.146,-0.272 0.272,-0.293 0.627,-0.105c0.23,0.126 0.481,0.419 0.565,0.628c0.167,0.543 0.731,0.731 1.108,0.376c0.251,-0.272 0.23,-0.355 -0.126,-0.69c-0.648,-0.648 -1.129,-1.505 -0.899,-1.631c0.105,-0.083 0.272,0 0.377,0.167c0.083,0.147 0.522,0.398 0.961,0.502c0.92,0.251 1.192,-0.042 0.816,-0.92c-0.293,-0.585 -0.586,-0.627 -1.15,-0.146c-0.376,0.355 -0.397,0.355 -0.586,0c-0.125,-0.188 -0.439,-0.356 -0.71,-0.356c-0.398,0 -0.502,0.126 -0.565,0.67c-0.042,0.501 -0.188,0.71 -0.481,0.752c-0.23,0.042 -0.564,0.209 -0.753,0.377c-0.292,0.25 -0.376,0.25 -0.585,0.02c-0.188,-0.229 -0.167,-0.355 0.084,-0.564c0.23,-0.188 0.251,-0.335 0.083,-0.544c-0.334,-0.397 -0.062,-0.669 0.816,-0.836c0.878,-0.146 1.296,-0.418 1.296,-0.815c0,-0.46 -0.815,-0.523 -1.108,-0.084c-0.167,0.209 -0.356,0.334 -0.418,0.251c-0.251,-0.23 -0.147,-0.837 0.167,-1.108c0.167,-0.147 0.314,-0.523 0.314,-0.858c0,-0.48 -0.084,-0.606 -0.46,-0.606c-0.272,0 -0.607,0.084 -0.753,0.188Z" style="fill:#49b0c2;fill-opacity:0.670588;fill-rule:nonzero;"/><path d="M63.719,6.409c-0.108,0.072 -0.132,0.229 -0.084,0.541c0.084,0.408 -0.06,0.6 -0.24,0.312c-0.132,-0.204 -0.42,-0.132 -0.528,0.144c-0.06,0.168 -0.12,0.204 -0.18,0.12c-0.169,-0.276 -0.433,-0.156 -0.433,0.204c0,0.541 -0.18,0.541 -0.528,0.012c-0.168,-0.264 -0.397,-0.48 -0.493,-0.48c-0.096,0 -0.216,0 -0.252,0c-0.048,0 -0.096,0.192 -0.108,0.42c-0.024,0.349 0.024,0.421 0.204,0.421c0.325,0 0.721,0.228 0.637,0.372c-0.048,0.06 -0.18,0.108 -0.312,0.108c-0.169,0 -0.229,0.06 -0.205,0.204c0.048,0.228 0.181,0.24 0.721,0.096c0.24,-0.06 0.372,-0.024 0.54,0.168c0.205,0.253 0.637,0.349 0.637,0.144c0,-0.048 -0.108,-0.24 -0.252,-0.42c-0.289,-0.36 -0.265,-0.889 0.036,-1.081c0.288,-0.18 0.828,0.325 0.6,0.553c-0.084,0.084 -0.144,0.324 -0.144,0.54c0,0.469 -0.312,0.877 -0.66,0.877c-0.145,0 -0.313,0.06 -0.385,0.132c-0.168,0.168 -0.6,-0.084 -0.684,-0.408c-0.036,-0.144 -0.132,-0.205 -0.277,-0.181c-0.312,0.061 -0.336,0.421 -0.048,0.517c0.313,0.096 0.325,0.252 0.012,0.42c-0.168,0.096 -0.3,0.084 -0.48,-0.024c-0.204,-0.132 -0.264,-0.12 -0.36,0.024c-0.204,0.324 -0.132,0.601 0.204,0.733c0.264,0.096 0.36,0.084 0.48,-0.084c0.084,-0.12 0.156,-0.265 0.156,-0.325c0,-0.06 0.073,-0.084 0.157,-0.048c0.084,0.024 0.132,0.181 0.108,0.361c-0.024,0.216 0.024,0.348 0.144,0.396c0.108,0.036 0.192,0.204 0.192,0.36c0,0.349 0.3,0.385 0.636,0.084c0.217,-0.204 0.241,-0.204 0.469,0.084l0.24,0.301l-0.276,0.036c-0.156,0.024 -0.349,0.096 -0.421,0.156c-0.168,0.144 -0.084,0.528 0.157,0.732c0.156,0.12 0.228,0.096 0.408,-0.132c0.132,-0.156 0.228,-0.384 0.228,-0.504c0,-0.144 0.084,-0.228 0.24,-0.228c0.144,0 0.24,-0.084 0.24,-0.217c0,-0.12 -0.108,-0.3 -0.24,-0.42c-0.264,-0.228 -0.312,-0.564 -0.108,-0.768c0.096,-0.096 0.06,-0.169 -0.12,-0.277c-0.276,-0.144 -0.312,-0.096 -0.396,0.421c-0.024,0.18 -0.144,0.252 -0.469,0.276c-0.36,0.036 -0.444,-0.012 -0.504,-0.228c-0.096,-0.349 0.312,-0.673 0.985,-0.769c0.432,-0.06 0.552,-0.036 0.744,0.168c0.132,0.144 0.313,0.252 0.397,0.252c0.096,0 0.204,0.085 0.24,0.193c0.12,0.324 0.084,0.648 -0.096,0.648c-0.216,0 -0.361,0.36 -0.204,0.517c0.18,0.18 0.756,-0.109 0.708,-0.349c-0.072,-0.372 0.264,-0.312 0.396,0.072c0.108,0.313 0.193,0.373 0.457,0.337c0.264,-0.024 0.312,-0.097 0.312,-0.397c0,-0.324 -0.048,-0.36 -0.384,-0.396c-0.445,-0.048 -0.529,-0.252 -0.156,-0.348c0.156,-0.036 0.24,-0.144 0.216,-0.265c-0.036,-0.156 -0.168,-0.18 -0.613,-0.156c-0.36,0.024 -0.564,0 -0.564,-0.084c0,-0.084 -0.144,-0.192 -0.312,-0.252c-0.337,-0.132 -0.289,-0.36 0.072,-0.36c0.12,0 0.276,-0.084 0.336,-0.192c0.084,-0.156 0.156,-0.168 0.36,-0.06c0.132,0.072 0.276,0.24 0.324,0.36c0.096,0.312 0.421,0.42 0.637,0.216c0.144,-0.156 0.132,-0.204 -0.072,-0.396c-0.372,-0.372 -0.649,-0.865 -0.517,-0.937c0.061,-0.048 0.157,0 0.217,0.096c0.048,0.084 0.3,0.228 0.552,0.288c0.528,0.144 0.685,-0.024 0.468,-0.528c-0.168,-0.336 -0.336,-0.36 -0.66,-0.084c-0.216,0.204 -0.228,0.204 -0.336,0c-0.072,-0.108 -0.253,-0.204 -0.409,-0.204c-0.228,0 -0.288,0.072 -0.324,0.384c-0.024,0.288 -0.108,0.408 -0.276,0.432c-0.132,0.024 -0.324,0.12 -0.432,0.217c-0.169,0.144 -0.217,0.144 -0.337,0.012c-0.108,-0.133 -0.096,-0.205 0.048,-0.325c0.132,-0.108 0.144,-0.192 0.048,-0.312c-0.192,-0.228 -0.036,-0.384 0.469,-0.48c0.504,-0.084 0.744,-0.24 0.744,-0.469c0,-0.264 -0.468,-0.3 -0.636,-0.048c-0.096,0.12 -0.204,0.192 -0.24,0.144c-0.144,-0.132 -0.084,-0.48 0.096,-0.636c0.096,-0.084 0.18,-0.3 0.18,-0.492c0,-0.277 -0.048,-0.349 -0.264,-0.349c-0.156,0 -0.349,0.048 -0.433,0.108Z" style="fill:#49b0c2;fill-opacity:0.670588;fill-rule:nonzero;"/></g><defs><linearGradient id="_Linear1" x1="0" y1="0" x2="1" y2="0" gradientUnits="userSpaceOnUse" gradientTransform="matrix(80.6396,0,0,80.6396,80,45)"><stop offset="0" style="stop-color:#fff;stop-opacity:0"/><stop offset="0.58" style="stop-color:#ddf0f4;stop-opacity:0.133333"/><stop offset="0.8" style="stop-color:#92d0db;stop-opacity:0.427451"/><stop offset="1" style="stop-color:#49b0c2;stop-opacity:0.717647"/></linearGradient><linearGradient id="_Linear2" x1="0" y1="0" x2="1" y2="0" gradientUnits="userSpaceOnUse" gradientTransform="matrix(-82.2396,1.00714e-14,-1.00714e-14,-82.2396,80,45)"><stop offset="0" style="stop-color:#fff;stop-opacity:0"/><stop offset="0.58" style="stop-color:#ddf0f4;stop-opacity:0.133333"/><stop offset="0.8" style="stop-color:#92d0db;stop-opacity:0.427451"/><stop offset="1" style="stop-color:#49b0c2;stop-opacity:0.717647"/></linearGradient><linearGradient id="_Linear3" x1="0" y1="0" x2="1" y2="0" gradientUnits="userSpaceOnUse" gradientTransform="matrix(2.74837e-15,-44.8843,44.8843,2.74837e-15,80,45)"><stop offset="0" style="stop-color:#fff;stop-opacity:0"/><stop offset="0.51" style="stop-color:#d3ecf0;stop-opacity:0.176471"/><stop offset="1" style="stop-color:#49b0c2;stop-opacity:0.717647"/></linearGradient><linearGradient id="_Linear4" x1="0" y1="0" x2="1" y2="0" gradientUnits="userSpaceOnUse" gradientTransform="matrix(2.74837e-15,44.8843,-44.8843,2.74837e-15,80,45)"><stop offset="0" style="stop-color:#fff;stop-opacity:0"/><stop offset="0.51" style="stop-color:#d4f7fd;stop-opacity:0.176471"/><stop offset="1" style="stop-color:#4eddf7;stop-opacity:0.717647"/></linearGradient></defs></svg>