<svg width="100px" height="100px" viewBox="0 0 100 100" version="1.1" xmlns="http://www.w3.org/2000/svg" xmlns:xlink="http://www.w3.org/1999/xlink" xml:space="preserve" xmlns:serif="http://www.serif.com/" style="fill-rule:evenodd;clip-rule:evenodd;stroke-linecap:round;stroke-linejoin:round;stroke-miterlimit:1.5;">
    <g id="Player" transform="matrix(-1.28556,1.57436e-16,-1.57436e-16,-1.28556,115.333,99.8926)">
        <ellipse id="path3698.-1" cx="51.37" cy="42.573" rx="28.844" ry="30.422" style="fill:rgb(242,165,134);"/>
        <g transform="matrix(1,0,0,0.662336,0.622177,18.2365)">
            <path d="M50.809,62.685C54.371,62.685 58.483,63.619 58.483,64.554C58.483,65.49 54.626,64.656 51.063,64.656C47.501,64.656 43.542,65.895 43.542,64.96C43.542,64.024 47.247,62.685 50.809,62.685Z" style="stroke:rgb(255,133,81);stroke-width:0.3px;"/>
        </g>
        <g transform="matrix(1,0,0,1,-0.995,0)">
            <g transform="matrix(1,0,0,0.455571,0,31.7654)">
                <circle cx="63.329" cy="38.636" r="4.83" style="stroke:white;stroke-width:0.2px;"/>
                <circle cx="65.061" cy="40.807" r="2.055" style="fill:white;"/>
            </g>
            <g transform="matrix(1,0,0,0.455571,0,31.7654)">
                <circle cx="41.401" cy="38.636" r="4.83" style="stroke:white;stroke-width:0.2px;"/>
                <circle cx="43.133" cy="40.807" r="2.055" style="fill:white;"/>
            </g>
        </g>
        <path d="M16.392,57.846C15.853,56.028 15.45,54.128 15.45,52.521C15.45,50.254 15.77,48.162 16.309,46.484C16.245,46.389 16.184,46.291 16.126,46.191C15.019,45.071 15.099,43.289 14.987,41.85C14.875,40.415 15.453,37.559 15.453,37.559C15.453,37.559 14.515,34.519 14.436,32.947C14.35,31.249 14.449,29.236 14.94,27.37C14.996,26.615 14.636,24.422 14.938,22.878C15.327,20.894 16.39,19.494 16.39,18.415C16.39,15.55 17.884,13.257 19.36,11.314C20.836,9.37 25.236,6.715 25.245,6.701C26.356,5.039 27.53,4.808 29.581,3.966C31.728,3.085 33.822,2.732 35,2.921C40.442,3.794 43.205,4.08 40.012,3.036C31.118,0.126 46.744,-0.221 50.109,0.425C50.149,0.433 68.9,5.837 58.442,1.569C54.685,0.036 65.577,0.01 76.493,7.356C80.209,9.856 85.086,14.653 85.086,18.978C85.086,19.653 85.035,20.309 84.939,20.937C86.224,22.102 87.099,24.394 87.099,27.028C87.099,28.954 86.632,30.696 85.878,31.949C86.106,32.392 86.298,32.883 86.449,33.411C86.608,33.965 86.721,34.56 86.781,35.183C86.814,35.521 86.831,35.867 86.831,36.219C86.831,37.159 86.711,38.054 86.494,38.866C86.959,39.706 87.233,40.739 87.233,41.855C87.233,43.895 86.317,45.656 84.995,46.471C85.139,47.173 85.221,47.977 85.221,48.832C85.221,50.87 84.755,52.622 84.09,53.387C84.38,54.212 84.55,55.207 84.55,56.278C84.55,56.603 84.5,57.27 84.418,58.022C84.2,58.965 83.752,60.189 83.431,59.332C83.174,58.648 80.187,60.078 80.373,60.695C80.473,61.024 79.346,60.535 78.663,60.582C78.159,61.123 77.514,61.99 78.052,62.671C78.334,63.027 76.519,62.103 76.223,61.804C76.022,61.601 75.668,62.51 75.894,63.18C75.919,63.255 74.505,62.775 74.353,62.755C74.305,64.34 71.262,65.928 72.349,66.909C73.071,67.56 70.309,66.739 69.753,65.405C69.491,64.775 70.165,69.962 69.2,69.199C68.398,68.564 67.724,68.587 67.459,68.216C67.33,68.261 67.196,68.296 67.059,68.322C67.092,68.51 67.11,68.702 67.11,68.898C67.11,71.199 63.396,71.152 63.353,73.568C63.345,74.033 59.814,72.856 59.015,72.488C58.748,73.846 55.751,75.913 54.016,75.913C53.655,75.913 53.66,74.325 53.66,74.325C53.66,74.325 51.858,77.47 50.978,77.47C50.313,77.47 47.32,73.007 46.51,75.097C46.24,75.795 43.418,72.96 43.245,73.325C42.736,74.397 40.348,69.955 40.102,72.071C39.981,73.107 37.685,70.314 36.611,69.705C35.917,69.311 34.358,68.153 34.5,68.535C34.808,69.361 32.034,69.999 32.029,69.906C31.965,68.552 30.59,67.89 30.369,66.316C29.503,66.208 27.177,67.597 27.387,66.977C27.557,66.477 27.836,64.223 27.283,63.759C26.456,65.104 24.685,66.289 24.379,65.757C24.163,65.379 24.777,65.061 23.342,63.63C22.367,62.657 22.434,60.835 20.615,61.646C19.447,62.166 21.281,59.46 20.412,60.592C20.135,60.953 19.702,61.751 18.957,61.037C18.525,60.622 17.322,59.378 16.445,58.022L16.392,57.846ZM50.669,58.997C56.688,58.997 64.041,60.195 64.041,61.49C64.041,62.785 57.522,61.63 51.503,61.63C45.484,61.63 38.794,63.348 38.794,62.052C38.794,60.757 44.65,58.997 50.669,58.997ZM39.875,35.209C40.832,31.346 34.081,36.124 33.678,47.334C33.63,48.643 27.936,41.304 26.583,41.442C27.132,45.131 27.788,48.192 25.801,51.476C25.33,52.256 26.646,55.084 28.992,55.973C31.757,57.02 34.159,56.32 36.625,56.557C39.018,56.788 42.078,57.51 43.792,57.397C44.97,57.321 48.317,56.352 50.114,56.329C51.627,56.308 53.272,57.192 54.575,57.251C55.707,57.301 56.804,56.672 57.933,56.676C59.061,56.68 60.221,57.54 61.347,57.271C62.739,56.942 64.039,55.212 66.283,54.695C66.235,54.502 73.995,56.597 75.627,54.57C78.592,50.888 77.906,48.866 77.788,46.54C75.96,45.569 75.431,31.035 72.84,44.399C72.082,48.309 67.606,37.596 68.764,33.043C69.022,32.034 61.642,35.922 63.804,45.708C64.627,49.43 55.123,40.345 55.88,32.753C56.195,29.572 41.643,50.592 43.964,44.156C44.707,42.1 38.776,39.639 39.875,35.209Z" style="fill:rgb(109,43,0);stroke:black;stroke-width:0.46px;"/>
    </g>
</svg>
