<svg xmlns="http://www.w3.org/2000/svg" viewBox="0 0 96.6 69.43">
    <defs>
        <style>
            .cls-1{fill:#995e28;}.cls-2{fill:#593011;}.cls-3{fill:#9c1db2;}.cls-4{fill:#9e9e9e;}.cls-5{fill:#c155d8;}
        </style>
    </defs>
    <title>Discord100x100</title>
    <g id="Layer_2" data-name="Layer 2">
        <g id="Layer_6" data-name="Layer 6">
            <path class="cls-1"
                  d="M17.12,63.45l10.33,5.18,6.31-11.82,27.9-.62,1.41,5,2.2,4.35,8.46-2.38a20.42,20.42,0,0,0,.81,2.39c.13,0,11.51-2.84,11.51-2.84l1-1,1.16.81,7.53-4.16L94,49.51l1.75-.73L94.12,37l1.64-1.59s-2.46-6.58-2.48-6.72-1-5.57-1-5.57l-.43-1-.88-6.41V12l-1.34-.25.63-2.71L83.84,7,80.15,4.8,79,5.46,77.88,3.62,70.7,3.09l-2.26.21-.06,2-7.7-.5-18-.94-2.12.32L39.5,2,33.64,1,26.08.55l-.47,2.54-2.18-.4L16.71,5.1l-1,2.72-2.08,0,.77,5.14-1.31-.42s-1.64,5.74-1.8,5.85-2.12,3.24-2.12,3.24l.25,2L6.51,23.1l-2,7.63L1.41,38.15,2,39.68l-1.15,5L.79,48,3,48.63.9,57.13l3.69,2.08-.76,1.6L10,63.38,16.65,65Z"/>
            <circle class="cls-2" cx="16.04" cy="44.78" r="3.23"/>
            <circle class="cls-2" cx="24.2" cy="18.46" r="3.23"/>
            <circle class="cls-2" cx="75.65" cy="19.58" r="3.23"/>
            <circle class="cls-2" cx="76.88" cy="45.6" r="3.23"/>
            <circle class="cls-2" cx="59.78" cy="35.09" r="10.92"/>
            <circle class="cls-2" cx="28.77" cy="34.88" r="10.26"/>
            <circle class="cls-3" cx="61.66" cy="34.12" r="9.56"/>
            <circle class="cls-3" cx="30.09" cy="33.66" r="9.18"/>
            <circle class="cls-4" cx="76.52" cy="18.74" r="2.53"/>
            <circle class="cls-4" cx="78.12" cy="44.49" r="2.97"/>
            <circle class="cls-4" cx="25.27" cy="17.05" r="2.99"/>
            <circle class="cls-4" cx="17.18" cy="43.97" r="2.85"/>
            <path class="cls-2"
                  d="M2.24,51.68S9.42,54.06,23,55.46a7,7,0,0,1,1.18,4,35.94,35.94,0,0,0,7.52,1.39l1.59-4.15-5.64-.66-.88-4.25-7.32-.75c-.78-.09-16.56-2.8-16.56-2.8Z"/>
            <path class="cls-2"
                  d="M63,59.76l4.61-.65,2.64-4.64s8.05-.42,13.41-1.12S94.4,51.54,94.4,51.54a17.75,17.75,0,0,0-.68-2.35c-.11,0-14.23,2.18-14.23,2.18l-12.35.47L65.61,55.5l-4,1Z"/>
            <ellipse class="cls-5" cx="65.03" cy="29.51" rx="1.99" ry="2.94"
                     transform="translate(2.25 63.54) rotate(-52.87)"/>
            <ellipse class="cls-5" cx="33.48" cy="28.52" rx="1.99" ry="2.94"
                     transform="translate(-9.46 38) rotate(-52.87)"/>
            <path class="cls-2"
                  d="M18.94,4.77,33.23,4l1.66-1.52,4.37-.36,1.35,1.6-3.4.83-1.82,1.7-10.75.49c-.22,0-8.82,1.62-8.79,1.42s1-2.76,1-2.76Z"/>
            <polygon class="cls-2"
                     points="69.86 3.61 71.01 3.83 73.27 5.65 89.85 9.55 89.67 11.44 72.25 7.86 69.47 5.71 67.56 5.27 68.78 4.24 69.86 3.61"/>
            <path d="M63.35,25a9.25,9.25,0,1,1-10.79,7.42A9.26,9.26,0,0,1,63.35,25m.26-1.42a10.71,10.71,0,1,0,6.87,4.46,10.62,10.62,0,0,0-6.87-4.46Z"/>
            <path d="M31.7,25a8.81,8.81,0,1,1-10.27,7.06A8.8,8.8,0,0,1,31.7,25M32,23.57a10.26,10.26,0,1,0,8.22,12,10.28,10.28,0,0,0-8.22-12Z"/>
            <path d="M25.27,14.35a2.81,2.81,0,0,1,.49.05,2.68,2.68,0,1,1-.49-.05m0-1a3.67,3.67,0,0,0-3.61,3,3.68,3.68,0,0,0,2.94,4.27,3.79,3.79,0,0,0,.67.06,3.66,3.66,0,0,0,3-5.74,3.63,3.63,0,0,0-2.35-1.53,3.79,3.79,0,0,0-.67-.06Z"/>
            <path d="M76.52,16.49a2,2,0,0,1,.41,0A2.24,2.24,0,0,1,76.52,21l-.41,0a2.25,2.25,0,0,1,.41-4.46m0-1a3.22,3.22,0,0,0-3.16,2.63,3.17,3.17,0,0,0,.51,2.41,3.25,3.25,0,0,0,2.06,1.34,3.92,3.92,0,0,0,.59.05,3.22,3.22,0,0,0,.58-6.38,3.79,3.79,0,0,0-.58-.05Z"/>
            <path d="M78.14,41.67a2.68,2.68,0,1,1-2.63,2.19,2.67,2.67,0,0,1,2.63-2.19m0-1a3.65,3.65,0,0,0-.66,7.24,3.71,3.71,0,0,0,.67.06,3.65,3.65,0,0,0,.66-7.24,3.79,3.79,0,0,0-.67-.06Z"/>
            <path d="M17.18,41.5a2.28,2.28,0,0,1,.45,0,2.47,2.47,0,0,1-.45,4.9,3.42,3.42,0,0,1-.45,0,2.47,2.47,0,0,1,.45-4.9m0-1a3.44,3.44,0,0,0-.62,6.82,4.21,4.21,0,0,0,.62,0,3.43,3.43,0,0,0,.62-6.81,3.18,3.18,0,0,0-.62-.06Z"/>
            <path d="M54.6,33a3.73,3.73,0,0,1,1.44.6,4.18,4.18,0,0,1,1,.94,4.3,4.3,0,0,1,.63,1.2,3.63,3.63,0,0,1,.17,1.55,3.51,3.51,0,0,1-1.44-.59,4.39,4.39,0,0,1-1-.94,4.22,4.22,0,0,1-.63-1.21A3.61,3.61,0,0,1,54.6,33Z"/>
            <path d="M54.27,36.73a4.11,4.11,0,0,1,.45-1.62,5.21,5.21,0,0,1,.86-1.21A4.83,4.83,0,0,1,56.75,33a4.14,4.14,0,0,1,1.59-.51,4,4,0,0,1-.44,1.61,5,5,0,0,1-2,2.12A4,4,0,0,1,54.27,36.73Z"/>
            <path d="M32.14,29.31a3.33,3.33,0,0,1,1.35.55,4,4,0,0,1,.91.88A3.8,3.8,0,0,1,35,31.87a3.3,3.3,0,0,1,.16,1.45,3.48,3.48,0,0,1-1.35-.56,4,4,0,0,1-1.5-2A3.43,3.43,0,0,1,32.14,29.31Z"/>
            <path d="M31.83,32.8a3.89,3.89,0,0,1,.42-1.5,5.18,5.18,0,0,1,.8-1.14,4.89,4.89,0,0,1,1.1-.85,3.85,3.85,0,0,1,1.49-.48,3.72,3.72,0,0,1-.41,1.51,4.64,4.64,0,0,1-.81,1.13,4.93,4.93,0,0,1-1.1.86A3.79,3.79,0,0,1,31.83,32.8Z"/>
            <path d="M96.58,58.29a32.62,32.62,0,0,0-1.79-8.67l.5-.11,1-.25.07-1.07c.16-2.56-.91-7.66-1.55-10.45l1-.86.64-.55-.17-.82c0-.07-.32-1.59-.73-3.16a14,14,0,0,0-.6-1.69,23.54,23.54,0,0,1-1.82-7.11L93,22.4l-.36,0,0-.3v-.17a14.71,14.71,0,0,0-.34-2.24c0-.08,0-.15,0-.24a19,19,0,0,1-.54-6.58l.24-1.3-1.27-.36-.22-.06.43-2.31-.49-.24c-.57-.29-2.1-.79-3.87-1.37C85,6.65,83.3,6.1,82.66,5.8A9.11,9.11,0,0,1,80.29,4l-.63-.68-.53.8a7.5,7.5,0,0,0-1-1.06L77.93,3l-.19,0a29.46,29.46,0,0,0-9.12-.23l-.42.08-.63,2C65,4.44,59.66,3.9,52.88,3.48a86.57,86.57,0,0,0-11.61,0L40,1.65l-.24-.07A39.3,39.3,0,0,0,32.88.31C29.3,0,26,0,26,0h-.64l-.29,2.47-1.32-.33-7.68,2.8L15.2,7.2l-1.14.19-1.75.3L13,9.35a10.07,10.07,0,0,1,.53,2.39h-.13l-1,.1-.25,1a34.76,34.76,0,0,1-1.74,4.84,29,29,0,0,1-1.87,3.57l-.39.59.23.67.11.33-1-.16-1.32-.22-.32,1.3A109.17,109.17,0,0,1,1,37.77l-.15.36,0,.38c0,.1.08.67.21,1.3l0,.13A28.89,28.89,0,0,0,0,47.48l0,1.09,1.05.26.91.22L.14,57.55l.37.28a19,19,0,0,0,2.94,1.81c-.21.59-.43,1.11-.43,1.12l-.28.65.64.29a70.36,70.36,0,0,0,11.31,3.79,12.71,12.71,0,0,0,1.83.33l.58.06.48-1.48,10.21,5,.36-.51a75.1,75.1,0,0,0,6-11.4,121.39,121.39,0,0,0,12.57.31c5.59-.15,10.62-.54,14-.86a33.1,33.1,0,0,0,4,8.59l.24.38.44,0a36.94,36.94,0,0,0,8-1.83l.68,2.31.61-.07a49.52,49.52,0,0,0,12-3.26l.24-.1.17-.34,1.08.5,8.45-4.36ZM69.31,4.06a30.34,30.34,0,0,1,8,.26,7.45,7.45,0,0,1,1.23,1.47l.6.94a2.91,2.91,0,0,1,.45,1.06l.28-2.16a9.68,9.68,0,0,0,2.17,1.49c.71.33,2.34.87,4.07,1.43,1.16.38,2.44.8,3.17,1.09l-.2,1.08c-2.64-.7-8.19-2.1-14.2-3.21-.82-.15-1.62-.3-2.41-.43a14.63,14.63,0,0,0-2.75-2L69.49,5l-.26,0-.19,0Zm-52.13,2,6.64-2.41,2.48.61.33-2.82c1.11,0,3.54.07,6.12.3A38.33,38.33,0,0,1,39.1,2.91l.49.7c-1.47.14-2.28.28-2.37.3L36.77,4l-.32.32c-.08.08-.62.61-1.06,1.07-1.21,0-4.05.06-8,.36-3.51.27-7,.67-10.53,1.2ZM27.3,67.57l-9.47-4.66c.2-2.51.93-6.73.93-6.73l-2.05,6.18-.62,1.94c-.27,0-.63-.12-1.06-.22A74.16,74.16,0,0,1,4.62,60.66c.14-.36.3-.82.43-1.23l.19-.68c.42-1.5,1.24-5.14,1.24-5.14a42.47,42.47,0,0,1-2.21,4.81,14.47,14.47,0,0,1-2.51-1.48l1.66-7.57c1.35.3,3.23.7,5.48,1.12a132.67,132.67,0,0,0,17.25,2.1,8.15,8.15,0,0,1,.89,3l.09,1.16,1.15.17c.14,0,1.75.25,4.37.49A82.55,82.55,0,0,1,27.3,67.57ZM46.71,56.38a115.08,115.08,0,0,1-18.22-.91,9.48,9.48,0,0,0-.85-3.12l9.46-.7L27,51.17A126.94,126.94,0,0,1,9.16,49.06c-4.61-.85-7.7-1.63-7.7-1.63a27.72,27.72,0,0,1,1-7.09h.27c2.47.12,7.51.18,9.29.16-7-.21-9.69-2.16-9.69-2.16a107.94,107.94,0,0,0,4.8-14.26c1,.18,2.19.3,3.38.39a100.56,100.56,0,0,0,13.39-.14s-1.73,0-4.28-.09a62.77,62.77,0,0,1-9.58-1.16L9.7,22a29.82,29.82,0,0,0,2-3.77,34.79,34.79,0,0,0,1.82-5.07l1.4-.13v0l18.54-1.6s-13.1.63-18.5.44h0a11,11,0,0,0-.64-3c5-.87,9.58-1.36,13.18-1.63C32.74,6.78,36,6.84,36,6.84c.37-.43,1.45-1.51,1.45-1.51a71.43,71.43,0,0,1,15.32-.41c9.63.6,16.26,1.44,16.26,1.44a13.46,13.46,0,0,1,2.76,2.08l2.81.49c8.36,1.55,15.7,3.62,15.7,3.62-.49,2.67.34,6.16.6,7.39a14.81,14.81,0,0,1,.32,2c0,.07,0,.15,0,.23-4.76,1.15-12.33.63-12.33.63,6,.47,10,.53,12,.78l.77.09c.53,5.11,2.06,7.46,2.46,9s.71,3.08.71,3.08S84.79,37,80.69,37.49l12.43-.74.11.47.89-.78-.89.78C93.66,39,95.12,45.35,95,48.1a120.56,120.56,0,0,1-15.4,2.46c-3,.25-7.83.53-12.47.78L52.59,52l13.83.57-1.37,2.52S56.89,56.1,46.71,56.38ZM94.86,35.8l-.09.08Zm-.11.1-.07.05Zm-.11.09-.51.44ZM88.12,61.5c-.94-2.87-2.92-7.33-2.92-7.33l.7,7.52h0l-.06.14a48.38,48.38,0,0,1-10.75,3l-.78-2.63c-.63-2.14-1.82-5.89-1.82-5.89s1,4.35.29,6.48A35.91,35.91,0,0,1,65.7,64.4a32.72,32.72,0,0,1-3.47-7.57c1.87-.19,3-.33,3-.33l.74-.1.35-.65,1.64-3c3.84-.2,8.72-.48,11.71-.73a117.66,117.66,0,0,0,13.69-2.08,32.6,32.6,0,0,1,1.74,8Z"/>
        </g>
    </g>
</svg>