<?xml version="1.0" encoding="UTF-8" standalone="no"?>
<!DOCTYPE svg PUBLIC "-//W3C//DTD SVG 1.1//EN" "http://www.w3.org/Graphics/SVG/1.1/DTD/svg11.dtd">
<svg width="100%" height="100%" viewBox="0 0 3284 3284" version="1.1" xmlns="http://www.w3.org/2000/svg" xmlns:xlink="http://www.w3.org/1999/xlink" xml:space="preserve" xmlns:serif="http://www.serif.com/" style="fill-rule:evenodd;clip-rule:evenodd;stroke-linecap:round;stroke-linejoin:round;stroke-miterlimit:1.5;">
    <g id="Layer1">
        <g id="Color">
            <g>
                <path d="M775.954,2541.54c0,0 284.386,368.782 503.389,418.282c142.174,32.129 232.939,78.675 514.776,31.987c49.001,84.335 329.948,259.175 505.013,273.056c296.43,23.505 603.645,-154.361 646.619,-177.248c22.971,-12.232 273.792,-379.721 236.869,-417.842c-402.288,269.165 -568.917,262.473 -646.726,225.585c-123.038,-58.339 -105.882,-96.057 -176.726,-154.112c23.884,-37.599 94.586,-138.462 127.511,-201.761c136.872,-263.125 175.35,-489.078 113.902,-768.304c51.125,-104.909 130.596,-393.923 52.561,-581.861c-58.873,-141.773 -292.396,-479.666 -754.055,-512.854c-461.671,-33.188 -760.423,183.743 -912.08,297.324c-480.768,360.068 -501.465,947.124 -390.229,1224.52c103.579,258.297 179.176,343.225 179.176,343.225Z" style="fill:#f9ba0b;"/>
            </g>
            <g>
                <path d="M1631.1,1972.21c0,-0 -6.869,-199.329 103.189,-310.454c110.057,-111.114 166.641,-279.547 166.641,-279.547c-0,0 -197.846,-52.904 -322.747,5.968c-125.422,59.111 -328.74,324.751 -297.616,493.528c31.121,168.789 155.097,204.466 155.097,204.466l195.436,-113.961Z" style="fill:#c78500;"/>
            </g>
            <g>
                <path d="M2610.76,1781.95l-217.592,234.809c-0,0 -243.315,141.679 -348.541,139.659c-105.226,-2.007 -229.887,-15.751 -229.887,-15.751c0,0 -131.434,93.967 -212.243,124.721c-243.396,92.619 -457.358,81.197 -457.358,81.197c-0,0 86.897,66.715 260.762,67.771c250.74,1.521 506.348,-97.621 506.348,-97.621c0,0 246.797,78.018 436.843,-24.456c259.731,-140.066 272.044,-363.388 272.044,-363.388l-10.376,-146.941Z" style="fill:url(#_Linear1);"/>
            </g>
            <g>
                <path d="M1794.12,2988.05c-0,-0 279.308,-29.443 567.636,-246.805c38.112,48.571 147.998,152.419 147.998,152.419c0,-0 -546.969,364.255 -715.634,94.386Z" style="fill:#c78500;"/>
            </g>
        </g>
        <g id="OUtline">
            <g>
                <path d="M1750.63,1869.04c0,0 -197.193,218.336 -496.329,260.623c-86.681,12.256 -225.865,7 -225.865,7c-0,-0 48.234,125.956 308.659,113.059c209.449,-10.381 351.055,-64.52 462.715,-120.748c-0,0 148.974,31.3 278.289,22.271c185.09,-12.933 386.934,-202.271 428.912,-250.905c64.663,-74.915 156.319,-189.184 179.348,-490.811c11.865,-155.329 -94.325,-386.901 -205.047,-471.728c-72.945,-55.884 -243.834,-274.974 -678.061,-272.936c-434.24,2.037 -767.258,241.455 -907.536,385.467c-89.722,92.108 -287.389,342.61 -340.051,652.15c-52.662,309.553 57.758,567.517 111.651,680.209c32.526,68.009 411.515,654.854 934.97,623.744c523.463,-31.109 669.934,-207.384 754.85,-287.365c193.408,-182.125 260.314,-489.625 265.309,-622.997c4.034,-107.661 -19.067,-322.805 -19.067,-322.805" style="fill:none;stroke:#934600;stroke-width:29.66px;"/>
            </g>
            <g>
                <path d="M1635.38,1955.79c1.4,8.068 -4.022,15.745 -12.079,17.145c-8.068,1.4 -15.756,-4.023 -17.144,-12.079c-0,0 -17.798,-103.366 31.513,-188.591c32.746,-56.607 140.562,-200.076 206.423,-302.113c26.755,-41.456 46.724,-75.413 50.129,-92.889c11.283,-57.961 29.472,-183.315 -80.159,-262.648c-6.632,-4.799 -8.115,-14.079 -3.322,-20.71c4.806,-6.631 14.084,-8.119 20.716,-3.32c122.326,88.531 104.47,227.666 91.881,292.349c-3.761,19.316 -24.738,57.461 -54.329,103.307c-65.6,101.634 -173.048,244.486 -205.664,300.879c-44.09,76.208 -27.965,168.67 -27.965,168.67Z" style="fill:#934600;"/>
            </g>
            <g>
                <path d="M1410.62,2076.22c-0,-0 -265.066,-165.538 -9.053,-530.392c195.259,-278.275 499.235,-177.865 487.275,-171.269" style="fill:none;stroke:#934600;stroke-width:29.66px;"/>
            </g>
            <g>
                <path d="M2360.27,2741.24c0,0 94.949,180.87 279.458,173.613c184.505,-7.252 490.664,-172.958 571.373,-280.304c-0,-0 -73.379,294.641 -291.036,457.648c-217.662,163.012 -506.665,184.065 -610.04,168.357c-103.367,-15.7 -303.624,-58.084 -515.911,-271.955" style="fill:none;stroke:#934600;stroke-width:29.66px;"/>
            </g>
        </g>
        <g id="eyes">
            <g>
                <path d="M2135.76,1498.12c83.333,-12.465 166.664,82.209 185.972,211.286c19.307,129.076 -32.673,243.99 -116.006,256.455c-83.333,12.465 -166.664,-82.208 -185.972,-211.285c-19.307,-129.077 32.673,-243.99 116.006,-256.456Z" style="fill:#fff2c8;stroke:#310b00;stroke-width:29.66px;"/>
            </g>
            <g>
                <path d="M1936.37,1449.34c55.539,39.35 43.708,151.637 -26.403,250.594c-70.112,98.957 -172.124,147.351 -227.664,108.001c-55.539,-39.35 -43.708,-151.637 26.404,-250.594c70.112,-98.957 172.124,-147.351 227.663,-108.001Z" style="fill:#fff2c8;stroke:#310b00;stroke-width:29.66px;"/>
            </g>
            <g>
                <path d="M2134.5,1510.59c53.099,-20.471 116.651,15.937 141.832,81.252c25.18,65.315 2.514,134.962 -50.585,155.433c-53.098,20.47 -116.651,-15.938 -141.831,-81.253c-25.181,-65.314 -2.515,-134.961 50.584,-155.432Z" style="fill:#310b00;"/>
            </g>
            <g>
                <path d="M1937.07,1417.69c50.741,17.506 72.653,87.608 48.903,156.448c-23.751,68.84 -84.229,110.516 -134.97,93.01c-50.74,-17.506 -72.653,-87.608 -48.902,-156.448c23.751,-68.84 84.229,-110.516 134.969,-93.01Z" style="fill:#310b00;"/>
            </g>
        </g>
        <g>
            <g>
                <g>
                    <g>
                        <path d="M15.28,1083.37c6.316,-15.995 16.996,-29.379 27.183,-36.796c11.55,-8.807 24.446,-13.748 36.208,-15.03c13.064,-1.924 26.295,-0.832 38.989,1.717c12.219,3.261 24.025,6.488 35.646,11.953c9.677,3.801 19.231,9.095 28.784,14.388c5.895,4.241 11.85,7.736 17.744,11.976c-9.307,-8.276 -18.492,-18.044 -28.089,-27.845c-13.012,-13.838 -25.777,-30.658 -36.642,-50.324c-5.463,-9.461 -19.389,-32.383 -14.129,-50.718c3.941,-12.438 12.183,-21.518 19.168,-25.446c13.433,-6.399 28.089,-7.441 41.795,-7.061c15.712,1.297 31.652,4.866 46.581,10.603c12.861,5.566 25.6,12.624 37.327,21.851c10.548,8.378 20.62,17.469 29.743,27.982c7.944,9.665 15.475,19.296 22.469,30.384c13.988,22.177 25.952,48.691 35.19,77.984c22.204,3.334 44.346,7.415 66.243,14.478c15.817,5.059 31.986,10.899 47.205,18.161c11.621,5.465 22.767,11.64 33.729,20.053c7.9,5.157 15.677,11.805 22.978,19.165c10.777,10.65 22.486,25.13 26.965,46.522c2.384,11.458 3.985,27.357 -1.548,38.913c-4.996,10.098 -12.641,16.975 -19.626,20.903c-10.002,5.18 -20.523,6.564 -30.983,7.202c-10.811,-0.141 -22.45,-0.352 -33.138,-1.985c-9.449,-1.53 -18.422,-3.773 -27.395,-6.015c-4.486,-1.121 -9.386,-2.277 -13.811,-4.143c4.363,2.612 9.078,6.004 13.38,9.363c8.666,5.971 17.208,13.433 24.861,21.572c8.481,8.208 16.364,18.619 23.296,30.453c5.463,9.461 9.73,23.327 8.499,38.241c-0.554,6.711 -2.885,14.777 -6.21,19.758c-3.739,4.947 -8.656,9.046 -13.389,10.907c-5.683,3.285 -12.07,5.01 -17.92,5.278c-6.738,0.945 -13.415,1.145 -19.617,0.633c-17.841,-0.722 -35.787,-5.207 -52.783,-11.115c-20.594,-7.706 -40.59,-17.615 -60.586,-27.525c-23.181,-11.674 -45.825,-24.805 -68.469,-37.936c-32.136,-19.17 -64.15,-39.831 -95.811,-59.713c-30.896,-19.068 -62.557,-38.95 -91.122,-66.084c-15.844,-14.822 -32.805,-31.237 -45.491,-54.057c-6.105,-11.766 -13.249,-31.125 -7.224,-48.647Z" style="fill:#ff0041;fill-rule:nonzero;"/>
                    </g>
                    <g>
                        <path d="M470.503,712.528c19.09,15.841 38.119,32.427 55.062,54.097c10.944,13.667 21.827,28.079 31.346,43.881c7.284,12.613 14.445,26.719 19.477,41.399c14.349,2.686 29.049,6.152 43.15,11.821c10.918,3.904 21.712,9.3 32.445,15.441c7.961,4.412 15.799,10.314 23.101,17.674c5.419,4.952 10.777,10.65 15.659,17.059c8.587,11.971 16.1,26.856 19.584,45.162c1.619,10.645 1.69,24.915 -4.424,33.42c-6.589,9.216 -14.814,13.042 -22.503,15.41c-11.058,2.841 -22.283,2.665 -32.971,1.032c-11.929,-1.735 -23.322,-4.928 -34.652,-8.867c-9.739,-3.056 -19.416,-6.858 -29.031,-11.406c-4.363,-2.612 -9.202,-4.513 -13.504,-7.872c8.956,7.497 17.85,15.739 26.269,24.692c6.123,6.512 12.184,13.77 17.771,21.738c4.178,4.85 7.821,11.157 10.988,18.176c1.698,4.644 3.748,10.069 4.909,16.171c2.094,9.933 1.936,21.933 -2.172,31.354c-5.718,13.792 -14.726,22.058 -23.655,24.324c-10.292,3.655 -21.166,4.259 -31.441,2.66c-13.169,-1.838 -26.031,-7.404 -38.355,-14.428c-29.014,-16.66 -56.892,-36.98 -83.636,-60.961c-22.503,-19.876 -44.884,-41.244 -66.789,-63.324c-21.14,-21.265 -42.157,-44.022 -63.112,-67.525c-14.129,-15.431 -28.196,-31.608 -41.251,-49.954c-9.703,-13.564 -19.759,-27.908 -27.976,-44.353c-6.167,-11.02 -12.149,-24.277 -15.528,-38.821c-2.155,-9.187 -4.126,-20.611 -4.091,-31.119c0.73,-23.965 11.488,-43.348 22.871,-55.172c9.254,-11.248 20.743,-19.309 31.097,-23.71c11.656,-5.044 23.954,-7.782 36.068,-8.284c12.175,-1.247 24.641,-0.969 36.57,0.767c11.453,2.447 23.321,4.928 34.59,9.612c25.494,8.862 50.557,22.944 74.134,39.906Zm-34.816,129.263c-3.738,4.947 -2.286,12.574 -0.175,17.253c2.982,9.256 7.926,14.92 13.346,19.872c5.419,4.952 12.017,10.752 18.632,11.298c3.721,0.307 8.454,-1.555 11.304,-5.824c2.789,-3.524 3.281,-9.489 2.058,-14.846c-2.217,-8.441 -7.222,-13.359 -11.401,-18.209c-5.771,-5.732 -12.079,-10.006 -18.571,-12.044c-4.838,-1.901 -10.565,-3.124 -15.193,2.5Z" style="fill:#f8a812;fill-rule:nonzero;"/>
                    </g>
                    <g>
                        <path d="M659.528,848.258c-14.375,-12.449 -28.627,-26.389 -42.403,-41.04c-14.956,-15.5 -29.436,-31.711 -43.917,-47.922c-17.189,-18.687 -34.318,-38.119 -51.921,-56.841c-20.19,-22.688 -39.905,-46.088 -58.547,-72.403c-7.055,-10.343 -13.697,-20.651 -19.864,-31.671c-5.464,-9.461 -10.452,-19.633 -14.077,-31.194c-2.217,-8.441 -4.249,-19.12 -3.449,-28.814c0.862,-10.44 7.864,-19.622 12.368,-23.755c13.205,-8.67 28.212,-8.932 41.382,-7.094c8.207,1.428 16.354,3.602 24.913,5.81c10.504,3.871 20.946,8.486 30.914,13.814c12.324,7.024 24.588,14.793 36.728,24.054c13.733,10.143 27.342,21.777 40.476,34.123c23.911,22.996 47.699,47.484 70.537,73.394c17.129,19.433 33.844,38.831 50.559,58.23c13.592,16.888 27.597,33.811 41.189,50.699c9.765,12.819 19.407,27.129 27.624,43.574c2.05,5.425 4.451,11.629 6.026,17.765c1.637,5.391 2.798,11.493 3.071,18.273c-0.018,5.254 -1.46,12.642 -3.545,17.726c-2.208,6.574 -6.835,12.199 -10.925,16.366c-5.516,6.301 -12.149,11.009 -18.597,13.48c-7.275,2.402 -14.489,4.059 -21.579,4.225c-7.504,0.131 -15.299,-1.263 -22.618,-3.369c-7.319,-2.106 -14.99,-4.991 -22.186,-8.589c-17.929,-9.738 -35.55,-23.205 -52.159,-38.841Z" style="fill:#ff0041;fill-rule:nonzero;"/>
                    </g>
                    <g>
                        <path d="M620.519,534.214c-12.29,-17.532 -24.105,-35.775 -33.544,-57.576c-6.273,-14.783 -11.534,-31.734 -13.303,-50.65c-1.645,-20.407 8.392,-36.095 17.875,-45.073c13.389,-10.907 27.877,-14.966 42.058,-15.297c15.773,0.551 31.714,4.12 46.995,10.637c15.632,7.296 31.142,16.085 45.64,27.042c13.319,10.109 26.515,21.709 39.649,34.055c9.659,9.056 19.671,18.892 29.145,30.185c5.771,5.732 11.067,12.175 16.363,18.619c-13.53,-17.634 -26.999,-36.014 -39.517,-55.817c-9.229,-14.276 -18.334,-30.044 -26.138,-46.454c-5.34,-10.952 -10.557,-23.395 -13.997,-37.193c-1.865,-7.662 -3.546,-17.561 -3.572,-27.323c0.298,-18.745 8.972,-33.045 18.622,-39.005c12.853,-9.45 26.391,-12.086 39.499,-9.502c12.694,2.549 25.142,8.082 36.579,15.783c13.028,8.583 25.397,20.115 36.755,33.816c27.659,33.065 54.306,68.3 79.88,106.448c18.58,27.061 36.624,55.578 54.667,84.096c14.279,23.702 28.557,47.404 41.885,72.53c4.76,7.9 8.982,17.258 12.317,27.294c2.402,6.204 4.328,13.12 5.428,19.968c0.458,4.543 0.379,10.542 -0.404,14.982c-0.722,3.695 -1.918,8.101 -3.818,10.947c-4.46,8.641 -11.154,14.095 -17.251,17.345c-11.013,7.35 -22.669,12.394 -34.018,13.709c-12.175,1.247 -24.579,0.223 -36.798,-3.038c-13.046,-3.329 -25.908,-8.896 -37.819,-15.885c-12.325,-7.024 -24.113,-15.505 -35.902,-23.986c-9.369,-7.53 -18.676,-15.807 -27.922,-24.828c-5.006,-4.918 -10.363,-10.616 -15.369,-15.534c14.48,16.211 28.838,33.913 42.306,52.293c8.235,11.191 16.821,23.162 23.982,37.267c3.933,7.832 8.631,16.479 11.138,26.446c1.636,5.39 3.15,12.272 2.596,18.984c-0.818,14.948 -9.536,24.739 -16.644,30.158c-8.119,7.589 -17.233,12.092 -26.452,12.832c-8.806,0.775 -17.964,0.77 -26.875,-2.218c-10.152,-3.091 -20.181,-7.673 -29.55,-15.203c-24.756,-17.81 -48.728,-40.06 -71.628,-65.225c-22.134,-24.351 -43.731,-50.159 -64.854,-76.678c-23.005,-28.928 -45.949,-58.6 -68.004,-88.951Z" style="fill:#0b84bc;fill-rule:nonzero;"/>
                    </g>
                    <g>
                        <path d="M1167.93,423.243c-6.968,-1.326 -13.812,-4.143 -19.645,-9.13c-4.301,-3.358 -8.48,-8.207 -11.832,-12.989c-3.352,-4.781 -6.167,-11.02 -8.094,-17.936c-2.217,-8.442 -0.713,-16.576 3.563,-22.98c6.052,-7.759 13.16,-13.178 20.144,-17.107c9.176,-5.248 19.055,-8.937 28.811,-11.135c9.342,-2.232 19.037,-3.684 28.669,-4.39c5.023,-0.336 10.398,0.107 15.298,1.263c4.074,1.087 8.085,2.919 11.683,4.718c3.598,1.799 7.135,4.343 10.61,7.633c5.419,4.952 10.301,11.361 14.709,18.482c5.111,8.681 10.222,17.361 14.859,26.753c4.698,8.647 9.272,18.785 13.434,28.888c4.223,9.358 8.445,18.716 12.255,28.04c8.674,20.987 16.935,41.94 25.196,62.893c2.754,6.985 7.68,17.902 6.467,27.562c-0.493,5.966 -2.639,11.795 -5.428,15.319c-4.152,4.912 -9.36,7.485 -14.031,8.601c-5.146,1.828 -10.231,2.91 -15.667,3.212c-5.437,0.302 -10.812,-0.142 -16.539,-1.366c-5.727,-1.223 -11.331,-3.938 -16.398,-8.11c-5.894,-4.241 -11.19,-10.684 -15.95,-18.585c-0.017,5.254 -1.75,11.117 -3.36,15.489c-2.621,6.541 -6.773,11.453 -10.802,14.874c-5.929,6.268 -12.439,9.485 -18.949,12.701c-9.588,5.215 -19.406,8.158 -28.748,10.39c-18.562,2.972 -37.291,2.928 -55.176,-2.303c-8.973,-2.242 -18.236,-6.01 -27.025,-10.489c-11.621,-5.464 -22.705,-12.386 -33.253,-20.764c-13.258,-10.855 -26.392,-23.201 -38.638,-36.224c-15.598,-17.805 -30.659,-37.067 -44.295,-58.464c-18.457,-28.552 -35.718,-61.51 -48.888,-98.634c-5.446,-14.715 -10.355,-30.886 -13.962,-47.701c-3.959,-17.595 -4.135,-35.629 -6.793,-53.867c-2.076,-15.187 -2.604,-34 -0.362,-51.083c1.83,-17.116 8.269,-34.604 15.579,-47.514c13.529,-17.653 30.103,-26.795 45.955,-32.244c9.052,-3.757 17.92,-5.277 27.139,-6.018c10.935,-1.35 22.573,-1.14 33.262,0.494c13.169,1.838 26.154,5.913 38.663,10.699c14.102,5.669 28.019,13.575 41.813,22.972c8.956,7.497 18.14,17.264 26.436,27.709c7.118,9.597 13.636,21.397 18.853,33.84c5.921,14.003 9.59,30.073 11.482,47.497c0.792,10.576 -0.545,21.727 -5.418,30.334c-4.522,9.387 -12.809,13.959 -19.318,17.175c-13.908,7.11 -29.497,4.322 -43.018,1.704c-9.158,-0.005 -19.556,-0.113 -28.503,7.407c-5.331,4.065 -8.55,12.808 -9.412,23.248c-0.65,17.965 10.751,36.174 16.918,47.194c8.05,13.428 16.988,26.179 27.061,35.269c3.475,3.29 7.838,5.902 11.788,8.481c3.95,2.578 8.437,3.699 12.571,4.041c4.548,0.375 8.806,-0.775 13.126,-2.671c4.38,-2.641 9.359,-7.485 13.16,-13.178Z" style="fill:#f8a812;fill-rule:nonzero;"/>
                    </g>
                    <g>
                        <path d="M1387.43,28.435c21.456,-2.733 43.202,-3.941 64.412,-3.692c16.187,0.586 32.312,1.917 47.839,5.451c11.392,3.193 22.784,6.386 33.579,11.782c7.196,3.597 14.682,8.72 21.219,15.265c8.894,8.242 18.061,23.264 18.052,43.534c-0.281,13.491 -1.987,29.117 -6.28,40.775c-4.293,11.658 -10.178,22.434 -16.23,30.193c-6.589,9.216 -14.647,16.059 -22.581,21.41c-8.41,6.063 -17.524,10.566 -26.163,14.357c-23.664,9.308 -47.785,14.074 -71.722,16.603c16.187,0.585 33.429,3.51 48.402,13.755c8.313,5.191 17.331,11.942 23.084,22.928c4.698,8.646 7.909,20.173 8.165,32.207c1.082,12.102 -0.026,25.524 -4.257,36.437c-3.22,8.743 -8.155,18.096 -13.257,24.432c-4.627,5.624 -10.019,10.434 -15.289,13.753c-2.665,2.032 -6.219,4.742 -9.237,5.995c12.237,-1.993 24.764,-2.461 36.755,-1.471c9.509,0.785 18.957,2.316 28.221,6.084c6.431,2.783 13.213,6.346 19.398,12.112c4.302,3.359 8.48,8.208 12.598,13.804c5.938,8.748 11.093,21.937 11.454,37.733c-0.14,6.746 -1.767,16.372 -4.327,22.167c-3.035,6.506 -6.835,12.199 -10.926,16.366c-4.504,4.132 -9.835,8.197 -14.629,10.804c-5.621,2.539 -11.656,5.044 -17.277,7.583c-15.439,5.483 -31.107,8.694 -46.713,11.16c-11.823,2.027 -23.998,3.274 -35.698,3.81c-9.985,-0.074 -19.908,-0.893 -29.418,-1.678c-8.208,-1.429 -16.354,-3.603 -24.025,-6.488c-6.492,-2.038 -12.923,-4.821 -19.231,-9.096c-11.911,-6.989 -23.515,-17.707 -32.207,-33.441c-13.389,-24.379 -25.644,-52.419 -36.184,-81.068c-10.892,-29.429 -21.247,-60.315 -30.3,-91.844c-10.108,-33.869 -19.267,-69.161 -27.537,-105.13c-2.552,-14.476 -4.443,-31.9 -2.737,-47.526c1.521,-13.388 5.647,-28.063 11.057,-38.127c5.533,-11.556 13.776,-20.636 21.482,-28.258c8.533,-7.554 18.245,-14.26 27.772,-18.729c27.05,-15.035 55.43,-20.951 82.736,-23.952Z" style="fill:#ff0041;fill-rule:nonzero;"/>
                    </g>
                    <g>
                        <path d="M1757.85,321.788c12.025,-9.518 25.229,-18.188 38.187,-23.875c8.577,-3.046 18.395,-5.99 27.491,-5.239c5.789,0.478 12.633,3.296 18.052,8.248c3.765,4.815 7.469,10.376 9.809,17.327c6.027,17.765 5.772,41.018 3.635,61.864c-0.968,6.677 -2.762,13.286 -4.081,19.183c-2.868,9.523 -6.501,18.233 -10.134,26.942c-4.583,10.133 -10.345,19.417 -16.459,27.922c-6.65,9.962 -15.183,17.516 -23.179,23.613c-10.187,7.417 -21.368,11.75 -32.013,14.625c-14.55,4.805 -28.792,5.882 -42.973,6.213c-10.399,-0.108 -20.797,-0.216 -30.597,-2.526c-8.146,-2.174 -16.231,-5.094 -23.779,-9.471c-6.369,-3.529 -13.09,-7.838 -18.799,-14.316c-5.006,-4.917 -9.888,-11.327 -13.883,-18.414c-9.58,-15.055 -17.014,-35.94 -20.542,-58.755c-5.121,-23.697 -7.039,-50.883 -7.304,-77.933c-0.08,-29.287 1.142,-59.217 3.191,-89.079c2.832,-34.303 6.491,-68.536 12.155,-101.854c4.821,-28.132 13.01,-56.736 26.311,-76.66c10.389,-14.909 22.308,-28.189 34.563,-35.436c13.204,-8.67 27.279,-12.764 41.046,-13.129c13.354,-0.399 27.289,2.253 39.016,11.48c8.542,7.462 16.363,18.619 20.982,33.265c4.619,14.646 6.449,32.816 6.687,50.103c-0.009,20.271 -1.671,40.404 -4.16,60.47c-6.746,56.502 -19.694,112.493 -33.222,165.432Z" style="fill:#0b84bc;fill-rule:nonzero;"/>
                    </g>
                    <g>
                        <path d="M2205.77,387.296c-2.525,-4.713 -5.278,-11.698 -4.663,-19.155c0.493,-5.965 1.46,-12.642 3.193,-18.506c2.208,-6.574 5.243,-13.081 8.568,-18.062c5.7,-8.539 13.16,-13.178 19.899,-14.123c8.454,-1.555 17.198,-1.584 25.406,-0.155c8.559,2.208 17.471,5.196 25.846,9.641c6.721,4.309 13.855,8.652 20.515,13.706c2.648,3.222 5.709,6.478 7.882,10.411c1.408,3.119 2.754,6.984 3.687,10.815c0.994,3.086 1.038,7.594 0.73,11.322c-0.202,7.491 -2.533,15.558 -4.803,22.878c-2.867,9.523 -6.148,19.013 -9.781,27.722c-4.583,10.133 -8.753,20.299 -13.749,30.398c-4.583,10.132 -9.518,19.485 -14.515,29.584c-11.831,22.297 -24.428,43.781 -37.729,63.704c-7.187,11.42 -15.078,21.279 -23.426,26.596c-6.158,3.996 -13.143,7.924 -19.468,8.904c-5.911,1.013 -12.175,1.247 -18.254,-0.756c-4.011,-1.833 -8.023,-3.666 -11.973,-6.244c-3.123,-2.51 -6.184,-5.766 -8.296,-10.445c-1.759,-3.899 -2.032,-10.679 -1.249,-15.119c1.152,-8.914 5.198,-17.59 8.647,-24.062c-5.745,4.031 -11.427,7.315 -17.11,10.6c-7.337,3.148 -14.551,4.805 -21.703,5.716c-7.979,0.843 -16.309,0.906 -24.104,-0.488c-9.034,-1.497 -18.298,-5.265 -26.673,-9.71c-12.386,-6.278 -24.342,-17.776 -31.609,-35.644c-3.519,-7.798 -5.613,-17.731 -7.355,-26.884c-1.847,-12.916 -1.856,-27.932 -0.748,-41.355c1.187,-19.422 4.916,-39.385 8.523,-57.857c5.585,-27.318 13.238,-54.465 21.119,-79.341c12.298,-38.025 27.366,-74.32 44.96,-105.902c7.785,-13.622 16.335,-26.431 25.238,-38.459c9.852,-13.451 20.76,-24.563 31.484,-33.438c12.087,-10.264 25.229,-18.188 38.126,-23.13c15.5,-6.228 31.168,-9.439 46.589,-9.668c18.729,0.045 37.089,4.564 55.202,12.065c7.196,3.597 14.392,7.195 21.465,12.283c7.135,4.343 14.146,10.177 20.621,17.469c6.123,6.512 11.648,15.226 16.222,25.364c4.223,9.358 7.373,21.631 8.807,34.512c0.502,9.051 -0.835,20.202 -3.289,29.76c-2.577,11.049 -7.222,21.927 -11.744,31.314c-7.371,13.656 -16.273,25.685 -25.053,36.222c-7.706,7.622 -16.177,14.43 -24.279,16.765c-8.164,3.08 -16.433,2.397 -24.166,0.257c-10.565,-3.125 -19.688,-13.638 -27.447,-25.54c-6.889,-7.326 -14.789,-12.483 -23.471,-13.199c-7.856,-0.649 -16.143,3.922 -23.313,10.087c-11.136,8.841 -19.704,26.903 -26.557,44.356c-4.829,13.116 -9.43,28.502 -10.722,44.162c-0.37,4.474 -0.387,9.728 0.484,14.305c0.457,4.542 2.569,9.221 4.865,11.663c3,4.002 7.011,5.834 10.732,6.142c5.727,1.223 12.466,0.278 18.439,-1.481Z" style="fill:#f9ba0b;fill-rule:nonzero;"/>
                    </g>
                    <g>
                        <path d="M2410.95,675.266c-5.727,-1.223 -11.867,-2.481 -17.41,-5.942c-4.425,-1.866 -8.726,-5.225 -12.967,-9.329c-3.475,-3.29 -6.642,-10.308 -8.217,-16.444c-1.451,-7.628 -1.065,-17.356 0.44,-25.491c1.565,-8.88 3.958,-17.692 6.702,-25.724c2.745,-8.032 6.255,-15.25 9.765,-22.468c2.084,-5.083 4.996,-10.098 7.433,-14.402c-3.677,4.201 -7.354,8.403 -11.032,12.604c-5.929,6.267 -12.21,11.755 -18.904,17.208c-7.583,6.131 -15.931,11.449 -24.218,16.02c-8.7,4.537 -18.104,7.515 -27.033,9.781c-7.152,0.911 -14.656,1.042 -21.624,-0.284c-5.313,-1.189 -10.565,-3.124 -15.28,-6.517c-3.95,-2.578 -8.252,-5.937 -12.017,-10.752c-2.235,-3.188 -4.346,-7.867 -5.156,-13.189c-0.457,-4.542 -0.44,-9.796 0.405,-14.982c0.905,-5.932 2.225,-11.829 3.896,-16.946c2.208,-6.575 4.354,-12.404 6.914,-18.199c7.205,-16.673 15.174,-32.533 23.435,-46.866c15.508,-26.499 31.844,-52.929 48.408,-77.088c16.028,-22.702 32.407,-44.624 49.368,-63.495c15.122,-16.77 31.009,-32.727 47.063,-45.666c14.277,-11.585 28.432,-21.678 42.938,-30.991c17.523,-10.566 35.689,-18.826 53.363,-21.121c13.063,-1.925 26.417,-2.324 39.587,-0.486c8.207,1.428 16.828,2.891 24.79,7.302c2.771,1.73 6.369,3.529 9.492,6.039c2.771,1.73 5.481,4.206 8.19,6.682c5.068,4.173 9.827,12.073 13.76,19.906c4.697,8.646 7.724,22.41 9.22,34.546c1.892,17.424 -2.251,37.353 -6.975,54.231c-4.662,16.132 -10.151,32.197 -15.64,48.261c-7.451,19.656 -16.142,39.209 -24.71,57.271c-11.004,22.366 -23.188,43.884 -36.136,64.587c-15.324,24.262 -31.827,47.675 -48.972,68.783c-10.266,13.417 -22.124,25.952 -33.736,35.505c-4.979,4.844 -10.31,8.909 -15.166,12.262c-5.744,4.03 -11.366,6.569 -16.635,9.888c-5.56,1.794 -11.181,4.333 -17.093,5.346c-5.084,1.082 -10.873,0.604 -16.248,0.16Zm60.967,-229.21c-4.715,-3.392 -10.275,-1.599 -15.069,1.008c-5.208,2.573 -10.601,7.384 -14.524,14.568c-2.437,4.303 -7.31,12.91 -6.562,18.978c0.396,5.288 3.396,9.29 5.815,10.24c3.95,2.579 8.973,2.243 12.879,0.313c5.146,-1.828 10.125,-6.672 13.925,-12.365c3.326,-4.981 6.835,-12.199 8.216,-18.842c1.029,-7.422 -1.495,-12.136 -4.68,-13.9Z" style="fill:#ff0041;fill-rule:nonzero;"/>
                    </g>
                    <g>
                        <path d="M2862.4,481.295c6.475,7.292 15.184,17.771 16.909,32.178c1.205,10.611 -1.02,22.439 -4.715,31.895c-4.645,10.878 -11.356,21.585 -17.822,29.31c-6.941,8.437 -14.295,16.839 -22.001,24.461c-6.756,6.2 -13.099,12.433 -20.207,17.852c-3.553,2.71 -7.169,6.166 -10.723,8.875c4.794,-2.607 9.65,-5.96 14.445,-8.567c8.7,-4.538 17.339,-8.329 25.977,-12.121c11.181,-4.332 22.714,-7.885 34.185,-10.691c12.299,-2.739 25.301,-3.918 37.766,-3.64c12.052,0.244 24.747,2.794 36.429,7.512c10.856,4.65 21.465,12.283 30.113,23.508c6.704,9.563 13.804,24.414 9.845,42.106c-2.885,14.777 -9.491,29.247 -16.265,40.701c-9.685,16.468 -21.666,30.495 -33.049,42.318c-19.916,19.378 -40.598,37.942 -61.508,54.234c-18.307,15.006 -37.026,29.978 -55.623,43.458c-18.597,13.48 -37.959,26.147 -56.784,37.356c-12.73,7.958 -25.397,15.171 -38.355,20.858c-10.354,4.401 -20.647,8.056 -31.291,10.931c-8.041,1.589 -16.081,3.177 -23.999,3.275c-6.263,0.233 -12.879,-0.313 -19.019,-1.571c-9.862,-1.564 -20.365,-5.435 -28.248,-15.846c-3.704,-5.561 -8.05,-13.427 -7.663,-23.156c-0.088,-9.016 2.78,-18.54 6.228,-25.012c4.583,-10.133 10.283,-18.671 15.922,-26.464c7.002,-9.183 14.418,-18.33 22.186,-26.699c22.414,-24.426 46.236,-45.734 70.287,-64.77c-15.456,10.736 -31.739,21.404 -48.005,26.819c-9.052,3.757 -18.456,6.734 -27.966,5.949c-5.437,0.302 -12.404,-1.024 -16.873,-7.399c-4.944,-5.663 -8.815,-14.242 -5.411,-25.222c3.466,-11.727 8.876,-21.791 14.515,-29.584c9.025,-13.52 19.106,-24.7 29.539,-35.1c-17.066,15.108 -34.132,30.216 -51.365,42.308c-13.741,10.127 -27.358,18.763 -41.328,26.619c-10.477,5.892 -21.245,10.259 -31.951,13.879c-8.163,3.08 -16.204,4.669 -24.244,6.258c-12.589,1.213 -26.295,0.832 -38.145,-6.903c-4.24,-4.104 -10.011,-9.836 -12.703,-17.566c-1.636,-5.391 -3.15,-12.273 -2.596,-18.984c0.141,-6.745 2.41,-14.066 4.557,-19.895c3.096,-7.252 6.606,-14.47 9.993,-20.197c11.585,-19.315 25.053,-36.221 38.398,-51.637c21.587,-24.495 43.527,-48.21 66.047,-68.875c19.793,-17.886 39.524,-35.026 59.898,-49.862c19.899,-14.123 40.088,-26.721 60.857,-36.269c21.307,-11.004 43.545,-18.177 65.169,-17.894c15.359,0.517 31.071,1.815 45.586,7.518c11.27,4.684 23.181,11.673 33.008,23.746Z" style="fill:#0b84bc;fill-rule:nonzero;"/>
                    </g>
                    <g>
                        <path d="M3150.37,905.985c5.921,14.003 11.719,29.498 15.265,47.058c2.032,10.679 3.818,24.34 2.772,37.017c-0.739,8.949 -2.428,19.32 -5.586,27.318c-2.683,7.286 -6.606,14.47 -10.758,19.383c-11.216,14.84 -25.063,21.205 -37.361,23.944c-12.36,3.484 -24.596,5.477 -36.587,4.487c-9.096,-0.751 -18.896,-3.061 -28.16,-6.829c-7.257,-2.852 -15.157,-8.009 -21.755,-13.809c-6.185,-5.766 -11.894,-12.243 -17.19,-18.687c-11.173,-15.938 -21.272,-34.79 -29.12,-55.709c2.323,12.204 4.276,28.882 -0.14,42.032c-2.867,9.523 -7.741,18.13 -12.781,23.72c-7.231,6.911 -15.456,10.737 -23.145,13.105c-9.879,3.689 -19.573,5.141 -29.435,3.577c-7.856,-0.649 -15.589,-2.789 -23.198,-6.42c-5.191,-2.681 -10.733,-6.142 -15.387,-10.28c-2.709,-2.476 -5.48,-4.206 -7.715,-7.394c4.575,10.138 8.675,20.987 11.472,32.48c1.866,7.662 3.133,17.527 2.394,26.475c-0.554,6.711 -2.058,14.846 -4.618,20.641c-2.146,5.829 -5.472,10.81 -8.322,15.079c-9.377,12.74 -20.681,18.564 -31.387,22.185c-8.516,2.3 -16.97,3.854 -25.239,3.171c-7.442,-0.614 -14.762,-2.72 -21.606,-5.537c-6.431,-2.783 -12.8,-6.312 -18.219,-11.264c-5.481,-4.207 -10.9,-9.159 -15.492,-14.043c-10.715,-11.395 -20.295,-26.451 -28.512,-42.896c-5.464,-9.46 -11.156,-21.192 -14.244,-34.21c-2.217,-8.441 -3.897,-18.34 -4.337,-28.137c-0.212,-7.525 0.527,-16.473 2.383,-23.828c1.443,-7.389 4.064,-13.929 6.624,-19.724c8.383,-15.825 19.291,-26.937 29.953,-35.066c22.564,-16.156 45.419,-30.787 68.15,-43.926c23.972,-13.036 47.944,-26.073 71.792,-37.618c27.693,-12.73 55.676,-23.934 83.95,-33.612c14.075,-4.093 28.027,-6.695 42.208,-7.026c12.527,-0.468 25.283,1.336 37.502,4.597c10.627,2.379 21.483,7.029 31.389,13.102c8.727,5.226 16.978,11.162 24.694,18.556c15.492,14.042 29.726,33.236 39.746,58.088Z" style="fill:#ff0041;fill-rule:nonzero;"/>
                    </g>
                    <g>
                        <path d="M3082.96,1243.53c0.775,15.83 0.186,33.05 -2.348,48.607c-2.348,13.32 -6.825,27.215 -11.408,37.348c-4.997,10.098 -11.234,20.094 -17.224,27.107c-5.991,7.014 -12.809,13.959 -19.442,18.667c-16.467,12.905 -34.51,19.674 -51.831,22.749c-15.193,2.499 -30.262,3.508 -45.209,3.025c-12.052,-0.245 -24.808,-2.048 -36.613,-5.275c-9.325,-3.023 -19.002,-6.825 -28.143,-12.084c-7.486,-5.123 -14.559,-10.211 -21.57,-16.045c-12.369,-11.533 -24.307,-28.284 -31.742,-49.169c-4.39,-12.375 -9.07,-26.276 -10.795,-40.683c-1.267,-9.865 -1.874,-22.678 -0.599,-33.084c0.678,-8.202 3.132,-17.76 6.228,-25.012c3.096,-7.252 7.433,-14.402 11.585,-19.315c11.691,-15.552 26.549,-24.085 40.273,-28.958c10.231,-2.91 21.289,-5.751 31.748,-6.389c8.331,-0.063 16.952,1.4 25.037,4.319c6.492,2.038 12.8,6.313 18.632,11.299c4.654,4.138 9.66,9.056 13.716,15.397c8.111,12.682 13.785,29.668 15.906,49.363c0.158,-12 1.741,-26.134 5.145,-37.114c2.929,-10.269 7.926,-20.368 12.738,-28.229c5.7,-8.539 12.104,-15.518 18.385,-21.006c7.17,-6.165 14.278,-11.584 21.324,-16.258c20.127,-11.853 41.003,-17.637 61.632,-20.439c15.606,-2.465 31.089,-3.439 46.387,-2.176c12.817,1.058 25.987,2.896 38.619,6.191c10.566,3.124 21.07,6.995 31.037,12.322c7.548,4.377 15.448,9.534 22.398,16.114c12.017,10.752 24.016,26.759 29.735,48.253c7.021,20.85 14.604,50.006 9.969,75.901c-3.254,19.251 -10.872,35.89 -20.54,47.105c-10.556,11.891 -22.81,19.138 -34.757,22.657c-11.533,3.552 -23.004,6.359 -34.704,6.895c-10.046,0.672 -20.797,-0.215 -30.535,-3.272c-7.671,-2.885 -15.281,-6.517 -21.879,-12.317c-5.832,-4.986 -11.542,-11.464 -16.363,-18.619c-3.703,-5.561 -7.698,-12.648 -10.803,-20.412c-6.977,-16.342 -11.991,-36.276 -13.989,-57.463Z" style="fill:#f9ba0b;fill-rule:nonzero;"/>
                    </g>
                </g>
            </g>
        </g>
    </g>
    <defs>
        <linearGradient id="_Linear1" x1="0" y1="0" x2="1" y2="0" gradientUnits="userSpaceOnUse" gradientTransform="matrix(1460.05,9.0714,-9.0714,1460.05,1179.58,2124.08)"><stop offset="0" style="stop-color:#c78500;stop-opacity:0.27"/><stop offset="1" style="stop-color:#c78500;stop-opacity:1"/></linearGradient>
    </defs>
</svg>
