<svg xmlns="http://www.w3.org/2000/svg" viewBox="0 0 81.47 75.8">
    <defs>
        <style>.cls-1{fill:#43baff;}</style>
    </defs>
    <title>twitter100x100</title>
    <g id="Layer_2" data-name="Layer 2">
        <g id="Layer_1-2" data-name="Layer 1">
            <path class="cls-1"
                  d="M34.71,74.73c-9.33,0-17-2.65-22.77-7.89A35,35,0,0,1,2.15,50.31a23.86,23.86,0,0,1-1.07-7.48,8.17,8.17,0,0,1,1.29-4.55,2.65,2.65,0,0,1,2.09-1.17h.06c1.47,0,2.62,1.32,3.33,2.38A9.64,9.64,0,0,1,9,41.82a6.4,6.4,0,0,1,.64,0,6.15,6.15,0,0,1,4.31,1.58,24,24,0,0,1,9.89-5.95,30.5,30.5,0,0,1,9-1.24,42,42,0,0,1,4.23.22c-.62-6.21-4.32-14.71-4.36-14.81v0l0,0a15.87,15.87,0,0,1-.86-4.94,15.51,15.51,0,0,1,29.82-6,10.39,10.39,0,0,0,3.4-2.76c1.49-1.56,3-3.18,5.4-3.67a10.83,10.83,0,0,1,2-.2A7.6,7.6,0,0,1,78,6.12c1.55,1.59,2.29,3.88,2.2,6.78L80.15,15l-1.64-1.24c-.05,0-.32-.21-1.25-.21A47.42,47.42,0,0,0,68.79,15L67,15.45l8,1.78-.49,1.17a4.37,4.37,0,0,1-4.27,3,15.87,15.87,0,0,1-4.06-.77,25,25,0,0,0-3.6-.81,14.07,14.07,0,0,1-1.61,4.25l0,0h0c-.71,1.26-.59,3.35.36,6.22a58.54,58.54,0,0,0,4.12,8.9,22.11,22.11,0,0,1,2.08,7.24A27.47,27.47,0,0,0,77.1,40l.93-.92.71,1.09a9.52,9.52,0,0,1,.6,9.74,6.37,6.37,0,0,1-3.69,3.22,8.16,8.16,0,0,1-1.26,5.72A6.89,6.89,0,0,1,68.91,62a6.43,6.43,0,0,1-1.65,4.08,8,8,0,0,1-5.94,2.36,8.63,8.63,0,0,1-2.13-.26c-5.5,4.2-13.49,6.41-23.77,6.56Z"/>
            <path d="M47.34,2.13A14.45,14.45,0,0,1,61,11.89h0C65.07,11.1,66.57,6,70.66,5.2A9.29,9.29,0,0,1,72.48,5C76,5,79.31,7.2,79.15,12.87a3.21,3.21,0,0,0-1.89-.42c-3.55,0-10.45,2.17-15.47,2.94L73.48,18a3.28,3.28,0,0,1-3.28,2.34c-2.34,0-5.41-1.56-8.56-1.65A12.78,12.78,0,0,1,60,23.56v0C58.06,27,61.15,33.65,64.45,39.74a22.27,22.27,0,0,1,2.09,8.15c2.12-.58,6.35-2.27,11.31-7.14,3.47,5.32.28,11.5-3.54,11.5h0c1.3,3.09-.67,8.69-5.86,8.69l-.61,0c.38,4.64-3.34,6.45-6.51,6.45A7.24,7.24,0,0,1,59,67c-4.75,3.82-12.19,6.51-23.57,6.67h-.69c-20,0-28.29-12.44-31.54-23.65C1,42.36,2.68,38.17,4.46,38.17h0c1.79.06,3.57,3.42,3.68,4.85a6.35,6.35,0,0,1,1.46-.16A4.93,4.93,0,0,1,13.92,45a22.3,22.3,0,0,1,10.22-6.55,30,30,0,0,1,8.71-1.18,35.51,35.51,0,0,1,5.37.38C38,31.11,33.7,21.17,33.7,21.17a14.56,14.56,0,0,1-.8-4.59A14.45,14.45,0,0,1,47.34,2.13m0-2.13A16.55,16.55,0,0,0,30.77,16.58a16.91,16.91,0,0,0,.92,5.29l0,.07,0,.08a66.8,66.8,0,0,1,4.1,13.21c-.85-.07-1.87-.11-3-.11a31.72,31.72,0,0,0-9.34,1.28A25.25,25.25,0,0,0,13.88,42a7.46,7.46,0,0,0-4.16-1.22,11.56,11.56,0,0,0-1-1.83C7.52,37.08,6.07,36.09,4.55,36H4.46a3.7,3.7,0,0,0-2.95,1.6c-1.87,2.49-2,7.34-.38,13A41.88,41.88,0,0,0,4.8,59.49a32.27,32.27,0,0,0,6.43,8.14c6,5.42,13.88,8.17,23.48,8.17h.72c10.27-.14,18.34-2.32,24-6.48a9.67,9.67,0,0,0,1.88.18A9.06,9.06,0,0,0,68,66.79,7.23,7.23,0,0,0,69.87,63,7.61,7.61,0,0,0,72.52,62a8.12,8.12,0,0,0,2.76-2.59,9.36,9.36,0,0,0,1.47-4,9,9,0,0,0,0-1.63,7.14,7.14,0,0,0,1.06-.62,8.24,8.24,0,0,0,2.42-2.79,10.09,10.09,0,0,0,1.18-5.12,11.05,11.05,0,0,0-1.83-5.71L78.21,37.4l-1.86,1.83a28.05,28.05,0,0,1-8,5.75,21.78,21.78,0,0,0-2-6.26,58.64,58.64,0,0,1-4-8.73c-1.12-3.36-.76-4.8-.45-5.36l0,0v0h0A15.6,15.6,0,0,0,63.35,21c.83.17,1.68.4,2.5.63a17,17,0,0,0,4.35.81,5.42,5.42,0,0,0,5.25-3.64l1-2.35L74,15.91l-2.17-.48a30.4,30.4,0,0,1,5.48-.85,3.18,3.18,0,0,1,.7.06l3.2,2.41.12-4.12a12.53,12.53,0,0,0-.58-4.32,8.35,8.35,0,0,0-1.93-3.23,8.64,8.64,0,0,0-6.29-2.5,11.43,11.43,0,0,0-2.24.23c-2.71.55-4.43,2.37-6,4a15.69,15.69,0,0,1-2.14,2A16.59,16.59,0,0,0,47.34,0Z"/>
        </g>
    </g>
</svg>