<svg width="100%" height="100%" viewBox="0 0 100 100" version="1.1" xmlns="http://www.w3.org/2000/svg" xmlns:xlink="http://www.w3.org/1999/xlink" xml:space="preserve" style="fill-rule:evenodd;clip-rule:evenodd;stroke-linejoin:round;stroke-miterlimit:1.41421;"><g><path d="M70.207,17.034c-8.967,-2.397 -10.127,1.558 -2.611,3.432c-0.537,1.195 -0.834,2.519 -0.834,3.915c0,4.538 3.161,8.333 7.4,9.315c1.177,0.889 2.637,1.418 4.213,1.418c3.86,0 7.037,-3.171 7.037,-7.03c0,-0.205 -0.016,-0.408 -0.034,-0.609c0.333,-0.972 0.517,-2.009 0.517,-3.094c0,-5.282 -4.283,-9.567 -9.566,-9.567c-2.33,0 -4.463,0.835 -6.122,2.22Z" style="fill:#751a83;fill-rule:nonzero;stroke:#000;stroke-width:0.15px;"/><path d="M17.756,36.789c-1.138,-4.97 -5.181,-4.891 -3.929,0.584c-4.569,1.701 -7.177,6.636 -5.89,11.441c0.68,2.536 2.311,4.557 4.413,5.784c1.682,2.183 4.587,3.271 7.4,2.517c2.446,-0.655 4.252,-2.555 4.923,-4.836c0,-0.002 -0.001,-0.005 0,-0.007c1.809,-2.29 2.555,-5.378 1.742,-8.414c-1.093,-4.079 -4.664,-6.827 -8.659,-7.069Z" style="fill:#751a83;fill-rule:nonzero;stroke:#000;stroke-width:0.15px;"/><path d="M86.889,52.816c-8.613,-5.608 -10.976,-2.283 -3.564,2.418c-1.586,1.707 -2.558,3.992 -2.558,6.506c0,4.077 2.55,7.554 6.142,8.931c1.287,1.7 3.326,2.809 5.605,2.809c3.858,0 7.029,-3.171 7.029,-7.029c0,-0.535 -0.064,-1.056 -0.179,-1.557c0.346,-0.989 0.53,-2.048 0.53,-3.154c0,-5.283 -4.277,-9.567 -9.56,-9.567c-1.216,0 -2.375,0.229 -3.445,0.643Z" style="fill:#751a83;fill-rule:nonzero;stroke:#000;stroke-width:0.15px;"/><path d="M35.57,62.349c0.066,-9.636 -3.898,-8.694 -3.968,-0.285c-4.663,0.64 -8.255,4.636 -8.255,9.474c0,2.008 0.619,3.868 1.676,5.406c0.21,3.676 3.291,6.632 7.016,6.632c2.886,0 5.382,-1.772 6.459,-4.28c2.409,-1.737 3.982,-4.561 3.982,-7.758c0,-4.36 -2.92,-8.036 -6.91,-9.189Z" style="fill:#751a83;fill-rule:nonzero;stroke:#000;stroke-width:0.15px;"/><path d="M82.046,81.344c-5.727,-13.382 -6.996,-6.36 -3.459,2.007c-1.924,1.75 -3.134,4.276 -3.134,7.082c0,5.283 4.277,9.567 9.561,9.567c1.367,0 2.666,-0.285 3.842,-0.801c0.121,0.006 0.241,0.006 0.364,0.006c3.859,0 7.03,-3.171 7.03,-7.029c0,-2.05 -0.895,-3.905 -2.313,-5.194c-1.384,-3.575 -4.858,-6.115 -8.923,-6.115c-1.038,0 -2.033,0.171 -2.968,0.477Z" style="fill:#751a83;fill-rule:nonzero;stroke:#000;stroke-width:0.15px;"/><path d="M58.572,79.383c1.558,-7.257 -2.397,-7.717 -3.869,-0.855c-0.028,0 -0.057,0 -0.086,0c-5.283,0 -9.567,4.283 -9.567,9.567c0,2.211 0.754,4.249 2.014,5.869c0.683,3.163 3.515,5.559 6.871,5.559c2.585,0 4.861,-1.424 6.082,-3.524c2.517,-1.723 4.167,-4.623 4.167,-7.904c0,-3.872 -2.303,-7.207 -5.612,-8.712Z" style="fill:#751a83;fill-rule:nonzero;stroke:#000;stroke-width:0.15px;"/></g><path d="M0.106,0l0,8.473c1.587,0.482 3.177,1.027 4.763,1.631l5.181,10.314c1.205,5.537 2.525,11.48 3.777,16.955c-4.569,1.701 7.924,-0.342 3.929,-0.584c-1.138,-4.97 -2.33,-10.352 -3.452,-15.483l-0.258,-7.082c6.413,3.304 12.739,7.424 18.842,12.057l0.92,11.807c-1.448,7.562 -2.136,15.567 -2.206,23.976c-4.663,0.64 7.958,1.438 3.968,0.285c0.066,-9.636 0.951,-18.658 2.862,-27.011l2.008,-2.974c4.579,3.893 8.984,8.017 13.157,12.223c2.489,3.023 4.925,6.075 7.275,9.176l0.152,5.903c-2.811,5.678 -4.849,12 -6.321,18.862c-0.028,0 -0.057,0 -0.086,0c-5.283,0 7.264,2.36 3.955,0.855c1.558,-7.257 3.751,-13.781 6.784,-19.472c5.143,7.359 9.694,15.073 13.231,23.44c-1.924,1.75 4.394,-2.313 3.459,-2.007c-5.727,-13.382 -13.88,-25.033 -22.771,-36.074c-0.183,-0.284 -0.371,-0.565 -0.556,-0.848l2.391,-0.047c7.425,2.469 14.803,6.158 22.215,10.859c-1.586,1.707 4.634,-2.832 3.564,-2.418c-8.613,-5.608 -17.267,-9.965 -26.096,-12.7l-7.553,-3.67c-4.783,-6.599 -10.002,-12.904 -15.749,-18.849l7.023,-0.762c7.837,0.726 15.566,1.757 23.082,3.631c-0.537,1.195 4.27,-4.817 2.611,-3.432c-8.967,-2.397 -18.129,-3.547 -27.296,-4.333l-13.953,-3.319c-3.656,-3.263 -7.505,-6.394 -11.567,-9.382l-17.285,0l0,0Z" style="fill:#025f04;fill-rule:nonzero;stroke:#000;stroke-width:0.15px;"/><g><path d="M78.376,25.017c1.718,0 3.067,1.349 3.067,3.067c0,1.718 -1.349,3.068 -3.067,3.068c-1.718,0 -3.067,-1.35 -3.067,-3.068c0,-1.717 1.349,-3.067 3.067,-3.067l0,0Z" style="fill:#b400d1;fill-rule:nonzero;stroke:#000;stroke-width:0.15px;"/><path d="M92.514,63.383c1.717,0 3.067,1.35 3.067,3.067c0,1.718 -1.349,3.068 -3.067,3.068c-1.718,0 -3.068,-1.35 -3.068,-3.068c0,-1.717 1.35,-3.067 3.068,-3.067l0,0Z" style="fill:#b400d1;fill-rule:nonzero;stroke:#000;stroke-width:0.15px;"/><path d="M32.04,73.48c1.717,0 3.067,1.35 3.067,3.067c0,1.718 -1.35,3.068 -3.068,3.068c-1.717,0 -3.067,-1.35 -3.067,-3.068c0,-1.717 1.35,-3.067 3.068,-3.067Z" style="fill:#b400d1;fill-rule:nonzero;stroke:#000;stroke-width:0.15px;"/><path d="M18.021,47.251c1.327,0.029 2.51,0.918 2.875,2.279c0.444,1.659 -0.514,3.311 -2.173,3.756c-1.659,0.445 -3.312,-0.507 -3.757,-2.167c-0.444,-1.659 0.514,-3.311 2.173,-3.756c0.208,-0.055 0.411,-0.093 0.617,-0.106c0.089,-0.006 0.176,-0.009 0.265,-0.006l0,0Z" style="fill:#b400d1;fill-rule:nonzero;stroke:#000;stroke-width:0.15px;"/><path d="M89.221,89.109c1.718,0 3.068,1.349 3.068,3.067c0,1.717 -1.35,3.068 -3.068,3.068c-1.718,-0.001 -3.067,-1.351 -3.067,-3.068c0,-1.718 1.349,-3.068 3.067,-3.068l0,0.001Z" style="fill:#b400d1;fill-rule:nonzero;stroke:#000;stroke-width:0.15px;"/><path d="M53.935,89.427c1.718,0 3.068,1.349 3.068,3.067c0,1.717 -1.35,3.068 -3.068,3.068c-1.717,-0.001 -3.067,-1.351 -3.067,-3.068c0,-1.718 1.35,-3.068 3.067,-3.068l0,0.001Z" style="fill:#b400d1;fill-rule:nonzero;stroke:#000;stroke-width:0.15px;"/></g></svg>