<?xml version="1.0" encoding="UTF-8" standalone="no"?><!DOCTYPE svg PUBLIC "-//W3C//DTD SVG 1.1//EN" "http://www.w3.org/Graphics/SVG/1.1/DTD/svg11.dtd"><svg width="100%" height="100%" viewBox="0 0 100 100" version="1.1" xmlns="http://www.w3.org/2000/svg" xmlns:xlink="http://www.w3.org/1999/xlink" xml:space="preserve" style="fill-rule:evenodd;clip-rule:evenodd;stroke-linejoin:round;stroke-miterlimit:1.41421;"><path id="path3704" d="M37.173,0.01c2.584,-0.366 42.271,9.239 43.936,10.555c1.942,1.536 18.867,37.964 18.891,40.488c0.024,2.523 -18.692,38.223 -20.37,39.787c-1.679,1.564 -42.019,9.758 -44.292,9.125c-2.273,-0.632 -33.928,-26.211 -34.861,-28.408c-0.932,-2.197 -0.414,-42.42 0.821,-44.549c1.243,-2.14 33.194,-26.618 35.875,-26.998l0,0Z" style="fill:#595959;fill-rule:nonzero;"/><path id="path3706" d="M41.464,1.947c2.291,-0.325 37.48,8.192 38.955,9.359c1.723,1.362 16.73,33.662 16.751,35.9c0.022,2.237 -16.572,33.891 -18.06,35.277c-1.489,1.388 -37.258,8.651 -39.273,8.092c-2.015,-0.561 -30.084,-23.241 -30.911,-25.189c-0.825,-1.948 -0.367,-37.613 0.729,-39.501c1.101,-1.898 29.432,-23.601 31.809,-23.938l0,0Z" style="fill:#989898;fill-rule:nonzero;"/><path id="path3710" d="M77.22,72.035c-6.894,-2.487 -6.906,2.273 -8.651,1.529c-1.897,-0.81 -0.841,-11.737 -1.25,-13.834c-1.332,-6.85 -8.297,-16.75 -6.047,-20.353c0.586,-0.941 4.499,3.869 6.107,2.972c3.628,-2.023 2.687,5.051 3.341,10.873c0.679,6.056 1.282,8.086 3.691,10.808c2.443,2.759 6.088,9.189 2.809,8.005l0,0Z" style="fill:url(#_Radial1);fill-rule:nonzero;"/><path id="path3708" d="M82.361,21.655c1.505,-0.717 -1.452,-4.45 1.095,-4.821c0.513,-0.075 1.01,0.096 1.459,0.418c0,0 1.378,2.635 3.652,7.455c2.286,4.832 4.464,9.53 4.464,9.53c-0.017,0.078 0.001,0.119 -0.02,0.194c0,0 0.683,2.747 0.123,3.237c-0.864,0.728 -3.416,0.068 -4.144,-0.354c-0.569,-0.33 -0.803,-0.89 -0.828,-1.577c-0.101,-3.778 -9.929,-4.772 -11.444,-7.504c-1.062,-1.913 -1.317,-7.616 0.94,-8.814c1.532,-0.813 3.451,2.832 4.702,2.236l0.001,0Z" style="fill:url(#_Radial2);fill-rule:nonzero;"/><path id="path3712" d="M50.423,15.491c2.559,3.129 -8.546,6.693 -7.594,9.423c0.91,2.611 7.913,0.019 5.229,3.109c-2.088,2.404 -11.243,3.475 -13.168,6.791c-0.69,1.188 -3.977,8.431 -6.318,10.039c-4.945,3.396 -6.568,-8.272 -5.038,-10.78c1.991,-3.265 2.04,-5.347 6.933,-6.907c2.964,-0.945 3.817,-3.445 4.719,-6.419c0.803,-2.647 6.194,-2.191 7.024,-4.545c0.602,-1.706 6.801,-2.438 8.213,-0.711l0,0Z" style="fill:url(#_Radial3);fill-rule:nonzero;"/><path id="path3714" d="M26.957,67.413c-0.599,-2.386 0.049,-5.341 1.706,-7.179c1.647,-1.826 4.557,-2.959 6.993,-2.502c2.004,0.375 2.748,3.114 4.583,3.992c1.972,0.944 5.002,-0.439 6.471,1.164c2.812,3.065 3.693,9.194 0.991,12.354c-2.299,2.687 -7.217,1.896 -10.658,0.969c-2.485,-0.67 -4.361,-2.749 -6.262,-4.462c-1.434,-1.292 -3.357,-2.478 -3.824,-4.336l0,0Z" style="fill:url(#_Radial4);fill-rule:nonzero;"/><defs><radialGradient id="_Radial1" cx="0" cy="0" r="1" gradientUnits="userSpaceOnUse" gradientTransform="matrix(15.0578,-2.04614,2.32234,17.0904,68.676,56.196)"><stop offset="0" style="stop-color:#a5a5a5;stop-opacity:1"/><stop offset="1" style="stop-color:#a46262;stop-opacity:1"/></radialGradient><radialGradient id="_Radial2" cx="0" cy="0" r="1" gradientUnits="userSpaceOnUse" gradientTransform="matrix(8.71234,0,0,10.5887,84.6422,27.4051)"><stop offset="0" style="stop-color:#a5a5a5;stop-opacity:1"/><stop offset="1" style="stop-color:#a46262;stop-opacity:1"/></radialGradient><radialGradient id="_Radial3" cx="0" cy="0" r="1" gradientUnits="userSpaceOnUse" gradientTransform="matrix(-14.1983,12.6294,-11.3576,-12.7685,34.235,30.4921)"><stop offset="0" style="stop-color:#a5a5a5;stop-opacity:1"/><stop offset="1" style="stop-color:#a46262;stop-opacity:1"/></radialGradient><radialGradient id="_Radial4" cx="0" cy="0" r="1" gradientUnits="userSpaceOnUse" gradientTransform="matrix(11.9549,6.63978,-5.82651,10.4906,38.0348,67.3566)"><stop offset="0" style="stop-color:#a5a5a5;stop-opacity:1"/><stop offset="1" style="stop-color:#a46262;stop-opacity:1"/></radialGradient></defs></svg>