<svg width="100%" height="100%" viewBox="0 0 100 100" version="1.1" xmlns="http://www.w3.org/2000/svg" xmlns:xlink="http://www.w3.org/1999/xlink" xml:space="preserve" style="fill-rule:evenodd;clip-rule:evenodd;stroke-linejoin:round;stroke-miterlimit:1.41421;"><g><g><path d="M33.204,0.15c-6.062,0.005 -12.946,3.433 -18.039,11.57c14.844,-5.114 14.662,4.001 27.271,7.75c2.682,3.826 4.513,8.618 5.758,15.147c0.222,1.917 0.299,3.971 0.314,6.099c0.033,4.935 -0.365,10.22 -0.645,14.624l0,0.001c-0.085,1.465 0.624,3.772 1.947,6.159c0.576,1.04 1.269,2.093 2.01,3.126c0.618,-12.436 0.219,-23.729 2.364,-33.861c1.494,-4.071 3.508,-7.49 6.048,-10.31c14.179,-3.105 12.405,-12.272 29.567,-6.95c-6.839,-8.181 -15.14,-11.556 -21.888,-11.435c-9.211,0.165 -15.525,6.844 -11.273,16.707c-2.391,2.859 -4.35,6.188 -5.846,9.984c-1.148,-4.018 -2.637,-7.448 -4.52,-10.425c3.014,-10.757 -4.132,-18.193 -13.068,-18.186l0,0Z" style="fill:#87fc94;fill-rule:nonzero;stroke:#000;stroke-width:0.19px;"/><path d="M40.594,35.79l-15.834,0.371l-14.559,19.924l15.128,14.099l18.875,-1.82l-18.676,7.607l-12.035,-11.513l7.908,17.651l23.158,6.044l-20.845,-0.88l1.168,2.606l35.031,9.971l26.812,-14.867l0,-0.002l-6.644,-9.463l-19.887,8.886l20.793,-15.126l5.894,8.798l0.373,-16.61l-13.957,-16.412l-11.671,-2.645l-5.119,7.645l1.458,5.485l-1.962,3.105c-0.11,3.299 -0.255,6.711 -0.499,10.229l4.866,6.822l-7.572,8.748l3.254,6.683l-7.785,-7.438l7.121,-8.227l-2.327,-3.262l-1.023,-1.105c-2.101,-2.268 -4.136,-4.949 -5.657,-7.694c-1.028,-1.855 -1.848,-3.733 -2.223,-5.604l-3.801,-7.663l3.217,-8.394l0.116,-0.01l-3.096,-5.939l0,0Z" style="fill:#612a11;fill-rule:nonzero;stroke:#000;stroke-width:0.19px;"/></g></g></svg>