<svg width="100%" height="100%" viewBox="0 0 100 100" version="1.1" xmlns="http://www.w3.org/2000/svg" xmlns:xlink="http://www.w3.org/1999/xlink" xml:space="preserve" style="fill-rule:evenodd;clip-rule:evenodd;stroke-linecap:round;stroke-linejoin:round;stroke-miterlimit:1.5;"><g><path d="M76.035,24.42c1.094,-1.205 -2.686,-2.241 -3.494,-3.049c-0.53,-0.53 -0.782,-2.344 -1.354,-1.799c-11.595,11.07 -57.654,56.039 -68.217,68.217c-1.576,1.818 3.031,6.425 4.849,4.848c12.177,-10.562 57.429,-56.339 68.216,-68.217l0,0Z" style="fill:url(#_Linear1);stroke:#000;stroke-width:0.29px;"/><path d="M97.373,43.436c-0.386,-0.255 -2.063,-1.257 -3.731,-2.198c-3.177,-1.825 -8.163,-5.304 -13.276,-9.248c-2.611,-2.013 -3.537,-2.888 -4.746,-4.383c-0.082,-0.107 -6.209,-6.261 -6.589,-6.641c-0.557,-0.557 -2.325,-0.401 -2.999,0.249c-0.376,0.352 -0.679,0.23 -1.474,-0.565c-0.557,-0.557 -1.837,-1.518 -2.785,-2.24c-1.093,-0.833 -2.481,-1.876 -3.767,-2.754c-1.499,-1.022 -3.664,-2.382 -5.226,-3.381c-1.375,-0.88 -6.898,-4.066 -8.405,-4.726c-3.207,-1.403 -6.892,-3.229 -10.843,-3.699c-4.629,-0.55 -11.862,0.177 -20.715,3.481c-3.506,1.301 -3.38,1.696 -3.163,2.367c0.253,0.784 0.721,1.37 1.569,1.63c0.794,0.244 9.021,-1.192 12.437,-1.191c2.752,0.002 6.024,0.787 8.061,1.2c1.435,0.293 3.263,0.946 4.163,1.288c1.466,0.557 10.433,5.189 14.94,8.814c1.459,1.173 4.424,3.198 5.253,4.522c0.976,1.561 1.608,2.962 0.605,4.842c-0.663,1.208 0.654,2.897 1.298,3.89c0.538,0.831 1.504,1.569 2.162,2.323c0.818,0.941 2.79,3.52 2.79,3.52c0.22,0.349 1.299,1.686 2.098,2.642c1.128,1.337 2.027,3.118 3.86,7.757c1.324,3.298 2.622,6.388 2.886,6.835c0.277,0.458 2.072,4.045 2.853,5.659c1.618,3.384 1.128,3.258 5.596,1.516c7.119,-2.779 15.197,-10.833 17.924,-17.899c0.832,-2.183 0.752,-2.601 -0.776,-3.61l0,0Z" style="fill:url(#_Radial2);stroke:#000;stroke-width:0.29px;stroke-linecap:butt;stroke-miterlimit:1.41421;"/><path d="M96.904,43.638c-0.167,-0.113 -4.328,9.576 -9.301,13.705c-6.069,5.039 -12.492,6.103 -12.076,6.961c0.093,0.193 -0.11,-0.227 0,0c0.911,1.87 1.161,1.557 4.788,0.143c6.887,-2.689 14.703,-10.481 17.342,-17.318c0.803,-2.111 0.726,-2.516 -0.753,-3.491l0,0Z" style="fill:url(#_Radial3);"/></g><defs><linearGradient id="_Linear1" x1="0" y1="0" x2="1" y2="0" gradientUnits="userSpaceOnUse" gradientTransform="matrix(4.84778,4.84778,-5.1877,5.1877,37.0789,53.6806)"><stop offset="0" style="stop-color:#301203;stop-opacity:1"/><stop offset="0.5" style="stop-color:#582106;stop-opacity:1"/><stop offset="1" style="stop-color:#301203;stop-opacity:1"/></linearGradient><radialGradient id="_Radial2" cx="0" cy="0" r="1" gradientUnits="userSpaceOnUse" gradientTransform="matrix(39.319,-39.7506,36.5521,36.0979,49.2579,45.4755)"><stop offset="0" style="stop-color:#999;stop-opacity:1"/><stop offset="0.59" style="stop-color:#8b8b8b;stop-opacity:1"/><stop offset="0.8" style="stop-color:#6b6b6b;stop-opacity:1"/><stop offset="1" style="stop-color:#4b4b4b;stop-opacity:1"/></radialGradient><radialGradient id="_Radial3" cx="0" cy="0" r="1" gradientUnits="userSpaceOnUse" gradientTransform="matrix(38.0402,-38.4578,35.3634,34.9239,50.355,45.6102)"><stop offset="0" style="stop-color:#999;stop-opacity:1"/><stop offset="0.66" style="stop-color:#8e8e8e;stop-opacity:1"/><stop offset="0.85" style="stop-color:#707070;stop-opacity:1"/><stop offset="1" style="stop-color:#4b4b4b;stop-opacity:1"/></radialGradient></defs></svg>