<svg width="100%" height="100%" viewBox="0 0 100 100" version="1.1" xmlns="http://www.w3.org/2000/svg" xmlns:xlink="http://www.w3.org/1999/xlink" xml:space="preserve" style="fill-rule:evenodd;clip-rule:evenodd;"><path d="M82.942,21.709c2.85,-3.611 2.231,-8.857 -1.38,-11.706c-3.611,-2.85 -8.857,-2.232 -11.707,1.38l-52.797,66.908c-2.85,3.611 -2.231,8.857 1.38,11.706c3.611,2.85 8.857,2.232 11.707,-1.38l52.797,-66.908Z" style="fill:#4e1700;stroke:#230b00;stroke-width:0.99px;"/><path d="M30.919,89.006c-1.19,4.444 1.451,9.018 5.894,10.208c4.444,1.191 9.018,-1.45 10.209,-5.893l22.059,-82.327c1.19,-4.444 -1.451,-9.018 -5.894,-10.208c-4.444,-1.191 -9.018,1.45 -10.209,5.893l-22.059,82.327Z" style="fill:#4e1700;stroke:#230b00;stroke-width:0.99px;"/></svg>