<svg width="160px" height="90px" viewBox="0 0 160 90" version="1.1" xmlns="http://www.w3.org/2000/svg" xmlns:xlink="http://www.w3.org/1999/xlink" xml:space="preserve" xmlns:serif="http://www.serif.com/" style="fill-rule:evenodd;clip-rule:evenodd;stroke-linejoin:round;stroke-miterlimit:1.41421;"><g><g><rect x="-0.5" y="-0.358" width="161" height="44.719" style="fill:url(#_Linear1);"/><path d="M24.378,90.833l0,-91.666l-25,0l0,91.666l25,0Z" style="fill:url(#_Linear2);"/></g><g><path d="M10.505,4.737c-0.096,0.071 -0.167,0.453 -0.167,0.834c0,0.644 -0.072,0.691 -0.763,0.62c-1.025,-0.096 -1.072,0.357 -0.071,1.025c0.739,0.5 0.834,0.691 0.834,1.573c0,1.192 -0.334,1.311 -1.43,0.5c-0.62,-0.453 -0.715,-0.667 -0.715,-1.692c0,-1.335 -0.453,-1.454 -0.835,-0.215c-0.166,0.573 -0.309,0.739 -0.595,0.62c-0.882,-0.381 -1.431,-0.381 -1.431,-0.024c0,0.215 0.143,0.477 0.31,0.572c0.143,0.096 0.429,0.382 0.62,0.596c0.286,0.382 0.238,0.453 -0.334,0.668c-0.667,0.262 -0.619,0.715 0.12,0.715c0.238,0 0.762,-0.191 1.144,-0.405c0.667,-0.382 0.762,-0.382 1.168,-0.048c0.238,0.214 0.643,0.453 0.882,0.548c0.429,0.143 0.429,0.191 -0.096,0.739c-0.691,0.739 -1.597,0.763 -2.717,0.095c-0.787,-0.452 -0.858,-0.452 -1.001,-0.095c-0.096,0.238 0.024,0.524 0.357,0.739c0.62,0.453 0.644,0.953 0.024,1.287c-0.524,0.286 -0.643,0.977 -0.167,0.93c0.143,-0.024 0.549,-0.096 0.882,-0.191c0.525,-0.143 0.62,-0.072 0.858,0.548c0.406,1.192 0.811,1.049 0.811,-0.286c0,-1.072 0.071,-1.239 0.834,-1.811c0.453,-0.358 0.953,-0.572 1.073,-0.501c0.381,0.238 0.286,1.978 -0.143,2.312c-0.906,0.739 -1.288,1.168 -1.288,1.383c0,0.31 0.549,0.31 0.882,-0.024c0.429,-0.429 0.787,-0.024 0.787,0.882c0,0.524 0.119,0.81 0.334,0.81c0.357,0 0.619,-0.5 0.619,-1.239c0,-0.477 0.12,-0.501 1.431,-0.167c0.691,0.191 0.357,-0.715 -0.477,-1.263c-0.691,-0.477 -0.834,-0.716 -0.906,-1.574c-0.095,-1.168 0.286,-1.311 1.383,-0.524c0.548,0.381 0.715,0.715 0.762,1.502c0.048,0.715 0.191,1.025 0.477,1.072c0.262,0.048 0.429,-0.119 0.477,-0.476c0.071,-0.477 0.19,-0.549 0.977,-0.501c0.739,0.048 0.882,-0.024 0.882,-0.405c0,-0.262 -0.143,-0.477 -0.334,-0.477c-0.62,0 -0.691,-0.5 -0.19,-1.192c0.667,-0.882 0.238,-1.382 -0.62,-0.715c-0.763,0.62 -1.74,0.596 -2.455,0l-0.572,-0.476l0.596,-0.477c0.858,-0.691 1.406,-0.811 1.859,-0.405c0.214,0.166 0.596,0.405 0.834,0.476c0.62,0.215 0.81,-0.5 0.262,-0.905c-0.429,-0.334 -0.429,-0.382 0.215,-0.93c0.357,-0.334 0.643,-0.715 0.643,-0.858c0,-0.31 -1.025,-0.31 -1.358,0.024c-0.358,0.357 -0.787,0.071 -0.787,-0.525c0,-0.286 -0.167,-0.453 -0.477,-0.453c-0.405,0 -0.476,0.167 -0.476,0.93c0,0.739 -0.143,1.049 -0.62,1.43c-1.025,0.811 -1.526,0.668 -1.526,-0.429c0,-0.739 0.143,-1.049 0.62,-1.43c0.358,-0.286 0.787,-0.501 0.977,-0.501c0.191,0 0.31,-0.166 0.263,-0.429c-0.072,-0.309 -0.286,-0.381 -0.978,-0.333c-0.739,0.071 -0.882,0.024 -0.882,-0.382c0,-0.953 -0.381,-1.478 -0.786,-1.072Z" style="fill:#33b4ff;fill-opacity:0.670588;fill-rule:nonzero;"/><path d="M118.549,0.663c-0.074,0.056 -0.129,0.35 -0.129,0.645c0,0.498 -0.056,0.534 -0.59,0.479c-0.792,-0.074 -0.829,0.277 -0.055,0.792c0.571,0.387 0.645,0.535 0.645,1.216c0,0.921 -0.258,1.013 -1.106,0.387c-0.479,-0.35 -0.552,-0.516 -0.552,-1.308c0,-1.032 -0.35,-1.124 -0.645,-0.166c-0.129,0.442 -0.24,0.571 -0.461,0.479c-0.681,-0.294 -1.105,-0.294 -1.105,-0.018c0,0.166 0.111,0.368 0.239,0.442c0.111,0.074 0.332,0.295 0.479,0.461c0.222,0.294 0.185,0.35 -0.257,0.515c-0.516,0.203 -0.479,0.553 0.092,0.553c0.184,0 0.589,-0.147 0.884,-0.313c0.516,-0.295 0.589,-0.295 0.903,-0.037c0.184,0.166 0.497,0.35 0.681,0.424c0.332,0.11 0.332,0.147 -0.073,0.571c-0.535,0.571 -1.235,0.589 -2.101,0.074c-0.608,-0.351 -0.663,-0.351 -0.773,-0.074c-0.074,0.184 0.018,0.405 0.276,0.571c0.479,0.35 0.497,0.737 0.018,0.995c-0.405,0.221 -0.497,0.755 -0.129,0.718c0.111,-0.018 0.424,-0.073 0.682,-0.147c0.405,-0.111 0.479,-0.055 0.663,0.424c0.313,0.921 0.627,0.81 0.627,-0.222c0,-0.829 0.055,-0.958 0.644,-1.4c0.35,-0.276 0.737,-0.442 0.829,-0.387c0.295,0.185 0.222,1.53 -0.11,1.787c-0.7,0.572 -0.995,0.903 -0.995,1.069c0,0.239 0.424,0.239 0.682,-0.018c0.331,-0.332 0.608,-0.019 0.608,0.681c0,0.405 0.092,0.627 0.258,0.627c0.276,0 0.479,-0.387 0.479,-0.958c0,-0.369 0.092,-0.387 1.105,-0.129c0.534,0.147 0.276,-0.553 -0.369,-0.977c-0.534,-0.368 -0.644,-0.552 -0.7,-1.216c-0.073,-0.902 0.221,-1.013 1.069,-0.405c0.424,0.295 0.553,0.553 0.589,1.161c0.037,0.552 0.148,0.792 0.369,0.829c0.203,0.037 0.331,-0.092 0.368,-0.369c0.056,-0.368 0.148,-0.423 0.756,-0.387c0.571,0.037 0.681,-0.018 0.681,-0.313c0,-0.202 -0.11,-0.368 -0.258,-0.368c-0.479,0 -0.534,-0.387 -0.147,-0.921c0.516,-0.682 0.184,-1.069 -0.479,-0.553c-0.59,0.479 -1.345,0.46 -1.898,0l-0.442,-0.369l0.461,-0.368c0.663,-0.534 1.087,-0.626 1.437,-0.313c0.166,0.129 0.46,0.313 0.645,0.368c0.479,0.166 0.626,-0.387 0.202,-0.7c-0.331,-0.258 -0.331,-0.295 0.166,-0.718c0.276,-0.258 0.497,-0.553 0.497,-0.663c0,-0.24 -0.792,-0.24 -1.05,0.018c-0.276,0.276 -0.608,0.055 -0.608,-0.405c0,-0.221 -0.128,-0.35 -0.368,-0.35c-0.313,0 -0.368,0.129 -0.368,0.718c0,0.571 -0.111,0.811 -0.479,1.105c-0.793,0.627 -1.179,0.516 -1.179,-0.331c0,-0.571 0.11,-0.811 0.479,-1.105c0.276,-0.222 0.607,-0.387 0.755,-0.387c0.147,0 0.239,-0.129 0.203,-0.332c-0.056,-0.239 -0.222,-0.295 -0.756,-0.258c-0.571,0.055 -0.681,0.019 -0.681,-0.295c0,-0.736 -0.295,-1.142 -0.608,-0.829Z" style="fill:#33b4ff;fill-opacity:0.670588;fill-rule:nonzero;"/><path d="M55.76,7.66c-0.042,0.032 -0.074,0.202 -0.074,0.373c0,0.287 -0.032,0.308 -0.341,0.276c-0.457,-0.042 -0.479,0.16 -0.032,0.458c0.33,0.224 0.373,0.309 0.373,0.703c0,0.532 -0.149,0.585 -0.639,0.223c-0.277,-0.202 -0.319,-0.298 -0.319,-0.756c0,-0.596 -0.202,-0.649 -0.373,-0.095c-0.074,0.255 -0.138,0.33 -0.266,0.276c-0.394,-0.17 -0.639,-0.17 -0.639,-0.01c0,0.096 0.064,0.213 0.139,0.255c0.064,0.043 0.191,0.171 0.277,0.266c0.127,0.171 0.106,0.203 -0.149,0.299c-0.299,0.117 -0.277,0.319 0.053,0.319c0.106,0 0.34,-0.085 0.511,-0.181c0.298,-0.17 0.34,-0.17 0.521,-0.021c0.107,0.095 0.288,0.202 0.394,0.244c0.192,0.064 0.192,0.086 -0.042,0.33c-0.309,0.33 -0.714,0.341 -1.214,0.043c-0.351,-0.202 -0.383,-0.202 -0.447,-0.043c-0.043,0.107 0.011,0.235 0.16,0.33c0.276,0.203 0.287,0.426 0.01,0.575c-0.234,0.128 -0.287,0.437 -0.074,0.415c0.064,-0.01 0.245,-0.042 0.394,-0.085c0.234,-0.064 0.276,-0.032 0.383,0.245c0.181,0.532 0.362,0.469 0.362,-0.128c0,-0.479 0.032,-0.553 0.372,-0.809c0.203,-0.159 0.426,-0.255 0.479,-0.223c0.171,0.106 0.128,0.883 -0.063,1.032c-0.405,0.33 -0.575,0.522 -0.575,0.618c0,0.138 0.245,0.138 0.394,-0.011c0.191,-0.191 0.351,-0.01 0.351,0.394c0,0.234 0.053,0.362 0.149,0.362c0.16,0 0.277,-0.224 0.277,-0.554c0,-0.212 0.053,-0.223 0.638,-0.074c0.309,0.085 0.16,-0.319 -0.212,-0.564c-0.309,-0.213 -0.373,-0.32 -0.405,-0.703c-0.043,-0.521 0.128,-0.585 0.617,-0.234c0.245,0.17 0.32,0.319 0.341,0.671c0.021,0.319 0.085,0.457 0.213,0.479c0.117,0.021 0.192,-0.054 0.213,-0.213c0.032,-0.213 0.085,-0.245 0.436,-0.224c0.33,0.021 0.394,-0.01 0.394,-0.181c0,-0.117 -0.064,-0.213 -0.149,-0.213c-0.277,0 -0.308,-0.223 -0.085,-0.532c0.298,-0.394 0.107,-0.617 -0.277,-0.319c-0.34,0.276 -0.777,0.266 -1.096,0l-0.256,-0.213l0.266,-0.213c0.384,-0.309 0.629,-0.362 0.831,-0.181c0.096,0.074 0.266,0.181 0.372,0.213c0.277,0.096 0.362,-0.224 0.117,-0.405c-0.191,-0.149 -0.191,-0.17 0.096,-0.415c0.16,-0.149 0.288,-0.319 0.288,-0.383c0,-0.139 -0.458,-0.139 -0.607,0.011c-0.16,0.159 -0.351,0.031 -0.351,-0.235c0,-0.127 -0.075,-0.202 -0.213,-0.202c-0.181,0 -0.213,0.075 -0.213,0.415c0,0.33 -0.064,0.469 -0.277,0.639c-0.458,0.362 -0.681,0.298 -0.681,-0.192c0,-0.33 0.064,-0.468 0.277,-0.638c0.159,-0.128 0.351,-0.224 0.436,-0.224c0.085,0 0.138,-0.074 0.117,-0.192c-0.032,-0.138 -0.128,-0.17 -0.436,-0.149c-0.33,0.032 -0.394,0.011 -0.394,-0.17c0,-0.426 -0.171,-0.66 -0.352,-0.479Z" style="fill:#33b4ff;fill-opacity:0.670588;fill-rule:nonzero;"/><path d="M12.241,40.356c-0.042,0.032 -0.074,0.203 -0.074,0.373c0,0.287 -0.032,0.309 -0.341,0.277c-0.457,-0.043 -0.479,0.159 -0.032,0.457c0.33,0.224 0.373,0.309 0.373,0.703c0,0.532 -0.149,0.585 -0.639,0.224c-0.277,-0.203 -0.319,-0.299 -0.319,-0.756c0,-0.596 -0.202,-0.65 -0.373,-0.096c-0.074,0.255 -0.138,0.33 -0.266,0.277c-0.394,-0.171 -0.639,-0.171 -0.639,-0.011c0,0.096 0.064,0.213 0.139,0.256c0.064,0.042 0.191,0.17 0.277,0.266c0.127,0.17 0.106,0.202 -0.149,0.298c-0.299,0.117 -0.277,0.319 0.053,0.319c0.106,0 0.34,-0.085 0.511,-0.181c0.298,-0.17 0.34,-0.17 0.521,-0.021c0.107,0.096 0.288,0.202 0.394,0.245c0.192,0.064 0.192,0.085 -0.042,0.33c-0.309,0.33 -0.714,0.34 -1.214,0.042c-0.351,-0.202 -0.383,-0.202 -0.447,-0.042c-0.043,0.106 0.011,0.234 0.16,0.33c0.276,0.202 0.287,0.425 0.01,0.575c-0.234,0.127 -0.287,0.436 -0.074,0.415c0.064,-0.011 0.245,-0.043 0.394,-0.085c0.234,-0.064 0.276,-0.032 0.383,0.244c0.181,0.533 0.362,0.469 0.362,-0.127c0,-0.479 0.032,-0.554 0.372,-0.809c0.203,-0.16 0.426,-0.256 0.479,-0.224c0.171,0.106 0.128,0.884 -0.063,1.033c-0.405,0.33 -0.575,0.521 -0.575,0.617c0,0.138 0.245,0.138 0.394,-0.011c0.191,-0.191 0.351,-0.01 0.351,0.394c0,0.234 0.053,0.362 0.149,0.362c0.16,0 0.277,-0.223 0.277,-0.553c0,-0.213 0.053,-0.224 0.638,-0.075c0.309,0.085 0.16,-0.319 -0.212,-0.564c-0.309,-0.213 -0.373,-0.319 -0.405,-0.703c-0.043,-0.521 0.128,-0.585 0.617,-0.234c0.245,0.17 0.32,0.32 0.341,0.671c0.021,0.319 0.085,0.458 0.213,0.479c0.117,0.021 0.192,-0.053 0.213,-0.213c0.032,-0.213 0.085,-0.245 0.436,-0.224c0.33,0.022 0.394,-0.01 0.394,-0.181c0,-0.117 -0.064,-0.212 -0.149,-0.212c-0.277,0 -0.308,-0.224 -0.085,-0.533c0.298,-0.394 0.107,-0.617 -0.277,-0.319c-0.34,0.277 -0.777,0.266 -1.096,0l-0.256,-0.213l0.266,-0.213c0.384,-0.309 0.629,-0.362 0.831,-0.181c0.096,0.075 0.266,0.181 0.372,0.213c0.277,0.096 0.362,-0.224 0.117,-0.405c-0.191,-0.149 -0.191,-0.17 0.096,-0.415c0.16,-0.149 0.288,-0.319 0.288,-0.383c0,-0.138 -0.458,-0.138 -0.607,0.011c-0.16,0.159 -0.351,0.032 -0.351,-0.234c0,-0.128 -0.075,-0.203 -0.213,-0.203c-0.181,0 -0.213,0.075 -0.213,0.415c0,0.33 -0.064,0.469 -0.277,0.639c-0.458,0.362 -0.681,0.298 -0.681,-0.191c0,-0.33 0.064,-0.469 0.277,-0.639c0.159,-0.128 0.351,-0.224 0.436,-0.224c0.085,0 0.138,-0.074 0.117,-0.191c-0.032,-0.139 -0.128,-0.171 -0.436,-0.149c-0.33,0.032 -0.394,0.01 -0.394,-0.171c0,-0.426 -0.171,-0.66 -0.352,-0.479Z" style="fill:#33b4ff;fill-opacity:0.670588;fill-rule:nonzero;"/><path d="M6.566,28.759c-0.11,0.329 -0.157,0.767 -0.094,1.064c0.109,0.484 0.094,0.484 -0.141,0.187c-0.25,-0.312 -0.25,-0.312 -0.563,0.063c-0.265,0.297 -0.328,0.312 -0.406,0.109c-0.125,-0.344 -1.173,-0.922 -1.345,-0.75c-0.203,0.203 0.454,1.25 0.86,1.376c0.313,0.093 0.313,0.109 -0.094,0.328c-0.5,0.25 -0.516,0.328 -0.14,0.625c0.234,0.188 0.219,0.203 -0.25,0.125c-0.454,-0.093 -1.595,0.25 -1.595,0.469c0,0.047 0.219,0.188 0.485,0.313c0.328,0.172 0.687,0.235 1.125,0.172c0.563,-0.078 0.61,-0.063 0.313,0.094c-0.454,0.219 -0.454,0.375 -0.016,0.61c0.329,0.172 0.329,0.187 0.016,0.437c-0.469,0.391 -0.876,1.126 -0.704,1.298c0.204,0.203 1.235,-0.438 1.376,-0.86c0.094,-0.313 0.11,-0.313 0.328,0.094c0.251,0.5 0.329,0.516 0.626,0.141c0.187,-0.235 0.203,-0.204 0.109,0.297c-0.078,0.5 0.25,1.547 0.485,1.547c0.031,0 0.188,-0.218 0.313,-0.484c0.172,-0.329 0.234,-0.688 0.172,-1.126c-0.079,-0.563 -0.063,-0.61 0.093,-0.313c0.235,0.469 0.376,0.454 0.641,-0.062c0.219,-0.407 0.235,-0.407 0.329,-0.094c0.14,0.438 1.172,1.063 1.391,0.844c0.188,-0.187 -0.219,-0.875 -0.719,-1.282l-0.313,-0.265l0.329,-0.172c0.437,-0.235 0.437,-0.454 0,-0.657c-0.297,-0.11 -0.25,-0.125 0.234,-0.063c0.641,0.11 1.673,-0.187 1.673,-0.469c0,-0.281 -1.032,-0.578 -1.673,-0.469c-0.5,0.063 -0.531,0.063 -0.234,-0.078c0.437,-0.187 0.391,-0.469 -0.11,-0.719c-0.359,-0.188 -0.359,-0.188 -0.047,-0.281c0.422,-0.141 1.063,-1.157 0.86,-1.361c-0.219,-0.219 -1.251,0.422 -1.391,0.845c-0.094,0.312 -0.11,0.312 -0.329,-0.094c-0.265,-0.516 -0.484,-0.532 -0.672,-0.078c-0.125,0.281 -0.141,0.203 -0.062,-0.297c0.093,-0.704 -0.188,-1.611 -0.485,-1.611c-0.094,0 -0.266,0.25 -0.375,0.547Zm-0.016,2.111c0,0.203 -0.109,0.313 -0.281,0.313c-0.469,0 -0.532,-0.203 -0.157,-0.422c0.469,-0.251 0.438,-0.251 0.438,0.109Zm1.47,0.172c-0.172,0.281 -0.688,0.141 -0.688,-0.172c0,-0.266 0.047,-0.281 0.391,-0.125c0.203,0.094 0.344,0.235 0.297,0.297Zm-2.252,0.625c0,0.204 -0.109,0.297 -0.328,0.297c-0.172,0 -0.281,-0.046 -0.25,-0.125c0.031,-0.062 0.109,-0.234 0.156,-0.39c0.125,-0.344 0.422,-0.204 0.422,0.218Zm2.861,-0.015c0.063,0.234 0,0.312 -0.218,0.312c-0.188,0 -0.297,-0.109 -0.297,-0.281c0,-0.578 0.359,-0.594 0.515,-0.031Zm-2.892,1.438c-0.062,0.438 -0.297,0.422 -0.469,-0.015c-0.094,-0.266 -0.047,-0.329 0.203,-0.329c0.235,0 0.313,0.078 0.266,0.344Zm2.877,-0.015c-0.172,0.437 -0.407,0.453 -0.469,0.015c-0.047,-0.266 0.031,-0.344 0.266,-0.344c0.25,0 0.297,0.063 0.203,0.329Zm-2.064,0.781c0,0.172 -0.047,0.282 -0.109,0.25c-0.079,-0.031 -0.251,-0.109 -0.407,-0.156c-0.344,-0.125 -0.203,-0.422 0.219,-0.422c0.203,0 0.297,0.109 0.297,0.328Zm1.454,-0.094c-0.016,0.079 -0.172,0.188 -0.344,0.266c-0.266,0.094 -0.328,0.047 -0.328,-0.203c0,-0.235 0.078,-0.313 0.359,-0.266c0.188,0.031 0.329,0.11 0.313,0.203Z" style="fill:#33b4ff;fill-opacity:0.670588;fill-rule:nonzero;"/><path d="M94.824,6.101c-0.12,0.358 -0.171,0.835 -0.103,1.159c0.12,0.528 0.103,0.528 -0.153,0.204c-0.273,-0.34 -0.273,-0.34 -0.613,0.069c-0.29,0.323 -0.358,0.34 -0.444,0.119c-0.136,-0.375 -1.278,-1.006 -1.465,-0.818c-0.222,0.221 0.494,1.363 0.937,1.5c0.341,0.102 0.341,0.119 -0.102,0.358c-0.546,0.272 -0.563,0.357 -0.154,0.681c0.256,0.205 0.239,0.222 -0.272,0.137c-0.495,-0.103 -1.739,0.272 -1.739,0.511c0,0.051 0.239,0.204 0.529,0.341c0.358,0.187 0.75,0.255 1.227,0.187c0.613,-0.085 0.664,-0.068 0.341,0.102c-0.495,0.239 -0.495,0.409 -0.017,0.665c0.357,0.188 0.357,0.205 0.017,0.477c-0.512,0.426 -0.955,1.227 -0.767,1.415c0.221,0.221 1.346,-0.477 1.499,-0.937c0.103,-0.341 0.12,-0.341 0.358,0.102c0.273,0.545 0.358,0.562 0.682,0.153c0.205,-0.255 0.222,-0.221 0.119,0.324c-0.085,0.545 0.273,1.687 0.529,1.687c0.034,0 0.204,-0.238 0.341,-0.528c0.187,-0.358 0.255,-0.75 0.187,-1.227c-0.085,-0.614 -0.068,-0.665 0.102,-0.341c0.256,0.511 0.409,0.494 0.699,-0.068c0.239,-0.443 0.256,-0.443 0.358,-0.102c0.153,0.477 1.278,1.158 1.517,0.92c0.204,-0.205 -0.239,-0.955 -0.784,-1.398l-0.341,-0.289l0.358,-0.188c0.477,-0.256 0.477,-0.494 0,-0.716c-0.324,-0.119 -0.273,-0.136 0.256,-0.068c0.698,0.119 1.823,-0.204 1.823,-0.511c0,-0.307 -1.125,-0.631 -1.823,-0.511c-0.546,0.068 -0.58,0.068 -0.256,-0.086c0.477,-0.204 0.426,-0.511 -0.119,-0.784c-0.392,-0.204 -0.392,-0.204 -0.052,-0.306c0.461,-0.154 1.159,-1.262 0.938,-1.483c-0.239,-0.239 -1.364,0.46 -1.517,0.92c-0.102,0.341 -0.119,0.341 -0.358,-0.102c-0.29,-0.562 -0.528,-0.58 -0.733,-0.085c-0.136,0.306 -0.153,0.221 -0.068,-0.324c0.102,-0.767 -0.204,-1.756 -0.528,-1.756c-0.103,0 -0.29,0.273 -0.409,0.597Zm-0.017,2.301c0,0.221 -0.12,0.341 -0.307,0.341c-0.511,0 -0.58,-0.222 -0.171,-0.461c0.512,-0.272 0.478,-0.272 0.478,0.12Zm1.602,0.187c-0.188,0.307 -0.75,0.154 -0.75,-0.187c0,-0.29 0.051,-0.307 0.426,-0.137c0.221,0.103 0.375,0.256 0.324,0.324Zm-2.454,0.682c0,0.222 -0.12,0.324 -0.358,0.324c-0.188,0 -0.307,-0.051 -0.273,-0.137c0.034,-0.068 0.119,-0.255 0.17,-0.426c0.137,-0.375 0.461,-0.221 0.461,0.239Zm3.118,-0.017c0.069,0.256 0,0.341 -0.238,0.341c-0.205,0 -0.324,-0.12 -0.324,-0.307c0,-0.631 0.392,-0.648 0.562,-0.034Zm-3.153,1.568c-0.068,0.477 -0.323,0.46 -0.511,-0.017c-0.102,-0.29 -0.051,-0.358 0.222,-0.358c0.255,0 0.341,0.085 0.289,0.375Zm3.136,-0.017c-0.187,0.477 -0.443,0.494 -0.511,0.017c-0.051,-0.29 0.034,-0.375 0.29,-0.375c0.272,0 0.324,0.068 0.221,0.358Zm-2.249,0.852c0,0.187 -0.051,0.307 -0.12,0.273c-0.085,-0.034 -0.272,-0.12 -0.443,-0.171c-0.375,-0.136 -0.221,-0.46 0.239,-0.46c0.221,0 0.324,0.119 0.324,0.358Zm1.585,-0.102c-0.017,0.085 -0.188,0.204 -0.375,0.289c-0.29,0.103 -0.358,0.052 -0.358,-0.221c0,-0.256 0.085,-0.341 0.392,-0.29c0.204,0.034 0.358,0.119 0.341,0.222Z" style="fill:#33b4ff;fill-opacity:0.670588;fill-rule:nonzero;"/><path d="M25.482,13.554c-0.087,0.26 -0.124,0.607 -0.075,0.842c0.087,0.384 0.075,0.384 -0.111,0.149c-0.198,-0.248 -0.198,-0.248 -0.446,0.049c-0.211,0.236 -0.26,0.248 -0.322,0.087c-0.099,-0.272 -0.929,-0.731 -1.066,-0.594c-0.161,0.161 0.36,0.991 0.682,1.09c0.247,0.074 0.247,0.086 -0.075,0.26c-0.396,0.198 -0.409,0.26 -0.111,0.495c0.186,0.149 0.173,0.161 -0.198,0.1c-0.36,-0.075 -1.264,0.198 -1.264,0.371c0,0.037 0.173,0.149 0.384,0.248c0.26,0.136 0.545,0.186 0.892,0.136c0.446,-0.062 0.483,-0.049 0.248,0.075c-0.36,0.173 -0.36,0.297 -0.013,0.483c0.261,0.136 0.261,0.148 0.013,0.347c-0.372,0.309 -0.694,0.892 -0.558,1.028c0.161,0.161 0.979,-0.347 1.09,-0.682c0.075,-0.247 0.087,-0.247 0.261,0.075c0.198,0.396 0.26,0.409 0.495,0.111c0.149,-0.186 0.161,-0.161 0.087,0.236c-0.062,0.396 0.198,1.226 0.384,1.226c0.025,0 0.149,-0.173 0.248,-0.384c0.136,-0.26 0.185,-0.545 0.136,-0.892c-0.062,-0.446 -0.05,-0.483 0.074,-0.248c0.186,0.372 0.298,0.36 0.508,-0.049c0.174,-0.322 0.186,-0.322 0.26,-0.075c0.112,0.347 0.929,0.843 1.103,0.669c0.149,-0.148 -0.174,-0.693 -0.57,-1.015l-0.248,-0.211l0.26,-0.136c0.347,-0.186 0.347,-0.36 0,-0.521c-0.235,-0.086 -0.198,-0.099 0.186,-0.049c0.508,0.087 1.326,-0.149 1.326,-0.372c0,-0.223 -0.818,-0.458 -1.326,-0.371c-0.396,0.049 -0.421,0.049 -0.186,-0.062c0.347,-0.149 0.31,-0.372 -0.086,-0.57c-0.285,-0.149 -0.285,-0.149 -0.037,-0.223c0.334,-0.112 0.842,-0.917 0.681,-1.078c-0.174,-0.173 -0.991,0.334 -1.103,0.669c-0.074,0.248 -0.086,0.248 -0.26,-0.074c-0.21,-0.409 -0.384,-0.422 -0.533,-0.062c-0.099,0.223 -0.111,0.161 -0.049,-0.236c0.074,-0.557 -0.149,-1.276 -0.384,-1.276c-0.074,0 -0.211,0.198 -0.297,0.434Zm-0.013,1.672c0,0.161 -0.087,0.248 -0.223,0.248c-0.371,0 -0.421,-0.161 -0.124,-0.334c0.372,-0.199 0.347,-0.199 0.347,0.086Zm1.165,0.137c-0.137,0.223 -0.545,0.111 -0.545,-0.137c0,-0.21 0.037,-0.223 0.309,-0.099c0.161,0.075 0.273,0.186 0.236,0.236Zm-1.784,0.495c0,0.161 -0.087,0.235 -0.26,0.235c-0.137,0 -0.223,-0.037 -0.199,-0.099c0.025,-0.049 0.087,-0.185 0.124,-0.309c0.099,-0.273 0.335,-0.161 0.335,0.173Zm2.267,-0.012c0.049,0.186 0,0.247 -0.174,0.247c-0.148,0 -0.235,-0.086 -0.235,-0.223c0,-0.458 0.285,-0.47 0.409,-0.024Zm-2.292,1.139c-0.05,0.347 -0.235,0.335 -0.372,-0.012c-0.074,-0.211 -0.037,-0.26 0.161,-0.26c0.186,0 0.248,0.062 0.211,0.272Zm2.279,-0.012c-0.136,0.347 -0.322,0.359 -0.371,0.012c-0.037,-0.21 0.025,-0.272 0.21,-0.272c0.199,0 0.236,0.049 0.161,0.26Zm-1.635,0.619c0,0.137 -0.037,0.223 -0.087,0.199c-0.061,-0.025 -0.198,-0.087 -0.322,-0.124c-0.272,-0.099 -0.161,-0.335 0.174,-0.335c0.161,0 0.235,0.087 0.235,0.26Zm1.152,-0.074c-0.012,0.062 -0.136,0.149 -0.272,0.211c-0.211,0.074 -0.26,0.037 -0.26,-0.161c0,-0.186 0.062,-0.248 0.285,-0.211c0.148,0.025 0.26,0.087 0.247,0.161Z" style="fill:#33b4ff;fill-opacity:0.670588;fill-rule:nonzero;"/><path d="M7.563,53.813c-0.08,0.24 -0.114,0.559 -0.069,0.776c0.08,0.354 0.069,0.354 -0.103,0.137c-0.182,-0.228 -0.182,-0.228 -0.41,0.045c-0.194,0.217 -0.24,0.229 -0.297,0.08c-0.091,-0.251 -0.855,-0.673 -0.981,-0.547c-0.148,0.148 0.331,0.912 0.628,1.004c0.228,0.068 0.228,0.079 -0.069,0.239c-0.365,0.183 -0.376,0.24 -0.103,0.456c0.172,0.137 0.16,0.149 -0.182,0.092c-0.331,-0.069 -1.164,0.182 -1.164,0.342c0,0.034 0.16,0.137 0.354,0.228c0.239,0.126 0.502,0.171 0.821,0.126c0.411,-0.057 0.445,-0.046 0.228,0.068c-0.33,0.16 -0.33,0.274 -0.011,0.445c0.24,0.125 0.24,0.137 0.011,0.319c-0.342,0.286 -0.638,0.822 -0.513,0.947c0.148,0.149 0.901,-0.319 1.004,-0.627c0.068,-0.228 0.08,-0.228 0.24,0.068c0.182,0.365 0.239,0.377 0.456,0.103c0.137,-0.171 0.148,-0.148 0.08,0.217c-0.057,0.365 0.182,1.129 0.353,1.129c0.023,0 0.137,-0.16 0.229,-0.353c0.125,-0.24 0.171,-0.502 0.125,-0.822c-0.057,-0.411 -0.046,-0.445 0.069,-0.228c0.171,0.342 0.273,0.331 0.467,-0.046c0.16,-0.296 0.171,-0.296 0.24,-0.068c0.103,0.319 0.855,0.776 1.015,0.616c0.137,-0.137 -0.16,-0.639 -0.525,-0.936l-0.228,-0.194l0.24,-0.125c0.319,-0.171 0.319,-0.331 0,-0.479c-0.217,-0.08 -0.183,-0.091 0.171,-0.046c0.468,0.08 1.221,-0.137 1.221,-0.342c0,-0.205 -0.753,-0.422 -1.221,-0.342c-0.365,0.045 -0.388,0.045 -0.171,-0.057c0.319,-0.137 0.285,-0.343 -0.08,-0.525c-0.262,-0.137 -0.262,-0.137 -0.034,-0.205c0.308,-0.103 0.775,-0.845 0.627,-0.993c-0.16,-0.16 -0.912,0.308 -1.015,0.616c-0.069,0.228 -0.08,0.228 -0.24,-0.068c-0.194,-0.377 -0.353,-0.388 -0.49,-0.057c-0.092,0.205 -0.103,0.148 -0.046,-0.217c0.069,-0.514 -0.137,-1.175 -0.354,-1.175c-0.068,0 -0.194,0.182 -0.273,0.399Zm-0.012,1.54c0,0.149 -0.08,0.228 -0.205,0.228c-0.342,0 -0.388,-0.148 -0.114,-0.308c0.342,-0.182 0.319,-0.182 0.319,0.08Zm1.073,0.126c-0.126,0.205 -0.502,0.102 -0.502,-0.126c0,-0.194 0.034,-0.205 0.285,-0.091c0.148,0.068 0.251,0.171 0.217,0.217Zm-1.643,0.456c0,0.148 -0.08,0.217 -0.24,0.217c-0.125,0 -0.205,-0.034 -0.182,-0.091c0.023,-0.046 0.08,-0.172 0.114,-0.286c0.091,-0.251 0.308,-0.148 0.308,0.16Zm2.088,-0.011c0.045,0.171 0,0.228 -0.16,0.228c-0.137,0 -0.217,-0.08 -0.217,-0.206c0,-0.422 0.262,-0.433 0.377,-0.022Zm-2.111,1.049c-0.046,0.32 -0.217,0.308 -0.342,-0.011c-0.069,-0.194 -0.034,-0.24 0.148,-0.24c0.171,0 0.228,0.057 0.194,0.251Zm2.099,-0.011c-0.125,0.319 -0.297,0.331 -0.342,0.011c-0.034,-0.194 0.023,-0.251 0.194,-0.251c0.182,0 0.217,0.046 0.148,0.24Zm-1.506,0.57c0,0.126 -0.034,0.206 -0.08,0.183c-0.057,-0.023 -0.182,-0.08 -0.296,-0.114c-0.251,-0.092 -0.149,-0.308 0.159,-0.308c0.149,0 0.217,0.079 0.217,0.239Zm1.061,-0.068c-0.011,0.057 -0.125,0.137 -0.251,0.194c-0.194,0.068 -0.239,0.034 -0.239,-0.149c0,-0.171 0.057,-0.228 0.262,-0.194c0.137,0.023 0.24,0.08 0.228,0.149Z" style="fill:#33b4ff;fill-opacity:0.670588;fill-rule:nonzero;"/><path d="M9.088,67.092c-0.166,0.11 -0.203,0.35 -0.129,0.83c0.129,0.627 -0.093,0.922 -0.369,0.479c-0.203,-0.313 -0.646,-0.203 -0.812,0.222c-0.092,0.258 -0.184,0.313 -0.277,0.184c-0.258,-0.424 -0.664,-0.24 -0.664,0.314c0,0.83 -0.276,0.83 -0.811,0.018c-0.259,-0.406 -0.609,-0.738 -0.757,-0.738c-0.147,0 -0.332,0 -0.387,0c-0.074,0 -0.148,0.295 -0.166,0.646c-0.037,0.535 0.037,0.646 0.313,0.646c0.498,0 1.107,0.35 0.978,0.571c-0.074,0.093 -0.277,0.167 -0.48,0.167c-0.258,0 -0.35,0.092 -0.313,0.313c0.074,0.351 0.277,0.369 1.107,0.148c0.369,-0.093 0.572,-0.037 0.83,0.258c0.313,0.387 0.978,0.535 0.978,0.221c0,-0.073 -0.166,-0.369 -0.388,-0.645c-0.443,-0.554 -0.406,-1.365 0.056,-1.661c0.442,-0.276 1.272,0.498 0.922,0.849c-0.129,0.129 -0.221,0.498 -0.221,0.83c0,0.72 -0.48,1.347 -1.015,1.347c-0.221,0 -0.48,0.092 -0.59,0.203c-0.259,0.258 -0.923,-0.129 -1.052,-0.628c-0.055,-0.221 -0.203,-0.313 -0.424,-0.276c-0.48,0.092 -0.517,0.645 -0.074,0.793c0.48,0.148 0.498,0.387 0.018,0.646c-0.258,0.147 -0.461,0.129 -0.737,-0.037c-0.314,-0.203 -0.406,-0.185 -0.554,0.037c-0.313,0.498 -0.203,0.922 0.314,1.125c0.406,0.148 0.553,0.129 0.738,-0.129c0.129,-0.185 0.239,-0.406 0.239,-0.498c0,-0.092 0.111,-0.129 0.24,-0.074c0.129,0.037 0.203,0.277 0.166,0.553c-0.037,0.332 0.037,0.535 0.222,0.609c0.166,0.056 0.295,0.314 0.295,0.554c0,0.535 0.461,0.59 0.978,0.129c0.332,-0.314 0.368,-0.314 0.719,0.129l0.369,0.461l-0.424,0.055c-0.24,0.037 -0.535,0.148 -0.646,0.24c-0.258,0.222 -0.129,0.812 0.24,1.125c0.24,0.185 0.35,0.148 0.627,-0.202c0.203,-0.24 0.351,-0.591 0.351,-0.775c0,-0.222 0.129,-0.351 0.368,-0.351c0.222,0 0.369,-0.129 0.369,-0.332c0,-0.184 -0.166,-0.461 -0.369,-0.645c-0.405,-0.351 -0.479,-0.867 -0.166,-1.181c0.148,-0.148 0.093,-0.258 -0.184,-0.424c-0.424,-0.222 -0.48,-0.148 -0.609,0.645c-0.037,0.277 -0.221,0.388 -0.719,0.425c-0.554,0.055 -0.683,-0.019 -0.775,-0.351c-0.148,-0.535 0.48,-1.033 1.513,-1.181c0.664,-0.092 0.848,-0.055 1.143,0.259c0.203,0.221 0.48,0.387 0.609,0.387c0.148,0 0.314,0.129 0.369,0.295c0.185,0.498 0.129,0.996 -0.147,0.996c-0.333,0 -0.554,0.554 -0.314,0.794c0.277,0.276 1.162,-0.166 1.088,-0.535c-0.11,-0.572 0.406,-0.48 0.609,0.11c0.166,0.48 0.295,0.572 0.701,0.517c0.406,-0.037 0.48,-0.148 0.48,-0.609c0,-0.498 -0.074,-0.553 -0.591,-0.609c-0.682,-0.073 -0.811,-0.387 -0.239,-0.535c0.239,-0.055 0.369,-0.221 0.332,-0.405c-0.056,-0.24 -0.259,-0.277 -0.941,-0.24c-0.554,0.037 -0.867,0 -0.867,-0.129c0,-0.13 -0.222,-0.296 -0.48,-0.388c-0.516,-0.203 -0.443,-0.553 0.111,-0.553c0.184,0 0.424,-0.129 0.516,-0.295c0.13,-0.24 0.24,-0.259 0.554,-0.093c0.203,0.111 0.424,0.369 0.498,0.554c0.147,0.479 0.646,0.645 0.978,0.332c0.221,-0.24 0.203,-0.314 -0.111,-0.609c-0.572,-0.572 -0.996,-1.328 -0.793,-1.439c0.092,-0.074 0.239,0 0.332,0.148c0.074,0.129 0.461,0.35 0.848,0.443c0.812,0.221 1.052,-0.037 0.72,-0.812c-0.258,-0.517 -0.517,-0.554 -1.015,-0.129c-0.332,0.313 -0.35,0.313 -0.516,0c-0.111,-0.166 -0.388,-0.314 -0.628,-0.314c-0.35,0 -0.442,0.111 -0.498,0.59c-0.037,0.443 -0.166,0.628 -0.424,0.665c-0.203,0.036 -0.498,0.184 -0.664,0.332c-0.258,0.221 -0.332,0.221 -0.517,0.018c-0.166,-0.203 -0.147,-0.314 0.074,-0.498c0.203,-0.166 0.222,-0.295 0.074,-0.48c-0.295,-0.35 -0.055,-0.59 0.719,-0.738c0.775,-0.129 1.144,-0.369 1.144,-0.719c0,-0.406 -0.719,-0.461 -0.978,-0.074c-0.147,0.185 -0.313,0.295 -0.368,0.222c-0.222,-0.203 -0.13,-0.738 0.147,-0.978c0.148,-0.129 0.277,-0.461 0.277,-0.757c0,-0.424 -0.074,-0.535 -0.406,-0.535c-0.24,0 -0.535,0.074 -0.664,0.167Z" style="fill:#33b4ff;fill-opacity:0.670588;fill-rule:nonzero;"/><path d="M35.302,1.717c-0.166,0.111 -0.203,0.351 -0.129,0.83c0.129,0.628 -0.092,0.923 -0.369,0.48c-0.203,-0.314 -0.645,-0.203 -0.812,0.221c-0.092,0.259 -0.184,0.314 -0.276,0.185c-0.259,-0.425 -0.664,-0.24 -0.664,0.313c0,0.831 -0.277,0.831 -0.812,0.019c-0.258,-0.406 -0.609,-0.738 -0.756,-0.738c-0.148,0 -0.332,0 -0.388,0c-0.074,0 -0.147,0.295 -0.166,0.646c-0.037,0.535 0.037,0.645 0.314,0.645c0.498,0 1.107,0.351 0.978,0.572c-0.074,0.092 -0.277,0.166 -0.48,0.166c-0.258,0 -0.351,0.092 -0.314,0.314c0.074,0.35 0.277,0.369 1.107,0.147c0.369,-0.092 0.572,-0.037 0.83,0.259c0.314,0.387 0.978,0.535 0.978,0.221c0,-0.074 -0.166,-0.369 -0.387,-0.646c-0.443,-0.553 -0.406,-1.365 0.055,-1.66c0.443,-0.277 1.273,0.498 0.922,0.849c-0.129,0.129 -0.221,0.498 -0.221,0.83c0,0.719 -0.48,1.346 -1.015,1.346c-0.221,0 -0.479,0.093 -0.59,0.203c-0.258,0.259 -0.922,-0.129 -1.052,-0.627c-0.055,-0.221 -0.202,-0.313 -0.424,-0.277c-0.479,0.093 -0.516,0.646 -0.074,0.794c0.48,0.147 0.498,0.387 0.019,0.645c-0.258,0.148 -0.461,0.129 -0.738,-0.037c-0.314,-0.202 -0.406,-0.184 -0.553,0.037c-0.314,0.498 -0.203,0.923 0.313,1.126c0.406,0.147 0.554,0.129 0.738,-0.129c0.129,-0.185 0.24,-0.406 0.24,-0.499c0,-0.092 0.111,-0.129 0.24,-0.073c0.129,0.037 0.203,0.276 0.166,0.553c-0.037,0.332 0.037,0.535 0.221,0.609c0.166,0.055 0.295,0.313 0.295,0.553c0,0.535 0.461,0.591 0.978,0.129c0.332,-0.313 0.369,-0.313 0.719,0.13l0.369,0.461l-0.424,0.055c-0.24,0.037 -0.535,0.148 -0.646,0.24c-0.258,0.221 -0.129,0.812 0.24,1.125c0.24,0.185 0.351,0.148 0.627,-0.203c0.203,-0.24 0.351,-0.59 0.351,-0.775c0,-0.221 0.129,-0.35 0.369,-0.35c0.221,0 0.369,-0.129 0.369,-0.332c0,-0.185 -0.166,-0.461 -0.369,-0.646c-0.406,-0.35 -0.48,-0.867 -0.166,-1.18c0.147,-0.148 0.092,-0.259 -0.185,-0.425c-0.424,-0.221 -0.479,-0.147 -0.608,0.646c-0.037,0.277 -0.222,0.387 -0.72,0.424c-0.553,0.056 -0.682,-0.018 -0.775,-0.35c-0.147,-0.535 0.48,-1.033 1.513,-1.181c0.664,-0.092 0.849,-0.055 1.144,0.258c0.203,0.222 0.479,0.388 0.609,0.388c0.147,0 0.313,0.129 0.369,0.295c0.184,0.498 0.129,0.996 -0.148,0.996c-0.332,0 -0.553,0.554 -0.314,0.793c0.277,0.277 1.163,-0.166 1.089,-0.535c-0.111,-0.572 0.406,-0.479 0.608,0.111c0.167,0.48 0.296,0.572 0.701,0.517c0.406,-0.037 0.48,-0.148 0.48,-0.609c0,-0.498 -0.074,-0.554 -0.59,-0.609c-0.683,-0.074 -0.812,-0.387 -0.24,-0.535c0.24,-0.055 0.369,-0.221 0.332,-0.406c-0.055,-0.24 -0.258,-0.277 -0.941,-0.24c-0.553,0.037 -0.867,0 -0.867,-0.129c0,-0.129 -0.221,-0.295 -0.479,-0.387c-0.517,-0.203 -0.443,-0.554 0.11,-0.554c0.185,0 0.425,-0.129 0.517,-0.295c0.129,-0.24 0.24,-0.258 0.553,-0.092c0.203,0.111 0.424,0.369 0.498,0.553c0.148,0.48 0.646,0.646 0.978,0.333c0.221,-0.24 0.203,-0.314 -0.111,-0.609c-0.572,-0.572 -0.996,-1.328 -0.793,-1.439c0.092,-0.074 0.24,0 0.332,0.147c0.074,0.13 0.461,0.351 0.849,0.443c0.811,0.222 1.051,-0.037 0.719,-0.812c-0.258,-0.516 -0.516,-0.553 -1.014,-0.129c-0.333,0.314 -0.351,0.314 -0.517,0c-0.111,-0.166 -0.387,-0.313 -0.627,-0.313c-0.351,0 -0.443,0.11 -0.498,0.59c-0.037,0.443 -0.166,0.627 -0.425,0.664c-0.202,0.037 -0.498,0.185 -0.664,0.332c-0.258,0.222 -0.332,0.222 -0.516,0.019c-0.166,-0.203 -0.148,-0.314 0.074,-0.498c0.203,-0.166 0.221,-0.296 0.073,-0.48c-0.295,-0.351 -0.055,-0.59 0.72,-0.738c0.775,-0.129 1.144,-0.369 1.144,-0.719c0,-0.406 -0.72,-0.462 -0.978,-0.074c-0.148,0.184 -0.314,0.295 -0.369,0.221c-0.221,-0.203 -0.129,-0.738 0.147,-0.978c0.148,-0.129 0.277,-0.461 0.277,-0.756c0,-0.424 -0.074,-0.535 -0.406,-0.535c-0.239,0 -0.535,0.074 -0.664,0.166Z" style="fill:#33b4ff;fill-opacity:0.670588;fill-rule:nonzero;"/><path d="M75.226,4.131c-0.108,0.072 -0.132,0.228 -0.084,0.54c0.084,0.409 -0.06,0.601 -0.241,0.313c-0.132,-0.205 -0.42,-0.133 -0.528,0.144c-0.06,0.168 -0.12,0.204 -0.18,0.12c-0.168,-0.276 -0.432,-0.156 -0.432,0.204c0,0.54 -0.181,0.54 -0.529,0.012c-0.168,-0.264 -0.396,-0.48 -0.492,-0.48c-0.096,0 -0.216,0 -0.252,0c-0.048,0 -0.097,0.192 -0.109,0.42c-0.024,0.348 0.024,0.42 0.205,0.42c0.324,0 0.72,0.228 0.636,0.372c-0.048,0.061 -0.18,0.109 -0.312,0.109c-0.168,0 -0.228,0.06 -0.204,0.204c0.048,0.228 0.18,0.24 0.72,0.096c0.24,-0.06 0.373,-0.024 0.541,0.168c0.204,0.252 0.636,0.348 0.636,0.144c0,-0.048 -0.108,-0.24 -0.252,-0.42c-0.288,-0.361 -0.264,-0.889 0.036,-1.081c0.288,-0.18 0.829,0.324 0.6,0.552c-0.084,0.084 -0.144,0.325 -0.144,0.541c0,0.468 -0.312,0.876 -0.66,0.876c-0.144,0 -0.312,0.06 -0.384,0.132c-0.169,0.169 -0.601,-0.084 -0.685,-0.408c-0.036,-0.144 -0.132,-0.204 -0.276,-0.18c-0.312,0.06 -0.336,0.42 -0.048,0.516c0.312,0.096 0.324,0.253 0.012,0.421c-0.168,0.096 -0.3,0.084 -0.481,-0.024c-0.204,-0.132 -0.264,-0.12 -0.36,0.024c-0.204,0.324 -0.132,0.6 0.204,0.732c0.265,0.096 0.361,0.084 0.481,-0.084c0.084,-0.12 0.156,-0.264 0.156,-0.324c0,-0.06 0.072,-0.084 0.156,-0.048c0.084,0.024 0.132,0.18 0.108,0.36c-0.024,0.216 0.024,0.348 0.144,0.397c0.108,0.036 0.192,0.204 0.192,0.36c0,0.348 0.3,0.384 0.637,0.084c0.216,-0.204 0.24,-0.204 0.468,0.084l0.24,0.3l-0.276,0.036c-0.156,0.024 -0.348,0.096 -0.42,0.156c-0.168,0.144 -0.084,0.529 0.156,0.733c0.156,0.12 0.228,0.096 0.408,-0.132c0.132,-0.156 0.228,-0.385 0.228,-0.505c0,-0.144 0.084,-0.228 0.241,-0.228c0.144,0 0.24,-0.084 0.24,-0.216c0,-0.12 -0.108,-0.3 -0.24,-0.42c-0.265,-0.228 -0.313,-0.565 -0.109,-0.769c0.097,-0.096 0.06,-0.168 -0.12,-0.276c-0.276,-0.144 -0.312,-0.096 -0.396,0.42c-0.024,0.18 -0.144,0.252 -0.468,0.276c-0.361,0.036 -0.445,-0.012 -0.505,-0.228c-0.096,-0.348 0.313,-0.672 0.985,-0.768c0.432,-0.06 0.552,-0.036 0.745,0.168c0.132,0.144 0.312,0.252 0.396,0.252c0.096,0 0.204,0.084 0.24,0.192c0.12,0.324 0.084,0.649 -0.096,0.649c-0.216,0 -0.36,0.36 -0.204,0.516c0.18,0.18 0.756,-0.108 0.708,-0.348c-0.072,-0.373 0.265,-0.312 0.397,0.072c0.108,0.312 0.192,0.372 0.456,0.336c0.264,-0.024 0.312,-0.096 0.312,-0.396c0,-0.324 -0.048,-0.361 -0.384,-0.397c-0.444,-0.048 -0.528,-0.252 -0.156,-0.348c0.156,-0.036 0.24,-0.144 0.216,-0.264c-0.036,-0.156 -0.168,-0.18 -0.612,-0.156c-0.361,0.024 -0.565,0 -0.565,-0.084c0,-0.084 -0.144,-0.192 -0.312,-0.252c-0.336,-0.132 -0.288,-0.361 0.072,-0.361c0.12,0 0.276,-0.084 0.336,-0.192c0.084,-0.156 0.156,-0.168 0.361,-0.06c0.132,0.072 0.276,0.24 0.324,0.36c0.096,0.313 0.42,0.421 0.636,0.217c0.144,-0.157 0.132,-0.205 -0.072,-0.397c-0.372,-0.372 -0.648,-0.864 -0.516,-0.936c0.06,-0.048 0.156,0 0.216,0.096c0.048,0.084 0.3,0.228 0.552,0.288c0.529,0.144 0.685,-0.024 0.469,-0.529c-0.168,-0.336 -0.337,-0.36 -0.661,-0.084c-0.216,0.205 -0.228,0.205 -0.336,0c-0.072,-0.108 -0.252,-0.204 -0.408,-0.204c-0.229,0 -0.289,0.072 -0.325,0.385c-0.024,0.288 -0.108,0.408 -0.276,0.432c-0.132,0.024 -0.324,0.12 -0.432,0.216c-0.168,0.144 -0.216,0.144 -0.336,0.012c-0.108,-0.132 -0.096,-0.204 0.048,-0.324c0.132,-0.108 0.144,-0.192 0.048,-0.312c-0.192,-0.229 -0.036,-0.385 0.468,-0.481c0.504,-0.084 0.745,-0.24 0.745,-0.468c0,-0.264 -0.469,-0.3 -0.637,-0.048c-0.096,0.12 -0.204,0.192 -0.24,0.144c-0.144,-0.132 -0.084,-0.48 0.096,-0.637c0.096,-0.084 0.18,-0.3 0.18,-0.492c0,-0.276 -0.048,-0.348 -0.264,-0.348c-0.156,0 -0.348,0.048 -0.432,0.108Z" style="fill:#33b4ff;fill-opacity:0.670588;fill-rule:nonzero;"/><path d="M20.574,26.42c-0.068,0.045 -0.084,0.144 -0.053,0.34c0.053,0.258 -0.038,0.379 -0.152,0.197c-0.083,-0.128 -0.264,-0.083 -0.333,0.091c-0.037,0.106 -0.075,0.129 -0.113,0.076c-0.106,-0.174 -0.272,-0.099 -0.272,0.128c0,0.341 -0.114,0.341 -0.333,0.008c-0.106,-0.167 -0.25,-0.303 -0.31,-0.303c-0.061,0 -0.137,0 -0.159,0c-0.031,0 -0.061,0.121 -0.068,0.265c-0.016,0.219 0.015,0.265 0.128,0.265c0.204,0 0.454,0.143 0.401,0.234c-0.03,0.038 -0.113,0.068 -0.197,0.068c-0.105,0 -0.143,0.038 -0.128,0.129c0.03,0.144 0.113,0.151 0.454,0.061c0.151,-0.038 0.234,-0.016 0.34,0.105c0.129,0.159 0.401,0.22 0.401,0.091c0,-0.03 -0.068,-0.151 -0.159,-0.265c-0.181,-0.227 -0.166,-0.559 0.023,-0.68c0.182,-0.114 0.522,0.204 0.378,0.348c-0.053,0.052 -0.09,0.204 -0.09,0.34c0,0.295 -0.197,0.552 -0.417,0.552c-0.09,0 -0.196,0.038 -0.242,0.083c-0.106,0.106 -0.378,-0.052 -0.431,-0.257c-0.023,-0.091 -0.083,-0.128 -0.174,-0.113c-0.197,0.038 -0.212,0.265 -0.03,0.325c0.197,0.061 0.204,0.159 0.007,0.265c-0.106,0.06 -0.189,0.053 -0.302,-0.015c-0.129,-0.083 -0.167,-0.076 -0.227,0.015c-0.129,0.204 -0.083,0.378 0.128,0.461c0.167,0.061 0.227,0.053 0.303,-0.053c0.053,-0.075 0.098,-0.166 0.098,-0.204c0,-0.038 0.046,-0.053 0.099,-0.03c0.053,0.015 0.083,0.113 0.068,0.227c-0.015,0.136 0.015,0.219 0.091,0.25c0.068,0.022 0.121,0.128 0.121,0.226c0,0.22 0.189,0.243 0.401,0.053c0.136,-0.128 0.151,-0.128 0.295,0.053l0.151,0.19l-0.174,0.022c-0.098,0.015 -0.219,0.061 -0.265,0.099c-0.106,0.09 -0.053,0.332 0.099,0.461c0.098,0.076 0.143,0.061 0.257,-0.083c0.083,-0.098 0.144,-0.242 0.144,-0.318c0,-0.091 0.052,-0.144 0.151,-0.144c0.091,0 0.151,-0.053 0.151,-0.136c0,-0.075 -0.068,-0.189 -0.151,-0.265c-0.167,-0.143 -0.197,-0.355 -0.068,-0.484c0.06,-0.06 0.038,-0.106 -0.076,-0.174c-0.174,-0.091 -0.197,-0.06 -0.25,0.265c-0.015,0.113 -0.09,0.159 -0.295,0.174c-0.227,0.023 -0.28,-0.008 -0.317,-0.144c-0.061,-0.219 0.196,-0.423 0.62,-0.484c0.272,-0.038 0.348,-0.023 0.469,0.106c0.083,0.091 0.197,0.159 0.25,0.159c0.06,0 0.128,0.053 0.151,0.121c0.076,0.204 0.053,0.408 -0.06,0.408c-0.137,0 -0.227,0.227 -0.129,0.326c0.113,0.113 0.477,-0.068 0.446,-0.22c-0.045,-0.234 0.167,-0.196 0.25,0.046c0.068,0.196 0.121,0.234 0.287,0.212c0.167,-0.016 0.197,-0.061 0.197,-0.25c0,-0.204 -0.03,-0.227 -0.242,-0.25c-0.28,-0.03 -0.333,-0.159 -0.098,-0.219c0.098,-0.023 0.151,-0.091 0.136,-0.167c-0.023,-0.098 -0.106,-0.113 -0.386,-0.098c-0.227,0.015 -0.356,0 -0.356,-0.053c0,-0.053 -0.09,-0.121 -0.196,-0.159c-0.212,-0.083 -0.182,-0.227 0.045,-0.227c0.076,0 0.174,-0.053 0.212,-0.121c0.053,-0.098 0.098,-0.106 0.227,-0.038c0.083,0.046 0.174,0.152 0.204,0.227c0.061,0.197 0.265,0.265 0.401,0.137c0.091,-0.099 0.083,-0.129 -0.045,-0.25c-0.235,-0.235 -0.409,-0.545 -0.326,-0.59c0.038,-0.03 0.099,0 0.137,0.06c0.03,0.053 0.189,0.144 0.348,0.182c0.333,0.091 0.431,-0.015 0.295,-0.333c-0.106,-0.212 -0.212,-0.227 -0.416,-0.053c-0.137,0.129 -0.144,0.129 -0.212,0c-0.046,-0.068 -0.159,-0.129 -0.257,-0.129c-0.144,0 -0.182,0.046 -0.205,0.243c-0.015,0.181 -0.068,0.257 -0.174,0.272c-0.083,0.015 -0.204,0.076 -0.272,0.136c-0.106,0.091 -0.136,0.091 -0.212,0.008c-0.068,-0.084 -0.06,-0.129 0.03,-0.205c0.084,-0.068 0.091,-0.121 0.031,-0.196c-0.121,-0.144 -0.023,-0.242 0.295,-0.303c0.317,-0.053 0.469,-0.151 0.469,-0.295c0,-0.166 -0.295,-0.189 -0.401,-0.03c-0.061,0.075 -0.129,0.121 -0.152,0.09c-0.09,-0.083 -0.053,-0.302 0.061,-0.4c0.06,-0.053 0.113,-0.19 0.113,-0.311c0,-0.174 -0.03,-0.219 -0.166,-0.219c-0.098,0 -0.219,0.03 -0.272,0.068Z" style="fill:#33b4ff;fill-opacity:0.670588;fill-rule:nonzero;"/></g></g><defs><linearGradient id="_Linear1" x1="0" y1="0" x2="1" y2="0" gradientUnits="userSpaceOnUse" gradientTransform="matrix(2.71216e-15,-44.293,44.293,2.71216e-15,80,44.2378)"><stop offset="0" style="stop-color:#33b4ff;stop-opacity:0"/><stop offset="0.74" style="stop-color:#33b4ff;stop-opacity:0"/><stop offset="1" style="stop-color:#32b3ff;stop-opacity:0.717647"/></linearGradient><linearGradient id="_Linear2" x1="0" y1="0" x2="1" y2="0" gradientUnits="userSpaceOnUse" gradientTransform="matrix(-25.1004,3.07391e-15,-3.07391e-15,-25.1004,24.6474,45)"><stop offset="0" style="stop-color:#33b4ff;stop-opacity:0"/><stop offset="0.51" style="stop-color:#33b4ff;stop-opacity:0.176471"/><stop offset="1" style="stop-color:#32b3ff;stop-opacity:0.717647"/></linearGradient></defs></svg>