<svg width="160px" height="90px" viewBox="0 0 160 90" version="1.1" xmlns="http://www.w3.org/2000/svg" xmlns:xlink="http://www.w3.org/1999/xlink" xml:space="preserve" xmlns:serif="http://www.serif.com/" style="fill-rule:evenodd;clip-rule:evenodd;stroke-linejoin:round;stroke-miterlimit:1.41421;"><g><path d="M162.434,44.112c-0.002,2.907 -0.579,47.204 -0.579,47.204c0.28,0 -145.484,-0.321 -145.115,-0.384c2.084,-0.355 5.313,-1.564 6.526,-1.993c0.921,-0.327 2.192,-0.119 2.796,-0.547c0.065,-0.045 0.322,0.046 0.386,0c0.418,-0.296 1.607,-0.045 2.025,-0.341c0.164,-0.116 0.897,0.047 1.061,-0.069c0.67,-0.475 2.646,0.039 3.278,-0.41c0.198,-0.14 0.989,0.026 1.254,-0.068c0.622,-0.22 1.907,0.015 2.314,-0.273c0.078,-0.055 0.246,-0.046 0.417,-0.035l0.034,0.002c0.171,0.011 0.339,0.02 0.417,-0.035c0.145,-0.103 0.627,0.034 0.771,-0.069c0.078,-0.055 0.649,0 0.772,0c0.561,0 1.079,-0.068 1.735,-0.068c0.108,0 0.607,0.048 0.675,0c0.358,-0.253 2.271,-0.068 2.893,-0.068c1.442,0 2.845,-0.069 4.243,-0.069c0.422,0 1.409,0.095 1.639,-0.068c0.068,-0.048 0.568,0 0.675,0c0.491,0 1.596,0.152 2.025,0c0.753,-0.267 2.306,-0.068 3.182,-0.068c2.769,0 5.537,-0.345 8.197,0.136c2.024,0.367 4.38,-0.432 6.662,-0.2c1.874,0.191 3.879,0.269 5.777,0.269l3.278,0c0.549,0 1.366,0.096 1.832,-0.069c0.265,-0.093 1.053,0.143 1.254,0c0.211,-0.149 1.055,-0.068 1.446,-0.068c0.733,0 2.589,-0.058 2.989,-0.342c0.299,-0.211 1.411,0.094 1.736,-0.136c0.209,-0.148 0.852,0.011 1.061,-0.137c0.177,-0.125 0.691,-0.011 0.868,-0.136c0.51,-0.362 1.87,-0.164 2.41,-0.547c0.254,-0.18 1.186,-0.088 1.447,-0.273c0.824,-0.584 2.778,-0.397 3.568,-0.957c0.225,-0.159 0.835,-0.045 1.06,-0.204c0.327,-0.232 1.505,0.026 1.832,-0.205c0.243,-0.172 0.812,-0.015 1.157,-0.137c0.384,-0.136 0.992,-0.068 1.447,-0.068c1.061,0 2.121,0 3.182,0c1.396,0 8.292,0.846 11.016,0.327c2.321,-0.441 3.128,-3.652 5.33,-3.438c1.036,0.101 3.954,1.174 4.986,0.49c1.033,-0.684 -0.85,-2.967 0.296,-3.373c1.147,-0.405 5.044,1.387 6.583,0.94c1.539,-0.446 1.995,-3.795 2.652,-3.618c0.656,0.176 0.757,4.285 1.287,4.677c0.53,0.392 1.12,-2.015 1.893,-2.326c0.773,-0.312 1.276,2.564 2.075,2.644c0.798,0.081 2,-1.34 2.716,-2.16c0.729,-0.836 1.187,-2.684 1.659,-2.851c0.471,-0.167 0.742,1.546 0.723,2.221c-0.022,0.769 -1.109,2.713 -0.793,2.722c0.316,0.009 2.508,-2.352 3.137,-3.043c0.38,-0.418 0.498,-0.991 0.578,-1.435c0.074,-0.407 0.061,-0.834 -0.096,-1.229c-0.278,-0.698 -0.85,-2.64 -0.641,-3.292c0.209,-0.652 0.515,-3.441 1.223,-3.381c0.708,0.06 2.032,2.942 2.802,3.033c1.088,0.129 1.443,-3.49 0.637,-7.717c-0.152,-0.795 -0.26,-2.001 -0.106,-2.998c0.121,-0.786 2.802,-6.157 2.812,-6.209c0.845,-4.16 4.389,-9.619 4.604,-9.619l0,0.068Z" style="fill:url(#_Radial1);"/><g><path d="M137.767,56.795c0.064,-0.096 -0.667,-1.252 -1.112,-1.602c-0.428,-0.338 -1.396,-0.509 -1.556,-0.5c-0.161,0.009 0.641,0.416 0.592,0.552c-0.049,0.137 -0.984,0.181 -0.887,0.267c0.098,0.087 1.016,0.057 1.473,0.255c0.493,0.213 1.427,1.123 1.49,1.028Z" style="fill:url(#_Radial2);"/><path d="M123.497,63.589c-0.039,-0.06 0.416,-0.78 0.693,-0.998c0.267,-0.21 0.87,-0.317 0.97,-0.312c0.101,0.006 -0.399,0.259 -0.369,0.345c0.031,0.085 0.614,0.112 0.553,0.166c-0.061,0.054 -0.633,0.035 -0.918,0.158c-0.307,0.133 -0.889,0.701 -0.929,0.641Z" style="fill:url(#_Radial3);"/><path d="M110.472,73.735c-0.145,-0.011 -0.731,-1.643 -0.734,-2.361c-0.003,-0.69 0.581,-1.791 0.715,-1.945c0.134,-0.154 -0.084,0.965 0.09,1.023c0.175,0.057 0.948,-0.843 0.958,-0.678c0.011,0.165 -0.735,1.059 -0.894,1.67c-0.172,0.66 0.01,2.303 -0.135,2.291Z" style="fill:url(#_Radial4);"/><path d="M95.527,79.244c-0.066,0.112 -0.705,0.719 -1.498,0.871c-0.282,0.053 -1.47,0.206 -2.573,0.792c-1.356,0.721 -2.827,1.209 -3.358,1.177c-0.614,-0.036 -1.239,0.416 -1.925,0.501c-1.56,0.194 -3.072,0.563 -3.242,0.444c-0.247,-0.173 3.109,-1.233 3.486,-1.713c0.376,-0.479 -2.651,-0.7 -2.19,-0.889c0.46,-0.189 3.464,-0.264 4.915,-0.483c1.568,-0.237 6.599,-1.062 6.385,-0.7Z" style="fill:url(#_Radial5);"/><path d="M149.447,50.286c-0.058,-0.063 -1.021,0.263 -1.352,0.524c-0.318,0.25 -0.611,0.92 -0.633,1.037c-0.021,0.118 0.413,-0.39 0.503,-0.331c0.09,0.059 -0.042,0.742 0.038,0.687c0.08,-0.055 0.218,-0.724 0.441,-1.019c0.241,-0.32 1.061,-0.836 1.003,-0.898Z" style="fill:url(#_Radial6);"/><path d="M160.77,30.984c1.001,-7.083 0.981,60.268 0.981,60.268c0.33,0 -163.219,0.238 -162.782,0.133c2.459,-0.59 9.255,-1.466 10.686,-2.181c1.087,-0.544 2.587,-0.198 3.3,-0.911c0.076,-0.076 0.379,0.076 0.455,0c0.493,-0.493 1.897,-0.076 2.39,-0.569c0.193,-0.193 1.058,0.08 1.251,-0.113c0.791,-0.791 3.122,0.063 3.869,-0.683c0.233,-0.233 0.93,0.25 1.479,-0.114c0.684,-0.454 2.251,0.025 2.731,-0.455c0.091,-0.092 0.29,-0.077 0.492,-0.059l0.039,0.004c0.202,0.018 0.401,0.033 0.493,-0.059c0.17,-0.17 0.739,0.057 0.91,-0.114c0.092,-0.092 0.765,0 0.91,0c0.662,0 1.273,-0.113 2.048,-0.113c0.126,0 0.716,0.08 0.797,0c0.422,-0.422 2.679,-0.114 3.413,-0.114c0.647,0 5.318,-0.866 10.762,-0.393c2.552,0.222 5.459,-0.767 8.431,-0.552c2.563,0.186 5.14,-0.056 7.443,0.023c3.164,0.108 6.288,-0.242 7.8,-0.209c0.365,0.008 0.585,-0.007 0.807,-0.007l3.869,0c0.647,0 1.612,0.161 2.162,-0.114c0.312,-0.156 1.242,0.237 1.479,0c0.249,-0.249 1.245,-0.113 1.707,-0.113c0.864,0 3.054,-0.096 3.527,-0.569c0.351,-0.352 1.664,0.156 2.048,-0.228c0.246,-0.246 1.005,0.019 1.251,-0.227c0.209,-0.209 0.816,-0.019 1.024,-0.228c0.602,-0.602 2.207,-0.273 2.845,-0.91c0.299,-0.3 1.398,-0.147 1.707,-0.455c0.972,-0.973 3.278,-0.662 4.209,-1.593c0.266,-0.266 0.987,-0.076 1.252,-0.342c0.386,-0.386 1.776,0.045 2.162,-0.341c0.286,-0.286 0.958,-0.024 1.365,-0.228c0.453,-0.226 1.17,-0.113 1.707,-0.113c1.251,0 2.503,0 3.755,0c1.647,0 3.062,-0.228 4.551,-0.228c0.516,0 1.764,0.17 2.048,-0.114c0.341,-0.341 1.593,0.228 1.934,-0.113c0.379,-0.38 1.669,0.151 2.048,-0.228c0.124,-0.123 0.629,-0.03 0.797,-0.114c0.413,-0.207 1.322,-0.299 1.593,-0.569c0.607,-0.607 1.243,-1.243 1.82,-1.82c0.204,-0.204 0.114,-0.987 0.114,-1.366c0,-1.86 -1.393,-2.955 -2.314,-3.512c-0.92,-0.555 -2.624,-0.218 -3.218,0.171c-0.593,0.388 -0.453,1.63 -0.341,2.159c0.098,0.468 0.556,0.929 1.012,1.015c0.456,0.086 1.524,-0.637 1.725,-0.499c0.201,0.138 -0.288,0.912 -0.517,1.327c-0.809,1.467 -4.026,1.421 -4.987,-0.324c-0.556,-1.01 -1.144,-3.067 -0.283,-4.156c0.946,-1.195 3.359,-3.373 5.957,-3.017c1.223,0.168 2.483,1.76 3.08,2.058c0.531,0.266 1.279,0.938 1.706,1.365c0.367,0.367 1.16,0.136 1.479,0.455c0.065,0.064 0.196,0.062 0.329,0.058l0.026,-0.001c0.133,-0.005 0.264,-0.007 0.328,0.057c0.226,0.226 1.054,0.114 1.479,0.114c1.037,0 2.139,-1.343 2.731,-1.935c0.237,-0.236 1.821,-3.864 0.049,-4.2c-1.324,-0.25 -3.801,0.179 -3.999,0.588c-0.106,0.22 -0.531,1.338 0.268,1.71c0.69,0.321 2.62,-0.11 2.545,0.16c-0.529,1.887 -5.677,1.939 -6.238,-0.682c-0.203,-0.95 1.909,-3.557 3.141,-4.256c1.232,-0.699 3.254,0.989 4.25,0.062c0.997,-0.926 0.484,-4.395 1.731,-5.623c1.248,-1.227 4.426,-2.223 5.755,-1.744c1.329,0.479 2.293,3.545 2.219,4.618c-0.073,1.071 -2.419,1.951 -2.659,1.82c-0.24,-0.131 0.979,-1.92 0.743,-2.558c-0.235,-0.638 -1.343,-1.377 -2.157,-1.271c-0.813,0.107 -1.874,0.964 -2.245,1.863c-0.372,0.9 -0.36,4.128 0.464,5.897c0.256,0.55 1.875,2.197 3.492,1.556c0.56,-0.222 1.321,-3.356 2.233,-3.875c0.912,-0.519 2.89,0.052 3.238,0.76c0.56,1.139 -1.016,2.983 -1.005,2.686c0.03,-0.882 -0.36,-1.757 -0.868,-1.962c-0.385,-0.156 -0.838,0.074 -1.226,0.981c-0.21,0.492 -0.613,3.165 -0.313,3.107c1.688,-0.326 4.945,-3.058 5.827,-4.766c0.843,-1.63 0.025,-5.292 -0.533,-5.479c-0.328,-0.11 -1.209,0.044 -1.887,0.943c-0.591,0.784 0.559,2.619 0.353,2.648c-0.475,0.068 -3.396,-2.054 -2.581,-3.142c1.902,-2.544 4.645,-3.163 6.43,-2.264c0.966,0.487 1.657,3.171 1.557,5.624c-0.091,2.224 -1.63,4.646 -1.534,4.609c0.726,-0.279 3.475,-3.928 3.772,-4.523c0.37,-0.74 0.588,-1.649 0.682,-2.389c0.087,-0.678 -0.051,-1.367 -0.113,-2.048c-0.061,-0.652 -1.617,-3.682 -1.856,-4.923c-0.162,-0.839 0.015,-1.894 0.42,-2.527c0.404,-0.634 1.483,-1.181 2.008,-1.273c0.213,-0.038 1.003,0.171 1.297,0.663c0.316,0.53 0.341,1.332 0.301,1.721c-0.028,0.271 -0.51,0.774 -0.543,0.611c-0.082,-0.405 -0.561,-1.504 -0.974,-1.397c-0.426,0.11 -0.462,0.656 -0.495,0.792c-0.211,0.859 0.457,1.621 1.251,1.995c0.627,0.295 1.334,0.348 1.747,0.015c1.203,-0.969 3.315,-4.999 4.22,-7.819c1.263,-3.939 3.188,-14.573 3.362,-15.812Z" style="fill:url(#_Radial7);"/></g></g><defs><radialGradient id="_Radial1" cx="0" cy="0" r="1" gradientUnits="userSpaceOnUse" gradientTransform="matrix(99.9474,0,0,99.9474,86.4008,20.1197)"><stop offset="0" style="stop-color:#fff;stop-opacity:0.25098"/><stop offset="0.55" style="stop-color:#e6f4d3;stop-opacity:0.25098"/><stop offset="1" style="stop-color:#8ccd32;stop-opacity:0.25098"/></radialGradient><radialGradient id="_Radial2" cx="0" cy="0" r="1" gradientUnits="userSpaceOnUse" gradientTransform="matrix(104.478,0,0,104.478,71.2929,15.7806)"><stop offset="0" style="stop-color:#fff;stop-opacity:0"/><stop offset="0.55" style="stop-color:#e7f4d3;stop-opacity:0.115294"/><stop offset="1" style="stop-color:#8dcd32;stop-opacity:0.538039"/></radialGradient><radialGradient id="_Radial3" cx="0" cy="0" r="1" gradientUnits="userSpaceOnUse" gradientTransform="matrix(104.478,0,0,104.478,71.2929,15.7806)"><stop offset="0" style="stop-color:#fff;stop-opacity:0"/><stop offset="0.55" style="stop-color:#e7f4d3;stop-opacity:0.115294"/><stop offset="1" style="stop-color:#8dcd32;stop-opacity:0.538039"/></radialGradient><radialGradient id="_Radial4" cx="0" cy="0" r="1" gradientUnits="userSpaceOnUse" gradientTransform="matrix(104.478,0,0,104.478,71.2929,15.7806)"><stop offset="0" style="stop-color:#fff;stop-opacity:0"/><stop offset="0.55" style="stop-color:#e7f4d3;stop-opacity:0.115294"/><stop offset="1" style="stop-color:#8dcd32;stop-opacity:0.538039"/></radialGradient><radialGradient id="_Radial5" cx="0" cy="0" r="1" gradientUnits="userSpaceOnUse" gradientTransform="matrix(104.478,0,0,104.478,73.6213,15.2244)"><stop offset="0" style="stop-color:#fff;stop-opacity:0"/><stop offset="0.55" style="stop-color:#e7f4d3;stop-opacity:0.115294"/><stop offset="1" style="stop-color:#8dcd32;stop-opacity:0.538039"/></radialGradient><radialGradient id="_Radial6" cx="0" cy="0" r="1" gradientUnits="userSpaceOnUse" gradientTransform="matrix(104.478,0,0,104.478,71.2929,15.7806)"><stop offset="0" style="stop-color:#fff;stop-opacity:0"/><stop offset="0.55" style="stop-color:#e7f4d3;stop-opacity:0.115294"/><stop offset="1" style="stop-color:#8dcd32;stop-opacity:0.538039"/></radialGradient><radialGradient id="_Radial7" cx="0" cy="0" r="1" gradientUnits="userSpaceOnUse" gradientTransform="matrix(104.478,0,0,104.478,71.2929,15.7806)"><stop offset="0" style="stop-color:#fff;stop-opacity:0"/><stop offset="0.55" style="stop-color:#e7f4d3;stop-opacity:0.115294"/><stop offset="1" style="stop-color:#8dcd32;stop-opacity:0.538039"/></radialGradient></defs></svg>