<svg width="100px" height="100px" viewBox="0 0 100 100" version="1.1" xmlns="http://www.w3.org/2000/svg" xmlns:xlink="http://www.w3.org/1999/xlink" xml:space="preserve" xmlns:serif="http://www.serif.com/" style="fill-rule:evenodd;clip-rule:evenodd;"><g><path d="M86.184,31.713c0.144,0.435 0.347,0.794 1.012,1.257c1.189,0.83 3.916,1.312 3.916,1.312c0,0 0.086,-2.424 -0.341,-3.661c-0.172,-0.501 -0.505,-0.995 -0.857,-1.37c0.279,-0.03 0.592,-0.13 1.007,-0.352c1.279,-0.685 2.943,-2.897 2.943,-2.897c0,0 -2.122,-1.174 -3.418,-1.356c-0.301,-0.041 -0.899,0.118 -1.425,0.334c0.291,-0.403 0.591,-0.81 0.601,-1.152c0.043,-1.45 -1.044,-3.996 -1.044,-3.996c0,0 -2.077,1.255 -2.879,2.288c-0.183,0.237 -0.308,1.408 -0.308,1.408c-1.349,-1.704 -4.144,-2.036 -4.144,-2.036c0,0 -0.145,1.824 0.044,2.714c0.106,0.497 0.718,1.449 0.718,1.449c0,0 -1.212,-0.119 -1.791,0.023c-0.811,0.198 -2.405,1.411 -2.405,1.411c0,0 1.055,1.752 2.304,2.135c1.071,0.328 1.725,-0.146 2.181,-0.171c-0.32,0.317 -1.054,1.026 -1.265,1.824c-0.372,1.403 -0.214,3.018 -0.214,3.018c0,0 2.424,-0.097 3.624,-0.615c0.685,-0.294 1.332,-0.903 1.657,-1.415c0.03,-0.048 0.057,-0.098 0.084,-0.152Z" style="fill:#efa5e3;fill-rule:nonzero;stroke:#fff;stroke-width:1.36px;"/><path d="M93.444,62.044c0.378,-0.26 0.666,-0.554 0.926,-1.322c0.466,-1.373 0.17,-4.126 0.17,-4.126c0,0 -2.353,0.592 -3.422,1.346c-0.433,0.305 -0.815,0.762 -1.077,1.205c-0.106,-0.26 -0.29,-0.532 -0.618,-0.869c-1.014,-1.038 -3.602,-2.021 -3.602,-2.021c0,0 -0.538,2.365 -0.351,3.661c0.044,0.3 0.363,0.83 0.718,1.275c-0.469,-0.166 -0.943,-0.341 -1.275,-0.256c-1.405,0.362 -3.547,2.115 -3.547,2.115c0,0 1.784,1.645 3,2.129c0.278,0.109 1.437,-0.097 1.437,-0.097c-1.261,1.77 -0.802,4.547 -0.802,4.547c0,0 1.793,-0.368 2.595,-0.798c0.448,-0.239 1.191,-1.092 1.191,-1.092c0,0 0.224,1.196 0.522,1.713c0.415,0.724 2.024,1.917 2.024,1.917c0,0 1.389,-1.5 1.409,-2.807c0.017,-1.12 -0.62,-1.616 -0.771,-2.047c0.393,0.219 1.278,0.726 2.104,0.707c1.451,-0.033 2.958,-0.635 2.958,-0.635c0,0 -0.768,-2.301 -1.599,-3.309c-0.473,-0.576 -1.238,-1.028 -1.821,-1.197c-0.054,-0.016 -0.11,-0.028 -0.169,-0.039Z" style="fill:#efa5e3;fill-rule:nonzero;stroke:#fff;stroke-width:1.36px;"/><path d="M52.65,18.084c0.171,-0.426 0.247,-0.831 0.039,-1.614c-0.373,-1.401 -2.144,-3.529 -2.144,-3.529c0,0 -1.631,1.795 -2.104,3.016c-0.192,0.493 -0.256,1.086 -0.229,1.599c-0.232,-0.157 -0.536,-0.282 -0.996,-0.381c-1.419,-0.303 -4.118,0.313 -4.118,0.313c0,0 0.862,2.267 1.735,3.242c0.203,0.226 0.763,0.49 1.304,0.665c-0.482,0.12 -0.974,0.237 -1.203,0.492c-0.969,1.079 -1.781,3.726 -1.781,3.726c0,0 2.396,0.381 3.676,0.111c0.292,-0.063 1.143,-0.877 1.143,-0.877c-0.07,2.172 1.851,4.23 1.851,4.23c0,0 1.288,-1.3 1.718,-2.102c0.24,-0.447 0.387,-1.569 0.387,-1.569c0,0 0.849,0.873 1.383,1.138c0.747,0.372 2.747,0.475 2.747,0.475c0,0 0.326,-2.019 -0.381,-3.118c-0.606,-0.942 -1.412,-1.002 -1.776,-1.277c0.449,-0.036 1.467,-0.104 2.143,-0.577c1.19,-0.831 2.112,-2.167 2.112,-2.167c0,0 -1.914,-1.491 -3.165,-1.87c-0.713,-0.217 -1.6,-0.169 -2.179,0.012c-0.053,0.017 -0.107,0.038 -0.162,0.062Z" style="fill:#efa5e3;fill-rule:nonzero;stroke:#fff;stroke-width:1.36px;"/><path d="M24.125,45.152c0.17,-0.426 0.247,-0.83 0.038,-1.613c-0.373,-1.402 -2.144,-3.53 -2.144,-3.53c0,0 -1.631,1.796 -2.103,3.016c-0.192,0.493 -0.257,1.086 -0.229,1.6c-0.233,-0.157 -0.536,-0.283 -0.997,-0.381c-1.419,-0.303 -4.118,0.312 -4.118,0.312c0,0 0.863,2.267 1.736,3.242c0.203,0.226 0.762,0.491 1.304,0.665c-0.483,0.121 -0.974,0.237 -1.203,0.492c-0.97,1.08 -1.782,3.726 -1.782,3.726c0,0 2.396,0.382 3.676,0.111c0.292,-0.063 1.143,-0.877 1.143,-0.877c-0.069,2.172 1.851,4.23 1.851,4.23c0,0 1.289,-1.299 1.719,-2.102c0.24,-0.447 0.387,-1.569 0.387,-1.569c0,0 0.848,0.873 1.383,1.138c0.747,0.373 2.747,0.475 2.747,0.475c0,0 0.325,-2.019 -0.381,-3.118c-0.607,-0.942 -1.412,-1.002 -1.777,-1.277c0.449,-0.035 1.467,-0.103 2.144,-0.577c1.189,-0.831 2.111,-2.167 2.111,-2.167c0,0 -1.914,-1.49 -3.165,-1.869c-0.712,-0.217 -1.599,-0.17 -2.178,0.012c-0.054,0.016 -0.107,0.037 -0.162,0.061Z" style="fill:#efa5e3;fill-rule:nonzero;stroke:#fff;stroke-width:1.36px;"/><path d="M59.554,47.547c0.187,-0.466 0.27,-0.908 0.042,-1.765c-0.408,-1.533 -2.345,-3.86 -2.345,-3.86c0,0 -1.783,1.964 -2.3,3.298c-0.21,0.54 -0.281,1.188 -0.251,1.75c-0.254,-0.172 -0.586,-0.309 -1.09,-0.417c-1.552,-0.331 -4.503,0.342 -4.503,0.342c0,0 0.943,2.479 1.898,3.546c0.222,0.247 0.834,0.536 1.426,0.727c-0.528,0.132 -1.065,0.26 -1.316,0.538c-1.06,1.181 -1.948,4.075 -1.948,4.075c0,0 2.62,0.418 4.02,0.121c0.32,-0.069 1.251,-0.958 1.251,-0.958c-0.077,2.375 2.024,4.626 2.024,4.626c0,0 1.409,-1.422 1.879,-2.299c0.263,-0.489 0.423,-1.716 0.423,-1.716c0,0 0.929,0.954 1.513,1.245c0.817,0.407 3.004,0.519 3.004,0.519c0,0 0.356,-2.208 -0.416,-3.41c-0.664,-1.03 -1.545,-1.096 -1.944,-1.397c0.492,-0.039 1.605,-0.113 2.345,-0.631c1.301,-0.909 2.309,-2.369 2.309,-2.369c0,0 -2.093,-1.631 -3.461,-2.045c-0.779,-0.238 -1.75,-0.186 -2.383,0.013c-0.058,0.018 -0.117,0.041 -0.177,0.067Z" style="fill:#efa5e3;fill-rule:nonzero;stroke:#fff;stroke-width:1.48px;"/><path d="M69.745,27.558c0.241,-0.222 0.415,-0.459 0.521,-1.028c0.192,-1.019 -0.295,-2.936 -0.295,-2.936c0,0 -1.604,0.655 -2.284,1.296c-0.276,0.259 -0.5,0.622 -0.641,0.961c-0.101,-0.173 -0.258,-0.347 -0.525,-0.552c-0.821,-0.633 -2.751,-1.067 -2.751,-1.067c0,0 -0.142,1.726 0.121,2.624c0.061,0.208 0.34,0.551 0.635,0.83c-0.348,-0.071 -0.7,-0.147 -0.927,-0.053c-0.957,0.397 -2.296,1.853 -2.296,1.853c0,0 1.427,0.984 2.336,1.204c0.208,0.049 1.007,-0.213 1.007,-0.213c-0.714,1.378 -0.11,3.296 -0.11,3.296c0,0 1.231,-0.44 1.755,-0.825c0.293,-0.215 0.733,-0.893 0.733,-0.893c0,0 0.278,0.824 0.541,1.16c0.367,0.47 1.625,1.152 1.625,1.152c0,0 0.831,-1.201 0.714,-2.127c-0.101,-0.794 -0.602,-1.081 -0.752,-1.371c0.301,0.116 0.978,0.386 1.56,0.289c1.022,-0.17 2.028,-0.747 2.028,-0.747c0,0 -0.774,-1.55 -1.464,-2.179c-0.393,-0.36 -0.979,-0.603 -1.408,-0.664c-0.04,-0.005 -0.081,-0.009 -0.123,-0.01Z" style="fill:#efa5e3;fill-rule:nonzero;stroke:#fff;stroke-width:0.97px;"/><path d="M85.992,46.24c0.286,0.16 0.565,0.251 1.139,0.175c1.027,-0.137 2.697,-1.198 2.697,-1.198c0,0 -1.124,-1.319 -1.946,-1.765c-0.332,-0.181 -0.746,-0.281 -1.112,-0.308c0.132,-0.151 0.249,-0.354 0.361,-0.672c0.344,-0.977 0.154,-2.946 0.154,-2.946c0,0 -1.685,0.405 -2.456,0.934c-0.178,0.123 -0.417,0.496 -0.59,0.864c-0.041,-0.353 -0.079,-0.712 -0.239,-0.898c-0.677,-0.785 -2.478,-1.602 -2.478,-1.602c0,0 -0.488,1.663 -0.413,2.595c0.018,0.213 0.517,0.89 0.517,0.89c-1.533,-0.247 -3.166,0.926 -3.166,0.926c0,0 0.803,1.031 1.332,1.409c0.296,0.211 1.077,0.417 1.077,0.417c0,0 -0.696,0.522 -0.932,0.877c-0.332,0.495 -0.587,1.903 -0.587,1.903c0,0 1.401,0.414 2.244,0.014c0.723,-0.344 0.838,-0.909 1.067,-1.143c-0.016,0.322 -0.061,1.05 0.213,1.572c0.481,0.918 1.343,1.694 1.343,1.694c0,0 1.231,-1.221 1.613,-2.072c0.219,-0.486 0.266,-1.119 0.19,-1.545c-0.007,-0.04 -0.017,-0.08 -0.028,-0.121Z" style="fill:#efa5e3;fill-rule:nonzero;stroke:#fff;stroke-width:0.97px;"/><path d="M82.809,90.987c-0.063,0.321 -0.062,0.615 0.19,1.136c0.451,0.934 1.98,2.188 1.98,2.188c0,0 0.902,-1.48 1.069,-2.4c0.068,-0.372 0.034,-0.796 -0.055,-1.153c0.185,0.079 0.415,0.126 0.751,0.133c1.036,0.021 2.847,-0.774 2.847,-0.774c0,0 -0.911,-1.474 -1.655,-2.041c-0.173,-0.131 -0.601,-0.241 -1.004,-0.29c0.322,-0.15 0.651,-0.298 0.777,-0.508c0.535,-0.888 0.748,-2.854 0.748,-2.854c0,0 -1.732,0.055 -2.594,0.418c-0.196,0.083 -0.684,0.769 -0.684,0.769c-0.244,-1.533 -1.869,-2.718 -1.869,-2.718c0,0 -0.729,1.085 -0.922,1.706c-0.108,0.346 -0.06,1.153 -0.06,1.153c0,0 -0.713,-0.498 -1.124,-0.612c-0.574,-0.16 -1.991,0.037 -1.991,0.037c0,0 0.044,1.461 0.688,2.136c0.552,0.58 1.126,0.513 1.419,0.657c-0.311,0.085 -1.016,0.27 -1.427,0.693c-0.722,0.744 -1.189,1.805 -1.189,1.805c0,0 1.544,0.788 2.472,0.885c0.53,0.057 1.146,-0.096 1.527,-0.302c0.036,-0.019 0.07,-0.041 0.106,-0.064Z" style="fill:#efa5e3;fill-rule:nonzero;stroke:#fff;stroke-width:0.97px;"/><path d="M33.732,36.764c-0.325,0.041 -0.605,0.134 -1.021,0.536c-0.745,0.72 -1.459,2.565 -1.459,2.565c0,0 1.687,0.394 2.613,0.265c0.375,-0.051 0.768,-0.216 1.079,-0.412c-0.018,0.2 0.01,0.433 0.108,0.754c0.304,0.992 1.625,2.463 1.625,2.463c0,0 1.116,-1.326 1.421,-2.209c0.071,-0.206 0.042,-0.647 -0.037,-1.045c0.243,0.259 0.486,0.525 0.725,0.58c1.01,0.23 2.945,-0.182 2.945,-0.182c0,0 -0.594,-1.628 -1.208,-2.333c-0.141,-0.161 -0.944,-0.41 -0.944,-0.41c1.38,-0.711 1.998,-2.624 1.998,-2.624c0,0 -1.259,-0.354 -1.909,-0.343c-0.363,0.005 -1.114,0.303 -1.114,0.303c0,0 0.25,-0.833 0.23,-1.259c-0.027,-0.595 -0.658,-1.879 -0.658,-1.879c0,0 -1.373,0.497 -1.814,1.32c-0.377,0.706 -0.135,1.23 -0.18,1.553c-0.178,-0.268 -0.574,-0.88 -1.105,-1.138c-0.932,-0.454 -2.086,-0.566 -2.086,-0.566c0,0 -0.266,1.713 -0.068,2.625c0.112,0.52 0.45,1.058 0.764,1.356c0.029,0.028 0.061,0.054 0.095,0.08Z" style="fill:#efa5e3;fill-rule:nonzero;stroke:#fff;stroke-width:0.97px;"/><path d="M79.013,5.307c-0.141,-0.296 -0.316,-0.532 -0.828,-0.802c-0.917,-0.483 -2.892,-0.584 -2.892,-0.584c0,0 0.152,1.726 0.564,2.565c0.166,0.34 0.446,0.661 0.729,0.896c-0.196,0.046 -0.409,0.144 -0.683,0.338c-0.847,0.598 -1.832,2.313 -1.832,2.313c0,0 1.608,0.646 2.543,0.66c0.217,0.003 0.627,-0.163 0.981,-0.362c-0.17,0.312 -0.347,0.626 -0.325,0.87c0.098,1.032 1.093,2.74 1.093,2.74c0,0 1.362,-1.072 1.84,-1.876c0.108,-0.183 0.093,-1.025 0.093,-1.025c1.107,1.089 3.118,1.078 3.118,1.078c0,0 -0.058,-1.306 -0.271,-1.92c-0.118,-0.343 -0.636,-0.964 -0.636,-0.964c0,0 0.869,-0.022 1.267,-0.174c0.558,-0.212 1.581,-1.212 1.581,-1.212c0,0 -0.902,-1.149 -1.822,-1.311c-0.788,-0.138 -1.21,0.256 -1.531,0.314c0.199,-0.253 0.657,-0.821 0.736,-1.405c0.14,-1.027 -0.115,-2.158 -0.115,-2.158c0,0 -1.709,0.282 -2.515,0.755c-0.459,0.269 -0.864,0.758 -1.049,1.15c-0.017,0.036 -0.032,0.074 -0.046,0.114Z" style="fill:#efa5e3;fill-rule:nonzero;stroke:#fff;stroke-width:0.97px;"/><path d="M29.321,24.969c-0.177,-0.153 -0.36,-0.256 -0.773,-0.284c-0.738,-0.051 -2.058,0.455 -2.058,0.455c0,0 0.599,1.083 1.111,1.512c0.207,0.174 0.482,0.303 0.735,0.374c-0.114,0.087 -0.225,0.213 -0.348,0.419c-0.38,0.635 -0.527,2.041 -0.527,2.041c0,0 1.237,-0.044 1.852,-0.305c0.142,-0.061 0.362,-0.288 0.536,-0.521c-0.021,0.253 -0.046,0.51 0.04,0.663c0.362,0.645 1.506,1.474 1.506,1.474c0,0 0.579,-1.095 0.659,-1.758c0.018,-0.152 -0.235,-0.697 -0.235,-0.697c1.037,0.391 2.348,-0.198 2.348,-0.198c0,0 -0.416,-0.836 -0.733,-1.176c-0.176,-0.189 -0.694,-0.445 -0.694,-0.445c0,0 0.561,-0.266 0.777,-0.481c0.303,-0.3 0.682,-1.249 0.682,-1.249c0,0 -0.922,-0.489 -1.569,-0.329c-0.555,0.138 -0.716,0.517 -0.91,0.648c0.057,-0.223 0.192,-0.726 0.075,-1.13c-0.206,-0.712 -0.7,-1.377 -0.7,-1.377c0,0 -1.035,0.679 -1.424,1.221c-0.222,0.309 -0.345,0.745 -0.353,1.054c0,0.029 0.001,0.059 0.003,0.089Z" style="fill:#efa5e3;fill-rule:nonzero;stroke:#fff;stroke-width:0.69px;"/><path d="M29.064,62.127c-0.167,-0.015 -0.316,0.001 -0.568,0.156c-0.45,0.278 -1.006,1.121 -1.006,1.121c0,0 0.798,0.38 1.274,0.416c0.193,0.015 0.406,-0.024 0.583,-0.088c-0.031,0.098 -0.042,0.217 -0.028,0.388c0.043,0.527 0.542,1.405 0.542,1.405c0,0 0.701,-0.54 0.949,-0.947c0.058,-0.095 0.091,-0.318 0.095,-0.526c0.093,0.156 0.185,0.315 0.298,0.369c0.479,0.224 1.489,0.229 1.489,0.229c0,0 -0.119,-0.876 -0.349,-1.295c-0.052,-0.095 -0.426,-0.306 -0.426,-0.306c0.766,-0.205 1.282,-1.092 1.282,-1.092c0,0 -0.589,-0.313 -0.915,-0.378c-0.181,-0.037 -0.588,0.03 -0.588,0.03c0,0 0.215,-0.389 0.252,-0.603c0.051,-0.3 -0.124,-1.009 -0.124,-1.009c0,0 -0.739,0.099 -1.048,0.461c-0.265,0.311 -0.201,0.599 -0.259,0.755c-0.06,-0.153 -0.191,-0.501 -0.427,-0.688c-0.415,-0.328 -0.979,-0.509 -0.979,-0.509c0,0 -0.319,0.825 -0.319,1.302c-0.001,0.271 0.109,0.576 0.233,0.759c0.012,0.017 0.025,0.034 0.039,0.05Z" style="fill:#efa5e3;fill-rule:nonzero;stroke:#fff;stroke-width:0.49px;"/><path d="M76.008,58.397c0.25,-0.202 0.435,-0.424 0.574,-0.974c0.25,-0.986 -0.109,-2.893 -0.109,-2.893c0,0 -1.611,0.543 -2.316,1.129c-0.286,0.237 -0.528,0.578 -0.686,0.901c-0.089,-0.175 -0.232,-0.355 -0.481,-0.573c-0.765,-0.669 -2.628,-1.213 -2.628,-1.213c0,0 -0.245,1.682 -0.043,2.577c0.047,0.207 0.3,0.56 0.572,0.852c-0.337,-0.091 -0.678,-0.187 -0.905,-0.109c-0.962,0.33 -2.362,1.674 -2.362,1.674c0,0 1.337,1.051 2.213,1.321c0.201,0.061 0.999,-0.146 0.999,-0.146c-0.783,1.306 -0.309,3.221 -0.309,3.221c0,0 1.232,-0.356 1.769,-0.701c0.3,-0.192 0.772,-0.829 0.772,-0.829c0,0 0.222,0.824 0.459,1.169c0.33,0.483 1.52,1.228 1.52,1.228c0,0 0.888,-1.125 0.83,-2.039c-0.05,-0.784 -0.523,-1.095 -0.652,-1.388c0.287,0.131 0.934,0.437 1.509,0.378c1.012,-0.103 2.032,-0.607 2.032,-0.607c0,0 -0.663,-1.565 -1.299,-2.224c-0.363,-0.376 -0.922,-0.65 -1.339,-0.736c-0.038,-0.008 -0.078,-0.014 -0.12,-0.018Z" style="fill:#efa5e3;fill-rule:nonzero;stroke:#fff;stroke-width:0.95px;"/><path d="M48.396,41.644c0.222,-0.038 0.411,-0.111 0.684,-0.4c0.489,-0.519 0.92,-1.809 0.92,-1.809c0,0 -1.172,-0.217 -1.804,-0.099c-0.255,0.048 -0.52,0.174 -0.727,0.318c0.005,-0.138 -0.021,-0.297 -0.099,-0.515c-0.24,-0.671 -1.195,-1.639 -1.195,-1.639c0,0 -0.724,0.946 -0.906,1.563c-0.042,0.143 -0.007,0.446 0.06,0.717c-0.175,-0.171 -0.351,-0.346 -0.517,-0.376c-0.702,-0.125 -2.017,0.22 -2.017,0.22c0,0 0.46,1.099 0.904,1.564c0.102,0.106 0.662,0.251 0.662,0.251c-0.925,0.532 -1.289,1.867 -1.289,1.867c0,0 0.877,0.202 1.323,0.174c0.249,-0.015 0.755,-0.244 0.755,-0.244c0,0 -0.145,0.58 -0.117,0.872c0.037,0.409 0.512,1.271 0.512,1.271c0,0 0.927,-0.386 1.204,-0.966c0.236,-0.497 0.053,-0.849 0.074,-1.072c0.131,0.178 0.422,0.586 0.795,0.746c0.655,0.282 1.451,0.322 1.451,0.322c0,0 0.128,-1.185 -0.037,-1.806c-0.094,-0.353 -0.343,-0.712 -0.568,-0.907c-0.021,-0.018 -0.044,-0.035 -0.068,-0.052Z" style="fill:#efa5e3;fill-rule:nonzero;stroke:#fff;stroke-width:0.67px;"/><path d="M47.021,73.62c-0.086,0.354 -0.101,0.681 0.152,1.273c0.452,1.061 2.086,2.535 2.086,2.535c0,0 1.08,-1.597 1.314,-2.61c0.095,-0.41 0.079,-0.884 -0.001,-1.285c0.201,0.098 0.454,0.162 0.827,0.187c1.151,0.078 3.205,-0.711 3.205,-0.711c0,0 -0.935,-1.686 -1.732,-2.354c-0.185,-0.155 -0.656,-0.3 -1.101,-0.376c0.366,-0.149 0.739,-0.297 0.891,-0.523c0.64,-0.959 0.98,-3.133 0.98,-3.133c0,0 -1.928,-0.029 -2.904,0.328c-0.223,0.083 -0.801,0.819 -0.801,0.819c-0.19,-1.716 -1.934,-3.119 -1.934,-3.119c0,0 -0.867,1.169 -1.114,1.848c-0.139,0.379 -0.128,1.279 -0.128,1.279c0,0 -0.766,-0.591 -1.216,-0.739c-0.63,-0.209 -2.215,-0.063 -2.215,-0.063c0,0 -0.028,1.624 0.652,2.409c0.584,0.673 1.224,0.629 1.542,0.805c-0.349,0.078 -1.143,0.246 -1.621,0.695c-0.842,0.789 -1.416,1.944 -1.416,1.944c0,0 1.674,0.956 2.701,1.113c0.585,0.09 1.277,-0.047 1.712,-0.256c0.04,-0.019 0.08,-0.041 0.121,-0.066Z" style="fill:#efa5e3;fill-rule:nonzero;stroke:#fff;stroke-width:1.08px;"/><path d="M33.557,93.262c0.111,0.445 0.287,0.817 0.914,1.33c1.124,0.917 3.806,1.603 3.806,1.603c0,0 0.269,-2.41 -0.063,-3.676c-0.133,-0.512 -0.428,-1.031 -0.752,-1.431c0.281,-0.009 0.6,-0.085 1.031,-0.275c1.328,-0.586 3.154,-2.666 3.154,-2.666c0,0 -2.027,-1.332 -3.306,-1.61c-0.297,-0.064 -0.906,0.049 -1.446,0.225c0.32,-0.38 0.65,-0.763 0.686,-1.104c0.153,-1.442 -0.74,-4.063 -0.74,-4.063c0,0 -2.165,1.095 -3.044,2.065c-0.199,0.222 -0.412,1.38 -0.412,1.38c-1.217,-1.801 -3.979,-2.343 -3.979,-2.343c0,0 -0.282,1.808 -0.161,2.71c0.068,0.503 0.606,1.498 0.606,1.498c0,0 -1.199,-0.209 -1.787,-0.111c-0.824,0.136 -2.504,1.225 -2.504,1.225c0,0 0.919,1.826 2.135,2.303c1.044,0.408 1.732,-0.016 2.189,-0.006c-0.344,0.292 -1.129,0.943 -1.4,1.723c-0.476,1.371 -0.441,2.993 -0.441,2.993c0,0 2.425,0.087 3.66,-0.339c0.705,-0.242 1.396,-0.8 1.759,-1.287c0.033,-0.044 0.065,-0.093 0.095,-0.144Z" style="fill:#efa5e3;fill-rule:nonzero;stroke:#fff;stroke-width:1.36px;"/><path d="M8.756,78.543c-0.045,0.456 -0.004,0.866 0.416,1.558c0.752,1.241 3.049,2.785 3.049,2.785c0,0 1.061,-2.181 1.171,-3.485c0.046,-0.528 -0.059,-1.115 -0.229,-1.6c0.267,0.086 0.594,0.121 1.063,0.086c1.447,-0.108 3.865,-1.457 3.865,-1.457c0,0 -1.465,-1.933 -2.577,-2.624c-0.258,-0.16 -0.87,-0.256 -1.438,-0.271c0.429,-0.252 0.868,-0.502 1.016,-0.811c0.627,-1.308 0.663,-4.076 0.663,-4.076c0,0 -2.407,0.307 -3.559,0.926c-0.263,0.143 -0.851,1.163 -0.851,1.163c-0.544,-2.104 -2.965,-3.54 -2.965,-3.54c0,0 -0.872,1.61 -1.059,2.501c-0.105,0.496 0.07,1.614 0.07,1.614c0,0 -1.06,-0.599 -1.647,-0.703c-0.822,-0.148 -2.77,0.316 -2.77,0.316c0,0 0.255,2.029 1.242,2.885c0.847,0.734 1.636,0.565 2.064,0.727c-0.421,0.16 -1.379,0.511 -1.896,1.155c-0.907,1.133 -1.417,2.673 -1.417,2.673c0,0 2.256,0.893 3.563,0.906c0.744,0.007 1.583,-0.287 2.087,-0.624c0.047,-0.031 0.092,-0.067 0.139,-0.104Z" style="fill:#efa5e3;fill-rule:nonzero;stroke:#fff;stroke-width:1.36px;"/><path d="M66.374,79.036c-0.169,0.426 -0.244,0.831 -0.033,1.613c0.378,1.4 2.157,3.522 2.157,3.522c0,0 1.624,-1.801 2.092,-3.023c0.191,-0.494 0.253,-1.087 0.224,-1.601c0.233,0.156 0.537,0.281 0.998,0.378c1.42,0.298 4.117,-0.327 4.117,-0.327c0,0 -0.871,-2.264 -1.747,-3.236c-0.204,-0.225 -0.765,-0.488 -1.307,-0.66c0.482,-0.123 0.973,-0.241 1.202,-0.497c0.965,-1.083 1.768,-3.732 1.768,-3.732c0,0 -2.397,-0.373 -3.676,-0.098c-0.292,0.064 -1.141,0.881 -1.141,0.881c0.062,-2.172 -1.865,-4.224 -1.865,-4.224c0,0 -1.284,1.304 -1.711,2.108c-0.239,0.448 -0.382,1.571 -0.382,1.571c0,0 -0.852,-0.87 -1.387,-1.133c-0.748,-0.37 -2.749,-0.465 -2.749,-0.465c0,0 -0.318,2.019 0.392,3.116c0.61,0.94 1.416,0.997 1.782,1.271c-0.449,0.037 -1.467,0.108 -2.142,0.584c-1.186,0.836 -2.104,2.175 -2.104,2.175c0,0 1.919,1.483 3.171,1.858c0.714,0.215 1.601,0.164 2.179,-0.02c0.054,-0.017 0.107,-0.038 0.162,-0.061Z" style="fill:#efa5e3;fill-rule:nonzero;stroke:#fff;stroke-width:1.36px;"/></g></svg>