<svg width="100px" height="100px" viewBox="0 0 100 100" version="1.1" xmlns="http://www.w3.org/2000/svg" xmlns:xlink="http://www.w3.org/1999/xlink" xml:space="preserve" xmlns:serif="http://www.serif.com/" style="fill-rule:evenodd;clip-rule:evenodd;stroke-linejoin:round;stroke-miterlimit:1.41421;"><g><g><path d="M39.225,9.747c0.808,-1.458 1.053,-4.493 0.232,-5.202c-1.079,-0.932 -2.944,-0.558 -3.677,4.488c-0.359,2.472 0.394,4.619 0.394,4.619c0,0 1.911,-1.845 3.051,-3.905Z" style="fill:#0d4e0a;"/><path d="M36.302,33.453c1.166,1.191 4.004,2.294 4.918,1.71c1.201,-0.766 1.377,-2.66 -3.248,-4.807c-2.266,-1.052 -4.539,-0.945 -4.539,-0.945c0,0 1.221,2.36 2.869,4.042Z" style="fill:#0d4e0a;"/><path d="M38.878,29.758c0.347,1.63 2.151,4.082 3.237,4.08c1.424,-0.004 2.588,-1.509 -0.167,-5.8c-1.349,-2.102 -3.326,-3.229 -3.326,-3.229c0,0 -0.233,2.646 0.256,4.949Z" style="fill:#0d4e0a;"/><path d="M28.862,58.345c1.193,1.164 4.054,2.204 4.956,1.6c1.183,-0.793 1.317,-2.691 -3.356,-4.734c-2.288,-1 -4.558,-0.842 -4.558,-0.842c0,0 1.273,2.331 2.958,3.976Z" style="fill:#0d4e0a;"/><path d="M44.376,72.491c1.635,-0.323 4.113,-2.091 4.126,-3.177c0.017,-1.424 -1.471,-2.61 -5.802,0.083c-2.121,1.319 -3.277,3.279 -3.277,3.279c0,0 2.643,0.271 4.953,-0.185Z" style="fill:#0d4e0a;"/><path d="M55.093,82.904c0.661,-1.53 0.607,-4.574 -0.279,-5.2c-1.165,-0.821 -2.984,-0.267 -3.22,4.827c-0.115,2.495 0.845,4.558 0.845,4.558c0,0 1.721,-2.023 2.654,-4.185Z" style="fill:#0d4e0a;"/><path d="M78.248,58.659c-0.886,-1.412 -3.425,-3.093 -4.443,-2.717c-1.336,0.494 -1.91,2.308 2.154,5.388c1.99,1.509 4.234,1.887 4.234,1.887c0,0 -0.692,-2.565 -1.945,-4.558Z" style="fill:#0d4e0a;"/><path d="M76.191,25.669c-1.666,-0.068 -4.489,1.071 -4.756,2.123c-0.35,1.38 0.819,2.881 5.66,1.278c2.371,-0.785 3.954,-2.42 3.954,-2.42c0,0 -2.506,-0.883 -4.858,-0.981Z" style="fill:#0d4e0a;"/><path d="M56.64,78.543c1.654,0.201 4.559,-0.71 4.909,-1.737c0.459,-1.349 -0.587,-2.938 -5.54,-1.725c-2.426,0.594 -4.134,2.098 -4.134,2.098c0,0 2.428,1.08 4.765,1.364Z" style="fill:#0d4e0a;"/><path d="M56.64,78.543c1.654,0.201 4.559,-0.71 4.909,-1.737c0.459,-1.349 -0.587,-2.938 -5.54,-1.725c-2.426,0.594 -4.134,2.098 -4.134,2.098c0,0 2.428,1.08 4.765,1.364Z" style="fill:#0d4e0a;"/><path d="M56.64,78.543c1.654,0.201 4.559,-0.71 4.909,-1.737c0.459,-1.349 -0.587,-2.938 -5.54,-1.725c-2.426,0.594 -4.134,2.098 -4.134,2.098c0,0 2.428,1.08 4.765,1.364Z" style="fill:#0d4e0a;"/><path d="M46.551,8.954c0.576,1.564 2.713,3.733 3.786,3.575c1.41,-0.208 2.346,-1.864 -0.994,-5.717c-1.637,-1.887 -3.754,-2.72 -3.754,-2.72c0,0 0.147,2.653 0.962,4.862Z" style="fill:#0d4e0a;"/><path d="M59.901,30.503c-0.694,-1.515 -2.989,-3.516 -4.047,-3.277c-1.39,0.314 -2.198,2.037 1.426,5.625c1.774,1.757 3.949,2.427 3.949,2.427c0,0 -0.349,-2.634 -1.328,-4.775Z" style="fill:#0d4e0a;"/><path d="M54.603,25.687c-0.759,1.484 -0.907,4.525 -0.063,5.207c1.108,0.896 2.96,0.463 3.53,-4.605c0.279,-2.482 -0.543,-4.603 -0.543,-4.603c0,0 -1.851,1.905 -2.924,4.001Z" style="fill:#0d4e0a;"/><path d="M43.098,95.867c1.65,0.238 4.575,-0.607 4.947,-1.626c0.489,-1.338 -0.521,-2.951 -5.499,-1.849c-2.439,0.54 -4.18,2.005 -4.18,2.005c0,0 2.402,1.134 4.732,1.47Z" style="fill:#0d4e0a;"/><path d="M39.025,87.854c0.346,1.631 2.151,4.083 3.236,4.08c1.425,-0.003 2.588,-1.508 -0.167,-5.8c-1.349,-2.102 -3.326,-3.229 -3.326,-3.229c0,0 -0.233,2.647 0.257,4.949Z" style="fill:#0d4e0a;"/><path d="M77.621,51.889c-1.626,0.368 -4.054,2.206 -4.036,3.291c0.023,1.424 1.543,2.568 5.797,-0.245c2.083,-1.378 3.184,-3.369 3.184,-3.369c0,0 -2.649,-0.198 -4.945,0.323Z" style="fill:#0d4e0a;"/></g><g><path d="M62.272,51.411c-0.465,1.601 -0.034,4.615 0.924,5.125c1.257,0.67 2.994,-0.106 2.594,-5.19c-0.196,-2.49 -1.405,-4.417 -1.405,-4.417c0,0 -1.457,2.221 -2.113,4.482Z" style="fill:#4c4d00;"/><path d="M71.947,56.656c-1.401,-0.903 -4.412,-1.352 -5.175,-0.581c-1.002,1.013 -0.755,2.899 4.23,3.971c2.442,0.525 4.635,-0.082 4.635,-0.082c0,0 -1.712,-2.031 -3.69,-3.308Z" style="fill:#4c4d00;"/><path d="M70.251,60.829c-0.699,-1.513 -3.001,-3.506 -4.058,-3.263c-1.389,0.318 -2.191,2.043 1.444,5.619c1.78,1.752 3.957,2.415 3.957,2.415c0,0 -0.357,-2.633 -1.343,-4.771Z" style="fill:#4c4d00;"/><path d="M73.702,30.735c-1.421,-0.872 -4.441,-1.253 -5.187,-0.465c-0.979,1.035 -0.69,2.915 4.318,3.875c2.453,0.47 4.632,-0.185 4.632,-0.185c0,0 -1.757,-1.993 -3.763,-3.225Z" style="fill:#4c4d00;"/><path d="M45.461,12.923c-1.523,0.676 -3.549,2.949 -3.322,4.01c0.298,1.393 2.011,2.221 5.64,-1.362c1.777,-1.755 2.471,-3.922 2.471,-3.922c0,0 -2.637,0.319 -4.789,1.274Z" style="fill:#4c4d00;"/><path d="M37.563,42.341c-0.306,1.639 0.418,4.596 1.422,5.01c1.316,0.544 2.969,-0.399 2.073,-5.419c-0.439,-2.459 -1.832,-4.259 -1.832,-4.259c0,0 -1.231,2.354 -1.663,4.668Z" style="fill:#4c4d00;"/><path d="M20.338,71.105c1.177,1.18 4.024,2.259 4.934,1.667c1.194,-0.777 1.353,-2.673 -3.291,-4.779c-2.275,-1.031 -4.547,-0.904 -4.547,-0.904c0,0 1.242,2.349 2.904,4.016Z" style="fill:#4c4d00;"/><path d="M67.654,42.97c1.64,-0.301 4.142,-2.036 4.169,-3.121c0.037,-1.424 -1.435,-2.629 -5.802,0.004c-2.139,1.29 -3.321,3.234 -3.321,3.234c0,0 2.639,0.308 4.954,-0.117Z" style="fill:#4c4d00;"/><path d="M37.018,46.937c-1.658,0.169 -4.29,1.7 -4.404,2.779c-0.149,1.417 1.222,2.735 5.784,0.458c2.235,-1.116 3.568,-2.96 3.568,-2.96c0,0 -2.606,-0.516 -4.948,-0.277Z" style="fill:#4c4d00;"/><path d="M53.356,36.401c-1.658,0.17 -4.29,1.7 -4.404,2.779c-0.15,1.417 1.221,2.736 5.784,0.458c2.235,-1.115 3.568,-2.959 3.568,-2.959c0,0 -2.606,-0.517 -4.948,-0.278Z" style="fill:#4c4d00;"/><path d="M66.512,73.03c-0.908,-1.398 -3.471,-3.042 -4.483,-2.65c-1.329,0.513 -1.877,2.335 2.233,5.355c2.013,1.479 4.262,1.823 4.262,1.823c0,0 -0.73,-2.554 -2.012,-4.528Z" style="fill:#4c4d00;"/><path d="M48.729,54.963c1.011,1.325 3.692,2.769 4.672,2.302c1.285,-0.614 1.693,-2.472 -2.634,-5.171c-2.119,-1.321 -4.388,-1.494 -4.388,-1.494c0,0 0.922,2.492 2.35,4.363Z" style="fill:#4c4d00;"/><path d="M54.96,58.49c0.413,-1.615 -0.115,-4.614 -1.089,-5.093c-1.278,-0.629 -2.989,0.203 -2.425,5.271c0.276,2.483 1.547,4.37 1.547,4.37c0,0 1.384,-2.268 1.967,-4.548Z" style="fill:#4c4d00;"/><path d="M62.734,16.513c-1.662,0.132 -4.327,1.603 -4.465,2.679c-0.182,1.413 1.16,2.763 5.772,0.588c2.259,-1.066 3.634,-2.879 3.634,-2.879c0,0 -2.594,-0.575 -4.941,-0.388Z" style="fill:#4c4d00;"/><path d="M68.478,23.427c-0.699,-1.513 -3,-3.506 -4.058,-3.263c-1.389,0.318 -2.191,2.043 1.444,5.619c1.781,1.752 3.957,2.415 3.957,2.415c0,0 -0.357,-2.633 -1.343,-4.771Z" style="fill:#4c4d00;"/><path d="M38.784,67.033c1.504,-0.719 3.466,-3.047 3.209,-4.101c-0.337,-1.385 -2.073,-2.164 -5.6,1.519c-1.727,1.804 -2.361,3.99 -2.361,3.99c0,0 2.628,-0.393 4.752,-1.408Z" style="fill:#4c4d00;"/></g></g></svg>