<svg width="100px" height="100px" viewBox="0 0 100 100" version="1.1" xmlns="http://www.w3.org/2000/svg" xmlns:xlink="http://www.w3.org/1999/xlink" xml:space="preserve" xmlns:serif="http://www.serif.com/" style="fill-rule:evenodd;clip-rule:evenodd;stroke-linejoin:round;stroke-miterlimit:1.41421;"><g><path d="M71.22,1.83l-14.512,11.121c-1.074,1.138 -1.112,1.812 -0.875,2.62c0.241,0.828 1.084,1.885 2.334,2.707c1.251,0.822 2.851,1.389 4.212,1.502c1.197,0.099 2.083,-0.143 2.654,-0.57c0.063,-0.16 0.128,-0.325 0.224,-0.58c0.348,-0.932 0.691,-1.867 1.026,-2.804c0.834,-2.312 1.918,-5.376 2.991,-8.43c0.982,-2.792 1.946,-5.566 1.946,-5.566Z" style="fill:url(#_Radial1);stroke:#000;stroke-width:0.3px;"/><path d="M26.734,97.575l14.085,-11.659c1.03,-1.178 1.042,-1.853 0.776,-2.651c-0.273,-0.818 -1.155,-1.843 -2.435,-2.617c-1.281,-0.775 -2.901,-1.281 -4.265,-1.343c-1.2,-0.054 -2.076,0.221 -2.631,0.669c-0.056,0.163 -0.116,0.33 -0.202,0.588c-0.313,0.945 -0.62,1.892 -0.92,2.84c-0.746,2.343 -1.714,5.445 -2.673,8.537c-0.876,2.827 -1.735,5.636 -1.735,5.636Z" style="fill:url(#_Radial2);stroke:#000;stroke-width:0.3px;"/><path d="M0.916,42.55l16.095,8.673c1.478,0.513 2.109,0.27 2.748,-0.276c0.656,-0.56 1.274,-1.762 1.512,-3.24c0.236,-1.478 0.097,-3.17 -0.358,-4.457c-0.401,-1.132 -0.985,-1.841 -1.609,-2.186c-0.171,0.008 -0.349,0.015 -0.621,0.033c-0.993,0.064 -1.985,0.136 -2.977,0.214c-2.452,0.188 -5.69,0.457 -8.916,0.73c-2.949,0.25 -5.874,0.509 -5.874,0.509Z" style="fill:url(#_Radial3);stroke:#000;stroke-width:0.3px;"/><path d="M99.225,66.936l-14.319,-10.346c-1.345,-0.678 -1.966,-0.527 -2.627,-0.086c-0.679,0.452 -1.389,1.522 -1.766,2.905c-0.378,1.382 -0.422,3.017 -0.125,4.306c0.261,1.134 0.74,1.885 1.293,2.295c0.164,0.015 0.332,0.03 0.591,0.048c0.946,0.065 1.892,0.123 2.838,0.175c2.338,0.133 5.428,0.29 8.507,0.44c2.815,0.137 5.608,0.263 5.608,0.263Z" style="fill:url(#_Radial4);stroke:#000;stroke-width:0.3px;"/></g><g><g><g><path d="M15.488,17.368l12.573,13.871l0.554,0.652l1.6,38.093l-2.259,2.048l-12.459,10.611c-1.687,-2.094 -2.697,-4.756 -2.697,-7.651l0,-49.984c0,-2.943 1.043,-5.643 2.78,-7.752l-0.092,0.112Z" style="fill:url(#_Radial5);"/><path d="M30.215,69.984l0.256,-0.232l38.255,-1.606l13.925,16.35c-2.095,1.691 -4.76,2.704 -7.659,2.704l-49.984,0c-3.706,0 -7.028,-1.655 -9.267,-4.265l0.082,0.095l14.392,-13.046Z" style="fill:url(#_Radial6);"/><path d="M67.572,30.375l0.6,-0.544l15.608,-13.293c2.117,2.196 3.42,5.182 3.42,8.47l0,49.984c0,3.648 -1.604,6.924 -4.144,9.162l0.123,-0.109l-14.002,-15.448l-1.605,-38.222Z" style="fill:url(#_Radial7);"/><path d="M74.992,12.8c3.277,0 6.254,1.294 8.448,3.399l-0.111,-0.106l-15.757,14.282l-0.353,0.32l-38.254,1.606l-0.35,-0.41l-12.749,-14.97l-0.096,0.11c2.239,-2.591 5.548,-4.231 9.238,-4.231l49.984,0Z" style="fill:url(#_Radial8);"/><path d="M70.638,35.725c0,-4.134 -3.356,-7.491 -7.491,-7.491l-30.672,0c-4.135,0 -7.492,3.357 -7.492,7.491l0,30.767c0,4.134 3.357,7.491 7.492,7.491l30.672,0c4.135,0 7.491,-3.357 7.491,-7.491l0,-30.767Z" style="fill:url(#_Radial9);stroke:#fff;stroke-width:0.17px;stroke-linecap:round;stroke-linejoin:miter;stroke-miterlimit:1;"/></g></g><g><path d="M12.805,33.949l-0.005,-2.401l6.029,-0.217l-6.024,2.618Z" style="fill:#8a6b50;"/><path d="M63.398,28.382l-9.032,-0.013c0,0 6.006,10.321 9.063,22.047l-0.031,-22.034Z" style="fill:#8a6b50;"/><path d="M87.2,51.145l0,2.277l-6.964,-2.045l6.964,-0.232Z" style="fill:#8a6b50;"/><path d="M36.591,87.193l-2.554,0.007c0,0 -1.357,-4.396 -1.676,-5.926c-0.319,-1.53 -0.109,-4.956 0.094,-4.442c0.411,1.041 4.136,10.361 4.136,10.361Z" style="fill:#8a6b50;"/></g></g><g><path d="M65.967,99.026l2.277,-18.141c-0.055,-1.563 -0.509,-2.063 -1.249,-2.463c-0.76,-0.409 -2.104,-0.552 -3.567,-0.239c-1.464,0.312 -2.991,1.053 -4.027,1.942c-0.912,0.783 -1.362,1.583 -1.459,2.289c0.07,0.158 0.141,0.32 0.255,0.568c0.419,0.902 0.844,1.802 1.275,2.699c1.061,2.218 2.48,5.142 3.899,8.051c1.298,2.66 2.596,5.294 2.596,5.294Z" style="fill:url(#_Radial10);stroke:#000;stroke-width:0.3px;"/><path d="M90.324,10.023l-16.565,7.74c-1.293,0.881 -1.475,1.531 -1.418,2.37c0.058,0.861 0.654,2.074 1.698,3.146c1.045,1.072 2.486,1.97 3.79,2.373c1.148,0.354 2.065,0.308 2.714,0.014c0.096,-0.143 0.196,-0.29 0.345,-0.518c0.54,-0.836 1.075,-1.675 1.605,-2.517c1.311,-2.08 3.028,-4.839 4.734,-7.59c1.559,-2.516 3.097,-5.018 3.097,-5.018Z" style="fill:url(#_Radial11);stroke:#000;stroke-width:0.3px;"/><path d="M98.919,36.554l-18.224,1.475c-1.52,0.374 -1.917,0.92 -2.156,1.726c-0.246,0.827 -0.111,2.172 0.493,3.541c0.605,1.369 1.642,2.713 2.724,3.546c0.953,0.732 1.828,1.009 2.539,0.96c0.14,-0.1 0.284,-0.203 0.503,-0.366c0.799,-0.594 1.593,-1.194 2.383,-1.799c1.954,-1.491 4.527,-3.477 7.085,-5.461c2.339,-1.814 4.653,-3.622 4.653,-3.622Z" style="fill:url(#_Radial12);stroke:#000;stroke-width:0.3px;"/><path d="M92.093,84.936l-7.703,-16.581c-0.878,-1.295 -1.527,-1.479 -2.367,-1.424c-0.861,0.057 -2.076,0.649 -3.15,1.691c-1.074,1.043 -1.975,2.481 -2.381,3.785c-0.356,1.147 -0.312,2.064 -0.02,2.714c0.143,0.096 0.289,0.196 0.517,0.345c0.835,0.543 1.673,1.08 2.514,1.611c2.077,1.316 4.832,3.04 7.58,4.751c2.512,1.565 5.01,3.108 5.01,3.108Z" style="fill:url(#_Radial13);stroke:#000;stroke-width:0.3px;"/><path d="M1.722,74.513l18.283,-0.032c1.544,-0.253 1.983,-0.766 2.286,-1.551c0.31,-0.805 0.282,-2.156 -0.213,-3.568c-0.495,-1.413 -1.423,-2.834 -2.436,-3.75c-0.892,-0.805 -1.742,-1.15 -2.455,-1.157c-0.147,0.089 -0.299,0.18 -0.53,0.324c-0.843,0.53 -1.682,1.065 -2.517,1.606c-2.066,1.332 -4.787,3.109 -7.494,4.885c-2.475,1.623 -4.924,3.243 -4.924,3.243Z" style="fill:url(#_Radial14);stroke:#000;stroke-width:0.3px;"/><path d="M13.138,9.258l7.839,16.518c0.889,1.288 1.54,1.465 2.379,1.403c0.861,-0.063 2.07,-0.666 3.136,-1.717c1.065,-1.051 1.954,-2.497 2.349,-3.803c0.348,-1.151 0.296,-2.067 -0.002,-2.715c-0.143,-0.095 -0.29,-0.194 -0.52,-0.341c-0.839,-0.535 -1.681,-1.065 -2.527,-1.59c-2.087,-1.299 -4.856,-3 -7.618,-4.689c-2.525,-1.543 -5.036,-3.066 -5.036,-3.066Z" style="fill:url(#_Radial15);stroke:#000;stroke-width:0.3px;"/><path d="M45.261,1.172l-7.987,16.447c-0.449,1.499 -0.181,2.118 0.392,2.734c0.588,0.632 1.814,1.199 3.301,1.373c1.486,0.175 3.171,-0.036 4.438,-0.545c1.114,-0.449 1.797,-1.062 2.116,-1.699c-0.015,-0.172 -0.03,-0.348 -0.059,-0.619c-0.106,-0.99 -0.219,-1.978 -0.339,-2.966c-0.292,-2.441 -0.697,-5.666 -1.106,-8.877c-0.374,-2.936 -0.756,-5.848 -0.756,-5.848Z" style="fill:url(#_Radial16);stroke:#000;stroke-width:0.3px;"/></g><defs><radialGradient id="_Radial1" cx="0" cy="0" r="1" gradientUnits="userSpaceOnUse" gradientTransform="matrix(14.0355,-23.2523,18.8215,11.361,51.4968,30.3097)"><stop offset="0" style="stop-color:#4f4f4f;stop-opacity:1"/><stop offset="1" style="stop-color:#999;stop-opacity:1"/></radialGradient><radialGradient id="_Radial2" cx="0" cy="0" r="1" gradientUnits="userSpaceOnUse" gradientTransform="matrix(-13.1522,23.7631,-19.235,-10.646,45.3738,68.374)"><stop offset="0" style="stop-color:#4f4f4f;stop-opacity:1"/><stop offset="1" style="stop-color:#999;stop-opacity:1"/></radialGradient><radialGradient id="_Radial3" cx="0" cy="0" r="1" gradientUnits="userSpaceOnUse" gradientTransform="matrix(-26.9633,-3.26275,2.64102,-21.8254,34.9795,48.8554)"><stop offset="0" style="stop-color:#4f4f4f;stop-opacity:1"/><stop offset="1" style="stop-color:#999;stop-opacity:1"/></radialGradient><radialGradient id="_Radial4" cx="0" cy="0" r="1" gradientUnits="userSpaceOnUse" gradientTransform="matrix(25.1584,6.55964,-4.76613,20.5281,67.6683,56.5614)"><stop offset="0" style="stop-color:#4f4f4f;stop-opacity:1"/><stop offset="1" style="stop-color:#999;stop-opacity:1"/></radialGradient><radialGradient id="_Radial5" cx="0" cy="0" r="1" gradientUnits="userSpaceOnUse" gradientTransform="matrix(45.1069,0,0,48.2445,50,50)"><stop offset="0" style="stop-color:#999;stop-opacity:1"/><stop offset="0.54" style="stop-color:#d36507;stop-opacity:1"/><stop offset="0.83" style="stop-color:#d36507;stop-opacity:1"/><stop offset="1" style="stop-color:#a14d05;stop-opacity:1"/></radialGradient><radialGradient id="_Radial6" cx="0" cy="0" r="1" gradientUnits="userSpaceOnUse" gradientTransform="matrix(45.1069,0,0,48.2445,50,50)"><stop offset="0" style="stop-color:#999;stop-opacity:1"/><stop offset="0.54" style="stop-color:#d36507;stop-opacity:1"/><stop offset="0.83" style="stop-color:#d36507;stop-opacity:1"/><stop offset="1" style="stop-color:#a14d05;stop-opacity:1"/></radialGradient><radialGradient id="_Radial7" cx="0" cy="0" r="1" gradientUnits="userSpaceOnUse" gradientTransform="matrix(45.1069,0,0,48.2445,50,50)"><stop offset="0" style="stop-color:#999;stop-opacity:1"/><stop offset="0.54" style="stop-color:#d36507;stop-opacity:1"/><stop offset="0.83" style="stop-color:#d36507;stop-opacity:1"/><stop offset="1" style="stop-color:#a14d05;stop-opacity:1"/></radialGradient><radialGradient id="_Radial8" cx="0" cy="0" r="1" gradientUnits="userSpaceOnUse" gradientTransform="matrix(45.1069,0,0,48.2445,50,50)"><stop offset="0" style="stop-color:#999;stop-opacity:1"/><stop offset="0.54" style="stop-color:#d36507;stop-opacity:1"/><stop offset="0.83" style="stop-color:#d36507;stop-opacity:1"/><stop offset="1" style="stop-color:#a14d05;stop-opacity:1"/></radialGradient><radialGradient id="_Radial9" cx="0" cy="0" r="1" gradientUnits="userSpaceOnUse" gradientTransform="matrix(45.1069,0,0,48.2445,50,50)"><stop offset="0" style="stop-color:#999;stop-opacity:1"/><stop offset="0.54" style="stop-color:#d36507;stop-opacity:1"/><stop offset="0.83" style="stop-color:#d36507;stop-opacity:1"/><stop offset="1" style="stop-color:#a14d05;stop-opacity:1"/></radialGradient><radialGradient id="_Radial10" cx="0" cy="0" r="1" gradientUnits="userSpaceOnUse" gradientTransform="matrix(6.69149,26.3228,-21.3069,5.4164,59.5495,64.9836)"><stop offset="0" style="stop-color:#4f4f4f;stop-opacity:1"/><stop offset="1" style="stop-color:#999;stop-opacity:1"/></radialGradient><radialGradient id="_Radial11" cx="0" cy="0" r="1" gradientUnits="userSpaceOnUse" gradientTransform="matrix(18.7079,-19.6896,15.9377,15.1431,64.9372,33.5948)"><stop offset="0" style="stop-color:#4f4f4f;stop-opacity:1"/><stop offset="1" style="stop-color:#999;stop-opacity:1"/></radialGradient><radialGradient id="_Radial12" cx="0" cy="0" r="1" gradientUnits="userSpaceOnUse" gradientTransform="matrix(24.4019,-11.9253,9.65286,19.7521,66.9033,49.7876)"><stop offset="0" style="stop-color:#4f4f4f;stop-opacity:1"/><stop offset="1" style="stop-color:#999;stop-opacity:1"/></radialGradient><radialGradient id="_Radial13" cx="0" cy="0" r="1" gradientUnits="userSpaceOnUse" gradientTransform="matrix(19.6478,18.7518,-15.1786,15.9039,68.5781,59.4973)"><stop offset="0" style="stop-color:#4f4f4f;stop-opacity:1"/><stop offset="1" style="stop-color:#999;stop-opacity:1"/></radialGradient><radialGradient id="_Radial14" cx="0" cy="0" r="1" gradientUnits="userSpaceOnUse" gradientTransform="matrix(-25.2669,9.96251,-8.06412,-20.4522,34.6814,63.8475)"><stop offset="0" style="stop-color:#4f4f4f;stop-opacity:1"/><stop offset="1" style="stop-color:#999;stop-opacity:1"/></radialGradient><radialGradient id="_Radial15" cx="0" cy="0" r="1" gradientUnits="userSpaceOnUse" gradientTransform="matrix(-19.8014,-18.5895,15.0472,-16.0282,36.8616,34.5025)"><stop offset="0" style="stop-color:#4f4f4f;stop-opacity:1"/><stop offset="1" style="stop-color:#999;stop-opacity:1"/></radialGradient><radialGradient id="_Radial16" cx="0" cy="0" r="1" gradientUnits="userSpaceOnUse" gradientTransform="matrix(2.12295,-27.0769,21.9173,1.71842,40.3975,35.4715)"><stop offset="0" style="stop-color:#4f4f4f;stop-opacity:1"/><stop offset="1" style="stop-color:#999;stop-opacity:1"/></radialGradient></defs></svg>