<svg width="100px" height="100px" viewBox="0 0 100 100" version="1.1" xmlns="http://www.w3.org/2000/svg"  xml:space="preserve" style="fill-rule:evenodd;clip-rule:evenodd;stroke-linecap:round;stroke-linejoin:round;stroke-miterlimit:1.5;"><g><rect x="0.5" y="18.444" width="99" height="62.409" style="fill:url(#_Linear1);stroke:#000;stroke-width:0.33px;"/><g><g><path d="M5.528,55.782l-0.054,-2.451l0.064,-3.942l-0.048,-30.969l29.332,0l-0.285,27.241c0,0 0.211,22.162 -0.067,30.393c-0.042,1.266 -0.095,2.284 -0.162,3.117l-28.103,0l-0.686,-10.552l-0.044,-2.482c1.885,-0.966 3.176,-2.929 3.176,-5.191c0,-2.241 -1.267,-4.188 -3.123,-5.164Z"/><path d="M5.366,55.808l4.306,-0.221l-0.005,-0.024c0.011,0.011 0.614,-1.485 0.625,-1.474l-0.59,-9.441l-1.273,8.818c-0.038,0.091 -1.675,0.968 -1.707,1.052l-1.356,-1.028l0,-35.07l15.461,0c1.907,9.671 1.438,20.133 2.153,30.201c0,0 2.022,-22.249 2.586,-30.201l9.556,0l0,60.3c0,0.151 -0.004,0.301 -0.012,0.451l-6.507,0l0.127,-5.215l-1.733,5.215l-11.379,0l-0.847,-5.924l0,5.924l-9.401,0c-0.003,-0.149 -0.004,-0.299 -0.004,-0.452l0,-10.341l3.56,0.89l0.746,-2.987l-4.306,-0.158l0,-10.315Z" style="fill:#4e1700;stroke:#000;stroke-width:0.3px;"/></g><g><path d="M64.716,41.809l0.054,2.451l-0.064,3.942l0.048,30.969l-29.333,0l0.286,-27.241c0,0 -0.211,-22.162 0.066,-30.393c0.043,-1.266 0.095,-2.284 0.163,-3.117l28.103,0l0.685,10.552l0.045,2.482c-1.885,0.967 -3.176,2.929 -3.176,5.191c0,2.241 1.267,4.188 3.123,5.164Z"/><path d="M64.878,41.783l-4.307,0.221l0.006,0.024c-0.011,-0.011 -0.614,1.485 -0.625,1.474l0.589,9.441l1.273,-8.818c0.038,-0.091 1.676,-0.968 1.708,-1.052l1.356,1.028l0,35.07l-15.462,0c-1.906,-9.671 -1.438,-20.133 -2.152,-30.201c0,0 -2.022,22.249 -2.586,30.201l-9.556,0l0,-60.3c0,-0.151 0.004,-0.301 0.011,-0.451l6.508,0l-0.127,5.215l1.733,-5.215l11.379,0l0.847,5.924l0,-5.924l9.4,0c0.004,0.149 0.005,0.299 0.005,0.452l0,10.342l-3.56,-0.89l-0.746,2.986l4.306,0.158l0,10.315Z" style="fill:#4e1700;stroke:#000;stroke-width:0.3px;"/></g><g><path d="M94.472,55.782l0.054,-2.451l-0.064,-3.942l0.048,-30.969l-29.332,0l0.285,27.241c0,0 -0.211,22.162 0.067,30.393c0.042,1.266 0.095,2.284 0.162,3.117l28.103,0l0.686,-10.552l0.044,-2.482c-1.885,-0.966 -3.176,-2.929 -3.176,-5.191c0,-2.241 1.267,-4.188 3.123,-5.164Z"/><path d="M94.634,55.808l-4.306,-0.221l0.005,-0.024c-0.011,0.011 -0.614,-1.485 -0.625,-1.474l0.59,-9.441l1.273,8.818c0.038,0.091 1.675,0.968 1.707,1.052l1.356,-1.028l0,-35.07l-15.461,0c-1.907,9.671 -1.438,20.133 -2.153,30.201c0,0 -2.022,-22.249 -2.586,-30.201l-9.556,0l0,60.3c0,0.151 0.004,0.301 0.012,0.451l6.507,0l-0.127,-5.215l1.733,5.215l11.379,0l0.847,-5.924l0,5.924l9.401,0c0.003,-0.149 0.004,-0.299 0.004,-0.452l0,-10.341l-3.56,0.89l-0.746,-2.987l4.306,-0.158l0,-10.315Z" style="fill:#4e1700;stroke:#000;stroke-width:0.3px;"/></g></g><rect x="42.016" y="77.914" width="15.969" height="3.666" style="fill:url(#_Linear2);stroke:#000;stroke-width:0.33px;"/><rect x="43.094" y="77.914" width="13.812" height="3.666" style="fill:url(#_Linear3);stroke:#000;stroke-width:0.33px;"/></g><defs><linearGradient id="_Linear1" x1="0" y1="0" x2="1" y2="0" gradientUnits="userSpaceOnUse" gradientTransform="matrix(99.5702,0,0,99.5702,0.0296912,49.6488)"><stop offset="0" style="stop-color:#da6907;stop-opacity:1"/><stop offset="0.05" style="stop-color:#914505;stop-opacity:1"/><stop offset="0.5" style="stop-color:#be5b06;stop-opacity:1"/><stop offset="0.95" style="stop-color:#914505;stop-opacity:1"/><stop offset="1" style="stop-color:#db6907;stop-opacity:1"/></linearGradient><linearGradient id="_Linear2" x1="0" y1="0" x2="1" y2="0" gradientUnits="userSpaceOnUse" gradientTransform="matrix(2.72552e-16,3.84989,-4.45111,2.35738e-16,49.7408,77.9214)"><stop offset="0" style="stop-color:#da6907;stop-opacity:1"/><stop offset="1" style="stop-color:#a24d05;stop-opacity:1"/></linearGradient><linearGradient id="_Linear3" x1="0" y1="0" x2="1" y2="0" gradientUnits="userSpaceOnUse" gradientTransform="matrix(2.35738e-16,3.84989,-3.84989,2.35738e-16,49.7758,77.9214)"><stop offset="0" style="stop-color:#da6907;stop-opacity:1"/><stop offset="1" style="stop-color:#a24d05;stop-opacity:1"/></linearGradient></defs></svg>