<svg width="100px" height="100px" viewBox="0 0 100 100" version="1.1" xmlns="http://www.w3.org/2000/svg" xmlns:xlink="http://www.w3.org/1999/xlink" xml:space="preserve" style="fill-rule:evenodd;clip-rule:evenodd;stroke-linejoin:round;stroke-miterlimit:1.41421;"><path d="M43.664,1.807c-0.245,0.217 -1.177,1.178 -1.41,1.45c-1.27,1.489 -2.83,3.575 -3.873,5.425c-1.107,1.966 -2.774,6.374 -2.774,6.374c-1.431,4.559 -1.313,10.471 -0.988,14.783c0.286,3.802 2.934,11.087 2.934,11.087c0.251,0.658 3.079,7.09 3.346,7.758l3.942,5.1l-3.207,-2.803c1.682,4.171 3.254,8.454 4.171,12.771c2.61,12.296 3.069,34.517 3.069,34.517l0,0.033c0,0.932 0.208,1.14 0.516,1.345c0.206,0.137 0.568,0.246 1.034,0.279l1.916,-13.196l-0.401,12.871c0.967,-0.41 2.944,-1.19 3.408,-1.676c0.037,-1.604 0.392,-15.505 2.045,-23.48c1.559,-7.525 1.776,-14.855 2.749,-22.589c0,0 2.921,-10.264 4.066,-15.137c1.096,-4.664 2.751,-5.341 1.931,-13.948c-0.856,-8.992 -6.494,-15.042 -7.055,-15.727c-1.1,-1.344 -4.603,-4.377 -5.821,-5.398l2.398,7.994l-5.177,-9.123c-0.654,-0.206 -1.315,-0.348 -1.979,-0.417c-1.875,-0.191 -3.407,0.453 -4.84,1.707l0,0Z" style="fill:url(#_Linear1);fill-rule:nonzero;"/><defs><linearGradient id="_Linear1" x1="0" y1="0" x2="1" y2="0" gradientUnits="userSpaceOnUse" gradientTransform="matrix(-40.0437,-1.44366,1.44366,-40.0437,70.533,31.9718)"><stop offset="0" style="stop-color:#301203;stop-opacity:1"/><stop offset="0.5" style="stop-color:#582106;stop-opacity:1"/><stop offset="1" style="stop-color:#301203;stop-opacity:1"/></linearGradient></defs></svg>