<svg width="100px" height="100px" viewBox="0 0 100 100" version="1.1" xmlns="http://www.w3.org/2000/svg" xmlns:xlink="http://www.w3.org/1999/xlink" xml:space="preserve" style="fill-rule:evenodd;clip-rule:evenodd;stroke-linejoin:round;stroke-miterlimit:1.41421;"><g><path d="M65.499,35.681c0,0 -1.4,7 -1.708,7.829l7.881,-2.113l-6.173,-5.716Zm-37.171,-9.369l9.14,6.169c0.017,-1.568 0.486,-6.23 0.71,-7.783l-9.85,1.614l0,0Z" style="fill:url(#_Radial1);stroke:#000;stroke-width:0.3px;"/><path d="M45.696,5.503c-0.236,0.208 -1.133,1.133 -1.357,1.395c-1.222,1.432 -2.724,3.437 -3.728,5.216c-1.067,1.89 -2.674,6.127 -2.674,6.127c-1.381,4.382 -1.276,10.061 -0.97,14.203c0.269,3.652 2.803,10.646 2.803,10.646c0.241,0.632 2.948,6.806 3.203,7.448l3.78,4.895l-3.077,-2.69c1.61,4.005 3.115,8.117 3.989,12.263c2.49,11.808 2.899,33.154 2.899,33.154l0,0.017l0.001,0.016c-0.002,0.894 0.198,1.094 0.493,1.29c0.198,0.132 0.546,0.236 0.993,0.267l1.86,-12.68l-0.404,12.365c0.93,-0.395 2.83,-1.146 3.276,-1.614c0.038,-1.541 0.399,-14.896 1.998,-22.559c1.508,-7.231 1.728,-14.273 2.672,-21.703c0,0 2.821,-9.865 3.928,-14.547c1.059,-4.482 2.649,-5.136 1.874,-13.403c-0.809,-8.636 -6.216,-14.439 -6.755,-15.098c-1.054,-1.288 -4.415,-4.197 -5.583,-5.176l2.292,7.676l-4.96,-8.757c-0.629,-0.198 -1.263,-0.333 -1.901,-0.398c-1.801,-0.181 -3.273,0.44 -4.652,1.647Z" style="fill:url(#_Linear2);fill-rule:nonzero;"/><path d="M61.981,52.311l0,0l-8.452,-5.259l-0.198,-0.279l-0.049,-0.338c-0.254,-1.743 0.13,-3.291 0.987,-4.391c0.211,-0.27 0.449,-0.516 0.711,-0.736c0.771,-0.647 1.71,-1.033 2.661,-1.198c2.158,-0.373 3.587,6.52 4.961,8.661l-0.621,3.54l0,0Zm-0.066,-32.472l0.573,0.948l0.207,1.147c0,0 1.874,3.675 1.998,5.113c0.107,1.245 -0.198,3.382 -1.252,3.515c-1.452,0.185 -2.977,-0.033 -4.358,-0.571c-1.381,-0.538 -2.658,-1.403 -3.392,-2.74c-0.734,-1.338 -0.696,-3.141 0.284,-4.728l0.053,-0.088l5.887,-2.596Zm-24.445,18.777l2.057,-3.421l0.494,-0.14l0.471,0.212c1.956,0.883 3.465,2.336 3.965,4.28c0.501,1.944 0.034,4.129 -1.191,6.586l-0.504,1.011l-4.475,-4.04c-0.524,-1.763 -0.744,-3.288 -0.817,-4.488Zm1.77,-19.544l7.778,-1.181l0.113,0.024l0.108,0.043c1.127,0.446 1.862,1.357 2.377,2.378c0.515,1.022 0.803,2.209 0.687,3.428c-0.117,1.218 -0.727,2.512 -1.934,3.293c-1.207,0.78 -2.843,1.019 -4.887,0.711l-0.444,-0.067l-4.016,-7.691l0.217,-0.938l0.001,0Zm9.717,-10.991l3.423,1.479l1.533,0.197l0.058,0.057c0.213,0.474 1.229,2.806 0.951,3.626c-0.31,0.913 -1.797,1.632 -2.849,1.772c-1.053,0.139 -2.143,-0.347 -3.467,-0.933c-1.112,-0.492 -2.406,-1.461 -2.344,-2.521c0.055,-0.951 2.388,-3.029 2.695,-3.677Z"/><path d="M55.209,43.806c0,0 -0.101,0.109 -0.147,0.167c-0.329,0.423 -0.536,1.021 -0.452,1.978l12.173,10.504l-6.475,-11.98c-0.568,-1.011 -2.197,-1.65 -3.588,-1.409c-0.537,0.093 -0.996,0.294 -1.346,0.586c-0.058,0.048 -0.113,0.1 -0.165,0.154Zm10.122,-28.735l-7.874,9.32c-0.537,0.897 -0.462,1.344 -0.189,1.842c0.28,0.51 0.986,1.087 1.926,1.453c0.94,0.366 2.071,0.516 2.979,0.401c0.798,-0.102 1.343,-0.384 1.654,-0.744c0.018,-0.113 0.037,-0.231 0.062,-0.412c0.092,-0.66 0.179,-1.321 0.261,-1.983c0.207,-1.635 0.467,-3.797 0.723,-5.952c0.233,-1.97 0.458,-3.925 0.458,-3.925Zm-35.373,25.782l11.233,2.976c0.632,-1.577 0.759,-2.782 0.546,-3.611c-0.23,-0.892 -0.819,-1.567 -1.954,-2.165l-9.825,2.8l0,0Zm7.749,-22.114l8.558,1.857c0.167,0.083 0.566,0.428 0.845,0.983c0.293,0.579 0.45,1.314 0.396,1.885c-0.055,0.572 -0.231,0.936 -0.683,1.228c-0.407,0.264 -1.206,0.473 -2.54,0.335l-6.576,-6.288l0,0l0,0l0,0Zm13.919,-18.489l-3.655,10.21c-0.169,0.914 0.031,1.266 0.41,1.597c0.389,0.34 1.152,0.605 2.043,0.622c0.891,0.016 1.874,-0.206 2.59,-0.582c0.631,-0.331 0.995,-0.734 1.142,-1.13c-0.02,-0.101 -0.04,-0.204 -0.075,-0.363c-0.127,-0.58 -0.259,-1.16 -0.394,-1.738c-0.332,-1.429 -0.781,-3.316 -1.232,-5.195c-0.413,-1.718 -0.829,-3.421 -0.829,-3.421Z" style="fill:url(#_Radial3);stroke:#000;stroke-width:0.3px;"/><path d="M51.626,0.25l-3.655,10.21c-0.169,0.914 0.031,1.266 0.41,1.597c0.389,0.34 1.152,0.605 2.043,0.622c0.891,0.016 1.874,-0.206 2.59,-0.582c0.631,-0.331 0.995,-0.734 1.142,-1.13c-0.02,-0.101 -0.04,-0.204 -0.075,-0.363c-0.127,-0.58 -0.259,-1.16 -0.394,-1.738c-0.332,-1.429 -0.781,-3.316 -1.232,-5.195c-0.413,-1.718 -0.829,-3.421 -0.829,-3.421Z" style="fill:url(#_Radial4);stroke:#000;stroke-width:0.3px;"/></g><defs><radialGradient id="_Radial1" cx="0" cy="0" r="1" gradientUnits="userSpaceOnUse" gradientTransform="matrix(8.28957,-16.2137,16.3902,8.51999,52.501,31.3806)"><stop offset="0" style="stop-color:#525252;stop-opacity:1"/><stop offset="0.61" style="stop-color:#5e5e5e;stop-opacity:1"/><stop offset="0.82" style="stop-color:#7b7b7b;stop-opacity:1"/><stop offset="1" style="stop-color:#999;stop-opacity:1"/></radialGradient><linearGradient id="_Linear2" x1="0" y1="0" x2="1" y2="0" gradientUnits="userSpaceOnUse" gradientTransform="matrix(-38.4655,-1.33026,0.882271,-38.4526,71.4646,34.4421)"><stop offset="0" style="stop-color:#301203;stop-opacity:1"/><stop offset="0.5" style="stop-color:#582106;stop-opacity:1"/><stop offset="1" style="stop-color:#301203;stop-opacity:1"/></linearGradient><radialGradient id="_Radial3" cx="0" cy="0" r="1" gradientUnits="userSpaceOnUse" gradientTransform="matrix(4.77036,-23.8263,16.8018,3.55138,51.4796,34.7688)"><stop offset="0" style="stop-color:#4f4f4f;stop-opacity:1"/><stop offset="0.43" style="stop-color:#666;stop-opacity:1"/><stop offset="1" style="stop-color:#999;stop-opacity:1"/></radialGradient><radialGradient id="_Radial4" cx="0" cy="0" r="1" gradientUnits="userSpaceOnUse" gradientTransform="matrix(-0.507422,-16.1671,13.0825,-0.258317,50.9821,20.8561)"><stop offset="0" style="stop-color:#4f4f4f;stop-opacity:1"/><stop offset="1" style="stop-color:#999;stop-opacity:1"/></radialGradient></defs></svg>