<svg width="100px" height="100px" viewBox="0 0 100 100" version="1.1" xmlns="http://www.w3.org/2000/svg"  xml:space="preserve" style="fill-rule:evenodd;clip-rule:evenodd;stroke-linejoin:round;stroke-miterlimit:1.41421;"><g><path d="M77.749,48.341c0,0 -8.218,5.415 -9.33,5.919l9.777,5.577l-0.447,-11.496Zm-27.199,-45.002l2.907,14.802c1.551,-1.499 6.57,-5.554 8.308,-6.838l-11.215,-7.964l0,0Z" style="fill:url(#_Radial1);stroke:#000;stroke-width:0.3px;"/><path d="M87.898,0.011c-0.434,-0.027 -2.216,0 -2.691,0.037c-2.598,0.203 -6.029,0.69 -8.75,1.439c-2.894,0.796 -8.611,3.339 -8.611,3.339c-5.638,2.902 -11.091,8.495 -14.843,12.795c-3.31,3.792 -7.673,13.006 -7.673,13.006c-0.383,0.843 -3.775,9.431 -4.153,10.299l-1.091,8.387l-0.378,-5.575c-2.343,5.429 -4.894,10.86 -8.095,15.714c-9.116,13.826 -29.598,34.863 -29.598,34.863l-0.016,0.016l-0.016,0.015c-0.876,0.864 -0.877,1.25 -0.779,1.726c0.065,0.318 0.302,0.755 0.71,1.218l14.224,-10.463l-12.491,11.566c1.295,0.517 3.889,1.627 4.784,1.607c1.544,-1.454 14.963,-14.018 24.024,-19.882c8.549,-5.533 15.653,-12.131 23.846,-18.402c0,0 12.409,-6.811 18.074,-10.269c5.42,-3.309 7.615,-2.403 14.945,-11.147c7.656,-9.134 8.044,-19.974 8.161,-21.131c0.23,-2.266 -0.212,-8.328 -0.397,-10.405l-5.268,9.639l3.715,-13.264c-0.422,-0.798 -0.91,-1.543 -1.471,-2.222c-1.584,-1.917 -3.632,-2.74 -6.162,-2.906Z" style="fill:url(#_Linear2);fill-rule:nonzero;"/><path d="M58.038,61.02l0,0l-3.123,-13.259l0.079,-0.461l0.282,-0.373c1.456,-1.932 3.346,-3.057 5.262,-3.292c0.469,-0.057 0.943,-0.065 1.415,-0.024c1.388,0.12 2.684,0.654 3.775,1.415c2.477,1.725 -2.869,9.773 -3.619,13.171l-4.071,2.823l0,0Zm31.703,-31.463l-0.368,1.47l-0.919,1.309c0,0 -1.762,5.366 -3.047,6.876c-1.113,1.308 -3.502,3.079 -4.664,2.189c-1.601,-1.225 -2.88,-2.911 -3.704,-4.767c-0.825,-1.855 -1.229,-3.926 -0.639,-5.929c0.591,-2.003 2.393,-3.709 4.903,-4.297l0.139,-0.033l8.299,3.182Zm-42.284,-5.481l5.358,-1.319l0.621,0.341l0.253,0.662c1.05,2.744 1.105,5.609 -0.307,7.973c-1.412,2.364 -4.007,4.024 -7.609,5.216l-1.482,0.491l-0.426,-8.235c1.212,-2.211 2.489,-3.897 3.592,-5.129Zm20.851,-17.187l8.765,6.379l0.086,0.133l0.064,0.146c0.666,1.521 0.494,3.111 -0.001,4.598c-0.496,1.487 -1.375,2.912 -2.681,3.979c-1.306,1.065 -3.169,1.725 -5.114,1.313c-1.944,-0.412 -3.779,-1.763 -5.476,-4.037l-0.369,-0.495l3.595,-11.32l1.13,-0.696l0.001,0Zm20.258,-1.232l1.902,4.74l1.308,1.673l0,0.112c-0.254,0.664 -1.543,3.902 -2.616,4.425c-1.197,0.584 -3.355,-0.159 -4.521,-1.042c-1.167,-0.883 -1.757,-2.407 -2.479,-4.255c-0.607,-1.551 -0.924,-3.738 0.173,-4.703c0.984,-0.866 5.298,-0.62 6.233,-0.95Z"/><path d="M59.733,46.246c0,0 -0.206,0.009 -0.307,0.021c-0.736,0.09 -1.523,0.468 -2.377,1.475l1.633,21.929l5.385,-17.846c0.433,-1.527 -0.535,-3.72 -2.131,-4.832c-0.617,-0.43 -1.263,-0.679 -1.891,-0.735c-0.104,-0.009 -0.208,-0.013 -0.312,-0.012Zm38.013,-17.997l-16.82,1.398c-1.402,0.349 -1.768,0.853 -1.987,1.599c-0.226,0.764 -0.098,2.005 0.463,3.267c0.561,1.263 1.521,2.501 2.522,3.268c0.881,0.674 1.689,0.928 2.345,0.881c0.129,-0.093 0.262,-0.188 0.464,-0.338c0.736,-0.551 1.468,-1.106 2.196,-1.666c1.801,-1.381 4.172,-3.22 6.529,-5.056c2.156,-1.679 4.288,-3.353 4.288,-3.353Zm-59.827,-9.274l8.078,13.739c2.162,-0.913 3.465,-1.956 4.067,-2.964c0.647,-1.084 0.732,-2.306 0.206,-3.982l-12.351,-6.793l0,0Zm29.215,-13.89l6.555,10.071c0.083,0.242 0.135,0.96 -0.134,1.767c-0.28,0.843 -0.845,1.706 -1.458,2.206c-0.612,0.499 -1.141,0.681 -1.868,0.527c-0.657,-0.139 -1.643,-0.709 -2.813,-2.132l-0.282,-12.439l0,0l0,-0.001l0,0.001Zm31.705,-4.419l-13.565,6.338c-1.059,0.721 -1.208,1.253 -1.161,1.941c0.047,0.705 0.535,1.698 1.39,2.576c0.856,0.878 2.036,1.613 3.104,1.943c0.94,0.29 1.691,0.252 2.223,0.012c0.078,-0.117 0.16,-0.238 0.281,-0.425c0.443,-0.684 0.881,-1.371 1.315,-2.061c1.074,-1.703 2.48,-3.962 3.877,-6.215c1.276,-2.061 2.536,-4.109 2.536,-4.109Z" style="fill:url(#_Radial3);stroke:#000;stroke-width:0.3px;"/><path d="M98.839,0.666l-13.565,6.338c-1.059,0.721 -1.208,1.253 -1.161,1.941c0.047,0.705 0.535,1.698 1.39,2.576c0.856,0.878 2.036,1.613 3.104,1.943c0.94,0.29 1.691,0.252 2.223,0.012c0.078,-0.117 0.16,-0.238 0.281,-0.425c0.443,-0.684 0.881,-1.371 1.315,-2.061c1.074,-1.703 2.48,-3.962 3.877,-6.215c1.276,-2.061 2.536,-4.109 2.536,-4.109Z" style="fill:url(#_Radial4);stroke:#000;stroke-width:0.3px;"/></g><defs><radialGradient id="_Radial1" cx="0" cy="0" r="1" gradientUnits="userSpaceOnUse" gradientTransform="matrix(23.9714,-7.66235,7.69939,24.0872,69.2397,31.6139)"><stop offset="0" style="stop-color:#525252;stop-opacity:1"/><stop offset="0.61" style="stop-color:#5e5e5e;stop-opacity:1"/><stop offset="0.82" style="stop-color:#7b7b7b;stop-opacity:1"/><stop offset="1" style="stop-color:#999;stop-opacity:1"/></radialGradient><linearGradient id="_Linear2" x1="0" y1="0" x2="1" y2="0" gradientUnits="userSpaceOnUse" gradientTransform="matrix(-36.3291,-38.481,38.481,-36.3291,84.7967,52.9114)"><stop offset="0" style="stop-color:#301203;stop-opacity:1"/><stop offset="0.5" style="stop-color:#582106;stop-opacity:1"/><stop offset="1" style="stop-color:#301203;stop-opacity:1"/></linearGradient><radialGradient id="_Radial3" cx="0" cy="0" r="1" gradientUnits="userSpaceOnUse" gradientTransform="matrix(27.9759,-18.4264,12.9628,19.6808,64.9258,33.9025)"><stop offset="0" style="stop-color:#4f4f4f;stop-opacity:1"/><stop offset="0.43" style="stop-color:#666;stop-opacity:1"/><stop offset="1" style="stop-color:#999;stop-opacity:1"/></radialGradient><radialGradient id="_Radial4" cx="0" cy="0" r="1" gradientUnits="userSpaceOnUse" gradientTransform="matrix(15.3197,-16.1236,13.0512,12.4005,78.0498,19.9684)"><stop offset="0" style="stop-color:#4f4f4f;stop-opacity:1"/><stop offset="1" style="stop-color:#999;stop-opacity:1"/></radialGradient></defs></svg>