<svg width="100px" height="100px" viewBox="0 0 100 100" version="1.1" xmlns="http://www.w3.org/2000/svg" xmlns:xlink="http://www.w3.org/1999/xlink" xml:space="preserve" style="fill-rule:evenodd;clip-rule:evenodd;stroke-linejoin:round;stroke-miterlimit:1.41421;"><path d="M88.545,0.011c-0.435,-0.027 -2.217,0 -2.692,0.037c-2.597,0.203 -6.028,0.69 -8.75,1.439c-2.893,0.796 -8.611,3.339 -8.611,3.339c-5.637,2.902 -11.09,8.495 -14.843,12.795c-3.309,3.792 -7.673,13.006 -7.673,13.006c-0.383,0.843 -3.775,9.431 -4.152,10.299l-1.091,8.387l-0.379,-5.575c-2.343,5.429 -4.894,10.86 -8.095,15.714c-9.116,13.826 -29.598,34.863 -29.598,34.863l-0.016,0.016l-0.015,0.015c-0.876,0.864 -0.877,1.25 -0.78,1.726c0.065,0.318 0.303,0.755 0.711,1.218l14.223,-10.463l-12.491,11.566c1.296,0.517 3.89,1.627 4.784,1.607c1.545,-1.454 14.963,-14.018 24.024,-19.882c8.549,-5.533 15.653,-12.131 23.847,-18.402c0,0 12.409,-6.811 18.073,-10.269c5.421,-3.309 7.616,-2.403 14.945,-11.147c7.657,-9.134 8.045,-19.974 8.162,-21.131c0.229,-2.266 -0.213,-8.328 -0.398,-10.405l-5.267,9.639l3.714,-13.264c-0.421,-0.798 -0.91,-1.543 -1.47,-2.222c-1.585,-1.917 -3.633,-2.74 -6.162,-2.906l0,0Z" style="fill:url(#_Linear1);fill-rule:nonzero;"/><defs><linearGradient id="_Linear1" x1="0" y1="0" x2="1" y2="0" gradientUnits="userSpaceOnUse" gradientTransform="matrix(-36.3291,-38.481,38.481,-36.3291,85.443,52.9114)"><stop offset="0" style="stop-color:#301203;stop-opacity:1"/><stop offset="0.5" style="stop-color:#582106;stop-opacity:1"/><stop offset="1" style="stop-color:#301203;stop-opacity:1"/></linearGradient></defs></svg>