<svg width="100px" height="100px" viewBox="0 0 100 100" version="1.1" xmlns="http://www.w3.org/2000/svg"  xml:space="preserve" xmlns:serif="http://www.serif.com/" style="fill-rule:evenodd;clip-rule:evenodd;stroke-linejoin:round;stroke-miterlimit:1.41421;"><g><g id="Geschlossene-Tür-außen" serif:id="Geschlossene Tür außen"><path d="M88.528,11.491c-12.842,-12.837 -64.209,-12.852 -77.051,-0.012c-11.298,11.296 -11.299,65.757 0,77.051c12.842,12.837 64.209,12.81 77.051,-0.03c11.292,-11.29 11.292,-65.721 0,-77.009Z" style="fill:#491b05;"/><path d="M18.458,5.458l0,89.091c-3.369,-1.363 -6.139,-3.008 -8.067,-4.934c-11.616,-11.612 -11.616,-67.607 0,-79.221c1.928,-1.927 4.698,-3.572 8.067,-4.936Zm63.716,0.272c3.086,1.312 5.633,2.871 7.439,4.676c11.611,11.606 11.61,67.571 0,79.179c-1.806,1.806 -4.353,3.365 -7.439,4.677l0,-88.532Z" style="fill:url(#_Radial1);stroke:#000;stroke-width:0.3px;"/><path d="M18.3,27.534l0,44.939c-3.96,-11.503 -3.96,-33.434 0,-44.939Zm64.036,2.053c3.112,11.183 3.112,29.635 0,40.819l0,-40.819Z" style="fill:#7b2e08;"/><path d="M96.852,70.041l-0.513,2.92l-7.136,0.373l7.649,-3.293Z"/><path d="M97.644,36.107l0.2,2.177l-8.043,-2.197l7.843,0.02Z"/><path d="M18.458,59.305l-16.192,3.663l-0.586,-12.381c0,0 6.848,2.827 16.778,4.57l0,4.148Z"/></g><g id="Geschlossene-Tür-innen" serif:id="Geschlossene Tür innen"><path d="M24.925,12.68c13.193,-5.616 37.887,-5.537 50.782,0.228l0,74.178c-12.895,5.768 -37.589,5.853 -50.782,0.24l0,-74.646Z" style="fill:url(#_Radial2);stroke:#000;stroke-width:0.3px;"/><path d="M25.073,31.27c0.703,-2.162 1.566,-3.882 2.587,-4.962c7.469,-7.896 37.345,-7.887 44.814,0.008c1.277,1.349 2.305,3.701 3.085,6.666l0,34.03c-0.78,2.965 -1.808,5.317 -3.085,6.667c-7.469,7.897 -37.345,7.913 -44.814,0.018c-1.021,-1.079 -1.884,-2.799 -2.587,-4.961l0,-37.466Z" style="fill:#7b2e08;"/><ellipse cx="69.022" cy="53.475" rx="4.551" ry="6.574"/><path d="M68.375,10.512l2.367,0.614c0,0 -0.48,4.765 -0.844,6.369c-0.364,1.604 -2.018,4.781 -1.982,4.2c0.071,-1.179 0.459,-11.183 0.459,-11.183Z"/><path d="M24.925,54.321c3.033,0.56 6.428,0.986 10.014,1.094l-10.014,2.381l0,-3.475Z"/><path d="M56.275,8.735c0,0 1.714,4.367 -0.23,9.624c-0.006,0.016 -1.003,1.38 -1.559,1.383c-1.894,0.014 -11.076,-1.385 -11.076,-1.385c0,0 8.649,-0.701 10.362,-1.811c0.666,-0.432 1.156,-3.64 1.16,-4.781c0.004,-1.141 -1.14,-3.138 -1.14,-3.138l2.483,0.108Z"/></g></g><defs><radialGradient id="_Radial1" cx="0" cy="0" r="1" gradientUnits="userSpaceOnUse" gradientTransform="matrix(48.3209,0,0,48.3209,50,50.0035)"><stop offset="0" style="stop-color:#7b2e08;stop-opacity:1"/><stop offset="1" style="stop-color:#301203;stop-opacity:1"/></radialGradient><radialGradient id="_Radial2" cx="0" cy="0" r="1" gradientUnits="userSpaceOnUse" gradientTransform="matrix(25.3914,0,0,25.3914,50.3161,50)"><stop offset="0" style="stop-color:#7b2e08;stop-opacity:1"/><stop offset="1" style="stop-color:#301203;stop-opacity:1"/></radialGradient></defs></svg>