<svg width="100px" height="100px" viewBox="0 0 100 100" version="1.1" xmlns="http://www.w3.org/2000/svg"  xml:space="preserve"  style="fill-rule:evenodd;clip-rule:evenodd;stroke-linejoin:round;stroke-miterlimit:1.41421;"><path d="M93.752,0.5l-21.592,6.278l8.752,-5.916c-5.528,1.247 -12.5,3.686 -21.262,7.62l-14.293,14.905l5.068,-10.41c-4.896,2.729 -10.097,6.315 -15.123,10.496l-3.323,13.543l-0.711,-10.015c-4.959,4.537 -9.607,9.602 -13.45,14.911c-4.054,5.599 -7.219,11.478 -8.805,17.36l-5.922,-3.962c1.292,4.13 2.504,8.262 4.823,12.392c0.007,0.309 0.021,0.62 0.04,0.928l-7.081,-2.178c2.364,3.85 4.964,7.558 9.054,10.345c0.095,0.211 0.201,0.415 0.303,0.625c-2.493,7.018 -4.331,14.109 -5.586,21.414l3.875,0.664c1.043,-6.066 2.493,-11.97 4.403,-17.807c0.008,0.011 0.017,0.022 0.026,0.033c9.324,-32.874 30.073,-56.193 60.443,-68.228l-0.188,2.132c-27.175,10.769 -46.181,30.565 -55.968,58.765c3.813,0.021 9.174,1.087 12.632,0.216l1.026,-12.838l2.757,11.687c2.283,-0.826 4.397,-1.845 6.278,-3.027l-4.356,-9.154l6.903,7.331c1.673,-1.362 3.077,-2.88 4.132,-4.534c6.383,-10.004 13.098,-19.948 26.27,-28.257l-9.627,-3.422l14.773,0.447c0.431,-0.228 0.861,-0.459 1.304,-0.684c1.913,-0.975 3.773,-2.144 5.54,-3.449l-10.469,-0.835l15.734,-3.712c1.219,-1.223 2.353,-2.492 3.377,-3.784c3.66,-4.62 6.114,-9.431 5.534,-13.806c-0.29,-2.188 -1.592,-4.244 -3.712,-5.396c-0.491,-0.267 -1.017,-0.492 -1.579,-0.678l0,0Z" style="fill:url(#_Radial1);fill-rule:nonzero;"/><defs><radialGradient id="_Radial1" cx="0" cy="0" r="1" gradientUnits="userSpaceOnUse" gradientTransform="matrix(18.4912,62.3852,-63.4961,18.8204,41.3106,40.1179)"><stop offset="0" style="stop-color:#7d7d7d;stop-opacity:1"/><stop offset="1" style="stop-color:#111;stop-opacity:1"/></radialGradient></defs></svg>