<svg width="100px" height="100px" viewBox="0 0 100 100" version="1.1" xmlns="http://www.w3.org/2000/svg" xmlns:xlink="http://www.w3.org/1999/xlink" xml:space="preserve" xmlns:serif="http://www.serif.com/" style="fill-rule:evenodd;clip-rule:evenodd;"><circle cx="50" cy="50" r="50" style="fill:#e2a850;fill-opacity:0.368627;"/><circle cx="50" cy="50" r="40.642" style="fill:#e6b053;fill-opacity:0.627451;"/><g><g><path d="M42.339,32.409c0,-1.899 -1.542,-3.44 -3.441,-3.44c-1.898,0 -3.44,1.541 -3.44,3.44l0,35.182c0,1.899 1.542,3.44 3.44,3.44c1.899,0 3.441,-1.541 3.441,-3.44l0,-35.182Z" style="fill:#4e1700;stroke:#230b00;stroke-width:0.41px;"/><path d="M64.542,32.409c0,-1.899 -1.542,-3.44 -3.44,-3.44c-1.899,0 -3.441,1.541 -3.441,3.44l0,35.182c0,1.899 1.542,3.44 3.441,3.44c1.898,0 3.44,-1.541 3.44,-3.44l0,-35.182Z" style="fill:#4e1700;stroke:#230b00;stroke-width:0.41px;"/></g><g><path d="M67.591,42.339c1.899,0 3.44,-1.542 3.44,-3.441c0,-1.899 -1.541,-3.44 -3.44,-3.44l-35.182,0c-1.899,0 -3.44,1.542 -3.44,3.44c0,1.899 1.541,3.441 3.44,3.441l35.182,0Z" style="fill:#4e1700;stroke:#230b00;stroke-width:0.41px;"/><path d="M67.591,64.542c1.899,0 3.44,-1.542 3.44,-3.44c0,-1.899 -1.541,-3.441 -3.44,-3.441l-35.182,0c-1.899,0 -3.44,1.542 -3.44,3.441c0,1.899 1.541,3.44 3.44,3.44l35.182,0Z" style="fill:#4e1700;stroke:#230b00;stroke-width:0.41px;"/></g></g><g><circle cx="50" cy="50" r="15.961" style="fill:#a25e06;fill-opacity:0.427451;"/><circle cx="50" cy="50" r="13.187" style="fill:#a25e06;fill-opacity:0.427451;"/><circle cx="50" cy="50" r="9.781" style="fill:#b96b06;"/><circle cx="50" cy="50" r="6.023" style="fill:#ca7505;"/></g></svg>