<svg width="100px" height="100px" viewBox="0 0 100 100" version="1.1" xmlns="http://www.w3.org/2000/svg"  xml:space="preserve" style="fill-rule:evenodd;clip-rule:evenodd;"><path d="M83.008,21.653c2.855,-3.62 2.236,-8.874 -1.383,-11.731c-3.619,-2.855 -8.875,-2.236 -11.73,1.384l-52.903,67.041c-2.855,3.62 -2.236,8.874 1.383,11.731c3.619,2.855 8.875,2.236 11.73,-1.384l52.903,-67.041l0,0Z" style="fill:#4e1700;stroke:#230b00;stroke-width:1px;"/><path d="M93.098,44.024c4.359,-1.498 6.683,-6.253 5.185,-10.612c-1.499,-4.359 -6.253,-6.683 -10.614,-5.185l-80.767,27.749c-4.359,1.498 -6.683,6.253 -5.185,10.612c1.499,4.359 6.253,6.683 10.612,5.185l80.769,-27.749l0,0Z" style="fill:#4e1700;stroke:#230b00;stroke-width:1px;"/><path d="M88.913,69.465c4.442,1.232 9.048,-1.373 10.282,-5.815c1.231,-4.441 -1.374,-9.048 -5.816,-10.28l-82.292,-22.835c-4.442,-1.232 -9.048,1.373 -10.282,5.815c-1.231,4.441 1.374,9.048 5.816,10.28l82.292,22.835Z" style="fill:#4e1700;stroke:#230b00;stroke-width:1px;"/><circle cx="50" cy="50" r="38.745" style="fill:#a25e06;fill-opacity:0.427451;"/><circle cx="50" cy="50" r="32.011" style="fill:#a25e06;fill-opacity:0.427451;"/><circle cx="50" cy="50" r="23.744" style="fill:#b96b06;"/><circle cx="50" cy="50" r="14.62" style="fill:#ca7505;"/></svg>