<svg width="100px" height="100px" viewBox="0 0 100 100" version="1.1" xmlns="http://www.w3.org/2000/svg" xmlns:xlink="http://www.w3.org/1999/xlink" xml:space="preserve" xmlns:serif="http://www.serif.com/" style="fill-rule:evenodd;clip-rule:evenodd;stroke-linejoin:round;stroke-miterlimit:1.41421;"><g><path d="M50.276,2.432C53.382,5.642 56.382,8.793 58.616,11.859C61.19,15.368 62.722,18.719 62.722,21.676C62.722,26.846 62.275,31.974 61.19,36.08C57.552,38.633 54.509,41.697 52.19,45.378L52.19,28.995L48.361,28.995L48.361,45.527C45.68,41.803 42.488,38.74 38.85,36.165C37.765,32.038 37.297,26.868 37.297,21.655C37.297,18.697 38.829,15.368 41.403,11.859C43.634,8.798 47.032,5.651 50.276,2.432Z" style="fill:#ff5e00;"/><path d="M81.147,32.208C83.23,32.25 85.798,32.74 88.387,33.612C92.004,34.825 95.97,36.718 100,38.718C97.94,42.633 95.881,46.442 93.679,49.505C91.158,53.527 88.466,55.995 85.579,56.909C80.403,58.526 75.849,59.505 71.594,59.739C67.765,57.08 63.637,55.144 59.403,54.101L75.296,48.569L74.105,44.91L58.063,49.973C57.403,48.888 56.552,47.931 55.531,47.208C59.914,40.271 67.318,35.952 77.679,32.697C78.738,32.337 79.882,32.188 81.147,32.208Z" style="fill:#ff5e00;"/><path d="M19.276,32.272C20.361,32.293 21.361,32.442 22.276,32.74C32.808,35.995 39.999,40.271 44.403,47.186C43.361,47.931 42.467,48.888 41.829,49.995L26.404,44.974L24.978,48.633L40.616,54.165C40.595,54.484 40.574,54.782 40.574,55.101C40.574,56.08 40.744,57.037 41.042,57.931C33.446,60.952 24.851,60.207 14.595,56.931C11.766,56.058 9.149,53.569 6.681,49.527C4.511,46.484 2.064,42.654 0,38.761C4.447,36.761 8.319,34.867 11.851,33.655C14.383,32.782 16.723,32.272 18.808,32.25L19.276,32.272Z" style="fill:#ff5e00;"/><path d="M50.212,49.293C53.148,49.293 55.488,52.165 55.488,55.101C55.488,58.037 53.148,60.377 50.212,60.377C47.148,60.377 44.425,58.037 44.425,55.101C44.425,52.17 47.138,49.303 50.212,49.293Z" style="fill:#ffee6e;"/><path d="M58.892,57.867C66.977,59.909 73.679,65.441 79.871,74.484C81.615,76.866 82.275,80.398 82.211,84.696C82.147,88.419 81.53,92.696 80.849,97.568C76.53,96.866 72.275,96.121 68.594,95.036C64.084,93.228 60.935,91.504 59.19,89.122C56.126,84.888 53.765,80.845 52.233,76.866C53.658,72.122 54.297,67.867 53.999,63.526L63.488,77.122L66.743,74.845L56.999,61.122C57.846,60.211 58.482,59.069 58.892,57.867Z" style="fill:#ff5e00;"/><path d="M42.722,61.399L33.361,74.824L36.467,77.079L46.276,63.42C47.531,63.931 48.893,64.207 50.212,64.207L50.233,64.207C50.744,72.441 47.339,80.59 40.744,89.079C39.02,91.483 35.872,93.207 31.765,94.994C28.212,96.1 23.51,96.823 19.106,97.526C18.425,92.653 17.787,88.377 17.744,84.654C17.68,80.377 18.34,76.845 20.085,74.462C23.148,69.739 26.723,66.271 29.999,63.59C34.44,63.675 38.668,62.996 42.722,61.399Z" style="fill:#ff5e00;"/></g></svg>