<svg width="100px" height="100px" viewBox="0 0 100 100" version="1.1" xmlns="http://www.w3.org/2000/svg"  xml:space="preserve" style="fill-rule:evenodd;clip-rule:evenodd;stroke-linecap:round;stroke-linejoin:round;stroke-miterlimit:1.5;"><g><path d="M57.548,4.072c-0.074,-1.578 -3.383,0.309 -4.492,0.31c-0.728,0.001 -2.146,-1.07 -2.165,-0.303c-0.375,15.562 -1.183,78.063 -0.089,93.676c0.164,2.331 6.49,2.325 6.658,-0.007c1.124,-15.613 0.823,-78.114 0.088,-93.676Z" style="fill:url(#_Linear1);stroke:#000;stroke-width:0.28px;"/><path d="M30.41,13.308l14.44,-7.953c0.003,0 0.005,0.002 0.008,0.003l1.829,1.828l0.39,0.196l0.434,0.146l15.508,-0.014l0.006,-7.008l0,0l6.566,-0.006l-0.027,28.318l-6.565,0.001l0.007,-8.299l-15.33,0.017l-0.675,0.001l-0.338,0.581c-0.546,0.938 -1.054,1.34 -1.774,1.426l-14.479,-9.237l-0.001,0l0.001,0l0,0Z" style="fill:url(#_Radial2);stroke:#000;stroke-width:0.33px;stroke-linecap:butt;stroke-miterlimit:1.41421;"/></g><defs><linearGradient id="_Linear1" x1="0" y1="0" x2="1" y2="0" gradientUnits="userSpaceOnUse" gradientTransform="matrix(6.65706,-0.00631245,-0.00631245,6.65706,50.8469,50.9169)"><stop offset="0" style="stop-color:#301203;stop-opacity:1"/><stop offset="0.5" style="stop-color:#582106;stop-opacity:1"/><stop offset="1" style="stop-color:#301203;stop-opacity:1"/></linearGradient><radialGradient id="_Radial2" cx="0" cy="0" r="1" gradientUnits="userSpaceOnUse" gradientTransform="matrix(-0.0222087,23.4211,-25.8736,0.0245342,47.7376,13.6427)"><stop offset="0" style="stop-color:#d9d9d9;stop-opacity:1"/><stop offset="0.28" style="stop-color:#c4c4c4;stop-opacity:1"/><stop offset="1" style="stop-color:#717171;stop-opacity:1"/></radialGradient></defs></svg>