<svg width="100px" height="100px" viewBox="0 0 100 100" version="1.1" xmlns="http://www.w3.org/2000/svg" xmlns:xlink="http://www.w3.org/1999/xlink" xml:space="preserve" style="fill-rule:evenodd;clip-rule:evenodd;stroke-linecap:round;stroke-linejoin:round;stroke-miterlimit:1.5;"><g><path d="M47.337,0.903c-0.086,-1.635 -3.776,0.316 -5.015,0.316c-0.812,0 -2.396,-1.11 -2.416,-0.316c-0.132,5.272 1.507,18.305 1.098,30.572c-0.146,4.381 -1.334,8.938 -1.49,13.534c-0.298,8.784 1.125,20.775 1.141,28.876c0.023,11.754 -1.213,18.708 -0.749,24.055c0.209,2.412 7.246,2.414 7.431,0c0.456,-5.967 0.848,-18.604 0.585,-32.874c-0.098,-5.322 -0.952,-8.461 -0.968,-14.025c-0.007,-2.624 1.139,-7.673 1.123,-10.265c-0.028,-4.651 0.703,-8.952 0.651,-13.26c-0.14,-11.553 -1.13,-21.581 -1.391,-26.613l0,0Z" style="fill:url(#_Linear1);stroke:#000;stroke-width:0.3px;"/><path d="M70.776,2.037c-5.995,-3.957 -34.397,0.604 -41.026,4.394c-5.321,3.042 -3.862,14.968 1.253,18.345c5.995,3.958 28.086,9.192 34.714,5.402c6.629,-3.79 11.053,-24.183 5.059,-28.141Z" style="fill:#545454;stroke:#000;stroke-width:0.29px;"/><path d="M71.587,3.322c-1.767,-3.331 -6.797,27.264 -5.539,26.081c6.09,-5.722 8.339,-20.804 5.539,-26.081Z" style="fill:#727272;"/></g><defs><linearGradient id="_Linear1" x1="0" y1="0" x2="1" y2="0" gradientUnits="userSpaceOnUse" gradientTransform="matrix(7.4302,0,0,7.37943,39.9062,49.4213)"><stop offset="0" style="stop-color:#301203;stop-opacity:1"/><stop offset="0.5" style="stop-color:#582106;stop-opacity:1"/><stop offset="1" style="stop-color:#301203;stop-opacity:1"/></linearGradient></defs></svg>