<svg width="100px" height="100px" viewBox="0 0 100 100" version="1.1" xmlns="http://www.w3.org/2000/svg" xmlns:xlink="http://www.w3.org/1999/xlink" xml:space="preserve" style="fill-rule:evenodd;clip-rule:evenodd;stroke-linecap:round;stroke-linejoin:round;stroke-miterlimit:1.5;"><g><path d="M84.513,15.959c1.238,-1.363 -3.04,-2.536 -3.954,-3.45c-0.6,-0.6 -0.885,-2.653 -1.532,-2.036c-13.121,12.527 -65.24,63.413 -77.193,77.193c-1.784,2.058 3.43,7.271 5.487,5.486c13.779,-11.951 64.986,-63.752 77.192,-77.193Z" style="fill:url(#_Linear1);stroke:#000;stroke-width:0.33px;"/><path d="M54.568,1.193l18.435,5.35c0.002,0.003 0.003,0.006 0.005,0.009l0,3.017l0.159,0.483l0.237,0.479l12.779,12.779l5.775,-5.775l0,0l5.41,5.41l-23.335,23.335l-5.406,-5.414l6.839,-6.839l-12.636,-12.631l-0.556,-0.556l-0.756,0.201c-1.223,0.323 -1.971,0.236 -2.634,-0.287l-4.316,-19.561l-0.001,-0.001l0.001,0l0,0.001Z" style="fill:url(#_Radial2);stroke:#000;stroke-width:0.33px;stroke-linecap:butt;stroke-miterlimit:1.41421;"/></g><defs><linearGradient id="_Linear1" x1="0" y1="0" x2="1" y2="0" gradientUnits="userSpaceOnUse" gradientTransform="matrix(5.48567,5.48567,-5.48567,5.48567,40.4308,49.0699)"><stop offset="0" style="stop-color:#301203;stop-opacity:1"/><stop offset="0.5" style="stop-color:#582106;stop-opacity:1"/><stop offset="1" style="stop-color:#301203;stop-opacity:1"/></linearGradient><radialGradient id="_Radial2" cx="0" cy="0" r="1" gradientUnits="userSpaceOnUse" gradientTransform="matrix(-19.2998,19.2998,-21.3208,-21.3208,68.6257,16.9009)"><stop offset="0" style="stop-color:#d9d9d9;stop-opacity:1"/><stop offset="0.28" style="stop-color:#c4c4c4;stop-opacity:1"/><stop offset="1" style="stop-color:#717171;stop-opacity:1"/></radialGradient></defs></svg>