<svg width="100px" height="100px" viewBox="0 0 100 100" version="1.1" xmlns="http://www.w3.org/2000/svg"  xml:space="preserve" style="fill-rule:evenodd;clip-rule:evenodd;stroke-linecap:round;stroke-linejoin:round;stroke-miterlimit:1.5;"><g><path d="M77.171,13.982c1.072,-1.44 -3.597,-2.551 -4.704,-3.475c-0.726,-0.606 -1.361,-2.721 -1.937,-2.068c-3.82,4.338 -11.51,16.527 -20.49,26.545c-3.208,3.577 -7.47,6.527 -10.837,10.278c-6.436,7.169 -13.585,18.321 -19.26,25.15c-8.235,9.908 -14.223,14.838 -17.564,19.683c-1.507,2.186 4.78,7.436 6.641,5.542c4.599,-4.68 13.823,-15.022 23.611,-27.226c3.65,-4.552 5.092,-7.83 8.985,-12.524c1.837,-2.214 6.407,-5.607 8.213,-7.8c3.241,-3.935 6.915,-7.009 9.894,-10.673c7.989,-9.826 14.146,-19.003 17.448,-23.432l0,0Z" style="fill:url(#_Linear1);stroke:#000;stroke-width:0.34px;"/><path d="M95.247,30.576c-2.33,-7.453 -29.388,-23.126 -37.575,-24.489c-6.573,-1.094 -13.539,9.954 -11.551,16.313c2.33,7.453 17.341,27.041 25.528,28.403c8.188,1.363 25.927,-12.774 23.598,-20.227Z" style="fill:#545454;stroke:#000;stroke-width:0.29px;"/><path d="M95.047,32.215c0.8,-4.019 -24.459,18.294 -22.587,18.163c9.062,-0.636 21.319,-11.794 22.587,-18.163Z" style="fill:#727272;"/></g><defs><linearGradient id="_Linear1" x1="0" y1="0" x2="1" y2="0" gradientUnits="userSpaceOnUse" gradientTransform="matrix(6.64047,5.54216,-5.18268,6.20974,36.4548,49.2671)"><stop offset="0" style="stop-color:#301203;stop-opacity:1"/><stop offset="0.5" style="stop-color:#582106;stop-opacity:1"/><stop offset="1" style="stop-color:#301203;stop-opacity:1"/></linearGradient></defs></svg>