<svg width="100px" height="100px" viewBox="0 0 100 100" version="1.1" xmlns="http://www.w3.org/2000/svg" xmlns:xlink="http://www.w3.org/1999/xlink" xml:space="preserve" xmlns:serif="http://www.serif.com/" style="fill-rule:evenodd;clip-rule:evenodd;stroke-linejoin:round;stroke-miterlimit:1.41421;"><path d="M70.221,100.639l-26.758,-0.462l-24.761,-34.924l0.009,-14.505l9.573,2.555l10.91,11.964l-7.172,-12.348l5.672,-9.517l-9.16,-21.028l12.209,-20.735l16.536,5.129l12.1,19.179l-8.025,1.789l-9.027,-9.452l7.096,11.053l-0.396,9.178l-7.658,3.431l8.465,-1.408l9.871,4.955l7.941,-7.254l7.814,7.429l4.051,13.682l-5.789,-6.225l-17.682,9.529l-12.862,-3.837l2.877,-6.604l-6.846,-2.331l4.733,3.692l-2.814,6.128l13.897,5.36l5.129,20.076l-5.552,7.28l8.898,-7.24l14.69,-2.155l-17.968,17.616l-0.001,0Z" style="fill:#989898;fill-rule:nonzero;stroke:#000;stroke-width:0.6px;"/><path d="M71.974,83.794l-4.923,-19.228l16.447,-8.901l12.255,13.542l-4.261,11.924l-19.518,2.663Zm-41.728,-31.749l-13.499,-3.565l-4.634,-15.788l15.082,-8.549l8.433,19.205l-5.382,8.697l0,0Zm39.29,-8.897l-8.763,-4.488l0.359,-8.872l9.955,-2.264l6.108,8.971l-7.659,6.652l0,0.001Z" style="fill:#a46262;fill-rule:nonzero;stroke:#000;stroke-width:0.6px;"/></svg>