<svg width="100px" height="100px" viewBox="0 0 100 100" version="1.1" xmlns="http://www.w3.org/2000/svg" xmlns:xlink="http://www.w3.org/1999/xlink" xml:space="preserve" xmlns:serif="http://www.serif.com/" style="fill-rule:evenodd;clip-rule:evenodd;stroke-linejoin:round;stroke-miterlimit:1.41421;"><g><path d="M61.003,11.654l-21.363,21.678l-6.044,19.483l3.937,8.242l4.582,2.084l7.447,-12.362l2.535,-0.81l13.858,6.026l4.547,-2.917l1.003,-9.808l2.563,12.037l-2.384,3.178l0.847,0.368l1.175,1.459l1.534,7.708l12.562,-14.986l3.138,0.051l5.026,6.413l-2.121,-11.725l-6.745,-23.124l-26.096,-12.995l-0.001,0Z" style="fill:#989898;fill-rule:nonzero;"/><path d="M87.1,24.649l6.745,23.124l2.121,11.725l-5.026,-6.413l-3.138,-0.051l-12.562,14.986l-1.534,-7.708l-1.175,-1.459l-0.847,-0.368l2.384,-3.178l-2.563,-12.037l-1.003,9.808l-4.547,2.917l-13.858,-6.026l-2.535,0.81l-7.447,12.362l-4.582,-2.084l-3.937,-8.242l6.044,-19.483l21.363,-21.678l0.001,0l26.096,12.995Zm-46.89,9.024l-5.923,19.092l3.726,7.802l3.846,1.749l7.15,-11.87l0.068,-0.093l0.085,-0.08l0.097,-0.063l0.106,-0.045l2.536,-0.811l0.113,-0.025l0.115,-0.004l0.115,0.016l0.11,0.036l13.543,5.889l3.995,-2.563l0.971,-9.498l0.024,-0.12l0.046,-0.112l0.066,-0.102l0.084,-0.088l0.099,-0.071l0.11,-0.051l0.118,-0.029l0.121,-0.006l0.121,0.016l0.115,0.039l0.106,0.059l0.093,0.079l0.076,0.094l0.058,0.107l0.036,0.116l2.563,12.037l0.014,0.109l-0.005,0.11l-0.024,0.107l-0.042,0.102l-0.058,0.093l-1.894,2.525l0.098,0.043l0.091,0.049l0.083,0.063l0.071,0.075l1.176,1.458l0.058,0.086l0.044,0.094l0.028,0.099l1.271,6.388l11.698,-13.955l0.081,-0.081l0.094,-0.065l0.105,-0.048l0.111,-0.028l0.114,-0.008l3.137,0.051l0.114,0.012l0.11,0.032l0.103,0.051l0.092,0.069l0.078,0.083l3.421,4.364l-1.652,-9.13l-6.656,-22.82l-25.425,-12.661l-20.925,21.233Z"/><path d="M18.149,13.699l-7.012,12.372l-1.093,6.559l6.169,-2.005l2.779,1.752l0.02,0.151l6.719,14.215l3.27,-1.079l2.598,1.108l0.931,1.95l4.635,-14.94l-0.256,-7.916l-9.533,-0.124l-7.06,-5.646l8.875,3.206l6.899,0.403l6.182,3.77l11.018,-11.6c-0.659,-0.28 -1.333,-0.559 -2.037,-0.836l-18.897,2.405l-0.838,-0.06l-13.37,-3.685l0.001,0Z" style="fill:#989898;fill-rule:nonzero;"/><path d="M18.149,13.699l13.369,3.685l0.838,0.06l18.897,-2.405l0.262,0.104l0.26,0.104l0.258,0.104l0.255,0.105l0.253,0.104l0.251,0.105l0.498,0.21l-11.018,11.6l-6.182,-3.77l-6.899,-0.403l-8.875,-3.206l7.06,5.646l9.533,0.124l0.256,7.916l-4.635,14.94l-0.931,-1.95l-2.598,-1.108l-3.27,1.079l-6.719,-14.215l-0.02,-0.151l-2.779,-1.752l-6.169,2.005l1.093,-6.559l7.012,-12.372l-0.001,0l0.001,0l0,0Zm-6.395,12.591l-0.899,5.398l5.158,-1.676l0.092,-0.023l0.094,-0.009l0.094,0.005l0.092,0.019l0.089,0.031l0.083,0.045l2.779,1.751l0.076,0.056l0.067,0.067l0.056,0.075l0.045,0.083l0.032,0.088l0.019,0.092l0.007,0.051l6.432,13.608l2.729,-0.9l0.09,-0.022l0.093,-0.01l0.093,0.004l0.091,0.017l0.088,0.031l2.598,1.108l0.083,0.043l0.075,0.054l0.068,0.064l0.057,0.073l0.046,0.081l0.221,0.463l4.114,-13.263l-0.231,-7.191l-8.918,-0.116l-0.085,-0.006l-0.083,-0.018l-0.08,-0.029l-0.076,-0.039l-0.07,-0.049l-7.06,-5.647l-0.074,-0.068l-0.062,-0.08l-0.048,-0.088l-0.035,-0.095l-0.019,-0.099l-0.004,-0.1l0.012,-0.1l0.028,-0.097l0.042,-0.092l0.056,-0.083l0.068,-0.074l0.079,-0.063l0.088,-0.049l0.094,-0.036l0.099,-0.02l0.101,-0.004l0.1,0.011l0.097,0.027l8.787,3.175l6.806,0.397l0.104,0.014l0.1,0.032l0.094,0.047l5.737,3.499l10.016,-10.544l-0.136,-0.057l-0.253,-0.103l-0.256,-0.103l-0.257,-0.104l-0.107,-0.042l-18.732,2.384l-0.064,0.005l-0.064,-0.002l-0.837,-0.059l-0.064,-0.008l-0.062,-0.014l-12.885,-3.551l-6.708,11.835Z"/><path d="M18.35,34.526l-14.364,4.668l-3.736,17.565l11.358,1.248l0.133,-1.596l8.422,-8.208l-1.813,-13.676l0,-0.001Z" style="fill:#989898;fill-rule:nonzero;"/><path d="M18.35,34.527l1.813,13.676l-8.422,8.208l-0.133,1.596l-11.358,-1.248l3.736,-17.565l14.364,-4.668l0,0.001Zm-13.81,5.166l-3.511,16.503l9.991,1.098l0.078,-0.937l0.011,-0.076l0.02,-0.074l0.029,-0.072l0.037,-0.067l0.044,-0.062l0.052,-0.057l8.19,-7.982l-1.669,-12.588l-13.272,4.314Z"/><path d="M29.316,47.039l-8.124,2.679l-7.054,6.875l5.036,6.881l12.779,0.388l3.678,-3.603l-6.315,-13.219l0,-0.001Z" style="fill:#989898;fill-rule:nonzero;"/><path d="M29.316,47.04l6.315,13.219l-3.678,3.603l-12.779,-0.388l-5.036,-6.881l7.054,-6.875l8.124,-2.679l0,0.001Zm-7.78,3.244l-6.547,6.38l4.519,6.175l12.19,0.37l3.152,-3.088l-5.872,-12.291l-7.442,2.454Z"/><path d="M52.259,51.583l-10.434,17.32l-0.008,13.455l22.905,2.877l10.418,-4.598l-4.16,-20.913l-18.721,-8.14l0,-0.001Z" style="fill:#989898;fill-rule:nonzero;"/><path d="M52.259,51.584l18.721,8.14l4.16,20.913l-10.418,4.598l-22.905,-2.877l0.008,-13.455l10.434,-17.32l0,0.001Zm-9.789,17.498l-0.007,12.707l22.162,2.784l9.782,-4.318l-3.994,-20.074l-17.893,-7.781l-10.05,16.682Z"/><path d="M89.085,54.197l-11.258,13.429l0.069,0.427l15.658,3.338l6.196,-3.588l-10.664,-13.607l-0.001,0.001Z" style="fill:#989898;fill-rule:nonzero;"/><path d="M99.75,67.803l-6.196,3.588l-15.658,-3.338l-0.069,-0.427l11.258,-13.429l0.001,-0.001l10.664,13.607Zm-21.033,-0.235l14.728,3.14l5.339,-3.091l-9.715,-12.397l-10.352,12.348Z"/><path d="M6.736,61.661l-3.039,9.879l4.557,16.806l31.546,-4.127l0.458,-9.154l-21.686,-11.087l-11.836,-2.317l0,0Z" style="fill:#989898;fill-rule:nonzero;"/><path d="M6.736,61.661l11.836,2.317l21.686,11.087l-0.458,9.154l-31.546,4.127l-4.557,-16.806l3.039,-9.879l0,0Zm-2.368,9.891l4.361,16.081l30.454,-3.984l0.41,-8.2l-21.234,-10.856l-11.178,-2.187l-2.813,9.146Z"/><g><path d="M72.83,23.655l9.868,13.845l0.442,13.109l-5.302,-12.52l-13.699,-12.667l8.691,-1.767Z" style="fill:#a46262;fill-rule:nonzero;"/><path d="M82.698,37.5l0.442,13.109l-5.302,-12.52l-13.699,-12.667l8.691,-1.767l9.868,13.845Zm-17.196,-11.697l12.774,11.813l0.048,0.049l0.042,0.054l0.036,0.058l0.03,0.061l3.947,9.318l-0.319,-9.44l-9.512,-13.346l-7.046,1.433Z"/><path d="M58.693,58.641l9.238,5.38l3.158,11.929l-6.315,5.613l-10.601,-0.601l9.081,-6.65l0.585,-9.239l-5.146,-6.431l0,-0.001Z" style="fill:#a46262;fill-rule:nonzero;"/><path d="M67.931,64.021l3.158,11.929l-6.315,5.613l-10.601,-0.601l9.081,-6.65l0.585,-9.239l-5.146,-6.431l0,-0.001l9.238,5.38Zm-3.589,0.649l0.04,0.056l0.034,0.059l0.027,0.062l0.02,0.065l0.014,0.067l0.006,0.067l-0.001,0.068l-0.584,9.238l-0.009,0.07l-0.016,0.069l-0.023,0.067l-0.03,0.063l-0.037,0.06l-0.044,0.056l-0.049,0.05l-0.055,0.045l-7.63,5.588l8.539,0.484l5.82,-5.173l-2.988,-11.287l-6.019,-3.505l2.985,3.731Z"/></g></g></svg>