<svg width="100px" height="100px" viewBox="0 0 100 100" version="1.1" xmlns="http://www.w3.org/2000/svg" xmlns:xlink="http://www.w3.org/1999/xlink" xml:space="preserve" style="fill-rule:evenodd;clip-rule:evenodd;stroke-linejoin:round;stroke-miterlimit:1.41421;"><g><path d="M97.054,30.883c-0.969,-8.118 -24.045,-22.111 -24.045,-22.111l-10.64,-2.277l-19.022,3.073l-10.828,7.609l-7.902,7.316l-7.755,11.267l-5.707,11.56l-6.145,9.95l-2.342,9.218l-1.17,9.511l2.427,8.659c0,0 10.136,10.015 15.132,10.363c2.033,0.142 9.298,-3.647 9.298,-3.647l13.195,-13.924l13.004,-12.965l5.677,-3.606l9.282,-3.068l10.165,-3.721c0,0 10.127,-4.488 10.625,-4.795c0.499,-0.307 5.907,-5.753 5.907,-5.753l1.343,-6.636c0,0 -0.26,-4.023 -0.499,-6.023Z" style="fill:#430002;"/><path d="M58.642,4.429c-0.207,0.001 -0.415,0.003 -0.624,0.008c-10.007,0.215 -20.938,5.136 -27.888,11.887c-9.099,8.837 -19.932,23.453 -25.78,37.522c-2.924,7.034 -4.591,13.925 -4.322,19.797c0.269,5.873 2.325,10.666 7.056,14.213c3.406,2.554 6.21,2.382 9.717,0.59c3.507,-1.793 7.387,-5.491 11.369,-9.846c7.965,-8.708 16.212,-20.046 26.239,-23.403c13.398,-4.485 21.309,-7.465 26.22,-10.144c4.911,-2.679 6.807,-4.871 8.834,-8.474c1.583,-2.813 1.814,-5.652 1.091,-8.648c-0.723,-2.995 -2.47,-6.107 -4.868,-9.024c-4.798,-5.834 -12.198,-10.83 -18.15,-13.011c-2.765,-1.012 -5.779,-1.472 -8.894,-1.466l0,-0.001Zm0.741,5.261c4.599,-0.023 9.139,0.94 12.683,3.616c10.312,7.783 18.746,12.784 11.791,24.259c-6.955,11.475 -38.38,12.613 -47.174,4.349c-0.36,-2.297 -2.735,-19.829 2.207,-26.378c2.714,-2.17 11.713,-5.804 20.493,-5.847l0,0.001Zm-25.991,9.466c-0.23,0.432 -1.537,18.022 -2.256,21.453c-4.206,2.109 -15.564,4.57 -16.028,1.513c0.784,-3.611 8.044,-15.61 18.284,-22.966l0,0Zm60.3,5.692c0.259,0.714 0.479,1.437 0.656,2.167c0.91,3.773 0.593,7.788 -1.483,11.478c-2.242,3.984 -4.989,7.053 -10.367,9.986c-5.377,2.934 -13.4,5.917 -26.85,10.419c-7.997,2.677 -16.443,13.42 -24.597,22.337c-4.078,4.458 -8.114,8.458 -12.474,10.686c-1.278,0.654 -2.612,1.128 -3.972,1.392c0.657,0.375 1.332,0.723 1.987,1.025c1.76,0.81 3.588,1.229 3.729,1.233c3.043,-0.141 6.305,-1.806 9.717,-4.559c3.43,-2.768 6.952,-6.566 10.515,-10.554c7.125,-7.976 14.255,-16.81 22.647,-19.619c13.404,-4.487 21.395,-7.432 26.337,-10.092c4.943,-2.659 6.809,-4.821 8.683,-8.462c2.111,-4.101 2.221,-6.995 0.977,-10.035c-0.939,-2.295 -2.812,-4.712 -5.505,-7.402l0,0Zm-68.204,20.7c7.364,-0.041 14.981,3.632 22.7,7.826c-15.451,8.092 -30.767,39.1 -40.577,29.053c-3.947,-4.359 -4.213,-25.97 6.537,-33.297c3.696,-2.519 7.483,-3.56 11.34,-3.582l0,0Zm-7.906,15.875c-1.179,0.022 -2.368,0.384 -3.196,1.038c-2.676,2.115 -4.71,7.403 -2.43,9.94c2.18,2.427 7.689,1.261 9.698,-1.303c1.792,-2.287 1.234,-6.741 -0.937,-8.678c-0.787,-0.703 -1.956,-1.019 -3.135,-0.997l0,0Z" style="fill:#fff;fill-rule:nonzero;"/></g></svg>