<svg width="100px" height="100px" viewBox="0 0 100 100" version="1.1" xmlns="http://www.w3.org/2000/svg" xmlns:xlink="http://www.w3.org/1999/xlink" xml:space="preserve" xmlns:serif="http://www.serif.com/" style="fill-rule:evenodd;clip-rule:evenodd;stroke-linecap:round;stroke-linejoin:round;stroke-miterlimit:1.5;"><g id="SaebelZahnTiger"><path id="Schwanz" d="M48.744,16.372c0,0 4.662,-12.547 11.179,-12.054c3.14,0.238 6.711,3.501 10.398,12.651c4.673,11.593 8.353,15.535 11.062,15.542c4.49,0.013 6.313,-10.776 5.569,-15.456c-0.959,-6.031 -4.706,-15.143 -8.352,-15.253c-2.96,-0.089 -2.796,4.939 -4.289,4.663c-1.111,-0.206 0.476,-3.706 1.157,-4.729c0.602,-0.902 1.953,-1.406 2.932,-1.407c4.941,-0.004 9.664,10.896 10.281,17.128c0.484,4.882 -2.209,17.625 -7.519,17.761c-2.916,0.075 -6.621,-3.652 -11.022,-14.571c-3.953,-9.81 -7.586,-13.198 -10.642,-13.451c-5.712,-0.471 -9.406,10.015 -9.406,10.015" style="fill:#c9a741;"/><clipPath id="_clip1"><path d="M48.744,16.372c0,0 4.662,-12.547 11.179,-12.054c3.14,0.238 6.711,3.501 10.398,12.651c4.673,11.593 8.353,15.535 11.062,15.542c4.49,0.013 6.313,-10.776 5.569,-15.456c-0.959,-6.031 -4.706,-15.143 -8.352,-15.253c-2.96,-0.089 -2.796,4.939 -4.289,4.663c-1.111,-0.206 0.476,-3.706 1.157,-4.729c0.602,-0.902 1.953,-1.406 2.932,-1.407c4.941,-0.004 9.664,10.896 10.281,17.128c0.484,4.882 -2.209,17.625 -7.519,17.761c-2.916,0.075 -6.621,-3.652 -11.022,-14.571c-3.953,-9.81 -7.586,-13.198 -10.642,-13.451c-5.712,-0.471 -9.406,10.015 -9.406,10.015"/></clipPath><g clip-path="url(#_clip1)"><path d="M88.664,27.911c-0.602,-0.499 -1.171,-0.963 -2.091,-1.252c-0.877,-0.276 -4.838,-0.228 -4.195,0.653c1.354,1.856 1.182,3.985 2.353,4.138c1.609,0.21 2.8,-0.274 3.84,-0.479c0.826,-0.163 2.214,-0.942 1.895,-1.675c-0.367,-0.842 -1.115,-0.814 -1.802,-1.385Z" style="fill:#a06f06;"/><path d="M82.719,33.632c0.334,-0.587 0.393,-0.698 -0.901,-0.702c-0.52,-0.002 -0.967,0.152 -1.344,0.4c-1.177,0.775 -1.891,0.833 -1.807,1.566c0.151,1.33 -0.277,0.029 0.136,0.815c0.329,0.625 1.852,-0.468 2.464,-0.881c0.702,-0.474 1.07,-0.526 1.452,-1.198Z" style="fill:#a06f06;"/><path d="M69.818,9.41c-0.9,-0.464 -1.065,-0.951 -2.377,-1.364c-1.249,-0.393 -8.191,-0.476 -7.098,0.65c2.677,2.757 -0.698,3.117 0.353,4.062c0.983,0.884 5.214,1.265 8.445,0.229c1.137,-0.365 4.215,-1.735 3.759,-2.78c-0.524,-1.2 -2.406,-0.448 -3.082,-0.797Z" style="fill:#a06f06;"/><path d="M87.158,9.744c1.075,0.178 1.677,6.224 0.947,7.132c-0.729,0.908 -6.335,0.264 -6.681,-0.822c-0.346,-1.086 4.659,-6.488 5.734,-6.31Z" style="fill:#a06f06;"/><path d="M82.991,1.376c0.291,1.835 -1.819,2.769 -3.22,4.54c-0.89,1.127 -0.209,1.671 -1.312,2.32c-1.891,1.111 -7.065,1.455 -7.121,-0.665c-0.032,-1.17 2.217,-2.965 4.773,-4.361c0.805,-0.439 2.158,0.841 2.963,0.513c0.925,-0.377 1.352,-2.173 2.04,-2.481c0.647,-0.29 1.506,-0.134 1.877,0.134Z" style="fill:#a06f06;"/><path d="M69.769,19.298c-0.514,0.397 -1.423,1.46 -0.886,1.67c0.239,0.093 1.63,-0.448 2.548,-0.447c0.92,0 1.415,0.281 1.91,0c0.582,-0.33 3.92,-3.135 2.791,-3.585c-0.914,-0.365 -2.386,0.63 -3.727,1.313c-1.156,0.588 -2.049,0.596 -2.636,1.049Z" style="fill:#a06f06;"/><path d="M75.64,30.399c0.892,0.247 1.696,0.793 2.251,1.211c0.698,0.525 -0.257,-0.247 1.928,0.928c0.025,-1.679 -0.198,-2.297 -0.554,-3.375c-0.389,-1.173 -5.05,-7.38 -5.907,-5.338c-0.693,1.653 1.064,4.101 2.282,6.574Z" style="fill:#a06f06;"/><path d="M56.2,7.273c0.327,1.67 -1.453,5.081 -0.278,4.488c1.379,-0.696 6.285,-4.78 3.744,-5.939c-2.055,-0.938 -3.664,0.437 -3.466,1.451Z" style="fill:#a06f06;"/></g><path d="M48.744,16.372c0,0 4.662,-12.547 11.179,-12.054c3.14,0.238 6.711,3.501 10.398,12.651c4.673,11.593 8.353,15.535 11.062,15.542c4.49,0.013 6.313,-10.776 5.569,-15.456c-0.959,-6.031 -4.706,-15.143 -8.352,-15.253c-2.96,-0.089 -2.796,4.939 -4.289,4.663c-1.111,-0.206 0.476,-3.706 1.157,-4.729c0.602,-0.902 1.953,-1.406 2.932,-1.407c4.941,-0.004 9.664,10.896 10.281,17.128c0.484,4.882 -2.209,17.625 -7.519,17.761c-2.916,0.075 -6.621,-3.652 -11.022,-14.571c-3.953,-9.81 -7.586,-13.198 -10.642,-13.451c-5.712,-0.471 -9.406,10.015 -9.406,10.015" style="fill:none;stroke:#000;stroke-width:0.46px;"/><path id="Koerper" d="M39.699,68.518c-4.923,-6.603 -1.557,-44.587 3.177,-52.227c4.734,-7.639 13.665,-4.531 18.587,2.073c4.923,6.603 6.782,41.478 2.048,49.118c-4.735,7.639 -18.89,7.639 -23.812,1.036Z" style="fill:#c9a741;"/><clipPath id="_clip2"><path d="M39.699,68.518c-4.923,-6.603 -1.557,-44.587 3.177,-52.227c4.734,-7.639 13.665,-4.531 18.587,2.073c4.923,6.603 6.782,41.478 2.048,49.118c-4.735,7.639 -18.89,7.639 -23.812,1.036Z"/></clipPath><g clip-path="url(#_clip2)"><path d="M41.647,52.374c-0.797,-0.662 -1.551,-1.276 -2.771,-1.66c-1.161,-0.365 -6.409,-0.301 -5.558,0.865c1.795,2.46 1.567,5.281 3.118,5.483c2.132,0.279 3.71,-0.363 5.088,-0.634c1.094,-0.216 2.934,-1.248 2.51,-2.219c-0.486,-1.116 -1.476,-1.079 -2.387,-1.835Z" style="fill:#a06f06;"/><path d="M62.149,33.359c1.034,-0.063 2.003,-0.132 3.155,-0.686c1.097,-0.528 4.88,-4.166 3.461,-4.434c-2.992,-0.565 -4.756,-2.779 -6.026,-1.865c-1.745,1.256 -2.456,2.804 -3.275,3.945c-0.65,0.906 -1.286,2.917 -0.312,3.336c1.118,0.481 1.815,-0.224 2.997,-0.296Z" style="fill:#a06f06;"/><path d="M45.301,62.986c0.613,-1.079 0.722,-1.281 -1.652,-1.289c-0.955,-0.004 -1.774,0.279 -2.467,0.735c-2.159,1.422 -3.468,1.528 -3.315,2.873c0.277,2.44 -0.509,0.053 0.25,1.495c0.603,1.146 3.398,-0.859 4.52,-1.616c1.289,-0.87 1.964,-0.966 2.664,-2.198Z" style="fill:#a06f06;"/><path d="M56.195,46.385c1.222,0.213 1.448,0.247 0.657,-1.991c-0.319,-0.9 -0.861,-1.576 -1.523,-2.074c-2.067,-1.554 -2.608,-2.751 -3.823,-2.154c-2.204,1.083 -0.221,-0.461 -1.323,0.74c-0.876,0.954 1.953,2.91 3.044,3.711c1.254,0.921 1.571,1.523 2.968,1.768Z" style="fill:#a06f06;"/><path d="M39.473,25.148c0.297,1.204 0.358,1.425 2.086,-0.202c0.695,-0.655 1.095,-1.424 1.284,-2.231c0.588,-2.518 1.464,-3.496 0.428,-4.367c-1.88,-1.579 0.333,-0.388 -1.211,-0.912c-1.226,-0.416 -1.874,2.962 -2.167,4.283c-0.336,1.519 -0.76,2.053 -0.42,3.429Z" style="fill:#a06f06;"/><path d="M66.254,15.22c1.455,-2.559 1.711,-3.038 -3.92,-3.058c-2.265,-0.008 -4.209,0.662 -5.851,1.744c-5.122,3.373 -8.228,3.626 -7.866,6.816c0.657,5.789 -1.206,0.125 0.595,3.547c1.43,2.718 8.061,-2.037 10.722,-3.834c3.058,-2.064 4.659,-2.291 6.32,-5.215Z" style="fill:#a06f06;"/><path d="M44.501,46.591c0.143,1.334 -0.276,1.872 0.223,3.624c0.476,1.669 5.447,9.407 5.896,7.377c1.097,-4.97 3.957,-1.5 4.235,-3.352c0.261,-1.732 -2.402,-6.69 -5.905,-9.508c-1.233,-0.992 -4.992,-3.397 -5.815,-2.131c-0.947,1.454 1.259,2.988 1.366,3.99Z" style="fill:#a06f06;"/><path d="M43.77,29.788c1.424,0.236 2.221,8.246 1.255,9.449c-0.966,1.204 -8.395,0.35 -8.852,-1.089c-0.458,-1.439 6.173,-8.595 7.597,-8.36Z" style="fill:#a06f06;"/><path d="M72.038,43.85c0.385,2.431 -2.411,3.668 -4.267,6.015c-1.18,1.492 -0.277,2.214 -1.738,3.073c-2.505,1.473 -9.361,1.929 -9.436,-0.881c-0.041,-1.55 2.938,-3.928 6.325,-5.777c1.066,-0.583 2.859,1.114 3.925,0.679c1.226,-0.5 1.792,-2.878 2.704,-3.287c0.857,-0.384 1.994,-0.177 2.487,0.178Z" style="fill:#a06f06;"/><path d="M48.886,81.946c-0.514,0.397 -1.423,1.461 -0.886,1.67c0.239,0.093 1.63,-0.448 2.548,-0.447c0.92,0.001 1.415,0.281 1.91,0c0.582,-0.33 3.92,-3.135 2.791,-3.585c-0.914,-0.364 -2.385,0.631 -3.727,1.313c-1.156,0.588 -2.049,0.596 -2.636,1.049Z" style="fill:#a06f06;"/><path d="M66.02,39.928c0.257,-1.175 0.906,-2.259 1.408,-3.01c0.63,-0.944 -0.302,0.352 1.065,-2.569c-2.171,0.095 -2.954,0.431 -4.322,0.976c-1.489,0.593 -9.186,7.107 -6.487,8.062c2.183,0.771 5.225,-1.692 8.336,-3.459Z" style="fill:#a06f06;"/><path d="M47.288,31.034c1.26,2.938 -0.661,9.904 1.263,8.351c2.258,-1.822 9.654,-11.261 4.529,-12.386c-4.145,-0.91 -6.556,2.251 -5.792,4.035Z" style="fill:#a06f06;"/><path d="M55.263,59.581c-1.036,-0.503 -2.585,-0.839 -3.725,-0.782c-1.113,0.056 -4.628,0.47 -3.311,1.942c2.777,3.103 5.169,9.099 6.056,7.849c0.913,-1.288 0.099,-1.596 1.122,-2.345c0.812,-0.594 2.571,1.457 3.125,-0.18c0.459,-1.36 -1.847,-5.794 -3.267,-6.484Z" style="fill:#a06f06;"/></g><path d="M39.699,68.518c-4.923,-6.603 -1.557,-44.587 3.177,-52.227c4.734,-7.639 13.665,-4.531 18.587,2.073c4.923,6.603 6.782,41.478 2.048,49.118c-4.735,7.639 -18.89,7.639 -23.812,1.036Z" style="fill:none;stroke:#000;stroke-width:0.46px;stroke-linecap:butt;stroke-miterlimit:1.41421;"/><g id="Kopf"><path d="M40.195,88.175l-1.482,-2.498c-3.502,-5.899 -4.544,-10.416 -3.126,-13.553c-0.034,-2.421 -0.023,-5.768 0.18,-8.942c0.236,-3.662 3.734,0.606 6.369,4.396c2.124,-0.53 4.723,-0.796 7.793,-0.796l2.965,0c3.068,0 5.664,0.265 7.788,0.796c2.636,-3.792 6.137,-8.066 6.372,-4.403c0.204,3.177 0.215,6.526 0.181,8.948c1.419,3.137 0.377,7.655 -3.125,13.554l-1.483,2.498c-7.477,12.596 -14.954,12.596 -22.432,0Z" style="fill:#c9a741;"/><clipPath id="_clip3"><path d="M40.195,88.175l-1.482,-2.498c-3.502,-5.899 -4.544,-10.416 -3.126,-13.553c-0.034,-2.421 -0.023,-5.768 0.18,-8.942c0.236,-3.662 3.734,0.606 6.369,4.396c2.124,-0.53 4.723,-0.796 7.793,-0.796l2.965,0c3.068,0 5.664,0.265 7.788,0.796c2.636,-3.792 6.137,-8.066 6.372,-4.403c0.204,3.177 0.215,6.526 0.181,8.948c1.419,3.137 0.377,7.655 -3.125,13.554l-1.483,2.498c-7.477,12.596 -14.954,12.596 -22.432,0Z"/></clipPath><g clip-path="url(#_clip3)"><path d="M44.149,84.675c-0.602,-0.459 -1.171,-0.885 -2.091,-1.151c-0.877,-0.254 -4.838,-0.209 -4.195,0.6c1.354,1.706 1.182,3.664 2.353,3.805c1.609,0.193 2.8,-0.252 3.84,-0.441c0.826,-0.15 2.215,-0.866 1.895,-1.54c-0.367,-0.774 -1.115,-0.748 -1.802,-1.273Z" style="fill:#a06f06;"/><path d="M56.791,95.469c0.334,-0.541 0.393,-0.642 -0.901,-0.646c-0.52,-0.002 -0.967,0.139 -1.344,0.368c-1.177,0.712 -1.89,0.766 -1.807,1.44c0.151,1.222 -0.277,0.026 0.137,0.749c0.328,0.574 1.851,-0.43 2.463,-0.81c0.702,-0.436 1.07,-0.484 1.452,-1.101Z" style="fill:#a06f06;"/><path d="M46.456,74.094c-0.899,-0.427 -1.064,-0.875 -2.376,-1.254c-1.249,-0.362 -8.191,-0.438 -7.098,0.597c2.677,2.535 -0.698,2.866 0.353,3.735c0.983,0.812 5.214,1.163 8.445,0.21c1.137,-0.335 4.214,-1.594 3.759,-2.555c-0.524,-1.104 -2.406,-0.412 -3.083,-0.733Z" style="fill:#a06f06;"/><path d="M65.125,72.611c1.075,0.163 1.676,5.722 0.947,6.557c-0.729,0.835 -6.336,0.242 -6.681,-0.756c-0.346,-0.999 4.659,-5.965 5.734,-5.801Z" style="fill:#a06f06;"/><path d="M64.498,65.324c0.291,1.687 -1.819,2.546 -3.22,4.174c-0.89,1.036 -0.209,1.536 -1.312,2.133c-1.891,1.022 -7.065,1.338 -7.121,-0.611c-0.032,-1.076 2.216,-2.726 4.773,-4.01c0.805,-0.404 2.158,0.774 2.963,0.472c0.925,-0.347 1.352,-1.998 2.04,-2.281c0.647,-0.266 1.506,-0.123 1.877,0.123Z" style="fill:#a06f06;"/><path d="M48.886,83.347c-0.514,0.365 -1.423,1.343 -0.886,1.536c0.239,0.085 1.63,-0.412 2.548,-0.412c0.92,0.001 1.415,0.259 1.91,0.001c0.582,-0.304 3.92,-2.882 2.791,-3.296c-0.914,-0.335 -2.385,0.579 -3.727,1.207c-1.156,0.541 -2.049,0.548 -2.636,0.964Z" style="fill:#a06f06;"/><path d="M63.88,86.483c0.164,-0.71 0.589,-1.363 0.918,-1.815c0.414,-0.569 -0.198,0.212 0.693,-1.55c-1.444,0.047 -1.963,0.246 -2.871,0.569c-0.987,0.352 -6.071,4.258 -4.269,4.849c1.458,0.478 3.468,-0.998 5.529,-2.053Z" style="fill:#a06f06;"/><path d="M35.67,64.915c0.132,0.624 -0.591,1.898 -0.113,1.676c0.56,-0.26 2.553,-1.785 1.521,-2.218c-0.835,-0.35 -1.489,0.163 -1.408,0.542Z" style="fill:#a06f06;"/><path d="M48.284,92.786c-0.585,-0.113 -1.496,-0.131 -2.192,-0.035c-0.679,0.095 -2.846,0.48 -2.172,0.924c1.422,0.938 2.366,2.948 3.009,2.436c0.663,-0.527 0.195,-0.584 0.878,-0.923c0.543,-0.269 1.436,0.355 1.91,-0.274c0.393,-0.523 -0.63,-1.974 -1.433,-2.128Z" style="fill:#a06f06;"/></g><path d="M40.195,88.175l-1.482,-2.498c-3.502,-5.899 -4.544,-10.416 -3.126,-13.553c-0.034,-2.421 -0.023,-5.768 0.18,-8.942c0.236,-3.662 3.734,0.606 6.369,4.396c2.124,-0.53 4.723,-0.796 7.793,-0.796l2.965,0c3.068,0 5.664,0.265 7.788,0.796c2.636,-3.792 6.137,-8.066 6.372,-4.403c0.204,3.177 0.215,6.526 0.181,8.948c1.419,3.137 0.377,7.655 -3.125,13.554l-1.483,2.498c-7.477,12.596 -14.954,12.596 -22.432,0Z" style="fill:none;stroke:#000;stroke-width:0.46px;stroke-linecap:butt;stroke-miterlimit:1.41421;"/><g id="Nase"><path d="M52.674,89.251c-0.443,0.871 -0.227,2.5 -0.735,2.884c-0.292,0.221 -0.469,0.15 -0.666,0.009c-0.401,-0.287 -0.141,-1.847 -0.69,-2.799l-1.259,-0.519c-2.023,-0.309 -4.24,-1.407 -1.798,-2.32c0.449,-0.167 1.075,-0.413 2.197,0.278l1.785,0.196l1.883,-0.157c1.903,-0.462 1.598,-0.258 2.091,-0.145c2.21,0.503 1.159,1.678 -1.552,2.113l-1.256,0.46Z" style="fill:#311004;fill-rule:nonzero;"/><path d="M56.242,87.479c0,0.225 -1.472,0.762 -1.828,0.762c-0.356,0 0.027,-0.878 0.027,-1.103c0,-0.225 0.321,-0.312 0.677,-0.312c0.356,0 1.124,0.428 1.124,0.653Z" style="fill-rule:nonzero;"/><path d="M47.182,87.479c0,0.225 1.472,0.762 1.828,0.762c0.356,0 -0.027,-0.878 -0.027,-1.103c0,-0.225 -0.32,-0.312 -0.676,-0.312c-0.356,0 -1.125,0.428 -1.125,0.653Z" style="fill-rule:nonzero;"/></g><g id="Zaehne"><path d="M58.398,99.301c0,0 -0.335,-3.318 -1.128,-4.187c-0.405,-0.445 0.097,-0.788 0.646,-1.291c0.45,-0.412 0.943,-1.139 1.206,-1.107c0.089,0.011 0.152,0.33 0.178,0.481c0.609,3.601 -0.902,6.104 -0.902,6.104Z" style="fill:#fffed5;fill-rule:nonzero;stroke:#6d6d6d;stroke-width:0.26px;stroke-linecap:butt;stroke-linejoin:miter;stroke-miterlimit:4;"/><path d="M44.425,99.301c0,0 0.335,-3.317 1.128,-4.187c0.405,-0.445 -0.097,-0.788 -0.646,-1.291c-0.451,-0.412 -0.943,-1.139 -1.206,-1.107c-0.089,0.011 -0.152,0.33 -0.178,0.481c-0.609,3.601 0.902,6.104 0.902,6.104Z" style="fill:#fffed5;fill-rule:nonzero;stroke:#6d6d6d;stroke-width:0.24px;stroke-linecap:butt;stroke-linejoin:miter;stroke-miterlimit:4;"/></g><g id="Ohren"><path d="M37.191,63.969c0.052,-0.145 0.123,-0.097 0.218,-0.068c0.712,0.216 2.548,3.095 2.671,3.461c0.055,0.168 0.063,0.327 -0.015,0.464c-0.279,0.499 -2.244,1.14 -2.521,1.049c-0.107,-0.035 -0.193,-0.141 -0.261,-0.298c-0.465,-1.081 -0.176,-4.369 -0.092,-4.608Z" style="fill:#fffed5;fill-rule:nonzero;"/><path d="M65.632,63.969c-0.052,-0.145 -0.123,-0.097 -0.218,-0.068c-0.712,0.216 -2.548,3.095 -2.67,3.461c-0.056,0.168 -0.064,0.326 0.014,0.464c0.279,0.499 2.244,1.14 2.521,1.049c0.107,-0.035 0.193,-0.141 0.261,-0.298c0.465,-1.081 0.176,-4.37 0.092,-4.608Z" style="fill:#fffed5;fill-rule:nonzero;"/></g><g id="Augen"><g><path d="M55.095,80.056c0,0 1.456,-1.711 2.503,-1.987c1.364,-0.361 4.09,-2.334 4.098,-2.328c0.055,0.047 -0.431,0.548 -0.428,0.556c0.068,0.182 0.915,2.305 0.332,3.153c-0.607,0.884 -6.505,0.606 -6.505,0.606Z" style="fill:#fff8f8;stroke:#000;stroke-width:0.6px;"/><path d="M56.647,78.584c0.934,-0.642 0.846,-0.434 1.511,-0.722c0.834,-0.374 1.704,-0.873 2.161,-1.179c0.867,1.704 -0.24,3.257 -1.22,3.338c-0.583,0.048 -1.994,-0.644 -2.452,-1.437Z" style="fill:url(#_Radial4);stroke:#000;stroke-width:0.56px;"/><ellipse cx="58.919" cy="78.451" rx="0.543" ry="0.916" style="fill:#fff;stroke:#000;stroke-width:0.56px;"/></g><g><path d="M47.727,80.056c0,0 -1.455,-1.711 -2.503,-1.987c-1.363,-0.361 -4.089,-2.334 -4.097,-2.328c-0.055,0.047 0.43,0.548 0.428,0.556c-0.069,0.182 -0.915,2.305 -0.333,3.153c0.608,0.884 6.505,0.606 6.505,0.606Z" style="fill:#fff8f8;stroke:#000;stroke-width:0.6px;"/><path d="M46.176,78.584c-0.935,-0.642 -0.847,-0.434 -1.511,-0.722c-0.834,-0.374 -1.704,-0.873 -2.161,-1.179c-0.868,1.704 0.24,3.257 1.219,3.338c0.584,0.048 1.995,-0.644 2.453,-1.437Z" style="fill:url(#_Radial5);stroke:#000;stroke-width:0.56px;"/><ellipse cx="43.904" cy="78.451" rx="0.543" ry="0.916" style="fill:#fff;stroke:#000;stroke-width:0.56px;"/></g></g></g></g><defs><radialGradient id="_Radial4" cx="0" cy="0" r="1" gradientUnits="userSpaceOnUse" gradientTransform="matrix(-1.31589,-0.931866,-0.962878,0.989136,58.8584,79.8046)"><stop offset="0" style="stop-color:#e8d3b1;stop-opacity:1"/><stop offset="1" style="stop-color:#a9721b;stop-opacity:1"/></radialGradient><radialGradient id="_Radial5" cx="0" cy="0" r="1" gradientUnits="userSpaceOnUse" gradientTransform="matrix(1.31589,-0.931866,0.962878,0.989136,43.9643,79.8046)"><stop offset="0" style="stop-color:#e8d3b1;stop-opacity:1"/><stop offset="1" style="stop-color:#a9721b;stop-opacity:1"/></radialGradient></defs></svg>