<svg width="100px" height="100px" viewBox="0 0 100 100" version="1.1" xmlns="http://www.w3.org/2000/svg" xmlns:xlink="http://www.w3.org/1999/xlink" xml:space="preserve" style="fill-rule:evenodd;clip-rule:evenodd;stroke-linejoin:round;stroke-miterlimit:1.41421;"><g><path d="M33.204,0.15c-6.062,0.005 -12.946,3.433 -18.039,11.57c14.844,-5.114 14.662,4.001 27.271,7.75c2.682,3.826 4.513,8.618 5.758,15.147c0.222,1.917 0.299,3.971 0.314,6.099c0.033,4.935 -0.365,10.22 -0.645,14.624l0,0.001c-0.085,1.465 0.624,3.772 1.947,6.159c0.576,1.04 1.269,2.093 2.01,3.126c0.618,-12.436 0.219,-23.729 2.364,-33.861c1.494,-4.071 3.508,-7.49 6.048,-10.31c14.179,-3.105 12.405,-12.272 29.567,-6.95c-6.839,-8.181 -15.14,-11.556 -21.888,-11.435c-9.211,0.165 -15.525,6.844 -11.273,16.707c-2.391,2.859 -4.35,6.188 -5.846,9.984c-1.148,-4.018 -2.637,-7.448 -4.52,-10.425c3.014,-10.757 -4.132,-18.193 -13.068,-18.186l0,0Z" style="fill:#036e0f;fill-rule:nonzero;stroke:#000;stroke-width:0.19px;"/><path d="M40.594,35.79l-15.834,0.371l-14.559,19.924l15.582,16.756l11.097,-5.838l-11.87,7.866l-13.98,-14.688l10.371,21.928l23.158,6.044l-22.141,-3.408l2.464,5.134l35.031,9.971l26.812,-14.867l0,-0.002l-6.644,-9.463l-19.887,8.886l20.469,-12.663l6.348,9.835l0.243,-20.11l-13.957,-16.412l-11.671,-2.645l-5.119,7.645l1.523,8.531c0,0 -4.097,6.057 -4.341,9.575l5.126,6.368l-6.276,8.619l3.513,7.979l-5.841,-7.892l5.177,-7.773l-2.327,-3.262l-4.328,-7.456c0,0 -6.144,-4.104 -6.519,-5.975l-1.857,-8.635l3.217,-8.394l0.116,-0.01l-3.096,-5.939l0,0Z" style="fill:#471f0c;fill-rule:nonzero;stroke:#000;stroke-width:0.19px;"/></g></svg>