<svg width="100px" height="100px" viewBox="0 0 100 100" version="1.1" xmlns="http://www.w3.org/2000/svg" xmlns:xlink="http://www.w3.org/1999/xlink" xml:space="preserve" xmlns:serif="http://www.serif.com/" style="fill-rule:evenodd;clip-rule:evenodd;"><g><g><path d="M-67.624,168.211c2.052,2.053 5.385,2.053 7.438,0l130.161,-130.161c2.053,-2.053 2.053,-5.386 0,-7.439c-2.053,-2.052 -5.385,-2.052 -7.438,0l-130.161,130.161c-2.053,2.053 -2.053,5.386 0,7.439Z" style="fill:url(#_Radial1);stroke:#000;stroke-width:0.65px;"/></g><g><path d="M93.208,8.494l-1.764,-1.371l-41.426,36.362c1.445,0.816 3.86,2.716 4.951,4.453l38.239,-39.444Z" style="fill:#227cfe;"/><path d="M37.301,40.319c6.043,0.31 11.011,1.836 14.843,4.628c14.907,-14.364 38.419,-36.816 39.918,-36.752c-0.062,1.429 -24.281,23.097 -38.861,37.701c3.343,3.458 6.99,9.506 7.889,15.67c5.75,-8.559 8.476,-15.834 10.381,-24.095c1.401,2.586 2.377,5.679 2.896,9.239c5.626,-8.373 8.107,-15.434 9.905,-23.615c1.194,2.2 2.099,4.76 2.541,7.79c6.497,-9.67 8.061,-17.205 9.94,-27.981l-0.004,0c-11.643,1.912 -19.259,4.327 -28.788,11.141c3.077,0.158 5.726,0.741 8.089,1.704c-8.61,2.12 -15.701,5.167 -23.953,11.068c3.581,0.184 6.747,0.847 9.507,1.957c-8.617,2.26 -15.902,5.538 -24.303,11.545l0,0Z" style="fill:#131313;fill-rule:nonzero;"/><g><path d="M68.439,13.96c1.481,0.076 8.682,-3.373 13.031,-5.036c4.665,-1.784 14.955,-5.668 14.955,-5.668c-9.889,1.929 -20.031,5.324 -27.986,10.704Z" style="fill:#227cfe;fill-opacity:0.75;fill-rule:nonzero;"/><path d="M86.824,30.489c-0.076,-1.48 2.812,-8.396 4.284,-12.571c1.6,-4.539 5.317,-14.662 5.317,-14.662c-2.005,9.697 -4.256,19.095 -9.601,27.233Z" style="fill:#227cfe;fill-opacity:0.75;fill-rule:nonzero;"/><path d="M54.229,26.202c1.481,0.076 6.831,-3.233 10.302,-4.723c3.697,-1.587 11.879,-4.8 11.879,-4.8c-9.888,1.929 -14.226,4.144 -22.181,9.523Z" style="fill:#227cfe;fill-opacity:0.75;fill-rule:nonzero;"/><path d="M38.921,39.936c1.481,0.076 7.876,-3.67 11.671,-5.368c3.683,-1.649 11.1,-4.824 11.1,-4.824c-9.888,1.929 -14.817,4.813 -22.771,10.192Z" style="fill:#227cfe;fill-opacity:0.75;fill-rule:nonzero;"/><path d="M61.159,60.074c-0.076,-1.48 2.901,-6.956 4.33,-10.443c1.594,-3.89 5.233,-12.895 5.233,-12.895c-1.929,9.889 -4.183,15.384 -9.563,23.338Z" style="fill:#227cfe;fill-opacity:0.75;fill-rule:nonzero;"/><path d="M74.483,45.349c-0.076,-1.481 2.355,-5.913 3.53,-8.87c1.533,-3.857 5.663,-14.269 5.663,-14.269c-2.004,9.697 -3.848,15.001 -9.193,23.139Z" style="fill:#227cfe;fill-opacity:0.75;fill-rule:nonzero;"/></g></g><path d="M37.327,56.845c0.015,3.481 2.823,6.268 6.304,6.252c2.572,-0.011 4.64,-1.629 5.604,-3.836c-4.453,-0.203 -7.793,-3.463 -7.863,-7.956c-2.32,0.929 -4.057,2.879 -4.045,5.54l0,0Z" style="fill:url(#_Radial2);fill-rule:nonzero;"/><path d="M43.473,50.879c0.016,3.481 2.827,6.268 6.308,6.252c2.893,-0.013 5.302,-1.957 6.027,-4.611c-4.109,-0.33 -7.411,-3.603 -7.778,-7.708c-2.647,0.748 -4.57,3.174 -4.557,6.066l0,0.001Z" style="fill:url(#_Radial3);fill-rule:nonzero;"/><g><path d="M74.922,46.62c-7.235,5.106 -13.466,8.747 -13.905,8.125c-0.439,-0.622 5.079,-5.273 12.314,-10.379c7.235,-5.107 13.466,-8.747 13.905,-8.125c0.439,0.622 -5.079,5.273 -12.314,10.379Z" style="fill:url(#_Radial4);"/><path d="M73.576,46.758c-8.641,-3.762 -15.41,-7.382 -15.107,-8.081c0.304,-0.698 7.567,1.789 16.208,5.551c8.641,3.761 15.41,7.382 15.107,8.08c-0.304,0.698 -7.567,-1.789 -16.208,-5.55Z" style="fill:url(#_Radial5);"/></g></g><defs><radialGradient id="_Radial1" cx="0" cy="0" r="1" gradientUnits="userSpaceOnUse" gradientTransform="matrix(-152.105,152.105,-7.43892,-7.43892,19.7413,80.8445)"><stop offset="0" style="stop-color:#582308;stop-opacity:1"/><stop offset="1" style="stop-color:#000;stop-opacity:1"/></radialGradient><radialGradient id="_Radial2" cx="0" cy="0" r="1" gradientUnits="userSpaceOnUse" gradientTransform="matrix(6.70401,0,0,6.70401,43.2768,57.1977)"><stop offset="0" style="stop-color:#227cfe;stop-opacity:1"/><stop offset="0.44" style="stop-color:#162944;stop-opacity:1"/><stop offset="1" style="stop-color:#131313;stop-opacity:1"/></radialGradient><radialGradient id="_Radial3" cx="0" cy="0" r="1" gradientUnits="userSpaceOnUse" gradientTransform="matrix(7.49475,0,0,7.49475,50.5572,50.0624)"><stop offset="0" style="stop-color:#227cfe;stop-opacity:1"/><stop offset="0.2" style="stop-color:#1c529f;stop-opacity:1"/><stop offset="0.41" style="stop-color:#16273f;stop-opacity:1"/><stop offset="1" style="stop-color:#131313;stop-opacity:1"/></radialGradient><radialGradient id="_Radial4" cx="0" cy="0" r="1" gradientUnits="userSpaceOnUse" gradientTransform="matrix(-13.1093,9.25186,-0.795505,-1.12718,74.1265,45.4929)"><stop offset="0" style="stop-color:#227cfe;stop-opacity:1"/><stop offset="1" style="stop-color:#227cfe;stop-opacity:0"/></radialGradient><radialGradient id="_Radial5" cx="0" cy="0" r="1" gradientUnits="userSpaceOnUse" gradientTransform="matrix(-15.657,-6.8154,0.550635,-1.26498,74.1265,45.4929)"><stop offset="0" style="stop-color:#227cfe;stop-opacity:1"/><stop offset="1" style="stop-color:#227cfe;stop-opacity:0"/></radialGradient></defs></svg>