<svg width="100px" height="100px" viewBox="0 0 100 100" version="1.1" xmlns="http://www.w3.org/2000/svg"  xml:space="preserve"  style="fill-rule:evenodd;clip-rule:evenodd;"><g><g><path d="M50.136,99.711c1.241,0 2.249,-1.007 2.249,-2.249l0,-78.71c0,-1.242 -1.008,-2.249 -2.249,-2.249c-1.242,0 -2.249,1.007 -2.249,2.249l0,78.71c0,1.242 1.007,2.249 2.249,2.249Z" style="fill:url(#_Radial1);stroke:#000;stroke-width:0.28px;"/></g><g><path d="M50.473,2.791l-0.948,0.118l-1.531,23.52c0.683,-0.19 1.988,-0.345 2.843,-0.15l-0.364,-23.488Z" style="fill:#227cfe;"/><path d="M43.192,29.317c1.921,-1.733 3.884,-2.774 5.887,-3.088c0.164,-8.851 0.484,-22.748 0.957,-23.182c0.413,0.451 -0.358,14.325 -0.351,23.149c2.057,0.035 4.988,0.761 7.123,2.353c-0.848,-4.327 -2.224,-7.351 -4.146,-10.424c1.206,0.358 2.436,0.998 3.669,1.917c-0.83,-4.232 -2.215,-7.118 -4.145,-10.135c1.026,0.305 2.074,0.805 3.124,1.588c-0.96,-4.889 -2.765,-7.64 -5.455,-11.466l-0.001,0.001c-2.943,4.098 -4.515,7.131 -5.336,12.073c0.978,-0.883 1.955,-1.507 2.961,-1.931c-1.963,3.244 -3.185,6.31 -3.896,10.589c1.138,-1.027 2.296,-1.784 3.466,-2.283c-1.922,3.289 -3.134,6.483 -3.857,10.839l0,0Z" style="fill:#131313;fill-rule:nonzero;"/><g><path d="M44.637,11.932c0.47,-0.424 1.605,-3.644 2.417,-5.462c0.871,-1.95 2.808,-6.236 2.808,-6.236c-2.407,3.574 -4.447,7.667 -5.225,11.698Z" style="fill:#227cfe;fill-opacity:0.75;fill-rule:nonzero;"/><path d="M55.193,11.372c-0.471,-0.425 -1.688,-3.389 -2.506,-5.097c-0.888,-1.856 -2.825,-6.041 -2.825,-6.041c2.326,3.539 4.487,7.061 5.331,11.138Z" style="fill:#227cfe;fill-opacity:0.75;fill-rule:nonzero;"/><path d="M44.042,19.931c0.47,-0.425 1.087,-3.043 1.686,-4.543c0.638,-1.598 2.141,-5.043 2.141,-5.043c-2.407,3.573 -3.049,5.554 -3.827,9.586Z" style="fill:#227cfe;fill-opacity:0.75;fill-rule:nonzero;"/><path d="M43.566,28.712c0.47,-0.425 1.272,-3.491 1.905,-5.152c0.615,-1.612 1.898,-4.815 1.898,-4.815c-2.407,3.573 -3.025,5.935 -3.803,9.967Z" style="fill:#227cfe;fill-opacity:0.75;fill-rule:nonzero;"/><path d="M56.379,28.077c-0.471,-0.425 -1.227,-2.981 -1.849,-4.467c-0.694,-1.658 -2.316,-5.481 -2.316,-5.481c2.406,3.573 3.386,5.916 4.165,9.948Z" style="fill:#227cfe;fill-opacity:0.75;fill-rule:nonzero;"/><path d="M55.955,19.596c-0.471,-0.425 -1.076,-2.5 -1.615,-3.75c-0.703,-1.629 -2.602,-6.026 -2.602,-6.026c2.326,3.538 3.372,5.699 4.217,9.776Z" style="fill:#227cfe;fill-opacity:0.75;fill-rule:nonzero;"/></g></g><path d="M48.196,34.306c1.057,1.048 2.749,1.042 3.797,-0.015c0.774,-0.782 0.91,-1.896 0.534,-2.855c-1.408,1.285 -3.403,1.309 -4.783,-0.028c-0.42,0.982 -0.356,2.097 0.452,2.898l0,0Z" style="fill:url(#_Radial2);fill-rule:nonzero;"/><path d="M48.251,30.644c1.057,1.048 2.749,1.04 3.797,-0.017c0.871,-0.878 1.012,-2.195 0.428,-3.216c-1.342,1.142 -3.33,1.151 -4.682,0.021c-0.574,1.026 -0.422,2.341 0.457,3.212l0,0Z" style="fill:url(#_Radial3);fill-rule:nonzero;"/><g><path d="M56.472,19.847c-0.644,3.732 -1.427,6.717 -1.748,6.661c-0.321,-0.055 -0.059,-3.13 0.585,-6.861c0.644,-3.732 1.427,-6.716 1.748,-6.661c0.321,0.055 0.059,3.13 -0.585,6.861Z" style="fill:url(#_Radial4);"/><path d="M56.106,20.296c-3.75,1.476 -6.891,2.427 -7.01,2.125c-0.119,-0.303 2.828,-1.747 6.579,-3.223c3.75,-1.475 6.891,-2.427 7.01,-2.124c0.119,0.303 -2.828,1.747 -6.579,3.222Z" style="fill:url(#_Radial5);"/></g></g><defs><radialGradient id="_Radial1" cx="0" cy="0" r="1" gradientUnits="userSpaceOnUse" gradientTransform="matrix(0,91.9805,-4.49844,0,50.1355,46.8798)"><stop offset="0" style="stop-color:#582308;stop-opacity:1"/><stop offset="1" style="stop-color:#000;stop-opacity:1"/></radialGradient><radialGradient id="_Radial2" cx="0" cy="0" r="1" gradientUnits="userSpaceOnUse" gradientTransform="matrix(2.86663,0,0,2.86663,50.1019,32.6139)"><stop offset="0" style="stop-color:#227cfe;stop-opacity:1"/><stop offset="0.44" style="stop-color:#162944;stop-opacity:1"/><stop offset="1" style="stop-color:#131313;stop-opacity:1"/></radialGradient><radialGradient id="_Radial3" cx="0" cy="0" r="1" gradientUnits="userSpaceOnUse" gradientTransform="matrix(3.20475,0,0,3.20475,50.1458,28.2551)"><stop offset="0" style="stop-color:#227cfe;stop-opacity:1"/><stop offset="0.2" style="stop-color:#1c529f;stop-opacity:1"/><stop offset="0.41" style="stop-color:#16273f;stop-opacity:1"/><stop offset="1" style="stop-color:#131313;stop-opacity:1"/></radialGradient><radialGradient id="_Radial4" cx="0" cy="0" r="1" gradientUnits="userSpaceOnUse" gradientTransform="matrix(-1.16633,6.76108,-0.581339,-0.100284,55.8905,19.7472)"><stop offset="0" style="stop-color:#227cfe;stop-opacity:1"/><stop offset="1" style="stop-color:#227cfe;stop-opacity:0"/></radialGradient><radialGradient id="_Radial5" cx="0" cy="0" r="1" gradientUnits="userSpaceOnUse" gradientTransform="matrix(-6.79472,2.67334,-0.215986,-0.548964,55.8905,19.7472)"><stop offset="0" style="stop-color:#227cfe;stop-opacity:1"/><stop offset="1" style="stop-color:#227cfe;stop-opacity:0"/></radialGradient></defs></svg>