<svg width="100px" height="100px" viewBox="0 0 100 100" version="1.1" xmlns="http://www.w3.org/2000/svg"  xml:space="preserve"  style="fill-rule:evenodd;clip-rule:evenodd;"><path d="M50.052,99.822c1.243,0 2.252,-1.009 2.252,-2.252l0,-78.814c0,-1.243 -1.009,-2.252 -2.252,-2.252c-1.243,0 -2.252,1.009 -2.252,2.252l0,78.814c0,1.243 1.009,2.252 2.252,2.252Z" style="fill:url(#_Radial1);stroke:#000;stroke-width:0.28px;"/><path d="M41.502,19.49l1.49,1.233l6.976,-13.087l7.069,13.04l1.543,-1.34l-8.644,-19.287l-8.434,19.441Zm3.034,0.466l5.184,-3.227l0.29,-0.18l0.291,0.179l5.178,3.176l-5.511,-12.268l-5.432,12.32l0,0Z" style="fill:url(#_Radial2);fill-rule:nonzero;"/><path d="M48.11,25.241c1.058,1.049 2.752,1.043 3.801,-0.016c0.776,-0.782 0.912,-1.898 0.536,-2.858c-1.41,1.287 -3.408,1.311 -4.79,-0.028c-0.421,0.983 -0.356,2.1 0.453,2.902l0,0Z" style="fill:url(#_Radial3);fill-rule:nonzero;"/><path d="M48.164,21.574c1.059,1.049 2.754,1.041 3.803,-0.017c0.872,-0.88 1.013,-2.198 0.429,-3.221c-1.344,1.144 -3.335,1.153 -4.689,0.021c-0.575,1.028 -0.422,2.345 0.457,3.217l0,0Z" style="fill:url(#_Radial4);fill-rule:nonzero;"/><defs><radialGradient id="_Radial1" cx="0" cy="0" r="1" gradientUnits="userSpaceOnUse" gradientTransform="matrix(0,92.1014,-4.50435,0,50.0518,46.9209)"><stop offset="0" style="stop-color:#582308;stop-opacity:1"/><stop offset="1" style="stop-color:#000;stop-opacity:1"/></radialGradient><radialGradient id="_Radial2" cx="0" cy="0" r="1" gradientUnits="userSpaceOnUse" gradientTransform="matrix(0,-14.77,8.79522,0,49.9915,16.5519)"><stop offset="0" style="stop-color:#999;stop-opacity:1"/><stop offset="0.27" style="stop-color:#c67128;stop-opacity:1"/><stop offset="0.59" style="stop-color:#d36507;stop-opacity:1"/><stop offset="0.8" style="stop-color:#d36507;stop-opacity:1"/><stop offset="1" style="stop-color:#a14d05;stop-opacity:1"/></radialGradient><radialGradient id="_Radial3" cx="0" cy="0" r="1" gradientUnits="userSpaceOnUse" gradientTransform="matrix(-2.13602,-2.13602,1.62428,-1.62428,49.9638,23.3287)"><stop offset="0" style="stop-color:#999;stop-opacity:1"/><stop offset="0.74" style="stop-color:#d36507;stop-opacity:1"/><stop offset="1" style="stop-color:#d36507;stop-opacity:1"/></radialGradient><radialGradient id="_Radial4" cx="0" cy="0" r="1" gradientUnits="userSpaceOnUse" gradientTransform="matrix(-1.80543,-1.80543,1.68993,-1.68993,49.9707,19.2127)"><stop offset="0" style="stop-color:#999;stop-opacity:1"/><stop offset="0.74" style="stop-color:#d36507;stop-opacity:1"/><stop offset="1" style="stop-color:#d36507;stop-opacity:1"/></radialGradient></defs></svg>