<svg width="100px" height="100px" viewBox="0 0 100 100" version="1.1" xmlns="http://www.w3.org/2000/svg" xmlns:xlink="http://www.w3.org/1999/xlink" xml:space="preserve" xmlns:serif="http://www.serif.com/" style="fill-rule:evenodd;clip-rule:evenodd;"><g><g><path d="M66.229,93.003l0.491,-6.737l0.751,3.084c0.227,-1.688 0.269,-3.906 0.078,-6.784l-2.702,-5.584l2.401,2.516c-0.256,-1.664 -0.722,-3.504 -1.373,-5.356l-3.466,-2.352l2.895,0.847c-0.759,-1.871 -1.699,-3.71 -2.792,-5.347c-1.153,-1.727 -2.477,-3.233 -3.967,-4.295l1.735,-1.253c-1.298,-0.068 -2.588,-0.159 -3.994,0.062c-0.088,-0.031 -0.177,-0.059 -0.265,-0.086l1.354,-1.766c-1.332,0.263 -2.648,0.607 -3.86,1.467c-0.07,0.005 -0.138,0.013 -0.208,0.02c-1.716,-1.436 -3.52,-2.695 -5.445,-3.813l-0.593,1.022c1.599,0.928 3.11,1.954 4.554,3.102c-0.004,0.001 -0.008,0.003 -0.012,0.004c8.281,6.064 12.676,14.346 12.889,24.156l-0.581,-0.276c-0.19,-8.778 -3.776,-16.2 -10.692,-21.906c-0.405,1.071 -1.266,2.47 -1.383,3.534l3.508,1.632l-3.579,-0.446c-0.007,0.729 0.059,1.431 0.195,2.084l3.034,-0.269l-2.787,1.177c0.209,0.614 0.489,1.168 0.845,1.638c2.149,2.843 4.246,5.774 5.208,10.353l1.971,-2.353l-1.671,4.113c0.019,0.145 0.039,0.29 0.056,0.438c0.074,0.641 0.209,1.287 0.391,1.921l1.331,-2.86l-0.601,4.818c0.217,0.471 0.456,0.923 0.712,1.347c0.918,1.514 2.016,2.708 3.309,3.002c0.646,0.147 1.361,-0.004 1.907,-0.481c0.127,-0.11 0.245,-0.235 0.357,-0.373l-0.001,0Z" style="fill:url(#_Radial1);fill-rule:nonzero;"/><g><path d="M42.353,30.295l54.438,-27.659l-38.299,38.226l-16.139,-10.567Z" style="fill:#c6c6c6;"/><path d="M69.759,57.485l27.032,-54.849l-38.299,38.226l11.267,16.623Z" style="fill:#ddd;"/><path d="M69.759,57.485l-11.267,-16.623l-16.139,-10.567l-0.265,22.927l4.848,4.811l22.823,-0.548Z" style="fill:#b2b2b2;"/></g><path d="M-137.645,239.117c2.945,2.922 7.607,3.006 10.404,0.186l177.385,-178.788c2.798,-2.819 2.678,-7.48 -0.268,-10.403c-2.945,-2.922 -7.607,-3.005 -10.405,-0.186l-177.384,178.788c-2.798,2.82 -2.678,7.481 0.268,10.403Z" style="fill:url(#_Radial2);stroke:#000;stroke-width:0.91px;"/></g></g><defs><radialGradient id="_Radial1" cx="0" cy="0" r="1" gradientUnits="userSpaceOnUse" gradientTransform="matrix(-19.5001,-1.31896,1.34245,-19.8474,60.5597,74.0926)"><stop offset="0" style="stop-color:#7d7d7d;stop-opacity:1"/><stop offset="1" style="stop-color:#111;stop-opacity:1"/></radialGradient><radialGradient id="_Radial2" cx="0" cy="0" r="1" gradientUnits="userSpaceOnUse" gradientTransform="matrix(-207.29,208.93,-10.6737,-10.5899,-18.5827,119.112)"><stop offset="0" style="stop-color:#582308;stop-opacity:1"/><stop offset="1" style="stop-color:#000;stop-opacity:1"/></radialGradient></defs></svg>