<svg width="100px" height="100px" viewBox="0 0 100 100" version="1.1" xmlns="http://www.w3.org/2000/svg" xmlns:xlink="http://www.w3.org/1999/xlink" xml:space="preserve" xmlns:serif="http://www.serif.com/" style="fill-rule:evenodd;clip-rule:evenodd;"><g><g><path d="M-166.373,265.927c3.282,3.282 8.61,3.282 11.891,0l208.084,-208.084c3.282,-3.282 3.282,-8.61 0,-11.892c-3.281,-3.281 -8.609,-3.281 -11.891,0l-208.084,208.085c-3.282,3.281 -3.282,8.609 0,11.891Z" style="fill:url(#_Radial1);stroke:#000;stroke-width:1.05px;"/><g><path d="M36.951,51.853c0.012,0.425 0.07,0.875 0.171,1.345c0.407,1.882 1.568,4.019 3.4,5.852c1.833,1.832 3.966,2.993 5.848,3.399c1.882,0.406 3.426,0.078 4.395,-0.891c0.096,-0.097 0.185,-0.202 0.269,-0.31c-3.363,-0.504 -6.314,-1.994 -8.553,-4.234c-2.213,-2.216 -3.694,-5.124 -4.215,-8.44c-0.089,0.072 -0.174,0.148 -0.256,0.23c-0.726,0.726 -1.093,1.776 -1.058,3.049l-0.001,0Z" style="fill:#a49574;fill-rule:nonzero;"/><path d="M34.545,54.26c0.011,0.424 0.069,0.874 0.17,1.345c0.407,1.882 1.568,4.019 3.4,5.852c1.833,1.832 3.966,2.993 5.848,3.399c1.883,0.406 3.426,0.078 4.395,-0.892c0.096,-0.096 0.185,-0.201 0.269,-0.309c-3.363,-0.504 -6.313,-1.994 -8.553,-4.235c-2.213,-2.215 -3.694,-5.123 -4.214,-8.439c-0.09,0.072 -0.175,0.148 -0.256,0.229c-0.727,0.727 -1.094,1.777 -1.059,3.05l0,0Z" style="fill:#a49574;fill-rule:nonzero;"/><path d="M39.511,39.934c0.027,5.948 1.821,11.742 5.451,15.375c0.05,0.05 -0.061,1.26 0.428,1.639c1.898,1.471 1.902,1.465 2.627,1.908c4.829,2.954 12.187,2.619 19.213,0.693c0.511,-5.934 3.952,-11.858 10.778,-14.053c-1.037,-7.325 4.321,-19.415 10.453,-20.698c3.007,-6.501 5.429,-13.762 7.337,-20.453c-5.836,1.843 -13.194,3.966 -19.031,6.624c-3.498,5.618 -10.22,8.086 -17.301,7.586c-4.898,6.563 -11.31,11.418 -18.324,12.166c-1.13,3.219 -1.645,6.314 -1.631,9.213l0,0Z" style="fill:#8c8c8c;fill-rule:nonzero;"/><path d="M37.975,40.343c0.029,6.272 2.386,11.669 6.214,15.5c0.385,0.384 0.786,0.751 1.201,1.105c2,-3.849 4.559,-6.403 7.388,-7.946c3.328,-1.815 6.931,-2.227 10.3,-2.086l-0.134,3.207c-3.014,-0.127 -5.981,0.248 -8.632,1.694c-2.349,1.281 -4.515,3.41 -6.295,7.039c5.093,3.115 11.78,4.203 19.189,2.172c0.54,-6.258 4.168,-12.505 11.367,-14.819c-1.094,-7.725 4.556,-20.475 11.023,-21.828c3.17,-6.855 5.725,-14.512 7.737,-21.569c-6.155,1.944 -13.914,4.183 -20.068,6.986c-3.69,5.925 -10.778,8.528 -18.246,8c-5.165,6.92 -11.927,12.041 -19.323,12.83c-1.192,3.394 -1.735,6.658 -1.721,9.715l0,0Zm7.807,1.635c9.014,-1.766 14.784,-10.065 16.079,-17.264l3.153,0.568c-0.343,1.903 -0.945,3.856 -1.791,5.764c3.365,1.189 7.077,-0.23 10.294,-3.389c3.431,-3.369 5.989,-8.649 6.171,-13.913l3.206,0.113c-0.214,6.203 -3.09,12.122 -7.13,16.09c-0.172,0.168 -0.344,0.332 -0.52,0.493c-2.121,2.654 -2.766,4.738 -2.66,6.6c0.107,1.874 1.032,3.706 2.585,5.667l-2.515,1.99c-1.772,-2.238 -3.111,-4.683 -3.271,-7.475c-0.062,-1.094 0.064,-2.213 0.392,-3.356c-2.606,0.967 -5.378,1.103 -8.032,0.043c-3.175,5.324 -8.38,9.847 -15.345,11.211l-0.616,-3.142l0,0Z" style="fill:url(#_Radial2);fill-rule:nonzero;"/></g></g></g><defs><radialGradient id="_Radial1" cx="0" cy="0" r="1" gradientUnits="userSpaceOnUse" gradientTransform="matrix(-243.165,243.165,-11.8923,-11.8923,-26.7046,126.257)"><stop offset="0" style="stop-color:#582308;stop-opacity:1"/><stop offset="1" style="stop-color:#000;stop-opacity:1"/></radialGradient><radialGradient id="_Radial2" cx="0" cy="0" r="1" gradientUnits="userSpaceOnUse" gradientTransform="matrix(25.998,25.998,-21.6154,21.6154,63.2952,36.8481)"><stop offset="0" style="stop-color:#4f4f4f;stop-opacity:1"/><stop offset="1" style="stop-color:#2f2f2f;stop-opacity:1"/></radialGradient></defs></svg>