<svg width="100px" height="100px" viewBox="0 0 100 100" version="1.1" xmlns="http://www.w3.org/2000/svg"  xml:space="preserve"  style="fill-rule:evenodd;clip-rule:evenodd;"><g><path d="M-166.182,266.444c3.284,3.284 8.616,3.284 11.9,0l208.243,-208.243c3.285,-3.284 3.285,-8.616 0,-11.901c-3.284,-3.284 -8.616,-3.284 -11.9,0l-208.243,208.243c-3.284,3.285 -3.284,8.617 0,11.901Z" style="fill:url(#_Radial1);stroke:#000;stroke-width:1.05px;"/><path d="M23.481,31.601l0.68,7.192l53.01,-16.145l-15.778,53.131l7.617,0.538l28.124,-73.801l-73.653,29.085Zm6.785,9.248l22.223,5.17l1.242,0.291l0.296,1.24l5.29,22.073l17.854,-46.975l-46.905,18.2l0,0.001Z" style="fill:url(#_Radial2);fill-rule:nonzero;"/><path d="M25.745,64.253c0.025,5.57 4.517,10.028 10.087,10.003c4.115,-0.018 7.423,-2.607 8.965,-6.136c-7.124,-0.326 -12.467,-5.541 -12.58,-12.73c-3.711,1.486 -6.491,4.606 -6.472,8.863l0,0Z" style="fill:url(#_Radial3);fill-rule:nonzero;"/><path d="M35.579,54.708c0.025,5.57 4.522,10.028 10.092,10.003c4.628,-0.02 8.482,-3.131 9.642,-7.377c-6.573,-0.528 -11.856,-5.764 -12.443,-12.332c-4.235,1.197 -7.312,5.078 -7.291,9.706l0,0Z" style="fill:url(#_Radial4);fill-rule:nonzero;"/></g><defs><radialGradient id="_Radial1" cx="0" cy="0" r="1" gradientUnits="userSpaceOnUse" gradientTransform="matrix(-243.351,243.351,-11.9014,-11.9014,-26.407,126.668)"><stop offset="0" style="stop-color:#582308;stop-opacity:1"/><stop offset="1" style="stop-color:#000;stop-opacity:1"/></radialGradient><radialGradient id="_Radial2" cx="0" cy="0" r="1" gradientUnits="userSpaceOnUse" gradientTransform="matrix(39.0253,-39.0253,23.2388,23.2388,53.6749,46.267)"><stop offset="0" style="stop-color:#999;stop-opacity:1"/><stop offset="0.27" style="stop-color:#c67128;stop-opacity:1"/><stop offset="0.59" style="stop-color:#d36507;stop-opacity:1"/><stop offset="0.8" style="stop-color:#d36507;stop-opacity:1"/><stop offset="1" style="stop-color:#a14d05;stop-opacity:1"/></radialGradient><radialGradient id="_Radial3" cx="0" cy="0" r="1" gradientUnits="userSpaceOnUse" gradientTransform="matrix(-1.38986e-14,-11.2876,8.58336,-1.05124e-14,35.6959,64.0996)"><stop offset="0" style="stop-color:#999;stop-opacity:1"/><stop offset="0.74" style="stop-color:#d36507;stop-opacity:1"/><stop offset="1" style="stop-color:#d36507;stop-opacity:1"/></radialGradient><radialGradient id="_Radial4" cx="0" cy="0" r="1" gradientUnits="userSpaceOnUse" gradientTransform="matrix(-6.76542e-15,-9.54062,8.93027,-6.93196e-15,46.5896,53.2425)"><stop offset="0" style="stop-color:#999;stop-opacity:1"/><stop offset="0.74" style="stop-color:#d36507;stop-opacity:1"/><stop offset="1" style="stop-color:#d36507;stop-opacity:1"/></radialGradient></defs></svg>