<svg width="100px" height="100px" viewBox="0 0 100 100" version="1.1" xmlns="http://www.w3.org/2000/svg"  xml:space="preserve"  style="fill-rule:evenodd;clip-rule:evenodd;"><g><path d="M62.509,25.766l-1.317,-1.536l0.81,0.497c-0.308,-0.406 -0.767,-0.887 -1.415,-1.459l-1.753,-0.617l1.042,0.028c-0.406,-0.3 -0.893,-0.593 -1.422,-0.849l-1.234,0.231l0.795,-0.431c-0.556,-0.237 -1.144,-0.43 -1.722,-0.548c-0.61,-0.124 -1.209,-0.165 -1.75,-0.076l0.105,-0.633c-0.291,0.26 -0.584,0.513 -0.837,0.856c-0.025,0.012 -0.05,0.025 -0.074,0.038l-0.085,-0.661c-0.228,0.337 -0.435,0.687 -0.511,1.126c-0.014,0.016 -0.027,0.032 -0.04,0.048c-0.668,0.057 -1.317,0.17 -1.963,0.338l0.09,0.343c0.536,-0.14 1.073,-0.241 1.623,-0.301c-0.001,0.001 -0.001,0.002 -0.002,0.003c3.041,-0.458 5.723,0.376 7.838,2.418l-0.182,0.063c-1.892,-1.826 -4.221,-2.648 -6.896,-2.402c0.14,0.313 0.252,0.792 0.452,1.043l1.09,-0.393l-0.855,0.66c0.152,0.157 0.314,0.292 0.481,0.402l0.589,-0.697l-0.345,0.838c0.174,0.087 0.351,0.145 0.525,0.17c1.057,0.152 2.122,0.332 3.293,1.103l-0.078,-0.916l0.513,1.227c0.034,0.027 0.069,0.054 0.104,0.082c0.151,0.12 0.316,0.229 0.489,0.325l-0.321,-0.889l0.889,1.152c0.145,0.054 0.292,0.1 0.436,0.136c0.514,0.128 1,0.151 1.337,-0.06c0.168,-0.105 0.288,-0.288 0.304,-0.504c0.004,-0.05 0.002,-0.102 -0.003,-0.155l0,0Z" style="fill:url(#_Radial1);fill-rule:nonzero;"/><g><path d="M44.2,17.468l5.741,-17.368l-0.079,16.21l-5.662,1.158Z" style="fill:#c6c6c6;"/><path d="M55.765,17.468l-5.824,-17.368l-0.079,16.21l5.903,1.158Z" style="fill:#ddd;"/><path d="M55.765,17.468l-5.903,-1.158l-5.662,1.158l4.781,4.932l2.046,0l4.738,-4.932Z" style="fill:#b2b2b2;"/></g><path d="M49.981,99.856c1.243,0 2.252,-0.966 2.252,-2.155l0,-75.45c0,-1.19 -1.009,-2.156 -2.252,-2.156c-1.243,0 -2.252,0.966 -2.252,2.156l0,75.45c0,1.189 1.009,2.155 2.252,2.155Z" style="fill:url(#_Radial2);stroke:#000;stroke-width:0.27px;"/></g><defs><radialGradient id="_Radial1" cx="0" cy="0" r="1" gradientUnits="userSpaceOnUse" gradientTransform="matrix(-4.42529,3.83396,-3.90223,-4.5041,57.313,22.9409)"><stop offset="0" style="stop-color:#7d7d7d;stop-opacity:1"/><stop offset="1" style="stop-color:#111;stop-opacity:1"/></radialGradient><radialGradient id="_Radial2" cx="0" cy="0" r="1" gradientUnits="userSpaceOnUse" gradientTransform="matrix(0,88.1696,-4.50435,0,49.9811,49.2136)"><stop offset="0" style="stop-color:#582308;stop-opacity:1"/><stop offset="1" style="stop-color:#000;stop-opacity:1"/></radialGradient></defs></svg>