<svg width="100px" height="100px" viewBox="0 0 100 100" version="1.1" xmlns="http://www.w3.org/2000/svg" xmlns:xlink="http://www.w3.org/1999/xlink" xml:space="preserve" xmlns:serif="http://www.serif.com/" style="fill-rule:evenodd;clip-rule:evenodd;stroke-linejoin:round;stroke-miterlimit:1.41421;"><g><path d="M61.003,11.654l-21.363,21.678l-6.044,19.483l3.937,8.242l4.582,2.084l7.447,-12.362l2.535,-0.81l13.858,6.026l4.547,-2.917l1.003,-9.808l2.563,12.037l-2.384,3.178l0.847,0.368l1.175,1.459l1.534,7.708l12.562,-14.986l3.138,0.051l5.026,6.413l-2.121,-11.725l-6.745,-23.124l-26.096,-12.995l-0.001,0Z" style="fill:#4c4c4c;fill-rule:nonzero;"/><path d="M87.1,24.649l6.745,23.124l2.121,11.725l-5.026,-6.413l-3.138,-0.051l-12.562,14.986l-1.534,-7.708l-1.175,-1.459l-0.847,-0.368l2.384,-3.178l-2.563,-12.037l-1.003,9.808l-4.547,2.917l-13.858,-6.026l-2.535,0.81l-7.447,12.362l-4.582,-2.084l-3.937,-8.242l6.044,-19.483l21.363,-21.678l0.001,0l26.096,12.995Zm-46.911,9.011l-5.927,19.107l3.734,7.817l3.872,1.761l7.161,-11.887l0.066,-0.09l0.081,-0.077l0.093,-0.061l0.103,-0.043l2.536,-0.811l0.109,-0.024l0.111,-0.004l0.111,0.015l0.106,0.035l13.554,5.894l4.015,-2.576l0.972,-9.509l0.023,-0.115l0.044,-0.109l0.064,-0.098l0.081,-0.085l0.095,-0.068l0.107,-0.049l0.113,-0.028l0.117,-0.006l0.116,0.016l0.112,0.037l0.102,0.057l0.089,0.076l0.074,0.091l0.055,0.103l0.036,0.112l2.562,12.037l0.014,0.105l-0.005,0.106l-0.023,0.103l-0.04,0.098l-0.056,0.09l-1.912,2.549l0.125,0.054l0.088,0.047l0.079,0.061l0.069,0.072l1.176,1.459l0.056,0.082l0.042,0.091l0.027,0.096l1.28,6.435l11.73,-13.992l0.078,-0.078l0.091,-0.063l0.1,-0.046l0.107,-0.027l0.11,-0.008l3.138,0.051l0.11,0.012l0.106,0.031l0.099,0.049l0.089,0.066l0.075,0.081l3.478,4.437l-1.669,-9.223l-6.659,-22.831l-25.449,-12.673l-20.941,21.248Z"/><path d="M18.149,13.699l-7.012,12.372l-1.093,6.559l6.169,-2.005l2.779,1.752l0.02,0.151l6.719,14.215l3.27,-1.079l2.598,1.108l0.931,1.95l4.635,-14.94l-0.256,-7.916l-9.533,-0.124l-7.06,-5.646l8.875,3.206l6.899,0.403l6.182,3.77l11.018,-11.6c-0.659,-0.28 -1.333,-0.559 -2.037,-0.836l-18.897,2.405l-0.838,-0.06l-13.37,-3.685l0.001,0Z" style="fill:#4c4c4c;fill-rule:nonzero;"/><path d="M18.149,13.699l13.369,3.685l0.838,0.06l18.897,-2.405l0.262,0.104l0.26,0.104l0.258,0.104l0.255,0.105l0.253,0.104l0.251,0.105l0.498,0.21l-11.018,11.6l-6.182,-3.77l-6.899,-0.403l-8.875,-3.206l7.06,5.646l9.533,0.124l0.256,7.916l-4.635,14.94l-0.931,-1.95l-2.598,-1.108l-3.27,1.079l-6.719,-14.215l-0.02,-0.151l-2.779,-1.752l-6.169,2.005l1.093,-6.559l7.012,-12.372l-0.001,0l0.001,0l0,0Zm-6.417,12.583l-0.906,5.44l5.195,-1.688l0.088,-0.022l0.09,-0.009l0.091,0.005l0.089,0.018l0.085,0.03l0.08,0.043l2.78,1.752l0.073,0.054l0.064,0.064l0.055,0.072l0.043,0.08l0.031,0.085l0.019,0.089l0.007,0.055l6.442,13.63l2.748,-0.907l0.087,-0.022l0.09,-0.009l0.089,0.004l0.088,0.017l0.085,0.029l2.598,1.108l0.08,0.041l0.073,0.052l0.065,0.063l0.055,0.07l0.044,0.078l0.247,0.516l4.132,-13.322l-0.232,-7.218l-8.939,-0.116l-0.103,-0.01l-0.099,-0.026l-0.093,-0.043l-0.086,-0.057l-7.06,-5.647l-0.074,-0.07l-0.063,-0.082l-0.047,-0.091l-0.032,-0.098l-0.016,-0.102l0.002,-0.103l0.018,-0.101l0.035,-0.096l0.05,-0.09l0.064,-0.08l0.077,-0.069l0.087,-0.055l0.095,-0.04l0.1,-0.023l0.103,-0.007l0.102,0.01l0.099,0.027l8.79,3.176l6.809,0.397l0.101,0.014l0.096,0.03l0.091,0.046l5.753,3.509l10.052,-10.583l-0.168,-0.069l-0.253,-0.104l-0.255,-0.103l-0.258,-0.103l-0.112,-0.044l-18.738,2.384l-0.062,0.005l-0.061,-0.002l-0.838,-0.059l-0.061,-0.008l-0.06,-0.013l-12.902,-3.556l-6.719,11.854Z"/><path d="M18.35,34.526l-14.364,4.668l-3.736,17.565l11.358,1.248l0.133,-1.596l8.422,-8.208l-1.813,-13.676l0,-0.001Z" style="fill:#4c4c4c;fill-rule:nonzero;"/><path d="M18.35,34.527l1.813,13.676l-8.422,8.208l-0.133,1.596l-11.358,-1.248l3.736,-17.565l14.364,-4.668l0,0.001Zm-13.83,5.148l-3.519,16.541l10.04,1.103l0.08,-0.96l0.011,-0.073l0.019,-0.072l0.028,-0.069l0.035,-0.065l0.043,-0.06l0.05,-0.055l8.198,-7.99l-1.674,-12.626l-13.311,4.326Z"/><path d="M29.316,47.039l-8.124,2.679l-7.054,6.875l5.036,6.881l12.779,0.388l3.678,-3.603l-6.315,-13.219l0,-0.001Z" style="fill:#4c4c4c;fill-rule:nonzero;"/><path d="M29.316,47.04l6.315,13.219l-3.678,3.603l-12.779,-0.388l-5.036,-6.881l7.054,-6.875l8.124,-2.679l0,0.001Zm-7.792,3.224l-6.565,6.397l4.537,6.2l12.211,0.371l3.171,-3.106l-5.888,-12.324l-7.466,2.462Z"/><path d="M52.259,51.583l-10.434,17.32l-0.008,13.455l22.905,2.877l10.418,-4.598l-4.16,-20.913l-18.721,-8.14l0,-0.001Z" style="fill:#4c4c4c;fill-rule:nonzero;"/><path d="M52.259,51.584l18.721,8.14l4.16,20.913l-10.418,4.598l-22.905,-2.877l0.008,-13.455l10.434,-17.32l0,0.001Zm-9.812,17.492l-0.007,12.734l22.188,2.787l9.805,-4.328l-3.999,-20.105l-17.924,-7.793l-10.063,16.705Z"/><path d="M89.085,54.197l-11.258,13.429l0.069,0.427l15.658,3.338l6.196,-3.588l-10.664,-13.607l-0.001,0.001Z" style="fill:#4c4c4c;fill-rule:nonzero;"/><path d="M99.75,67.803l-6.196,3.588l-15.658,-3.338l-0.069,-0.427l11.258,-13.429l0.001,-0.001l10.664,13.607Zm-21.075,-0.22l14.774,3.149l5.37,-3.109l-9.75,-12.439l-10.394,12.399Z"/><path d="M6.736,61.661l-3.039,9.879l4.557,16.806l31.546,-4.127l0.458,-9.154l-21.686,-11.087l-11.836,-2.317l0,0Z" style="fill:#4c4c4c;fill-rule:nonzero;"/><path d="M6.736,61.661l11.836,2.317l21.686,11.087l-0.458,9.154l-31.546,4.127l-4.557,-16.806l3.039,-9.879l0,0Zm-2.392,9.89l4.368,16.108l30.493,-3.989l0.411,-8.235l-21.25,-10.864l-11.201,-2.192l-2.821,9.172Z"/><g><path d="M72.83,23.655l9.868,13.845l0.442,13.109l-5.302,-12.52l-13.699,-12.667l8.691,-1.767Z" style="fill:#a5a5a5;fill-rule:nonzero;"/><path d="M82.698,37.5l0.442,13.109l-5.302,-12.52l-13.699,-12.667l8.691,-1.767l9.868,13.845Zm-17.245,-11.71l12.808,11.843l0.045,0.047l0.041,0.052l0.035,0.056l0.029,0.059l3.995,9.432l-0.323,-9.571l-9.525,-13.363l-7.105,1.445Z"/><path d="M58.693,58.641l9.238,5.38l3.158,11.929l-6.315,5.613l-10.601,-0.601l9.081,-6.65l0.585,-9.239l-5.146,-6.431l0,-0.001Z" style="fill:#a5a5a5;fill-rule:nonzero;"/><path d="M67.931,64.021l3.158,11.929l-6.315,5.613l-10.601,-0.601l9.081,-6.65l0.585,-9.239l-5.146,-6.431l0,-0.001l9.238,5.38Zm-3.607,0.664l0.039,0.053l0.032,0.057l0.026,0.06l0.02,0.063l0.013,0.064l0.006,0.065l-0.001,0.066l-0.584,9.238l-0.008,0.067l-0.016,0.067l-0.022,0.064l-0.029,0.061l-0.036,0.058l-0.042,0.054l-0.048,0.048l-0.053,0.043l-7.681,5.626l8.612,0.489l5.838,-5.189l-2.994,-11.31l-6.134,-3.572l3.062,3.828Z"/></g></g></svg>