<svg width="100px" height="100px" viewBox="0 0 100 100" version="1.1" xmlns="http://www.w3.org/2000/svg"  xml:space="preserve"  style="fill-rule:evenodd;clip-rule:evenodd;stroke-linejoin:round;stroke-miterlimit:1.41421;"><g><g><path d="M71.406,1.146l-14.688,11.256c-1.087,1.152 -1.125,1.834 -0.886,2.651c0.245,0.839 1.098,1.908 2.363,2.74c1.266,0.832 2.885,1.406 4.263,1.52c1.212,0.1 2.108,-0.145 2.686,-0.576c0.063,-0.163 0.13,-0.329 0.227,-0.587c0.352,-0.944 0.699,-1.89 1.038,-2.838c0.844,-2.341 1.941,-5.442 3.028,-8.533c0.993,-2.826 1.969,-5.633 1.969,-5.633Z" style="fill:url(#_Radial1);stroke:#000;stroke-width:0.3px;"/><path d="M26.382,98.05l14.254,-11.8c1.043,-1.191 1.055,-1.875 0.786,-2.682c-0.276,-0.829 -1.169,-1.866 -2.465,-2.65c-1.296,-0.784 -2.936,-1.296 -4.316,-1.358c-1.215,-0.055 -2.101,0.223 -2.663,0.677c-0.057,0.164 -0.117,0.333 -0.205,0.595c-0.316,0.956 -0.627,1.914 -0.931,2.875c-0.755,2.37 -1.735,5.51 -2.705,8.64c-0.886,2.861 -1.755,5.703 -1.755,5.703Z" style="fill:url(#_Radial2);stroke:#000;stroke-width:0.3px;"/><path d="M0.25,42.359l16.29,8.778c1.497,0.519 2.134,0.274 2.782,-0.279c0.664,-0.567 1.289,-1.784 1.529,-3.279c0.24,-1.496 0.099,-3.208 -0.362,-4.511c-0.406,-1.146 -0.997,-1.863 -1.628,-2.213c-0.174,0.008 -0.353,0.016 -0.628,0.033c-1.005,0.066 -2.01,0.138 -3.014,0.217c-2.481,0.191 -5.759,0.462 -9.024,0.739c-2.985,0.253 -5.945,0.515 -5.945,0.515Z" style="fill:url(#_Radial3);stroke:#000;stroke-width:0.3px;"/><path d="M99.75,67.04l-14.492,-10.47c-1.361,-0.687 -1.99,-0.534 -2.66,-0.088c-0.687,0.458 -1.405,1.541 -1.787,2.94c-0.382,1.399 -0.427,3.054 -0.126,4.358c0.264,1.148 0.749,1.909 1.309,2.324c0.165,0.014 0.336,0.03 0.598,0.048c0.957,0.066 1.915,0.125 2.872,0.177c2.366,0.134 5.494,0.293 8.61,0.445c2.849,0.139 5.676,0.266 5.676,0.266Z" style="fill:url(#_Radial4);stroke:#000;stroke-width:0.3px;"/></g><g><path d="M15.473,17.354l12.578,13.877l0.555,0.651l1.6,38.111l-2.26,2.049l-12.464,10.616c-1.688,-2.095 -2.699,-4.758 -2.699,-7.655l0,-50.006c0,-2.944 1.044,-5.646 2.782,-7.756l-0.092,0.113Z" style="fill:#595959;"/><path d="M30.206,69.993l0.256,-0.232l38.272,-1.607l13.932,16.358c-2.096,1.692 -4.762,2.705 -7.663,2.705l-50.006,0c-3.708,0 -7.031,-1.656 -9.272,-4.267l0.082,0.095l14.399,-13.052Z" style="fill:#8c8c8c;"/><path d="M67.58,30.366l0.6,-0.544l15.615,-13.299c2.119,2.197 3.422,5.184 3.422,8.474l0,50.006c0,3.65 -1.604,6.928 -4.146,9.167l0.123,-0.11l-14.008,-15.454l-1.606,-38.24Z" style="fill:#808080;"/><path d="M75.003,12.783c3.279,0 6.258,1.295 8.452,3.401l-0.111,-0.106l-15.764,14.288l-0.353,0.32l-38.271,1.607l-0.35,-0.411l-12.755,-14.976l-0.097,0.11c2.24,-2.592 5.551,-4.233 9.243,-4.233l50.006,0Z" style="fill:#404040;"/><path d="M70.648,35.719c0,-4.136 -3.359,-7.495 -7.495,-7.495l-30.686,0c-4.137,0 -7.495,3.359 -7.495,7.495l0,30.78c0,4.136 3.358,7.495 7.495,7.495l30.686,0c4.136,0 7.495,-3.359 7.495,-7.495l0,-30.78Z" style="fill:#545454;stroke:#fff;stroke-width:0.17px;stroke-linecap:round;stroke-linejoin:miter;stroke-miterlimit:1;"/><g><path d="M12.788,33.942l-0.005,-2.402l6.032,-0.217l-6.027,2.619Z" style="fill:#454545;"/><path d="M63.404,28.373l-9.036,-0.013c0,0 6.009,10.325 9.067,22.056l-0.031,-22.043Z" style="fill:#454545;"/><path d="M87.217,51.145l0,2.279l-6.967,-2.047l6.967,-0.232Z" style="fill:#454545;"/><path d="M36.584,87.21l-2.554,0.007c0,0 -1.357,-4.398 -1.677,-5.928c-0.319,-1.531 -0.109,-4.959 0.094,-4.445c0.411,1.042 4.137,10.366 4.137,10.366Z" style="fill:#454545;"/></g></g><g><path d="M66.089,99.52l2.305,-18.361c-0.056,-1.583 -0.515,-2.089 -1.265,-2.493c-0.768,-0.415 -2.128,-0.559 -3.61,-0.242c-1.481,0.316 -3.027,1.066 -4.076,1.966c-0.922,0.792 -1.377,1.602 -1.476,2.317c0.071,0.159 0.143,0.323 0.258,0.574c0.424,0.913 0.854,1.824 1.291,2.732c1.073,2.245 2.51,5.204 3.946,8.148c1.314,2.693 2.627,5.359 2.627,5.359Z" style="fill:url(#_Radial5);stroke:#000;stroke-width:0.3px;"/><path d="M90.741,9.438l-16.765,7.834c-1.309,0.891 -1.493,1.549 -1.435,2.399c0.058,0.871 0.661,2.099 1.718,3.184c1.058,1.085 2.516,1.994 3.836,2.401c1.162,0.359 2.09,0.312 2.747,0.015c0.097,-0.145 0.198,-0.293 0.349,-0.525c0.547,-0.845 1.088,-1.695 1.624,-2.548c1.327,-2.104 3.066,-4.897 4.792,-7.681c1.578,-2.547 3.134,-5.079 3.134,-5.079Z" style="fill:url(#_Radial6);stroke:#000;stroke-width:0.3px;"/><path d="M99.44,36.291l-18.445,1.492c-1.537,0.379 -1.939,0.931 -2.182,1.748c-0.249,0.837 -0.112,2.198 0.5,3.583c0.612,1.386 1.662,2.746 2.757,3.589c0.964,0.741 1.85,1.021 2.57,0.972c0.141,-0.102 0.287,-0.206 0.509,-0.37c0.808,-0.602 1.612,-1.209 2.411,-1.821c1.978,-1.509 4.582,-3.52 7.171,-5.528c2.367,-1.835 4.709,-3.665 4.709,-3.665Z" style="fill:url(#_Radial7);stroke:#000;stroke-width:0.3px;"/><path d="M92.532,85.259l-7.797,-16.782c-0.888,-1.311 -1.545,-1.497 -2.395,-1.441c-0.872,0.057 -2.101,0.657 -3.188,1.711c-1.087,1.055 -1.999,2.511 -2.41,3.831c-0.361,1.161 -0.316,2.089 -0.02,2.747c0.144,0.097 0.292,0.199 0.523,0.349c0.845,0.549 1.693,1.093 2.544,1.631c2.102,1.331 4.891,3.076 7.672,4.808c2.542,1.584 5.071,3.146 5.071,3.146Z" style="fill:url(#_Radial8);stroke:#000;stroke-width:0.3px;"/><path d="M1.066,74.71l18.505,-0.033c1.562,-0.256 2.007,-0.775 2.313,-1.569c0.314,-0.815 0.285,-2.183 -0.216,-3.612c-0.501,-1.43 -1.439,-2.869 -2.465,-3.795c-0.902,-0.815 -1.763,-1.164 -2.485,-1.172c-0.149,0.09 -0.303,0.182 -0.536,0.329c-0.853,0.536 -1.702,1.077 -2.548,1.625c-2.091,1.348 -4.845,3.147 -7.585,4.944c-2.504,1.643 -4.983,3.283 -4.983,3.283Z" style="fill:url(#_Radial9);stroke:#000;stroke-width:0.3px;"/><path d="M12.62,8.664l7.935,16.718c0.899,1.303 1.558,1.483 2.407,1.42c0.871,-0.064 2.095,-0.674 3.174,-1.737c1.078,-1.064 1.978,-2.528 2.378,-3.85c0.351,-1.165 0.299,-2.092 -0.002,-2.748c-0.145,-0.096 -0.294,-0.196 -0.527,-0.345c-0.848,-0.542 -1.701,-1.078 -2.557,-1.609c-2.113,-1.314 -4.916,-3.036 -7.711,-4.745c-2.555,-1.563 -5.097,-3.104 -5.097,-3.104Z" style="fill:url(#_Radial10);stroke:#000;stroke-width:0.3px;"/><path d="M45.133,0.48l-8.084,16.646c-0.455,1.517 -0.183,2.144 0.397,2.767c0.594,0.64 1.836,1.214 3.34,1.39c1.505,0.177 3.21,-0.036 4.492,-0.552c1.128,-0.454 1.819,-1.074 2.142,-1.719c-0.015,-0.174 -0.031,-0.353 -0.06,-0.627c-0.107,-1.001 -0.222,-2.002 -0.343,-3.002c-0.296,-2.471 -0.705,-5.734 -1.119,-8.985c-0.379,-2.971 -0.765,-5.918 -0.765,-5.918Z" style="fill:url(#_Radial11);stroke:#000;stroke-width:0.3px;"/></g></g><defs><radialGradient id="_Radial1" cx="0" cy="0" r="1" gradientUnits="userSpaceOnUse" gradientTransform="matrix(14.2055,-23.534,19.0495,11.4986,51.4438,29.9706)"><stop offset="0" style="stop-color:#4f4f4f;stop-opacity:1"/><stop offset="1" style="stop-color:#999;stop-opacity:1"/></radialGradient><radialGradient id="_Radial2" cx="0" cy="0" r="1" gradientUnits="userSpaceOnUse" gradientTransform="matrix(-13.3116,24.051,-19.468,-10.775,45.2466,68.496)"><stop offset="0" style="stop-color:#4f4f4f;stop-opacity:1"/><stop offset="1" style="stop-color:#999;stop-opacity:1"/></radialGradient><radialGradient id="_Radial3" cx="0" cy="0" r="1" gradientUnits="userSpaceOnUse" gradientTransform="matrix(-27.29,-3.30228,2.67302,-22.0898,34.7264,48.741)"><stop offset="0" style="stop-color:#4f4f4f;stop-opacity:1"/><stop offset="1" style="stop-color:#999;stop-opacity:1"/></radialGradient><radialGradient id="_Radial4" cx="0" cy="0" r="1" gradientUnits="userSpaceOnUse" gradientTransform="matrix(25.4631,6.63911,-4.82387,20.7768,67.8112,56.5403)"><stop offset="0" style="stop-color:#4f4f4f;stop-opacity:1"/><stop offset="1" style="stop-color:#999;stop-opacity:1"/></radialGradient><radialGradient id="_Radial5" cx="0" cy="0" r="1" gradientUnits="userSpaceOnUse" gradientTransform="matrix(6.77255,26.6417,-21.565,5.48202,59.594,65.0646)"><stop offset="0" style="stop-color:#4f4f4f;stop-opacity:1"/><stop offset="1" style="stop-color:#999;stop-opacity:1"/></radialGradient><radialGradient id="_Radial6" cx="0" cy="0" r="1" gradientUnits="userSpaceOnUse" gradientTransform="matrix(18.9345,-19.9281,16.1308,15.3265,65.047,33.2955)"><stop offset="0" style="stop-color:#4f4f4f;stop-opacity:1"/><stop offset="1" style="stop-color:#999;stop-opacity:1"/></radialGradient><radialGradient id="_Radial7" cx="0" cy="0" r="1" gradientUnits="userSpaceOnUse" gradientTransform="matrix(24.6976,-12.0697,9.7698,19.9913,67.037,49.6845)"><stop offset="0" style="stop-color:#4f4f4f;stop-opacity:1"/><stop offset="1" style="stop-color:#999;stop-opacity:1"/></radialGradient><radialGradient id="_Radial8" cx="0" cy="0" r="1" gradientUnits="userSpaceOnUse" gradientTransform="matrix(19.8858,18.979,-15.3625,16.0965,68.732,59.5119)"><stop offset="0" style="stop-color:#4f4f4f;stop-opacity:1"/><stop offset="1" style="stop-color:#999;stop-opacity:1"/></radialGradient><radialGradient id="_Radial9" cx="0" cy="0" r="1" gradientUnits="userSpaceOnUse" gradientTransform="matrix(-25.573,10.0832,-8.16181,-20.6999,34.4247,63.9147)"><stop offset="0" style="stop-color:#4f4f4f;stop-opacity:1"/><stop offset="1" style="stop-color:#999;stop-opacity:1"/></radialGradient><radialGradient id="_Radial10" cx="0" cy="0" r="1" gradientUnits="userSpaceOnUse" gradientTransform="matrix(-20.0413,-18.8147,15.2295,-16.2224,36.6313,34.2143)"><stop offset="0" style="stop-color:#4f4f4f;stop-opacity:1"/><stop offset="1" style="stop-color:#999;stop-opacity:1"/></radialGradient><radialGradient id="_Radial11" cx="0" cy="0" r="1" gradientUnits="userSpaceOnUse" gradientTransform="matrix(2.14867,-27.4049,22.1828,1.73923,40.2101,35.195)"><stop offset="0" style="stop-color:#4f4f4f;stop-opacity:1"/><stop offset="1" style="stop-color:#999;stop-opacity:1"/></radialGradient></defs></svg>