<svg width="100px" height="100px" viewBox="0 0 100 100" version="1.1" xmlns="http://www.w3.org/2000/svg" xmlns:xlink="http://www.w3.org/1999/xlink" xml:space="preserve" xmlns:serif="http://www.serif.com/" style="fill-rule:evenodd;clip-rule:evenodd;stroke-linejoin:round;stroke-miterlimit:1.41421;"><g><path d="M49.79,3.09l-8.706,16.106l2.37,3.26l-1.457,2.558l2.719,3.458l-0.721,6.259l0.478,33.202l1.604,4.399l-0.734,4.182l-6.599,-0.399l2.948,5.781l5.349,-2.338l3,5.07l2.395,-5.161l5.451,2.622l3.071,-6.822l-4.847,1.236l-2.578,-3.491l1.794,-4.313l-0.068,-39.276l1.558,-4.086l-0.764,-2.886l2.822,-3.489l-9.085,-15.872Z" style="fill:url(#_Radial1);"/><path d="M50.199,0.171l-10.485,18.677l-0.395,0.709l0.555,0.591l2.382,2.534l-1.155,1.997l-0.411,0.704l0.555,0.602l1.984,2.146l-0.044,41.233l0,0.482l0.351,0.33c1.768,1.649 1.479,3.873 0.709,4.52c-0.908,0.762 -1.622,0.945 -2.288,0.874c-0.665,-0.072 -1.38,-0.451 -2.106,-1.186l-2.013,-2.033l0.12,2.858c0.127,3.029 1.351,5.822 3.361,7.857l0.782,0.793l0.788,-0.788c1.023,-1.023 2.285,-1.813 3.691,-2.293l0.871,1.552c-0.307,3.198 -0.11,6.901 0.587,9.459c0.102,0.376 0.212,0.711 0.326,1.008l-1.926,3.418l3.363,3.614l3.363,-3.614l-1.942,-3.45c0.11,-0.289 0.218,-0.613 0.317,-0.976c0.693,-2.546 0.89,-6.226 0.589,-9.414l0.871,-1.553c1.382,0.486 2.628,1.263 3.623,2.251l0.782,0.778l0.78,-0.78c2.071,-2.07 3.38,-4.949 3.46,-8.072l0.058,-2.272l-1.824,1.359c-1.016,0.755 -1.992,1.085 -2.746,1.112c-0.753,0.027 -1.263,-0.202 -1.633,-0.649c-0.85,-1.027 -0.994,-1.693 -0.89,-2.303c0.104,-0.61 0.565,-1.322 1.413,-2.12l0.351,-0.33l-0.003,-0.479l0,-41.644l1.55,-1.628l0.565,-0.597l-0.406,-0.714l-0.976,-1.72l2.635,-2.876l0.542,-0.589l-0.392,-0.702l-9.689,-18.676l0,0Zm-0.398,5.234l7.766,13.827l-2.644,2.879l-0.544,0.592l0.4,0.704l0.971,1.709l-1.287,1.35l-0.304,0.32l-0.003,0.442l0.003,41.642c-0.813,0.83 -1.463,1.743 -1.696,2.837l-1.554,-1.67l-0.001,-42.99l2.128,-2.3l-1.018,-1.793l-0.403,-0.712l0.563,-0.594l2.622,-2.779l-4.996,-8.839l-4.997,8.839l2.427,2.588l0.557,0.594l-0.403,0.712l-1.159,2.028l2.468,2.615l-0.003,42.636l-1.712,1.838c-0.229,-1.034 -0.755,-2.069 -1.586,-2.963l0.047,-41.21l0.003,-0.437l-0.296,-0.317l-1.725,-1.871l1.16,-2.002l0.411,-0.715l-0.566,-0.596l-2.386,-2.544l7.757,-13.82l0,0Zm-9.242,72.07c0.374,0.142 0.756,0.252 1.16,0.296c0.932,0.1 1.898,-0.108 2.824,-0.61l0.934,1.662c-1.195,0.456 -2.3,1.098 -3.274,1.892c-0.738,-0.944 -1.299,-2.044 -1.643,-3.24l-0.001,0Zm9.242,-5.373l3.471,3.727l-3.468,6.163l-3.473,-6.163l3.47,-3.727l0,0Zm5.35,4.905c0.63,0.294 1.34,0.431 2.06,0.405c0.636,-0.022 1.287,-0.167 1.936,-0.413c-0.341,1.38 -0.977,2.652 -1.834,3.724c-0.956,-0.774 -2.043,-1.4 -3.214,-1.853l1.052,-1.863l0,0Z" style="fill:#131313;fill-rule:nonzero;"/></g><defs><radialGradient id="_Radial1" cx="0" cy="0" r="1" gradientUnits="userSpaceOnUse" gradientTransform="matrix(6.04259,-2.22045e-15,2.84217e-14,112.883,49.787,70.7223)"><stop offset="0" style="stop-color:#000;stop-opacity:1"/><stop offset="1" style="stop-color:#227cfe;stop-opacity:1"/></radialGradient></defs></svg>