<svg width="100px" height="100px" viewBox="0 0 100 100" version="1.1" xmlns="http://www.w3.org/2000/svg" xmlns:xlink="http://www.w3.org/1999/xlink" xml:space="preserve" xmlns:serif="http://www.serif.com/" style="fill-rule:evenodd;clip-rule:evenodd;stroke-linejoin:round;stroke-miterlimit:1.41421;"><path d="M96.207,3.378l-24.55,7.322l-0.88,5.57l-3.973,1.089l-0.731,6.113l-6.907,5.479l-32.379,33.324l-2.765,5.94l-4.864,3.411l-6.134,-6.924l-2.803,8.637l7.605,2.98l-2.049,7.984l7.477,-2.738l2.8,7.99l9.788,-3.712l-6.018,-3.574l0.902,-6.004l6.043,-2.493l38.795,-38.929l5.584,-2.501l2.1,-3.611l6.244,-0.66l6.715,-24.693Z" style="fill:url(#_Radial1);"/><path d="M99.5,0.894l-28.854,8.105l-1.092,0.311l-0.037,1.134l-0.15,4.864l-3.118,0.833l-1.103,0.29l-0.046,1.145l-0.161,4.087l-40.842,40.754l-0.477,0.476l0.021,0.674c0.118,3.381 -2.368,5.296 -3.771,5.174c-1.652,-0.145 -2.54,-0.669 -3.128,-1.399c-0.587,-0.729 -0.919,-1.811 -0.911,-3.257l0.02,-4.004l-2.708,2.947c-2.872,3.123 -4.425,7.097 -4.449,11.099l-0.011,1.559l1.559,0c2.025,0.001 4.054,0.467 5.92,1.383l-0.673,2.398c-3.468,2.861 -6.937,6.719 -8.779,9.939c-0.271,0.474 -0.493,0.914 -0.673,1.321l-5.288,1.476l-0.249,6.904l6.904,-0.249l1.492,-5.335c0.395,-0.177 0.822,-0.391 1.279,-0.653c3.205,-1.833 7.041,-5.279 9.897,-8.732l2.399,-0.673c0.886,1.847 1.349,3.849 1.356,5.811l0.005,1.544l1.544,0c4.097,0.001 8.241,-1.553 11.41,-4.563l2.305,-2.191l-3.149,-0.461c-1.753,-0.258 -3.045,-0.897 -3.817,-1.616c-0.772,-0.719 -1.05,-1.449 -0.974,-2.258c0.175,-1.857 0.692,-2.659 1.398,-3.159c0.707,-0.501 1.868,-0.75 3.496,-0.7l0.673,0.021l0.472,-0.477l41.205,-41.205l3.143,-0.077l1.15,-0.031l0.306,-1.109l0.735,-2.667l5.454,-0.239l1.119,-0.046l0.305,-1.082l8.893,-28.067l0,0.001Zm-5.573,4.785l-5.997,21.365l-5.464,0.233l-1.124,0.046l-0.301,1.093l-0.73,2.652l-2.61,0.062l-0.617,0.016l-0.44,0.435l-41.199,41.205c-1.626,0.016 -3.173,0.276 -4.486,1.129l0.115,-3.191l42.535,-42.536l4.382,-0.17l0.766,-2.782l0.306,-1.103l1.144,-0.031l5.345,-0.155l3.802,-13.689l-13.689,3.801l-0.16,4.962l-0.037,1.14l-1.103,0.305l-3.154,0.86l-0.145,5.029l-42.189,42.184l-3.512,0.124c0.796,-1.251 1.3,-2.794 1.363,-4.501l40.821,-40.728l0.435,-0.43l0.021,-0.606l0.145,-3.558l3.128,-0.834l1.114,-0.301l0.031,-1.149l0.155,-4.879l21.349,-5.998l0,0Zm-80.453,62.165c0.229,0.51 0.498,0.997 0.855,1.441c0.823,1.021 1.985,1.77 3.397,2.19l-0.72,2.569c-1.633,-0.732 -3.362,-1.19 -5.112,-1.367c0.204,-1.665 0.738,-3.308 1.58,-4.833l0,0Zm14.46,3.828l-0.253,7.122l-9.53,2.667l2.662,-9.535l7.122,-0.254l-0.001,0Zm0.441,10.146c0.332,0.915 0.9,1.753 1.636,2.44c0.652,0.607 1.44,1.107 2.326,1.507c-1.703,1.028 -3.592,1.657 -5.5,1.869c-0.18,-1.711 -0.637,-3.406 -1.347,-5.013l2.885,-0.803l0,0Z" style="fill:#131313;fill-rule:nonzero;"/><defs><radialGradient id="_Radial1" cx="0" cy="0" r="1" gradientUnits="userSpaceOnUse" gradientTransform="matrix(5.97883,5.97883,-111.692,111.692,29.2857,70.2929)"><stop offset="0" style="stop-color:#000;stop-opacity:1"/><stop offset="1" style="stop-color:#227cfe;stop-opacity:1"/></radialGradient></defs></svg>