<svg width="100px" height="100px" viewBox="0 0 100 100" version="1.1" xmlns="http://www.w3.org/2000/svg"  xml:space="preserve" style="fill-rule:evenodd;clip-rule:evenodd;stroke-linejoin:round;stroke-miterlimit:1.41421;"><path d="M66.606,19.603c-6.935,7.018 -12.241,16.755 -21.812,26.438c-1.933,1.958 -11.279,10.975 -15.093,14.406l10.423,10.299c3.384,-3.862 12.007,-13.598 13.94,-15.554c9.562,-9.682 19.233,-15.117 26.166,-22.123c11.421,-11.556 17.417,-31.247 17.417,-31.247c0,0 -19.623,6.225 -31.041,17.781l0,0Z" style="fill:url(#_Radial1);fill-rule:nonzero;"/><path d="M66.836,19.403c-6.884,6.938 -12.151,16.567 -21.65,26.14c-1.919,1.936 -11.196,10.852 -14.982,14.244l10.346,10.183c3.359,-3.819 11.918,-13.445 13.837,-15.379c9.491,-9.573 19.091,-14.946 25.972,-21.874c11.336,-11.426 17.288,-30.895 17.288,-30.895c0,0 -19.478,6.155 -30.811,17.581l0,0Zm-0.702,3.982c-5.223,5.263 -9.69,12.175 -16.896,19.437c-1.456,1.469 -15.032,15.499 -17.903,18.072l8.32,8.117c2.548,-2.897 15.579,-17.466 17.035,-18.933c7.199,-7.262 14.482,-11.338 19.702,-16.593c8.599,-8.668 16.984,-27.293 16.984,-27.293c0,0 -18.645,8.525 -27.242,17.193l0,0Z" style="fill:#fff;fill-opacity:0.117647;"/><path d="M22.593,71.771c-1.328,-3.799 -0.625,-8.147 0.616,-9.405l4.41,-4.475l14.797,14.62l-4.423,4.469c-0.778,0.794 -2.824,1.389 -5.187,1.389l0,-0.002c-1.359,0 -2.826,-0.197 -4.221,-0.667l-13.85,14.045c-1.065,-2.742 -3.249,-4.899 -6.003,-5.931l13.861,-14.043Z" style="fill:url(#_Linear2);"/><path d="M13.509,86.967c-3.585,-3.543 -9.661,-1.876 -10.936,3c-1.275,4.876 3.206,9.304 8.066,7.971c1.109,-0.304 2.117,-0.894 2.925,-1.712c2.554,-2.567 2.529,-6.723 -0.055,-9.259Z" style="fill:url(#_Radial3);fill-rule:nonzero;"/><defs><radialGradient id="_Radial1" cx="0" cy="0" r="1" gradientUnits="userSpaceOnUse" gradientTransform="matrix(63.2948,-63.2948,10.8612,10.8612,37.7379,61.9239)"><stop offset="0" style="stop-color:#999;stop-opacity:1"/><stop offset="0.3" style="stop-color:#d36507;stop-opacity:1"/><stop offset="0.63" style="stop-color:#d36507;stop-opacity:1"/><stop offset="1" style="stop-color:#a14d05;stop-opacity:1"/></radialGradient><linearGradient id="_Linear2" x1="0" y1="0" x2="1" y2="0" gradientUnits="userSpaceOnUse" gradientTransform="matrix(11.8739,11.5796,-11.5796,11.8739,19.468,68.9716)"><stop offset="0" style="stop-color:#301203;stop-opacity:1"/><stop offset="0.5" style="stop-color:#582106;stop-opacity:1"/><stop offset="1" style="stop-color:#301203;stop-opacity:1"/></linearGradient><radialGradient id="_Radial3" cx="0" cy="0" r="1" gradientUnits="userSpaceOnUse" gradientTransform="matrix(6.64636,-0.0164885,0.0164885,6.64636,9.1687,91.5552)"><stop offset="0" style="stop-color:#582106;stop-opacity:1"/><stop offset="0.58" style="stop-color:#501e05;stop-opacity:1"/><stop offset="0.8" style="stop-color:#401804;stop-opacity:1"/><stop offset="1" style="stop-color:#301203;stop-opacity:1"/></radialGradient></defs></svg>