<svg width="100px" height="100px" viewBox="0 0 100 100" version="1.1" xmlns="http://www.w3.org/2000/svg"  xml:space="preserve" style="fill-rule:evenodd;clip-rule:evenodd;stroke-linejoin:round;stroke-miterlimit:1.41421;"><g><path d="M42.532,26.008c0.044,7.426 2.402,15.433 2.462,25.68c0.013,2.071 -0.162,11.844 -0.366,15.7l11.029,-0.066c-0.255,-3.857 -0.847,-13.628 -0.859,-15.697c-0.064,-10.242 2.191,-18.282 2.152,-25.701c-0.073,-12.228 -7.361,-25.9 -7.361,-25.9c0,0 -7.131,13.757 -7.057,25.985l0,-0.001Z" style="fill:url(#_Radial1);fill-rule:nonzero;"/><path d="M42.548,25.78c0.029,7.356 2.35,15.284 2.389,25.435c0.009,2.051 -0.183,11.734 -0.392,15.554l10.926,-0.087c-0.245,-3.82 -0.813,-13.499 -0.821,-15.549c-0.044,-10.146 2.205,-18.115 2.181,-25.465c-0.048,-12.114 -7.242,-25.644 -7.242,-25.644c0,0 -7.091,13.643 -7.041,25.756l0,0Zm1.745,2.493c0.022,5.58 1.323,11.637 1.353,19.337c0.006,1.556 0.249,16.249 0.09,19.147l8.748,-0.109c-0.186,-2.898 -1.005,-17.587 -1.01,-19.143c-0.034,-7.696 1.673,-13.742 1.654,-19.317c-0.036,-9.19 -5.486,-23.564 -5.486,-23.564c0,0 -5.387,14.46 -5.349,23.649l0,0Z" style="fill:#fff;fill-opacity:0.117647;"/><path d="M46.872,77.197c-2.729,-1.314 -4.669,-4.002 -4.678,-5.333l-0.035,-4.728l15.657,-0.094l0.025,4.732c0.008,0.837 -0.764,2.242 -2.022,3.5l-0.001,-0.001c-0.723,0.723 -1.609,1.399 -2.602,1.891l0.104,14.846c-2.026,-0.892 -4.336,-0.878 -6.351,0.039l-0.097,-14.852Z" style="fill:url(#_Linear2);"/><path d="M50.125,90.12c-3.794,0.022 -6.14,4.143 -4.224,7.417c1.917,3.274 6.658,3.246 8.536,-0.051c0.428,-0.751 0.65,-1.603 0.645,-2.468c-0.007,-2.725 -2.232,-4.924 -4.957,-4.898Z" style="fill:url(#_Radial3);fill-rule:nonzero;"/></g><defs><radialGradient id="_Radial1" cx="0" cy="0" r="1" gradientUnits="userSpaceOnUse" gradientTransform="matrix(-2.13163e-14,-67.3732,11.5611,3.55271e-15,49.6916,63.8965)"><stop offset="0" style="stop-color:#999;stop-opacity:1"/><stop offset="0.3" style="stop-color:#d36507;stop-opacity:1"/><stop offset="0.63" style="stop-color:#d36507;stop-opacity:1"/><stop offset="1" style="stop-color:#a14d05;stop-opacity:1"/></radialGradient><linearGradient id="_Linear2" x1="0" y1="0" x2="1" y2="0" gradientUnits="userSpaceOnUse" gradientTransform="matrix(12.4824,-0.156642,0.156642,12.4824,43.7189,77.3711)"><stop offset="0" style="stop-color:#301203;stop-opacity:1"/><stop offset="0.5" style="stop-color:#582106;stop-opacity:1"/><stop offset="1" style="stop-color:#301203;stop-opacity:1"/></linearGradient><radialGradient id="_Radial3" cx="0" cy="0" r="1" gradientUnits="userSpaceOnUse" gradientTransform="matrix(3.52854,-3.54609,3.54609,3.52854,50.2568,94.8719)"><stop offset="0" style="stop-color:#582106;stop-opacity:1"/><stop offset="0.58" style="stop-color:#501e05;stop-opacity:1"/><stop offset="0.8" style="stop-color:#401804;stop-opacity:1"/><stop offset="1" style="stop-color:#301203;stop-opacity:1"/></radialGradient></defs></svg>