<svg width="100px" height="100px" viewBox="0 0 100 100" version="1.1" xmlns="http://www.w3.org/2000/svg" xmlns:xlink="http://www.w3.org/1999/xlink" xml:space="preserve" xmlns:serif="http://www.serif.com/" style="fill-rule:evenodd;clip-rule:evenodd;stroke-linejoin:round;stroke-miterlimit:1.41421;"><path d="M70.221,100.639l-26.758,-0.462l-24.761,-34.924l0.009,-14.505l9.573,2.555l10.91,11.964l-7.172,-12.348l5.672,-9.517l-9.16,-21.028l12.209,-20.735l16.536,5.129l12.1,19.179l-8.025,1.789l-9.027,-9.452l7.096,11.053l-0.396,9.178l-7.658,3.431l8.465,-1.408l9.871,4.955l7.941,-7.254l7.814,7.429l4.051,13.682l-5.789,-6.225l-17.682,9.529l-12.862,-3.837l2.877,-6.604l-6.846,-2.331l4.733,3.692l-2.814,6.128l13.897,5.36l5.129,20.076l-5.552,7.28l8.898,-7.24l14.69,-2.155l-17.968,17.616l-0.001,0Z" style="fill:#131313;fill-rule:nonzero;stroke:#000;stroke-width:0.6px;"/><path d="M71.974,83.794l-4.923,-19.228l16.447,-8.901l12.255,13.542l-4.261,11.924l-19.518,2.663Zm-41.728,-31.749l-13.499,-3.565l-4.634,-15.788l15.082,-8.549l8.433,19.205l-5.382,8.697l0,0Zm39.29,-8.897l-8.763,-4.488l0.359,-8.872l9.955,-2.264l6.108,8.971l-7.659,6.652l0,0.001Z" style="fill:#0046aa;fill-rule:nonzero;stroke:#000;stroke-width:0.6px;"/><g><path d="M28.448,23.006c8.631,6.009 15.027,11.767 14.272,12.851c-0.754,1.083 -8.374,-2.916 -17.005,-8.926c-8.631,-6.009 -15.026,-11.767 -14.272,-12.851c0.754,-1.083 8.374,2.917 17.005,8.926Z" style="fill:url(#_Radial1);"/><path d="M27.679,27.284c-4.458,1.15 -8.345,1.046 -8.675,-0.232c-0.33,-1.278 3.022,-3.249 7.481,-4.399c4.458,-1.15 8.345,-1.046 8.675,0.232c0.329,1.278 -3.023,3.25 -7.481,4.399Z" style="fill:url(#_Radial2);"/><path d="M29.469,25.118c-0.433,6.906 -1.853,12.445 -3.171,12.362c-1.317,-0.082 -2.035,-5.755 -1.603,-12.661c0.432,-6.905 1.853,-12.445 3.17,-12.362c1.318,0.082 2.036,5.756 1.604,12.661Z" style="fill:url(#_Radial3);"/></g><g><path d="M82.151,55.121c8.258,-4.081 15.378,-6.553 15.89,-5.517c0.512,1.036 -5.776,5.192 -14.034,9.273c-8.258,4.082 -15.378,6.554 -15.89,5.517c-0.513,-1.036 5.776,-5.191 14.034,-9.273Z" style="fill:url(#_Radial4);"/><path d="M85.108,57.52c-1.002,3.906 -2.725,6.844 -3.845,6.557c-1.12,-0.288 -1.215,-3.692 -0.213,-7.598c1.002,-3.907 2.725,-6.844 3.845,-6.557c1.12,0.287 1.215,3.692 0.213,7.598Z" style="fill:url(#_Radial5);"/><path d="M84.202,55.231c5.115,3.25 8.764,6.681 8.144,7.657c-0.62,0.976 -5.276,-0.871 -10.391,-4.121c-5.114,-3.25 -8.763,-6.681 -8.143,-7.657c0.62,-0.976 5.276,0.871 10.39,4.121Z" style="fill:url(#_Radial6);"/></g><defs><radialGradient id="_Radial1" cx="0" cy="0" r="1" gradientUnits="userSpaceOnUse" gradientTransform="matrix(15.6385,10.8881,-1.36652,1.96273,27.0818,24.9686)"><stop offset="0" style="stop-color:#227cfe;stop-opacity:1"/><stop offset="1" style="stop-color:#227cfe;stop-opacity:0"/></radialGradient><radialGradient id="_Radial2" cx="0" cy="0" r="1" gradientUnits="userSpaceOnUse" gradientTransform="matrix(-8.07788,2.08332,-0.597259,-2.31581,27.0818,24.9686)"><stop offset="0" style="stop-color:#227cfe;stop-opacity:1"/><stop offset="1" style="stop-color:#227cfe;stop-opacity:0"/></radialGradient><radialGradient id="_Radial3" cx="0" cy="0" r="1" gradientUnits="userSpaceOnUse" gradientTransform="matrix(-0.783376,12.5119,-2.38692,-0.149446,27.0818,24.9686)"><stop offset="0" style="stop-color:#227cfe;stop-opacity:1"/><stop offset="1" style="stop-color:#227cfe;stop-opacity:0"/></radialGradient><radialGradient id="_Radial4" cx="0" cy="0" r="1" gradientUnits="userSpaceOnUse" gradientTransform="matrix(14.9622,-7.39517,0.928139,1.87784,83.0789,56.9992)"><stop offset="0" style="stop-color:#227cfe;stop-opacity:1"/><stop offset="1" style="stop-color:#227cfe;stop-opacity:0"/></radialGradient><radialGradient id="_Radial5" cx="0" cy="0" r="1" gradientUnits="userSpaceOnUse" gradientTransform="matrix(-1.81584,7.07735,-2.02897,-0.520576,83.0789,56.9992)"><stop offset="0" style="stop-color:#227cfe;stop-opacity:1"/><stop offset="1" style="stop-color:#227cfe;stop-opacity:0"/></radialGradient><radialGradient id="_Radial6" cx="0" cy="0" r="1" gradientUnits="userSpaceOnUse" gradientTransform="matrix(9.26727,5.88899,-1.12345,1.76793,83.0789,56.9992)"><stop offset="0" style="stop-color:#227cfe;stop-opacity:1"/><stop offset="1" style="stop-color:#227cfe;stop-opacity:0"/></radialGradient></defs></svg>