<svg width="100px" height="100px" viewBox="0 0 100 100" version="1.1" xmlns="http://www.w3.org/2000/svg" xmlns:xlink="http://www.w3.org/1999/xlink" xml:space="preserve" xmlns:serif="http://www.serif.com/" style="fill-rule:evenodd;clip-rule:evenodd;stroke-linejoin:round;stroke-miterlimit:1.41421;"><g><path d="M61.003,11.654l-21.363,21.678l-6.044,19.483l3.937,8.242l4.582,2.084l7.447,-12.362l2.535,-0.81l13.858,6.026l4.547,-2.917l1.003,-9.808l2.563,12.037l-2.384,3.178l0.847,0.368l1.175,1.459l1.534,7.708l12.562,-14.986l3.138,0.051l5.026,6.413l-2.121,-11.725l-6.745,-23.124l-26.096,-12.995l-0.001,0Z" style="fill:#131313;fill-rule:nonzero;"/><path d="M87.1,24.649l6.745,23.124l2.121,11.725l-5.026,-6.413l-3.138,-0.051l-12.562,14.986l-1.534,-7.708l-1.175,-1.459l-0.847,-0.368l2.384,-3.178l-2.563,-12.037l-1.003,9.808l-4.547,2.917l-13.858,-6.026l-2.535,0.81l-7.447,12.362l-4.582,-2.084l-3.937,-8.242l6.044,-19.483l21.363,-21.678l0.001,0l26.096,12.995Zm-46.931,8.999l-5.931,19.121l3.741,7.833l3.898,1.773l7.172,-11.905l0.063,-0.087l0.078,-0.074l0.09,-0.059l0.099,-0.041l2.536,-0.811l0.105,-0.023l0.107,-0.004l0.107,0.015l0.102,0.034l13.565,5.898l4.035,-2.589l0.973,-9.52l0.025,-0.118l0.047,-0.111l0.069,-0.099l0.088,-0.084l0.102,-0.064l0.113,-0.042l0.12,-0.019l0.121,0.006l0.117,0.03l0.109,0.052l0.095,0.074l0.08,0.091l0.059,0.105l0.037,0.116l2.563,12.036l0.013,0.102l-0.005,0.102l-0.022,0.099l-0.039,0.095l-0.054,0.086l-1.929,2.572l0.152,0.066l0.084,0.045l0.077,0.059l0.066,0.07l1.176,1.458l0.054,0.08l0.041,0.087l0.026,0.092l1.289,6.482l11.76,-14.028l0.076,-0.075l0.087,-0.061l0.097,-0.044l0.103,-0.027l0.106,-0.007l3.138,0.051l0.105,0.012l0.103,0.029l0.095,0.048l0.085,0.063l0.073,0.078l3.535,4.51l-1.685,-9.315l-6.662,-22.842l-25.474,-12.686l-20.956,21.265Z"/><path d="M18.149,13.699l-7.012,12.372l-1.093,6.559l6.169,-2.005l2.779,1.752l0.02,0.151l6.719,14.215l3.27,-1.079l2.598,1.108l0.931,1.95l4.635,-14.94l-0.256,-7.916l-9.533,-0.124l-7.06,-5.646l8.875,3.206l6.899,0.403l6.182,3.77l11.018,-11.6c-0.659,-0.28 -1.333,-0.559 -2.037,-0.836l-18.897,2.405l-0.838,-0.06l-13.37,-3.685l0.001,0Z" style="fill:#131313;fill-rule:nonzero;"/><path d="M18.149,13.699l13.369,3.685l0.838,0.06l18.897,-2.405l0.262,0.104l0.26,0.104l0.258,0.104l0.255,0.105l0.253,0.104l0.251,0.105l0.498,0.21l-11.018,11.6l-6.182,-3.77l-6.899,-0.403l-8.875,-3.206l7.06,5.646l9.533,0.124l0.256,7.916l-4.635,14.94l-0.931,-1.95l-2.598,-1.108l-3.27,1.079l-6.719,-14.215l-0.02,-0.151l-2.779,-1.752l-6.169,2.005l1.093,-6.559l7.012,-12.372l-0.001,0l0.001,0l0,0Zm-6.439,12.575l-0.913,5.481l5.231,-1.699l0.085,-0.021l0.087,-0.009l0.087,0.005l0.086,0.017l0.082,0.03l0.077,0.041l2.779,1.751l0.071,0.052l0.062,0.062l0.052,0.07l0.042,0.077l0.03,0.082l0.018,0.085l0.007,0.058l6.453,13.652l2.767,-0.913l0.084,-0.021l0.086,-0.009l0.087,0.004l0.084,0.016l0.082,0.028l2.598,1.108l0.077,0.04l0.07,0.05l0.062,0.06l0.054,0.068l0.042,0.075l0.272,0.569l4.152,-13.382l-0.234,-7.243l-8.961,-0.117l-0.099,-0.009l-0.095,-0.026l-0.09,-0.041l-0.082,-0.055l-7.06,-5.647l-0.072,-0.068l-0.06,-0.079l-0.046,-0.087l-0.031,-0.094l-0.015,-0.098l0.002,-0.099l0.017,-0.098l0.034,-0.093l0.048,-0.086l0.062,-0.078l0.074,-0.065l0.084,-0.053l0.091,-0.039l0.096,-0.023l0.099,-0.006l0.099,0.01l0.095,0.025l8.793,3.178l6.813,0.397l0.097,0.013l0.093,0.029l0.087,0.044l5.769,3.519l10.087,-10.62l-0.198,-0.082l-0.253,-0.104l-0.255,-0.103l-0.258,-0.103l-0.118,-0.047l-18.744,2.385l-0.059,0.005l-0.059,-0.002l-0.838,-0.059l-0.059,-0.007l-0.058,-0.013l-12.919,-3.561l-6.73,11.873Z"/><path d="M18.35,34.526l-14.364,4.668l-3.736,17.565l11.358,1.248l0.133,-1.596l8.422,-8.208l-1.813,-13.676l0,-0.001Z" style="fill:#131313;fill-rule:nonzero;"/><path d="M18.35,34.527l1.813,13.676l-8.422,8.208l-0.133,1.596l-11.358,-1.248l3.736,-17.565l14.364,-4.668l0,0.001Zm-13.85,5.13l-3.526,16.579l10.088,1.109l0.082,-0.984l0.01,-0.071l0.019,-0.069l0.026,-0.066l0.035,-0.062l0.041,-0.059l0.048,-0.052l8.206,-7.998l-1.679,-12.666l-13.35,4.339Z"/><path d="M29.316,47.039l-8.124,2.679l-7.054,6.875l5.036,6.881l12.779,0.388l3.678,-3.603l-6.315,-13.219l0,-0.001Z" style="fill:#131313;fill-rule:nonzero;"/><path d="M29.316,47.04l6.315,13.219l-3.678,3.603l-12.779,-0.388l-5.036,-6.881l7.054,-6.875l8.124,-2.679l0,0.001Zm-7.805,3.204l-6.582,6.415l4.555,6.225l12.232,0.371l3.19,-3.124l-5.904,-12.358l-7.491,2.471Z"/><path d="M52.259,51.583l-10.434,17.32l-0.008,13.455l22.905,2.877l10.418,-4.598l-4.16,-20.913l-18.721,-8.14l0,-0.001Z" style="fill:#131313;fill-rule:nonzero;"/><path d="M52.259,51.584l18.721,8.14l4.16,20.913l-10.418,4.598l-22.905,-2.877l0.008,-13.455l10.434,-17.32l0,0.001Zm-9.835,17.485l-0.008,12.761l22.216,2.79l9.827,-4.337l-4.005,-20.135l-17.953,-7.806l-10.077,16.727Z"/><path d="M89.085,54.197l-11.258,13.429l0.069,0.427l15.658,3.338l6.196,-3.588l-10.664,-13.607l-0.001,0.001Z" style="fill:#131313;fill-rule:nonzero;"/><path d="M99.75,67.803l-6.196,3.588l-15.658,-3.338l-0.069,-0.427l11.258,-13.429l0.001,-0.001l10.664,13.607Zm-21.118,-0.206l14.821,3.16l5.4,-3.127l-9.783,-12.483l-10.438,12.45Z"/><path d="M6.736,61.661l-3.039,9.879l4.557,16.806l31.546,-4.127l0.458,-9.154l-21.686,-11.087l-11.836,-2.317l0,0Z" style="fill:#131313;fill-rule:nonzero;"/><path d="M6.736,61.661l11.836,2.317l21.686,11.087l-0.458,9.154l-31.546,4.127l-4.557,-16.806l3.039,-9.879l0,0Zm-2.416,9.89l4.375,16.133l30.532,-3.994l0.413,-8.268l-21.266,-10.873l-11.224,-2.196l-2.83,9.198Z"/><g><path d="M72.83,23.655l9.868,13.845l0.442,13.109l-5.302,-12.52l-13.699,-12.667l8.691,-1.767Z" style="fill:#0046aa;fill-rule:nonzero;"/><path d="M82.698,37.5l0.442,13.109l-5.302,-12.52l-13.699,-12.667l8.691,-1.767l9.868,13.845Zm-17.294,-11.724l12.841,11.874l0.044,0.045l0.039,0.05l0.034,0.054l0.028,0.057l4.043,9.547l-0.327,-9.703l-9.538,-13.381l-7.164,1.457Z"/><path d="M58.693,58.641l9.238,5.38l3.158,11.929l-6.315,5.613l-10.601,-0.601l9.081,-6.65l0.585,-9.239l-5.146,-6.431l0,-0.001Z" style="fill:#0046aa;fill-rule:nonzero;"/><path d="M67.931,64.021l3.158,11.929l-6.315,5.613l-10.601,-0.601l9.081,-6.65l0.585,-9.239l-5.146,-6.431l0,-0.001l9.238,5.38Zm-3.625,0.678l0.043,0.06l0.034,0.065l0.027,0.069l0.018,0.072l0.009,0.073l-0.001,0.073l-0.584,9.238l-0.008,0.065l-0.015,0.064l-0.021,0.062l-0.029,0.059l-0.034,0.056l-0.041,0.051l-0.045,0.047l-0.051,0.042l-7.734,5.664l8.687,0.492l5.855,-5.204l-3,-11.334l-6.249,-3.638l3.139,3.924Z"/></g></g><g><path d="M65.054,26.461c-3.563,3.043 -6.765,5.151 -7.147,4.704c-0.382,-0.447 2.2,-3.281 5.763,-6.324c3.562,-3.043 6.764,-5.151 7.146,-4.704c0.382,0.447 -2.2,3.281 -5.762,6.324Z" style="fill:url(#_Radial1);"/><path d="M63.296,25.648c0.007,-2.052 0.49,-3.715 1.078,-3.713c0.588,0.002 1.06,1.668 1.053,3.72c-0.007,2.051 -0.489,3.714 -1.078,3.713c-0.588,-0.002 -1.06,-1.669 -1.053,-3.72Z" style="fill:url(#_Radial2);"/><path d="M64.028,26.663c-2.927,-0.964 -5.155,-2.201 -4.971,-2.759c0.184,-0.559 2.71,-0.229 5.638,0.735c2.928,0.964 5.155,2.201 4.971,2.759c-0.184,0.559 -2.71,0.229 -5.638,-0.735Z" style="fill:url(#_Radial3);"/></g><g><path d="M71.875,74.899c3.028,3.576 5.121,6.788 4.673,7.168c-0.449,0.38 -3.272,-2.215 -6.299,-5.791c-3.028,-3.575 -5.121,-6.787 -4.673,-7.167c0.449,-0.38 3.271,2.215 6.299,5.79Z" style="fill:url(#_Radial4);"/><path d="M71.054,76.653c-2.051,-0.015 -3.713,-0.505 -3.708,-1.093c0.004,-0.588 1.673,-1.053 3.724,-1.038c2.051,0.016 3.713,0.506 3.708,1.094c-0.004,0.588 -1.673,1.053 -3.724,1.037Z" style="fill:url(#_Radial5);"/><path d="M72.072,75.926c-0.977,2.923 -2.223,5.145 -2.78,4.959c-0.558,-0.187 -0.218,-2.711 0.759,-5.635c0.978,-2.923 2.224,-5.146 2.781,-4.959c0.558,0.186 0.218,2.711 -0.76,5.635Z" style="fill:url(#_Radial6);"/></g><defs><radialGradient id="_Radial1" cx="0" cy="0" r="1" gradientUnits="userSpaceOnUse" gradientTransform="matrix(-6.45481,5.51394,-0.692033,-0.810118,64.3616,25.6511)"><stop offset="0" style="stop-color:#227cfe;stop-opacity:1"/><stop offset="1" style="stop-color:#227cfe;stop-opacity:0"/></radialGradient><radialGradient id="_Radial2" cx="0" cy="0" r="1" gradientUnits="userSpaceOnUse" gradientTransform="matrix(0.0120732,-3.71644,1.06545,0.00346122,64.3616,25.6511)"><stop offset="0" style="stop-color:#227cfe;stop-opacity:1"/><stop offset="1" style="stop-color:#227cfe;stop-opacity:0"/></radialGradient><radialGradient id="_Radial3" cx="0" cy="0" r="1" gradientUnits="userSpaceOnUse" gradientTransform="matrix(-5.30465,-1.74721,0.333318,-1.01198,64.3616,25.6511)"><stop offset="0" style="stop-color:#227cfe;stop-opacity:1"/><stop offset="1" style="stop-color:#227cfe;stop-opacity:0"/></radialGradient><radialGradient id="_Radial4" cx="0" cy="0" r="1" gradientUnits="userSpaceOnUse" gradientTransform="matrix(5.48566,6.47886,-0.813136,0.688483,71.0619,75.5879)"><stop offset="0" style="stop-color:#227cfe;stop-opacity:1"/><stop offset="1" style="stop-color:#227cfe;stop-opacity:0"/></radialGradient><radialGradient id="_Radial5" cx="0" cy="0" r="1" gradientUnits="userSpaceOnUse" gradientTransform="matrix(-3.71636,-0.0283256,0.00812054,-1.06543,71.0619,75.5879)"><stop offset="0" style="stop-color:#227cfe;stop-opacity:1"/><stop offset="1" style="stop-color:#227cfe;stop-opacity:0"/></radialGradient><radialGradient id="_Radial6" cx="0" cy="0" r="1" gradientUnits="userSpaceOnUse" gradientTransform="matrix(-1.77039,5.29696,-1.01051,-0.33774,71.0619,75.5879)"><stop offset="0" style="stop-color:#227cfe;stop-opacity:1"/><stop offset="1" style="stop-color:#227cfe;stop-opacity:0"/></radialGradient></defs></svg>