<svg width="100px" height="100px" viewBox="0 0 100 100" version="1.1" xmlns="http://www.w3.org/2000/svg" xmlns:xlink="http://www.w3.org/1999/xlink" xml:space="preserve" xmlns:serif="http://www.serif.com/" style="fill-rule:evenodd;clip-rule:evenodd;stroke-linecap:round;stroke-linejoin:round;stroke-miterlimit:1.5;"><g><path d="M49.869,1.663c-0.084,-1.62 -3.715,0.313 -4.934,0.313c-0.799,0 -2.357,-1.1 -2.377,-0.313c-0.396,15.969 -1.218,80.107 0,96.129c0.182,2.392 7.129,2.392 7.311,0c1.218,-16.022 0.822,-80.16 0,-96.129l0,0Z" style="fill:url(#_Linear1);stroke:#000;stroke-width:0.3px;"/><g><path d="M42.375,3.684l-1.865,0.793l-36.485,-1.745l0,0c-4.001,10.414 -3.406,20.599 1.785,30.555l17.349,-6.12c2.795,-4.477 7.849,-7.488 17.216,-10.954l1.758,1.56c-0.427,-1.44 7.997,-1.92 8.312,-0.576l1.463,-1.43c1.514,-0.213 4.469,-1.486 4.469,-1.486c0,0 4.739,-0.827 7.497,-0.89c11.042,-0.254 24.603,-0.384 34.713,2.529c-0.296,-0.314 -0.591,-0.628 -0.908,-0.933c-0.106,-0.102 -0.214,-0.203 -0.326,-0.302c-3.059,-2.728 -7.3,-5.007 -12.3,-6.884c-7.485,-2.808 -16.528,-4.664 -25.27,-6.002c-0.512,1.294 -6.649,2.788 -6.649,2.788l-1.554,0.372l-1.485,-0.97c-3.178,1.921 -4.595,1.875 -7.72,-0.305Z" style="fill:url(#_Radial2);fill-rule:nonzero;"/><path d="M8.449,31.944c-5.338,-8.214 -6.181,-17.786 -2.028,-28.869l-2.333,-0.044c-3.489,10.482 -3.245,20.453 2.05,29.726l2.311,-0.813Z" style="fill:#ff9133;fill-opacity:0.729412;fill-rule:nonzero;"/></g></g><defs><linearGradient id="_Linear1" x1="0" y1="0" x2="1" y2="0" gradientUnits="userSpaceOnUse" gradientTransform="matrix(7.3104,0,0,7.3104,42.5586,49.7272)"><stop offset="0" style="stop-color:#301203;stop-opacity:1"/><stop offset="0.5" style="stop-color:#582106;stop-opacity:1"/><stop offset="1" style="stop-color:#301203;stop-opacity:1"/></linearGradient><radialGradient id="_Radial2" cx="0" cy="0" r="1" gradientUnits="userSpaceOnUse" gradientTransform="matrix(-38.2542,3.47827,1.33792,22.4132,46.8375,17.5603)"><stop offset="0" style="stop-color:#999;stop-opacity:1"/><stop offset="0.33" style="stop-color:#d36507;stop-opacity:1"/><stop offset="1" style="stop-color:#d36507;stop-opacity:1"/></radialGradient></defs></svg>