<svg width="100px" height="100px" viewBox="0 0 100 100" version="1.1" xmlns="http://www.w3.org/2000/svg" xmlns:xlink="http://www.w3.org/1999/xlink" xml:space="preserve" xmlns:serif="http://www.serif.com/" style="fill-rule:evenodd;clip-rule:evenodd;stroke-linecap:round;stroke-linejoin:round;stroke-miterlimit:1.5;"><g><path d="M84.278,27.378c1.275,-1.415 -3.343,-2.824 -4.355,-3.836c-0.663,-0.663 -1.043,-2.87 -1.713,-2.233c-13.585,12.927 -67.506,65.484 -79.795,79.795c-1.834,2.136 3.932,7.903 6.069,6.068c14.31,-12.288 67.221,-65.856 79.794,-79.794l0,0Z" style="fill:url(#_Linear1);stroke:#000;stroke-width:0.35px;"/><g><path d="M57.465,30.137l3.335,1.007l-3.071,3.035l-1.016,5.171l9.223,9.245l4.805,-0.821l1.178,-1.166l1.461,1.539l9.837,9.821l15.278,15.328c0.306,-0.717 0.285,-2.619 0.344,-3.816c0.055,-1.12 0.034,-2.748 0.011,-3.364l-0.002,-0.119c-0.016,-0.457 -0.049,-0.928 -0.105,-1.416l0,0c-0.018,-0.162 -0.041,-0.327 -0.065,-0.493c-0.699,-4.89 -2.111,-12.357 -6.657,-18.143l-9.665,-9.663l1.221,-1.208l0.705,-5.196l-8.46,-8.482l-5.664,0.494l-3.103,3.059l-0.96,-3.339l-4.431,-14.483l-6.707,-6.787c-9.005,2.828 -15.528,8.108 -18.671,18.401l6.752,6.816l14.427,4.58Z" style="fill:#131313;"/><path d="M40.638,21.196l16.864,-16.959l-2.255,-2.91c-8.84,2.466 -15.12,7.464 -17.851,17.572l3.242,2.297Z" style="fill:#0046aa;fill-opacity:0.733333;"/></g></g><defs><linearGradient id="_Linear1" x1="0" y1="0" x2="1" y2="0" gradientUnits="userSpaceOnUse" gradientTransform="matrix(6.06819,6.06819,-6.06819,6.06819,38.3128,61.2065)"><stop offset="0" style="stop-color:#301203;stop-opacity:1"/><stop offset="0.5" style="stop-color:#582106;stop-opacity:1"/><stop offset="1" style="stop-color:#301203;stop-opacity:1"/></linearGradient></defs></svg>