<svg width="100px" height="100px" viewBox="0 0 100 100" version="1.1" xmlns="http://www.w3.org/2000/svg" xmlns:xlink="http://www.w3.org/1999/xlink" xml:space="preserve" xmlns:serif="http://www.serif.com/" style="fill-rule:evenodd;clip-rule:evenodd;stroke-linecap:round;stroke-linejoin:round;stroke-miterlimit:1.5;"><g><path d="M72.263,35.57c1.203,-1.333 -3.153,-2.663 -4.107,-3.617c-0.625,-0.625 -0.984,-2.706 -1.615,-2.105c-12.811,12.19 -63.66,61.752 -75.249,75.248c-1.729,2.014 3.709,7.452 5.723,5.723c13.496,-11.589 63.392,-62.105 75.248,-75.249l0,0Z" style="fill:url(#_Linear1);stroke:#000;stroke-width:0.33px;"/><g><path d="M64.815,31.286l-2.08,-0.839l-27.194,-29.926l-0.001,0c-11.283,5.02 -18.79,13.459 -22.52,25.315l18.372,8.79c5.691,-1.316 12.004,0.283 22.049,4.902l0.156,2.597c0.793,-1.461 7.762,4.757 6.957,6.056l2.265,0.026c1.352,1.019 4.661,2.335 4.661,2.335c0,0 4.358,3.062 6.566,5.172c8.841,8.444 19.558,18.958 25.193,29.152c0.013,-0.477 0.028,-0.954 0.019,-1.441c-0.003,-0.163 -0.009,-0.326 -0.018,-0.492c-0.26,-4.529 -1.795,-9.634 -4.241,-15.016c-3.66,-8.057 -9.286,-16.589 -15.082,-24.48c-1.414,0.612 -7.387,-3.022 -7.387,-3.022l-1.508,-0.925l-0.403,-1.922c-3.991,-0.984 -5.064,-2.129 -5.804,-6.282Z" style="fill:url(#_Radial2);fill-rule:nonzero;"/><path d="M16.137,26.851c2.251,-10.608 9.084,-18.761 21.011,-24.185l-1.792,-1.861c-10.937,5.473 -18.551,13.47 -21.665,24.873l2.446,1.173Z" style="fill:#ff9133;fill-opacity:0.729412;fill-rule:nonzero;"/></g></g><defs><linearGradient id="_Linear1" x1="0" y1="0" x2="1" y2="0" gradientUnits="userSpaceOnUse" gradientTransform="matrix(5.72245,5.72245,-5.72245,5.72245,28.9168,67.4717)"><stop offset="0" style="stop-color:#301203;stop-opacity:1"/><stop offset="0.5" style="stop-color:#582106;stop-opacity:1"/><stop offset="1" style="stop-color:#301203;stop-opacity:1"/></linearGradient><radialGradient id="_Radial2" cx="0" cy="0" r="1" gradientUnits="userSpaceOnUse" gradientTransform="matrix(-32.6674,-27.222,-16.4973,18.5919,57.4459,45.6415)"><stop offset="0" style="stop-color:#999;stop-opacity:1"/><stop offset="0.33" style="stop-color:#d36507;stop-opacity:1"/><stop offset="1" style="stop-color:#d36507;stop-opacity:1"/></radialGradient></defs></svg>