<svg width="100px" height="100px" viewBox="0 0 100 100" version="1.1" xmlns="http://www.w3.org/2000/svg"  xml:space="preserve"  style="fill-rule:evenodd;clip-rule:evenodd;stroke-linecap:round;stroke-linejoin:round;stroke-miterlimit:1.5;"><g><path d="M67.38,15.196c1.657,-1.494 3.309,3.917 4.494,5.102c0.777,0.777 3.362,1.223 2.616,2.008c-15.144,15.914 -76.718,79.087 -93.484,93.483c-2.503,2.149 -9.259,-4.607 -7.109,-7.11c14.396,-16.765 77.154,-78.753 93.483,-93.483l0,0Z" style="fill:url(#_Linear1);stroke:#000;stroke-width:0.41px;"/><g><path d="M64.147,46.61l-1.18,-3.908l-3.555,3.598l-6.058,1.19l-10.831,-10.805l0.962,-5.63l1.365,-1.379l-1.803,-1.712l-8.432,-8.451l-17.957,-17.899c0.84,-0.359 3.224,-0.359 4.626,-0.428c1.26,-0.062 3.064,-0.015 3.786,0.012l0.139,0.002c0.535,0.019 1.088,0.057 1.659,0.123l0,0c0.19,0.021 0.384,0.049 0.578,0.077c5.728,0.819 14.476,2.472 21.255,7.798l8.247,8.25l1.415,-1.431l6.088,-0.825l9.937,9.911l-0.579,6.636l-3.583,3.635l3.912,1.125l16.968,5.191l7.951,7.857c-3.313,10.55 -9.5,18.192 -21.558,21.875l-7.986,-7.911l-5.366,-16.901Z" style="fill:#131313;"/><path d="M74.622,66.323l19.869,-19.757l3.41,2.641c-2.89,10.357 -8.746,17.715 -20.588,20.914l-2.691,-3.798Z" style="fill:#0046aa;fill-opacity:0.733333;"/></g></g><defs><linearGradient id="_Linear1" x1="0" y1="0" x2="1" y2="0" gradientUnits="userSpaceOnUse" gradientTransform="matrix(-7.10922,-7.10922,-7.10922,7.10922,27.748,69.047)"><stop offset="0" style="stop-color:#301203;stop-opacity:1"/><stop offset="0.5" style="stop-color:#582106;stop-opacity:1"/><stop offset="1" style="stop-color:#301203;stop-opacity:1"/></linearGradient></defs></svg>