<svg width="100px" height="100px" viewBox="0 0 100 100" version="1.1" xmlns="http://www.w3.org/2000/svg" xmlns:xlink="http://www.w3.org/1999/xlink" xml:space="preserve" xmlns:serif="http://www.serif.com/" style="fill-rule:evenodd;clip-rule:evenodd;stroke-linecap:round;stroke-linejoin:round;stroke-miterlimit:1.5;"><g><path d="M72.262,35.618c1.203,-1.335 -3.153,-2.664 -4.108,-3.619c-0.625,-0.625 -0.984,-2.706 -1.616,-2.106c-12.813,12.194 -63.675,61.768 -75.266,75.267c-1.731,2.015 3.709,7.454 5.724,5.724c13.499,-11.591 63.407,-62.12 75.266,-75.266l0,0Z" style="fill:url(#_Linear1);stroke:#000;stroke-width:0.33px;"/><g><path d="M64.812,31.332l-2.081,-0.839l-27.2,-29.933l-0.001,0c-11.286,5.021 -18.794,13.462 -22.525,25.321l18.376,8.792c5.692,-1.317 12.007,0.283 22.055,4.903l0.155,2.598c0.793,-1.461 7.765,4.758 6.959,6.058l2.266,0.025c1.352,1.019 4.662,2.336 4.662,2.336c0,0 4.358,3.063 6.567,5.173c8.844,8.446 19.564,18.962 25.199,29.159c0.014,-0.477 0.029,-0.954 0.02,-1.441c-0.003,-0.163 -0.009,-0.326 -0.019,-0.492c-0.259,-4.531 -1.795,-9.636 -4.241,-15.02c-3.661,-8.059 -9.289,-16.593 -15.086,-24.486c-1.414,0.612 -7.389,-3.023 -7.389,-3.023l-1.508,-0.925l-0.403,-1.922c-3.993,-0.984 -5.066,-2.13 -5.806,-6.284Z" style="fill:url(#_Radial2);fill-rule:nonzero;"/><path d="M16.122,26.896c2.252,-10.611 9.087,-18.766 21.016,-24.191l-1.792,-1.861c-10.939,5.474 -18.555,13.473 -21.67,24.879l2.446,1.173Z" style="fill:#999;fill-rule:nonzero;"/></g></g><defs><linearGradient id="_Linear1" x1="0" y1="0" x2="1" y2="0" gradientUnits="userSpaceOnUse" gradientTransform="matrix(5.72384,5.72384,-5.72384,5.72384,28.9053,67.5266)"><stop offset="0" style="stop-color:#301203;stop-opacity:1"/><stop offset="0.5" style="stop-color:#582106;stop-opacity:1"/><stop offset="1" style="stop-color:#301203;stop-opacity:1"/></linearGradient><radialGradient id="_Radial2" cx="0" cy="0" r="1" gradientUnits="userSpaceOnUse" gradientTransform="matrix(-34.0234,-34.0234,-12.3728,11.6272,57.4413,45.6911)"><stop offset="0" style="stop-color:#8c8c8c;stop-opacity:1"/><stop offset="1" style="stop-color:#c6c6c6;stop-opacity:1"/></radialGradient></defs></svg>