<svg width="100px" height="100px" viewBox="0 0 100 100" version="1.1" xmlns="http://www.w3.org/2000/svg" xmlns:xlink="http://www.w3.org/1999/xlink" xml:space="preserve" style="fill-rule:evenodd;clip-rule:evenodd;stroke-linecap:round;stroke-linejoin:round;stroke-miterlimit:1.5;"><g><path d="M83.424,22.051c1.197,-1.337 -3.353,-2.863 -4.373,-3.883c-0.668,-0.668 -1.111,-2.832 -1.744,-2.233c-4.194,3.977 -12.946,15.427 -22.79,24.597c-3.516,3.276 -8.025,5.831 -11.716,9.264c-7.053,6.562 -15.175,17.028 -21.441,23.319c-9.091,9.129 -15.497,13.501 -19.259,18.027c-1.698,2.042 4.093,7.835 6.116,6.116c5,-4.248 15.116,-13.72 25.96,-24.997c4.044,-4.205 5.774,-7.341 10.074,-11.666c2.027,-2.04 6.884,-5.009 8.88,-7.031c3.581,-3.628 7.516,-6.36 10.812,-9.742c8.839,-9.069 15.795,-17.656 19.481,-21.771l0,0Z" style="fill:url(#_Linear1);stroke:#000;stroke-width:0.34px;"/><path d="M94.827,41.881c0.607,-4.196 -8.939,-12.556 -12.286,-16.638c-2.337,-2.851 -5.927,-6.575 -7.797,-7.855c-0.977,-0.669 -2.568,0.259 -3.424,0.17c-0.602,-0.062 -1.194,-0.356 -1.708,-0.704c-0.831,-0.562 -2.163,-1.807 -3.275,-2.67c-1.282,-0.995 -2.913,-2.245 -4.418,-3.298c-1.755,-1.228 -4.03,-2.788 -6.112,-4.07c-2.653,-1.634 -9.489,-7.469 -9.803,-5.734c-0.315,1.736 5.564,12.561 7.914,16.149c1.494,2.279 5.01,3.554 6.188,5.378c1.04,1.612 0.459,3.888 0.878,5.566c0.385,1.54 0.935,3.296 1.635,4.503c0.625,1.078 1.751,1.792 2.565,2.742c0.983,1.147 2.357,2.931 3.329,4.138c0.833,1.035 1.584,2.142 2.503,3.104c1.731,1.81 4.332,7.876 7.884,7.759c3.968,-0.13 15.32,-4.344 15.927,-8.54Z" style="fill:url(#_Radial2);stroke:#000;stroke-width:0.33px;stroke-linecap:butt;stroke-miterlimit:1.41421;"/><path d="M93.9,39.464c-0.923,1.225 -5.487,3.917 -8.263,5.434c-2.713,1.483 -7.924,2.989 -9.177,3.855c-0.312,0.216 0.44,0.705 1.347,1.1c1.383,0.6 6.167,-1.002 8.927,-2.259c2.748,-1.252 7.047,-3.466 7.634,-5.286c0.342,-1.062 -0.222,-3.171 -0.468,-2.844Z" style="fill:url(#_Linear3);"/></g><defs><linearGradient id="_Linear1" x1="0" y1="0" x2="1" y2="0" gradientUnits="userSpaceOnUse" gradientTransform="matrix(6.11602,6.11602,-5.71931,5.71931,39.7044,53.5385)"><stop offset="0" style="stop-color:#301203;stop-opacity:1"/><stop offset="0.5" style="stop-color:#582106;stop-opacity:1"/><stop offset="1" style="stop-color:#301203;stop-opacity:1"/></linearGradient><radialGradient id="_Radial2" cx="0" cy="0" r="1" gradientUnits="userSpaceOnUse" gradientTransform="matrix(43.4866,-43.9972,43.2295,42.7269,53.0485,44.6872)"><stop offset="0" style="stop-color:#545454;stop-opacity:1"/><stop offset="0.59" style="stop-color:#6d6d6d;stop-opacity:1"/><stop offset="0.8" style="stop-color:#595959;stop-opacity:1"/><stop offset="1" style="stop-color:#4f4f4f;stop-opacity:1"/></radialGradient><linearGradient id="_Linear3" x1="0" y1="0" x2="1" y2="0" gradientUnits="userSpaceOnUse" gradientTransform="matrix(19.959,20.519,-19.2257,18.6268,70.2832,32.687)"><stop offset="0" style="stop-color:#b8b8b8;stop-opacity:1"/><stop offset="0.66" style="stop-color:#ababab;stop-opacity:1"/><stop offset="0.85" style="stop-color:#808080;stop-opacity:1"/><stop offset="1" style="stop-color:#333;stop-opacity:1"/></linearGradient></defs></svg>