<svg width="100px" height="100px" viewBox="0 0 100 100" version="1.1" xmlns="http://www.w3.org/2000/svg"  xml:space="preserve"  style="fill-rule:evenodd;clip-rule:evenodd;stroke-linecap:round;stroke-linejoin:round;stroke-miterlimit:1.5;"><g><path d="M46.41,1.362c0.084,-1.62 3.715,0.313 4.934,0.313c0.799,0 2.357,-1.1 2.377,-0.313c0.396,15.969 1.218,80.107 0,96.129c-0.182,2.392 -7.129,2.392 -7.311,0c-1.218,-16.022 -0.822,-80.16 0,-96.129l0,0Z" style="fill:url(#_Linear1);stroke:#000;stroke-width:0.3px;"/><g><path d="M60.899,19.176l-2.615,-1.403l0.022,3.678l-2.503,3.727l-11.124,0.013l-2.4,-3.389l-0.008,-1.411l-1.806,0.047l-8.681,-0.01l-18.436,0.029c0.248,-0.616 1.406,-1.748 2.092,-2.505c0.641,-0.708 1.635,-1.676 2.02,-2.033l0.072,-0.071c0.285,-0.265 0.589,-0.529 0.916,-0.79l0,0.001c0.109,-0.087 0.223,-0.173 0.337,-0.258c3.366,-2.524 8.714,-6.172 14.938,-6.919l8.482,0.002l-0.009,-1.464l2.706,-3.554l10.205,-0.014l3.114,3.71l0.027,3.711l2.59,-1.432l11.393,-6.055l8.128,-0.049c3.72,7.128 4.469,14.238 0.162,22.331l-8.173,0.039l-11.449,-5.931Z" style="fill:#131313;"/><path d="M76.421,23.926l0.057,-20.374l3.111,-0.395c3.84,6.81 4.612,13.604 0.168,21.338l-3.336,-0.569Z" style="fill:#0046aa;fill-opacity:0.733333;"/></g></g><defs><linearGradient id="_Linear1" x1="0" y1="0" x2="1" y2="0" gradientUnits="userSpaceOnUse" gradientTransform="matrix(-7.3104,0,0,7.3104,53.721,49.4264)"><stop offset="0" style="stop-color:#301203;stop-opacity:1"/><stop offset="0.5" style="stop-color:#582106;stop-opacity:1"/><stop offset="1" style="stop-color:#301203;stop-opacity:1"/></linearGradient></defs></svg>