<svg width="100px" height="100px" viewBox="0 0 100 100" version="1.1" xmlns="http://www.w3.org/2000/svg" xmlns:xlink="http://www.w3.org/1999/xlink" xml:space="preserve" xmlns:serif="http://www.serif.com/" style="fill-rule:evenodd;clip-rule:evenodd;stroke-linecap:round;stroke-linejoin:round;stroke-miterlimit:1.5;"><g><g><path d="M47.065,1.927c0.084,-1.62 3.715,0.313 4.934,0.313c0.799,0 2.357,-1.1 2.377,-0.313c0.129,5.222 -1.483,18.134 -1.08,30.285c0.143,4.341 1.312,8.855 1.465,13.408c0.294,8.702 -1.107,20.581 -1.122,28.607c-0.023,11.643 1.193,18.533 0.737,23.829c-0.206,2.39 -7.129,2.392 -7.311,0c-0.45,-5.911 -0.834,-18.429 -0.576,-32.566c0.097,-5.273 0.937,-8.382 0.952,-13.894c0.007,-2.6 -1.12,-7.601 -1.105,-10.169c0.028,-4.607 -0.691,-8.868 -0.64,-13.136c0.137,-11.445 1.112,-21.379 1.369,-26.364l0,0Z" style="fill:url(#_Linear1);stroke:#000;stroke-width:0.3px;"/><path d="M28.399,7.313c2.145,-3.07 12.846,-2.312 17.286,-2.782c3.101,-0.328 7.471,-0.414 9.355,-0.037c0.983,0.197 1.379,1.807 1.944,2.297c0.397,0.345 0.926,0.536 1.442,0.642c0.832,0.171 2.372,0.227 3.553,0.386c1.36,0.184 3.082,0.427 4.611,0.716c1.782,0.337 4.075,0.794 6.086,1.305c2.561,0.651 10.134,1.29 9.285,2.601c-0.85,1.31 -10.833,4.471 -14.381,5.262c-2.255,0.503 -5.118,-0.93 -6.912,-0.517c-1.586,0.365 -2.599,2.191 -3.852,2.996c-1.15,0.739 -2.528,1.509 -3.668,1.833c-1.018,0.29 -2.118,0.026 -3.172,0.113c-1.273,0.105 -3.16,0.367 -4.462,0.517c-1.117,0.129 -2.227,0.357 -3.351,0.384c-2.117,0.051 -7.296,2.265 -9.35,-0.079c-2.293,-2.62 -6.559,-12.568 -4.414,-15.637Z" style="fill:url(#_Radial2);stroke:#000;stroke-width:0.29px;stroke-linecap:butt;stroke-miterlimit:1.41421;"/><path d="M30.397,6.361c-0.18,1.372 0.938,6.01 1.691,8.753c0.735,2.681 2.949,6.974 3.181,8.329c0.057,0.337 -0.685,0.17 -1.463,-0.159c-1.185,-0.5 -3.087,-4.581 -3.985,-7.149c-0.894,-2.556 -2.14,-6.718 -1.403,-8.256c0.43,-0.897 2.027,-1.885 1.979,-1.518Z" style="fill:url(#_Linear3);"/></g></g><defs><linearGradient id="_Linear1" x1="0" y1="0" x2="1" y2="0" gradientUnits="userSpaceOnUse" gradientTransform="matrix(-7.3104,0,0,7.3104,54.3753,49.9914)"><stop offset="0" style="stop-color:#301203;stop-opacity:1"/><stop offset="0.5" style="stop-color:#582106;stop-opacity:1"/><stop offset="1" style="stop-color:#301203;stop-opacity:1"/></linearGradient><radialGradient id="_Radial2" cx="0" cy="0" r="1" gradientUnits="userSpaceOnUse" gradientTransform="matrix(0.305187,-55.9107,-51.3713,-0.321168,51.6902,35.8064)"><stop offset="0" style="stop-color:#545454;stop-opacity:1"/><stop offset="0.59" style="stop-color:#6d6d6d;stop-opacity:1"/><stop offset="0.8" style="stop-color:#595959;stop-opacity:1"/><stop offset="1" style="stop-color:#4f4f4f;stop-opacity:1"/></radialGradient><linearGradient id="_Linear3" x1="0" y1="0" x2="1" y2="0" gradientUnits="userSpaceOnUse" gradientTransform="matrix(-24.1914,0.357923,0.357923,24.1914,48.5619,17.1224)"><stop offset="0" style="stop-color:#b8b8b8;stop-opacity:1"/><stop offset="0.66" style="stop-color:#ababab;stop-opacity:1"/><stop offset="0.85" style="stop-color:#808080;stop-opacity:1"/><stop offset="1" style="stop-color:#333;stop-opacity:1"/></linearGradient></defs></svg>