<svg width="100px" height="100px" viewBox="0 0 100 100" version="1.1" xmlns="http://www.w3.org/2000/svg" xmlns:xlink="http://www.w3.org/1999/xlink" xml:space="preserve" xmlns:serif="http://www.serif.com/" style="fill-rule:evenodd;clip-rule:evenodd;stroke-linecap:round;stroke-miterlimit:1;"><g><g><g><path d="M3.845,6.926l16.814,18.31l0.742,0.859l2.14,50.284l-3.021,2.703l-16.663,14.007c-2.256,-2.764 -3.607,-6.277 -3.607,-10.099l0,-65.98c0,-3.884 1.395,-7.449 3.718,-10.233l-0.123,0.149Z" style="fill:#c86007;"/><path d="M23.541,76.379l0.342,-0.306l51.16,-2.121l18.623,21.583c-2.802,2.232 -6.365,3.569 -10.243,3.569l-66.846,0c-4.956,0 -9.399,-2.184 -12.394,-5.629l0.109,0.125l19.249,-17.221Z" style="fill:#b15506;"/><path d="M73.5,24.095l0.802,-0.718l20.874,-17.547c2.832,2.898 4.574,6.84 4.574,11.18l0,65.98c0,4.815 -2.145,9.14 -5.542,12.094l0.164,-0.145l-18.725,-20.39l-2.147,-50.454Z" style="fill:#f99f52;"/><path d="M83.423,0.896c4.383,0 8.365,1.708 11.299,4.486l-0.149,-0.139l-21.073,18.852l-0.471,0.422l-51.16,2.12l-0.468,-0.542l-17.051,-19.76l-0.128,0.145c2.994,-3.419 7.42,-5.584 12.355,-5.584l66.846,0Z" style="fill:#f77e17;"/><path d="M77.601,31.178c0,-5.469 -4.44,-9.909 -9.909,-9.909l-41.239,0c-5.469,0 -9.909,4.44 -9.909,9.909l0,40.571c0,5.469 4.44,9.909 9.909,9.909l41.239,0c5.469,0 9.909,-4.44 9.909,-9.909l0,-40.571Z" style="fill:#e26c08;stroke:#fff;stroke-width:0.17px;"/></g></g><g><path d="M0.256,28.813l-0.006,-3.169l8.063,-0.287l-8.057,3.456Z" style="fill:#cf823f;"/><path d="M67.918,21.465l-12.079,-0.018c0,0 8.032,13.624 12.121,29.102l-0.042,-29.084Z" style="fill:#cf823f;"/><path d="M99.75,51.511l0,3.007l-9.313,-2.701l9.313,-0.306Z" style="fill:#cf823f;"/><path d="M32.067,99.096l-3.416,0.008c0,0 -1.814,-5.802 -2.24,-7.821c-0.427,-2.02 -0.147,-6.543 0.125,-5.865c0.549,1.375 5.531,13.678 5.531,13.678Z" style="fill:#cf823f;"/></g></g></svg>