<svg width="100px" height="100px" viewBox="0 0 100 100" version="1.1" xmlns="http://www.w3.org/2000/svg"  xml:space="preserve"  style="fill-rule:evenodd;clip-rule:evenodd;stroke-linejoin:round;stroke-miterlimit:1.41421;"><g><path d="M89.813,10.206c-13.27,-13.265 -66.351,-13.28 -79.622,-0.012c-11.674,11.673 -11.675,67.95 0,79.621c13.271,13.265 66.352,13.238 79.622,-0.03c11.669,-11.667 11.669,-67.914 0,-79.579Z" style="fill:url(#_Radial1);"/><path d="M78.281,21.733c-9.427,-9.423 -47.132,-9.434 -56.558,-0.009c-8.294,8.292 -8.294,48.268 0,56.558c9.426,9.423 47.131,9.403 56.558,-0.022c8.288,-8.287 8.289,-48.241 0,-56.527Z" style="fill:#7b2e08;"/><path d="M65.866,34.141c-5.288,-5.286 -26.442,-5.292 -31.731,-0.005c-4.652,4.652 -4.652,27.08 0,31.731c5.289,5.287 26.443,5.276 31.731,-0.012c4.651,-4.649 4.651,-27.065 0,-31.714Z" style="fill:#a73f0b;"/><path d="M55.512,44.491c-1.837,-1.837 -9.186,-1.839 -11.023,-0.002c-1.617,1.616 -1.617,9.408 0,11.023c1.837,1.837 9.186,1.833 11.023,-0.004c1.616,-1.615 1.616,-9.402 0,-11.017Z" style="fill:#b8450d;"/><path d="M96.852,70.041l-0.513,2.92l-7.136,0.373l7.649,-3.293Z"/><path d="M2.266,62.968l-0.586,-12.381c0,0 13.104,5.411 29.342,5.875l-28.756,6.506Z"/><path d="M97.644,36.107l0.2,2.177l-8.043,-2.197l7.843,0.02Z"/><path d="M72.975,2.872l2.97,0.732c0,0 -0.603,5.688 -1.059,7.602c-0.457,1.914 -2.532,5.706 -2.488,5.012c0.09,-1.407 0.577,-13.346 0.577,-13.346Z"/><path d="M57.793,0.75c0,0 2.151,5.213 -0.289,11.486c-0.008,0.02 -1.259,1.647 -1.956,1.652c-2.377,0.016 -13.897,-1.654 -13.897,-1.654c0,0 10.852,-0.836 13.001,-2.161c0.836,-0.516 1.451,-4.345 1.456,-5.707c0.005,-1.361 -1.431,-3.744 -1.431,-3.744l3.116,0.128Z"/></g><defs><radialGradient id="_Radial1" cx="0" cy="0" r="1" gradientUnits="userSpaceOnUse" gradientTransform="matrix(49.75,0,0,49.75,50,50)"><stop offset="0" style="stop-color:#7b2e08;stop-opacity:1"/><stop offset="1" style="stop-color:#301203;stop-opacity:1"/></radialGradient></defs></svg>