<svg width="100px" height="100px" viewBox="0 0 100 100" version="1.1" xmlns="http://www.w3.org/2000/svg"  xml:space="preserve"  style="fill-rule:evenodd;clip-rule:evenodd;stroke-linecap:round;stroke-miterlimit:1;"><g><path d="M6.926,96.155l18.31,-16.814l0.859,-0.742l50.284,-2.14l2.703,3.021l14.007,16.663c-2.764,2.256 -6.277,3.607 -10.099,3.607l-65.98,0c-3.884,0 -7.449,-1.395 -10.233,-3.718l0.149,0.123Z" style="fill:#595959;"/><path d="M76.379,76.459l-0.306,-0.342l-2.121,-51.16l21.583,-18.623c2.232,2.802 3.569,6.365 3.569,10.243l0,66.846c0,4.956 -2.184,9.399 -5.629,12.394l0.125,-0.109l-17.221,-19.249Z" style="fill:#8c8c8c;"/><path d="M24.095,26.5l-0.718,-0.802l-17.547,-20.874c2.898,-2.832 6.84,-4.574 11.18,-4.574l65.98,0c4.815,0 9.14,2.145 12.094,5.542l-0.145,-0.164l-20.39,18.725l-50.454,2.147Z" style="fill:#808080;"/><path d="M0.896,16.577c0,-4.383 1.708,-8.365 4.486,-11.299l-0.139,0.149l18.852,21.073l0.422,0.471l2.12,51.16l-0.542,0.468l-19.76,17.051l0.145,0.128c-3.419,-2.994 -5.584,-7.42 -5.584,-12.355l0,-66.846Z" style="fill:#404040;"/><path d="M31.178,22.399c-5.469,0 -9.909,4.44 -9.909,9.909l0,41.239c0,5.469 4.44,9.909 9.909,9.909l40.571,0c5.469,0 9.909,-4.44 9.909,-9.909l0,-41.239c0,-5.469 -4.44,-9.909 -9.909,-9.909l-40.571,0Z" style="fill:#545454;stroke:#fff;stroke-width:0.17px;"/><g><path d="M28.813,99.744l-3.169,0.006l-0.287,-8.063l3.456,8.057Z" style="fill:#454545;"/><path d="M21.465,32.082l-0.018,12.079c0,0 13.624,-8.032 29.102,-12.121l-29.084,0.042Z" style="fill:#454545;"/><path d="M51.511,0.25l3.007,0l-2.701,9.313l-0.306,-9.313Z" style="fill:#454545;"/><path d="M99.096,67.933l0.008,3.416c0,0 -5.802,1.814 -7.821,2.24c-2.02,0.427 -6.543,0.147 -5.865,-0.125c1.375,-0.549 13.678,-5.531 13.678,-5.531Z" style="fill:#454545;"/></g></g></svg>