<svg width="100px" height="100px" viewBox="0 0 100 100" version="1.1" xmlns="http://www.w3.org/2000/svg"  xml:space="preserve" style="fill-rule:evenodd;clip-rule:evenodd;stroke-linejoin:round;stroke-miterlimit:1.41421;"><g><path d="M85.4,33.648C85.4,23.617 77.267,15.484 67.236,15.484C57.205,15.484 49.072,23.618 49.072,33.648C49.072,43.68 57.205,51.807 67.236,51.807C73.688,51.807 79.352,48.446 82.574,43.378C81.455,44.309 80.018,44.873 78.448,44.873C74.883,44.873 71.991,41.981 71.991,38.415C71.991,34.85 74.883,31.958 78.448,31.958C81.859,31.958 84.646,34.607 84.882,37.958C85.218,36.577 85.4,35.134 85.4,33.649L85.4,33.648Z" style="fill:#0096ff;fill-opacity:0.301961;fill-rule:nonzero;"/><path d="M89.087,33.649C89.087,45.717 79.306,55.499 67.236,55.499C55.168,55.499 45.386,45.718 45.386,33.649C45.386,21.58 55.167,11.792 67.236,11.792C79.305,11.792 89.087,21.58 89.087,33.649ZM85.4,33.648C85.4,23.617 77.267,15.484 67.236,15.484C57.205,15.484 49.072,23.618 49.072,33.648C49.072,43.68 57.205,51.807 67.236,51.807C73.688,51.807 79.352,48.446 82.574,43.378C81.455,44.309 80.018,44.873 78.448,44.873C74.883,44.873 71.991,41.981 71.991,38.415C71.991,34.85 74.883,31.958 78.448,31.958C81.859,31.958 84.646,34.607 84.882,37.958C85.218,36.577 85.4,35.134 85.4,33.649L85.4,33.648ZM89.087,33.649L89.087,33.648L89.087,33.649L89.087,33.649Z" style="fill:#fff;fill-opacity:0.8;fill-rule:nonzero;"/><path d="M72.699,45.862C72.699,47.506 71.366,48.846 69.721,48.846C68.076,48.846 66.742,47.508 66.742,45.862C66.742,44.217 68.075,42.883 69.721,42.883C71.365,42.883 72.699,44.216 72.699,45.862Z" style="fill:#fff;fill-opacity:0.8;fill-rule:nonzero;"/><path d="M58.447,60.767C56.925,60.932 55.533,61.224 54.266,61.646L38.934,46.313C39.359,45.055 39.663,43.672 39.838,42.163L58.447,60.767L58.447,60.767Z" style="fill:#1a1a1a;fill-rule:nonzero;"/><path d="M50.787,63.33C49.354,64.289 48.171,65.494 47.229,66.943L33.63,53.351C35.078,52.405 36.283,51.218 37.244,49.786L50.787,63.33Z" style="fill:#d36507;fill-rule:nonzero;"/><path d="M45.569,70.447C45.152,71.698 44.843,73.064 44.653,74.542C38.46,68.186 32.437,62.326 26.062,55.951C27.533,55.755 28.894,55.444 30.139,55.023L45.569,70.447L45.569,70.447Z" style="fill:#1a1a1a;fill-rule:nonzero;"/><path d="M36.516,71.568L11.519,96.643L5.861,96.643L33.722,68.774L36.516,71.568L36.516,71.568Z" style="fill:#582308;fill-rule:nonzero;"/><path d="M38.458,73.511L15.393,96.643L11.108,96.643L36.347,71.399L38.458,73.511L38.458,73.511Z" style="fill:#2c1204;fill-rule:nonzero;"/><path d="M33.771,68.823L5.951,96.643L3.296,96.643L3.296,86.151L27.197,62.25L33.771,68.823Z" style="fill:#2c1204;fill-rule:nonzero;"/></g></svg>