<svg width="100px" height="100px" viewBox="0 0 100 100" version="1.1" xmlns="http://www.w3.org/2000/svg"  xml:space="preserve"  style="fill-rule:evenodd;clip-rule:evenodd;"><g><g><path d="M58.046,5.733C53.603,1.289 46.398,1.289 41.955,5.733C37.511,10.176 37.512,17.381 41.955,21.824C46.398,26.268 53.601,26.265 58.044,21.822C60.902,18.964 61.922,14.966 61.104,11.294C61.021,12.202 60.634,13.089 59.939,13.784C58.359,15.363 55.798,15.363 54.218,13.784C52.639,12.204 52.639,9.643 54.218,8.063C55.729,6.552 58.137,6.491 59.726,7.871C59.262,7.111 58.704,6.39 58.046,5.733L58.046,5.733Z" style="fill:#0096ff;fill-opacity:0.301961;fill-rule:nonzero;"/><path d="M59.679,4.1C65.025,9.446 65.026,18.111 59.679,23.457C54.334,28.803 45.668,28.803 40.322,23.457C34.976,18.112 34.973,9.443 40.319,4.097C45.665,-1.249 54.333,-1.246 59.679,4.1ZM58.046,5.733C53.603,1.289 46.398,1.289 41.955,5.733C37.511,10.176 37.512,17.381 41.955,21.824C46.398,26.268 53.601,26.265 58.044,21.822C60.902,18.964 61.922,14.966 61.104,11.294C61.021,12.202 60.634,13.089 59.939,13.784C58.359,15.363 55.798,15.363 54.218,13.784C52.639,12.204 52.639,9.643 54.218,8.063C55.729,6.552 58.137,6.491 59.726,7.871C59.262,7.111 58.704,6.39 58.046,5.733L58.046,5.733ZM59.679,4.1L59.679,4.1L59.68,4.1L59.679,4.1Z" style="fill:#fff;fill-opacity:0.8;fill-rule:nonzero;"/><path d="M57.83,16.769C58.559,17.497 58.562,18.681 57.833,19.41C57.104,20.138 55.921,20.136 55.192,19.407C54.463,18.679 54.463,17.498 55.192,16.769C55.92,16.04 57.101,16.039 57.83,16.769Z" style="fill:#fff;fill-opacity:0.8;fill-rule:nonzero;"/></g><path d="M50,99.911C51.243,99.911 52.252,99.036 52.252,97.957L52.252,29.573C52.252,28.495 51.243,27.619 50,27.619C48.757,27.619 47.748,28.495 47.748,29.573L47.748,97.957C47.748,99.036 48.757,99.911 50,99.911Z" style="fill:url(#_Radial1);stroke:#000;stroke-width:0.26px;"/><g><path d="M52.462,28.888C52.376,29.324 52.38,29.759 52.472,30.195L47.517,30.196C47.608,29.76 47.611,29.324 47.525,28.888L52.462,28.888Z" style="fill:#d36507;fill-rule:nonzero;"/><path d="M52.472,30.195C52.624,30.499 53.153,31.745 53.388,32.049C51.1,32.019 48.935,32.049 46.611,32.049C46.844,31.745 47.367,30.5 47.517,30.196L52.472,30.195L52.472,30.195Z" style="fill:#1a1a1a;fill-rule:nonzero;"/><path d="M47.507,28.889C47.355,28.585 46.826,27.339 46.591,27.035C48.879,27.064 51.044,27.035 53.368,27.035C53.135,27.339 52.612,28.584 52.462,28.888L47.507,28.889L47.507,28.889Z" style="fill:#1a1a1a;fill-rule:nonzero;"/></g></g><defs><radialGradient id="_Radial1" cx="0" cy="0" r="1" gradientUnits="userSpaceOnUse" gradientTransform="matrix(0,79.9129,-4.50435,-2.50042e-16,49.9998,54.0107)"><stop offset="0" style="stop-color:#582308;stop-opacity:1"/><stop offset="0.5" style="stop-color:#2c1204;stop-opacity:1"/><stop offset="1" style="stop-color:#000;stop-opacity:1"/></radialGradient></defs></svg>