<svg width="100px" height="100px" viewBox="0 0 100 100" version="1.1" xmlns="http://www.w3.org/2000/svg"  xml:space="preserve"  style="fill-rule:evenodd;clip-rule:evenodd;stroke-linejoin:round;stroke-miterlimit:1.41421;"><g><g><path d="M71.464,1.004l-14.666,11.239c-1.085,1.15 -1.123,1.831 -0.884,2.647c0.244,0.837 1.096,1.905 2.359,2.736c1.264,0.831 2.881,1.404 4.256,1.518c1.21,0.099 2.105,-0.145 2.682,-0.576c0.064,-0.162 0.13,-0.328 0.227,-0.586c0.352,-0.942 0.698,-1.887 1.037,-2.834c0.842,-2.337 1.938,-5.433 3.023,-8.519c0.992,-2.822 1.966,-5.625 1.966,-5.625Z" style="fill:url(#_Radial1);stroke:#000;stroke-width:0.3px;"/><path d="M24.464,98.91l14.233,-11.782c1.041,-1.19 1.054,-1.872 0.785,-2.679c-0.276,-0.827 -1.167,-1.862 -2.461,-2.645c-1.294,-0.783 -2.931,-1.295 -4.31,-1.357c-1.213,-0.054 -2.098,0.224 -2.658,0.676c-0.058,0.165 -0.118,0.333 -0.205,0.595c-0.316,0.954 -0.626,1.911 -0.93,2.87c-0.754,2.367 -1.732,5.502 -2.7,8.627c-0.886,2.857 -1.754,5.695 -1.754,5.695Z" style="fill:url(#_Radial2);stroke:#000;stroke-width:0.3px;"/><path d="M0.417,42.154l16.266,8.765c1.493,0.518 2.13,0.273 2.777,-0.279c0.663,-0.567 1.287,-1.781 1.527,-3.274c0.239,-1.494 0.098,-3.204 -0.362,-4.504c-0.405,-1.145 -0.995,-1.861 -1.625,-2.21c-0.174,0.008 -0.353,0.016 -0.628,0.033c-1.003,0.066 -2.006,0.138 -3.009,0.217c-2.477,0.191 -5.75,0.462 -9.01,0.738c-2.98,0.253 -5.936,0.514 -5.936,0.514Z" style="fill:url(#_Radial3);stroke:#000;stroke-width:0.3px;"/><path d="M99.253,64.753l-14.47,-10.454c-1.358,-0.686 -1.986,-0.533 -2.655,-0.088c-0.686,0.457 -1.403,1.539 -1.784,2.936c-0.382,1.397 -0.426,3.049 -0.127,4.351c0.265,1.146 0.748,1.906 1.308,2.32c0.165,0.014 0.335,0.03 0.597,0.048c0.955,0.066 1.911,0.125 2.868,0.177c2.362,0.134 5.485,0.293 8.596,0.445c2.845,0.138 5.667,0.265 5.667,0.265Z" style="fill:url(#_Radial4);stroke:#000;stroke-width:0.3px;"/></g><g><path d="M81.044,18.486c-9.973,-10.289 -49.864,-10.301 -59.837,-0.009c-8.773,9.054 -8.774,52.708 0,61.761c9.973,10.29 49.864,10.268 59.837,-0.024c8.769,-9.049 8.769,-52.68 0,-61.728Z" style="fill:url(#_Radial5);"/><path d="M72.484,27.317c-7.119,-7.346 -35.599,-7.355 -42.718,-0.007c-6.264,6.464 -6.264,37.63 0,44.093c7.119,7.346 35.599,7.33 42.718,-0.017c6.261,-6.461 6.261,-37.61 0,-44.069Z" style="fill:#7b2e08;"/><path d="M63.108,36.99c-3.995,-4.121 -19.972,-4.126 -23.967,-0.004c-3.514,3.627 -3.514,21.112 0,24.738c3.995,4.121 19.972,4.113 23.967,-0.01c3.512,-3.624 3.512,-21.1 0,-24.724Z" style="fill:#a73f0b;"/><path d="M55.287,45.059c-1.388,-1.432 -6.938,-1.434 -8.326,-0.002c-1.221,1.26 -1.221,7.335 0,8.594c1.388,1.432 6.938,1.429 8.326,-0.003c1.22,-1.259 1.22,-7.33 0,-8.589Z" style="fill:#b8450d;"/><path d="M86.511,64.978l-0.387,2.276l-5.39,0.291l5.777,-2.567Z"/><path d="M15.07,59.464l-0.442,-9.653c0,0 9.897,4.218 22.162,4.581l-21.72,5.072Z"/><path d="M87.109,38.523l0.151,1.697l-6.075,-1.713l5.924,0.016Z"/><path d="M68.477,12.612l2.243,0.571c0,0 -0.455,4.434 -0.8,5.927c-0.345,1.492 -1.912,4.448 -1.879,3.907c0.068,-1.097 0.436,-10.405 0.436,-10.405Z"/><path d="M57.01,10.958c0,0 1.624,4.064 -0.218,8.955c-0.006,0.015 -0.951,1.284 -1.478,1.288c-1.795,0.012 -10.496,-1.29 -10.496,-1.29c0,0 8.196,-0.652 9.819,-1.685c0.632,-0.401 1.096,-3.387 1.1,-4.448c0.004,-1.062 -1.081,-2.919 -1.081,-2.919l2.354,0.099Z"/></g><g><path d="M57.948,99.75l8.834,-16.228c0.524,-1.492 0.282,-2.129 -0.268,-2.778c-0.563,-0.666 -1.775,-1.296 -3.267,-1.541c-1.492,-0.246 -3.203,-0.112 -4.505,0.342c-1.147,0.4 -1.865,0.987 -2.217,1.616c0.008,0.174 0.015,0.353 0.031,0.628c0.061,1.003 0.129,2.007 0.203,3.01c0.181,2.478 0.438,5.752 0.7,9.013c0.24,2.981 0.489,5.938 0.489,5.938Z" style="fill:url(#_Radial6);stroke:#000;stroke-width:0.3px;"/><path d="M92.941,7.112l-16.739,7.822c-1.307,0.89 -1.491,1.547 -1.433,2.395c0.058,0.87 0.66,2.096 1.716,3.179c1.055,1.083 2.511,1.991 3.83,2.398c1.16,0.357 2.086,0.311 2.743,0.014c0.097,-0.144 0.197,-0.293 0.347,-0.524c0.547,-0.844 1.087,-1.692 1.622,-2.544c1.325,-2.101 3.061,-4.889 4.785,-7.67c1.575,-2.542 3.129,-5.07 3.129,-5.07Z" style="fill:url(#_Radial7);stroke:#000;stroke-width:0.3px;"/><path d="M99.583,38.267l-18.417,1.49c-1.535,0.378 -1.936,0.93 -2.178,1.745c-0.249,0.836 -0.113,2.195 0.499,3.578c0.611,1.383 1.659,2.742 2.752,3.583c0.963,0.74 1.847,1.02 2.566,0.97c0.141,-0.101 0.287,-0.205 0.508,-0.369c0.807,-0.601 1.61,-1.207 2.408,-1.818c1.975,-1.507 4.575,-3.515 7.16,-5.519c2.363,-1.833 4.702,-3.66 4.702,-3.66Z" style="fill:url(#_Radial8);stroke:#000;stroke-width:0.3px;"/><path d="M93.979,88.362l-10.5,-15.203c-1.095,-1.141 -1.773,-1.212 -2.6,-1.014c-0.848,0.203 -1.957,1 -2.849,2.221c-0.892,1.222 -1.544,2.808 -1.726,4.176c-0.16,1.204 0.04,2.109 0.442,2.707c0.159,0.072 0.322,0.146 0.574,0.256c0.924,0.398 1.85,0.79 2.779,1.175c2.293,0.957 5.331,2.204 8.36,3.441c2.769,1.13 5.52,2.241 5.52,2.241Z" style="fill:url(#_Radial9);stroke:#000;stroke-width:0.3px;"/><path d="M3.148,75.732l18.477,-0.032c1.56,-0.255 2.003,-0.774 2.309,-1.567c0.314,-0.814 0.285,-2.179 -0.215,-3.606c-0.5,-1.428 -1.438,-2.864 -2.461,-3.789c-0.901,-0.814 -1.761,-1.163 -2.481,-1.17c-0.149,0.09 -0.303,0.182 -0.536,0.328c-0.852,0.535 -1.7,1.076 -2.544,1.622c-2.088,1.347 -4.837,3.143 -7.573,4.937c-2.501,1.641 -4.976,3.277 -4.976,3.277Z" style="fill:url(#_Radial10);stroke:#000;stroke-width:0.3px;"/><path d="M9.319,16.815l7.922,16.692c0.898,1.301 1.556,1.481 2.404,1.418c0.87,-0.063 2.092,-0.673 3.169,-1.735c1.077,-1.062 1.975,-2.523 2.374,-3.844c0.351,-1.162 0.299,-2.088 -0.002,-2.743c-0.145,-0.096 -0.293,-0.196 -0.525,-0.344c-0.848,-0.542 -1.699,-1.077 -2.554,-1.607c-2.109,-1.313 -4.908,-3.031 -7.699,-4.738c-2.551,-1.561 -5.089,-3.099 -5.089,-3.099Z" style="fill:url(#_Radial11);stroke:#000;stroke-width:0.3px;"/><path d="M32.829,0.25l-1.877,18.381c0.093,1.578 0.562,2.073 1.32,2.459c0.777,0.396 2.138,0.509 3.609,0.159c1.472,-0.35 2.998,-1.134 4.023,-2.057c0.903,-0.812 1.339,-1.631 1.42,-2.347c-0.074,-0.157 -0.149,-0.32 -0.27,-0.567c-0.445,-0.902 -0.895,-1.801 -1.352,-2.698c-1.123,-2.215 -2.626,-5.136 -4.128,-8.042c-1.373,-2.657 -2.745,-5.288 -2.745,-5.288Z" style="fill:url(#_Radial12);stroke:#000;stroke-width:0.3px;"/></g></g><defs><radialGradient id="_Radial1" cx="0" cy="0" r="1" gradientUnits="userSpaceOnUse" gradientTransform="matrix(14.1837,-23.4979,19.0203,11.481,51.5324,29.7846)"><stop offset="0" style="stop-color:#4f4f4f;stop-opacity:1"/><stop offset="1" style="stop-color:#999;stop-opacity:1"/></radialGradient><radialGradient id="_Radial2" cx="0" cy="0" r="1" gradientUnits="userSpaceOnUse" gradientTransform="matrix(-13.2911,24.0141,-19.4381,-10.7585,43.3006,69.4007)"><stop offset="0" style="stop-color:#4f4f4f;stop-opacity:1"/><stop offset="1" style="stop-color:#999;stop-opacity:1"/></radialGradient><radialGradient id="_Radial3" cx="0" cy="0" r="1" gradientUnits="userSpaceOnUse" gradientTransform="matrix(-27.2481,-3.29721,2.66891,-22.0559,34.8407,48.5262)"><stop offset="0" style="stop-color:#4f4f4f;stop-opacity:1"/><stop offset="1" style="stop-color:#999;stop-opacity:1"/></radialGradient><radialGradient id="_Radial4" cx="0" cy="0" r="1" gradientUnits="userSpaceOnUse" gradientTransform="matrix(25.424,6.62891,-4.81647,20.7449,67.3637,54.2694)"><stop offset="0" style="stop-color:#4f4f4f;stop-opacity:1"/><stop offset="1" style="stop-color:#999;stop-opacity:1"/></radialGradient><radialGradient id="_Radial5" cx="0" cy="0" r="1" gradientUnits="userSpaceOnUse" gradientTransform="matrix(38.5903,0,0,38.5903,51.1237,49.3538)"><stop offset="0" style="stop-color:#7b2e08;stop-opacity:1"/><stop offset="1" style="stop-color:#301203;stop-opacity:1"/></radialGradient><radialGradient id="_Radial6" cx="0" cy="0" r="1" gradientUnits="userSpaceOnUse" gradientTransform="matrix(-3.41298,27.2338,-22.0443,-2.76263,64.4664,65.3539)"><stop offset="0" style="stop-color:#4f4f4f;stop-opacity:1"/><stop offset="1" style="stop-color:#999;stop-opacity:1"/></radialGradient><radialGradient id="_Radial7" cx="0" cy="0" r="1" gradientUnits="userSpaceOnUse" gradientTransform="matrix(18.9055,-19.8975,16.106,15.303,67.2866,30.9325)"><stop offset="0" style="stop-color:#4f4f4f;stop-opacity:1"/><stop offset="1" style="stop-color:#999;stop-opacity:1"/></radialGradient><radialGradient id="_Radial8" cx="0" cy="0" r="1" gradientUnits="userSpaceOnUse" gradientTransform="matrix(24.6596,-12.0512,9.7548,19.9607,67.2294,51.6401)"><stop offset="0" style="stop-color:#4f4f4f;stop-opacity:1"/><stop offset="1" style="stop-color:#999;stop-opacity:1"/></radialGradient><radialGradient id="_Radial9" cx="0" cy="0" r="1" gradientUnits="userSpaceOnUse" gradientTransform="matrix(22.7679,15.3281,-12.4073,18.4294,66.2194,67.0323)"><stop offset="0" style="stop-color:#4f4f4f;stop-opacity:1"/><stop offset="1" style="stop-color:#999;stop-opacity:1"/></radialGradient><radialGradient id="_Radial10" cx="0" cy="0" r="1" gradientUnits="userSpaceOnUse" gradientTransform="matrix(-25.5337,10.0677,-8.14928,-20.6682,36.4558,64.9542)"><stop offset="0" style="stop-color:#4f4f4f;stop-opacity:1"/><stop offset="1" style="stop-color:#999;stop-opacity:1"/></radialGradient><radialGradient id="_Radial11" cx="0" cy="0" r="1" gradientUnits="userSpaceOnUse" gradientTransform="matrix(-20.0106,-18.7858,15.2061,-16.1975,33.2932,42.326)"><stop offset="0" style="stop-color:#4f4f4f;stop-opacity:1"/><stop offset="1" style="stop-color:#999;stop-opacity:1"/></radialGradient><radialGradient id="_Radial12" cx="0" cy="0" r="1" gradientUnits="userSpaceOnUse" gradientTransform="matrix(-7.37603,-26.4372,21.3995,-5.9705,40.1082,34.493)"><stop offset="0" style="stop-color:#4f4f4f;stop-opacity:1"/><stop offset="1" style="stop-color:#999;stop-opacity:1"/></radialGradient></defs></svg>