<svg width="100px" height="100px" viewBox="0 0 100 100" version="1.1" xmlns="http://www.w3.org/2000/svg"  xml:space="preserve" style="fill-rule:evenodd;clip-rule:evenodd;stroke-linejoin:round;stroke-miterlimit:1.41421;"><g id="Wood"><path d="M71.932,4.092l-7.859,7.997l-33.744,33.847l-3.438,3.329l-2.838,2.966l-4.396,-2.579l-3.842,-1.323l-2.878,2.67l1.316,4.105l2.558,4.208l-3.006,3.117l-10.005,11.394c0,0 -4.461,4.829 -2.658,11.842c0.5,1.943 1.529,3.91 2.718,5.286c1.682,1.948 3.762,3.087 5.788,4.542c2.643,1.899 4.773,3.127 6.861,3.66c4.424,1.128 7.598,-0.199 7.598,-0.199c0,0 0.007,-0.006 1.074,-0.21c1.503,-0.287 2.825,-1.087 7.095,-5.079c7.305,-6.828 26.149,-26.035 26.149,-26.035l26.45,-25.901l2.375,-2.131l9.679,-9.477l1.179,-2.741l0.628,-10.936l-4.56,-9.506c0,0 -3.379,-4.628 -7.832,-5.725c-5.166,-1.272 -14.412,2.879 -14.412,2.879Z"/><path d="M21.832,99.844c3.399,-0.016 6.436,-1.053 8.715,-3.331l57.28,-57.28c-0.878,0.102 -1.749,0.127 -2.608,0.077c-0.645,-0.037 -1.283,-0.117 -1.912,-0.237c-2.874,-0.546 -5.527,-1.863 -7.887,-3.677c-5.64,5.005 -29.458,24.854 -29.458,24.854c8.418,-9.704 18.324,-18.664 25.026,-29.225c-0.123,-0.152 -0.248,-0.303 -0.369,-0.458c-3.286,-4.226 -5.537,-9.399 -6.212,-14.442c-0.198,-1.482 -0.257,-2.965 -0.154,-4.408l-37.592,37.592l1.608,0.964c0.099,-0.044 0.199,-0.089 0.31,-0.134l9.395,-4.698l-9.395,9.396c0,-0.019 -0.004,-0.037 -0.006,-0.056l-0.015,0.025l-9.035,-5.422c-0.264,1.225 -0.788,2.37 -1.625,3.332c-0.968,1.115 -2.327,1.885 -3.945,2.23l5.424,9.04l-3.204,1.923l-2.292,-3.82l-8.879,8.878c-4.367,4.368 -5.48,8.581 -4.831,12.539c0.338,2.064 1.209,4.086 2.473,5.968l15.131,-15.13l-13.189,17.585c0.745,0.807 1.562,1.574 2.44,2.29c1.854,1.509 3.966,2.776 6.166,3.724c-0.038,-0.037 -0.077,-0.073 -0.115,-0.11l11.745,-7.047l-4.499,8.998c0.277,0.022 0.553,0.039 0.825,0.048c0.23,0.008 0.458,0.012 0.685,0.011l-0.001,0.001Zm-9.051,-48.451c1.116,-0.124 1.806,-0.563 2.296,-1.127c0.435,-0.501 0.737,-1.202 0.857,-2.05c-0.965,0.196 -1.651,0.551 -2.123,1.023c-0.478,0.478 -0.835,1.172 -1.03,2.154l0,0Zm73.414,-15.775c3.176,0.013 6.52,-1.308 10.037,-4.792c3.076,-3.117 4.117,-7.171 3.669,-11.499c-0.451,-4.357 -2.492,-8.907 -5.487,-12.446c-0.47,-0.557 -0.966,-1.084 -1.479,-1.585c-0.785,2.585 -4.768,6.923 -7.041,10.324c1.652,-4.43 2.801,-8.931 2.62,-13.622c-1.62,-0.876 -3.329,-1.472 -5.069,-1.713c-4.042,-0.559 -8.35,0.636 -12.725,4.966c-2.366,2.41 -3.178,6.131 -2.609,10.378c0.573,4.279 2.579,8.943 5.458,12.644c2.879,3.702 6.591,6.399 10.436,7.13c0.721,0.137 1.45,0.212 2.19,0.215l0,0Zm1.704,-4.111c-4.232,0.195 -8.911,-1.831 -12.486,-5.405c-5.946,-5.947 -7.168,-14.511 -2.707,-18.972c2.322,-2.312 5.855,-3.196 9.703,-2.428c-2.397,0.041 -4.522,0.887 -6.053,2.41c-3.866,3.866 -2.974,11.12 1.976,16.07c4.95,4.95 12.204,5.843 16.07,1.977c1.524,-1.53 2.371,-3.655 2.413,-6.051c0.767,3.847 -0.117,7.379 -2.43,9.7c-1.638,1.639 -3.899,2.58 -6.485,2.699l-0.001,0Z" style="fill:#4e1700;fill-rule:nonzero;stroke:#000;stroke-width:0.3px;"/></g></svg>