<svg width="100px" height="100px" viewBox="0 0 100 100" version="1.1" xmlns="http://www.w3.org/2000/svg"  xml:space="preserve"  style="fill-rule:evenodd;clip-rule:evenodd;stroke-linejoin:round;stroke-miterlimit:1.41421;"><g><path d="M99.508,36.065l-3.138,-14.923l-13.064,1.279l-38.941,-2.121l-19.85,5.502l-14.831,-4.98l-8.314,9.7l1.479,13.913l-2.357,23.847l5.781,4.131l-1.172,5.97l14.624,1.317l36.778,-2.219l15.353,-4.748l14.008,4.264l9.69,-4.573l3.954,-9.071l-1.812,-10.932l1.812,-16.356Z" style="fill:#74391d;stroke:#3b1d0f;stroke-width:1px;"/><path d="M92.655,37.994l-2.703,-12.858l-11.256,1.102l-33.551,-1.827l-17.103,4.741l-12.777,-4.291l-7.164,8.357l1.274,11.987l-2.03,20.546l4.981,3.56l-1.01,5.143l12.599,1.135l31.688,-1.912l13.228,-4.09l12.069,3.673l8.348,-3.94l3.407,-7.815l-1.561,-9.419l1.561,-14.092Z" style="fill:#3e3e3e;stroke:#6b6b6b;stroke-width:0.79px;"/><g><path d="M32.838,48.25c0.369,9.187 -0.949,17.534 -3.489,24.623c-0.17,0.609 -9.201,2.237 -9.016,1.583c0.001,-0.007 -2.478,-2.041 -2.478,-2.041l-3.781,-7.774c4.727,-7.11 10.917,-12.643 18.764,-16.391Z" style="fill:#343434;fill-rule:nonzero;"/><path d="M29.911,72.809c2.437,-8.362 5.929,-19.432 3.071,-25.145c-0.923,-1.844 -14.173,8.355 -19.251,15.654c-1.967,2.828 4.058,8.733 3.447,9.426c-0.687,0.772 2.722,2.561 2.641,1.933c-0.007,-0.054 9.318,0.787 10.092,-1.868Zm-1.044,-0.888c3.723,-10.179 4.398,-21.446 3.438,-22.385c-1.945,-1.902 -14.743,10.268 -16.995,14.265c-1.315,2.334 3.261,6.856 2.739,7.447c-0.587,0.66 1.312,1.702 2.111,2.388c0.353,0.303 8.185,-0.287 8.707,-1.715Z"/></g><g><path d="M63.096,42.791c6.605,-5.85 13.609,-9.936 20.42,-12.351c0.556,-0.243 7.247,5.481 6.649,5.741c-0.006,0.002 -0.014,3.08 -0.014,3.08l-3.483,7.529c-8.153,0.802 -16.023,-0.441 -23.572,-3.999Z" style="fill:#6e6e6e;fill-rule:nonzero;"/><path d="M83.127,30.061c-7.695,3.264 -18.042,7.387 -20.553,12.979c-0.811,1.805 14.812,5.463 23.319,4.807c3.296,-0.254 4.028,-8.316 4.914,-8.283c0.991,0.043 0.251,-3.577 -0.166,-3.136c-0.036,0.038 -5.071,-7.403 -7.514,-6.367Zm-0.026,1.315c-9.826,3.41 -18.61,9.747 -18.725,11.031c-0.233,2.599 16.58,4.726 20.918,3.974c2.533,-0.439 3.116,-6.585 3.872,-6.556c0.847,0.036 0.469,-2.008 0.494,-3.019c0.011,-0.445 -5.181,-5.908 -6.559,-5.43Z"/></g></g></svg>