<svg width="100px" height="100px" viewBox="0 0 75 75" version="1.1" xmlns="http://www.w3.org/2000/svg"
     xmlns:xlink="http://www.w3.org/1999/xlink" xml:space="preserve" xmlns:serif="http://www.serif.com/"
     style="fill-rule:evenodd;clip-rule:evenodd;stroke-linejoin:round;stroke-miterlimit:1.41421;"><g><g><path d="M74.625,27.05l-2.353,-11.19l-9.797,0.959l-29.201,-1.59l-14.885,4.126l-11.121,-3.735l-6.234,7.274l1.108,10.433l-1.767,17.882l4.335,3.098l-0.879,4.476l10.966,0.988l27.579,-1.663l11.513,-3.561l10.505,3.197l7.266,-3.429l2.965,-6.802l-1.359,-8.197l1.359,-12.266Z" style="fill:#74391d;stroke:#3b1d0f;stroke-width:0.75px;"/><path
        d="M69.486,28.497l-2.027,-9.642l-8.441,0.827l-25.159,-1.371l-12.825,3.555l-9.581,-3.217l-5.372,6.267l0.955,8.988l-1.522,15.408l3.735,2.669l-0.758,3.857l9.449,0.851l23.761,-1.434l9.92,-3.067l9.05,2.754l6.26,-2.954l2.555,-5.861l-1.17,-7.063l1.17,-10.567Z"
        style="fill:#9f5409;stroke:#6b6b6b;stroke-width:0.59px;"/><path
        d="M69.486,28.497l-2.027,-9.642l-8.441,0.827l-25.159,-1.371l-12.825,3.555l-9.581,-3.217l-5.372,6.267l0.955,8.988l-1.522,15.408l3.735,2.669l-0.758,3.857l9.449,0.851l23.761,-1.434l9.92,-3.067l9.05,2.754l6.26,-2.954l2.555,-5.861l-1.17,-7.063l1.17,-10.567Z"
        style="fill:#9f5409;stroke:#6b6b6b;stroke-width:0.59px;"/></g><g><path d="M56.476,34.18c-0.141,0.266 0.849,0.463 1.118,0.631c0.176,0.11 0.411,0.497 0.493,0.376c0.542,-0.802 1.456,-3.054 2.739,-4.908c0.458,-0.662 1.16,-1.21 1.641,-1.905c0.92,-1.327 1.779,-3.386 2.565,-4.65c1.14,-1.832 2.085,-2.748 2.505,-3.643c0.189,-0.404 -1.335,-1.358 -1.611,-1.007c-0.68,0.867 -1.995,2.781 -3.328,5.038c-0.497,0.842 -0.618,1.446 -1.156,2.315c-0.254,0.409 -0.994,1.04 -1.243,1.445c-0.447,0.728 -1.024,1.298 -1.433,1.976c-1.095,1.818 -1.856,3.513 -2.29,4.332l0,0Z" style="fill:url(#_Linear1);stroke:#000;stroke-width:0.07px;stroke-linecap:round;stroke-miterlimit:1.5;"/>
    <g><path d="M50.555,28.487c0.107,1.285 3.505,3.11 4.775,4.091c0.887,0.685 2.205,1.544 2.846,1.795c0.335,0.132 0.743,-0.252 1.003,-0.284c0.183,-0.022 0.378,0.024 0.554,0.092c0.285,0.11 0.764,0.388 1.152,0.568c0.448,0.207 1.017,0.466 1.534,0.676c0.604,0.244 1.385,0.551 2.089,0.788c0.897,0.304 3.321,1.566 3.296,1.03c-0.026,-0.536 -2.506,-3.341 -3.447,-4.244c-0.598,-0.574 -1.727,-0.711 -2.2,-1.171c-0.419,-0.407 -0.402,-1.121 -0.64,-1.589c-0.219,-0.43 -0.502,-0.913 -0.792,-1.223c-0.259,-0.277 -0.641,-0.411 -0.947,-0.637c-0.369,-0.273 -0.898,-0.708 -1.269,-0.999c-0.317,-0.25 -0.615,-0.527 -0.953,-0.749c-0.636,-0.418 -1.821,-2.038 -2.865,-1.761c-1.167,0.31 -4.243,2.333 -4.136,3.617Z" style="fill:url(#_Radial2);stroke:#000;stroke-width:0.1px;stroke-miterlimit:1.41421;"/>
        <path d="M50.995,29.14c0.189,-0.426 1.358,-1.535 2.077,-2.174c0.702,-0.624 2.143,-1.426 2.456,-1.768c0.077,-0.085 -0.179,-0.179 -0.475,-0.234c-0.45,-0.083 -1.758,0.718 -2.49,1.279c-0.729,0.558 -1.851,1.507 -1.901,2.087c-0.029,0.337 0.282,0.924 0.333,0.81Z"
              style="fill:url(#_Linear3);"/></g></g><g><path d="M56.476,34.18c-0.141,0.266 0.849,0.463 1.118,0.631c0.176,0.11 0.411,0.497 0.493,0.376c0.542,-0.802 1.456,-3.054 2.739,-4.908c0.458,-0.662 1.16,-1.21 1.641,-1.905c0.92,-1.327 1.779,-3.386 2.565,-4.65c1.14,-1.832 2.085,-2.748 2.505,-3.643c0.189,-0.404 -1.335,-1.358 -1.611,-1.007c-0.68,0.867 -1.995,2.781 -3.328,5.038c-0.497,0.842 -0.618,1.446 -1.156,2.315c-0.254,0.409 -0.994,1.04 -1.243,1.445c-0.447,0.728 -1.024,1.298 -1.433,1.976c-1.095,1.818 -1.856,3.513 -2.29,4.332l0,0Z" style="fill:url(#_Linear4);stroke:#000;stroke-width:0.07px;stroke-linecap:round;stroke-miterlimit:1.5;"/>
    <g><path d="M50.555,28.487c0.107,1.285 3.505,3.11 4.775,4.091c0.887,0.685 2.205,1.544 2.846,1.795c0.335,0.132 0.743,-0.252 1.003,-0.284c0.183,-0.022 0.378,0.024 0.554,0.092c0.285,0.11 0.764,0.388 1.152,0.568c0.448,0.207 1.017,0.466 1.534,0.676c0.604,0.244 1.385,0.551 2.089,0.788c0.897,0.304 3.321,1.566 3.296,1.03c-0.026,-0.536 -2.506,-3.341 -3.447,-4.244c-0.598,-0.574 -1.727,-0.711 -2.2,-1.171c-0.419,-0.407 -0.402,-1.121 -0.64,-1.589c-0.219,-0.43 -0.502,-0.913 -0.792,-1.223c-0.259,-0.277 -0.641,-0.411 -0.947,-0.637c-0.369,-0.273 -0.898,-0.708 -1.269,-0.999c-0.317,-0.25 -0.615,-0.527 -0.953,-0.749c-0.636,-0.418 -1.821,-2.038 -2.865,-1.761c-1.167,0.31 -4.243,2.333 -4.136,3.617Z" style="fill:url(#_Radial5);stroke:#000;stroke-width:0.1px;stroke-miterlimit:1.41421;"/>
        <path d="M50.995,29.14c0.189,-0.426 1.358,-1.535 2.077,-2.174c0.702,-0.624 2.143,-1.426 2.456,-1.768c0.077,-0.085 -0.179,-0.179 -0.475,-0.234c-0.45,-0.083 -1.758,0.718 -2.49,1.279c-0.729,0.558 -1.851,1.507 -1.901,2.087c-0.029,0.337 0.282,0.924 0.333,0.81Z"
              style="fill:url(#_Linear6);"/></g></g><g><path d="M13.36,36.122l1.882,6.356l3.077,3.204l1.985,0.117l0.88,-0.654l-1.572,-2.721l0.113,-0.569l2.608,-2.006l-0.077,-1.174l-1.764,-1.224l2.564,0.779l0.355,0.789l0.159,-0.123l0.402,-0.07l1.631,0.519l-1.534,-3.972l0.341,-0.593l1.752,-0.283l-2.459,-0.83l-5.118,-1.15l-5.225,3.605l0,0Z" style="fill:#4c4c4c;fill-rule:nonzero;"/>
    <path d="M9.236,44.506l1.62,2.64l1.135,0.899l0.267,-1.387l0.627,-0.345l0.031,0.012l3.417,0.216l0.139,-0.737l0.485,-0.378l0.469,0.028l-2.359,-2.457l-1.536,-0.785l-1.028,1.804l-1.82,0.751l1.546,-1.354l0.804,-1.273l1.37,-0.781l-1.051,-3.322c-0.123,0.096 -0.247,0.195 -0.374,0.3l-1.532,3.856l-0.099,0.153l-2.111,2.16l0,0Z"
          style="fill:#4c4c4c;fill-rule:nonzero;"/>
    <path d="M13.227,46.661l-0.623,3.23l2.954,2.562l1.434,-2.033l-0.29,-0.194l-0.677,-2.47l-2.798,-1.094l0,-0.001Z"
          style="fill:#4c4c4c;fill-rule:nonzero;"/>
    <path d="M16.767,45.889l-0.345,1.831l0.567,2.068l1.842,-0.235l1.42,-2.395l-0.299,-1.08l-3.185,-0.189l0,0Z"
          style="fill:#4c4c4c;fill-rule:nonzero;"/>
    <path d="M20.049,41.995l2.203,3.813l2.564,1.418l2.96,-4.063l0.221,-2.47l-4.424,-1.409l-3.523,2.711l-0.001,0Z"
          style="fill:#4c4c4c;fill-rule:nonzero;"/>
    <path d="M24.426,35.25l1.374,3.561l0.089,0.032l2.285,-2.633l-0.031,-1.559l-3.717,0.599l0,0Z"
          style="fill:#4c4c4c;fill-rule:nonzero;"/>
    <path d="M17.176,51.733l1.563,1.62l3.683,0.901l2.536,-6.447l-1.697,-1.052l-4.397,2.966l-1.688,2.012l0,0Z"
          style="fill:#4c4c4c;fill-rule:nonzero;"/>
    <g><path d="M16.893,35.132l3.678,-0.423l2.545,1.297l-2.944,-0.308l-3.858,1.277l0.579,-1.843Z" style="fill:#a5a5a5;fill-rule:nonzero;"/>
        <path d="M22.073,41.512l1.998,-1.195l2.606,0.655l0.405,1.795l-1.231,1.957l-0.311,-2.431l-1.7,-1.085l-1.767,0.304l0,0Z"
              style="fill:#a5a5a5;fill-rule:nonzero;"/></g></g><g><path d="M13.36,36.122l1.882,6.356l3.077,3.204l1.985,0.117l0.88,-0.654l-1.572,-2.721l0.113,-0.569l2.608,-2.006l-0.077,-1.174l-1.764,-1.224l2.564,0.779l0.355,0.789l0.159,-0.123l0.402,-0.07l1.631,0.519l-1.534,-3.972l0.341,-0.593l1.752,-0.283l-2.459,-0.83l-5.118,-1.15l-5.225,3.605l0,0Z" style="fill:#4c4c4c;fill-rule:nonzero;"/>
    <path d="M9.236,44.506l1.62,2.64l1.135,0.899l0.267,-1.387l0.627,-0.345l0.031,0.012l3.417,0.216l0.139,-0.737l0.485,-0.378l0.469,0.028l-2.359,-2.457l-1.536,-0.785l-1.028,1.804l-1.82,0.751l1.546,-1.354l0.804,-1.273l1.37,-0.781l-1.051,-3.322c-0.123,0.096 -0.247,0.195 -0.374,0.3l-1.532,3.856l-0.099,0.153l-2.111,2.16l0,0Z"
          style="fill:#4c4c4c;fill-rule:nonzero;"/>
    <path d="M13.227,46.661l-0.623,3.23l2.954,2.562l1.434,-2.033l-0.29,-0.194l-0.677,-2.47l-2.798,-1.094l0,-0.001Z"
          style="fill:#4c4c4c;fill-rule:nonzero;"/>
    <path d="M16.767,45.889l-0.345,1.831l0.567,2.068l1.842,-0.235l1.42,-2.395l-0.299,-1.08l-3.185,-0.189l0,0Z"
          style="fill:#4c4c4c;fill-rule:nonzero;"/>
    <path d="M20.049,41.995l2.203,3.813l2.564,1.418l2.96,-4.063l0.221,-2.47l-4.424,-1.409l-3.523,2.711l-0.001,0Z"
          style="fill:#4c4c4c;fill-rule:nonzero;"/>
    <path d="M24.426,35.25l1.374,3.561l0.089,0.032l2.285,-2.633l-0.031,-1.559l-3.717,0.599l0,0Z"
          style="fill:#4c4c4c;fill-rule:nonzero;"/>
    <path d="M17.176,51.733l1.563,1.62l3.683,0.901l2.536,-6.447l-1.697,-1.052l-4.397,2.966l-1.688,2.012l0,0Z"
          style="fill:#4c4c4c;fill-rule:nonzero;"/>
    <g><path d="M16.893,35.132l3.678,-0.423l2.545,1.297l-2.944,-0.308l-3.858,1.277l0.579,-1.843Z" style="fill:#a5a5a5;fill-rule:nonzero;"/>
        <path d="M22.073,41.512l1.998,-1.195l2.606,0.655l0.405,1.795l-1.231,1.957l-0.311,-2.431l-1.7,-1.085l-1.767,0.304l0,0Z"
              style="fill:#a5a5a5;fill-rule:nonzero;"/></g></g></g>
    <defs><linearGradient id="_Linear1" x1="0" y1="0" x2="1" y2="0" gradientUnits="userSpaceOnUse" gradientTransform="matrix(-1.61047,-1.00749,0.718665,-1.14878,62.8117,27.6343)"><stop offset="0" style="stop-color:#301203;stop-opacity:1"/><stop
            offset="0.5" style="stop-color:#582106;stop-opacity:1"/><stop offset="1"
                                                                          style="stop-color:#301203;stop-opacity:1"/></linearGradient>
        <radialGradient id="_Radial2" cx="0" cy="0" r="1" gradientUnits="userSpaceOnUse"
                        gradientTransform="matrix(-9.88136,16.0023,-15.723,-9.7087,62.741,24.8051)"><stop offset="0" style="stop-color:#545454;stop-opacity:1"/>
            <stop offset="0.59" style="stop-color:#6d6d6d;stop-opacity:1"/>
            <stop offset="0.8" style="stop-color:#595959;stop-opacity:1"/>
            <stop offset="1" style="stop-color:#4f4f4f;stop-opacity:1"/></radialGradient>
        <linearGradient id="_Linear3" x1="0" y1="0" x2="1" y2="0" gradientUnits="userSpaceOnUse"
                        gradientTransform="matrix(-7.31333,-4.71715,4.42488,-6.83039,58.4538,29.5364)"><stop offset="0" style="stop-color:#b8b8b8;stop-opacity:1"/>
            <stop offset="0.66" style="stop-color:#ababab;stop-opacity:1"/>
            <stop offset="0.85" style="stop-color:#808080;stop-opacity:1"/>
            <stop offset="1" style="stop-color:#333;stop-opacity:1"/></linearGradient>
        <linearGradient id="_Linear4" x1="0" y1="0" x2="1" y2="0" gradientUnits="userSpaceOnUse"
                        gradientTransform="matrix(-1.61047,-1.00749,0.718665,-1.14878,62.8117,27.6343)"><stop offset="0" style="stop-color:#301203;stop-opacity:1"/>
            <stop offset="0.5" style="stop-color:#582106;stop-opacity:1"/>
            <stop offset="1" style="stop-color:#301203;stop-opacity:1"/></linearGradient>
        <radialGradient id="_Radial5" cx="0" cy="0" r="1" gradientUnits="userSpaceOnUse"
                        gradientTransform="matrix(-9.88136,16.0023,-15.723,-9.7087,62.741,24.8051)"><stop offset="0" style="stop-color:#545454;stop-opacity:1"/>
            <stop offset="0.59" style="stop-color:#6d6d6d;stop-opacity:1"/>
            <stop offset="0.8" style="stop-color:#595959;stop-opacity:1"/>
            <stop offset="1" style="stop-color:#4f4f4f;stop-opacity:1"/></radialGradient>
        <linearGradient id="_Linear6" x1="0" y1="0" x2="1" y2="0" gradientUnits="userSpaceOnUse"
                        gradientTransform="matrix(-7.31333,-4.71715,4.42488,-6.83039,58.4538,29.5364)"><stop offset="0" style="stop-color:#b8b8b8;stop-opacity:1"/>
            <stop offset="0.66" style="stop-color:#ababab;stop-opacity:1"/>
            <stop offset="0.85" style="stop-color:#808080;stop-opacity:1"/>
            <stop offset="1" style="stop-color:#333;stop-opacity:1"/></linearGradient></defs></svg>