<?xml version="1.0" encoding="UTF-8" standalone="no"?>
<!DOCTYPE svg PUBLIC "-//W3C//DTD SVG 1.1//EN" "http://www.w3.org/Graphics/SVG/1.1/DTD/svg11.dtd">
<svg width="100%" height="100%" viewBox="0 0 100 100" version="1.1" xmlns="http://www.w3.org/2000/svg" xmlns:xlink="http://www.w3.org/1999/xlink" xml:space="preserve" xmlns:serif="http://www.serif.com/" style="fill-rule:evenodd;clip-rule:evenodd;stroke-linejoin:round;stroke-miterlimit:1.41421;">
    <g>
        <path d="M98.853,43.798c-3.051,-0.557 -6.145,-0.847 -9.223,-1.218c-1.354,-0.166 -4.487,-0.596 -4.886,-0.659c-6.504,-1.022 -12.467,-2.848 -16.696,-8.663c-5.286,-7.27 -8.792,-15.618 -14.008,-22.953c-3.069,-4.316 -6.292,3.346 -7.097,4.65c-0.755,1.224 -1.811,3.887 -2.382,4.946c-0.966,1.794 -2.048,3.517 -3.06,5.284c-1.761,3.074 -3.419,6.194 -5.495,9.076c-0.947,1.315 -1.979,2.509 -2.961,3.747c-0.631,0.042 -1.27,0.063 -1.924,0.103c-3.245,0.197 -6.489,0.394 -9.734,0.592c-4.854,0.295 -9.749,0.456 -14.54,1.293c-3.408,0.595 -8.211,3.428 -6.483,4.373c5.324,2.91 22.852,11.283 25.35,13.581c0.199,0.182 0.206,0.183 0.352,0.333c0.578,0.598 1.047,1.27 1.355,2.042c1.039,2.603 -0.418,5.223 -1.255,7.661c-0.948,2.763 -1.583,5.648 -2.332,8.471c-0.776,2.923 -1.552,5.848 -2.328,8.772c-0.713,2.688 -2.162,5.93 -2.162,8.705c0,1.783 4.857,-1.045 5.378,-1.431c4.1,-3.032 8.2,-6.063 12.3,-9.095c2.637,-1.95 7.73,-7.086 10.319,-5.776c1.891,0.956 3.798,2.527 5.524,3.737c2.107,1.478 4.222,2.947 6.334,4.42c4.069,2.84 8.105,5.733 12.234,8.485c1.532,1.021 8.056,-2.407 7.565,-4.369c-1.488,-5.945 -2.974,-11.891 -4.462,-17.836c-0.714,-2.853 -1.468,-5.699 -2.138,-8.563c-0.337,-1.438 -0.615,-2.392 -0.776,-4.628c2.093,-0.713 4.474,-2.272 6.475,-3.185c2.564,-1.17 5.061,-2.477 7.565,-3.768c1.074,-0.553 2.146,-1.109 3.227,-1.648c0.818,-0.408 5.043,-2.428 8.067,-3.818c0.324,-0.148 5.211,-2.056 1.897,-2.661Z" style="fill-rule:nonzero;"/>
    </g>
</svg>
