<svg width="100px" height="100px" viewBox="0 0 100 100" version="1.1" xmlns="http://www.w3.org/2000/svg" xml:space="preserve" style="fill-rule:evenodd;clip-rule:evenodd;stroke-linecap:round;stroke-linejoin:round;"><g id="svg_rdy"><path d="M55.47,84.937L60.406,88.234L68.402,92.669L68.746,88.803L69.84,83.106L70.229,77.53L76.931,75.322L83.765,72.586L89.418,71.064L91.818,71.064L88.757,66.661L83.669,56.794L81.939,53.998L85.66,48.974L89.418,38.839L92.418,29.833L94.157,26.188L89.418,26.801L83.028,26.504L73.482,26.004L71.607,25.863L71.31,22.767L71.27,19.462L68.045,21.324L65.145,22.486L58.511,14.053L54.557,8.573L50.054,1.586L47.803,5.609L42.126,13.452L36.121,22.767L34.086,28.808L28.497,27.574L23.057,26.937L19.656,26.004L21.635,35.486L14.825,38.839L9.609,40.702L6.111,41.407L10.222,46.447L14.825,52.844L18.001,57.019L14.825,62.271L12.361,68.104L9.613,73.984L7.349,77.73L11.195,78.471L16.275,79.393L21.975,80.414L27.059,80.947L31.866,80.947L36.698,89.208L39.466,95.601L40.183,98.862L44.638,94.267L50.487,89.668L55.47,84.937Z" style="fill:#468432;fill-rule:nonzero;"/><circle id="stem" cx="50.014" cy="53.357" r="1.675" style="fill:#13411f;"/><path d="M86.542,30.879L85.969,30.927C85.574,30.929 85.208,31.139 85.007,31.48C85.007,31.508 84.975,31.536 84.963,31.564C84.382,31.213 83.642,31.248 83.096,31.652C82.099,32.329 81.229,32.966 79.968,32.417C79.436,32.125 78.76,32.302 78.441,32.818C77.896,33.739 76.138,33.831 75.192,34.056C74.635,34.192 73.962,34.24 73.51,34.629C73.203,34.934 72.869,35.212 72.512,35.458C72.156,35.658 71.824,35.898 71.523,36.175C71.291,36.43 71.101,36.721 70.962,37.036C70.704,36.707 70.264,36.577 69.868,36.712C69.524,36.827 69.161,36.876 68.799,36.856C68.919,35.394 67.997,33.783 66.427,33.771C65.562,37.557 63.394,41.014 61.279,44.211C60.346,45.617 59.228,46.579 58.002,47.64C58.255,47.504 58.507,47.36 58.759,47.24C61.648,45.774 65.646,44.331 68.983,44.94L69.199,44.748C69.56,44.399 69.684,44.171 70.169,44.251C70.97,44.383 71.451,44.968 72.352,44.62C72.99,44.351 73.446,43.77 73.554,43.085C73.562,42.728 73.596,42.372 73.654,42.02C73.742,41.812 73.722,41.916 74.119,41.771C74.465,41.65 74.789,41.474 75.08,41.251C75.407,40.956 75.814,40.765 76.25,40.702C77.299,40.493 78.332,40.213 79.343,39.865C80.809,39.356 82.291,38.555 82.335,36.812C82.334,36.511 82.213,36.222 81.999,36.011C82.507,34.957 83.729,35.21 84.639,34.709C84.826,34.6 84.997,34.465 85.147,34.308C85.734,34.037 86.243,33.624 86.63,33.106C87.956,32.87 87.932,30.755 86.542,30.879Z" style="fill:#6bb251;fill-rule:nonzero;"/><path d="M54.136,26.929C53.816,26.313 53.693,25.614 53.784,24.926C53.795,24.861 53.801,24.796 53.801,24.73C53.801,24.108 53.289,23.597 52.667,23.597C52.639,23.597 52.61,23.598 52.582,23.6C52.534,23.501 52.49,23.397 52.45,23.287C52.362,23.024 52.177,22.803 51.933,22.67C51.943,22.255 51.905,21.84 51.821,21.433L51.52,19.578C51.31,18.469 51.163,17.35 51.08,16.225C51.096,15.227 51.187,14.232 51.352,13.248C51.415,12.784 51.319,12.312 51.08,11.91C50.968,11.763 50.847,11.623 50.719,11.489C50.768,11.359 50.807,11.225 50.835,11.089C50.905,10.684 50.828,10.268 50.619,9.915C50.282,9.202 49.073,9.266 48.716,9.915C48.491,10.29 48.376,10.72 48.384,11.157C48.343,11.237 48.307,11.321 48.275,11.405C48.154,11.706 48.137,12.039 48.227,12.351C48.308,12.66 48.49,12.934 48.744,13.128C48.815,14.038 48.711,14.954 48.436,15.824C48.135,16.749 47.582,17.591 47.438,18.556C47.36,19.012 47.392,19.481 47.53,19.922C47.666,20.323 48.079,20.723 48.151,21.124C48.223,21.525 47.831,21.801 47.658,22.17C47.474,22.579 47.382,23.023 47.39,23.472C47.39,24.473 47.959,25.439 47.166,26.228C46.517,26.873 46.192,27.43 46.324,28.359C46.457,29.289 47.126,29.853 47.314,30.671C47.434,31.163 47.11,31.592 47.025,32.077C46.997,32.245 47.025,33.427 47.162,33.363C46.83,33.539 46.622,33.885 46.622,34.261C46.622,34.523 46.724,34.776 46.905,34.965L46.665,35.129C46.393,35.33 46.188,35.61 46.08,35.931C45.832,36.76 46.348,37.409 46.977,37.934C47.811,38.611 48.179,39.135 47.739,40.189C47.542,40.566 47.407,40.972 47.338,41.391C47.326,41.544 47.339,41.699 47.378,41.848C47.109,41.85 46.841,41.876 46.577,41.924C46.115,42.042 45.786,42.457 45.776,42.933C45.808,44.171 46.633,44.78 47.334,45.738C47.414,45.841 47.477,45.956 47.522,46.078C47.52,46.103 47.52,46.129 47.522,46.154C47.598,46.471 47.486,46.747 47.522,47.188C47.549,47.451 47.63,47.706 47.759,47.937C47.852,48.077 47.955,48.211 48.067,48.337C48.081,48.368 48.097,48.397 48.115,48.426C47.671,48.643 47.44,49.149 47.566,49.627C47.817,50.205 48.148,50.744 48.548,51.23C48.897,50.977 49.319,50.846 49.75,50.857C49.996,50.856 50.241,50.895 50.475,50.973C50.602,50.62 50.521,50.224 50.266,49.948C50.202,49.872 50.138,49.796 50.078,49.712C50.524,49.236 50.66,48.545 50.427,47.937C50.469,47.873 50.506,47.806 50.539,47.737C51.292,45.982 52.486,44.087 52.434,42.152C52.36,41.696 52.36,41.23 52.434,40.774C52.542,40.409 52.834,40.133 52.967,39.78C53.335,38.875 52.814,38.07 52.61,37.193C52.386,36.205 52.386,35.18 52.61,34.192C52.79,33.391 53.011,32.726 52.686,31.913C52.526,31.512 52.285,31.28 52.446,30.855C52.606,30.43 52.946,30.13 53.047,29.653C53.119,29.304 53.119,28.944 53.047,28.595C53.175,28.563 53.307,28.523 53.447,28.479C53.929,28.376 54.277,27.946 54.277,27.453C54.277,27.269 54.228,27.088 54.136,26.929Z" style="fill:#6bb251;fill-rule:nonzero;"/><path d="M50.367,55.56C50.21,55.214 49.863,54.99 49.483,54.99C49.264,54.99 49.052,55.064 48.88,55.2C48.32,55.583 47.91,56.15 47.723,56.802C47.653,57.049 47.612,57.303 47.598,57.559C47.494,57.748 47.526,57.88 47.69,57.96C47.618,58.168 47.138,58.425 47.001,58.669C46.881,58.905 46.808,59.162 46.789,59.426C46.652,59.464 46.527,59.536 46.425,59.635C45.868,60.087 45.74,60.7 45.167,61.113C44.787,60.989 44.369,61.138 44.153,61.473C43.128,62.836 43.821,64.101 45.006,64.574C44.736,65.098 44.414,65.593 44.045,66.052C43.779,66.369 43.694,66.801 43.821,67.194C43.668,67.471 43.627,67.797 43.708,68.104C43.579,68.139 43.453,68.19 43.336,68.256C42.979,68.439 42.721,68.773 42.635,69.165C42.589,69.542 42.674,69.924 42.875,70.247C43.164,70.876 43.063,70.896 42.775,71.469C42.568,71.858 42.473,72.298 42.503,72.739C42.293,72.929 42.108,73.144 41.95,73.38C41.625,73.856 41.505,73.824 41.004,74.105C40.119,74.593 39.702,75.675 40.363,76.544C40.661,76.935 41.087,77.208 41.565,77.318C41.663,77.336 41.759,77.36 41.854,77.39C41.749,77.575 41.655,77.766 41.573,77.963C41.41,78.498 41.475,79.079 41.753,79.565C41.898,79.779 42.088,79.958 42.31,80.09C42.239,80.474 42.203,80.864 42.202,81.256C42.285,82.005 42.264,82.763 42.138,83.507C41.994,84.192 42.19,84.661 42.19,85.31C42.19,85.959 41.858,86.435 41.962,87.096C42.094,87.93 43.216,88.699 43.885,87.825C44.352,87.276 44.676,86.62 44.826,85.915C44.85,85.77 44.938,83.775 45.147,83.884C45.306,83.966 45.484,84.009 45.663,84.009C46.281,84.009 46.789,83.501 46.789,82.883C46.789,82.88 46.789,82.877 46.789,82.874C46.841,81.404 46.473,80.166 46.156,78.8C46.317,78.625 46.462,78.436 46.589,78.235C46.757,77.877 46.903,77.509 47.025,77.133C47.202,76.681 47.158,76.644 47.494,76.468C47.831,76.292 48.219,76.288 48.548,76.092C49.581,75.475 50.266,73.436 48.996,72.699C49.122,72.499 49.234,72.292 49.333,72.078C49.421,72.058 49.508,72.033 49.593,72.001C49.93,71.876 50.2,71.616 50.339,71.284C50.691,70.483 50.471,69.281 50.403,68.444C50.392,68.012 50.302,67.586 50.138,67.186C50.026,66.978 49.892,66.784 49.738,66.605C49.795,66.277 49.833,65.945 49.85,65.612C49.81,65.078 49.81,64.543 49.85,64.009C50.022,63.124 50.815,62.96 51.296,62.275C51.777,61.59 51.765,60.74 51.697,59.899C51.641,58.796 51.652,57.691 51.729,56.59C51.801,55.781 51.02,55.416 50.367,55.56Z" style="fill:#6bb251;fill-rule:nonzero;"/><path d="M64.592,82.746C64.288,81.812 63.827,80.987 63.735,80.014C63.711,79.769 63.515,79.329 63.511,79.164C63.511,78.824 63.707,78.495 63.651,78.119C63.623,77.954 63.322,77.47 63.274,77.542C63.282,77.391 63.301,77.241 63.33,77.093C62.593,76.861 61.868,76.588 61.147,76.292C60.997,76.685 60.813,77.064 60.598,77.426C60.254,77.992 59.881,78.54 59.48,79.068C59.57,79.258 59.708,79.421 59.881,79.541C60.173,79.741 60.181,79.701 60.318,79.966C60.454,80.23 60.418,80.615 60.566,80.911C60.704,81.137 60.866,81.346 61.051,81.536C61.261,81.823 61.42,82.144 61.52,82.485C61.795,83.146 62.302,83.683 62.946,83.996C63.791,84.416 64.921,83.727 64.592,82.746Z" style="fill:#6bb251;fill-rule:nonzero;"/><path d="M31.678,69.986C32.375,67.406 33.865,64.778 36.085,63.224C35.512,63.184 34.939,63.172 34.398,63.156C33.777,63.082 33.148,63.14 32.551,63.328C32.115,63.513 31.947,63.921 31.562,64.129C31.109,64.378 30.312,64.286 29.799,64.322L27.736,64.458C27.339,64.474 26.976,64.692 26.775,65.035L26.671,65.063C26.487,65.12 26.319,65.217 26.178,65.347C25.841,65.632 25.649,66.056 25.333,66.357C24.531,67.114 23.462,67.246 22.416,67.398C21.615,67.519 20.721,67.535 20.261,68.32C20.069,68.648 20.056,68.993 19.784,69.269C19.417,69.572 18.999,69.808 18.55,69.966C18.33,70.055 18.15,70.222 18.045,70.435C17.621,70.615 17.204,70.808 16.808,71C15.518,71.629 16.647,73.552 17.929,72.923C19.622,72.082 21.45,71.548 23.329,71.344C24.475,71.232 26.17,72.286 26.935,70.908C26.935,70.908 27.007,70.603 27.023,70.371C27.283,70.515 27.7,70.715 27.764,70.736C28.374,70.945 29.035,70.955 29.651,70.764C29.923,70.671 30.108,70.455 30.364,70.363C30.621,70.271 31.009,70.363 31.31,70.255C31.418,70.221 31.523,70.177 31.622,70.123C31.658,70.075 31.666,70.03 31.678,69.986Z" style="fill:#6bb251;fill-rule:nonzero;"/><path d="M47.662,52.708C46.905,51.39 44.958,50.425 43.544,50.06C43.192,49.968 42.927,49.996 42.663,49.772C42.4,49.49 42.158,49.19 41.938,48.874C41.362,48.187 40.626,47.652 39.794,47.316C37.98,46.623 35.832,46.831 33.954,47.068C32.924,47.196 32.88,46.627 32.159,46.098C31.438,45.569 30.713,45.625 29.887,45.75C29.21,45.854 29.242,45.677 28.818,45.225C28.545,44.932 28.208,44.707 27.832,44.568C26.871,44.211 25.725,44.395 24.724,44.383C22.795,44.366 20.869,44.221 18.959,43.951C18.832,43.898 18.695,43.877 18.558,43.891C18.077,43.819 17.597,43.738 17.116,43.654C15.718,43.398 15.113,45.541 16.523,45.798C17.004,45.886 17.485,45.966 17.969,46.038C18.621,46.694 19.414,47.192 20.289,47.492C20.794,47.692 21.038,47.737 21.326,48.189C21.515,48.482 22.172,49.107 22.084,49.467C21.863,50.373 22.885,51.262 23.718,50.721C24.039,50.521 24.76,50.072 25.168,50.264C25.04,50.204 25.569,51.006 25.637,51.102C26.038,51.602 26.506,52.215 27.151,52.388C28.037,52.616 28.529,51.963 29.327,51.835C29.923,51.743 31.33,51.815 31.602,52.444C31.846,53.005 32.652,53.105 33.124,52.844C34.01,52.36 34.763,52.916 35.628,53.157C36,53.266 36.386,53.319 36.774,53.313C37.109,53.289 37.442,53.246 37.771,53.185L37.747,53.389C37.718,53.738 37.795,54.087 37.968,54.391C38.374,55.107 39.148,55.541 39.971,55.512C40.874,55.456 41.77,55.314 42.647,55.088C43.154,54.956 43.674,54.876 44.197,54.847C44.72,54.909 45.236,55.016 45.74,55.168C46.38,55.296 47.138,55.4 47.642,54.879C48.147,54.359 48.027,53.333 47.662,52.708Z" style="fill:#6bb251;fill-rule:nonzero;"/><path d="M27.912,33.483L27.784,33.591C27.92,33.671 28.061,33.747 28.205,33.819C29.07,33.773 29.936,33.773 30.801,33.819C31.785,33.822 32.765,33.957 33.713,34.22C33.751,33.997 33.714,33.767 33.609,33.567C33.497,33.343 33.385,33.118 33.277,32.894C33.065,32.447 32.591,32.18 32.099,32.233L31.67,32.121C31.287,31.948 30.835,32.03 30.536,32.325C30.26,32.237 29.984,32.137 29.735,32.037C29.138,31.808 28.533,31.272 27.856,31.235C27.722,31.227 27.587,31.237 27.456,31.264C27.138,30.878 26.762,30.544 26.342,30.274C25.052,29.593 24.223,31.648 25.473,32.329C25.18,32.173 25.717,33.066 25.821,33.186C26.001,33.396 26.225,33.561 26.478,33.671C26.957,33.858 27.498,33.787 27.912,33.483Z" style="fill:#6bb251;fill-rule:nonzero;"/><path d="M83.95,65.095L79.367,63.613C78.638,63.376 78.613,63.268 78.109,62.771C77.976,62.647 77.835,62.531 77.688,62.423C77.688,62.335 77.668,62.247 77.656,62.154C77.478,61.033 76.664,60.111 75.573,59.795C74.587,59.567 73.722,60.476 72.877,60.532C72.937,59.714 72.518,58.931 71.803,58.529C71.385,58.285 70.877,58.244 70.425,58.417C70.134,58.538 69.887,58.746 69.72,59.014C69.171,58.749 68.827,57.96 68.118,57.812C67.256,57.624 66.539,58.301 65.714,58.148C65.237,58.06 64.841,57.72 64.344,57.648C64.122,57.612 63.896,57.612 63.675,57.648C63.779,57.001 63.611,56.339 63.21,55.821C62.189,54.579 59.757,53.962 58.319,54.218C57.925,54.35 57.524,54.457 57.117,54.539C56.651,54.513 56.197,54.389 55.783,54.174C54.913,53.838 54.096,53.509 53.159,53.63C52.837,53.685 52.544,53.853 52.334,54.102C52,54.096 51.666,54.118 51.336,54.17C51.917,54.635 52.622,54.972 53.171,55.472C53.808,56.087 54.381,56.765 54.881,57.495C56.025,59.141 57.052,60.866 57.954,62.655C58.535,62.779 59.128,62.872 59.697,62.98C60.579,63.202 61.5,63.218 62.389,63.028C62.597,62.963 62.799,62.881 62.994,62.783C63.009,62.82 63.028,62.855 63.05,62.888C63.095,63.052 63.167,63.207 63.262,63.348C63.551,63.869 64.228,64.238 64.464,64.55C64.7,64.863 64.833,65.391 65.065,65.752C65.309,66.128 65.607,66.465 65.95,66.753C67.064,67.647 68.025,67.238 68.755,66.161L68.815,66.185C68.999,66.273 69.187,66.353 69.375,66.429C69.676,66.488 69.982,66.518 70.289,66.521C71.17,66.597 71.763,67.006 72.556,67.41C75.99,69.165 80,67.142 83.629,67.659C84.995,67.803 85.183,65.492 83.95,65.095Z" style="fill:#6bb251;fill-rule:nonzero;"/><g id="halm"><path d="M89.374,30.819C89.343,30.715 89.234,30.654 89.129,30.683C85.666,31.667 82.284,32.92 79.014,34.428C78.213,34.789 77.388,35.189 76.578,35.578C75.769,35.967 74.976,36.379 74.175,36.808C72.572,37.641 71.018,38.535 69.476,39.456C66.387,41.299 63.398,43.314 60.498,45.441C59.809,45.946 59.127,46.459 58.451,46.979C59.175,46.823 59.908,46.713 60.646,46.651C60.988,46.305 61.454,46.109 61.94,46.106C64.564,44.103 67.264,42.172 70.052,40.389C71.551,39.428 73.073,38.499 74.623,37.625C75.393,37.177 76.178,36.76 76.959,36.335C77.74,35.911 78.537,35.506 79.339,35.133C82.536,33.556 85.838,32.2 89.222,31.075C89.315,31.057 89.383,30.974 89.383,30.879C89.383,30.858 89.38,30.838 89.374,30.819Z" style="fill:#13411f;fill-rule:nonzero;"/><path d="M50.026,51.05C50.303,51.046 50.577,51.106 50.827,51.226L50.803,49.115L50.719,43.238L50.571,31.488L50.363,19.738L50.25,13.861L50.126,7.988C50.126,7.928 50.078,7.878 50.018,7.876C49.956,7.876 49.906,7.927 49.906,7.988L49.77,13.861L49.665,19.738L49.457,31.488L49.285,43.238L49.201,49.115L49.201,51.258C49.459,51.134 49.74,51.063 50.026,51.05Z" style="fill:#13411f;fill-rule:nonzero;"/><path d="M35.071,63.957C32.74,64.69 30.444,65.532 28.201,66.481C27.62,66.725 27.047,66.986 26.474,67.238L25.609,67.619L24.76,68.019L23.061,68.821L21.395,69.706C20.838,69.998 20.281,70.287 19.74,70.599L18.122,71.533C17.573,71.837 17.052,72.186 16.519,72.51L14.917,73.5C14.846,73.547 14.803,73.627 14.803,73.712C14.803,73.853 14.919,73.969 15.06,73.969C15.098,73.969 15.135,73.961 15.169,73.944L16.828,73.091C17.384,72.811 17.925,72.51 18.494,72.25C19.62,71.725 20.721,71.152 21.863,70.647L23.562,69.89L25.276,69.177L26.134,68.821L27.003,68.484C27.58,68.264 28.153,68.035 28.738,67.823C30.272,67.262 31.822,66.745 33.377,66.257C33.75,65.366 34.331,64.578 35.071,63.957Z" style="fill:#13411f;fill-rule:nonzero;"/><path d="M50.258,55.284L50.206,55.256C50.114,55.236 50.106,55.22 50.206,55.256L49.978,55.192C49.818,55.14 49.862,55.168 50.006,55.192C49.916,55.182 49.826,55.166 49.738,55.144C49.712,55.19 49.689,55.239 49.669,55.288C48.632,58.148 47.787,61.005 47.001,63.905C46.216,66.806 45.523,69.714 44.934,72.65C44.345,75.587 43.809,78.519 43.404,81.48L43.244,82.59C43.192,82.958 43.144,83.331 43.1,83.699L42.839,85.927C42.747,86.668 42.687,87.413 42.619,88.158L42.418,90.389C42.407,90.51 42.495,90.619 42.615,90.634C42.624,90.635 42.634,90.636 42.644,90.636C42.756,90.636 42.852,90.549 42.863,90.437L43.144,88.222C43.236,87.481 43.32,86.744 43.444,86.011L43.781,83.803C43.833,83.435 43.897,83.07 43.965,82.702L44.161,81.604C44.67,78.676 45.303,75.767 45.992,72.879C46.681,69.99 47.482,67.126 48.351,64.29C48.784,62.872 49.249,61.461 49.73,60.059C50.21,58.657 50.727,57.255 51.276,55.921L51.276,55.897L51.276,55.869C51.315,55.756 51.332,55.636 51.324,55.516C50.953,55.619 50.554,55.532 50.258,55.284Z" style="fill:#13411f;fill-rule:nonzero;"/><path d="M85.901,67.078L83.641,66.733L82.511,66.561C82.139,66.497 81.758,66.453 81.386,66.373L79.15,65.928L78.033,65.708C77.656,65.636 77.291,65.532 76.923,65.443L74.7,64.899C74.515,64.855 74.331,64.815 74.147,64.762L73.602,64.602L72.508,64.286L71.419,63.965L70.87,63.805L70.333,63.625L68.198,62.896C65.353,61.875 62.578,60.67 59.889,59.29C59.228,58.93 58.555,58.593 57.914,58.204L56.941,57.64L55.987,57.043L55.514,56.742L55.05,56.43C54.745,56.217 54.429,56.029 54.132,55.793C53.836,55.556 53.527,55.36 53.243,55.128C53.103,55.016 52.95,54.903 52.814,54.791C52.678,54.679 52.526,54.555 52.414,54.455L52.37,54.419C52.229,54.303 52.058,54.229 51.877,54.206C51.887,54.306 51.887,54.407 51.877,54.507C52.351,54.784 52.8,55.102 53.219,55.456C53.856,56.071 54.429,56.749 54.929,57.479C55.33,58.028 55.679,58.593 56.035,59.162L56.075,59.182L57.105,59.723C57.79,60.095 58.495,60.412 59.192,60.748C61.985,62.034 64.86,63.135 67.797,64.045L70.016,64.69L70.569,64.851L71.13,64.987L72.248,65.259L73.366,65.536L73.926,65.672L74.491,65.784L76.747,66.233C77.123,66.305 77.5,66.393 77.876,66.449L79.014,66.621L81.286,66.97C81.662,67.034 82.047,67.062 82.427,67.106L83.569,67.23L85.848,67.475C85.857,67.476 85.866,67.476 85.875,67.476C85.985,67.476 86.077,67.385 86.077,67.274C86.077,67.173 86.001,67.087 85.901,67.074L85.901,67.078Z" style="fill:#13411f;fill-rule:nonzero;"/><path d="M48.079,53.181C47.959,53.032 47.799,52.921 47.618,52.86C46.18,52.388 44.73,51.939 43.28,51.502C41.83,51.066 40.375,50.633 38.921,50.216C36.009,49.379 33.084,48.578 30.164,47.761C27.243,46.943 24.323,46.158 21.399,45.357C19.936,44.956 18.474,44.556 16.992,44.155L12.545,43.134C12.345,43.081 12.193,43.134 12.144,43.282C12.096,43.43 12.189,43.578 12.397,43.65L16.679,45.197C18.119,45.683 19.558,46.158 20.998,46.623C23.878,47.568 26.759,48.514 29.647,49.427C32.535,50.341 35.416,51.29 38.308,52.199C39.75,52.651 41.199,53.093 42.655,53.525C44.11,53.958 45.567,54.376 47.025,54.779C47.221,54.83 47.427,54.821 47.618,54.755C47.316,54.197 47.523,53.489 48.079,53.181Z" style="fill:#13411f;fill-rule:nonzero;"/><path d="M28.457,33.315C27.92,32.782 27.368,32.265 26.783,31.784C25.922,31.07 25.01,30.419 24.055,29.837C24.007,29.806 23.942,29.818 23.91,29.865C23.895,29.884 23.887,29.908 23.887,29.932C23.887,29.968 23.905,30.002 23.934,30.022C24.825,30.667 25.668,31.375 26.458,32.141C26.899,32.57 27.32,33.018 27.728,33.475C27.957,33.37 28.206,33.315 28.457,33.315Z" style="fill:#13411f;fill-rule:nonzero;"/><path d="M68.238,24.577C68.194,24.535 68.125,24.535 68.081,24.577C67.681,25.038 67.28,25.515 66.92,26C66.96,26.074 66.995,26.152 67.024,26.232C67.057,26.314 67.085,26.398 67.108,26.484C67.473,25.883 67.845,25.282 68.254,24.722C68.284,24.676 68.277,24.615 68.238,24.577Z" style="fill:#13411f;fill-rule:nonzero;"/><path d="M65.453,85.915C65.161,85.342 64.861,84.773 64.572,84.2C64.284,83.627 64.015,83.046 63.771,82.457C63.527,81.868 63.258,81.284 63.03,80.687C62.801,80.09 62.573,79.485 62.357,78.892C61.956,77.69 61.576,76.464 61.283,75.234C61.232,75.013 61.184,74.792 61.139,74.573L61.023,74.838C60.891,75.118 60.734,75.387 60.622,75.671C60.622,75.707 60.554,75.879 60.534,75.943C60.489,76.113 60.455,76.286 60.434,76.46C60.426,76.518 60.414,76.576 60.398,76.632C60.71,77.522 61.059,78.399 61.427,79.26C61.692,79.857 61.956,80.462 62.229,81.039C62.501,81.616 62.813,82.201 63.118,82.778C63.422,83.355 63.751,83.912 64.067,84.476C64.384,85.041 64.744,85.586 65.081,86.139C65.14,86.238 65.267,86.275 65.369,86.223C65.44,86.183 65.484,86.108 65.484,86.027C65.484,85.988 65.473,85.949 65.453,85.915Z" style="fill:#13411f;fill-rule:nonzero;"/></g><path d="M68.791,78.119C68.448,78.127 68.111,78.038 67.817,77.862C66.255,77.654 64.735,77.199 63.314,76.516C63.875,74.449 63.663,72.11 63.531,69.994C63.443,67.709 63.008,65.45 62.241,63.296C61.396,61.154 60.069,59.234 58.363,57.688C56.708,56.157 54.725,54.399 52.558,53.722C52.066,53.546 51.521,53.594 51.068,53.854C50.989,54.414 50.666,54.912 50.186,55.212C54.04,56.013 57.537,60.492 58.735,63.985C58.791,64.141 58.839,64.306 58.888,64.462C58.961,64.597 59.02,64.739 59.064,64.887C59.745,67.162 60.414,69.173 60.414,71.601C60.41,72.383 60.328,73.163 60.169,73.928C60.18,75.097 59.982,76.258 59.585,77.358C59.638,77.433 59.697,77.504 59.761,77.57C59.717,77.694 59.681,77.818 59.633,77.938C59.125,79.065 58.489,80.13 57.738,81.111C57.306,82.104 56.722,83.023 56.007,83.835C55.606,84.266 55.42,84.855 55.502,85.438C55.639,85.498 55.767,85.562 55.707,85.542L56.239,85.742C56.788,85.942 57.324,86.178 57.842,86.447C58.091,86.586 58.303,86.781 58.463,87.016C58.609,86.918 58.743,86.804 58.863,86.676C60.659,84.667 61.878,82.21 62.393,79.565C64.536,80.723 66.832,81.612 69.203,80.735C69.44,80.651 69.66,80.524 69.852,80.362C69.852,79.581 69.916,78.8 69.924,78.019C69.549,78.077 69.17,78.11 68.791,78.119Z" style="fill:#1d1d1b;fill-opacity:0.5;fill-rule:nonzero;"/><path d="M48.167,54.855C47.518,57.239 45.042,58.673 42.815,59.847C39.67,61.505 36.361,63.144 32.764,63.348C32.76,63.422 32.76,63.495 32.764,63.569C31.025,63.721 29.006,63.252 27.62,62.888C24.391,62.042 21.767,60.019 19.279,57.88C18.993,57.645 18.783,57.33 18.678,56.975C17.188,57.039 15.874,59.006 17.252,60.408C20.457,63.721 25.369,65.355 29.992,66.301C27.488,70.583 25.801,76.316 27.588,80.843C29.018,80.867 30.44,80.939 31.854,81.095C31.88,80.703 31.788,80.313 31.59,79.974C30.753,78.483 30.789,76.604 31.101,74.842C31.099,74.804 31.099,74.767 31.101,74.73C31.213,73.223 30.917,71.869 31.382,70.375C31.854,68.868 32.565,67.446 33.489,66.165C33.663,65.926 33.852,65.699 34.054,65.484C34.429,65.657 34.847,65.715 35.256,65.652C38.348,65.195 41.028,63.757 43.632,62.086C45.788,60.704 48.644,58.881 49.273,56.225C49.341,55.927 49.341,55.618 49.273,55.32C48.863,55.294 48.473,55.13 48.167,54.855Z" style="fill:#1d1d1b;fill-opacity:0.5;fill-rule:nonzero;"/><path d="M43.079,48.474C42.505,48.298 42.054,47.847 41.878,47.272C40.575,46.263 39.39,45.111 38.344,43.839C37.483,42.737 36.189,42.004 35.464,40.79C34.891,39.733 34.493,38.59 34.286,37.405C34.15,37.132 34.018,36.856 33.886,36.58C33.956,36.549 34.024,36.514 34.09,36.475C33.553,33.607 33.136,30.847 33.505,28.007C32.551,28.007 31.594,28.007 30.645,27.946C30.59,29.315 30.634,30.686 30.777,32.049C27.608,31.404 24.367,31.296 21.254,32.417C21.603,33.715 21.935,35.013 22.164,36.339C24.567,35.438 26.971,35.434 29.375,35.854C30.464,39.929 33.301,43.787 36.097,46.847C38.965,49.98 43.973,52.528 48.239,52.684C49.109,52.758 49.907,52.17 50.094,51.318C47.678,51.835 44.582,50.208 43.079,48.474Z" style="fill:#1d1d1b;fill-opacity:0.5;fill-rule:nonzero;"/><path d="M83.421,52.56C83.845,51.991 84.254,51.414 84.647,50.821C81.762,47.476 78.638,44.412 74.403,42.809C71.644,41.831 68.716,41.415 65.794,41.587C69.063,37.549 71.851,32.373 71.17,27.61C71.07,27.133 70.99,26.893 70.93,26.568C70.557,26.544 70.185,26.52 69.812,26.516C68.887,26.516 67.977,26.604 67.056,26.516C67.685,29.268 67.22,31.584 66.131,34.084C66.068,35.91 65.638,37.706 64.869,39.364C63.639,41.984 61.568,43.883 59.424,45.738C59.884,46.078 60.461,46.222 61.027,46.138C61.222,45.964 61.447,45.829 61.692,45.738C65.253,44.299 69.159,43.67 72.709,45.465C73.854,46.046 74.623,46.875 75.433,47.721C78.069,49.323 80.172,51.695 82.151,54.054C82.568,53.557 83.02,53.081 83.421,52.56Z" style="fill:#1d1d1b;fill-opacity:0.5;fill-rule:nonzero;"/><path d="M70.201,77.518C70.217,79.048 70.133,80.578 69.948,82.097C69.412,86.636 67.817,89.833 69.055,92.913C66.319,90.63 62.878,89.813 58.976,87.425C57.954,86.8 56.532,85.77 55.442,84.937" style="fill:none;fill-rule:nonzero;stroke:#000;stroke-width:1.6px;"/><path d="M21.595,35.474C20.794,31.616 20.794,28.523 19.307,25.859C22.336,27.346 25.781,27.005 30.272,27.862C31.546,28.105 32.806,28.418 34.046,28.8" style="fill:none;fill-rule:nonzero;stroke:#000;stroke-width:1.6px;"/><path d="M65.105,22.474C67.625,21.489 69.792,20.732 71.539,19.193C70.99,21.429 71.318,23.672 71.619,26.32" style="fill:none;fill-rule:nonzero;stroke:#000;stroke-width:1.6px;"/><path d="M53.776,51.042C68.394,40.249 70.689,27.53 61.295,16.773C56.953,11.798 51.58,5.637 50.246,0.801C48.968,5.653 44.506,9.807 40.784,15.267C32.179,27.89 28.666,38.458 45.299,50.737C47.815,51.939 49.029,51.731 49.665,50.869C50.335,51.59 51.829,52.299 53.776,51.042Z" style="fill:none;fill-rule:nonzero;stroke:#000;stroke-width:1.6px;"/><path d="M82.219,53.986C84.679,51.482 86.225,48.073 87.587,44.067C89.831,37.569 91.433,29.789 94.698,25.992C89.967,27.642 84.022,26.24 77.416,26.188C73.526,26.16 69.928,26.328 66.711,26.941" style="fill:none;fill-rule:nonzero;stroke:#000;stroke-width:1.6px;"/><path d="M51.881,51.731C51.08,52.969 51.168,53.89 51.572,54.535C51.317,54.661 51.072,54.807 50.839,54.972" style="fill:none;fill-rule:nonzero;stroke:#000;stroke-width:1.6px;"/><path d="M60.883,75.859C64.917,78.303 69.88,78.351 75.437,75.939C80.993,73.528 87.767,70.591 92.062,70.908C88.705,68.212 87.074,62.799 84.138,57.668C78.221,47.308 70.886,40.914 58.647,46.947" style="fill:none;fill-rule:nonzero;stroke:#000;stroke-width:1.6px;"/><path d="M36.081,62.92C30.012,68.704 29.315,75.947 33.613,83.599C36.441,88.639 39.939,94.88 40.167,99.199C42.21,95.389 46.921,92.789 51.224,88.987C61.175,80.142 65.79,69.758 53.652,56.109C51.689,54.599 50.479,54.803 49.75,55.484C49.633,55.308 49,54.567 48.472,54.655" style="fill:none;fill-rule:nonzero;stroke:#000;stroke-width:1.6px;"/><path d="M33.621,34C29.727,32.938 25.969,33.599 21.503,35.722C16.239,38.234 9.709,41.343 5.302,41.315C9.1,43.566 11.528,48.39 15.241,52.884C23.83,63.3 33.152,68.164 47.59,56.915C49.217,55.056 48.544,54.695 47.879,53.934C48.279,53.71 49.405,52.936 48.848,51.735" style="fill:none;fill-rule:nonzero;stroke:#000;stroke-width:1.6px;"/><path d="M18.162,56.786C16.411,58.708 15.051,60.952 14.156,63.392C12.112,68.785 9.532,75.463 6.356,78.395C10.59,77.534 15.57,79.509 21.274,80.398C25.333,81.003 29.038,81.324 32.311,80.923" style="fill:none;fill-rule:nonzero;stroke:#000;stroke-width:1.6px;"/></g></svg>
