<svg width="100px" height="100px" viewBox="0 0 100 100" version="1.1" xmlns="http://www.w3.org/2000/svg" xml:space="preserve" style="fill-rule:evenodd;clip-rule:evenodd;stroke-linecap:round;stroke-linejoin:round;"><g id="svg_rdy"><circle cx="50" cy="50" r="45.98" style="fill:#813b8f;"/><path d="M42.494,13.79C49.945,11.876 56.998,14.234 58.236,19.052C59.474,23.87 54.431,29.336 46.981,31.25C39.531,33.164 32.477,30.806 31.239,25.988C30.001,21.17 35.044,15.704 42.494,13.79Z" style="fill:#985fa3;"/><path d="M50,4.02C48.491,4.02 47.002,4.02 45.533,4.238C64.502,6.274 79.051,22.469 79.051,41.547C79.051,62.131 62.113,79.069 41.529,79.069C22.444,79.069 6.246,64.509 4.218,45.533C4.079,47.002 4,48.471 4,49.98C4,49.987 4,49.993 4,50C4,75.235 24.765,96 50,96C75.235,96 96,75.235 96,50C96,24.765 75.235,4 50,4L50,4.02Z" style="fill:#1d1d1b;fill-opacity:0.5;fill-rule:nonzero;"/><circle cx="50" cy="50" r="45.98" style="fill:none;stroke:#000;stroke-width:7.94px;"/></g></svg>
