<svg width="100px" height="100px" version="1.1" xmlns="http://www.w3.org/2000/svg"  xml:space="preserve" style="fill-rule:evenodd;clip-rule:evenodd;">
    <path d="M62.211,30.769c0.853,-2.706 1.138,-5.245 -0.518,-9.982c-2.966,-8.483 -14.905,-20.787 -14.905,-20.787c0,0 -9.225,11.86 -11.571,19.615c-0.95,3.142 -1.074,6.832 -0.66,9.991c-1.509,-0.858 -3.442,-1.496 -6.337,-1.886c-8.906,-1.198 -25.283,3.872 -25.283,3.872c0,0 6.394,13.597 12.245,19.201c1.362,1.305 4.942,2.676 8.373,3.5c-2.93,0.97 -5.907,1.921 -7.203,3.606c-5.476,7.125 -9.242,23.85 -9.242,23.85c0,0 14.975,1.232 22.75,-1.048c1.778,-0.522 6.652,-5.951 6.652,-5.951c0.595,13.445 13.421,25.25 13.421,25.25c0,0 7.347,-8.635 9.622,-13.789c1.271,-2.879 1.659,-9.877 1.659,-9.877c0,0 5.644,4.988 9.069,6.378c4.792,1.944 17.196,1.637 17.196,1.637c0,0 1.052,-12.619 -3.834,-19.082c-4.182,-5.532 -9.189,-5.517 -11.57,-7.044c2.756,-0.432 9.015,-1.331 12.973,-4.575c6.95,-5.696 12.015,-14.375 12.015,-14.375c0,0 -12.521,-8.306 -20.431,-10.061c-4.502,-0.998 -9.958,-0.29 -13.447,1.105c-0.321,0.128 -0.646,0.28 -0.974,0.452Z" style="fill:#063614;fill-rule:nonzero;stroke:#17540f;stroke-width:1.26px;"/>
</svg>
