<svg width="100px" height="100px" viewBox="0 0 100 100" version="1.1" xmlns="http://www.w3.org/2000/svg" xmlns:xlink="http://www.w3.org/1999/xlink" xml:space="preserve" style="fill-rule:evenodd;clip-rule:evenodd;stroke-linecap:round;stroke-linejoin:round;stroke-miterlimit:1.5;"><g transform="rotate(180, 50, 50)"><ellipse id="path3698.2e..-1" cx="51.767" cy="54.852" rx="37.193" ry="39.227" style="fill:#f2a586;"/><path d="M51.845,77.007c4.593,0 9.896,0.798 9.896,1.597c0,0.799 -4.974,0.087 -9.568,0.087c-4.593,0 -9.698,1.058 -9.698,0.259c0,-0.799 4.777,-1.943 9.37,-1.943l0,0Z" style="stroke:#ff8551;stroke-width:0.33px;"/><g><g><ellipse cx="65.904" cy="63.612" rx="6.228" ry="2.837" style="stroke:#fff;stroke-width:0.2px;"/><ellipse cx="68.137" cy="64.888" rx="2.65" ry="1.207" style="fill:#fff;"/></g><g><ellipse cx="37.629" cy="63.612" rx="6.228" ry="2.837" style="stroke:#fff;stroke-width:0.2px;"/><ellipse cx="39.862" cy="64.888" rx="2.65" ry="1.207" style="fill:#fff;"/></g></g><path d="M6.665,74.546c-0.695,-2.345 -1.215,-4.795 -1.215,-6.867c0,-2.923 0.413,-5.62 1.108,-7.784c-0.083,-0.122 -0.162,-0.249 -0.236,-0.378c-1.428,-1.444 -1.325,-3.742 -1.47,-5.597c-0.144,-1.85 0.601,-5.534 0.601,-5.534c0,0 -1.209,-3.919 -1.311,-5.946c-0.11,-2.19 0.018,-4.786 0.65,-7.191c0.072,-0.974 -0.392,-3.801 -0.002,-5.792c0.501,-2.559 1.872,-4.364 1.872,-5.755c0,-3.694 1.926,-6.651 3.83,-9.156c1.903,-2.507 7.576,-5.931 7.588,-5.949c1.433,-2.143 2.946,-2.441 5.591,-3.526c2.768,-1.136 5.468,-1.591 6.987,-1.348c7.018,1.126 10.58,1.495 6.463,0.149c-11.468,-3.753 8.681,-4.2 13.02,-3.367c0.051,0.01 24.229,6.978 10.744,1.475c-4.844,-1.977 9.201,-2.01 23.276,7.462c4.792,3.224 11.08,9.409 11.08,14.986c0,0.87 -0.066,1.716 -0.189,2.526c1.657,1.502 2.785,4.457 2.785,7.854c0,2.483 -0.602,4.729 -1.575,6.345c0.294,0.571 0.542,1.204 0.737,1.885c0.205,0.715 0.35,1.482 0.428,2.285c0.042,0.436 0.064,0.882 0.064,1.336c0,1.212 -0.154,2.366 -0.434,3.413c0.599,1.083 0.953,2.415 0.953,3.854c0,2.631 -1.181,4.901 -2.886,5.952c0.186,0.906 0.291,1.942 0.291,3.045c0,2.628 -0.601,4.887 -1.458,5.873c0.374,1.064 0.593,2.347 0.593,3.728c0,0.418 -0.064,1.28 -0.169,2.248c-0.283,1.217 -0.859,2.795 -1.274,1.69c-0.331,-0.882 -4.183,0.962 -3.943,1.757c0.129,0.425 -1.324,-0.206 -2.205,-0.146c-0.65,0.698 -1.481,1.816 -0.788,2.694c0.364,0.46 -1.976,-0.732 -2.358,-1.117c-0.259,-0.262 -0.716,0.909 -0.424,1.774c0.032,0.096 -1.791,-0.522 -1.987,-0.548c-0.062,2.044 -3.986,4.09 -2.584,5.355c0.931,0.841 -2.631,-0.219 -3.348,-1.939c-0.337,-0.812 0.532,5.877 -0.713,4.892c-1.034,-0.818 -1.903,-0.788 -2.245,-1.267c-0.166,0.058 -0.339,0.104 -0.515,0.136c0.042,0.243 0.065,0.491 0.065,0.744c0,2.966 -4.789,2.907 -4.844,6.022c-0.01,0.599 -4.563,-0.919 -5.594,-1.393c-0.344,1.751 -4.208,4.417 -6.446,4.417c-0.465,0 -0.459,-2.048 -0.459,-2.048c0,0 -2.323,4.055 -3.458,4.055c-0.857,0 -4.717,-5.755 -5.761,-3.06c-0.348,0.9 -3.987,-2.756 -4.21,-2.285c-0.656,1.382 -3.736,-4.346 -4.053,-1.617c-0.156,1.336 -3.116,-2.265 -4.501,-3.051c-0.895,-0.508 -2.905,-2.001 -2.722,-1.509c0.397,1.065 -3.18,1.889 -3.186,1.769c-0.083,-1.746 -1.856,-2.6 -2.141,-4.629c-1.117,-0.14 -4.116,1.652 -3.845,0.851c0.219,-0.644 0.579,-3.551 -0.134,-4.149c-1.066,1.735 -3.35,3.263 -3.745,2.576c-0.278,-0.486 0.514,-0.897 -1.337,-2.743c-1.257,-1.254 -1.171,-3.603 -3.516,-2.558c-1.506,0.671 0.859,-2.818 -0.262,-1.358c-0.357,0.465 -0.915,1.494 -1.876,0.573c-0.557,-0.534 -2.109,-2.139 -3.239,-3.888l-0.068,-0.226Zm44.198,1.484c7.761,0 17.242,1.544 17.242,3.215c0,1.67 -8.406,0.181 -16.167,0.181c-7.761,0 -16.387,2.214 -16.387,0.543c0,-1.67 7.551,-3.939 15.312,-3.939l0,0Zm-13.919,-30.674c1.234,-4.98 -7.471,1.181 -7.991,15.635c-0.061,1.688 -7.403,-7.775 -9.148,-7.598c0.708,4.757 1.554,8.704 -1.008,12.939c-0.607,1.005 1.089,4.652 4.115,5.799c3.565,1.349 6.662,0.447 9.842,0.753c3.085,0.297 7.03,1.228 9.241,1.083c1.52,-0.099 5.834,-1.348 8.152,-1.378c1.95,-0.026 4.072,1.114 5.753,1.189c1.459,0.065 2.873,-0.746 4.329,-0.741c1.455,0.005 2.951,1.114 4.402,0.768c1.795,-0.425 3.472,-2.655 6.365,-3.322c-0.062,-0.25 9.944,2.452 12.048,-0.161c3.824,-4.748 2.939,-7.355 2.787,-10.355c-2.357,-1.252 -3.039,-19.993 -6.38,-2.76c-0.978,5.041 -6.749,-8.773 -5.255,-14.643c0.332,-1.301 -9.184,3.712 -6.397,16.33c1.061,4.8 -11.193,-6.915 -10.218,-16.704c0.408,-4.102 -18.357,23.002 -15.363,14.703c0.957,-2.65 -6.691,-5.824 -5.274,-11.537l0,0Z" style="fill:#6d2b00;stroke:#000;stroke-width:0.34px;"/></g></svg>