<?xml version="1.0" encoding="UTF-8" standalone="no"?><!DOCTYPE svg PUBLIC "-//W3C//DTD SVG 1.1//EN" "http://www.w3.org/Graphics/SVG/1.1/DTD/svg11.dtd"><svg width="100%" height="100%" viewBox="0 0 100 100" version="1.1" xmlns="http://www.w3.org/2000/svg" xmlns:xlink="http://www.w3.org/1999/xlink" xml:space="preserve" xmlns:serif="http://www.serif.com/" style="fill-rule:evenodd;clip-rule:evenodd;stroke-linecap:round;stroke-linejoin:round;stroke-miterlimit:1.5;"><g><ellipse id="path3698.-1" cx="50.706" cy="54.838" rx="37.081" ry="39.109" style="fill:#f2a586;"/><path d="M50.785,76.926c4.579,0 9.865,0.795 9.865,1.591c0,0.797 -4.958,0.087 -9.539,0.087c-4.579,0 -9.668,1.055 -9.668,0.259c0,-0.797 4.763,-1.937 9.342,-1.937l0,0Z" style="stroke:#ff8551;stroke-width:0.33px;"/><g><g><ellipse cx="64.801" cy="63.571" rx="6.209" ry="2.829" style="stroke:#fff;stroke-width:0.2px;"/><ellipse cx="67.028" cy="64.843" rx="2.642" ry="1.204" style="fill:#fff;"/></g><g><ellipse cx="36.611" cy="63.571" rx="6.209" ry="2.829" style="stroke:#fff;stroke-width:0.2px;"/><ellipse cx="38.838" cy="64.843" rx="2.642" ry="1.204" style="fill:#fff;"/></g></g><path d="M5.74,74.472c-0.693,-2.338 -1.211,-4.78 -1.211,-6.846c0,-2.914 0.411,-5.603 1.104,-7.761c-0.082,-0.122 -0.16,-0.248 -0.235,-0.376c-1.424,-1.44 -1.32,-3.731 -1.465,-5.581c-0.143,-1.844 0.6,-5.517 0.6,-5.517c0,0 -1.206,-3.907 -1.308,-5.928c-0.11,-2.183 0.018,-4.772 0.648,-7.17c0.072,-0.97 -0.39,-3.79 -0.002,-5.775c0.5,-2.55 1.866,-4.35 1.866,-5.737c0,-3.683 1.921,-6.631 3.819,-9.129c1.897,-2.499 7.553,-5.912 7.565,-5.93c1.428,-2.137 2.938,-2.434 5.574,-3.516c2.76,-1.133 5.452,-1.586 6.967,-1.343c6.996,1.122 10.548,1.49 6.443,0.147c-11.434,-3.741 8.654,-4.187 12.98,-3.356c0.052,0.01 24.157,6.957 10.713,1.47c-4.83,-1.97 9.172,-2.004 23.205,7.44c4.778,3.214 11.047,9.381 11.047,14.941c0,0.868 -0.065,1.711 -0.189,2.518c1.652,1.498 2.777,4.444 2.777,7.831c0,2.475 -0.6,4.715 -1.57,6.326c0.293,0.569 0.54,1.2 0.734,1.879c0.205,0.712 0.35,1.477 0.427,2.278c0.043,0.435 0.064,0.88 0.064,1.332c0,1.209 -0.154,2.359 -0.433,3.403c0.598,1.08 0.95,2.408 0.95,3.842c0,2.623 -1.177,4.887 -2.877,5.935c0.185,0.902 0.291,1.936 0.291,3.035c0,2.62 -0.599,4.872 -1.454,5.856c0.373,1.06 0.591,2.339 0.591,3.716c0,0.417 -0.064,1.276 -0.169,2.242c-0.281,1.213 -0.856,2.786 -1.269,1.685c-0.331,-0.88 -4.171,0.958 -3.932,1.752c0.129,0.423 -1.32,-0.206 -2.198,-0.146c-0.648,0.696 -1.477,1.811 -0.785,2.685c0.362,0.459 -1.971,-0.73 -2.352,-1.114c-0.258,-0.261 -0.713,0.907 -0.423,1.769c0.033,0.096 -1.785,-0.52 -1.981,-0.546c-0.061,2.038 -3.973,4.078 -2.576,5.339c0.928,0.838 -2.622,-0.218 -3.337,-1.933c-0.337,-0.81 0.529,5.859 -0.711,4.877c-1.031,-0.815 -1.898,-0.785 -2.238,-1.264c-0.166,0.059 -0.338,0.104 -0.515,0.137c0.043,0.242 0.066,0.489 0.066,0.741c0,2.958 -4.775,2.898 -4.83,6.004c-0.01,0.598 -4.549,-0.916 -5.577,-1.389c-0.343,1.746 -4.196,4.404 -6.426,4.404c-0.464,0 -0.458,-2.042 -0.458,-2.042c0,0 -2.316,4.043 -3.448,4.043c-0.854,0 -4.702,-5.738 -5.743,-3.051c-0.348,0.898 -3.975,-2.747 -4.198,-2.278c-0.654,1.378 -3.724,-4.333 -4.04,-1.612c-0.156,1.332 -3.108,-2.258 -4.488,-3.042c-0.892,-0.506 -2.897,-1.995 -2.714,-1.504c0.396,1.062 -3.17,1.883 -3.177,1.763c-0.082,-1.74 -1.85,-2.592 -2.134,-4.615c-1.113,-0.139 -4.103,1.647 -3.833,0.849c0.218,-0.643 0.577,-3.541 -0.134,-4.136c-1.063,1.729 -3.34,3.252 -3.733,2.567c-0.278,-0.484 0.511,-0.893 -1.333,-2.734c-1.254,-1.25 -1.168,-3.592 -3.506,-2.55c-1.502,0.668 0.856,-2.81 -0.261,-1.355c-0.356,0.464 -0.913,1.49 -1.87,0.572c-0.556,-0.533 -2.103,-2.133 -3.23,-3.876l-0.068,-0.226Zm44.065,1.48c7.738,0 17.191,1.539 17.191,3.205c0,1.665 -8.381,0.18 -16.119,0.18c-7.737,0 -16.338,2.207 -16.338,0.542c0,-1.665 7.528,-3.927 15.266,-3.927l0,0Zm-13.877,-30.582c1.231,-4.966 -7.448,1.177 -7.966,15.588c-0.062,1.683 -7.381,-7.752 -9.121,-7.575c0.706,4.742 1.55,8.678 -1.005,12.9c-0.605,1.002 1.086,4.638 4.102,5.782c3.554,1.345 6.642,0.445 9.813,0.75c3.076,0.296 7.009,1.225 9.213,1.08c1.515,-0.099 5.817,-1.344 8.127,-1.374c1.945,-0.026 4.061,1.11 5.736,1.185c1.455,0.065 2.865,-0.743 4.317,-0.738c1.45,0.005 2.941,1.11 4.388,0.765c1.789,-0.423 3.462,-2.647 6.346,-3.312c-0.062,-0.248 9.914,2.445 12.012,-0.16c3.812,-4.734 2.929,-7.333 2.778,-10.324c-2.349,-1.248 -3.03,-19.933 -6.36,-2.752c-0.976,5.026 -6.729,-8.746 -5.24,-14.599c0.331,-1.296 -9.157,3.701 -6.377,16.281c1.058,4.786 -11.16,-6.894 -10.187,-16.654c0.406,-4.089 -18.303,22.934 -15.318,14.659c0.955,-2.642 -6.671,-5.806 -5.258,-11.502l0,0Z" style="fill:#6d2b00;stroke:#000;stroke-width:0.59px;"/></g></svg>