<svg width="100px" height="100px" viewBox="0 0 100 100" version="1.1" xmlns="http://www.w3.org/2000/svg" xmlns:xlink="http://www.w3.org/1999/xlink" xml:space="preserve" xmlns:serif="http://www.serif.com/" style="fill-rule:evenodd;clip-rule:evenodd;"><path d="M71.19,47.523c0.296,-0.249 0.875,-0.278 1.279,-0.341c0.967,-0.151 0.949,-0.615 1.772,0.272c2.178,2.347 2.243,4.26 4.04,6.215c1.659,1.8 0.587,5.854 0.587,5.854c0,0 -0.624,-3.672 -2.105,-4.243c-1.183,-0.457 -2.28,-3.237 -2.957,-3.983c0.138,0.507 -0.104,2.664 0.154,3.177c1.042,2.07 0.624,5.566 0.624,5.566c0,0 -0.375,-2.703 -1.57,-3.427c-1.054,-0.635 -1.498,-1.468 -1.963,-2.44c-0.223,-0.464 -0.437,-0.966 -0.629,-1.531c-0.137,0.923 -0.235,1.83 -0.096,2.836c0.32,2.263 1.531,4.354 1.531,4.354c0,0 -2.862,-2.258 -3.768,-3.279c-0.795,-0.901 -0.946,-1.816 -1.074,-2.871c-0.174,-1.447 -0.176,-3.166 0.461,-5.666c0.282,-1.091 1.228,-0.748 1.835,-0.641c0.661,0.118 0.978,-0.093 1.164,0.223c0.242,-0.044 0.497,-0.053 0.704,-0.074c0.005,-0.001 0.008,-0.001 0.011,-0.001l0,0Z" style="fill:#a59007;fill-rule:nonzero;stroke:#000;stroke-width:0.62px;"/><path d="M28.884,47.524c-0.297,-0.25 -0.876,-0.278 -1.278,-0.341c-0.969,-0.153 -0.951,-0.615 -1.771,0.27c-2.18,2.35 -2.245,4.261 -4.042,6.215c-1.658,1.803 -0.587,5.855 -0.587,5.855c0,0 0.623,-3.671 2.105,-4.242c1.182,-0.456 2.281,-3.237 2.956,-3.982c-0.136,0.507 0.105,2.662 -0.153,3.176c-1.044,2.07 -0.625,5.564 -0.625,5.564c0,0 0.376,-2.702 1.572,-3.425c1.052,-0.636 1.497,-1.469 1.961,-2.439c0.224,-0.464 0.437,-0.967 0.629,-1.534c0.138,0.924 0.237,1.831 0.097,2.837c-0.32,2.265 -1.529,4.353 -1.529,4.353c0,0 2.861,-2.256 3.764,-3.277c0.799,-0.901 0.949,-1.817 1.077,-2.872c0.173,-1.446 0.176,-3.165 -0.463,-5.666c-0.28,-1.09 -1.227,-0.747 -1.834,-0.639c-0.661,0.116 -0.977,-0.093 -1.165,0.221c-0.241,-0.044 -0.495,-0.052 -0.703,-0.073c-0.003,0 -0.008,-0.001 -0.011,-0.001l0,0Z" style="fill:#a59007;fill-rule:nonzero;stroke:#000;stroke-width:0.62px;"/><path d="M30.072,55.578c-12.411,-16.258 -21.346,-22.021 -7.086,-36.714c14.26,-14.695 37.157,-15.821 51.979,-1.685c14.823,14.136 8.451,25.658 -6.238,39.931c-2.591,2.518 -11.276,6.777 -20.009,7.114c-6.311,0.243 -13.097,-1.379 -18.646,-8.646l0,0Z" style="fill:url(#_Radial1);fill-rule:nonzero;stroke:#000;stroke-width:0.62px;"/><path d="M38.851,11.74c0.711,-1.309 0.63,-1.319 1.514,-1.819c1.001,-0.565 2.435,-0.053 2.435,-0.053c0,0 -1.764,-1.9 -3.323,-2.425c-2.421,-0.814 -1.575,-1.952 -0.953,-2.771c0.566,-0.746 1.89,-1.225 3.114,-0.225c1.069,0.873 2.533,1.037 2.533,1.037c0,0 -3.022,-2.847 -2.114,-3.501c0.682,-0.493 3.217,1.742 3.217,1.742c0,0 -0.881,-3.122 0.788,-3.125c0.718,-0.003 1.852,0.053 2.691,1.162c0.741,0.976 1.232,3.024 1.232,3.024c0,0 0.002,-1.568 0.416,-2.619c0.461,-1.174 1.405,-1.823 2.723,-1.402c1.863,0.603 1.732,3.638 1.732,3.638c0,0 0.342,-1.277 0.945,-1.743c0.442,-0.339 1.092,0.018 1.517,0.327c0.875,0.628 -0.34,2.379 -0.34,2.379c0,0 1.362,-1.171 2.669,-1.201c0.782,-0.02 1.589,0.821 1.941,1.304c0.465,0.629 0.74,1.666 0.142,2.301c-1.198,1.271 -4.19,1.983 -4.19,1.983c0,0 2.996,-0.624 4.64,-0.025c1.009,0.368 0.977,1.679 1.002,2.452c0.042,1.331 -3.589,1.832 -3.589,1.832c0,0 2.456,-0.2 3.266,0.544c0.468,0.429 0.619,1.353 0.46,1.841c-0.425,1.296 -4.979,-0.143 -4.979,-0.143c0,0 1.973,1.304 2.311,2.569c0.153,0.579 0.5,1.442 0.151,1.918c-1.371,1.875 -5.424,-1.177 -5.424,-1.177c0,0 2.341,4.614 0.183,3.66c-2.146,-0.951 -3.966,-1.436 -3.966,-1.436c0,0 0.779,2.389 -0.254,2.761c-0.519,0.185 -1.676,0.046 -2.013,-0.725c-0.432,-0.988 0.026,-2.69 0.026,-2.69c0,0 -2.21,2.377 -3.877,2.1c-1.274,-0.211 -0.752,-3.571 -0.752,-3.571c0,0 -1.608,1.52 -4.192,-0.072c-0.649,-0.401 1.124,-3.362 1.124,-3.362c0,0 -1.144,0.952 -1.846,0.958c-0.581,0.005 -1.72,-0.955 -1.862,-1.385c-0.133,-0.415 0.753,-1.034 1.23,-1.282c0.602,-0.314 1.843,-0.134 1.843,-0.134c0,0 -3.117,-0.901 -2.171,-2.646l0,0Z" style="fill:url(#_Radial2);fill-rule:nonzero;stroke:#000;stroke-width:0.62px;"/><path d="M40.881,62.447c3.986,-3.512 12.438,-5.158 18.54,0.195c7.914,6.944 -8.462,26.044 -11.754,23.167c-6.115,-5.348 -12.849,-18.02 -6.786,-23.362l0,0Z" style="fill:url(#_Radial3);fill-rule:nonzero;stroke:#000;stroke-width:0.62px;"/><g><path d="M39.222,75.377c-0.814,-0.862 -0.869,-2.337 -0.127,-3.292c0.742,-0.952 2.001,-1.025 2.815,-0.164c0.813,0.865 0.869,2.339 0.128,3.291c-0.742,0.955 -2.003,1.03 -2.816,0.165l0,0Z" style="fill:#fff;fill-rule:nonzero;stroke:#848484;stroke-width:0.2px;stroke-linejoin:round;"/><path d="M57.853,75.415c-0.812,-0.865 -0.869,-2.337 -0.125,-3.292c0.74,-0.953 2.001,-1.027 2.813,-0.164c0.814,0.862 0.868,2.337 0.127,3.29c-0.743,0.956 -2.003,1.03 -2.815,0.166l0,0Z" style="fill:#fff;fill-rule:nonzero;stroke:#797979;stroke-width:0.2px;"/><path d="M39.704,73.783c-0.067,-0.549 0.261,-1.059 0.736,-1.139c0.466,-0.078 0.904,0.305 0.969,0.855c0.068,0.55 -0.259,1.061 -0.73,1.14c-0.472,0.079 -0.909,-0.304 -0.975,-0.856l0,0Z" style="fill-rule:nonzero;"/><path d="M58.389,73.781c-0.068,-0.548 0.261,-1.061 0.732,-1.14c0.469,-0.078 0.908,0.307 0.972,0.856c0.066,0.551 -0.257,1.066 -0.729,1.145c-0.472,0.079 -0.91,-0.308 -0.975,-0.861l0,0Z" style="fill-rule:nonzero;"/></g><path d="M36.744,59.961c6.09,-6.037 19.748,-6.037 25.838,0c1.77,1.756 0,7.451 0,7.451c0,0 -8.467,8.061 -13.309,8.022c-4.684,-0.035 -12.529,-8.022 -12.529,-8.022c0,0 -1.771,-5.695 0,-7.451l0,0Z" style="fill:url(#_Radial4);fill-rule:nonzero;stroke:#000;stroke-width:0.62px;"/><path d="M47.956,98.195c-5.19,-5.831 -4.334,-11.459 -4.405,-14.91c-0.106,-4.974 3.771,-7.47 6.08,-7.644c2.23,-0.168 6.319,1.029 6.419,7.516c0.052,3.52 -0.302,10.294 -5.36,14.975c-1.737,1.606 -1.229,1.751 -2.734,0.063Z" style="fill:url(#_Radial5);fill-rule:nonzero;stroke:#000;stroke-width:0.62px;"/><path d="M47.928,77.709c0.634,-0.327 1.251,-0.4 1.377,-0.161c0.124,0.238 -0.288,0.698 -0.923,1.025c-0.635,0.327 -1.251,0.4 -1.377,0.161c-0.125,-0.238 0.289,-0.698 0.923,-1.025Z" style="stroke:#000;stroke-width:0.62px;stroke-linejoin:round;stroke-miterlimit:1.41421;"/><path d="M51.56,78.6c0.634,0.328 1.251,0.399 1.377,0.161c0.125,-0.239 -0.289,-0.698 -0.923,-1.026c-0.634,-0.327 -1.251,-0.399 -1.377,-0.16c-0.125,0.238 0.289,0.698 0.923,1.025l0,0Z" style="stroke:#000;stroke-width:0.62px;stroke-linejoin:round;stroke-miterlimit:1.41421;"/><path d="M84.606,36.14c0.151,2.839 0.701,7.128 -1.036,8.43c-1.021,0.765 -4.295,-0.822 -5.517,-2.619c-2.944,-4.333 -0.904,-16.283 -0.81,-19.627c0.125,-4.521 0.305,-8.155 2.432,-4.306c3.208,5.805 4.628,12.436 4.931,18.122Z" style="fill:url(#_Radial6);fill-rule:nonzero;stroke:#000;stroke-width:0.62px;"/><path d="M15.278,36.126c-0.157,2.826 -0.714,7.094 0.989,8.385c0.999,0.757 4.223,-0.832 5.43,-2.625c2.91,-4.322 0.946,-16.207 0.865,-19.532c-0.107,-4.499 -0.27,-8.113 -2.375,-4.275c-3.173,5.786 -4.592,12.388 -4.909,18.047l0,0Z" style="fill:url(#_Radial7);fill-rule:nonzero;stroke:#000;stroke-width:0.62px;"/><defs><radialGradient id="_Radial1" cx="0" cy="0" r="1" gradientUnits="userSpaceOnUse" gradientTransform="matrix(-24.2917,25.0311,-25.2505,-24.0805,48.7353,40.3626)"><stop offset="0" style="stop-color:#9c9c9c;stop-opacity:1"/><stop offset="1" style="stop-color:#404040;stop-opacity:1"/></radialGradient><radialGradient id="_Radial2" cx="0" cy="0" r="1" gradientUnits="userSpaceOnUse" gradientTransform="matrix(-12.7607,0,0,-12.6497,50.6183,12.6109)"><stop offset="0" style="stop-color:#dad8ca;stop-opacity:1"/><stop offset="1" style="stop-color:#a7a7a7;stop-opacity:1"/></radialGradient><radialGradient id="_Radial3" cx="0" cy="0" r="1" gradientUnits="userSpaceOnUse" gradientTransform="matrix(12.1636,0,0,12.0579,49.7403,89.8879)"><stop offset="0" style="stop-color:#a2a2a2;stop-opacity:1"/><stop offset="1" style="stop-color:#6b6b6a;stop-opacity:1"/></radialGradient><radialGradient id="_Radial4" cx="0" cy="0" r="1" gradientUnits="userSpaceOnUse" gradientTransform="matrix(13.7062,0,0,13.587,49.6628,65.4345)"><stop offset="0" style="stop-color:#a0a0a0;stop-opacity:1"/><stop offset="1" style="stop-color:#444442;stop-opacity:1"/></radialGradient><radialGradient id="_Radial5" cx="0" cy="0" r="1" gradientUnits="userSpaceOnUse" gradientTransform="matrix(-6.2559,-0.148446,0.325511,-13.48,49.7968,87.5119)"><stop offset="0" style="stop-color:#e8d273;stop-opacity:1"/><stop offset="1" style="stop-color:#8a7410;stop-opacity:1"/></radialGradient><radialGradient id="_Radial6" cx="0" cy="0" r="1" gradientUnits="userSpaceOnUse" gradientTransform="matrix(-23.1879,3.52922,-3.82885,-19.9661,79.4849,30.8819)"><stop offset="0" style="stop-color:#7d7d7d;stop-opacity:1"/><stop offset="1" style="stop-color:#111;stop-opacity:1"/></radialGradient><radialGradient id="_Radial7" cx="0" cy="0" r="1" gradientUnits="userSpaceOnUse" gradientTransform="matrix(23.0431,3.75394,-3.67393,18.2845,20.3295,30.8764)"><stop offset="0" style="stop-color:#7f7f7f;stop-opacity:1"/><stop offset="1" style="stop-color:#111;stop-opacity:1"/></radialGradient></defs></svg>