<svg width="100px" height="100px" viewBox="0 0 100 100" version="1.1" xmlns="http://www.w3.org/2000/svg"  xml:space="preserve" style="fill-rule:evenodd;clip-rule:evenodd;stroke-linejoin:round;stroke-miterlimit:1.41421;"><rect x="5" y="5" width="18" height="18" style="fill:#ff00ce;"/><rect x="23" y="5" width="18" height="18"/><rect x="41" y="5" width="18" height="18" style="fill:#ff00ce;"/><rect x="59" y="5" width="18" height="18"/><rect x="77" y="5" width="18" height="18" style="fill:#ff00ce;"/><rect x="5" y="23" width="18" height="18"/><rect x="23" y="23" width="18" height="18" style="fill:#ff00ce;"/><rect x="41" y="23" width="18" height="18"/><rect x="59" y="23" width="18" height="18" style="fill:#ff00ce;"/><rect x="77" y="23" width="18" height="18"/><rect x="5" y="41" width="18" height="18" style="fill:#ff00ce;"/><rect x="23" y="41" width="18" height="18"/><rect x="41" y="41" width="18" height="18" style="fill:#ff00ce;"/><rect x="59" y="41" width="18" height="18"/><rect x="77" y="41" width="18" height="18" style="fill:#ff00ce;"/><rect x="5" y="77" width="18" height="18" style="fill:#ff00ce;"/><rect x="23" y="77" width="18" height="18"/><rect x="41" y="77" width="18" height="18" style="fill:#ff00ce;"/><rect x="77" y="77" width="18" height="18" style="fill:#ff00ce;"/><rect x="59" y="77" width="18" height="18"/><rect x="77" y="59" width="18" height="18"/><rect x="5" y="59" width="18" height="18"/><rect x="23" y="59" width="18" height="18" style="fill:#ff00ce;"/><rect x="59" y="59" width="18" height="18" style="fill:#ff00ce;"/><rect x="41" y="59" width="18" height="18"/></svg>