<svg width="100px" height="100px" xmlns="http://www.w3.org/2000/svg" viewBox="0 0 246.02 273.16"><defs><style>.cls-1{isolation:isolate;}.cls-2{fill:#13411f;}.cls-3{fill:#306e2e;}.cls-4{fill:#468432;}.cls-5{fill:#7f1710;}.cls-6{fill:#1d1d1b;opacity:0.5;mix-blend-mode:multiply;}.cls-7{fill:none;stroke:#000;stroke-linecap:round;stroke-linejoin:round;stroke-width:4px;}</style></defs><g class="cls-1"><g id="Layer_2"><g id="svg_rdy"><circle id="stem" class="cls-2" cx="125.43" cy="147.96" r="10.76"/><path id="leaf" class="cls-3" d="M221.74,164.71c-8.62-9.53-17.08-17.44-25.66-23.15,10.82-7.85,19.73-18.79,27.07-31.4,7.95-13.64,10.77-24.74,19.08-33.37-11.52,3.31-22.65.61-38.42,1.26A173.54,173.54,0,0,0,180,80.39c-.77-8.44-2.25-15.15-.62-21.82-5.45,4.81-12.54,6.55-21,10.18A129.48,129.48,0,0,0,146,37.41C138,22.8,129.53,14.21,126.26,2,123,14.21,114.48,22.8,106.47,37.41,98.08,52.74,92.64,69.09,91.54,84.56A83.54,83.54,0,0,0,76.4,80.2c-11.21-2.15-19.82-1.3-27.38-5,3.89,7,3.72,15.16,6,25.48A121.7,121.7,0,0,0,36.62,103C22.38,106,13,110.86,2,110.46c9.35,5.86,14.34,15.16,24.48,25.59a120.58,120.58,0,0,0,20.05,16.71,113.63,113.63,0,0,0-20.35,21c-8.76,11.6-12.56,21.44-21.12,28.41,10.9-1.75,20.78,1.94,35.28,3.09,15.31,1.21,30.15-.43,42.79-5.23-1,11.81.56,24.58,4.08,37.14,3.92,14,10.94,23,11.31,34,5.2-9.74,12.64-15.37,22.33-26.21a119.2,119.2,0,0,0,16.64-23.63A86.67,86.67,0,0,0,148,228.87c9.74,6,18.33,8,25.16,13.7-3.09-7.67.89-15.65,2.24-27a84.53,84.53,0,0,0,.41-16.15c8.31-.25,17.67-1.54,28.26-3.33,16.43-2.77,27.33-8,39.94-7.06C233.56,181.94,232.91,177.07,221.74,164.71ZM118,152.13c-1,.28-2,.59-2.9.91h0a7.61,7.61,0,0,0,2.14-2.55c.76-2-.19-4.48-2.1-6.1,1.3-.29,2.6-1.8,3.4-3.58,2.6,1,5.77-.52,7.11-1.91a3.16,3.16,0,0,0,1.85.77,6.76,6.76,0,0,0,4.88,3,11.14,11.14,0,0,0,.26,5.24l-.68.73.5,3.28a11.61,11.61,0,0,0-4.18,2.54c-1.38.08-2.47.24-2.47.24S122.12,151.08,118,152.13Z"/><path class="cls-4" d="M216.85,87.74l-1.43.12a2.8,2.8,0,0,0-2.4,1.38c0,.07-.08.14-.11.21a4.19,4.19,0,0,0-4.66.22c-2.49,1.69-4.65,3.28-7.81,1.91a2.85,2.85,0,0,0-3.8,1c-1.37,2.3-5.76,2.53-8.12,3.09-1.39.34-3.07.45-4.19,1.43a18.09,18.09,0,0,1-2.5,2.07,12.8,12.8,0,0,0-2.46,1.79,8.06,8.06,0,0,0-1.41,2.15,2.45,2.45,0,0,0-2.73-.81,7.15,7.15,0,0,1-2.66.36c.3-3.81-2.17-8-6.45-7.69-2.52.2-4.66,2.63-3.8,5.22a8,8,0,0,0,1.31,1.93,10.82,10.82,0,0,1-.15,1.26c0,.21-.08.43-.13.64l-2-.15a2.8,2.8,0,0,0-2.68,3.52,21.13,21.13,0,0,1,.8,2.62A2.8,2.8,0,0,0,157,113.9l-.6-.15a9.55,9.55,0,0,0-2.77-.2c-2.1.21-4,3.08-2,4.74-.54-.43-1.58-.09-2.23-.07a2.8,2.8,0,0,0-2.72,2.42,1.58,1.58,0,0,0-.59-.21c-.46-.22-.92-.43-1.39-.62a6.17,6.17,0,0,0-2.27-.53,4,4,0,0,0-3.55,3.17,6.46,6.46,0,0,0,.87,4.75c.61,1.13.86,1-.07,2a7.69,7.69,0,0,1-3.45,1.74,3,3,0,0,0-1.77,1.48,2.77,2.77,0,0,0-2.66,3.46c.11.59-.08,1.8.55,1.72-3.3.44-3.52,5.41-.57,5.58a2.53,2.53,0,0,0,1.72,1.48l3.12.67c1.42.3,3.33-.58,3.51-2.17a2.79,2.79,0,0,0,1.3.33,3.63,3.63,0,0,0,2.32-.69c.65-.46,1.08-1.61,1.7-2,.44-.24,1.27-.09,1.8-.29a4.59,4.59,0,0,0,2.16-1.68c.75-1.12.24-1,1.24-1.56,1.73-1,3.15-1.44,4.52-3a24.21,24.21,0,0,1,1.71-2.08c1.14-1.09,1.28-1.06,2.42-.23a5.47,5.47,0,0,0,4.46,1.22,5.66,5.66,0,0,0,3.87-2.58,4.63,4.63,0,0,0,.71-2.47c0-.17,0-.31,0-.42a3.41,3.41,0,0,1,.84-.07,2.83,2.83,0,0,0,2.68-3.52c-.06-.39,1.38-1.55,1.66-1.82.9-.87,1.21-1.44,2.42-1.24,2,.33,3.2,1.79,5.45.92a5,5,0,0,0,3-3.83,19,19,0,0,1,.25-2.66c.22-.52.17-.27,1.16-.62a8.58,8.58,0,0,0,2.4-1.3,5.51,5.51,0,0,1,2.93-1.37,58.93,58.93,0,0,0,7.71-2.09c3.66-1.28,7.36-3.27,7.47-7.62a2.86,2.86,0,0,0-.83-2c1.27-2.63,4.31-2,6.58-3.25a5.59,5.59,0,0,0,1.27-1,9.7,9.7,0,0,0,3.7-3C220.38,92.7,220.33,87.43,216.85,87.74Z"/><path class="cls-4" d="M136.16,73.89a9.37,9.37,0,0,1-.89-5.31c.26-1.89-1.2-3.79-3-3.52q-.18-.41-.33-.84a3,3,0,0,0-1.3-1.64,16.06,16.06,0,0,0-.29-3.29l-.76-4.93a83.87,83.87,0,0,1-1.1-8.92c-.13-2.74.43-5.23.68-7.93a5.7,5.7,0,0,0-.69-3.55,14.33,14.33,0,0,0-.9-1.13,7.24,7.24,0,0,0,.29-1.1,4.8,4.8,0,0,0-.55-3.12c-.84-1.9-3.89-1.72-4.79,0a6.42,6.42,0,0,0-.84,3.31c-.1.21-.19.43-.27.65a4.1,4.1,0,0,0-.12,2.52,3.79,3.79,0,0,0,1.3,2.06,19.89,19.89,0,0,1-.78,7.18c-.76,2.46-2.14,4.7-2.51,7.27a8.26,8.26,0,0,0,.23,3.63c.34,1.08,1.39,2.13,1.57,3.2s-.81,1.8-1.24,2.78a8.55,8.55,0,0,0-.69,3.46c0,2.67,1.45,5.23-.55,7.33-1.64,1.72-2.46,3.2-2.13,5.68.31,2.32,2,4,2.5,6.14.3,1.31-.52,2.45-.73,3.74-.07.46,0,3.59.34,3.42a2.8,2.8,0,0,0-.64,4.26c-.28.19-.54.38-.61.44a4.32,4.32,0,0,0-1.47,2.18c-.62,2.19.67,3.93,2.26,5.28,2.1,1.81,3.07,3.19,1.91,6a11.3,11.3,0,0,0-1,3.15,4,4,0,0,0,.1,1.22,10.29,10.29,0,0,0-2,.2,2.81,2.81,0,0,0-2,2.68c.08,3.3,2.16,4.92,3.93,7.41a3.44,3.44,0,0,1,.47.91c0,.07,0,.13,0,.2a26.78,26.78,0,0,1,0,2.75,5.17,5.17,0,0,0,.6,2,8.42,8.42,0,0,0,.78,1.1,1.61,1.61,0,0,0,.12.23,2.82,2.82,0,0,0-1.38,3.23,18.42,18.42,0,0,0,2.87,4.82c2.27,2.76,6.18-1.19,3.93-3.93a7.47,7.47,0,0,1-.48-.63,4.75,4.75,0,0,0,1.09-2.21,5,5,0,0,0-.21-2.51,3.06,3.06,0,0,0,.28-.54c1.91-4.66,4.91-9.7,4.77-14.85a12.53,12.53,0,0,1,.06-3.67,28.45,28.45,0,0,1,1.34-2.64c.93-2.4-.38-4.55-.9-6.89a19.16,19.16,0,0,1,0-8c.46-2.16,1-3.9.2-6.06-.41-1.11-1-1.68-.61-2.81s1.26-1.94,1.51-3.21a7,7,0,0,0-.05-2.82,9.4,9.4,0,0,0,1-.31A2.83,2.83,0,0,0,136.16,73.89Z"/><path class="cls-4" d="M125.42,154.81a2.41,2.41,0,0,0-3.67-1,7.32,7.32,0,0,0-3,3.88,9.3,9.3,0,0,0-.37,1.89c-.27.46-.2.79.21,1-.2.52-1.42,1.12-1.78,1.72a5,5,0,0,0-.59,1.87,2.11,2.11,0,0,0-.92.49c-1.43,1.09-1.79,2.61-3.25,3.6a2.2,2.2,0,0,0-2.56.82c-2.66,3.31-1,6.53,1.89,7.8a21.6,21.6,0,0,1-2.51,3.61,2.94,2.94,0,0,0-.64,2.83,3,3,0,0,0-.35,2.27,4,4,0,0,0-1,.35,3.36,3.36,0,0,0-1.81,2.21,4.11,4.11,0,0,0,.51,2.72c.67,1.59.42,1.63-.34,3.05a5.86,5.86,0,0,0-.78,3.14,9.17,9.17,0,0,0-1.43,1.55c-.84,1.17-1.13,1.09-2.41,1.74-2.24,1.15-3.37,3.82-1.78,6a5.2,5.2,0,0,0,3,2,6.14,6.14,0,0,1,.72.21,12.13,12.13,0,0,0-.74,1.4,5.07,5.07,0,0,0,.32,4,4.57,4.57,0,0,0,1.35,1.35,15.86,15.86,0,0,0-.36,2.89,20,20,0,0,1-.33,5.62c-.41,1.69,0,2.88,0,4.5s-.93,2.78-.71,4.44c.26,2.09,3,4,4.74,2a10.81,10.81,0,0,0,2.49-4.7c.08-.35.45-5.32,1-5a2.8,2.8,0,0,0,4.17-2.4c.25-3.66-.58-6.78-1.26-10.21a9.93,9.93,0,0,0,1.12-1.38,22.37,22.37,0,0,0,1.17-2.71c.47-1.12.37-1.21,1.22-1.62s1.83-.39,2.66-.86c2.62-1.46,4.49-6.5,1.38-8.44h0a16.58,16.58,0,0,0,.89-1.53,3.66,3.66,0,0,0,.65-.17,3.22,3.22,0,0,0,1.92-1.73c.93-2,.47-5,.37-7.09a8.86,8.86,0,0,0-.56-3.15,8.44,8.44,0,0,0-1-1.48,22.61,22.61,0,0,0,.36-2.47,26.93,26.93,0,0,1,.11-4c.5-2.2,2.49-2.55,3.74-4.21s1.28-3.81,1.22-5.91a68.73,68.73,0,0,1,.34-8.24C129,155.47,127.07,154.49,125.42,154.81Z"/><path class="cls-4" d="M210.25,178.26,199.53,175a5.42,5.42,0,0,1-2.93-1.82,10.59,10.59,0,0,0-1-.75c0-.2-.05-.39-.08-.59a6.54,6.54,0,0,0-4.87-5.11c-2.31-.5-4.33,1.47-6.3,1.6a4.54,4.54,0,0,0-2.51-4.36,4,4,0,0,0-3.23-.24,3.48,3.48,0,0,0-1.65,1.29c-1.28-.57-2.09-2.28-3.7-2.61-2-.4-3.69,1.06-5.64.73-1.11-.19-2-.92-3.2-1.08a5.1,5.1,0,0,0-1.56,0h0a4.87,4.87,0,0,0-1.09-4c-2.38-2.69-8.07-4-11.44-3.49a25.46,25.46,0,0,1-2.8.7,8.45,8.45,0,0,1-3.11-.79c-2-.74-3.95-1.45-6.15-1.19-1.65.19-3.31,2.1-2.75,3.7a2.46,2.46,0,0,1,1.38,1.75,35.43,35.43,0,0,0,2.49,6.06,2.7,2.7,0,0,1,1.31,2.25,25.14,25.14,0,0,0,3.17,2.73c1.18.94,1.72,2,3.27,2.51a53.38,53.38,0,0,0,6.43,1.28,14.71,14.71,0,0,0,6.3.1,11.3,11.3,0,0,0,1.41-.52l.13.22a3.35,3.35,0,0,0,.5,1c.68,1.13,2.25,1.93,2.83,2.58s.86,1.83,1.4,2.58a10,10,0,0,0,2.08,2.17c2.6,1.94,4.84,1.05,6.5-1.28l.15.05c.43.19.86.36,1.3.53a12.91,12.91,0,0,0,2.14.2c2.06.16,3.45,1.05,5.3,1.93,8,3.8,17.41-.59,25.9.53C212.7,184.13,213.14,179.12,210.25,178.26Z"/><path class="cls-4" d="M157.05,213.17c-.77-2.33-1.91-4.39-2.15-6.82-.06-.61-.55-1.71-.56-2.11,0-.86.49-1.68.35-2.62-.06-.41-.82-1.62-.94-1.44a10.44,10.44,0,0,0,.16-2.31c-.49-2-2.22-3.24-4-4-2.74-1.18-5.18,2.05-3.91,3.93a2.62,2.62,0,0,0-2.12,2.6c0,1.79-.2,3.69,1.45,4.81.73.5.76.4,1.09,1.06s.25,1.62.62,2.36a8.79,8.79,0,0,0,1.21,1.56,7.72,7.72,0,0,1,1.17,2.37,7.33,7.33,0,0,0,3.57,3.77C155,217.34,157.85,215.61,157.05,213.17Z"/><path class="cls-4" d="M91.69,170.07c-.1-2.19-.76-4-3.06-4.63a41.62,41.62,0,0,0-9.26-.9,10.86,10.86,0,0,0-4.61.43c-1.09.46-1.51,1.47-2.47,2-1.13.62-3.12.39-4.41.48l-5.14.35a2.9,2.9,0,0,0-2.4,1.44l-.27.07a3.14,3.14,0,0,0-1.22.71c-.84.71-1.32,1.76-2.12,2.52-2,1.89-4.67,2.21-7.27,2.59-2,.3-4.23.34-5.39,2.31-.47.81-.5,1.68-1.18,2.37a10,10,0,0,1-3.08,1.73,2.4,2.4,0,0,0-1.26,1.18c-1.06.45-2.1.92-3.1,1.41-3.21,1.57-.4,6.36,2.81,4.8A39.66,39.66,0,0,1,51.78,185c2.86-.28,7.09,2.35,9-1.1a12.71,12.71,0,0,0,.22-1.33c.65.36,1.69.86,1.85.91a7.58,7.58,0,0,0,4.71.07c.68-.23,1.14-.78,1.78-1s1.61-.05,2.35-.27a5.59,5.59,0,0,0,2.49-1.77,5.36,5.36,0,0,0,1.51.54,5.82,5.82,0,0,0,3.1-.52,6,6,0,0,0,2.56-2.32c.58-1,.78-2.08,1.77-2.72,1.9-1.24,3.66.49,5.59.14C91.37,175.11,91.79,172.32,91.69,170.07Z"/><path class="cls-4" d="M116,142.93c-1.89-3.28-6.75-5.69-10.28-6.61-.88-.22-1.54-.16-2.2-.71a22.52,22.52,0,0,1-1.81-2.27,13.68,13.68,0,0,0-5.35-3.89c-4.53-1.74-9.89-1.22-14.58-.63-2.57.33-2.68-1.09-4.48-2.42s-3.61-1.17-5.67-.86c-1.69.25-1.61-.19-2.67-1.31a6.4,6.4,0,0,0-2.45-1.65c-2.41-.88-5.26-.43-7.77-.45a109.69,109.69,0,0,1-14.39-1.08,2.09,2.09,0,0,0-1-.16c-1.2-.18-2.4-.37-3.6-.59-3.49-.64-5,4.71-1.47,5.36,1.19.22,2.4.41,3.6.6a15.14,15.14,0,0,0,5.8,3.63c1.25.5,1.87.61,2.59,1.73.46.73,2.1,2.3,1.88,3.19-.55,2.26,2,4.48,4.08,3.14.8-.51,2.6-1.63,3.63-1.14-.33-.15,1,1.84,1.16,2.08,1,1.25,2.17,2.79,3.78,3.21,2.21.58,3.44-1.06,5.43-1.37,1.49-.24,5,0,5.69,1.51.6,1.4,2.61,1.65,3.8,1,2.2-1.22,4.08.18,6.25.78a9.47,9.47,0,0,0,2.85.38,24.81,24.81,0,0,0,2.5-.31c0,.17,0,.34-.07.51a4.44,4.44,0,0,0,.55,2.5,5.56,5.56,0,0,0,5,2.8,34.57,34.57,0,0,0,6.68-1.07,20.47,20.47,0,0,1,3.87-.59,21.22,21.22,0,0,1,3.85.79c1.6.33,3.49.58,4.75-.72S116.91,144.5,116,142.93Z"/><path class="cls-4" d="M73.88,100.59l-.36.22c.31.25.64.48,1,.71a57.49,57.49,0,0,1,6.41.91,26.74,26.74,0,0,1,7,2,2.49,2.49,0,0,0,0-1.64c-.2-.6-.4-1.19-.59-1.79a2.92,2.92,0,0,0-2.68-2l-1-.42a2.54,2.54,0,0,0-2.87.1c-.66-.31-1.31-.65-1.94-1-1.4-.76-2.75-2.31-4.36-2.65a4.14,4.14,0,0,0-1-.08,12.6,12.6,0,0,0-2.4-2.83c-2.9-2.11-5.67,2.71-2.81,4.8-.67-.49.34,1.91.56,2.24a4.71,4.71,0,0,0,1.45,1.43A3.78,3.78,0,0,0,73.88,100.59Z"/><g id="halm"><path class="cls-5" d="M223.92,87.59a.5.5,0,0,0-.61-.34,173.3,173.3,0,0,0-25.2,9.35c-2.06.9-4.07,1.9-6.09,2.87s-4,2-6,3.07c-4,2.08-7.88,4.31-11.73,6.61-7.71,4.6-15.16,9.63-22.41,14.94q-5.43,4-10.68,8.23c-3.5,2.84-6.92,5.71-10.29,8.82l0,0a2,2,0,0,0-.36.47,3.65,3.65,0,0,1,1.28.72l.14.15a2.67,2.67,0,0,1,.72,1.22l.1.74a1.84,1.84,0,0,1,0,.33,2.11,2.11,0,0,0,1.13-.57l0,0c3.12-3,6.46-6,9.81-8.89s6.81-5.7,10.31-8.43c7-5.45,14.25-10.62,21.73-15.4,3.74-2.4,7.54-4.72,11.41-6.9,1.92-1.12,3.89-2.16,5.84-3.22s3.93-2.07,5.94-3A193.21,193.21,0,0,1,223.59,88.2h0A.5.5,0,0,0,223.92,87.59Z"/><path class="cls-5" d="M127.09,136.67a12.44,12.44,0,0,1,.42-4.29,2.25,2.25,0,0,1,.25-.64l-.09-7.51-.2-14.67L127,80.23l-.52-29.33-.26-14.67L126,21.56a.28.28,0,0,0-.27-.27.28.28,0,0,0-.28.27l-.31,14.67-.26,14.67-.52,29.33-.42,29.33-.21,14.67-.17,14.66v.05a2.24,2.24,0,0,0,.29,1,2.56,2.56,0,0,1,1.89-.74,2.63,2.63,0,0,1,1.88.71,2.16,2.16,0,0,0,.27-1.05v-.34A3.16,3.16,0,0,1,127.09,136.67Z"/><path class="cls-5" d="M94.48,168.48l.28-.39c.19-.24.38-.48.58-.71l.17-.19c.55-.81.77-1.79,1.31-2.78a2.18,2.18,0,0,1,.22-.31,2.16,2.16,0,0,0-1.31-.24c-1.65.23-3.18.51-4.74.83-.78.15-1.55.33-2.32.5s-1.54.33-2.31.54c-1.53.38-3.06.76-4.57,1.2l-2.28.63-2.25.69a187.17,187.17,0,0,0-17.7,6.48c-1.45.6-2.87,1.26-4.31,1.89l-2.15.95-2.13,1-4.23,2-4.17,2.18c-1.39.72-2.77,1.44-4.13,2.23l-4.08,2.32c-1.37.75-2.67,1.62-4,2.43l-4,2.48a.63.63,0,0,0,.62,1.1h0l4.15-2.12c1.38-.7,2.74-1.46,4.15-2.1,2.81-1.32,5.56-2.75,8.41-4L48,183.26l4.29-1.78,2.14-.89,2.16-.84c1.45-.54,2.88-1.12,4.33-1.65q8.72-3.16,17.6-5.71l2.21-.64,2.23-.6c1.49-.41,3-.76,4.47-1.12s3-.71,4.48-1c.75-.15,1.5-.32,2.25-.45Z"/><path class="cls-5" d="M125.31,153.92l-.12-.07c-.23,0-.25-.1,0,0-.19-.06-.38-.11-.56-.18-.4-.13-.29-.06.06,0a4.54,4.54,0,0,1-.66-.14,2.31,2.31,0,0,0-.18.35c-2.75,7.09-5,14.17-7.15,21.36s-4,14.41-5.66,21.7-3.14,14.61-4.32,22l-.45,2.77c-.16.92-.31,1.84-.43,2.76l-.77,5.54c-.28,1.85-.47,3.71-.69,5.56l-.62,5.56a.55.55,0,0,0,.47.61.56.56,0,0,0,.64-.47h0l.83-5.52c.27-1.83.53-3.67.87-5.5l1-5.48c.16-.92.33-1.83.52-2.74l.55-2.73c1.44-7.28,3.18-14.5,5.07-21.67s4-14.27,6.38-21.3c1.16-3.52,2.4-7,3.68-10.48s2.64-6.92,4.09-10.24l0-.06,0-.07a2.21,2.21,0,0,0,.14-.87A3,3,0,0,1,125.31,153.92Z"/><path class="cls-5" d="M216.92,180.68h0l-5.64-.86-2.81-.43c-.94-.15-1.89-.26-2.81-.47l-5.59-1.1-2.79-.56c-.93-.18-1.85-.44-2.77-.65L189,175.26c-.46-.12-.92-.22-1.38-.35l-1.36-.4-2.73-.79-2.72-.79-1.36-.4-1.35-.46-5.37-1.82a171.87,171.87,0,0,1-20.73-9c-1.66-.89-3.34-1.73-4.94-2.7l-2.43-1.42-2.38-1.49L141,154.9l-1.16-.79c-.76-.53-1.55-1-2.29-1.59s-1.51-1.08-2.22-1.65c-.35-.28-.73-.56-1.07-.85s-.71-.59-1-.84l0,0a.52.52,0,0,0-.11-.1,2.51,2.51,0,0,0-1.23-.53,3.69,3.69,0,0,1,0,.88A3.83,3.83,0,0,1,130,152h0l0,.11a4.36,4.36,0,0,0-.11.52,1.05,1.05,0,0,1-.05.19,1.85,1.85,0,0,0,.14.14c.86.7,1.62,1.25,2.44,1.83s1.63,1.11,2.44,1.66,1.65,1,2.48,1.56l1.24.77,1.27.72,2.53,1.44,2.57,1.35c1.71.92,3.47,1.71,5.21,2.55a176,176,0,0,0,21.56,8.26l5.54,1.6,1.38.4,1.4.35,2.79.68,2.79.68,1.4.34c.47.11.94.19,1.41.29l5.63,1.11c1,.18,1.88.4,2.82.54l2.84.43,5.67.87c.94.16,1.9.23,2.85.34l2.85.31,5.69.61a.5.5,0,0,0,.13-1Z"/><path class="cls-5" d="M117,142.78a2.5,2.5,0,0,0-1.15-.8c-3.59-1.18-7.2-2.3-10.83-3.39s-7.24-2.18-10.88-3.22c-7.27-2.08-14.57-4.08-21.86-6.12s-14.58-4-21.88-6c-3.65-1-7.3-2-11-3l-11-2.91a1,1,0,0,0-.57,1.9l10.76,3.61q5.38,1.8,10.78,3.56c7.19,2.36,14.38,4.72,21.59,7s14.4,4.65,21.62,6.92q5.41,1.69,10.85,3.31t10.91,3.13a2.56,2.56,0,0,0,1.48-.06A2.92,2.92,0,0,1,117,142.78Z"/><path class="cls-5" d="M75.91,101.52c1,.2,2,.36,2.88.58a49.52,49.52,0,0,0-5-6.33A62.81,62.81,0,0,0,67.68,90a58,58,0,0,0-6.8-4.86.27.27,0,0,0-.37.07.28.28,0,0,0,.06.39h0a57.84,57.84,0,0,1,6.3,5.29A62,62,0,0,1,72.38,97a44.72,44.72,0,0,1,3.15,4.49A2.47,2.47,0,0,1,75.91,101.52Z"/><path class="cls-5" d="M170.17,72.41a.28.28,0,0,0-.39,0c-1.4,1.59-2.71,3.24-4,4.94s-2.45,3.45-3.59,5.24c-.71,1.11-1.38,2.25-2,3.4a9.72,9.72,0,0,1,3-1c.23-.49.47-1,.71-1.46q1.38-2.81,3-5.49c1.06-1.8,2.17-3.57,3.38-5.26h0A.28.28,0,0,0,170.17,72.41Z"/><path class="cls-5" d="M162.76,223.29h0c-.92-1.32-1.86-2.63-2.76-3.95s-1.78-2.66-2.6-4-1.68-2.73-2.45-4.13-1.54-2.79-2.27-4.2a94.85,94.85,0,0,1-3.91-8.68c-.56-1.48-1.1-3-1.55-4.45-.09-.27-.17-.53-.24-.8,0,.51-.07,1-.1,1.51a11.47,11.47,0,0,1-1.28,4.6c.06.14.12.28.19.42,1.41,3,3,5.84,4.67,8.63.86,1.39,1.72,2.77,2.64,4.12s1.84,2.67,2.78,4,2,2.58,2.94,3.88,2,2.51,3.06,3.76a.57.57,0,0,0,.75.11A.56.56,0,0,0,162.76,223.29Z"/></g><path class="cls-6" d="M35.08,163.22s20,10,42,11.49C69.81,188.34,70,203.59,70,203.59l13.12-4.11s4.49-19.41,4.58-19.63,8.7-16,8.7-16-11.89,1.56-12.14,1.56S67.84,163,67.84,163l-15.16-6.51-6.15-3.73-7.49,6Z"/><path class="cls-6" d="M150.51,230.33a98.66,98.66,0,0,0,3.22-23.82c10.2,3.86,21.68,3.35,21.68,3.35l-.51-10.38-14.72-1.76L147.26,194l-3.73,11.11-6,15Z"/><path class="cls-6" d="M158.55,195.89s-.59-17.06-14.71-35.95c41.69,9.09,64.31-8.28,64.31-8.28l-12.28-9.2-11.63,7.14-18.31,3.09s-13.38,1.14-13.6,1.14-12.52-1.2-12.52-1.2l-7.4-2-1.89,2.2,4.43,3.25,3.7,7.2,2.82,6.68,3.88,8.12.58,9.37v5.88Z"/><path class="cls-6" d="M83.16,104.44s9.22,27.05,28.31,38.93c2,4.9,0,6.53,0,6.53s-12.69,3.56-21.94,13.41l1.81.53,9.5-2.53,8.57-6.61,7.63-2.76.18-4.65L115.89,144l2.3-2.39s-5.52-6.18-6.21-6.49-9.51-9-9.51-9l-7.53-14-1-5.45Z"/><path class="cls-6" d="M165.94,66.16s2.14,5.65,2,9.21a35.29,35.29,0,0,1,11-2.36L180,80.39l-18.31,5.46-3.22-16.91Z"/><path class="cls-6" d="M53.64,89.09s16.69,1.08,25.43,4.11C78.5,88.06,80.25,81,80.25,81l11.29,2.34.08,13.32,1.63,9.82-16.7-4.41L62,100.55l-7.1-.39Z"/><path class="cls-6" d="M123.51,138.94C121.24,133,127.15,97.55,159.13,76l2.49,9.39-14.49,9.27-6.95,6.85L134,111.63l-5.19,12.94-2.56,11,.21,3.35Z"/><path class="cls-7" d="M175.83,199.48a85,85,0,0,1-.42,16.11c-1.35,11.33-5.33,19.31-2.24,27-6.83-5.7-15.42-7.74-25.16-13.7a126.18,126.18,0,0,1-10.52-7.55"/><path class="cls-7" d="M128.39,154.38a5.19,5.19,0,0,1,3.29-3.17,5.28,5.28,0,0,1,.73-4.38"/><path class="cls-7" d="M196.09,141.56c8.58,5.71,17,13.62,25.65,23.15,11.17,12.36,11.82,17.23,22.28,24.34-12.61-.92-23.51,4.29-39.94,7.06-24.57,4.14-44.17,4.58-57.73-3.49"/><path class="cls-7" d="M83.16,199.48c-13,5.36-26.76,7-42.82,5.75-14.5-1.15-24.38-4.84-35.28-3.09,8.56-7,12.36-16.81,21.12-28.41a113.9,113.9,0,0,1,20.34-21"/><path class="cls-7" d="M139.74,164.32c15.18,24.63,3,56.12-18.89,80.63-9.69,10.84-17.13,16.47-22.33,26.21-.37-11-7.39-20-11.31-34-8.87-31.65-5.13-64.65,19.35-80.07A45.35,45.35,0,0,1,118,152.13c4.09-1,7.81,2.57,7.81,2.57s6-.9,7.71.56S139.74,164.32,139.74,164.32Z"/><path class="cls-7" d="M55.05,100.67c-2.32-10.32-2.14-18.47-6-25.48,7.56,3.71,16.17,2.86,27.38,5a83.54,83.54,0,0,1,15.14,4.36"/><path class="cls-7" d="M158.44,68.75c8.42-3.63,15.51-5.37,21-10.18-1.61,6.58-.19,13.18.59,21.45"/><path class="cls-7" d="M115.13,153a7.62,7.62,0,0,0,2.14-2.56c.76-2-.19-4.48-2.1-6.1,1.3-.29,2.6-1.8,3.4-3.58"/><path class="cls-7" d="M93.49,107.45C77.66,99.73,57.05,98.83,36.62,103,22.38,106,13,110.86,2,110.46c9.35,5.86,14.34,15.16,24.48,25.59C47.64,157.82,75.81,172,99.62,162.4"/><path class="cls-7" d="M161.06,86.15c-.82-15.94-6.34-32.89-15-48.74C138,22.8,129.53,14.21,126.26,2,123,14.21,114.48,22.8,106.47,37.41c-18.09,33-22.47,70.81.85,94.36,0,0,4.51,4.2,10.17,8.46,2.73,2,6.66.25,8.19-1.34a2.88,2.88,0,0,0,1.62.73"/><path class="cls-7" d="M136.12,151.81c41.71,10.1,69.07-10.81,87-41.65,7.95-13.64,10.77-24.74,19.08-33.37-11.52,3.31-22.65.61-38.42,1.26-35.66,1.46-65.88,8.43-77.4,56-1,5.25,3.26,8.57,6,8.67C132,144.27,131.82,150.32,136.12,151.81Z"/></g></g></g></svg>