<?xml version="1.0" encoding="UTF-8" standalone="no"?><!DOCTYPE svg PUBLIC "-//W3C//DTD SVG 1.1//EN" "http://www.w3.org/Graphics/SVG/1.1/DTD/svg11.dtd"><svg width="100%" height="100%" viewBox="0 0 100 100" version="1.1" xmlns="http://www.w3.org/2000/svg" xmlns:xlink="http://www.w3.org/1999/xlink" xml:space="preserve" xmlns:serif="http://www.serif.com/" style="fill-rule:evenodd;clip-rule:evenodd;stroke-linejoin:round;stroke-miterlimit:1.41421;"><g><path d="M37.977,70.465c-1.838,4.258 -3.449,8.311 -4.355,11.999c1.222,0.282 2.478,0.601 3.744,1.007c2.718,0.872 5.5,2.191 7.955,4.419c1.601,-3.328 2.827,-6.694 3.62,-10.011c-0.915,-0.454 -1.84,-0.914 -2.774,-1.407c-2.847,-1.503 -5.741,-3.32 -8.19,-6.006l0,-0.001Z" style="fill:#0d4e0a;"/><path d="M65.094,69.887c-3.173,2.578 -6.535,4.202 -9.796,5.63c-0.182,1.821 -0.474,3.635 -0.872,5.437c0.602,-0.294 1.208,-0.568 1.813,-0.822c3.286,-1.379 6.597,-2.274 9.472,-3.268c-0.052,-2.207 -0.29,-4.542 -0.617,-6.977Z" style="fill:#0d4e0a;"/><path d="M45.844,36.057c1.24,8.441 6.556,44.502 -1.462,51.022c1.175,1.71 2.194,3.747 3.035,6.162c0.825,-3.467 2.107,-6.289 3.743,-8.59c1.075,-1.51 2.291,-2.781 3.593,-3.865c1.083,-5.756 -1.832,-34.266 -2.003,-39.097c-2.594,-1.498 -4.938,-3.42 -6.907,-5.632l0.001,0Z" style="fill:#4e5b0b;"/><path d="M81.299,68.327c-2.098,1.697 -4.566,2.894 -7.102,3.865c-4.199,1.607 -8.722,2.721 -12.826,4.443c-4.104,1.722 -7.735,3.973 -10.465,7.811c-2.455,3.451 -4.242,8.316 -4.704,15.553c17.949,0.081 27.337,-4.389 31.85,-10.68c3.953,-5.511 4.508,-12.965 3.247,-20.992Z" style="fill:#0f5b0b;"/><path d="M14.809,73.103c-0.198,7.754 1.183,14.498 5.271,19.164c4.699,5.361 13.462,8.633 29.23,7.43c-1.322,-6.939 -3.481,-11.46 -6.006,-14.516c-2.843,-3.44 -6.205,-5.181 -9.976,-6.389c-3.771,-1.21 -7.902,-1.791 -11.91,-2.907c-2.273,-0.632 -4.542,-1.489 -6.609,-2.782Z" style="fill:#0f5b0b;"/><path d="M51.133,6.298c-25.468,0 -36.603,13.285 -37.379,22.441c-0.388,4.576 1.011,8.715 6.289,12.828c5.277,4.114 15.06,7.811 30.514,7.811c14.038,0 23.433,-3.571 28.984,-7.846c5.55,-4.277 7.53,-9.038 7.508,-13.643c-0.045,-9.205 -8.838,-21.591 -35.917,-21.591l0.001,0Z" style="fill:url(#_Radial1);"/><path d="M49.428,25.028c-4.868,0 -6.996,2.539 -7.144,4.289c-0.074,0.875 0.193,1.666 1.202,2.452c1.008,0.786 2.878,1.493 5.832,1.493c2.683,0 4.478,-0.683 5.539,-1.5c1.061,-0.817 1.439,-1.727 1.435,-2.608c-0.009,-1.759 -1.689,-4.126 -6.865,-4.126l0.001,0Z" style="fill:#ffee6e;"/><g><path d="M39.778,0c-2.793,2.336 -4.475,4.755 -5.276,7.172c0.798,0.494 1.569,1.028 2.312,1.603c4.006,3.105 7.153,7.356 9.272,12.54c0.212,-0.048 0.428,-0.089 0.646,-0.127c-0.482,-4.599 0.705,-8.899 3.071,-12.49c0.332,-0.504 0.686,-0.994 1.059,-1.472c-2.492,-3.105 -6.345,-5.736 -11.084,-7.226Z" style="fill:#ff5e00;"/><path d="M67.069,1.384c-5.848,1.763 -11.003,5.206 -13.867,9.554c-1.963,2.979 -2.938,6.327 -2.435,10.074c1.032,0.084 1.998,0.266 2.891,0.529c2.699,-5.358 7.469,-9.086 12.937,-11.362c1.26,-0.525 2.561,-0.977 3.887,-1.37c-0.238,-2.242 -1.284,-4.722 -3.413,-7.425Z" style="fill:#ff5e00;"/><path d="M18.712,6.908c-0.199,-0.002 -0.398,-0.002 -0.598,0.001c-0.327,0.003 -0.669,0.037 -1.001,0.051c-0.026,2.483 0.347,4.686 1.056,6.644c8.328,0.464 16.437,4.003 23.019,10.021c0.344,-0.283 0.715,-0.548 1.109,-0.793c-1.865,-4.575 -4.582,-8.208 -7.977,-10.839c-4.195,-3.252 -9.455,-5.038 -15.608,-5.085Z" style="fill:#ff5e00;"/><path d="M85.518,10.86c-5.902,0.007 -12.161,0.914 -17.359,3.077c-4.85,2.02 -8.719,4.99 -10.874,9.406c0.693,0.532 1.28,1.137 1.749,1.794c6.028,-4.034 12.66,-6.751 19.324,-7.752c2.22,-0.334 4.447,-0.473 6.653,-0.403c0.558,0.017 1.114,0.05 1.669,0.094c1.128,-1.758 1.951,-3.775 2.406,-6.096c-1.169,-0.072 -2.355,-0.12 -3.568,-0.119l0,-0.001Z" style="fill:#ff5e00;"/><path d="M16.223,17.545c-4.832,0.039 -9.705,1.304 -14.331,3.873c1.991,2.142 4.166,3.948 6.483,5.433c3.084,-1.212 6.411,-1.955 9.833,-2.262c1.136,-0.102 2.283,-0.158 3.438,-0.168c5.612,-0.049 11.41,0.974 16.91,2.94c0.052,-0.159 0.112,-0.314 0.174,-0.469c-6.18,-5.833 -13.77,-9.138 -21.54,-9.338c-0.322,-0.008 -0.644,-0.011 -0.966,-0.009l-0.001,0Z" style="fill:#ff5e00;"/><path d="M84.144,21.027c-1.706,-0.009 -3.437,0.121 -5.18,0.384c-6.025,0.905 -12.165,3.429 -17.779,7.205c5.308,-1.269 10.549,-1.869 15.494,-1.695c2.419,0.084 4.768,0.353 7.019,0.819c3.414,0.706 6.613,1.896 9.456,3.585c2.399,-1.442 4.518,-3.302 6.268,-5.61c-4.4,-3.02 -9.347,-4.525 -14.547,-4.675c-0.243,-0.008 -0.487,-0.012 -0.73,-0.013l-0.001,0Z" style="fill:#ff5e00;"/><path d="M21.679,28.494c-1.048,0.008 -2.085,0.058 -3.107,0.149c-7.314,0.656 -13.73,3.432 -17.994,8.575c3.859,1.73 7.827,2.901 11.791,3.479c2.442,-2.482 5.387,-4.431 8.601,-5.863c5.072,-2.26 10.817,-3.343 16.541,-3.505c-5.166,-1.885 -10.631,-2.874 -15.832,-2.835Z" style="fill:#ff5e00;"/><path d="M75.442,30.975c-4.304,-0.035 -8.918,0.555 -13.624,1.703c5.189,0.751 10.466,2.244 14.97,4.74c3.468,1.922 6.472,4.559 8.484,7.881c4.635,0.026 9.293,-0.672 13.682,-2.05c-3.175,-6.359 -8.798,-10.016 -16.081,-11.523c-2.003,-0.414 -4.124,-0.654 -6.335,-0.728c-0.363,-0.012 -0.728,-0.02 -1.096,-0.023Z" style="fill:#ff5e00;"/><path d="M38.535,35.39c-5.587,0.067 -11.194,1.062 -15.907,3.162c-6.09,2.714 -10.646,7.104 -12.366,13.933c4.676,0.384 9.548,0.136 14.066,-0.852c0.371,-2.695 1.406,-5.217 2.989,-7.443c2.658,-3.738 6.672,-6.713 11.425,-8.8c-0.069,0.001 -0.138,-0.001 -0.207,0Z" style="fill:#ff5e00;"/><path d="M58.453,36.404c4.366,2.79 7.925,6.503 9.816,10.777c0.885,2.002 1.38,4.152 1.361,6.338c4.565,1.465 9.624,2.194 14.206,2.323c0.455,-7.189 -3.263,-11.671 -9.021,-14.863c-4.668,-2.586 -10.672,-4.032 -16.362,-4.575Z" style="fill:#ff5e00;"/><path d="M51.099,37.223c-3.788,4.16 -4.145,9.064 -2.345,13.938c1.804,4.885 5.949,9.488 10.937,12.118c2.994,-2.322 4.697,-4.689 5.418,-6.959c0.798,-2.513 0.54,-4.998 -0.564,-7.493c-2.069,-4.679 -7.345,-9.138 -13.446,-11.604Z" style="fill:#ff5e00;"/><path d="M46.016,37.235c-6.712,1.708 -12.392,5.113 -15.381,9.315c-3.127,4.395 -3.676,9.497 0.299,15.652c5.701,-1.748 11.023,-4.861 14.375,-8.689c-0.131,-0.312 -0.257,-0.626 -0.374,-0.942c-1.833,-4.963 -1.756,-10.546 1.081,-15.336Z" style="fill:#ff5e00;"/></g></g><g><path d="M65.631,75.06c2.853,-0.953 5.781,-1.802 8.566,-2.868c2.536,-0.971 5.004,-2.168 7.102,-3.865c1.261,8.027 0.706,15.481 -3.247,20.992c-4.513,6.291 -13.901,10.761 -31.85,10.68c0.003,-0.04 0.005,-0.079 0.008,-0.119c-13.833,0.568 -21.748,-2.614 -26.13,-7.613c-4.088,-4.666 -5.469,-11.41 -5.271,-19.164c2.067,1.293 4.336,2.15 6.609,2.782c4.008,1.116 8.139,1.697 11.91,2.907c0.416,0.133 0.827,0.273 1.233,0.421c0.907,-2.773 2.104,-5.708 3.416,-8.748l0,0.001c2.449,2.686 5.343,4.503 8.19,6.006c0.674,0.356 1.343,0.694 2.007,1.025c1.815,-13.291 -1.401,-35.113 -2.33,-41.439l-0.001,-0.001l0.001,0.001c1.09,1.224 2.294,2.36 3.593,3.383c0.456,-0.759 1.008,-1.499 1.662,-2.218c6.101,2.466 11.377,6.925 13.446,11.604c1.104,2.495 1.362,4.98 0.564,7.493c-0.721,2.27 -2.424,4.637 -5.418,6.959c-2.041,-1.076 -3.94,-2.482 -5.596,-4.103c0.532,7.078 0.993,14.516 0.882,18.853c0.13,-0.835 0.237,-1.673 0.321,-2.512c3.261,-1.428 6.623,-3.052 9.796,-5.63c0.239,1.782 0.431,3.51 0.537,5.173Zm-19.615,-37.825c-6.712,1.708 -12.392,5.113 -15.381,9.315c-3.127,4.395 -3.676,9.497 0.299,15.652c5.701,-1.748 11.023,-4.861 14.375,-8.689c-0.131,-0.312 -0.257,-0.626 -0.374,-0.942c-1.833,-4.963 -1.756,-10.546 1.081,-15.336Zm12.437,-0.831c5.69,0.543 11.694,1.989 16.362,4.575c5.758,3.192 9.476,7.674 9.021,14.863c-4.582,-0.129 -9.641,-0.858 -14.206,-2.323c0.019,-2.186 -0.476,-4.336 -1.361,-6.338c-1.891,-4.274 -5.45,-7.987 -9.816,-10.777Zm-19.918,-1.014c-5.587,0.067 -11.194,1.062 -15.907,3.162c-6.09,2.714 -10.646,7.104 -12.366,13.933c4.676,0.384 9.548,0.136 14.066,-0.852c0.371,-2.695 1.406,-5.217 2.989,-7.443c2.658,-3.738 6.672,-6.713 11.425,-8.8c-0.069,0.001 -0.138,-0.001 -0.207,0Zm36.907,-4.415c0.368,0.003 0.733,0.011 1.096,0.023c2.211,0.074 4.332,0.314 6.335,0.728c7.283,1.507 12.906,5.164 16.081,11.523c-4.389,1.378 -9.047,2.076 -13.682,2.05c-2.012,-3.322 -5.016,-5.959 -8.484,-7.881c-4.504,-2.496 -9.781,-3.989 -14.97,-4.74c4.706,-1.148 9.32,-1.738 13.624,-1.703Zm-53.763,-2.481c5.201,-0.039 10.666,0.95 15.832,2.835c-5.724,0.162 -11.469,1.245 -16.541,3.505c-3.214,1.432 -6.159,3.381 -8.601,5.863c-3.964,-0.578 -7.932,-1.749 -11.791,-3.479c4.264,-5.143 10.68,-7.919 17.994,-8.575c1.022,-0.091 2.059,-0.141 3.107,-0.149Zm27.749,-3.466c5.175,0 6.855,2.367 6.864,4.126c0.004,0.881 -0.374,1.791 -1.435,2.608c-1.061,0.817 -2.856,1.5 -5.539,1.5c-2.954,0 -4.824,-0.707 -5.832,-1.493c-1.009,-0.786 -1.276,-1.577 -1.202,-2.452c0.148,-1.75 2.276,-4.289 7.144,-4.289l-0.001,0l0.001,0l0,0Zm34.717,-4.001c0.243,0.001 0.487,0.005 0.73,0.013c5.2,0.15 10.147,1.655 14.547,4.675c-1.75,2.308 -3.869,4.168 -6.268,5.61c-2.843,-1.689 -6.042,-2.879 -9.456,-3.585c-2.251,-0.466 -4.6,-0.735 -7.019,-0.819c-4.945,-0.174 -10.186,0.426 -15.494,1.695c5.614,-3.776 11.754,-6.3 17.779,-7.205c1.743,-0.263 3.474,-0.393 5.18,-0.384l0.001,0Zm-67.921,-3.482c0.322,-0.002 0.644,0.001 0.966,0.009c7.77,0.2 15.36,3.505 21.54,9.338c-0.062,0.155 -0.122,0.31 -0.174,0.469c-5.5,-1.966 -11.298,-2.989 -16.91,-2.94c-1.155,0.01 -2.302,0.066 -3.438,0.168c-3.422,0.307 -6.749,1.05 -9.833,2.262c-2.317,-1.485 -4.492,-3.291 -6.483,-5.433c4.626,-2.569 9.499,-3.834 14.331,-3.873l0.001,0Zm69.294,-6.685c-5.902,0.007 -12.161,0.914 -17.359,3.077c-4.85,2.02 -8.719,4.99 -10.874,9.406c0.693,0.532 1.28,1.137 1.749,1.794c6.028,-4.034 12.66,-6.751 19.324,-7.752c2.22,-0.334 4.447,-0.473 6.653,-0.403c0.558,0.017 1.114,0.05 1.669,0.094c1.128,-1.758 1.951,-3.775 2.406,-6.096c-1.169,-0.072 -2.355,-0.12 -3.568,-0.119l0,-0.001Zm-66.806,-3.952c6.153,0.047 11.413,1.833 15.608,5.085c3.395,2.631 6.112,6.264 7.977,10.839c-0.394,0.245 -0.765,0.51 -1.109,0.793c-6.582,-6.018 -14.691,-9.557 -23.019,-10.021c-0.709,-1.958 -1.082,-4.161 -1.056,-6.644c0.332,-0.014 0.674,-0.048 1.001,-0.051c0.2,-0.003 0.399,-0.003 0.598,-0.001Zm48.357,-5.524c2.129,2.703 3.175,5.183 3.413,7.425c-1.326,0.393 -2.627,0.845 -3.887,1.37c-5.468,2.276 -10.238,6.004 -12.937,11.362c-0.893,-0.263 -1.859,-0.445 -2.891,-0.529c-0.503,-3.747 0.472,-7.095 2.435,-10.074c2.864,-4.348 8.019,-7.791 13.867,-9.554Zm-27.291,-1.384c4.739,1.49 8.592,4.121 11.084,7.226c-0.373,0.478 -0.727,0.968 -1.059,1.472c-2.366,3.591 -3.553,7.891 -3.071,12.49c-0.218,0.038 -0.434,0.079 -0.646,0.127c-2.119,-5.184 -5.266,-9.435 -9.272,-12.54c-0.743,-0.575 -1.514,-1.109 -2.312,-1.603c0.801,-2.417 2.483,-4.836 5.276,-7.172Z" style="fill:none;stroke:#000;stroke-width:0.55px;"/></g><defs><radialGradient id="_Radial1" cx="0" cy="0" r="1" gradientUnits="userSpaceOnUse" gradientTransform="matrix(35.2274,0,0,20.3878,49.8152,27.8377)"><stop offset="0" style="stop-color:#fff;stop-opacity:1"/><stop offset="0.63" style="stop-color:#fff;stop-opacity:0.839216"/><stop offset="0.83" style="stop-color:#fff;stop-opacity:0.439216"/><stop offset="1" style="stop-color:#fff;stop-opacity:0"/></radialGradient></defs></svg>