<svg width="100px" height="100px" xmlns="http://www.w3.org/2000/svg" viewBox="0 0 163.56 167.97"><defs><style>.cls-1{fill:url(#radial-gradient);}.cls-2{fill:url(#radial-gradient-2);}.cls-3{fill:#f07f1c;}.cls-4{fill:#fad128;}.cls-5{fill:#475fa6;}.cls-6{fill:#273d81;}.cls-7{fill:none;stroke:#000;stroke-linecap:round;stroke-linejoin:round;stroke-width:4px;}</style><radialGradient id="radial-gradient" cx="81.78" cy="83.99" r="80.89" gradientUnits="userSpaceOnUse"><stop offset="0.76" stop-color="#6a86c3"/><stop offset="0.81" stop-color="#7a91c4"/><stop offset="0.93" stop-color="#9daac8"/><stop offset="1" stop-color="#abb4c9"/></radialGradient><radialGradient id="radial-gradient-2" cx="81.98" cy="83.72" r="53.27" gradientUnits="userSpaceOnUse"><stop offset="0.42" stop-color="#364a99"/><stop offset="1" stop-color="#6a86c3"/></radialGradient></defs><title>blossom</title><g id="Layer_2"><g id="svg_rdy"><path class="cls-1" d="M161.56,75.79c-2.67-2.37-15.56-12.16-29.35-16,3.28-9.49,4.16-23.28,4.28-26a73,73,0,0,0-31.82,1.37C103.68,20.44,87.13,5.07,83.56,2c-3,2.57-15.3,13.87-20.36,29.25-14.8-8.84-33.12-8.31-37.26-8.06-.35,4-1.33,21.06,6.09,35.74C16.7,62.78,4.77,73.62,2,76.3c2.49,3.5,14.28,19,31.35,24.49-10.18,14.82-10.06,34.31-9.9,38.6,4.32.48,24.14,2.06,39.74-7.35C67.55,150.2,83.46,163.28,87,166c3.23-3.1,17.83-18.08,20-36.84,17.07,8.13,37.54,3.63,41.87,2.53-.38-3.85-2.48-19.85-11.7-32.7C150.66,91.68,159.5,79,161.56,75.79Z"/><path class="cls-2" d="M138.4,78.09c-2-2.45-11-12.84-22.31-15.76h0c3.1-11.83-2.89-25.53-4.3-28.52-3.33.26-18.33,1.92-27,10.63-7.52-6.2-17.94-8.7-20.61-9.26-1.66,2.33-8.09,12-9,22.11-14.08.1-26.94,12.59-29.57,15.31C27.12,75.92,34.71,91,47.19,96.22c-5.24,12.22-.79,28,.29,31.41,3,.18,14.82.55,24.8-4,1.82,2.09,3.89,4,5.61,6.16,2.37,3.05,5.32,4.87,9.13,3.15,3.59-1.62,6-4.93,8.54-7.82a8.19,8.19,0,0,0,1-1.35c10.16,4.32,22.11,3.62,25.11,3.35,1-3.44,4.9-19-.43-31l-.08,0C130.57,90.93,136.93,80.64,138.4,78.09Z"/><path class="cls-3" d="M100.1,82.77A3.32,3.32,0,0,0,98.54,80c0-.06,0-.12,0-.18a3.31,3.31,0,0,0-1.82-3,1,1,0,0,0,0-.17,3.34,3.34,0,0,0-1.55-2.81v0a3.35,3.35,0,0,0-3.35-3.34,3.4,3.4,0,0,0-1.67.46,3.37,3.37,0,0,0-1.67-.46l-.15,0a3.33,3.33,0,0,0-6.28-.36,3.47,3.47,0,0,0-1-.17,3.32,3.32,0,0,0-2.56,1.22,3.25,3.25,0,0,0-1.55-.4,3.33,3.33,0,0,0-3.34,3.34,3.27,3.27,0,0,0,.74,2.07,3.31,3.31,0,0,0-1.54,2,3.32,3.32,0,0,0-1.6,5.56,3.47,3.47,0,0,0-.18,1,3.33,3.33,0,0,0,1.44,2.74,3.17,3.17,0,0,0-.24,1.2A3.31,3.31,0,0,0,74,91.59a3.45,3.45,0,0,0-.36,1.5A3.33,3.33,0,0,0,79,95.71a3.34,3.34,0,0,0,2,.72,2.85,2.85,0,0,0,.29,0,3.34,3.34,0,0,0,3.06,2,3.27,3.27,0,0,0,1.67-.46,3.34,3.34,0,0,0,5.78-2.28,3.26,3.26,0,0,0-.07-.7,3.34,3.34,0,0,0,2-1.37,2.78,2.78,0,0,0,.58.06,3.34,3.34,0,0,0,3.34-3.34,3.29,3.29,0,0,0-.55-1.83,3.33,3.33,0,0,0,1.41-2.71c0-.07,0-.12,0-.18A3.33,3.33,0,0,0,100.1,82.77Z"/><circle class="cls-4" cx="76.96" cy="74.12" r="3.34"/><circle class="cls-4" cx="73.62" cy="81.4" r="3.34"/><circle class="cls-4" cx="74.39" cy="84.74" r="3.34"/><circle class="cls-4" cx="85.19" cy="71.41" r="3.34"/><circle class="cls-4" cx="91.87" cy="73.81" r="3.34"/><circle class="cls-4" cx="96.76" cy="82.79" r="3.34"/><circle class="cls-4" cx="94.36" cy="90.31" r="3.34"/><circle class="cls-4" cx="85.61" cy="86.5" r="3.34"/><circle class="cls-4" cx="92.55" cy="88.98" r="3.34"/><circle class="cls-4" cx="81.78" cy="80.09" r="3.34"/><circle class="cls-4" cx="90.07" cy="78.06" r="3.34"/><circle class="cls-4" cx="88.53" cy="95.66" r="3.34"/><circle class="cls-4" cx="81.07" cy="93.09" r="3.34"/><circle class="cls-4" cx="76.96" cy="93.09" r="3.34"/><path class="cls-5" d="M63.28,133.45A26.67,26.67,0,0,0,71,131.66a1.41,1.41,0,0,1,1.73.59,42.34,42.34,0,0,0,11.67,12.53,1.4,1.4,0,0,0,1.65,0,58.46,58.46,0,0,0,12.92-13.83,1.44,1.44,0,0,1,1.55-.6,32.64,32.64,0,0,1,6.22,2.32l.57-4.91-9.6-2.47-4.55,6.11-8.17,5L72.68,124.57l-10.29,3.16Z"/><path class="cls-5" d="M29.75,107a61.23,61.23,0,0,0,8.51,2,1.43,1.43,0,0,1,1.21,1.57,57.5,57.5,0,0,0,1.87,22.48,1.41,1.41,0,0,0,1.11,1,59.16,59.16,0,0,0,14.62.5l5.85-3.65-.65-3.55-8.43.36-6.36-.09-2.8-17.53v-7.33l-11.33-2L29.75,107"/><path class="cls-5" d="M124.49,133.3l3.51-.88a51.57,51.57,0,0,0-3.59-38.35l-3,2.62,2.49,11.6-1.08,13.53-1.41,4.87-14.15.67,1.07,2.09,7.54,3Z"/><path class="cls-5" d="M29.27,60.49S21,64.59,15.37,71.27a1.42,1.42,0,0,0-.2,1.5c9.33,20.57,29,28.5,29,28.5v1.51L46.07,96l-9.88-7.14L25.08,72.59l9.27-8.14L31.78,58Z"/><path class="cls-5" d="M30.44,54.9a72.57,72.57,0,0,1,17.91-4,1.4,1.4,0,0,0,1.28-1.19,100.14,100.14,0,0,1,6.29-21.4l11.44,5.78-3.63,1.73L58.05,46.22,54.93,56,43.87,59.76l-9,4.69-4.4-9.55"/><path class="cls-5" d="M68,22.36a39.06,39.06,0,0,1,7.12,6.54A45.69,45.69,0,0,1,85.34,35a1.41,1.41,0,0,0,1.8-.06,44.94,44.94,0,0,1,14.4-8.17l3,7.44s-10.57,4-10.78,4.1-9,5.43-9,5.43l-15.35-7-6.55-6.36Z"/><path class="cls-5" d="M119.08,33.06s3.17,9.84,3.22,18.06a1.4,1.4,0,0,0,1.44,1.38,30.26,30.26,0,0,1,9.78,1.26l-1.31,6-15.49-.65-.43-11.31L111,33.87l8.06-.81"/><path class="cls-5" d="M121.49,59.76S141,67.58,146,77.6a1.42,1.42,0,0,1,0,1.3c-4.73,8.48-13.56,13.51-13.56,13.51l-2.81-2.14,8.85-12.66L126.89,67.47l-11.37-5.29L117,58.76l11,.44"/><path class="cls-6" d="M76,126.69s5.8-1.83,8.18-4.87c3.65,3.32,9.52,5.54,9.52,5.54l2.31-2.5-10.94-11-11.17,9.71Z"/><path class="cls-6" d="M56.42,50.8a34.18,34.18,0,0,1,14.71,6.14,1.41,1.41,0,0,0,2.25-1c.56-6.69,3.5-14.09,5.34-14.74l5.35,3.25-4.53,8.43L78.38,61l.34,8.39L67,59.76,55.14,56.67l1.3-5.38"/><path class="cls-6" d="M91.52,101.88l-.13.11a4.84,4.84,0,0,1-3.85.5l-.27-.08-.07,5.27-2.5,4.88,5.23,6.18a52,52,0,0,0,1.58-16.61A2.09,2.09,0,0,1,91.52,101.88Z"/><path class="cls-6" d="M119.66,97.29,107.14,99,97.26,94.7a4.3,4.3,0,0,1-1,.66,4.7,4.7,0,0,1-.94,2,10.76,10.76,0,0,1-.7,1.69s0,0,0,0a1.45,1.45,0,0,1,1.38.13c8.18,5.53,20,7.12,25.89,3.87Z"/><path class="cls-6" d="M68.09,78.81S53.61,77.67,41.44,91.14L46.56,96l7.28-8,8.55-5.33L69,82.4Z"/><path class="cls-6" d="M90,68.39s6.57-12,25.31-13.09v5.77l-12.14.77L96.49,66l-4.91,4.34Z"/><path class="cls-7" d="M63.2,31.24C68.25,15.86,80.57,4.57,83.56,2c3.21,2.76,17.23,15.61,21.38,32.8"/><path class="cls-7" d="M131.41,59.81a25.21,25.21,0,0,0,2.25-5.3,59.63,59.63,0,0,0,2.52-21c-3-.36-14.87-2-26.1.47"/><path class="cls-7" d="M116.72,59.11c21.62-2.92,41.1,13.36,44.84,16.68C159.51,79,150.66,91.69,137.11,99"/><path class="cls-7" d="M128.92,90.27c16.27,12.91,19.41,36.6,19.88,41.39-4.3,1.1-24.59,5.57-41.6-2.39"/><path class="cls-7" d="M107.14,126.69c-1,19.89-16.8,36.05-20.17,39.28-3.84-2.95-22.59-18.35-24.7-39.27"/><path class="cls-7" d="M63.16,132.06c-15.6,9.39-35.39,7.81-39.71,7.33-.16-4.29-.36-23.68,9.82-38.5"/><path class="cls-7" d="M45.28,102.77c-1.06,0-2.13-.06-3.2-.16C20.35,100.62,4.9,80.37,2,76.3c2.77-2.68,14.7-13.52,30-17.37"/><path class="cls-7" d="M35.32,64.45c-11-15.59-9.78-36.76-9.38-41.26C30.83,22.9,55.5,22.2,70.8,37"/><path class="cls-7" d="M79.24,68.07c-1.32-6-1.48-13,2.06-19.17C88.63,36.25,108,34.1,111.8,33.8c1.41,3,7.4,16.69,4.3,28.52"/><path class="cls-7" d="M94.36,68.27a24.35,24.35,0,0,1,14.26-6.65c14.57-1.18,27.35,13.5,29.78,16.47-1.92,3.32-12.17,19.88-26.74,21.06A24,24,0,0,1,96.85,95"/><path class="cls-7" d="M121.21,96.11c5.33,12,1.41,27.6.43,31-4.12.37-25.12,1.58-35.17-10.57a23.41,23.41,0,0,1-2.28-3.33"/><path class="cls-7" d="M87.45,101.06a24.88,24.88,0,0,1-5.12,15c-9.7,12.43-30.7,11.82-34.85,11.57-1.25-3.94-6.95-24.19,2.75-36.61,4.68-6,11.38-8.36,17.89-9.19"/><path class="cls-7" d="M47.18,96.22C34.7,91,27.12,75.92,25.57,72.59c2.88-3,18-17.62,33.51-15C66.33,58.8,71.92,63.48,76,68.51"/><path class="cls-7" d="M97.54,124.22a63.1,63.1,0,0,1-12.9,11.13,63.33,63.33,0,0,1-12.08-11.81"/><path class="cls-7" d="M55.14,57.28c.92-10.15,7.36-19.78,9-22.11,2.66.56,13.06,3,20.58,9.24"/><path d="M85.19,68.07a3.32,3.32,0,0,1,3.19,2.42l.15,0a3.37,3.37,0,0,1,1.67.46,3.4,3.4,0,0,1,1.67-.46,3.35,3.35,0,0,1,3.35,3.34v0a3.34,3.34,0,0,1,1.55,2.81,1,1,0,0,1,0,.17,3.31,3.31,0,0,1,1.82,3c0,.06,0,.12,0,.18a3.33,3.33,0,0,1,0,5.64c0,.06,0,.11,0,.18a3.33,3.33,0,0,1-1.41,2.71,3.29,3.29,0,0,1,.55,1.83,3.34,3.34,0,0,1-3.34,3.34,2.78,2.78,0,0,1-.58-.06,3.34,3.34,0,0,1-2,1.37,3.26,3.26,0,0,1,.07.7,3.34,3.34,0,0,1-5.78,2.28,3.27,3.27,0,0,1-1.67.46,3.34,3.34,0,0,1-3.06-2,2.85,2.85,0,0,1-.29,0,3.34,3.34,0,0,1-2-.72,3.33,3.33,0,0,1-5.4-2.62,3.45,3.45,0,0,1,.36-1.5,3.31,3.31,0,0,1-1.74-2.91,3.17,3.17,0,0,1,.24-1.2A3.33,3.33,0,0,1,71,84.74a3.47,3.47,0,0,1,.18-1,3.32,3.32,0,0,1,1.6-5.56,3.31,3.31,0,0,1,1.54-2,3.27,3.27,0,0,1-.74-2.07A3.33,3.33,0,0,1,77,70.78a3.25,3.25,0,0,1,1.55.4A3.32,3.32,0,0,1,81.07,70a3.47,3.47,0,0,1,1,.17,3.34,3.34,0,0,1,3.09-2.06m0-4a7.27,7.27,0,0,0-5,1.94,7.2,7.2,0,0,0-2.57.8q-.34,0-.69,0a7.34,7.34,0,0,0-7.34,7.34,6.54,6.54,0,0,0,.08,1.08,7.31,7.31,0,0,0-2.65,9.48v.06a7.28,7.28,0,0,0,1.21,4,7.3,7.3,0,0,0,1.37,4.18v.15A7.34,7.34,0,0,0,77,100.43a7.54,7.54,0,0,0,2.06-.29l.13,0a7.44,7.44,0,0,0,6.32,2.15,7.34,7.34,0,0,0,10.16-4.79,7.36,7.36,0,0,0,6.07-7.23,8.22,8.22,0,0,0-.06-1,7.48,7.48,0,0,0,.7-1.79,7.35,7.35,0,0,0,0-9.53,7.45,7.45,0,0,0-1.86-3.33,7.24,7.24,0,0,0-1.55-2.87,7.36,7.36,0,0,0-7.07-5.33,6.91,6.91,0,0,0-1.19.1,7.32,7.32,0,0,0-5.49-2.5Z"/></g></g></svg>