<svg width="100px" height="100px" version="1.1" xmlns="http://www.w3.org/2000/svg"  xml:space="preserve" style="fill-rule:evenodd;clip-rule:evenodd;">
    <path d="M63.467,86.405c-6.576,-11.265 -5.213,-19.902 -8.955,-16.186c-0.428,0.426 0.23,1.796 0.563,3.667c1.697,9.514 5.79,16.525 12.278,21.035c1.854,1.289 8.453,0.643 9.109,0.418c1.639,-0.562 -7.149,1.082 -12.995,-8.934l0,0Z" style="fill:#eae16e;fill-rule:nonzero;stroke:#7b6f04;stroke-width:0.54px;"/>
    <path d="M36.221,86.405c6.575,-11.265 5.213,-19.902 8.954,-16.186c0.429,0.426 -0.229,1.796 -0.563,3.667c-1.696,9.514 -5.789,16.525 -12.277,21.036c-1.854,1.288 -8.454,0.642 -9.109,0.417c-1.64,-0.562 7.149,1.083 12.995,-8.934l0,0Z" style="fill:#eae16e;fill-rule:nonzero;stroke:#7b6f04;stroke-width:0.54px;"/>
    <path d="M53.67,71.754c0.671,2.522 -0.289,6.516 -0.289,6.516c0,0 1.373,4.695 1.37,5.278c-0.005,0.873 1.872,5.623 2.414,7.525c0.555,1.95 1.653,5.24 1.467,6.392c-0.161,1.002 -0.882,-1.337 -2.487,-0.291c-1.759,1.146 -0.492,2.835 -1.097,2.179c-0.851,-0.923 -1.469,-4.471 -2.454,-6.232c-0.727,-1.3 -1.958,-5.96 -2.958,-7.419c-1.117,-1.628 -1.975,-6.753 -1.975,-6.753c0,0 -2.469,-4.305 -2.184,-6.945c-3.586,-0.559 -7.084,-2.007 -10.155,-4.386c-4.003,-3.101 -6.333,-9.557 -7.19,-15.706c-6.869,1.194 -6.211,-36.31 4.377,-42.467c4.039,-2.349 9.008,-4.278 14.178,-4.666c0.656,-0.701 2.661,-4.437 4.936,-4.274c1.957,0.14 3.099,3.191 3.34,4.15c6.52,0.53 11.484,3.223 16.184,6.39c9.775,6.585 5.479,42.586 -0.022,40.915c-0.768,3.903 -2.686,9.158 -4.657,11.703c-3.317,4.282 -7.89,7.018 -12.798,8.091l0,0Z" style="fill:url(#_Radial1);fill-rule:nonzero;stroke:#642e12;stroke-width:0.81px;stroke-linecap:round;stroke-linejoin:round;"/>
    <g>
        <g>
            <path d="M42.33,63.55c-0.722,1.204 -2.286,1.595 -3.49,0.872c-1.204,-0.722 -1.595,-2.286 -0.873,-3.49c0.723,-1.204 2.287,-1.595 3.491,-0.872c1.204,0.722 1.595,2.286 0.872,3.49Z" style="fill:#fff;stroke:#545353;stroke-width:0.27px;"/>
            <path d="M41.129,64.467c-0.757,0.216 -1.546,-0.222 -1.763,-0.979c-0.216,-0.757 0.223,-1.547 0.98,-1.763c0.756,-0.216 1.546,0.223 1.762,0.979c0.217,0.757 -0.222,1.547 -0.979,1.763Z" style="fill:#0c0b0b;"/>
        </g>
        <g>
            <path d="M62.033,63.55c-0.723,1.204 -2.287,1.595 -3.491,0.872c-1.204,-0.722 -1.595,-2.286 -0.872,-3.49c0.722,-1.204 2.286,-1.595 3.49,-0.872c1.204,0.722 1.595,2.286 0.873,3.49Z" style="fill:#fff;stroke:#545353;stroke-width:0.27px;"/>
            <path d="M60.831,64.467c-0.756,0.216 -1.546,-0.222 -1.762,-0.979c-0.217,-0.757 0.222,-1.547 0.979,-1.763c0.757,-0.216 1.547,0.223 1.763,0.979c0.216,0.757 -0.223,1.547 -0.98,1.763Z" style="fill:#0c0b0b;"/>
        </g>
    </g>
    <path d="M62.081,50.587c-1.566,-2.277 -5.031,-3.141 -5.031,-3.141c0,0 7.724,-1.368 5.912,-2.509c-1.185,-0.747 -3.926,-1.596 -3.926,-1.596c0,0 4.504,-4.664 2.69,-4.325c-2.317,0.433 -6.05,3.133 -6.05,3.133c0,0 1.326,-3.97 0.867,-5.411c-0.542,-1.698 -3.881,3.916 -3.881,3.916c0,0 0.697,-4.071 -0.12,-5.442c-0.688,-1.154 -3.203,3.493 -3.203,3.493c0,0 -1.682,-3.625 -1.957,-2.581c-0.446,1.691 -0.086,4.247 -0.086,4.247c0,0 -4.099,-4.384 -3.982,-2.771c0.161,2.221 1.719,5.685 1.719,5.685c0,0 -4.948,-0.709 -6.085,0.123c-1.31,0.961 3.885,2.945 3.885,2.945c0,0 -4.992,1.468 -5.971,2.398c-0.704,0.669 4.866,-0.101 4.866,-0.101c0,0 -4.472,4.657 -3.364,4.758c1.666,0.152 6.99,-2.614 6.99,-2.614c0,0 -5.437,6.97 -3.341,6.228c1.269,-0.449 5.272,-2.532 5.272,-2.532c0,0 -2.129,6.153 -0.882,5.165c1.19,-0.944 3.024,-3.089 3.024,-3.089c0,0 0.204,6.098 1.109,4.76c1.479,-2.188 2.019,-7.228 2.019,-7.228c0,0 1.419,2.813 2.799,4.021c1.196,1.046 1.459,-4.537 1.459,-4.537c0,0 2.471,1.49 3.895,1.771c1.883,0.372 -2.588,-4.622 -2.588,-4.622c0,0 4.561,0.729 3.961,-0.144l0,0Z" style="fill:url(#_Radial2);fill-rule:nonzero;stroke:#b34d04;stroke-opacity:0.427451;stroke-width:0.54px;"/>
    <defs>
        <radialGradient id="_Radial1" cx="0" cy="0" r="1" gradientUnits="userSpaceOnUse" gradientTransform="matrix(28.8791,0,0,31.8629,49.8666,30.7918)"><stop offset="0" style="stop-color:#361700;stop-opacity:1"/><stop offset="1" style="stop-color:#923e02;stop-opacity:1"/></radialGradient>
        <radialGradient id="_Radial2" cx="0" cy="0" r="1" gradientUnits="userSpaceOnUse" gradientTransform="matrix(13.0227,2.26822,-3.1974,18.3574,50.0187,48.2728)"><stop offset="0" style="stop-color:#61310f;stop-opacity:1"/><stop offset="1" style="stop-color:#8c3d00;stop-opacity:1"/></radialGradient>
    </defs>
</svg>
