<svg width="100px" height="100px" viewBox="0 0 100 100" version="1.1" xmlns="http://www.w3.org/2000/svg"  xml:space="preserve"  style="fill-rule:evenodd;clip-rule:evenodd;stroke-linejoin:round;stroke-miterlimit:1.41421;"><g id="SaebelZahnTiger"><path id="Koerper" d="M28.164,57.235c-8.98,-6.553 -2.84,-44.248 5.796,-51.829c8.636,-7.581 24.927,-4.497 33.907,2.056c8.979,6.554 12.37,41.163 3.734,48.745c-8.635,7.581 -34.458,7.581 -43.437,1.028Z" style="fill:#c9a741;"/><clipPath id="_clip1"><path d="M28.164,57.235c-8.98,-6.553 -2.84,-44.248 5.796,-51.829c8.636,-7.581 24.927,-4.497 33.907,2.056c8.979,6.554 12.37,41.163 3.734,48.745c-8.635,7.581 -34.458,7.581 -43.437,1.028Z"/></clipPath><g clip-path="url(#_clip1)"><path d="M31.718,41.213c-1.454,-0.656 -2.83,-1.265 -5.054,-1.646c-2.119,-0.363 -11.692,-0.299 -10.139,0.858c3.274,2.441 2.857,5.241 5.687,5.441c3.889,0.277 6.768,-0.36 9.281,-0.63c1.996,-0.214 5.353,-1.238 4.58,-2.201c-0.887,-1.108 -2.693,-1.071 -4.355,-1.822Z" style="fill:#a06f06;"/><path d="M69.117,22.344c1.886,-0.063 3.655,-0.131 5.756,-0.681c2.001,-0.524 8.901,-4.135 6.313,-4.401c-5.457,-0.56 -8.675,-2.757 -10.992,-1.85c-3.183,1.247 -4.481,2.782 -5.974,3.915c-1.186,0.899 -2.346,2.895 -0.57,3.31c2.04,0.477 3.311,-0.222 5.467,-0.293Z" style="fill:#a06f06;"/><path d="M38.384,51.744c1.119,-1.07 1.316,-1.27 -3.014,-1.279c-1.742,-0.003 -3.237,0.277 -4.499,0.73c-3.939,1.411 -6.328,1.517 -6.049,2.851c0.505,2.422 -0.927,0.053 0.457,1.484c1.1,1.137 6.199,-0.852 8.246,-1.604c2.351,-0.863 3.582,-0.959 4.859,-2.182Z" style="fill:#a06f06;"/><path d="M58.256,35.27c2.229,0.212 2.643,0.246 1.198,-1.975c-0.581,-0.893 -1.57,-1.564 -2.778,-2.059c-3.77,-1.542 -4.758,-2.729 -6.974,-2.137c-4.02,1.075 -0.403,-0.457 -2.413,0.734c-1.597,0.946 3.563,2.888 5.554,3.683c2.286,0.913 2.866,1.512 5.413,1.754Z" style="fill:#a06f06;"/><path d="M27.752,14.195c0.543,1.195 0.653,1.414 3.806,-0.201c1.268,-0.649 1.997,-1.412 2.341,-2.213c1.073,-2.499 2.672,-3.47 0.781,-4.334c-3.43,-1.567 0.607,-0.385 -2.208,-0.905c-2.236,-0.413 -3.42,2.939 -3.954,4.25c-0.613,1.507 -1.386,2.037 -0.766,3.403Z" style="fill:#a06f06;"/><path d="M76.607,4.343c2.653,-2.539 3.121,-3.015 -7.152,-3.035c-4.132,-0.008 -7.677,0.657 -10.674,1.73c-9.343,3.348 -15.009,3.599 -14.349,6.765c1.199,5.745 -2.2,0.124 1.085,3.52c2.609,2.697 14.705,-2.022 19.561,-3.805c5.578,-2.048 8.497,-2.274 11.529,-5.175Z" style="fill:#a06f06;"/><path d="M36.924,35.475c0.26,1.324 -0.504,1.857 0.408,3.596c0.868,1.656 9.936,9.336 10.754,7.321c2.002,-4.933 7.218,-1.488 7.727,-3.327c0.475,-1.718 -4.384,-6.639 -10.772,-9.435c-2.249,-0.985 -9.107,-3.371 -10.609,-2.115c-1.727,1.443 2.296,2.965 2.492,3.96Z" style="fill:#a06f06;"/><path d="M35.591,18.8c2.598,0.234 4.051,8.183 2.289,9.377c-1.763,1.194 -15.313,0.347 -16.148,-1.081c-0.836,-1.428 11.261,-8.53 13.859,-8.296Z" style="fill:#a06f06;"/><path d="M87.157,32.754c0.702,2.413 -4.398,3.641 -7.783,5.97c-2.153,1.481 -0.506,2.197 -3.171,3.049c-4.57,1.462 -17.076,1.914 -17.212,-0.874c-0.076,-1.538 5.358,-3.898 11.536,-5.733c1.946,-0.578 5.217,1.106 7.161,0.674c2.236,-0.496 3.268,-2.856 4.932,-3.262c1.564,-0.381 3.638,-0.176 4.537,0.176Z" style="fill:#a06f06;"/><path d="M44.923,70.561c-0.938,0.393 -2.595,1.449 -1.616,1.657c0.436,0.092 2.973,-0.445 4.648,-0.444c1.679,0.001 2.581,0.279 3.485,0c1.061,-0.327 7.151,-3.111 5.09,-3.557c-1.667,-0.362 -4.351,0.625 -6.798,1.302c-2.109,0.584 -3.738,0.592 -4.809,1.042Z" style="fill:#a06f06;"/><path d="M76.179,28.862c0.469,-1.166 1.653,-2.241 2.568,-2.987c1.149,-0.936 -0.55,0.35 1.942,-2.549c-3.958,0.094 -5.387,0.428 -7.883,0.968c-2.717,0.589 -16.756,7.054 -11.833,8.001c3.982,0.766 9.531,-1.678 15.206,-3.433Z" style="fill:#a06f06;"/><path d="M42.009,20.036c2.297,2.916 -1.207,9.828 2.303,8.288c4.119,-1.809 17.611,-11.176 8.263,-12.292c-7.562,-0.903 -11.96,2.234 -10.566,4.004Z" style="fill:#a06f06;"/><path d="M56.557,48.366c-1.891,-0.499 -4.716,-0.832 -6.795,-0.776c-2.03,0.055 -8.444,0.467 -6.042,1.927c5.066,3.079 9.431,9.03 11.048,7.789c1.666,-1.278 0.181,-1.584 2.047,-2.326c1.482,-0.59 4.691,1.445 5.7,-0.18c0.838,-1.35 -3.368,-5.75 -5.958,-6.434Z" style="fill:#a06f06;"/></g><path d="M28.164,57.235c-8.98,-6.553 -2.84,-44.248 5.796,-51.829c8.636,-7.581 24.927,-4.497 33.907,2.056c8.979,6.554 12.37,41.163 3.734,48.745c-8.635,7.581 -34.458,7.581 -43.437,1.028Z" style="fill:none;stroke:#000;stroke-width:0.46px;"/><g id="Kopf"><path d="M33.677,83.171l-2.114,-3.562c-4.993,-8.411 -6.479,-14.854 -4.457,-19.326c-0.049,-3.453 -0.033,-8.226 0.257,-12.752c0.336,-5.222 5.324,0.865 9.082,6.27c3.029,-0.758 6.734,-1.136 11.112,-1.136l4.228,0c4.376,0 8.078,0.378 11.106,1.134c3.758,-5.406 8.751,-11.501 9.087,-6.277c0.291,4.53 0.306,9.306 0.258,12.759c2.023,4.473 0.537,10.915 -4.457,19.328l-2.114,3.562c-10.662,17.962 -21.325,17.962 -31.988,0Z" style="fill:#c9a741;"/><clipPath id="_clip2"><path d="M33.677,83.171l-2.114,-3.562c-4.993,-8.411 -6.479,-14.854 -4.457,-19.326c-0.049,-3.453 -0.033,-8.226 0.257,-12.752c0.336,-5.222 5.324,0.865 9.082,6.27c3.029,-0.758 6.734,-1.136 11.112,-1.136l4.228,0c4.376,0 8.078,0.378 11.106,1.134c3.758,-5.406 8.751,-11.501 9.087,-6.277c0.291,4.53 0.306,9.306 0.258,12.759c2.023,4.473 0.537,10.915 -4.457,19.328l-2.114,3.562c-10.662,17.962 -21.325,17.962 -31.988,0Z"/></clipPath><g clip-path="url(#_clip2)"><path d="M39.315,78.18c-0.858,-0.655 -1.67,-1.262 -2.982,-1.642c-1.25,-0.362 -6.898,-0.298 -5.982,0.856c1.932,2.433 1.686,5.225 3.356,5.426c2.294,0.275 3.993,-0.36 5.476,-0.629c1.177,-0.213 3.158,-1.234 2.702,-2.195c-0.524,-1.104 -1.589,-1.068 -2.57,-1.816Z" style="fill:#a06f06;"/><path d="M57.342,93.571c0.477,-0.77 0.561,-0.915 -1.284,-0.921c-0.742,-0.002 -1.379,0.2 -1.917,0.526c-1.678,1.016 -2.695,1.092 -2.577,2.053c0.216,1.743 -0.395,0.037 0.195,1.068c0.469,0.818 2.641,-0.614 3.513,-1.155c1.002,-0.621 1.526,-0.69 2.07,-1.571Z" style="fill:#a06f06;"/><path d="M42.606,63.092c-1.283,-0.609 -1.518,-1.248 -3.389,-1.789c-1.781,-0.516 -11.68,-0.623 -10.121,0.853c3.816,3.613 -0.997,4.086 0.503,5.325c1.401,1.158 7.435,1.658 12.042,0.3c1.622,-0.478 6.01,-2.274 5.36,-3.644c-0.746,-1.574 -3.431,-0.588 -4.395,-1.045Z" style="fill:#a06f06;"/><path d="M69.227,60.976c1.532,0.234 2.39,8.16 1.35,9.351c-1.04,1.19 -9.035,0.346 -9.528,-1.078c-0.492,-1.424 6.645,-8.506 8.178,-8.273Z" style="fill:#a06f06;"/><path d="M68.333,50.586c0.415,2.406 -2.594,3.63 -4.592,5.952c-1.27,1.477 -0.298,2.191 -1.871,3.041c-2.696,1.457 -10.075,1.909 -10.155,-0.871c-0.044,-1.534 3.161,-3.887 6.807,-5.717c1.148,-0.577 3.077,1.103 4.225,0.672c1.319,-0.495 1.928,-2.849 2.91,-3.253c0.922,-0.379 2.146,-0.175 2.676,0.176Z" style="fill:#a06f06;"/><path d="M46.07,76.287c-0.733,0.52 -2.028,1.915 -1.263,2.189c0.34,0.122 2.324,-0.587 3.633,-0.586c1.312,0.001 2.018,0.369 2.724,0c0.83,-0.432 5.59,-4.11 3.979,-4.7c-1.303,-0.478 -3.401,0.827 -5.314,1.721c-1.648,0.771 -2.922,0.782 -3.759,1.376Z" style="fill:#a06f06;"/><path d="M67.451,80.758c0.234,-1.013 0.84,-1.944 1.31,-2.589c0.59,-0.81 -0.283,0.303 0.988,-2.209c-2.059,0.066 -2.8,0.351 -4.094,0.812c-1.408,0.501 -8.658,6.071 -6.087,6.914c2.079,0.681 4.945,-1.424 7.883,-2.928Z" style="fill:#a06f06;"/><path d="M27.224,50.003c0.189,0.889 -0.842,2.706 -0.161,2.39c0.799,-0.371 3.641,-2.546 2.169,-3.163c-1.191,-0.5 -2.123,0.233 -2.008,0.773Z" style="fill:#a06f06;"/><path d="M45.212,89.746c-0.835,-0.161 -2.133,-0.187 -3.126,-0.049c-0.969,0.135 -4.058,0.683 -3.097,1.317c2.028,1.337 3.374,4.204 4.291,3.474c0.944,-0.752 0.278,-0.833 1.252,-1.317c0.774,-0.384 2.048,0.507 2.723,-0.391c0.561,-0.745 -0.898,-2.814 -2.043,-3.034Z" style="fill:#a06f06;"/></g><path d="M33.677,83.171l-2.114,-3.562c-4.993,-8.411 -6.479,-14.854 -4.457,-19.326c-0.049,-3.453 -0.033,-8.226 0.257,-12.752c0.336,-5.222 5.324,0.865 9.082,6.27c3.029,-0.758 6.734,-1.136 11.112,-1.136l4.228,0c4.376,0 8.078,0.378 11.106,1.134c3.758,-5.406 8.751,-11.501 9.087,-6.277c0.291,4.53 0.306,9.306 0.258,12.759c2.023,4.473 0.537,10.915 -4.457,19.328l-2.114,3.562c-10.662,17.962 -21.325,17.962 -31.988,0Z" style="fill:none;stroke:#000;stroke-width:0.46px;"/><g id="Nase"><path d="M51.472,84.706c-0.632,1.241 -0.323,3.564 -1.048,4.112c-0.417,0.315 -0.668,0.214 -0.95,0.013c-0.572,-0.409 -0.201,-2.635 -0.983,-3.992l-1.796,-0.739c-2.884,-0.442 -6.047,-2.008 -2.564,-3.308c0.639,-0.24 1.533,-0.59 3.132,0.395l2.546,0.28l2.686,-0.223c2.713,-0.66 2.278,-0.368 2.981,-0.208c3.152,0.717 1.652,2.393 -2.213,3.013l-1.791,0.657Z" style="fill:#311004;fill-rule:nonzero;"/><path d="M56.559,82.178c0,0.321 -2.099,1.087 -2.606,1.087c-0.508,0 0.038,-1.252 0.038,-1.573c0,-0.32 0.458,-0.445 0.965,-0.445c0.508,0 1.603,0.61 1.603,0.931Z" style="fill-rule:nonzero;"/><path d="M43.641,82.178c0,0.321 2.099,1.087 2.606,1.087c0.508,0 -0.038,-1.252 -0.038,-1.573c0,-0.321 -0.457,-0.445 -0.965,-0.445c-0.508,0 -1.603,0.61 -1.603,0.931Z" style="fill-rule:nonzero;"/></g><g id="Zaehne"><path d="M59.634,99.036c0,0 -0.478,-4.73 -1.609,-5.971c-0.577,-0.633 0.138,-1.122 0.922,-1.84c0.642,-0.588 1.344,-1.625 1.719,-1.578c0.127,0.016 0.218,0.47 0.254,0.685c0.869,5.135 -1.286,8.704 -1.286,8.704Z" style="fill:#fffed5;fill-rule:nonzero;stroke:#6d6d6d;stroke-width:0.37px;stroke-linejoin:miter;stroke-miterlimit:4;"/><path d="M39.708,99.036c0,0 0.479,-4.73 1.61,-5.971c0.577,-0.633 -0.139,-1.122 -0.922,-1.84c-0.642,-0.588 -1.344,-1.625 -1.719,-1.578c-0.127,0.016 -0.218,0.47 -0.254,0.685c-0.869,5.135 1.285,8.704 1.285,8.704Z" style="fill:#fffed5;fill-rule:nonzero;stroke:#6d6d6d;stroke-width:0.35px;stroke-linejoin:miter;stroke-miterlimit:4;"/></g><g id="Ohren"><path d="M29.394,48.653c0.073,-0.206 0.175,-0.138 0.311,-0.096c1.014,0.308 3.633,4.413 3.807,4.936c0.079,0.238 0.09,0.465 -0.02,0.661c-0.398,0.711 -3.2,1.625 -3.595,1.495c-0.153,-0.05 -0.275,-0.2 -0.372,-0.425c-0.664,-1.541 -0.252,-6.23 -0.131,-6.571Z" style="fill:#fffed5;fill-rule:nonzero;"/><path d="M69.949,48.653c-0.073,-0.206 -0.175,-0.138 -0.311,-0.096c-1.014,0.308 -3.633,4.413 -3.807,4.935c-0.079,0.239 -0.09,0.466 0.02,0.662c0.398,0.711 3.2,1.625 3.595,1.495c0.153,-0.05 0.275,-0.2 0.372,-0.425c0.664,-1.541 0.252,-6.23 0.131,-6.571Z" style="fill:#fffed5;fill-rule:nonzero;"/></g><g id="Augen"><g><path d="M54.924,71.594c0,0 2.076,-2.44 3.57,-2.835c1.944,-0.513 5.832,-3.328 5.843,-3.318c0.078,0.066 -0.614,0.78 -0.61,0.791c0.097,0.261 1.304,3.288 0.474,4.497c-0.867,1.261 -9.277,0.865 -9.277,0.865Z" style="fill:#fff8f8;stroke:#000;stroke-width:0.6px;stroke-linecap:round;stroke-miterlimit:1.5;"/><path d="M57.137,69.495c1.332,-0.916 1.207,-0.619 2.155,-1.03c1.189,-0.533 2.429,-1.245 3.081,-1.681c1.237,2.429 -0.342,4.644 -1.739,4.76c-0.832,0.068 -2.844,-0.918 -3.497,-2.049Z" style="fill:url(#_Radial3);stroke:#000;stroke-width:0.56px;stroke-linecap:round;stroke-miterlimit:1.5;"/><ellipse cx="60.377" cy="69.304" rx="0.775" ry="1.306" style="fill:#fff;stroke:#000;stroke-width:0.56px;stroke-linecap:round;stroke-miterlimit:1.5;"/></g><g><path d="M44.418,71.594c0,0 -2.076,-2.44 -3.569,-2.835c-1.944,-0.513 -5.832,-3.328 -5.843,-3.318c-0.078,0.066 0.614,0.78 0.61,0.791c-0.097,0.261 -1.305,3.288 -0.474,4.497c0.866,1.261 9.276,0.865 9.276,0.865Z" style="fill:#fff8f8;stroke:#000;stroke-width:0.6px;stroke-linecap:round;stroke-miterlimit:1.5;"/><path d="M42.206,69.495c-1.333,-0.916 -1.208,-0.619 -2.155,-1.03c-1.19,-0.533 -2.43,-1.245 -3.081,-1.681c-1.238,2.429 0.341,4.644 1.738,4.76c0.832,0.068 2.844,-0.918 3.498,-2.049Z" style="fill:url(#_Radial4);stroke:#000;stroke-width:0.56px;stroke-linecap:round;stroke-miterlimit:1.5;"/><ellipse cx="38.966" cy="69.304" rx="0.775" ry="1.306" style="fill:#fff;stroke:#000;stroke-width:0.56px;stroke-linecap:round;stroke-miterlimit:1.5;"/></g></g></g><path id="Schwanz" d="M43.996,4.105c1.108,4.351 6.572,8.561 20.333,11.483c17.435,3.703 23.878,7.899 24.557,11.703c1.124,6.302 -13.578,11.525 -20.335,11.633c-8.706,0.14 -22.429,-2.875 -23.482,-7.967c-0.855,-4.136 6.247,-5.146 5.491,-7.174c-0.564,-1.51 -5.088,1.582 -6.356,2.791c-1.119,1.067 -1.494,3.09 -1.253,4.465c1.213,6.94 17.687,10.885 26.592,10.215c6.975,-0.524 24.208,-7.451 23.09,-14.942c-0.614,-4.114 -6.763,-8.398 -23.184,-11.885c-14.752,-3.133 -20.408,-7.4 -21.516,-11.63" style="fill:#c9a741;"/><clipPath id="_clip5"><path d="M43.996,4.105c1.108,4.351 6.572,8.561 20.333,11.483c17.435,3.703 23.878,7.899 24.557,11.703c1.124,6.302 -13.578,11.525 -20.335,11.633c-8.706,0.14 -22.429,-2.875 -23.482,-7.967c-0.855,-4.136 6.247,-5.146 5.491,-7.174c-0.564,-1.51 -5.088,1.582 -6.356,2.791c-1.119,1.067 -1.494,3.09 -1.253,4.465c1.213,6.94 17.687,10.885 26.592,10.215c6.975,-0.524 24.208,-7.451 23.09,-14.942c-0.614,-4.114 -6.763,-8.398 -23.184,-11.885c-14.752,-3.133 -20.408,-7.4 -21.516,-11.63"/></clipPath><g clip-path="url(#_clip5)"><path d="M84.221,38.651c-0.85,-0.722 -1.641,-1.407 -2.275,-2.628c-0.604,-1.163 -1.512,-6.738 -0.118,-6.053c2.941,1.445 5.89,0.677 6.393,2.284c0.692,2.208 0.306,4.001 0.274,5.512c-0.025,1.2 -0.776,3.342 -1.884,3.074c-1.274,-0.308 -1.419,-1.364 -2.39,-2.189Z" style="fill:#a06f06;"/><path d="M90.79,28.89c-0.743,0.614 -0.883,0.724 -1.209,-1.092c-0.131,-0.73 -0.025,-1.395 0.231,-1.987c0.798,-1.843 0.704,-2.86 1.754,-2.924c1.905,-0.116 -0.028,-0.396 1.178,-0.009c0.958,0.308 -0.201,2.717 -0.63,3.677c-0.492,1.104 -0.475,1.633 -1.324,2.335Z" style="fill:#a06f06;"/><path d="M53.588,16.745c-0.874,-1.149 -1.599,-1.26 -2.502,-3.001c-0.861,-1.658 -2.689,-11.387 -0.838,-10.129c4.532,3.079 4.205,-1.75 5.792,-0.506c1.483,1.162 3.063,7.01 2.404,11.804c-0.231,1.687 -1.396,6.347 -2.976,5.965c-1.816,-0.439 -1.223,-3.269 -1.88,-4.133Z" style="fill:#a06f06;"/><path d="M58.334,41.018c0.515,1.465 9.155,0.819 10.25,-0.429c1.096,-1.249 -1.192,-8.964 -2.802,-9.182c-1.611,-0.217 -7.963,8.145 -7.448,9.611Z" style="fill:#a06f06;"/><path d="M45.554,37.229c2.649,-0.044 3.44,-3.238 5.582,-5.642c1.362,-1.529 2.295,-0.706 2.934,-2.415c1.095,-2.93 0.302,-10.282 -2.69,-9.839c-1.651,0.245 -3.618,3.846 -4.947,7.78c-0.419,1.239 1.713,2.824 1.451,4.035c-0.302,1.392 -2.718,2.435 -2.982,3.478c-0.247,0.98 0.184,2.147 0.652,2.603Z" style="fill:#a06f06;"/><path d="M67.463,14.237c0.43,-0.819 1.7,-2.358 2.127,-1.656c0.189,0.313 -0.228,2.4 0,3.689c0.228,1.293 0.745,1.918 0.472,2.683c-0.32,0.899 -3.436,6.279 -4.347,4.804c-0.737,-1.194 0.297,-3.506 0.925,-5.558c0.541,-1.769 0.331,-3.025 0.823,-3.962Z" style="fill:#a06f06;"/><path d="M84.503,19.745c0.567,1.192 1.532,2.187 2.255,2.864c0.91,0.85 -0.41,-0.301 1.779,2.478c-2.351,0.45 -3.274,0.289 -4.876,0.054c-1.744,-0.256 -11.612,-5.272 -8.954,-6.979c2.15,-1.381 6.022,0.482 9.796,1.583Z" style="fill:#a06f06;"/><path d="M47.228,-1.853c2.426,0.046 6.777,-3.294 6.234,-1.498c-0.637,2.109 -5.163,10.007 -7.418,6.724c-1.823,-2.656 -0.289,-5.254 1.184,-5.226Z" style="fill:#a06f06;"/></g><path d="M43.996,4.105c1.108,4.351 6.572,8.561 20.333,11.483c17.435,3.703 23.878,7.899 24.557,11.703c1.124,6.302 -13.578,11.525 -20.335,11.633c-8.706,0.14 -22.429,-2.875 -23.482,-7.967c-0.855,-4.136 6.247,-5.146 5.491,-7.174c-0.564,-1.51 -5.088,1.582 -6.356,2.791c-1.119,1.067 -1.494,3.09 -1.253,4.465c1.213,6.94 17.687,10.885 26.592,10.215c6.975,-0.524 24.208,-7.451 23.09,-14.942c-0.614,-4.114 -6.763,-8.398 -23.184,-11.885c-14.752,-3.133 -20.408,-7.4 -21.516,-11.63" style="fill:none;stroke:#000;stroke-width:0.46px;stroke-linecap:round;stroke-miterlimit:1.5;"/></g><defs><radialGradient id="_Radial3" cx="0" cy="0" r="1" gradientUnits="userSpaceOnUse" gradientTransform="matrix(-1.87644,-1.32883,-1.37305,1.41049,60.2907,71.2348)"><stop offset="0" style="stop-color:#e8d3b1;stop-opacity:1"/><stop offset="1" style="stop-color:#a9721b;stop-opacity:1"/></radialGradient><radialGradient id="_Radial4" cx="0" cy="0" r="1" gradientUnits="userSpaceOnUse" gradientTransform="matrix(1.87644,-1.32883,1.37305,1.41049,39.0519,71.2348)"><stop offset="0" style="stop-color:#e8d3b1;stop-opacity:1"/><stop offset="1" style="stop-color:#a9721b;stop-opacity:1"/></radialGradient></defs></svg>