<svg width="100px" height="100px" viewBox="0 0 100 100" version="1.1" xmlns="http://www.w3.org/2000/svg" xmlns:xlink="http://www.w3.org/1999/xlink" xml:space="preserve" style="fill-rule:evenodd;clip-rule:evenodd;stroke-linejoin:round;stroke-miterlimit:1.41421;"><g><path d="M16.773,69.529c-1.126,-0.798 -3.6,-1.279 -4.26,-0.669c-0.865,0.802 -0.73,2.371 3.355,3.439c2.001,0.523 3.837,0.101 3.837,0.101c0,0 -1.342,-1.743 -2.932,-2.871Z" style="fill:#600e00;"/><path d="M36.01,74.117c1.087,-0.85 2.256,-3.083 1.86,-3.889c-0.52,-1.059 -2.063,-1.378 -4.255,2.23c-1.074,1.767 -1.195,3.648 -1.195,3.648c0,0 2.054,-0.788 3.59,-1.989Z" style="fill:#600e00;"/><path d="M33.206,71.657c1.374,-0.135 3.558,-1.394 3.656,-2.287c0.128,-1.173 -1.004,-2.269 -4.788,-0.397c-1.854,0.917 -2.963,2.439 -2.963,2.439c0,0 2.156,0.436 4.095,0.245Z" style="fill:#600e00;"/><path d="M55.807,82.531c1.068,-0.874 2.187,-3.133 1.773,-3.931c-0.544,-1.046 -2.093,-1.331 -4.204,2.325c-1.034,1.791 -1.113,3.674 -1.113,3.674c0,0 2.036,-0.833 3.544,-2.068Z" style="fill:#600e00;"/><path d="M77.41,65.28c-0.115,-1.375 -1.342,-3.577 -2.234,-3.688c-1.171,-0.145 -2.283,0.971 -0.466,4.782c0.89,1.867 2.396,2.998 2.396,2.998c0,0 0.467,-2.149 0.304,-4.092Z" style="fill:#600e00;"/><path d="M76.942,37.853c-1.199,-0.684 -3.708,-0.921 -4.305,-0.249c-0.783,0.883 -0.494,2.431 3.676,3.094c2.042,0.324 3.828,-0.276 3.828,-0.276c0,0 -1.506,-1.602 -3.199,-2.569Z" style="fill:#600e00;"/><path d="M59.123,16.568c-1.243,0.6 -2.86,2.534 -2.644,3.406c0.283,1.145 1.723,1.785 4.632,-1.276c1.424,-1.499 1.942,-3.311 1.942,-3.311c0,0 -2.175,0.334 -3.93,1.181Z" style="fill:#600e00;"/><path d="M31.789,15.224c-0.21,1.364 0.467,3.792 1.308,4.109c1.104,0.415 2.447,-0.409 1.573,-4.54c-0.428,-2.023 -1.627,-3.476 -1.627,-3.476c0,0 -0.958,1.981 -1.254,3.907Z" style="fill:#600e00;"/><path d="M73.495,36.179c0.318,-1.343 -0.164,-3.817 -0.977,-4.199c-1.067,-0.502 -2.471,0.212 -1.929,4.399c0.265,2.051 1.345,3.595 1.345,3.595c0,0 1.112,-1.898 1.561,-3.795Z" style="fill:#600e00;"/><path d="M73.495,36.179c0.318,-1.343 -0.164,-3.817 -0.977,-4.199c-1.067,-0.502 -2.471,0.212 -1.929,4.399c0.265,2.051 1.345,3.595 1.345,3.595c0,0 1.112,-1.898 1.561,-3.795Z" style="fill:#600e00;"/><path d="M15.306,38.075c1.34,-0.331 3.321,-1.889 3.29,-2.787c-0.041,-1.179 -1.317,-2.102 -4.795,0.292c-1.704,1.173 -2.584,2.838 -2.584,2.838c0,0 2.196,0.123 4.089,-0.343Z" style="fill:#600e00;"/><path d="M34.267,29.073c-1.311,0.431 -3.168,2.136 -3.069,3.029c0.13,1.172 1.473,1.996 4.759,-0.656c1.609,-1.298 2.361,-3.026 2.361,-3.026c0,0 -2.199,0.044 -4.051,0.653Z" style="fill:#600e00;"/><path d="M29.816,32.989c1.151,0.762 3.64,1.163 4.279,0.531c0.839,-0.829 0.653,-2.393 -3.464,-3.328c-2.017,-0.458 -3.838,0.023 -3.838,0.023c0,0 1.397,1.698 3.023,2.774Z" style="fill:#600e00;"/><path d="M86.504,48.916c0.348,-1.335 -0.079,-3.82 -0.883,-4.22c-1.056,-0.526 -2.476,0.157 -2.027,4.355c0.219,2.057 1.265,3.624 1.265,3.624c0,0 1.154,-1.872 1.645,-3.759Z" style="fill:#600e00;"/><path d="M79.536,51.531c1.373,-0.136 3.557,-1.395 3.655,-2.288c0.128,-1.172 -1.003,-2.268 -4.788,-0.397c-1.854,0.917 -2.963,2.44 -2.963,2.44c0,0 2.156,0.436 4.096,0.245Z" style="fill:#600e00;"/><path d="M53.495,16.461c0.153,1.372 1.442,3.539 2.336,3.624c1.174,0.113 2.255,-1.033 0.332,-4.792c-0.941,-1.842 -2.479,-2.931 -2.479,-2.931c0,0 -0.406,2.162 -0.189,4.099Z" style="fill:#600e00;"/></g><g><path d="M25.375,18.876c0.668,-1.208 0.871,-3.72 0.191,-4.308c-0.893,-0.771 -2.437,-0.462 -3.044,3.717c-0.297,2.046 0.326,3.824 0.326,3.824c0,0 1.583,-1.528 2.527,-3.233Z" style="fill:#0d4e0a;"/><path d="M22.954,38.504c0.966,0.985 3.315,1.899 4.073,1.416c0.994,-0.635 1.14,-2.203 -2.69,-3.981c-1.876,-0.87 -3.758,-0.782 -3.758,-0.782c0,0 1.011,1.954 2.375,3.347Z" style="fill:#0d4e0a;"/><path d="M25.087,35.444c0.287,1.35 1.781,3.38 2.68,3.378c1.179,-0.003 2.143,-1.249 -0.138,-4.802c-1.117,-1.74 -2.754,-2.674 -2.754,-2.674c0,0 -0.193,2.192 0.212,4.098Z" style="fill:#0d4e0a;"/><path d="M16.794,59.114c0.987,0.964 3.357,1.825 4.103,1.325c0.98,-0.657 1.091,-2.228 -2.778,-3.92c-1.895,-0.828 -3.774,-0.697 -3.774,-0.697c0,0 1.054,1.93 2.449,3.292Z" style="fill:#0d4e0a;"/><path d="M36.339,78.665c1.354,-0.268 3.406,-1.732 3.417,-2.631c0.014,-1.179 -1.218,-2.161 -4.804,0.068c-1.756,1.092 -2.713,2.715 -2.713,2.715c0,0 2.188,0.225 4.1,-0.152Z" style="fill:#0d4e0a;"/><path d="M63.544,75.15c0.547,-1.267 0.503,-3.788 -0.231,-4.306c-0.964,-0.68 -2.471,-0.221 -2.666,3.997c-0.095,2.066 0.7,3.774 0.7,3.774c0,0 1.425,-1.675 2.197,-3.465Z" style="fill:#0d4e0a;"/><path d="M82.716,55.075c-0.734,-1.169 -2.836,-2.561 -3.678,-2.249c-1.107,0.409 -1.582,1.911 1.782,4.461c1.649,1.249 3.506,1.562 3.506,1.562c0,0 -0.572,-2.124 -1.61,-3.774Z" style="fill:#0d4e0a;"/><path d="M81.013,27.761c-1.379,-0.057 -3.717,0.886 -3.938,1.757c-0.29,1.143 0.678,2.386 4.686,1.058c1.963,-0.65 3.274,-2.004 3.274,-2.004c0,0 -2.075,-0.731 -4.022,-0.811Z" style="fill:#0d4e0a;"/><path d="M64.825,71.539c1.37,0.166 3.775,-0.588 4.065,-1.439c0.38,-1.116 -0.486,-2.432 -4.587,-1.428c-2.009,0.492 -3.423,1.737 -3.423,1.737c0,0 2.01,0.894 3.945,1.13Z" style="fill:#0d4e0a;"/><path d="M64.825,71.539c1.37,0.166 3.775,-0.588 4.065,-1.439c0.38,-1.116 -0.486,-2.432 -4.587,-1.428c-2.009,0.492 -3.423,1.737 -3.423,1.737c0,0 2.01,0.894 3.945,1.13Z" style="fill:#0d4e0a;"/><path d="M56.471,13.921c0.477,1.295 2.247,3.09 3.135,2.96c1.167,-0.172 1.943,-1.543 -0.823,-4.733c-1.355,-1.563 -3.108,-2.253 -3.108,-2.253c0,0 0.122,2.197 0.796,4.026Z" style="fill:#0d4e0a;"/><path d="M67.525,31.763c-0.574,-1.255 -2.475,-2.911 -3.351,-2.713c-1.151,0.26 -1.82,1.686 1.181,4.657c1.469,1.455 3.27,2.009 3.27,2.009c0,0 -0.289,-2.18 -1.1,-3.953Z" style="fill:#0d4e0a;"/><path d="M63.139,27.775c-0.629,1.229 -0.751,3.747 -0.053,4.312c0.917,0.742 2.451,0.383 2.923,-3.813c0.231,-2.055 -0.45,-3.812 -0.45,-3.812c0,0 -1.532,1.578 -2.42,3.313Z" style="fill:#0d4e0a;"/><path d="M53.613,85.883c1.366,0.197 3.788,-0.503 4.096,-1.347c0.405,-1.108 -0.431,-2.443 -4.554,-1.53c-2.019,0.446 -3.461,1.659 -3.461,1.659c0,0 1.99,0.939 3.919,1.218Z" style="fill:#0d4e0a;"/><path d="M50.24,79.248c0.287,1.35 1.781,3.381 2.68,3.378c1.179,-0.003 2.143,-1.249 -0.138,-4.802c-1.118,-1.74 -2.754,-2.674 -2.754,-2.674c0,0 -0.193,2.192 0.212,4.098Z" style="fill:#0d4e0a;"/><path d="M82.197,49.47c-1.346,0.305 -3.356,1.826 -3.342,2.725c0.019,1.179 1.278,2.126 4.8,-0.203c1.725,-1.141 2.636,-2.79 2.636,-2.79c0,0 -2.193,-0.164 -4.094,0.268Z" style="fill:#0d4e0a;"/></g><g><path d="M10.115,46.688c-0.42,-1.315 -2.108,-3.188 -3.001,-3.097c-1.174,0.12 -2.009,1.456 0.612,4.765c1.285,1.621 3.006,2.388 3.006,2.388c0,0 -0.025,-2.199 -0.617,-4.056Z" style="fill:#ad3700;"/><path d="M22.726,61.921c1.38,-0.026 3.657,-1.107 3.826,-1.989c0.221,-1.159 -0.82,-2.342 -4.741,-0.777c-1.921,0.767 -3.148,2.196 -3.148,2.196c0,0 2.114,0.606 4.063,0.57Z" style="fill:#ad3700;"/><path d="M21.966,58.27c1.178,0.717 3.68,1.025 4.295,0.37c0.808,-0.86 0.563,-2.416 -3.586,-3.196c-2.033,-0.382 -3.835,0.167 -3.835,0.167c0,0 1.461,1.645 3.126,2.659Z" style="fill:#ad3700;"/><path d="M33.485,80.548c1.379,-0.056 3.632,-1.188 3.78,-2.074c0.195,-1.164 -0.871,-2.323 -4.757,-0.671c-1.903,0.81 -3.098,2.266 -3.098,2.266c0,0 2.127,0.559 4.075,0.479Z" style="fill:#ad3700;"/><path d="M61.119,79.755c0.735,-1.168 1.078,-3.665 0.432,-4.29c-0.848,-0.82 -2.407,-0.598 -3.247,3.54c-0.412,2.027 0.111,3.837 0.111,3.837c0,0 1.666,-1.437 2.704,-3.087Z" style="fill:#ad3700;"/><path d="M77.238,57.559c-0.547,-1.267 -2.41,-2.965 -3.29,-2.787c-1.156,0.234 -1.857,1.645 1.076,4.682c1.437,1.487 3.225,2.082 3.225,2.082c0,0 -0.24,-2.187 -1.011,-3.977Z" style="fill:#ad3700;"/><path d="M75.8,29.837c-1.354,-0.268 -3.809,0.305 -4.161,1.132c-0.462,1.085 0.303,2.462 4.468,1.766c2.04,-0.342 3.542,-1.478 3.542,-1.478c0,0 -1.937,-1.041 -3.849,-1.42Z" style="fill:#ad3700;"/><path d="M54.768,12.327c-0.989,0.964 -1.907,3.311 -1.426,4.069c0.633,0.996 2.201,1.145 3.987,-2.681c0.875,-1.874 0.79,-3.756 0.79,-3.756c0,0 -1.956,1.007 -3.351,2.368Z" style="fill:#ad3700;"/><path d="M75.49,54.149c1.062,-0.882 2.165,-3.148 1.745,-3.943c-0.551,-1.043 -2.103,-1.316 -4.187,2.355c-1.021,1.799 -1.087,3.682 -1.087,3.682c0,0 2.03,-0.848 3.529,-2.094Z" style="fill:#ad3700;"/><path d="M75.49,54.149c1.062,-0.882 2.165,-3.148 1.745,-3.943c-0.551,-1.043 -2.103,-1.316 -4.187,2.355c-1.021,1.799 -1.087,3.682 -1.087,3.682c0,0 2.03,-0.848 3.529,-2.094Z" style="fill:#ad3700;"/><path d="M27.857,20.673c1.269,0.542 3.79,0.488 4.305,-0.248c0.676,-0.967 0.211,-2.472 -4.007,-2.65c-2.067,-0.088 -3.772,0.714 -3.772,0.714c0,0 1.681,1.419 3.474,2.184Z" style="fill:#ad3700;"/><path d="M48.42,24.882c-1.307,-0.443 -3.816,-0.198 -4.274,0.575c-0.6,1.015 -0.023,2.48 4.197,2.338c2.067,-0.07 3.706,-0.999 3.706,-0.999c0,0 -1.784,-1.287 -3.629,-1.914Z" style="fill:#ad3700;"/><path d="M42.509,25.335c0.461,1.3 2.209,3.117 3.099,2.997c1.169,-0.157 1.961,-1.519 -0.766,-4.742c-1.336,-1.579 -3.081,-2.29 -3.081,-2.29c0,0 0.096,2.198 0.748,4.035Z" style="fill:#ad3700;"/><path d="M78.225,72.149c1.081,-0.858 2.235,-3.1 1.833,-3.903c-0.528,-1.055 -2.073,-1.363 -4.239,2.261c-1.061,1.775 -1.169,3.656 -1.169,3.656c0,0 2.048,-0.802 3.575,-2.014Z" style="fill:#ad3700;"/><path d="M71.085,70.047c1.179,0.718 3.681,1.026 4.296,0.371c0.808,-0.86 0.563,-2.416 -3.586,-3.196c-2.033,-0.383 -3.835,0.167 -3.835,0.167c0,0 1.461,1.644 3.125,2.658Z" style="fill:#ad3700;"/><path d="M71.367,26.368c-0.702,1.188 -0.976,3.694 -0.313,4.3c0.871,0.796 2.424,0.53 3.148,-3.629c0.354,-2.038 -0.219,-3.832 -0.219,-3.832c0,0 -1.625,1.482 -2.616,3.161Z" style="fill:#ad3700;"/></g><g><path d="M79.475,73.095c-0.385,1.325 -0.027,3.82 0.766,4.243c1.041,0.555 2.479,-0.088 2.147,-4.297c-0.162,-2.062 -1.163,-3.658 -1.163,-3.658c0,0 -1.206,1.84 -1.75,3.712Z" style="fill:#4c4d00;"/><path d="M77.499,53.417c-1.16,-0.748 -3.653,-1.12 -4.285,-0.481c-0.83,0.839 -0.625,2.4 3.503,3.288c2.022,0.434 3.837,-0.068 3.837,-0.068c0,0 -1.417,-1.682 -3.055,-2.739Z" style="fill:#4c4d00;"/><path d="M76.094,56.872c-0.578,-1.253 -2.484,-2.903 -3.36,-2.702c-1.149,0.264 -1.814,1.692 1.196,4.653c1.474,1.45 3.277,1.999 3.277,1.999c0,0 -0.296,-2.18 -1.113,-3.95Z" style="fill:#4c4d00;"/><path d="M78.952,31.955c-1.176,-0.722 -3.677,-1.038 -4.295,-0.385c-0.81,0.857 -0.571,2.414 3.576,3.209c2.031,0.389 3.835,-0.154 3.835,-0.154c0,0 -1.455,-1.65 -3.116,-2.67Z" style="fill:#4c4d00;"/><path d="M55.569,17.207c-1.261,0.56 -2.939,2.442 -2.751,3.32c0.247,1.154 1.666,1.839 4.67,-1.128c1.472,-1.453 2.046,-3.247 2.046,-3.247c0,0 -2.183,0.264 -3.965,1.055Z" style="fill:#4c4d00;"/><path d="M29.813,26.647c-0.253,1.357 0.347,3.805 1.178,4.148c1.09,0.45 2.458,-0.331 1.716,-4.487c-0.363,-2.036 -1.516,-3.526 -1.516,-3.526c0,0 -1.02,1.949 -1.378,3.865Z" style="fill:#4c4d00;"/><path d="M15.552,50.462c0.974,0.978 3.332,1.871 4.085,1.381c0.988,-0.644 1.12,-2.213 -2.725,-3.957c-1.884,-0.854 -3.765,-0.749 -3.765,-0.749c0,0 1.029,1.945 2.405,3.325Z" style="fill:#4c4d00;"/><path d="M23.249,76.725c1.358,-0.249 3.429,-1.686 3.452,-2.584c0.03,-1.179 -1.188,-2.177 -4.804,0.003c-1.771,1.068 -2.75,2.678 -2.75,2.678c0,0 2.185,0.255 4.102,-0.097Z" style="fill:#4c4d00;"/><path d="M29.363,30.452c-1.373,0.14 -3.552,1.407 -3.647,2.301c-0.124,1.173 1.012,2.265 4.789,0.379c1.851,-0.924 2.955,-2.45 2.955,-2.45c0,0 -2.158,-0.428 -4.097,-0.23Z" style="fill:#4c4d00;"/><path d="M29.363,30.452c-1.373,0.14 -3.552,1.407 -3.647,2.301c-0.124,1.173 1.012,2.265 4.789,0.379c1.851,-0.924 2.955,-2.45 2.955,-2.45c0,0 -2.158,-0.428 -4.097,-0.23Z" style="fill:#4c4d00;"/><path d="M50.243,84.799c-0.752,-1.157 -2.874,-2.518 -3.712,-2.194c-1.1,0.426 -1.554,1.934 1.849,4.434c1.666,1.225 3.529,1.51 3.529,1.51c0,0 -0.605,-2.115 -1.666,-3.75Z" style="fill:#4c4d00;"/><path d="M35.519,69.841c0.837,1.097 3.057,2.292 3.868,1.905c1.065,-0.508 1.402,-2.046 -2.181,-4.28c-1.754,-1.095 -3.633,-1.238 -3.633,-1.238c0,0 0.763,2.063 1.946,3.613Z" style="fill:#4c4d00;"/><path d="M40.678,72.761c0.342,-1.337 -0.095,-3.82 -0.901,-4.217c-1.059,-0.521 -2.475,0.168 -2.008,4.364c0.228,2.056 1.281,3.619 1.281,3.619c0,0 1.145,-1.878 1.628,-3.766Z" style="fill:#4c4d00;"/><path d="M37.127,13.985c-1.375,0.109 -3.582,1.327 -3.697,2.218c-0.15,1.17 0.961,2.287 4.78,0.487c1.87,-0.883 3.008,-2.384 3.008,-2.384c0,0 -2.147,-0.476 -4.091,-0.321Z" style="fill:#4c4d00;"/><path d="M41.883,19.71c-0.578,-1.253 -2.484,-2.903 -3.36,-2.703c-1.149,0.264 -1.814,1.692 1.196,4.653c1.474,1.451 3.277,1.999 3.277,1.999c0,0 -0.296,-2.179 -1.113,-3.949Z" style="fill:#4c4d00;"/><path d="M17.297,55.814c1.246,-0.595 2.87,-2.523 2.657,-3.396c-0.279,-1.146 -1.716,-1.791 -4.636,1.259c-1.43,1.493 -1.955,3.303 -1.955,3.303c0,0 2.176,-0.325 3.934,-1.166Z" style="fill:#4c4d00;"/></g><g><path d="M28.803,81.586c-1.36,-0.235 -3.8,0.397 -4.132,1.232c-0.435,1.096 0.363,2.454 4.51,1.657c2.031,-0.391 3.505,-1.563 3.505,-1.563c0,0 -1.962,-0.994 -3.883,-1.326Z" style="fill:#43670d;"/><path d="M48.139,77.434c0.614,-1.236 0.707,-3.755 0.002,-4.312c-0.926,-0.731 -2.455,-0.354 -2.878,3.847c-0.207,2.057 0.494,3.806 0.494,3.806c0,0 1.514,-1.596 2.382,-3.341Z" style="fill:#43670d;"/><path d="M44.549,76.422c1.181,-0.714 2.609,-2.791 2.312,-3.639c-0.39,-1.114 -1.883,-1.615 -4.491,1.705c-1.278,1.627 -1.623,3.479 -1.623,3.479c0,0 2.134,-0.536 3.802,-1.545Z" style="fill:#43670d;"/><path d="M69.629,76.492c0.587,-1.25 0.623,-3.77 -0.094,-4.311c-0.942,-0.71 -2.463,-0.299 -2.792,3.91c-0.161,2.062 0.58,3.794 0.58,3.794c0,0 1.477,-1.629 2.306,-3.393Z" style="fill:#43670d;"/><path d="M81.686,51.614c-0.697,-1.191 -2.753,-2.649 -3.605,-2.364c-1.119,0.373 -1.642,1.859 1.64,4.515c1.608,1.301 3.454,1.673 3.454,1.673c0,0 -0.505,-2.141 -1.489,-3.824Z" style="fill:#43670d;"/><path d="M69.441,27.068c-1.376,-0.101 -3.743,0.767 -3.991,1.631c-0.326,1.133 0.602,2.406 4.65,1.207c1.983,-0.588 3.335,-1.899 3.335,-1.899c0,0 -2.05,-0.797 -3.994,-0.939Z" style="fill:#43670d;"/><path d="M44.188,15.542c-0.863,1.077 -1.489,3.519 -0.918,4.213c0.749,0.911 2.324,0.868 3.629,-3.147c0.64,-1.967 0.326,-3.825 0.326,-3.825c0,0 -1.818,1.238 -3.037,2.759Z" style="fill:#43670d;"/><path d="M18.944,26.112c0.399,1.322 2.056,3.221 2.952,3.143c1.175,-0.101 2.031,-1.423 -0.538,-4.774c-1.258,-1.641 -2.967,-2.435 -2.967,-2.435c0,0 -0.01,2.2 0.553,4.066Z" style="fill:#43670d;"/><path d="M65.61,27.043c-0.292,-1.349 -1.794,-3.374 -2.692,-3.368c-1.18,0.007 -2.139,1.257 0.155,4.801c1.124,1.736 2.764,2.664 2.764,2.664c0,0 0.185,-2.192 -0.227,-4.097Z" style="fill:#43670d;"/><path d="M65.61,27.043c-0.292,-1.349 -1.794,-3.374 -2.692,-3.368c-1.18,0.007 -2.139,1.257 0.155,4.801c1.124,1.736 2.764,2.664 2.764,2.664c0,0 0.185,-2.192 -0.227,-4.097Z" style="fill:#43670d;"/><path d="M13.921,53.836c1.067,-0.876 2.183,-3.136 1.767,-3.933c-0.545,-1.046 -2.094,-1.329 -4.2,2.331c-1.032,1.792 -1.109,3.674 -1.109,3.674c0,0 2.035,-0.835 3.542,-2.072Z" style="fill:#43670d;"/><path d="M27.15,37.54c-0.997,0.955 -1.939,3.293 -1.464,4.056c0.623,1.002 2.189,1.166 4.012,-2.643c0.892,-1.865 0.825,-3.748 0.825,-3.748c0,0 -1.965,0.988 -3.373,2.335Z" style="fill:#43670d;"/><path d="M24.821,42.992c1.367,0.191 3.786,-0.519 4.09,-1.365c0.4,-1.109 -0.442,-2.44 -4.56,-1.51c-2.017,0.456 -3.453,1.675 -3.453,1.675c0,0 1.993,0.93 3.923,1.2Z" style="fill:#43670d;"/><path d="M82.838,32.929c-0.262,-1.356 -1.717,-3.414 -2.616,-3.428c-1.179,-0.019 -2.166,1.209 0.048,4.804c1.085,1.761 2.704,2.724 2.704,2.724c0,0 0.234,-2.187 -0.136,-4.1Z" style="fill:#43670d;"/><path d="M77.677,38.291c1.181,-0.714 2.609,-2.791 2.312,-3.639c-0.389,-1.114 -1.883,-1.615 -4.491,1.705c-1.277,1.627 -1.622,3.479 -1.622,3.479c0,0 2.133,-0.536 3.801,-1.545Z" style="fill:#43670d;"/><path d="M39.063,17.872c0.73,1.171 2.827,2.571 3.671,2.263c1.107,-0.405 1.589,-1.905 -1.767,-4.468c-1.643,-1.255 -3.5,-1.575 -3.5,-1.575c0,0 0.565,2.126 1.596,3.78Z" style="fill:#43670d;"/></g><g><path d="M14.73,32.172c0.083,-1.378 -0.817,-3.732 -1.684,-3.969c-1.137,-0.311 -2.398,0.633 -1.144,4.665c0.613,1.975 1.943,3.31 1.943,3.31c0,0 0.769,-2.06 0.885,-4.006Z" style="fill:#66600d;"/><path d="M21.007,50.926c1.296,0.473 3.81,0.285 4.285,-0.477c0.624,-1.002 0.079,-2.48 -4.143,-2.433c-2.068,0.023 -3.728,0.914 -3.728,0.914c0,0 1.755,1.328 3.586,1.996Z" style="fill:#66600d;"/><path d="M21.613,47.246c0.841,1.094 3.064,2.282 3.874,1.893c1.063,-0.511 1.395,-2.051 -2.195,-4.274c-1.758,-1.088 -3.637,-1.225 -3.637,-1.225c0,0 0.77,2.06 1.958,3.606Z" style="fill:#66600d;"/><path d="M24.332,72.178c1.307,0.445 3.816,0.2 4.274,-0.573c0.601,-1.015 0.024,-2.48 -4.196,-2.339c-2.067,0.069 -3.707,0.998 -3.707,0.998c0,0 1.784,1.287 3.629,1.914Z" style="fill:#66600d;"/><path d="M50.396,81.395c1.107,-0.825 2.327,-3.031 1.949,-3.846c-0.495,-1.071 -2.03,-1.425 -4.305,2.132c-1.114,1.742 -1.278,3.619 -1.278,3.619c0,0 2.071,-0.74 3.634,-1.905Z" style="fill:#66600d;"/><path d="M73.429,66.496c-0.053,-1.379 -1.179,-3.634 -2.065,-3.785c-1.163,-0.198 -2.324,0.866 -0.682,4.756c0.804,1.905 2.258,3.103 2.258,3.103c0,0 0.564,-2.126 0.489,-4.074Z" style="fill:#66600d;"/><path d="M82.075,40.118c-1.166,-0.738 -3.663,-1.088 -4.289,-0.443c-0.822,0.846 -0.604,2.406 3.532,3.256c2.026,0.417 3.837,-0.101 3.837,-0.101c0,0 -1.433,-1.67 -3.08,-2.712Z" style="fill:#66600d;"/><path d="M68.764,16.206c-1.269,0.543 -2.972,2.402 -2.795,3.283c0.231,1.157 1.64,1.861 4.684,-1.065c1.491,-1.433 2.09,-3.219 2.09,-3.219c0,0 -2.187,0.234 -3.979,1.001Z" style="fill:#66600d;"/><path d="M73.028,62.686c1.308,-0.44 3.153,-2.158 3.048,-3.05c-0.139,-1.171 -1.487,-1.985 -4.755,0.689c-1.6,1.309 -2.34,3.042 -2.34,3.042c0,0 2.199,-0.059 4.047,-0.681Z" style="fill:#66600d;"/><path d="M73.028,62.686c1.308,-0.44 3.153,-2.158 3.048,-3.05c-0.139,-1.171 -1.487,-1.985 -4.755,0.689c-1.6,1.309 -2.34,3.042 -2.34,3.042c0,0 2.199,-0.059 4.047,-0.681Z" style="fill:#66600d;"/><path d="M40.654,14.296c0.989,0.963 3.359,1.821 4.105,1.32c0.979,-0.658 1.087,-2.229 -2.783,-3.916c-1.896,-0.826 -3.776,-0.692 -3.776,-0.692c0,0 1.057,1.929 2.454,3.288Z" style="fill:#66600d;"/><path d="M58.319,25.632c-1.059,-0.885 -3.488,-1.561 -4.193,-1.004c-0.926,0.73 -0.915,2.305 3.072,3.693c1.954,0.679 3.817,0.404 3.817,0.404c0,0 -1.2,-1.844 -2.696,-3.093Z" style="fill:#66600d;"/><path d="M52.642,23.924c-0.038,1.38 0.937,3.704 1.811,3.913c1.148,0.274 2.377,-0.711 0.994,-4.7c-0.677,-1.954 -2.049,-3.246 -2.049,-3.246c0,0 -0.702,2.084 -0.756,4.033Z" style="fill:#66600d;"/><path d="M69.094,80.462c1.318,-0.411 3.201,-2.086 3.116,-2.981c-0.113,-1.174 -1.443,-2.018 -4.769,0.582c-1.63,1.274 -2.407,2.99 -2.407,2.99c0,0 2.199,-0.011 4.06,-0.591Z" style="fill:#66600d;"/><path d="M63.191,75.929c0.841,1.095 3.064,2.283 3.874,1.893c1.063,-0.511 1.395,-2.05 -2.195,-4.273c-1.758,-1.089 -3.637,-1.226 -3.637,-1.226c0,0 0.77,2.061 1.958,3.606Z" style="fill:#66600d;"/><path d="M79.19,35.284c-1.083,0.856 -2.241,3.095 -1.841,3.9c0.526,1.056 2.07,1.367 4.244,-2.252c1.065,-1.773 1.176,-3.654 1.176,-3.654c0,0 -2.05,0.798 -3.579,2.006Z" style="fill:#66600d;"/></g><g><path d="M62.273,12.692c1.379,-0.071 3.619,-1.227 3.758,-2.114c0.182,-1.166 -0.897,-2.313 -4.764,-0.619c-1.895,0.829 -3.074,2.299 -3.074,2.299c0,0 2.134,0.535 4.08,0.434Z" style="fill:#ab1616;"/><path d="M44.333,21.015c-0.326,1.341 0.141,3.818 0.951,4.206c1.065,0.508 2.473,-0.197 1.957,-4.388c-0.253,-2.053 -1.323,-3.603 -1.323,-3.603c0,0 -1.124,1.891 -1.585,3.785Z" style="fill:#ab1616;"/><path d="M48.058,21.208c-0.994,0.958 -1.927,3.299 -1.45,4.061c0.626,0.999 2.193,1.158 4.003,-2.656c0.886,-1.869 0.813,-3.751 0.813,-3.751c0,0 -1.962,0.994 -3.366,2.346Z" style="fill:#ab1616;"/><path d="M23.583,26.683c-0.297,1.348 0.225,3.814 1.044,4.183c1.076,0.485 2.468,-0.252 1.858,-4.43c-0.298,-2.046 -1.403,-3.572 -1.403,-3.572c0,0 -1.081,1.915 -1.499,3.819Z" style="fill:#ab1616;"/><path d="M17.321,53.61c0.943,1.008 3.271,1.975 4.039,1.509c1.009,-0.611 1.191,-2.176 -2.597,-4.041c-1.856,-0.914 -3.739,-0.868 -3.739,-0.868c0,0 0.966,1.976 2.297,3.4Z" style="fill:#ab1616;"/><path d="M34.688,74.843c1.365,-0.205 3.481,-1.575 3.532,-2.472c0.068,-1.178 -1.118,-2.214 -4.801,-0.15c-1.804,1.011 -2.834,2.589 -2.834,2.589c0,0 2.176,0.324 4.103,0.033Z" style="fill:#ab1616;"/><path d="M61.864,80.503c0.604,-1.241 0.674,-3.761 -0.036,-4.312c-0.932,-0.722 -2.458,-0.332 -2.844,3.872c-0.189,2.06 0.528,3.802 0.528,3.802c0,0 1.5,-1.609 2.352,-3.362Z" style="fill:#ab1616;"/><path d="M84.148,64.616c-0.681,-1.201 -2.717,-2.686 -3.573,-2.413c-1.124,0.358 -1.667,1.837 1.579,4.537c1.59,1.322 3.431,1.719 3.431,1.719c0,0 -0.476,-2.147 -1.437,-3.843Z" style="fill:#ab1616;"/><path d="M38.43,74.021c0.583,1.251 2.495,2.894 3.37,2.69c1.149,-0.268 1.808,-1.699 -1.213,-4.649c-1.479,-1.444 -3.284,-1.987 -3.284,-1.987c0,0 0.304,2.179 1.127,3.946Z" style="fill:#ab1616;"/><path d="M38.43,74.021c0.583,1.251 2.495,2.894 3.37,2.69c1.149,-0.268 1.808,-1.699 -1.213,-4.649c-1.479,-1.444 -3.284,-1.987 -3.284,-1.987c0,0 0.304,2.179 1.127,3.946Z" style="fill:#ab1616;"/><path d="M82.92,36.468c-0.847,1.089 -1.436,3.54 -0.855,4.226c0.763,0.9 2.337,0.833 3.582,-3.201c0.611,-1.976 0.269,-3.829 0.269,-3.829c0,0 -1.8,1.265 -2.996,2.804Z" style="fill:#ab1616;"/><path d="M73.62,55.284c0.761,-1.151 1.162,-3.64 0.531,-4.279c-0.829,-0.839 -2.393,-0.653 -3.329,3.464c-0.458,2.017 0.023,3.838 0.023,3.838c0,0 1.699,-1.398 2.775,-3.023Z" style="fill:#ab1616;"/><path d="M74.685,49.452c-1.375,0.116 -3.576,1.343 -3.687,2.235c-0.145,1.171 0.971,2.283 4.782,0.465c1.866,-0.89 2.997,-2.397 2.997,-2.397c0,0 -2.149,-0.466 -4.092,-0.303Z" style="fill:#ab1616;"/><path d="M20.327,72.088c0.555,1.264 2.429,2.949 3.309,2.765c1.154,-0.242 1.845,-1.658 -1.109,-4.675c-1.447,-1.477 -3.238,-2.06 -3.238,-2.06c0,0 0.255,2.185 1.038,3.97Z" style="fill:#ab1616;"/><path d="M24.175,65.717c-0.994,0.958 -1.927,3.3 -1.45,4.061c0.626,1 2.193,1.159 4.003,-2.656c0.886,-1.868 0.813,-3.751 0.813,-3.751c0,0 -1.962,0.994 -3.366,2.346Z" style="fill:#ab1616;"/><path d="M66.347,77.098c-0.971,-0.981 -3.325,-1.883 -4.08,-1.395c-0.991,0.639 -1.129,2.208 2.71,3.967c1.88,0.861 3.762,0.762 3.762,0.762c0,0 -1.021,-1.948 -2.392,-3.334Z" style="fill:#ab1616;"/></g><g><path d="M86.918,57.775c0.224,1.362 1.622,3.459 2.52,3.499c1.178,0.052 2.199,-1.148 0.085,-4.803c-1.035,-1.791 -2.626,-2.799 -2.626,-2.799c0,0 -0.295,2.18 0.021,4.103Z" style="fill:#915413;"/><path d="M76.653,40.871c-1.369,-0.175 -3.779,0.564 -4.074,1.413c-0.387,1.114 0.47,2.436 4.578,1.457c2.011,-0.48 3.433,-1.716 3.433,-1.716c0,0 -2.004,-0.906 -3.937,-1.154Z" style="fill:#915413;"/><path d="M76.875,44.595c-1.062,-0.882 -3.493,-1.549 -4.197,-0.991c-0.924,0.734 -0.908,2.309 3.085,3.683c1.955,0.674 3.818,0.392 3.818,0.392c0,0 -1.206,-1.84 -2.706,-3.084Z" style="fill:#915413;"/><path d="M68.713,20.879c-1.373,-0.144 -3.766,0.649 -4.042,1.504c-0.362,1.123 0.525,2.424 4.61,1.354c2,-0.524 3.394,-1.792 3.394,-1.792c0,0 -2.024,-0.861 -3.962,-1.066Z" style="fill:#915413;"/><path d="M41.257,17.651c-0.897,1.049 -1.6,3.47 -1.051,4.182c0.72,0.934 2.295,0.941 3.727,-3.031c0.701,-1.946 0.447,-3.812 0.447,-3.812c0,0 -1.857,1.179 -3.123,2.661Z" style="fill:#915413;"/><path d="M22.085,37.271c0.357,1.333 1.954,3.284 2.851,3.235c1.178,-0.064 2.076,-1.358 -0.386,-4.788c-1.205,-1.681 -2.888,-2.529 -2.888,-2.529c0,0 -0.08,2.199 0.423,4.082Z" style="fill:#915413;"/><path d="M19.482,64.908c1.301,0.461 3.813,0.251 4.281,-0.516c0.615,-1.006 0.058,-2.48 -4.164,-2.395c-2.067,0.041 -3.719,0.947 -3.719,0.947c0,0 1.766,1.311 3.602,1.964Z" style="fill:#915413;"/><path d="M37.749,85.287c1.117,-0.81 2.367,-2.999 2.001,-3.82c-0.482,-1.077 -2.011,-1.452 -4.334,2.074c-1.137,1.727 -1.327,3.602 -1.327,3.602c0,0 2.081,-0.712 3.66,-1.856Z" style="fill:#915413;"/><path d="M23.319,40.898c-1.178,0.719 -2.599,2.801 -2.299,3.648c0.394,1.112 1.889,1.608 4.485,-1.722c1.272,-1.631 1.61,-3.484 1.61,-3.484c0,0 -2.132,0.544 -3.796,1.558Z" style="fill:#915413;"/><path d="M23.319,40.898c-1.178,0.719 -2.599,2.801 -2.299,3.648c0.394,1.112 1.889,1.608 4.485,-1.722c1.272,-1.631 1.61,-3.484 1.61,-3.484c0,0 -2.132,0.544 -3.796,1.558Z" style="fill:#915413;"/><path d="M65.586,80.937c-1.177,-0.72 -3.679,-1.033 -4.295,-0.38c-0.81,0.858 -0.568,2.415 3.58,3.204c2.031,0.387 3.834,-0.158 3.834,-0.158c0,0 -1.457,-1.648 -3.119,-2.666Z" style="fill:#915413;"/><path d="M45.852,73.786c1.229,0.629 3.747,0.751 4.312,0.052c0.742,-0.917 0.383,-2.45 -3.813,-2.922c-2.055,-0.231 -3.812,0.449 -3.812,0.449c0,0 1.578,1.533 3.313,2.421Z" style="fill:#915413;"/><path d="M51.766,74.197c-0.267,-1.354 -1.732,-3.405 -2.631,-3.416c-1.179,-0.014 -2.16,1.219 0.07,4.804c1.092,1.756 2.715,2.712 2.715,2.712c0,0 0.225,-2.188 -0.154,-4.1Z" style="fill:#915413;"/><path d="M23.227,22.692c-1.194,0.692 -2.661,2.743 -2.38,3.596c0.369,1.12 1.853,1.65 4.522,-1.621c1.308,-1.603 1.688,-3.448 1.688,-3.448c0,0 -2.143,0.496 -3.83,1.473Z" style="fill:#915413;"/><path d="M29.986,25.809c-1.062,-0.882 -3.493,-1.549 -4.197,-0.991c-0.923,0.734 -0.907,2.309 3.085,3.683c1.955,0.674 3.818,0.392 3.818,0.392c0,0 -1.206,-1.84 -2.706,-3.084Z" style="fill:#915413;"/><path d="M23.364,68.984c0.868,-1.074 1.502,-3.513 0.934,-4.209c-0.746,-0.914 -2.321,-0.877 -3.641,3.134c-0.647,1.964 -0.34,3.823 -0.34,3.823c0,0 1.823,-1.231 3.047,-2.748Z" style="fill:#915413;"/></g><g><path d="M82.252,69.311c-0.247,1.358 0.364,3.804 1.196,4.143c1.093,0.445 2.457,-0.342 1.695,-4.495c-0.373,-2.034 -1.532,-3.519 -1.532,-3.519c0,0 -1.011,1.954 -1.359,3.871Z" style="fill:#553e0b;"/><path d="M78.265,49.941c-1.23,-0.625 -3.748,-0.739 -4.311,-0.039c-0.739,0.919 -0.376,2.452 3.821,2.911c2.056,0.225 3.811,-0.462 3.811,-0.462c0,0 -1.583,-1.527 -3.321,-2.41Z" style="fill:#553e0b;"/><path d="M77.223,53.522c-0.704,-1.187 -2.769,-2.633 -3.62,-2.343c-1.116,0.38 -1.63,1.869 1.667,4.505c1.616,1.292 3.465,1.652 3.465,1.652c0,0 -0.518,-2.137 -1.512,-3.814Z" style="fill:#553e0b;"/><path d="M77.507,28.443c-1.244,-0.597 -3.764,-0.655 -4.311,0.058c-0.718,0.935 -0.32,2.46 3.886,2.824c2.06,0.179 3.799,-0.546 3.799,-0.546c0,0 -1.616,-1.492 -3.374,-2.336Z" style="fill:#553e0b;"/><path d="M52.734,16.173c-1.197,0.687 -2.672,2.731 -2.395,3.586c0.364,1.122 1.845,1.657 4.529,-1.602c1.315,-1.596 1.702,-3.44 1.702,-3.44c0,0 -2.145,0.487 -3.836,1.456Z" style="fill:#553e0b;"/><path d="M28.084,28.208c-0.113,1.375 0.735,3.749 1.596,4.005c1.131,0.336 2.412,-0.581 1.247,-4.64c-0.57,-1.988 -1.87,-3.352 -1.87,-3.352c0,0 -0.814,2.044 -0.973,3.987Z" style="fill:#553e0b;"/><path d="M16.342,53.361c1.07,0.872 3.506,1.519 4.205,0.954c0.918,-0.742 0.888,-2.317 -3.116,-3.656c-1.961,-0.656 -3.822,-0.358 -3.822,-0.358c0,0 1.223,1.828 2.733,3.06Z" style="fill:#553e0b;"/><path d="M26.695,78.695c1.325,-0.388 3.238,-2.029 3.169,-2.925c-0.091,-1.176 -1.406,-2.044 -4.779,0.496c-1.652,1.245 -2.46,2.946 -2.46,2.946c0,0 2.199,0.029 4.07,-0.517Z" style="fill:#553e0b;"/><path d="M28.026,32.039c-1.351,0.28 -3.389,1.764 -3.391,2.663c-0.003,1.179 1.238,2.149 4.803,-0.115c1.745,-1.109 2.687,-2.74 2.687,-2.74c0,0 -2.19,-0.205 -4.099,0.192Z" style="fill:#553e0b;"/><path d="M28.026,32.039c-1.351,0.28 -3.389,1.764 -3.391,2.663c-0.003,1.179 1.238,2.149 4.803,-0.115c1.745,-1.109 2.687,-2.74 2.687,-2.74c0,0 -2.19,-0.205 -4.099,0.192Z" style="fill:#553e0b;"/><path d="M54.375,83.955c-0.867,-1.074 -3.117,-2.209 -3.918,-1.801c-1.05,0.536 -1.346,2.083 2.295,4.221c1.783,1.047 3.665,1.139 3.665,1.139c0,0 -0.818,-2.041 -2.042,-3.559Z" style="fill:#553e0b;"/><path d="M38.193,70.587c0.946,1.005 3.276,1.967 4.043,1.499c1.007,-0.615 1.185,-2.18 -2.608,-4.035c-1.858,-0.908 -3.741,-0.857 -3.741,-0.857c0,0 0.971,1.973 2.306,3.393Z" style="fill:#553e0b;"/><path d="M43.625,72.962c0.203,-1.365 -0.487,-3.79 -1.33,-4.101c-1.106,-0.41 -2.444,0.421 -1.549,4.547c0.439,2.021 1.646,3.468 1.646,3.468c0,0 0.947,-1.986 1.233,-3.914Z" style="fill:#553e0b;"/><path d="M34.059,14.861c-1.357,0.25 -3.428,1.688 -3.45,2.587c-0.029,1.179 1.19,2.176 4.804,-0.007c1.77,-1.07 2.748,-2.68 2.748,-2.68c0,0 -2.185,-0.253 -4.102,0.1Z" style="fill:#553e0b;"/><path d="M39.377,20.068c-0.704,-1.187 -2.769,-2.633 -3.619,-2.343c-1.117,0.38 -1.631,1.869 1.667,4.505c1.615,1.292 3.464,1.652 3.464,1.652c0,0 -0.517,-2.137 -1.512,-3.814Z" style="fill:#553e0b;"/><path d="M18.628,58.506c1.178,-0.72 2.595,-2.805 2.294,-3.651c-0.395,-1.112 -1.891,-1.606 -4.482,1.727c-1.27,1.633 -1.606,3.487 -1.606,3.487c0,0 2.131,-0.547 3.794,-1.563Z" style="fill:#553e0b;"/></g><g><path d="M13.355,62.48c-0.934,-1.016 -3.254,-2.002 -4.026,-1.542c-1.014,0.603 -1.208,2.166 2.564,4.062c1.848,0.928 3.732,0.898 3.732,0.898c0,0 -0.95,-1.984 -2.27,-3.418Z" style="fill:#66560d;"/><path d="M31.213,70.977c1.241,-0.605 2.85,-2.545 2.631,-3.417c-0.288,-1.144 -1.73,-1.777 -4.627,1.295c-1.418,1.505 -1.929,3.318 -1.929,3.318c0,0 2.173,-0.342 3.925,-1.196Z" style="fill:#66560d;"/><path d="M28.984,67.986c1.372,0.154 3.77,-0.622 4.052,-1.475c0.37,-1.12 -0.508,-2.428 -4.6,-1.386c-2.004,0.51 -3.406,1.768 -3.406,1.768c0,0 2.017,0.876 3.954,1.093Z" style="fill:#66560d;"/><path d="M48.822,83.332c1.227,-0.632 2.792,-2.608 2.553,-3.474c-0.313,-1.138 -1.769,-1.739 -4.596,1.397c-1.385,1.536 -1.854,3.361 -1.854,3.361c0,0 2.165,-0.391 3.897,-1.284Z" style="fill:#66560d;"/><path d="M73.546,70.964c0.174,-1.369 -0.567,-3.779 -1.416,-4.073c-1.115,-0.386 -2.435,0.473 -1.453,4.579c0.481,2.012 1.719,3.432 1.719,3.432c0,0 0.905,-2.005 1.15,-3.938Z" style="fill:#66560d;"/><path d="M78.805,44.041c-1.029,-0.919 -3.434,-1.673 -4.158,-1.14c-0.949,0.7 -0.99,2.274 2.95,3.791c1.93,0.744 3.802,0.529 3.802,0.529c0,0 -1.139,-1.882 -2.594,-3.18Z" style="fill:#66560d;"/><path d="M65.815,19.51c-1.341,0.327 -3.325,1.882 -3.296,2.78c0.038,1.179 1.313,2.104 4.796,-0.283c1.706,-1.169 2.589,-2.833 2.589,-2.833c0,0 -2.196,-0.127 -4.089,0.336Z" style="fill:#66560d;"/><path d="M39.361,12.498c-0.49,1.29 -0.333,3.806 0.423,4.29c0.994,0.637 2.478,0.111 2.485,-4.111c0.003,-2.068 -0.867,-3.739 -0.867,-3.739c0,0 -1.349,1.737 -2.041,3.56Z" style="fill:#66560d;"/><path d="M75.783,41.686c0.591,-1.247 0.636,-3.768 -0.08,-4.311c-0.939,-0.714 -2.461,-0.308 -2.804,3.901c-0.168,2.061 0.567,3.796 0.567,3.796c0,0 1.483,-1.625 2.317,-3.386Z" style="fill:#66560d;"/><path d="M75.783,41.686c0.591,-1.247 0.636,-3.768 -0.08,-4.311c-0.939,-0.714 -2.461,-0.308 -2.804,3.901c-0.168,2.061 0.567,3.796 0.567,3.796c0,0 1.483,-1.625 2.317,-3.386Z" style="fill:#66560d;"/><path d="M18.477,31.41c1.38,-0.043 3.642,-1.155 3.799,-2.039c0.206,-1.162 -0.85,-2.331 -4.751,-0.714c-1.91,0.791 -3.118,2.237 -3.118,2.237c0,0 2.122,0.578 4.07,0.516Z" style="fill:#66560d;"/><path d="M38.898,26.559c-1.372,0.148 -3.544,1.428 -3.633,2.322c-0.117,1.174 1.025,2.259 4.791,0.351c1.845,-0.935 2.94,-2.468 2.94,-2.468c0,0 -2.16,-0.415 -4.098,-0.205Z" style="fill:#66560d;"/><path d="M33.729,29.461c0.966,0.985 3.317,1.896 4.074,1.412c0.993,-0.636 1.137,-2.205 -2.694,-3.978c-1.877,-0.868 -3.759,-0.778 -3.759,-0.778c0,0 1.013,1.953 2.379,3.344Z" style="fill:#66560d;"/><path d="M85.851,56.855c0.619,-1.234 0.72,-3.753 0.017,-4.312c-0.924,-0.734 -2.454,-0.362 -2.891,3.837c-0.214,2.057 0.482,3.808 0.482,3.808c0,0 1.519,-1.591 2.392,-3.333Z" style="fill:#66560d;"/><path d="M78.491,57.959c1.372,0.154 3.77,-0.622 4.052,-1.475c0.37,-1.12 -0.508,-2.428 -4.6,-1.386c-2.004,0.51 -3.407,1.768 -3.407,1.768c0,0 2.018,0.876 3.955,1.093Z" style="fill:#66560d;"/><path d="M60.332,18.232c-0.135,1.373 0.673,3.761 1.53,4.031c1.125,0.355 2.421,-0.541 1.324,-4.618c-0.537,-1.997 -1.814,-3.382 -1.814,-3.382c0,0 -0.848,2.029 -1.04,3.969Z" style="fill:#66560d;"/></g><g><path d="M67.026,14.455c1.377,0.099 3.743,-0.772 3.99,-1.636c0.325,-1.134 -0.605,-2.405 -4.651,-1.201c-1.983,0.59 -3.334,1.902 -3.334,1.902c0,0 2.051,0.795 3.995,0.935Z" style="fill:#38660d;"/><path d="M48.197,20.503c-0.489,1.29 -0.331,3.806 0.426,4.29c0.993,0.636 2.478,0.11 2.482,-4.112c0.002,-2.069 -0.869,-3.739 -0.869,-3.739c0,0 -1.348,1.738 -2.039,3.561Z" style="fill:#38660d;"/><path d="M51.87,21.154c-1.105,0.827 -2.32,3.036 -1.94,3.85c0.498,1.069 2.034,1.42 4.3,-2.142c1.11,-1.745 1.269,-3.622 1.269,-3.622c0,0 -2.069,0.745 -3.629,1.914Z" style="fill:#38660d;"/><path d="M26.906,23.57c-0.46,1.301 -0.246,3.813 0.521,4.28c1.008,0.613 2.48,0.054 2.39,-4.168c-0.044,-2.067 -0.952,-3.718 -0.952,-3.718c0,0 -1.309,1.768 -1.959,3.606Z" style="fill:#38660d;"/><path d="M17.374,49.519c0.811,1.117 3.002,2.364 3.822,1.996c1.076,-0.483 1.449,-2.013 -2.08,-4.331c-1.729,-1.135 -3.603,-1.322 -3.603,-1.322c0,0 0.714,2.081 1.861,3.657Z" style="fill:#38660d;"/><path d="M31.991,72.732c1.379,-0.036 3.648,-1.135 3.81,-2.019c0.212,-1.16 -0.838,-2.335 -4.747,-0.74c-1.915,0.781 -3.131,2.22 -3.131,2.22c0,0 2.119,0.59 4.068,0.539Z" style="fill:#38660d;"/><path d="M58.262,81.698c0.752,-1.157 1.132,-3.649 0.495,-4.283c-0.836,-0.832 -2.398,-0.633 -3.299,3.492c-0.442,2.02 0.055,3.837 0.055,3.837c0,0 1.687,-1.412 2.749,-3.046Z" style="fill:#38660d;"/><path d="M82.334,68.679c-0.528,-1.276 -2.366,-3.001 -3.249,-2.836c-1.159,0.218 -1.88,1.618 1.008,4.698c1.415,1.508 3.194,2.129 3.194,2.129c0,0 -0.208,-2.19 -0.953,-3.991Z" style="fill:#38660d;"/><path d="M35.806,72.377c0.424,1.313 2.119,3.179 3.012,3.085c1.173,-0.125 2.003,-1.463 -0.631,-4.763c-1.29,-1.616 -3.013,-2.377 -3.013,-2.377c0,0 0.032,2.2 0.632,4.055Z" style="fill:#38660d;"/><path d="M35.806,72.377c0.424,1.313 2.119,3.179 3.012,3.085c1.173,-0.125 2.003,-1.463 -0.631,-4.763c-1.29,-1.616 -3.013,-2.377 -3.013,-2.377c0,0 0.032,2.2 0.632,4.055Z" style="fill:#38660d;"/><path d="M84.585,40.594c-0.975,0.977 -1.861,3.337 -1.369,4.088c0.646,0.987 2.216,1.115 3.949,-2.735c0.849,-1.886 0.739,-3.766 0.739,-3.766c0,0 -1.942,1.033 -3.319,2.413Z" style="fill:#38660d;"/><path d="M73.036,58.12c0.898,-1.048 1.603,-3.469 1.055,-4.181c-0.719,-0.935 -2.295,-0.943 -3.73,3.028c-0.704,1.944 -0.451,3.811 -0.451,3.811c0,0 1.858,-1.178 3.126,-2.658Z" style="fill:#38660d;"/><path d="M74.813,52.464c-1.379,-0.055 -3.716,0.892 -3.935,1.764c-0.288,1.143 0.682,2.385 4.688,1.05c1.962,-0.653 3.27,-2.009 3.27,-2.009c0,0 -2.076,-0.728 -4.023,-0.805Z" style="fill:#38660d;"/><path d="M18.079,68.227c0.394,1.323 2.047,3.226 2.942,3.152c1.176,-0.098 2.036,-1.418 -0.524,-4.776c-1.253,-1.645 -2.959,-2.443 -2.959,-2.443c0,0 -0.017,2.199 0.541,4.067Z" style="fill:#38660d;"/><path d="M22.683,62.38c-1.105,0.827 -2.32,3.036 -1.94,3.85c0.498,1.069 2.033,1.42 4.3,-2.142c1.11,-1.745 1.269,-3.622 1.269,-3.622c0,0 -2.069,0.745 -3.629,1.914Z" style="fill:#38660d;"/><path d="M63.13,78.872c-0.842,-1.093 -3.067,-2.279 -3.876,-1.888c-1.063,0.512 -1.393,2.053 2.2,4.271c1.76,1.086 3.639,1.22 3.639,1.22c0,0 -0.773,-2.059 -1.963,-3.603Z" style="fill:#38660d;"/></g><g><path d="M51.212,88.526c-1.245,0.594 -2.871,2.521 -2.659,3.394c0.279,1.146 1.715,1.792 4.637,-1.256c1.432,-1.492 1.957,-3.302 1.957,-3.302c0,0 -2.176,0.324 -3.935,1.164Z" style="fill:#748811;"/><path d="M64.588,73.959c-0.213,-1.364 -1.594,-3.473 -2.491,-3.52c-1.178,-0.061 -2.208,1.131 -0.124,4.803c1.02,1.799 2.603,2.82 2.603,2.82c0,0 0.313,-2.178 0.012,-4.103Z" style="fill:#748811;"/><path d="M61.074,75.209c0.551,-1.266 0.515,-3.786 -0.218,-4.307c-0.961,-0.683 -2.47,-0.228 -2.678,3.989c-0.102,2.065 0.688,3.776 0.688,3.776c0,0 1.43,-1.671 2.208,-3.458Z" style="fill:#748811;"/><path d="M81.578,60.765c-0.244,-1.358 -1.671,-3.436 -2.569,-3.463c-1.18,-0.034 -2.183,1.18 -0.017,4.805c1.06,1.775 2.666,2.761 2.666,2.761c0,0 0.264,-2.184 -0.08,-4.103Z" style="fill:#748811;"/><path d="M77.032,33.496c-1.257,-0.569 -3.778,-0.57 -4.309,0.155c-0.696,0.952 -0.264,2.467 3.949,2.736c2.064,0.132 3.786,-0.632 3.786,-0.632c0,0 -1.65,-1.455 -3.426,-2.259Z" style="fill:#748811;"/><path d="M52.85,20.548c-1.182,0.713 -2.61,2.79 -2.314,3.638c0.389,1.113 1.882,1.616 4.492,-1.704c1.278,-1.626 1.624,-3.478 1.624,-3.478c0,0 -2.134,0.536 -3.802,1.544Z" style="fill:#748811;"/><path d="M25.581,25.744c-0.081,1.378 0.821,3.732 1.687,3.968c1.139,0.31 2.398,-0.635 1.142,-4.666c-0.616,-1.975 -1.946,-3.309 -1.946,-3.309c0,0 -0.768,2.061 -0.883,4.007Z" style="fill:#748811;"/><path d="M11.095,48.963c1.09,0.848 3.54,1.439 4.226,0.858c0.9,-0.762 0.835,-2.336 -3.198,-3.584c-1.976,-0.612 -3.829,-0.272 -3.829,-0.272c0,0 1.263,1.801 2.801,2.998Z" style="fill:#748811;"/><path d="M49.709,22.742c-1.018,-0.931 -3.414,-1.715 -4.144,-1.191c-0.958,0.688 -1.018,2.262 2.903,3.827c1.921,0.767 3.795,0.576 3.795,0.576c0,0 -1.116,-1.896 -2.554,-3.212Z" style="fill:#748811;"/><path d="M49.709,22.742c-1.018,-0.931 -3.414,-1.715 -4.144,-1.191c-0.958,0.688 -1.018,2.262 2.903,3.827c1.921,0.767 3.795,0.576 3.795,0.576c0,0 -1.116,-1.896 -2.554,-3.212Z" style="fill:#748811;"/><path d="M23.025,74.488c0.365,-1.331 -0.032,-3.821 -0.831,-4.231c-1.049,-0.538 -2.477,0.127 -2.08,4.33c0.194,2.059 1.22,3.639 1.22,3.639c0,0 1.177,-1.858 1.691,-3.738Z" style="fill:#748811;"/><path d="M24.398,53.544c-0.262,1.355 0.322,3.807 1.15,4.155c1.088,0.457 2.461,-0.315 1.746,-4.476c-0.351,-2.038 -1.494,-3.536 -1.494,-3.536c0,0 -1.032,1.943 -1.402,3.857Z" style="fill:#748811;"/><path d="M25.65,59.338c1.226,-0.634 2.788,-2.612 2.548,-3.478c-0.315,-1.137 -1.772,-1.736 -4.594,1.404c-1.382,1.538 -1.849,3.364 -1.849,3.364c0,0 2.164,-0.394 3.895,-1.29Z" style="fill:#748811;"/><path d="M67.169,17.584c-0.997,-0.954 -3.374,-1.792 -4.116,-1.284c-0.973,0.666 -1.068,2.238 2.817,3.891c1.903,0.81 3.781,0.661 3.781,0.661c0,0 -1.074,-1.92 -2.482,-3.268Z" style="fill:#748811;"/><path d="M66.059,24.943c0.551,-1.265 0.515,-3.786 -0.218,-4.306c-0.962,-0.683 -2.47,-0.229 -2.678,3.988c-0.102,2.066 0.687,3.776 0.687,3.776c0,0 1.431,-1.67 2.209,-3.458Z" style="fill:#748811;"/><path d="M22.747,30.608c1.273,0.534 3.793,0.464 4.303,-0.276c0.67,-0.971 0.196,-2.473 -4.024,-2.624c-2.067,-0.074 -3.766,0.738 -3.766,0.738c0,0 1.69,1.408 3.487,2.162Z" style="fill:#748811;"/></g><g><path d="M53.103,30.88c0.426,-0.375 1.447,-1.487 1.766,-3.731c0.415,-2.916 -2.493,-6.058 -2.493,-6.058c0,0 5.665,3.208 6.355,5.388c0.39,1.233 0.694,5.984 0.76,7.075c5.21,3.409 8.655,9.296 8.655,15.982c0,3.971 -1.215,7.66 -3.294,10.716c0.692,0.693 4.284,4.34 4.986,6.077c0.819,2.03 -1.082,7.524 -1.516,7.852c-0.434,0.328 -1.099,-5.651 -2.233,-7.296c-0.9,-1.306 -3.491,-2.903 -4.132,-3.286c-3.397,3.118 -7.926,5.022 -12.896,5.022c-8.503,0 -15.715,-5.573 -18.179,-13.263c-0.691,0.076 -5.528,0.568 -7.636,-0.205c-2.399,-0.879 -2.869,-6.241 -2.814,-6.873c0.056,-0.632 2.721,3.587 5.032,3.892c1.826,0.242 4.009,-1.125 4.547,-1.484c-0.023,-0.381 -0.035,-0.765 -0.035,-1.152c0,-10.534 8.552,-19.085 19.085,-19.085c1.387,0 2.739,0.148 4.042,0.429Z" style="fill:#4c2709;stroke:#000;stroke-width:0.71px;"/><circle cx="49.061" cy="49.536" r="16.674" style="fill:#6b370d;"/><circle cx="49.061" cy="49.536" r="13.042" style="fill:#804210;"/><circle cx="49.061" cy="49.536" r="6.605" style="fill:#9f5214;"/></g></svg>