<svg width="100px" height="100px" viewBox="0 0 100 100" version="1.1" xmlns="http://www.w3.org/2000/svg" xml:space="preserve" style="fill-rule:evenodd;clip-rule:evenodd;stroke-linejoin:round;stroke-miterlimit:2;"><g id="svg_rdy"><path d="M68.239,40.937C70.739,41.348 73.118,42.304 75.208,43.736C77.012,44.971 78.602,46.493 79.913,48.243C81.229,49.98 82.242,51.926 82.911,54C83.706,56.41 83.95,58.968 83.625,61.485C81.125,61.078 78.745,60.122 76.657,58.686C73.028,56.204 70.325,52.585 68.974,48.402C68.179,45.999 67.928,43.449 68.239,40.937Z" style="fill-rule:nonzero;"/><path d="M66.651,58.864C66.761,56.16 67.437,53.509 68.636,51.082C69.702,48.945 71.088,46.984 72.746,45.265C74.389,43.527 76.291,42.053 78.384,40.897C80.752,39.579 83.369,38.768 86.067,38.515C85.969,41.227 85.292,43.888 84.082,46.317C81.926,50.613 78.521,54.157 74.314,56.482C71.951,57.794 69.342,58.605 66.651,58.864Z" style="fill-rule:nonzero;"/></g></svg>
