<svg width="100px" height="100px" viewBox="0 0 100 100" version="1.1" xmlns="http://www.w3.org/2000/svg" xmlns:xlink="http://www.w3.org/1999/xlink" xml:space="preserve" xmlns:serif="http://www.serif.com/" style="fill-rule:evenodd;clip-rule:evenodd;stroke-linejoin:round;stroke-miterlimit:1.41421;"><g><path d="M37.298,83.876c4.286,5.521 -32.818,16.152 -25.429,5.851c1.438,-2.003 20.09,-12.728 25.429,-5.851Z" style="fill:#575757;"/><path d="M64.087,53.508c1.58,-6.809 33.236,15.273 20.582,16.038c-2.461,0.149 -22.55,-7.557 -20.582,-16.038Z" style="fill:#575757;"/><path d="M66.028,8.938c4.221,2.175 -15.595,19.349 -13.992,10.887c0.312,-1.646 8.733,-13.595 13.992,-10.887Z" style="fill:#575757;"/><path d="M98.076,52.96c1.961,3.685 -20.958,6.169 -15.561,0.858c1.049,-1.033 13.118,-5.449 15.561,-0.858Z" style="fill:#575757;"/><path d="M49.377,55.025c5.469,4.351 -28.071,23.452 -23.325,11.697c0.923,-2.287 16.511,-17.118 23.325,-11.697Z" style="fill:#575757;"/><path d="M2.506,75.216c-0.173,-6.071 21.387,7.499 9.85,9.618c-2.244,0.412 -9.635,-2.055 -9.85,-9.618Z" style="fill:#575757;"/><path d="M62.431,23.381c5.557,2.452 -15.959,16.092 -12.916,4.763c0.592,-2.203 5.994,-7.817 12.916,-4.763Z" style="fill:#575757;"/><path d="M70.854,13.734c4.851,-3.654 6.26,21.783 -2.144,13.599c-1.635,-1.592 -3.9,-9.047 2.144,-13.599Z" style="fill:#575757;"/><path d="M19.648,41.215c-4.524,-2.126 15.561,-15.266 11.677,-4.724c-0.756,2.051 -6.042,7.372 -11.677,4.724Z" style="fill:#575757;"/><path d="M79.318,85.966c-4.601,3.964 -7.675,-21.325 1.248,-13.71c1.735,1.481 4.484,8.771 -1.248,13.71Z" style="fill:#575757;"/><path d="M51.505,98.306c-5.309,0.56 5.135,-19.251 7.768,-9.28c0.512,1.939 -1.153,8.583 -7.768,9.28Z" style="fill:#575757;"/><path d="M28.522,17.28c-4.117,-2.255 13.351,-11.337 10.26,-2.815c-0.601,1.658 -5.132,5.624 -10.26,2.815Z" style="fill:#575757;"/><path d="M42.112,13.566c-1.845,-3.691 15.324,-1.505 8.822,3.105c-1.264,0.896 -6.524,1.493 -8.822,-3.105Z" style="fill:#575757;"/><path d="M78.479,44.325c0.516,-3.591 11.825,6.588 4.819,6.662c-1.362,0.015 -5.461,-2.189 -4.819,-6.662Z" style="fill:#575757;"/><path d="M95.098,75.108c3.061,2.097 -11.392,7.867 -8.291,1.407c0.604,-1.256 4.479,-4.019 8.291,-1.407Z" style="fill:#575757;"/><path d="M13.523,54.835c-1.603,-5.858 22.554,2.23 11.844,7.016c-2.083,0.931 -9.847,0.282 -11.844,-7.016Z" style="fill:#575757;"/><path d="M61.275,44.823c2.797,-0.508 2.448,7.073 0.477,11.236c-2.241,4.732 -6.466,5.847 -8.503,-0.051c-0.446,-1.291 0.574,-3.341 2.481,-6.048c1.279,-1.814 2.557,-4.595 5.545,-5.137Z" style="fill:#575757;"/><path d="M72.217,8.532c-0.132,1.927 -5.067,0.435 -7.481,-1.557c-2.744,-2.264 -2.775,-5.232 1.45,-5.592c0.925,-0.079 2.105,0.935 3.57,2.642c0.982,1.144 2.601,2.449 2.461,4.507Z" style="fill:#575757;"/><path d="M73.625,92.196c-0.737,-1.572 3.794,-2.552 6.56,-2.038c3.145,0.583 4.464,2.903 1.3,5.029c-0.693,0.465 -2.063,0.183 -3.959,-0.52c-1.272,-0.471 -3.114,-0.791 -3.901,-2.471Z" style="fill:#575757;"/><path d="M60.453,75.71c-0.744,2.744 -7.44,-0.827 -10.352,-4.396c-3.311,-4.057 -2.502,-8.35 3.7,-7.657c1.357,0.152 2.77,1.955 4.394,4.839c1.089,1.934 3.052,4.283 2.258,7.214Z" style="fill:#575757;"/><path d="M43.012,81.448c-1.912,1.61 -4.961,-4.324 -5.278,-8.361c-0.36,-4.589 2.375,-7.286 6.508,-3.679c0.905,0.79 1.022,2.8 0.752,5.698c-0.182,1.942 0.059,4.622 -1.982,6.342Z" style="fill:#575757;"/><path d="M8.043,37.239c-2.187,0.206 -1.418,-5.609 0.375,-8.684c2.038,-3.496 5.364,-4.075 6.544,0.601c0.258,1.024 -0.663,2.535 -2.31,4.493c-1.105,1.312 -2.272,3.369 -4.609,3.59Z" style="fill:#575757;"/><path d="M88.29,39.361c-0.742,-1.527 3.674,-2.547 6.386,-2.084c3.082,0.527 4.404,2.777 1.339,4.899c-0.67,0.465 -2.014,0.208 -3.877,-0.453c-1.25,-0.444 -3.055,-0.731 -3.848,-2.362Z" style="fill:#575757;"/><path d="M91.992,87.852c1.737,0.01 0.675,4.522 -0.977,6.8c-1.878,2.589 -4.539,2.783 -5.1,-0.987c-0.122,-0.826 0.721,-1.942 2.171,-3.352c0.971,-0.946 2.051,-2.472 3.906,-2.461Z" style="fill:#575757;"/><path d="M30.888,42.205c-2.158,-1.85 3.944,-6.363 8.418,-7.459c5.085,-1.247 8.615,1.328 5.324,6.63c-0.72,1.16 -2.955,1.662 -6.258,1.89c-2.214,0.152 -5.178,0.915 -7.484,-1.061Z" style="fill:#575757;"/><path d="M71.896,50.452c-2.668,0.982 -3.63,-6.546 -2.405,-10.987c1.393,-5.047 5.363,-6.872 8.386,-1.413c0.661,1.195 0.009,3.39 -1.404,6.385c-0.947,2.007 -1.727,4.967 -4.577,6.015Z" style="fill:#575757;"/><path d="M48.962,23.035c1.658,1.655 -4.11,5.977 -8.093,7.102c-4.528,1.279 -7.288,-1.011 -3.86,-5.992c0.751,-1.09 2.735,-1.609 5.611,-1.902c1.928,-0.197 4.571,-0.976 6.342,0.792Z" style="fill:#575757;"/><path d="M15.001,74.606c-2.459,4.141 -13.078,-11.743 -4.449,-8.269c1.678,0.675 7.512,3.11 4.449,8.269Z" style="fill:#575757;"/><path d="M57.614,34.927c-2.683,-4 16.222,-6.766 9.379,-0.465c-1.331,1.225 -6.036,5.447 -9.379,0.465Z" style="fill:#575757;"/><path d="M78.582,23.572c-4.8,0.391 2.008,-17.461 4.169,-8.414c0.421,1.76 1.811,7.927 -4.169,8.414Z" style="fill:#575757;"/><path d="M25.086,30.428c1.873,3.628 -14.752,6.656 -8.146,0.665c1.285,-1.166 5.814,-5.184 8.146,-0.665Z" style="fill:#575757;"/><path d="M70.961,76.656c4.765,-0.705 -0.859,17.555 -3.609,8.669c-0.534,-1.728 -2.326,-7.79 3.609,-8.669Z" style="fill:#575757;"/><path d="M50.13,87.395c3.796,1.877 -9.413,12.253 -6.949,4.455c0.48,-1.516 2.222,-6.793 6.949,-4.455Z" style="fill:#575757;"/><path d="M10.208,45.1c1.802,3.257 -12.937,4.139 -7.252,-0.261c1.106,-0.855 5.007,-3.796 7.252,0.261Z" style="fill:#575757;"/><path d="M49.635,9.612c-0.329,3.255 -11.42,-3.49 -5.109,-3.821c1.228,-0.064 5.519,-0.235 5.109,3.821Z" style="fill:#575757;"/><path d="M85.895,45.236c-1.868,2.188 -6.503,-8.24 -1.778,-5.319c0.92,0.569 4.105,2.595 1.778,5.319Z" style="fill:#575757;"/><path d="M90.908,81.498c-1.162,-2.703 10.5,-2.237 5.683,0.776c-0.937,0.586 -4.237,2.592 -5.683,-0.776Z" style="fill:#575757;"/><path d="M25.52,51.288c-1.411,4.605 -15.484,-8.318 -6.278,-6.983c1.791,0.26 8.034,1.247 6.278,6.983Z" style="fill:#575757;"/><path d="M19.097,73.074c0.849,-2.587 7.728,0.366 9.62,3.237c1.453,2.206 -1.108,4.406 -5.096,3.745c-1.785,-0.295 -6.396,-1.282 -4.524,-6.982Z" style="fill:#575757;"/><path d="M57.238,39.283c1.972,1.879 -3.651,6.822 -7.056,7.297c-2.616,0.364 -3.502,-2.893 -1.193,-6.211c1.034,-1.485 3.906,-5.225 8.249,-1.086Z" style="fill:#575757;"/><path d="M82.201,26.026c2.602,-0.805 4.174,6.515 2.927,9.719c-0.958,2.462 -4.235,1.646 -6.004,-1.989c-0.792,-1.627 -2.655,-5.958 3.077,-7.73Z" style="fill:#575757;"/><path d="M25.895,26.394c-1.494,-1.686 3.908,-6.394 6.899,-6.917c2.299,-0.403 2.702,2.585 0.341,5.707c-1.057,1.398 -3.951,4.925 -7.24,1.21Z" style="fill:#575757;"/><path d="M67.189,74.445c-2.543,0.973 -4.592,-6.228 -3.558,-9.506c0.795,-2.52 4.118,-1.92 6.121,1.591c0.897,1.571 3.04,5.771 -2.563,7.915Z" style="fill:#575757;"/><path d="M48.512,83.908c-2.325,-0.571 -0.198,-6.8 2.191,-8.65c1.836,-1.423 3.936,0.675 3.626,4.215c-0.139,1.584 -0.694,5.692 -5.817,4.435Z" style="fill:#575757;"/><path d="M10.786,41.771c-1.394,-1.577 3.261,-5.012 5.914,-5.153c2.039,-0.108 2.506,2.459 0.509,4.861c-0.894,1.075 -3.352,3.765 -6.423,0.292Z" style="fill:#575757;"/><path d="M51.72,7.495c-0.217,-1.837 4.867,-1.987 6.854,-0.76c1.527,0.943 0.579,3.031 -2.067,3.767c-1.184,0.329 -4.308,1.041 -4.787,-3.007Z" style="fill:#575757;"/><path d="M88.461,44.751c0.764,-1.436 4.512,1.002 5.333,2.884c0.631,1.446 -1.1,2.48 -3.38,1.686c-1.02,-0.356 -3.634,-1.405 -1.953,-4.57Z" style="fill:#575757;"/><path d="M90.192,84.072c0.972,1.35 -2.96,3.685 -5.057,3.587c-1.612,-0.075 -1.778,-2.131 -0.018,-3.863c0.788,-0.775 2.932,-2.698 5.075,0.276Z" style="fill:#575757;"/><path d="M29.137,48.832c0.214,-2.715 7.597,-1.471 10.113,0.871c1.934,1.8 -0.035,4.543 -4.066,4.844c-1.805,0.135 -6.518,0.266 -6.047,-5.715Z" style="fill:#575757;"/></g></svg>