<svg width="100px" height="100px" viewBox="0 0 100 100" version="1.1" xmlns="http://www.w3.org/2000/svg" xmlns:xlink="http://www.w3.org/1999/xlink" xml:space="preserve" xmlns:serif="http://www.serif.com/" style="fill-rule:evenodd;clip-rule:evenodd;"><g><path d="M55.268,17.999c0.093,0.282 0.225,0.513 0.654,0.813c0.769,0.536 2.53,0.847 2.53,0.847c0,0 0.056,-1.566 -0.22,-2.365c-0.111,-0.324 -0.326,-0.643 -0.554,-0.885c0.18,-0.02 0.382,-0.084 0.651,-0.228c0.826,-0.442 1.901,-1.871 1.901,-1.871c0,0 -1.371,-0.759 -2.208,-0.876c-0.194,-0.027 -0.581,0.076 -0.921,0.216c0.188,-0.261 0.382,-0.524 0.389,-0.745c0.028,-0.937 -0.675,-2.581 -0.675,-2.581c0,0 -1.342,0.81 -1.86,1.478c-0.118,0.153 -0.199,0.909 -0.199,0.909c-0.871,-1.1 -2.677,-1.315 -2.677,-1.315c0,0 -0.094,1.179 0.028,1.754c0.068,0.32 0.464,0.935 0.464,0.935c0,0 -0.783,-0.076 -1.157,0.016c-0.524,0.127 -1.554,0.911 -1.554,0.911c0,0 0.682,1.132 1.489,1.379c0.692,0.212 1.114,-0.094 1.409,-0.11c-0.207,0.204 -0.681,0.663 -0.817,1.178c-0.241,0.906 -0.139,1.95 -0.139,1.95c0,0 1.567,-0.063 2.342,-0.397c0.442,-0.19 0.86,-0.584 1.07,-0.915c0.019,-0.03 0.037,-0.063 0.054,-0.098Z" style="fill:#efa5e3;fill-rule:nonzero;stroke:#fff;stroke-width:0.88px;"/><path d="M59.959,37.595c0.244,-0.168 0.43,-0.358 0.598,-0.854c0.301,-0.888 0.109,-2.666 0.109,-2.666c0,0 -1.519,0.382 -2.21,0.87c-0.28,0.196 -0.527,0.492 -0.696,0.778c-0.069,-0.168 -0.187,-0.344 -0.399,-0.561c-0.655,-0.671 -2.327,-1.306 -2.327,-1.306c0,0 -0.347,1.528 -0.227,2.365c0.028,0.194 0.235,0.537 0.464,0.824c-0.303,-0.108 -0.609,-0.221 -0.824,-0.165c-0.907,0.233 -2.291,1.366 -2.291,1.366c0,0 1.152,1.063 1.938,1.375c0.179,0.071 0.928,-0.062 0.928,-0.062c-0.814,1.143 -0.518,2.938 -0.518,2.938c0,0 1.158,-0.239 1.677,-0.516c0.289,-0.155 0.769,-0.706 0.769,-0.706c0,0 0.145,0.773 0.337,1.107c0.269,0.468 1.308,1.239 1.308,1.239c0,0 0.897,-0.97 0.91,-1.814c0.011,-0.724 -0.401,-1.044 -0.498,-1.323c0.254,0.142 0.826,0.47 1.359,0.457c0.938,-0.021 1.911,-0.41 1.911,-0.41c0,0 -0.496,-1.486 -1.033,-2.138c-0.306,-0.372 -0.8,-0.664 -1.176,-0.773c-0.035,-0.01 -0.071,-0.018 -0.109,-0.025Z" style="fill:#efa5e3;fill-rule:nonzero;stroke:#fff;stroke-width:0.88px;"/><path d="M45.26,89.176c-0.269,0.123 -0.484,0.28 -0.734,0.74c-0.447,0.823 -0.56,2.608 -0.56,2.608c0,0 1.563,-0.119 2.326,-0.482c0.309,-0.146 0.603,-0.396 0.818,-0.649c0.039,0.177 0.126,0.37 0.298,0.621c0.532,0.772 2.072,1.681 2.072,1.681c0,0 0.601,-1.447 0.624,-2.292c0.006,-0.196 -0.14,-0.569 -0.316,-0.891c0.28,0.158 0.562,0.321 0.783,0.303c0.934,-0.077 2.49,-0.958 2.49,-0.958c0,0 -0.955,-1.243 -1.676,-1.684c-0.166,-0.1 -0.926,-0.096 -0.926,-0.096c0.996,-0.988 1.009,-2.807 1.009,-2.807c0,0 -1.182,0.038 -1.74,0.224c-0.311,0.103 -0.878,0.565 -0.878,0.565c0,0 -0.012,-0.787 -0.145,-1.148c-0.185,-0.507 -1.078,-1.443 -1.078,-1.443c0,0 -1.049,0.803 -1.205,1.633c-0.134,0.711 0.218,1.097 0.267,1.388c-0.227,-0.183 -0.735,-0.603 -1.263,-0.681c-0.927,-0.137 -1.952,0.08 -1.952,0.08c0,0 0.236,1.55 0.655,2.283c0.238,0.418 0.676,0.79 1.028,0.961c0.033,0.016 0.067,0.03 0.103,0.044Z" style="fill:#efa5e3;fill-rule:nonzero;stroke:#fff;stroke-width:0.88px;"/><path d="M66.394,89.702c-0.269,0.123 -0.485,0.28 -0.734,0.74c-0.447,0.823 -0.56,2.608 -0.56,2.608c0,0 1.562,-0.119 2.325,-0.482c0.31,-0.146 0.603,-0.396 0.818,-0.649c0.04,0.177 0.127,0.371 0.299,0.621c0.532,0.772 2.072,1.681 2.072,1.681c0,0 0.601,-1.447 0.624,-2.292c0.005,-0.196 -0.14,-0.569 -0.317,-0.891c0.28,0.158 0.563,0.321 0.783,0.303c0.934,-0.076 2.49,-0.958 2.49,-0.958c0,0 -0.955,-1.243 -1.676,-1.684c-0.165,-0.1 -0.926,-0.096 -0.926,-0.096c0.997,-0.988 1.009,-2.807 1.009,-2.807c0,0 -1.182,0.038 -1.74,0.224c-0.311,0.103 -0.878,0.565 -0.878,0.565c0,0 -0.011,-0.787 -0.144,-1.148c-0.185,-0.507 -1.079,-1.443 -1.079,-1.443c0,0 -1.049,0.804 -1.205,1.633c-0.133,0.712 0.218,1.097 0.267,1.388c-0.226,-0.183 -0.734,-0.603 -1.262,-0.681c-0.927,-0.137 -1.953,0.08 -1.953,0.08c0,0 0.237,1.55 0.656,2.283c0.238,0.418 0.675,0.79 1.028,0.961c0.032,0.016 0.067,0.03 0.103,0.044Z" style="fill:#efa5e3;fill-rule:nonzero;stroke:#fff;stroke-width:0.88px;"/><path d="M87.235,39.81c0.225,-0.193 0.389,-0.402 0.503,-0.913c0.205,-0.915 -0.175,-2.663 -0.175,-2.663c0,0 -1.47,0.543 -2.105,1.101c-0.257,0.226 -0.471,0.546 -0.609,0.848c-0.086,-0.159 -0.223,-0.321 -0.457,-0.515c-0.723,-0.597 -2.453,-1.05 -2.453,-1.05c0,0 -0.182,1.556 0.027,2.376c0.049,0.19 0.291,0.508 0.549,0.77c-0.313,-0.075 -0.629,-0.155 -0.836,-0.077c-0.878,0.329 -2.133,1.603 -2.133,1.603c0,0 1.259,0.934 2.074,1.161c0.186,0.051 0.916,-0.162 0.916,-0.162c-0.688,1.224 -0.201,2.977 -0.201,2.977c0,0 1.126,-0.361 1.612,-0.692c0.271,-0.185 0.69,-0.784 0.69,-0.784c0,0 0.226,0.753 0.453,1.065c0.317,0.436 1.432,1.091 1.432,1.091c0,0 0.789,-1.059 0.712,-1.9c-0.067,-0.721 -0.51,-0.995 -0.637,-1.262c0.268,0.114 0.871,0.379 1.4,0.309c0.93,-0.121 1.857,-0.611 1.857,-0.611c0,0 -0.652,-1.426 -1.256,-2.016c-0.343,-0.337 -0.866,-0.575 -1.252,-0.643c-0.036,-0.006 -0.073,-0.011 -0.111,-0.013Z" style="fill:#efa5e3;fill-rule:nonzero;stroke:#fff;stroke-width:0.88px;"/><path d="M46.771,60.042c-0.269,0.124 -0.484,0.28 -0.734,0.74c-0.447,0.824 -0.56,2.609 -0.56,2.609c0,0 1.563,-0.119 2.326,-0.482c0.309,-0.147 0.603,-0.396 0.818,-0.65c0.039,0.177 0.126,0.371 0.298,0.622c0.532,0.772 2.072,1.681 2.072,1.681c0,0 0.602,-1.447 0.625,-2.292c0.005,-0.197 -0.141,-0.569 -0.317,-0.891c0.28,0.157 0.562,0.32 0.783,0.303c0.934,-0.077 2.49,-0.959 2.49,-0.959c0,0 -0.955,-1.242 -1.676,-1.683c-0.166,-0.1 -0.926,-0.096 -0.926,-0.096c0.996,-0.989 1.009,-2.808 1.009,-2.808c0,0 -1.182,0.038 -1.74,0.224c-0.311,0.104 -0.878,0.565 -0.878,0.565c0,0 -0.011,-0.786 -0.144,-1.148c-0.186,-0.506 -1.079,-1.442 -1.079,-1.442c0,0 -1.049,0.803 -1.205,1.633c-0.134,0.711 0.218,1.097 0.267,1.388c-0.227,-0.183 -0.735,-0.603 -1.263,-0.681c-0.927,-0.138 -1.952,0.08 -1.952,0.08c0,0 0.236,1.549 0.655,2.282c0.238,0.419 0.676,0.79 1.028,0.962c0.033,0.016 0.067,0.03 0.103,0.043Z" style="fill:#efa5e3;fill-rule:nonzero;stroke:#fff;stroke-width:0.88px;"/><path d="M66.896,70.362c0.248,-0.161 0.439,-0.346 0.621,-0.837c0.326,-0.879 0.184,-2.662 0.184,-2.662c0,0 -1.53,0.34 -2.234,0.808c-0.285,0.189 -0.54,0.478 -0.717,0.759c-0.064,-0.17 -0.178,-0.349 -0.384,-0.572c-0.636,-0.689 -2.29,-1.37 -2.29,-1.37c0,0 -0.389,1.518 -0.292,2.358c0.023,0.194 0.22,0.543 0.44,0.836c-0.299,-0.116 -0.602,-0.237 -0.818,-0.188c-0.914,0.209 -2.328,1.303 -2.328,1.303c0,0 1.122,1.094 1.898,1.428c0.178,0.075 0.93,-0.037 0.93,-0.037c-0.846,1.12 -0.599,2.922 -0.599,2.922c0,0 1.164,-0.205 1.69,-0.469c0.294,-0.146 0.789,-0.684 0.789,-0.684c0,0 0.123,0.777 0.306,1.116c0.256,0.475 1.273,1.274 1.273,1.274c0,0 0.924,-0.944 0.961,-1.787c0.03,-0.723 -0.372,-1.055 -0.462,-1.336c0.25,0.149 0.813,0.492 1.346,0.494c0.938,0.005 1.922,-0.356 1.922,-0.356c0,0 -0.455,-1.5 -0.974,-2.167c-0.295,-0.38 -0.781,-0.685 -1.154,-0.805c-0.034,-0.011 -0.071,-0.02 -0.108,-0.028Z" style="fill:#efa5e3;fill-rule:nonzero;stroke:#fff;stroke-width:0.88px;"/><path d="M81.567,64.785c0.146,-0.258 0.229,-0.511 0.161,-1.03c-0.12,-0.929 -1.074,-2.442 -1.074,-2.442c0,0 -1.197,1.012 -1.603,1.754c-0.164,0.3 -0.256,0.674 -0.282,1.005c-0.135,-0.12 -0.319,-0.226 -0.606,-0.328c-0.883,-0.314 -2.664,-0.149 -2.664,-0.149c0,0 0.361,1.525 0.838,2.224c0.111,0.162 0.447,0.378 0.779,0.536c-0.32,0.036 -0.644,0.07 -0.813,0.213c-0.712,0.61 -1.456,2.236 -1.456,2.236c0,0 1.503,0.447 2.345,0.382c0.193,-0.016 0.807,-0.465 0.807,-0.465c-0.228,1.385 0.827,2.866 0.827,2.866c0,0 0.936,-0.723 1.279,-1.201c0.191,-0.266 0.38,-0.972 0.38,-0.972c0,0 0.47,0.631 0.79,0.846c0.447,0.301 1.719,0.536 1.719,0.536c0,0 0.38,-1.265 0.02,-2.029c-0.309,-0.655 -0.82,-0.761 -1.03,-0.968c0.291,0.015 0.949,0.058 1.422,-0.188c0.832,-0.432 1.535,-1.21 1.535,-1.21c0,0 -1.099,-1.116 -1.868,-1.465c-0.438,-0.199 -1.011,-0.244 -1.397,-0.176c-0.035,0.006 -0.072,0.015 -0.109,0.025Z" style="fill:#efa5e3;fill-rule:nonzero;stroke:#fff;stroke-width:0.88px;"/><path d="M90.713,49.682c-0.269,0.123 -0.484,0.28 -0.734,0.74c-0.447,0.823 -0.56,2.608 -0.56,2.608c0,0 1.563,-0.119 2.326,-0.482c0.309,-0.146 0.603,-0.396 0.818,-0.649c0.039,0.177 0.126,0.371 0.298,0.621c0.532,0.772 2.072,1.681 2.072,1.681c0,0 0.601,-1.446 0.624,-2.292c0.005,-0.196 -0.14,-0.569 -0.317,-0.891c0.281,0.158 0.563,0.321 0.784,0.303c0.934,-0.076 2.49,-0.958 2.49,-0.958c0,0 -0.956,-1.243 -1.677,-1.684c-0.165,-0.1 -0.925,-0.096 -0.925,-0.096c0.996,-0.988 1.008,-2.807 1.008,-2.807c0,0 -1.181,0.038 -1.739,0.224c-0.312,0.103 -0.879,0.565 -0.879,0.565c0,0 -0.011,-0.787 -0.144,-1.148c-0.185,-0.507 -1.078,-1.442 -1.078,-1.442c0,0 -1.049,0.803 -1.205,1.632c-0.134,0.712 0.218,1.097 0.267,1.388c-0.227,-0.182 -0.735,-0.602 -1.263,-0.68c-0.927,-0.138 -1.953,0.08 -1.953,0.08c0,0 0.237,1.549 0.656,2.282c0.238,0.418 0.676,0.79 1.028,0.961c0.033,0.016 0.067,0.03 0.103,0.044Z" style="fill:#efa5e3;fill-rule:nonzero;stroke:#fff;stroke-width:0.88px;"/><path d="M72.923,27.758c0.145,-0.258 0.228,-0.511 0.161,-1.03c-0.12,-0.929 -1.075,-2.442 -1.075,-2.442c0,0 -1.196,1.012 -1.602,1.754c-0.165,0.3 -0.256,0.674 -0.282,1.005c-0.136,-0.12 -0.32,-0.226 -0.606,-0.328c-0.883,-0.314 -2.664,-0.148 -2.664,-0.148c0,0 0.361,1.524 0.837,2.223c0.111,0.162 0.447,0.379 0.779,0.536c-0.319,0.036 -0.644,0.07 -0.812,0.214c-0.712,0.609 -1.456,2.235 -1.456,2.235c0,0 1.502,0.447 2.345,0.382c0.192,-0.015 0.806,-0.465 0.806,-0.465c-0.228,1.385 0.828,2.866 0.828,2.866c0,0 0.935,-0.723 1.278,-1.201c0.192,-0.266 0.381,-0.972 0.381,-0.972c0,0 0.47,0.631 0.79,0.846c0.447,0.302 1.719,0.536 1.719,0.536c0,0 0.379,-1.265 0.02,-2.029c-0.309,-0.654 -0.82,-0.761 -1.03,-0.968c0.29,0.015 0.948,0.058 1.421,-0.188c0.833,-0.432 1.536,-1.209 1.536,-1.209c0,0 -1.1,-1.117 -1.869,-1.466c-0.438,-0.199 -1.01,-0.244 -1.396,-0.176c-0.036,0.006 -0.072,0.015 -0.109,0.025Z" style="fill:#efa5e3;fill-rule:nonzero;stroke:#fff;stroke-width:0.88px;"/><path d="M92.702,80.278c0.223,-0.194 0.386,-0.405 0.497,-0.916c0.197,-0.916 -0.196,-2.661 -0.196,-2.661c0,0 -1.466,0.553 -2.096,1.116c-0.256,0.227 -0.468,0.549 -0.603,0.853c-0.087,-0.159 -0.225,-0.32 -0.461,-0.512c-0.727,-0.592 -2.461,-1.032 -2.461,-1.032c0,0 -0.17,1.558 0.045,2.376c0.05,0.189 0.295,0.506 0.555,0.766c-0.313,-0.073 -0.63,-0.15 -0.837,-0.071c-0.875,0.336 -2.121,1.619 -2.121,1.619c0,0 1.266,0.924 2.082,1.145c0.187,0.05 0.916,-0.168 0.916,-0.168c-0.679,1.229 -0.179,2.978 -0.179,2.978c0,0 1.123,-0.369 1.606,-0.704c0.27,-0.187 0.684,-0.789 0.684,-0.789c0,0 0.232,0.752 0.461,1.061c0.321,0.434 1.441,1.081 1.441,1.081c0,0 0.781,-1.065 0.698,-1.905c-0.072,-0.72 -0.518,-0.992 -0.647,-1.258c0.269,0.112 0.875,0.373 1.403,0.299c0.929,-0.128 1.852,-0.625 1.852,-0.625c0,0 -0.663,-1.421 -1.271,-2.007c-0.346,-0.334 -0.87,-0.568 -1.257,-0.633c-0.035,-0.006 -0.072,-0.01 -0.111,-0.013Z" style="fill:#efa5e3;fill-rule:nonzero;stroke:#fff;stroke-width:0.88px;"/><path d="M40.574,60.883c0.228,-0.188 0.396,-0.395 0.52,-0.903c0.221,-0.911 -0.128,-2.665 -0.128,-2.665c0,0 -1.479,0.515 -2.124,1.062c-0.262,0.221 -0.481,0.537 -0.624,0.837c-0.084,-0.161 -0.217,-0.326 -0.448,-0.524c-0.712,-0.61 -2.434,-1.094 -2.434,-1.094c0,0 -0.21,1.553 -0.016,2.376c0.046,0.191 0.282,0.514 0.535,0.78c-0.311,-0.081 -0.626,-0.166 -0.835,-0.092c-0.883,0.313 -2.161,1.564 -2.161,1.564c0,0 1.242,0.956 2.052,1.198c0.185,0.054 0.92,-0.145 0.92,-0.145c-0.71,1.211 -0.256,2.973 -0.256,2.973c0,0 1.133,-0.34 1.624,-0.663c0.275,-0.18 0.704,-0.771 0.704,-0.771c0,0 0.213,0.757 0.434,1.073c0.309,0.442 1.412,1.117 1.412,1.117c0,0 0.808,-1.045 0.747,-1.887c-0.054,-0.722 -0.493,-1.004 -0.614,-1.273c0.265,0.119 0.864,0.394 1.394,0.335c0.932,-0.105 1.867,-0.578 1.867,-0.578c0,0 -0.625,-1.437 -1.218,-2.039c-0.338,-0.343 -0.856,-0.59 -1.24,-0.665c-0.036,-0.007 -0.073,-0.012 -0.111,-0.016Z" style="fill:#efa5e3;fill-rule:nonzero;stroke:#fff;stroke-width:0.88px;"/><path d="M66.976,53.538c0.268,-0.125 0.483,-0.282 0.731,-0.743c0.444,-0.825 0.551,-2.611 0.551,-2.611c0,0 -1.562,0.125 -2.324,0.491c-0.309,0.147 -0.601,0.398 -0.816,0.652c-0.04,-0.177 -0.127,-0.37 -0.3,-0.62c-0.535,-0.771 -2.078,-1.674 -2.078,-1.674c0,0 -0.596,1.449 -0.616,2.294c-0.005,0.196 0.142,0.569 0.32,0.89c-0.281,-0.157 -0.564,-0.319 -0.785,-0.3c-0.933,0.08 -2.486,0.967 -2.486,0.967c0,0 0.959,1.239 1.682,1.678c0.166,0.099 0.926,0.092 0.926,0.092c-0.993,0.992 -0.999,2.811 -0.999,2.811c0,0 1.182,-0.042 1.739,-0.23c0.311,-0.104 0.876,-0.568 0.876,-0.568c0,0 0.014,0.786 0.149,1.148c0.187,0.506 1.083,1.438 1.083,1.438c0,0 1.047,-0.807 1.2,-1.637c0.131,-0.712 -0.222,-1.096 -0.272,-1.387c0.227,0.182 0.736,0.6 1.264,0.676c0.928,0.135 1.953,-0.087 1.953,-0.087c0,0 -0.242,-1.548 -0.664,-2.28c-0.239,-0.417 -0.678,-0.787 -1.031,-0.957c-0.033,-0.016 -0.067,-0.03 -0.103,-0.043Z" style="fill:#efa5e3;fill-rule:nonzero;stroke:#fff;stroke-width:0.88px;"/><path d="M33.604,9.194c0.11,-0.275 0.159,-0.536 0.025,-1.042c-0.241,-0.906 -1.386,-2.281 -1.386,-2.281c0,0 -1.053,1.161 -1.358,1.949c-0.124,0.319 -0.166,0.702 -0.149,1.033c-0.15,-0.101 -0.346,-0.182 -0.643,-0.246c-0.917,-0.196 -2.661,0.202 -2.661,0.202c0,0 0.557,1.464 1.121,2.094c0.132,0.147 0.493,0.317 0.843,0.43c-0.312,0.078 -0.629,0.153 -0.777,0.318c-0.626,0.698 -1.151,2.407 -1.151,2.407c0,0 1.548,0.247 2.375,0.072c0.188,-0.041 0.738,-0.566 0.738,-0.566c-0.045,1.402 1.196,2.732 1.196,2.732c0,0 0.833,-0.839 1.11,-1.358c0.155,-0.289 0.25,-1.013 0.25,-1.013c0,0 0.549,0.563 0.894,0.735c0.482,0.24 1.774,0.306 1.774,0.306c0,0 0.211,-1.304 -0.246,-2.014c-0.392,-0.608 -0.912,-0.647 -1.148,-0.825c0.291,-0.023 0.948,-0.067 1.385,-0.372c0.769,-0.538 1.364,-1.4 1.364,-1.4c0,0 -1.236,-0.963 -2.044,-1.208c-0.46,-0.14 -1.034,-0.11 -1.408,0.007c-0.034,0.011 -0.069,0.025 -0.104,0.04Z" style="fill:#efa5e3;fill-rule:nonzero;stroke:#fff;stroke-width:0.88px;"/><path d="M17.886,23.331c0.111,-0.274 0.16,-0.536 0.025,-1.042c-0.241,-0.905 -1.385,-2.28 -1.385,-2.28c0,0 -1.053,1.16 -1.359,1.948c-0.124,0.319 -0.165,0.702 -0.148,1.034c-0.15,-0.102 -0.346,-0.182 -0.643,-0.246c-0.917,-0.196 -2.661,0.202 -2.661,0.202c0,0 0.557,1.464 1.121,2.094c0.131,0.146 0.493,0.317 0.843,0.43c-0.312,0.078 -0.629,0.153 -0.777,0.318c-0.627,0.697 -1.151,2.407 -1.151,2.407c0,0 1.547,0.246 2.374,0.071c0.189,-0.04 0.739,-0.566 0.739,-0.566c-0.045,1.403 1.196,2.733 1.196,2.733c0,0 0.832,-0.84 1.11,-1.358c0.155,-0.289 0.25,-1.014 0.25,-1.014c0,0 0.548,0.564 0.894,0.735c0.482,0.241 1.774,0.307 1.774,0.307c0,0 0.211,-1.304 -0.246,-2.014c-0.392,-0.609 -0.912,-0.647 -1.148,-0.825c0.291,-0.023 0.948,-0.067 1.385,-0.373c0.769,-0.537 1.364,-1.4 1.364,-1.4c0,0 -1.236,-0.963 -2.044,-1.208c-0.461,-0.14 -1.034,-0.109 -1.408,0.008c-0.034,0.011 -0.069,0.024 -0.105,0.039Z" style="fill:#efa5e3;fill-rule:nonzero;stroke:#fff;stroke-width:0.88px;"/><path d="M44.454,25.349c0.11,-0.274 0.16,-0.536 0.025,-1.042c-0.241,-0.905 -1.385,-2.28 -1.385,-2.28c0,0 -1.054,1.16 -1.359,1.948c-0.124,0.319 -0.166,0.702 -0.148,1.034c-0.151,-0.102 -0.347,-0.182 -0.644,-0.246c-0.917,-0.196 -2.661,0.202 -2.661,0.202c0,0 0.558,1.464 1.122,2.094c0.131,0.146 0.492,0.317 0.842,0.43c-0.312,0.078 -0.629,0.153 -0.777,0.318c-0.626,0.697 -1.151,2.407 -1.151,2.407c0,0 1.548,0.246 2.375,0.071c0.189,-0.04 0.739,-0.566 0.739,-0.566c-0.045,1.403 1.195,2.733 1.195,2.733c0,0 0.833,-0.84 1.11,-1.358c0.156,-0.289 0.251,-1.014 0.251,-1.014c0,0 0.548,0.564 0.893,0.735c0.483,0.241 1.775,0.307 1.775,0.307c0,0 0.21,-1.304 -0.246,-2.014c-0.392,-0.609 -0.913,-0.647 -1.148,-0.825c0.29,-0.023 0.948,-0.067 1.385,-0.373c0.768,-0.537 1.364,-1.4 1.364,-1.4c0,0 -1.237,-0.963 -2.045,-1.208c-0.46,-0.14 -1.033,-0.109 -1.407,0.008c-0.035,0.011 -0.07,0.024 -0.105,0.039Z" style="fill:#efa5e3;fill-rule:nonzero;stroke:#fff;stroke-width:0.88px;"/><path d="M30.809,37.729c-0.07,0.287 -0.081,0.553 0.124,1.035c0.367,0.862 1.695,2.06 1.695,2.06c0,0 0.878,-1.298 1.068,-2.122c0.078,-0.333 0.065,-0.718 0,-1.044c0.163,0.079 0.369,0.131 0.672,0.152c0.935,0.064 2.605,-0.578 2.605,-0.578c0,0 -0.76,-1.37 -1.408,-1.914c-0.15,-0.126 -0.533,-0.243 -0.895,-0.305c0.298,-0.122 0.601,-0.241 0.724,-0.425c0.521,-0.78 0.797,-2.547 0.797,-2.547c0,0 -1.567,-0.024 -2.361,0.267c-0.18,0.067 -0.65,0.666 -0.65,0.666c-0.155,-1.395 -1.572,-2.535 -1.572,-2.535c0,0 -0.705,0.949 -0.906,1.502c-0.113,0.308 -0.103,1.039 -0.103,1.039c0,0 -0.623,-0.48 -0.989,-0.601c-0.512,-0.17 -1.801,-0.051 -1.801,-0.051c0,0 -0.023,1.32 0.53,1.958c0.475,0.547 0.995,0.511 1.254,0.654c-0.284,0.064 -0.929,0.201 -1.318,0.566c-0.684,0.641 -1.151,1.579 -1.151,1.579c0,0 1.361,0.778 2.195,0.905c0.476,0.074 1.039,-0.038 1.392,-0.207c0.033,-0.016 0.066,-0.034 0.098,-0.054Z" style="fill:#efa5e3;fill-rule:nonzero;stroke:#fff;stroke-width:0.88px;"/><path d="M23.981,51.861c0.071,0.287 0.184,0.528 0.59,0.859c0.726,0.593 2.459,1.036 2.459,1.036c0,0 0.174,-1.557 -0.041,-2.375c-0.086,-0.331 -0.277,-0.666 -0.486,-0.924c0.182,-0.006 0.388,-0.055 0.666,-0.178c0.858,-0.379 2.038,-1.723 2.038,-1.723c0,0 -1.31,-0.86 -2.136,-1.04c-0.192,-0.041 -0.585,0.032 -0.934,0.146c0.207,-0.246 0.42,-0.493 0.443,-0.713c0.099,-0.932 -0.478,-2.625 -0.478,-2.625c0,0 -1.399,0.707 -1.966,1.333c-0.129,0.144 -0.267,0.892 -0.267,0.892c-0.786,-1.163 -2.57,-1.514 -2.57,-1.514c0,0 -0.183,1.169 -0.104,1.751c0.043,0.325 0.391,0.968 0.391,0.968c0,0 -0.774,-0.135 -1.155,-0.072c-0.532,0.088 -1.617,0.792 -1.617,0.792c0,0 0.593,1.18 1.379,1.488c0.675,0.263 1.119,-0.011 1.414,-0.004c-0.222,0.188 -0.729,0.609 -0.904,1.113c-0.308,0.886 -0.285,1.934 -0.285,1.934c0,0 1.567,0.056 2.365,-0.22c0.455,-0.156 0.902,-0.516 1.136,-0.831c0.021,-0.029 0.042,-0.06 0.062,-0.093Z" style="fill:#efa5e3;fill-rule:nonzero;stroke:#fff;stroke-width:0.88px;"/><path d="M5.245,48.254c-0.028,0.294 -0.002,0.559 0.269,1.007c0.486,0.801 1.97,1.799 1.97,1.799c0,0 0.685,-1.409 0.757,-2.252c0.029,-0.34 -0.038,-0.72 -0.148,-1.033c0.172,0.055 0.383,0.078 0.687,0.055c0.935,-0.07 2.496,-0.941 2.496,-0.941c0,0 -0.946,-1.249 -1.664,-1.695c-0.167,-0.103 -0.562,-0.166 -0.93,-0.176c0.278,-0.162 0.561,-0.324 0.657,-0.523c0.405,-0.846 0.428,-2.634 0.428,-2.634c0,0 -1.555,0.199 -2.299,0.599c-0.17,0.092 -0.55,0.751 -0.55,0.751c-0.351,-1.359 -1.915,-2.287 -1.915,-2.287c0,0 -0.564,1.04 -0.684,1.615c-0.068,0.321 0.045,1.044 0.045,1.044c0,0 -0.685,-0.387 -1.065,-0.455c-0.53,-0.095 -1.789,0.204 -1.789,0.204c0,0 0.165,1.311 0.802,1.864c0.547,0.474 1.058,0.365 1.334,0.47c-0.272,0.103 -0.891,0.33 -1.225,0.746c-0.586,0.732 -0.915,1.727 -0.915,1.727c0,0 1.457,0.577 2.301,0.585c0.481,0.005 1.023,-0.185 1.349,-0.403c0.03,-0.02 0.06,-0.043 0.089,-0.067Z" style="fill:#efa5e3;fill-rule:nonzero;stroke:#fff;stroke-width:0.88px;"/><path d="M70.999,18.463c-0.036,0.294 -0.017,0.559 0.243,1.014c0.465,0.813 1.923,1.849 1.923,1.849c0,0 0.721,-1.392 0.814,-2.232c0.038,-0.34 -0.019,-0.721 -0.122,-1.037c0.172,0.06 0.382,0.088 0.686,0.073c0.936,-0.046 2.52,-0.877 2.52,-0.877c0,0 -0.914,-1.273 -1.621,-1.737c-0.164,-0.108 -0.557,-0.18 -0.924,-0.199c0.281,-0.156 0.569,-0.31 0.669,-0.507c0.427,-0.835 0.496,-2.622 0.496,-2.622c0,0 -1.559,0.159 -2.314,0.54c-0.172,0.088 -0.569,0.737 -0.569,0.737c-0.316,-1.368 -1.856,-2.335 -1.856,-2.335c0,0 -0.59,1.025 -0.725,1.597c-0.076,0.319 0.018,1.044 0.018,1.044c0,0 -0.674,-0.405 -1.052,-0.482c-0.528,-0.109 -1.794,0.159 -1.794,0.159c0,0 0.131,1.314 0.754,1.883c0.535,0.488 1.048,0.392 1.321,0.504c-0.275,0.096 -0.899,0.307 -1.243,0.715c-0.605,0.716 -0.96,1.703 -0.96,1.703c0,0 1.442,0.614 2.286,0.643c0.481,0.018 1.027,-0.159 1.359,-0.368c0.03,-0.019 0.06,-0.041 0.091,-0.065Z" style="fill:#efa5e3;fill-rule:nonzero;stroke:#fff;stroke-width:0.88px;"/><path d="M42.311,50.008c-0.11,0.275 -0.158,0.537 -0.022,1.042c0.244,0.905 1.394,2.276 1.394,2.276c0,0 1.049,-1.164 1.351,-1.953c0.123,-0.32 0.164,-0.703 0.145,-1.035c0.151,0.101 0.347,0.182 0.645,0.244c0.917,0.193 2.659,-0.211 2.659,-0.211c0,0 -0.562,-1.462 -1.128,-2.09c-0.132,-0.146 -0.494,-0.316 -0.844,-0.427c0.311,-0.079 0.628,-0.156 0.776,-0.321c0.623,-0.699 1.142,-2.411 1.142,-2.411c0,0 -1.549,-0.241 -2.375,-0.063c-0.188,0.041 -0.737,0.569 -0.737,0.569c0.04,-1.403 -1.205,-2.729 -1.205,-2.729c0,0 -0.83,0.843 -1.105,1.362c-0.154,0.29 -0.247,1.015 -0.247,1.015c0,0 -0.55,-0.562 -0.896,-0.732c-0.483,-0.239 -1.776,-0.301 -1.776,-0.301c0,0 -0.205,1.305 0.254,2.014c0.394,0.607 0.914,0.644 1.15,0.821c-0.29,0.024 -0.947,0.07 -1.383,0.377c-0.767,0.54 -1.359,1.405 -1.359,1.405c0,0 1.239,0.959 2.048,1.201c0.461,0.138 1.034,0.106 1.408,-0.013c0.034,-0.011 0.069,-0.025 0.105,-0.04Z" style="fill:#efa5e3;fill-rule:nonzero;stroke:#fff;stroke-width:0.88px;"/></g></svg>