<svg width="100px" height="100px" viewBox="0 0 100 100" version="1.1" xmlns="http://www.w3.org/2000/svg" xmlns:xlink="http://www.w3.org/1999/xlink" xml:space="preserve" xmlns:serif="http://www.serif.com/" style="fill-rule:evenodd;clip-rule:evenodd;stroke-linejoin:round;stroke-miterlimit:1.41421;"><g><path d="M29.807,36.005c15.005,-16.264 47.566,65.264 12.099,41.414c-6.899,-4.639 -30.792,-21.152 -12.099,-41.414Z" style="fill:#3f230e;"/><path d="M59.931,33.29c14.219,14.67 -65.853,27.87 -55.406,6.417c9.509,-19.528 29.046,-33.613 55.406,-6.417Z" style="fill:#874f26;"/><path d="M52.029,29.048c8.914,9.197 -46.814,17.203 -40.265,3.753c5.962,-12.242 23.74,-20.802 40.265,-3.753Z" style="fill:#744321;"/><path d="M77.457,48.136c14.98,1.592 -16.335,52.495 -17.711,23.431c-0.267,-5.653 -0.951,-25.413 17.711,-23.431Z" style="fill:#311b0b;"/><path d="M91.92,62.735c-8.515,12.701 -47.664,-27.718 -19.47,-26.674c18.997,0.703 30.955,9.542 19.47,26.674Z" style="fill:#811616;"/><path d="M93.048,55.854c-4.907,7.319 -33.942,-18.941 -17.695,-18.34c10.948,0.406 24.314,8.466 17.695,18.34Z" style="fill:#6a1212;"/></g></svg>