<svg width="100px" height="100px" viewBox="0 0 100 100" version="1.1" xmlns="http://www.w3.org/2000/svg" xmlns:xlink="http://www.w3.org/1999/xlink" xml:space="preserve" xmlns:serif="http://www.serif.com/" style="fill-rule:evenodd;clip-rule:evenodd;stroke-linejoin:round;stroke-miterlimit:1.41421;"><g><path d="M91.125,67.261c10.636,13.151 -78.621,40.663 -61.24,15.385c3.381,-4.917 47.991,-31.767 61.24,-15.385Z" style="fill:#656565;"/><path d="M55.34,23.243c-4.105,-5.472 12.587,-12.889 23.67,-13.129c12.599,-0.273 19.547,7.618 9.048,18.357c-2.299,2.35 -7.81,2.361 -15.689,1.172c-5.282,-0.797 -12.644,-0.553 -17.029,-6.4Z" style="fill:#656565;"/><path d="M4.159,46.894c-0.686,-14.16 50.262,16.503 23.435,21.986c-5.218,1.066 -22.58,-4.346 -23.435,-21.986Z" style="fill:#656565;"/><path d="M33.939,42.048c-5.419,9.556 -30.362,-26.184 -10.523,-18.656c3.859,1.464 17.274,6.751 10.523,18.656Z" style="fill:#656565;"/><path d="M46.613,40.053c1.888,-6.162 18.305,0.501 22.915,7.204c3.543,5.152 -2.413,10.477 -11.881,9.103c-4.237,-0.615 -15.193,-2.731 -11.034,-16.307Z" style="fill:#656565;"/></g></svg>