<svg width="100px" height="100px" viewBox="0 0 100 100" version="1.1" xmlns="http://www.w3.org/2000/svg" xmlns:xlink="http://www.w3.org/1999/xlink" xml:space="preserve" xmlns:serif="http://www.serif.com/" style="fill-rule:evenodd;clip-rule:evenodd;stroke-linejoin:round;stroke-miterlimit:1.41421;"><path d="M94.835,22.73c9.726,18.318 -119.673,23.484 -87.573,-0.48c6.244,-4.661 75.456,-22.34 87.573,0.48Z" style="fill:#575757;"/><path d="M91.536,22.882c9.03,17.007 -111.108,21.804 -81.305,-0.445c5.797,-4.327 70.056,-20.741 81.305,0.445Z" style="fill:#656565;"/><path d="M2.03,45.951c-1.004,-20.715 73.532,24.144 34.285,32.165c-7.634,1.561 -33.034,-6.358 -34.285,-32.165Z" style="fill:#575757;"/><path d="M4.263,47.476c-0.899,-18.552 65.852,21.622 30.704,28.805c-6.836,1.397 -29.583,-5.694 -30.704,-28.805Z" style="fill:#656565;"/><path d="M51.298,59.039c-13.382,-15.846 66.224,-36.652 39.921,-6.439c-5.116,5.876 -23.251,26.178 -39.921,6.439Z" style="fill:#575757;"/><path d="M54.131,58.245c-11.712,-13.868 57.958,-32.077 34.938,-5.635c-4.477,5.143 -20.348,22.911 -34.938,5.635Z" style="fill:#656565;"/></svg>