<svg width="100px" height="100px" viewBox="0 0 100 100" version="1.1" xmlns="http://www.w3.org/2000/svg" xmlns:xlink="http://www.w3.org/1999/xlink" xml:space="preserve" xmlns:serif="http://www.serif.com/" style="fill-rule:evenodd;clip-rule:evenodd;stroke-linejoin:round;stroke-miterlimit:1.41421;"><path d="M93.571,66.488c11.455,14.164 -84.681,43.797 -65.961,16.571c3.641,-5.296 51.69,-34.216 65.961,-16.571Z" style="fill:#575757;"/><path d="M91.125,67.261c10.636,13.151 -78.621,40.663 -61.24,15.385c3.381,-4.917 47.991,-31.767 61.24,-15.385Z" style="fill:#656565;"/><path d="M2.454,45.73c-0.766,-15.811 56.125,18.428 26.169,24.551c-5.827,1.19 -25.214,-4.853 -26.169,-24.551Z" style="fill:#575757;"/><path d="M53.78,23.415c-4.445,-5.927 13.631,-13.959 25.634,-14.219c13.644,-0.296 21.169,8.249 9.798,19.88c-2.488,2.545 -8.457,2.557 -16.99,1.269c-5.72,-0.863 -13.693,-0.598 -18.442,-6.93Z" style="fill:#575757;"/><path d="M55.34,23.243c-4.105,-5.472 12.587,-12.889 23.67,-13.129c12.599,-0.273 19.547,7.618 9.048,18.357c-2.299,2.35 -7.81,2.361 -15.689,1.172c-5.282,-0.797 -12.644,-0.553 -17.029,-6.4Z" style="fill:#656565;"/><path d="M4.159,46.894c-0.686,-14.16 50.262,16.503 23.435,21.986c-5.218,1.066 -22.58,-4.346 -23.435,-21.986Z" style="fill:#656565;"/><path d="M34.983,43.49c-6.191,10.919 -34.691,-29.919 -12.023,-21.317c4.409,1.673 19.737,7.714 12.023,21.317Z" style="fill:#575757;"/><path d="M33.939,42.048c-5.419,9.556 -30.362,-26.184 -10.523,-18.656c3.859,1.464 17.274,6.751 10.523,18.656Z" style="fill:#656565;"/><path d="M45.577,39.285c2.079,-6.786 20.16,0.553 25.237,7.935c3.903,5.674 -2.658,11.539 -13.084,10.026c-4.667,-0.678 -16.734,-3.009 -12.153,-17.961Z" style="fill:#575757;"/><path d="M46.613,40.053c1.888,-6.162 18.305,0.501 22.915,7.204c3.543,5.152 -2.413,10.477 -11.881,9.103c-4.237,-0.615 -15.193,-2.731 -11.034,-16.307Z" style="fill:#656565;"/></svg>