<svg width="100px" height="100px" viewBox="0 0 100 100" version="1.1" xmlns="http://www.w3.org/2000/svg" xmlns:xlink="http://www.w3.org/1999/xlink" xml:space="preserve" xmlns:serif="http://www.serif.com/" style="fill-rule:evenodd;clip-rule:evenodd;stroke-linejoin:round;stroke-miterlimit:1.41421;"><path d="M33.417,3.917c121.008,-13.456 38.882,26.364 35.833,39.992c-4.571,20.433 53.077,21.539 20.977,45.503c-6.243,4.661 -17.027,-3.884 -39.072,-2.397c-15.697,1.058 -36.383,24.737 -48.5,1.917c-9.726,-18.318 8.8,-82.573 30.762,-85.015Z" style="fill:#575757;"/><path d="M33.069,7.523c111.538,-12.402 35.84,24.301 33.029,36.862c-4.213,18.835 48.923,19.854 19.335,41.942c-5.755,4.296 -15.694,-3.58 -36.014,-2.209c-14.468,0.975 -33.536,22.801 -44.704,1.767c-8.965,-16.884 8.111,-76.111 28.354,-78.362Z" style="fill:#656565;"/></svg>