<svg width="100px" height="100px" viewBox="0 0 100 100" version="1.1" xmlns="http://www.w3.org/2000/svg" xmlns:xlink="http://www.w3.org/1999/xlink" xml:space="preserve" xmlns:serif="http://www.serif.com/" style="fill-rule:evenodd;clip-rule:evenodd;stroke-linejoin:round;stroke-miterlimit:1.41421;"><path d="M95.845,46.379c6.028,27.853 -123.208,17.903 -86.679,-12.494c7.105,-5.913 79.169,-22.203 86.679,12.494Z" style="fill:#0a4a90;"/><path d="M88.821,45.903c5.11,23.608 -104.432,15.174 -73.47,-10.591c6.023,-5.011 67.105,-18.819 73.47,10.591Z" style="fill:#073261;"/><path d="M74.229,44.913c3.202,14.79 -65.424,9.506 -46.027,-6.635c3.773,-3.14 42.04,-11.79 46.027,6.635Z" style="fill:#052242;"/><path d="M70.977,70.667c-4.705,-3.467 5.165,-5.981 13.718,-8.808c9.392,-3.105 16.887,-11.356 12.619,5.083c-1.127,4.342 -14.039,12.788 -26.337,3.725Z" style="fill:#0a4a90;"/><path d="M75.419,69.684c-3.307,-2.437 3.63,-4.204 9.641,-6.19c6.601,-2.182 11.868,-7.981 8.869,3.572c-0.792,3.051 -9.867,8.987 -18.51,2.618Z" style="fill:#083f7a;"/></svg>