<svg width="100px" height="100px" viewBox="0 0 100 100" version="1.1" xmlns="http://www.w3.org/2000/svg" xmlns:xlink="http://www.w3.org/1999/xlink" xml:space="preserve" style="fill-rule:evenodd;clip-rule:evenodd;"><g><path d="M99,38.416c0,6.523 -2.902,12.366 -7.486,16.311c2.625,3.567 4.176,7.972 4.176,12.74c0,11.881 -9.631,21.512 -21.512,21.512c-2.833,0 -5.537,-0.547 -8.013,-1.542c-3.668,6.621 -10.726,11.103 -18.831,11.103c-11.097,0 -20.233,-8.404 -21.389,-19.194c-0.586,0.047 -1.178,0.072 -1.777,0.072c-11.881,0 -21.513,-9.631 -21.513,-21.512c0,-4.568 1.424,-8.804 3.851,-12.286c-3.423,-3.81 -5.506,-8.849 -5.506,-14.375c0,-11.881 9.631,-21.512 21.512,-21.512c3.011,0 5.878,0.619 8.479,1.735c3.815,-6.015 10.532,-10.008 18.182,-10.008c10.236,0 18.803,7.149 20.978,16.727c2.29,-0.83 4.761,-1.283 7.337,-1.283c11.881,0 21.512,9.631 21.512,21.512Z" style="fill:#0d4e0a;fill-rule:nonzero;stroke:#21790f;stroke-width:1.96px;"/><path d="M78.131,44.001c0,3.674 -1.635,6.965 -4.216,9.188c1.478,2.009 2.351,4.49 2.351,7.175c0,6.693 -5.425,12.118 -12.116,12.118c-1.596,0 -3.119,-0.309 -4.515,-0.869c-2.065,3.729 -6.041,6.254 -10.606,6.254c-6.251,0 -11.396,-4.734 -12.048,-10.812c-0.33,0.027 -0.663,0.041 -1,0.041c-6.693,0 -12.118,-5.425 -12.118,-12.117c0,-2.573 0.803,-4.959 2.17,-6.921c-1.929,-2.145 -3.102,-4.984 -3.102,-8.096c0,-6.692 5.425,-12.117 12.117,-12.117c1.696,0 3.311,0.348 4.776,0.978c2.148,-3.389 5.932,-5.638 10.241,-5.638c5.766,0 10.591,4.027 11.816,9.422c1.29,-0.468 2.682,-0.723 4.133,-0.723c6.692,0 12.117,5.425 12.117,12.117Z" style="fill:#21790f;fill-rule:nonzero;"/></g></svg>