<svg width="100px" height="100px" viewBox="0 0 100 100" version="1.1" xmlns="http://www.w3.org/2000/svg" xmlns:xlink="http://www.w3.org/1999/xlink" xml:space="preserve" xmlns:serif="http://www.serif.com/" style="fill-rule:evenodd;clip-rule:evenodd;stroke-linejoin:round;stroke-miterlimit:1.41421;">
	<g>
		<path d="M99,38.416c0,6.523 -2.902,12.366 -7.486,16.311c2.625,3.567 4.176,7.972 4.176,12.74c0,11.881 -9.631,21.512 -21.512,21.512c-2.833,0 -5.537,-0.547 -8.013,-1.542c-3.668,6.621 -10.726,11.103 -18.831,11.103c-11.097,0 -20.233,-8.404 -21.389,-19.194c-0.586,0.047 -1.178,0.072 -1.777,0.072c-11.881,0 -21.513,-9.631 -21.513,-21.512c0,-4.568 1.424,-8.804 3.851,-12.286c-3.423,-3.81 -5.506,-8.849 -5.506,-14.375c0,-11.881 9.631,-21.512 21.512,-21.512c3.011,0 5.878,0.619 8.479,1.735c3.815,-6.015 10.532,-10.008 18.182,-10.008c10.236,0 18.803,7.149 20.978,16.727c2.29,-0.83 4.761,-1.283 7.337,-1.283c11.881,0 21.512,9.631 21.512,21.512Z" style="fill:#0d4e0a;fill-rule:nonzero;"/>
		<path d="M83.323,37.535c0,3.972 -1.768,7.532 -4.559,9.935c1.598,2.172 2.543,4.855 2.543,7.759c0,7.236 -5.867,13.103 -13.102,13.103c-1.726,0 -3.373,-0.334 -4.882,-0.94c-2.233,4.033 -6.532,6.763 -11.469,6.763c-6.759,0 -12.322,-5.119 -13.027,-11.691c-0.357,0.029 -0.718,0.044 -1.082,0.044c-7.236,0 -13.103,-5.867 -13.103,-13.102c0,-2.783 0.868,-5.362 2.346,-7.484c-2.085,-2.32 -3.354,-5.389 -3.354,-8.754c0,-7.237 5.866,-13.103 13.103,-13.103c1.833,0 3.579,0.377 5.164,1.057c2.323,-3.664 6.414,-6.096 11.074,-6.096c6.235,0 11.452,4.354 12.776,10.188c1.395,-0.505 2.9,-0.782 4.469,-0.782c7.237,0 13.103,5.867 13.103,13.103Z" style="fill:#21790f;fill-rule:nonzero;"/>
	</g>
	<g opacity="0.278571">
		<path d="M99,38.416c0,6.523 -2.902,12.366 -7.486,16.311c2.625,3.567 4.176,7.972 4.176,12.74c0,11.881 -9.631,21.512 -21.512,21.512c-2.833,0 -5.537,-0.547 -8.013,-1.542c-3.668,6.621 -10.726,11.103 -18.831,11.103c-11.097,0 -20.233,-8.404 -21.389,-19.194c-0.586,0.047 -1.178,0.072 -1.777,0.072c-11.881,0 -21.513,-9.631 -21.513,-21.512c0,-4.568 1.424,-8.804 3.851,-12.286c-3.423,-3.81 -5.506,-8.849 -5.506,-14.375c0,-11.881 9.631,-21.512 21.512,-21.512c3.011,0 5.878,0.619 8.479,1.735c3.815,-6.015 10.532,-10.008 18.182,-10.008c10.236,0 18.803,7.149 20.978,16.727c2.29,-0.83 4.761,-1.283 7.337,-1.283c11.881,0 21.512,9.631 21.512,21.512Z" style="fill:url(#_Radial1);fill-rule:nonzero;"/>
		<path d="M78.131,44.001c0,3.674 -1.635,6.965 -4.216,9.188c1.478,2.009 2.351,4.49 2.351,7.175c0,6.693 -5.425,12.118 -12.116,12.118c-1.596,0 -3.119,-0.309 -4.515,-0.869c-2.065,3.729 -6.041,6.254 -10.606,6.254c-6.251,0 -11.396,-4.734 -12.048,-10.812c-0.33,0.027 -0.663,0.041 -1,0.041c-6.693,0 -12.118,-5.425 -12.118,-12.117c0,-2.573 0.803,-4.959 2.17,-6.921c-1.929,-2.145 -3.102,-4.984 -3.102,-8.096c0,-6.692 5.425,-12.117 12.117,-12.117c1.696,0 3.311,0.348 4.776,0.978c2.148,-3.389 5.932,-5.638 10.241,-5.638c5.766,0 10.591,4.027 11.816,9.422c1.29,-0.468 2.682,-0.723 4.133,-0.723c6.692,0 12.117,5.425 12.117,12.117Z" style="fill:url(#_Radial2);fill-rule:nonzero;"/>
	</g>
	<defs>
		<radialGradient id="_Radial1" cx="0" cy="0" r="1" gradientUnits="userSpaceOnUse" gradientTransform="matrix(71.6122,0,0,71.6122,74.7737,18.9478)">
			<stop offset="0" style="stop-color:#36ff0c;stop-opacity:1"/>
			<stop offset="0.61" style="stop-color:#2fe10c;stop-opacity:1"/>
			<stop offset="0.82" style="stop-color:#1f9a0b;stop-opacity:1"/>
			<stop offset="1" style="stop-color:#0d4e0a;stop-opacity:1"/>
		</radialGradient>
		<radialGradient id="_Radial2" cx="0" cy="0" r="1" gradientUnits="userSpaceOnUse" gradientTransform="matrix(71.6122,0,0,71.6122,74.7737,18.9478)">
			<stop offset="0" style="stop-color:#36ff0c;stop-opacity:1"/>
			<stop offset="0.61" style="stop-color:#2fe10c;stop-opacity:1"/>
			<stop offset="0.82" style="stop-color:#1f9a0b;stop-opacity:1"/>
			<stop offset="1" style="stop-color:#0d4e0a;stop-opacity:1"/>
		</radialGradient>
	</defs>
</svg>