<svg width="100px" height="100px" version="1.1" xmlns="http://www.w3.org/2000/svg" xmlns:xlink="http://www.w3.org/1999/xlink" xml:space="preserve" style="fill-rule:evenodd;clip-rule:evenodd;">
    <path d="M25.059,69.78l-3.296,-6.511c-7.787,-15.379 -10.104,-27.157 -6.951,-35.334c-0.076,-6.313 -0.052,-15.039 0.401,-23.315c0.524,-9.547 8.302,1.582 14.162,11.463c4.724,-1.384 10.501,-2.076 17.328,-2.076l6.593,0c6.823,0 12.597,0.692 17.319,2.074c5.861,-9.884 13.646,-21.028 14.17,-11.477c0.453,8.282 0.478,17.014 0.403,23.328c3.153,8.177 0.836,19.956 -6.951,35.337l-3.296,6.511c-16.627,32.842 -33.255,32.842 -49.882,0Z" style="fill:#c9a741;"/>
    <path d="M33.851,60.656c-1.338,-1.197 -2.604,-2.307 -4.65,-3.002c-1.949,-0.661 -10.757,-0.545 -9.329,1.565c3.012,4.449 2.629,9.554 5.233,9.92c3.578,0.503 6.227,-0.657 8.539,-1.149c1.836,-0.39 4.924,-2.257 4.214,-4.014c-0.817,-2.019 -2.478,-1.952 -4.007,-3.32Z" style="fill:#a06f06;"/>
    <path d="M61.962,88.796c0.743,-1.409 0.874,-1.673 -2.003,-1.684c-1.157,-0.004 -2.15,0.365 -2.989,0.96c-2.616,1.858 -4.203,1.997 -4.018,3.754c0.336,3.188 -0.616,0.069 0.304,1.953c0.73,1.497 4.118,-1.122 5.477,-2.111c1.563,-1.136 2.38,-1.262 3.229,-2.872Z" style="fill:#a06f06;"/>
    <path d="M38.982,33.071c-2.001,-1.113 -2.367,-2.281 -5.284,-3.271c-2.778,-0.943 -18.214,-1.14 -15.783,1.559c5.951,6.607 -1.554,7.471 0.785,9.736c2.185,2.118 11.593,3.032 18.778,0.548c2.529,-0.874 9.371,-4.158 8.358,-6.662c-1.164,-2.878 -5.35,-1.074 -6.854,-1.91Z" style="fill:#a06f06;"/>
    <path d="M80.494,29.203c2.391,0.427 3.728,14.918 2.106,17.095c-1.621,2.177 -14.088,0.633 -14.857,-1.971c-0.768,-2.603 10.361,-15.551 12.751,-15.124Z" style="fill:#a06f06;"/>
    <path d="M79.101,10.206c0.647,4.399 -4.046,6.637 -7.16,10.883c-1.981,2.7 -0.466,4.005 -2.918,5.559c-4.205,2.665 -15.711,3.49 -15.836,-1.593c-0.069,-2.804 4.93,-7.107 10.614,-10.452c1.79,-1.054 4.8,2.016 6.589,1.229c2.056,-0.905 3.007,-5.208 4.538,-5.947c1.438,-0.694 3.347,-0.321 4.173,0.321Z" style="fill:#a06f06;"/>
    <path d="M44.384,57.195c-1.143,0.951 -3.163,3.5 -1.97,4.002c0.531,0.224 3.625,-1.074 5.666,-1.071c2.046,0.002 3.147,0.674 4.248,0.001c1.293,-0.791 8.717,-7.515 6.205,-8.594c-2.032,-0.873 -5.304,1.511 -8.287,3.147c-2.57,1.41 -4.556,1.429 -5.862,2.515Z" style="fill:#a06f06;"/>
    <path d="M77.725,65.37c0.365,-1.852 1.311,-3.554 2.043,-4.733c0.92,-1.482 -0.441,0.553 1.541,-4.04c-3.211,0.122 -4.366,0.642 -6.384,1.484c-2.196,0.918 -13.501,11.101 -9.493,12.641c3.242,1.246 7.712,-2.602 12.293,-5.352Z" style="fill:#a06f06;"/>
    <path d="M14.996,9.14c0.294,1.626 -1.313,4.947 -0.252,4.37c1.246,-0.678 5.678,-4.655 3.383,-5.784c-1.857,-0.913 -3.31,0.426 -3.131,1.414Z" style="fill:#a06f06;"/>
    <path d="M43.046,81.801c-1.302,-0.294 -3.327,-0.341 -4.874,-0.089c-1.511,0.247 -6.328,1.25 -4.829,2.409c3.161,2.444 5.26,7.685 6.69,6.351c1.473,-1.374 0.434,-1.523 1.953,-2.408c1.207,-0.702 3.193,0.927 4.247,-0.715c0.874,-1.363 -1.402,-5.144 -3.187,-5.548Z" style="fill:#a06f06;"/>
    <path d="M25.059,69.78l-3.296,-6.511c-7.787,-15.379 -10.104,-27.157 -6.951,-35.334c-0.076,-6.313 -0.052,-15.039 0.401,-23.315c0.524,-9.547 8.302,1.582 14.162,11.463c4.724,-1.384 10.501,-2.076 17.328,-2.076l6.593,0c6.823,0 12.597,0.692 17.319,2.074c5.861,-9.884 13.646,-21.028 14.17,-11.477c0.453,8.282 0.478,17.014 0.403,23.328c3.153,8.177 0.836,19.956 -6.951,35.337l-3.296,6.511c-16.627,32.842 -33.255,32.842 -49.882,0Z" style="fill:none;stroke:#250000;stroke-width:1.96px;"/>
    <path d="M65.536,98.788c0,0 -0.746,-8.649 -2.509,-10.917c-0.9,-1.159 0.215,-2.053 1.437,-3.365c1.002,-1.075 2.096,-2.97 2.681,-2.885c0.198,0.029 0.34,0.86 0.397,1.252c1.354,9.389 -2.006,15.915 -2.006,15.915Z" style="fill:#fffed5;fill-rule:nonzero;stroke:#6d6d6d;stroke-width:0.6px;"/>
    <path d="M52.808,72.587c-0.986,2.269 -0.504,6.517 -1.635,7.519c-0.649,0.575 -1.042,0.391 -1.48,0.023c-0.893,-0.748 -0.314,-4.817 -1.534,-7.298l-2.8,-1.352c-4.498,-0.807 -9.429,-3.67 -3.999,-6.048c0.998,-0.437 2.391,-1.078 4.885,0.723l3.97,0.512l4.188,-0.409c4.23,-1.205 3.553,-0.672 4.648,-0.38c4.916,1.312 2.577,4.376 -3.451,5.509l-2.792,1.201Z" style="fill:#311004;fill-rule:nonzero;"/>
    <path d="M60.741,67.966c0,0.586 -3.273,1.987 -4.065,1.987c-0.791,0 0.06,-2.289 0.06,-2.875c0,-0.587 0.714,-0.814 1.505,-0.814c0.792,0 2.5,1.115 2.5,1.702Z" style="fill-rule:nonzero;"/>
    <path d="M40.596,67.966c0,0.586 3.273,1.987 4.065,1.987c0.791,0 -0.06,-2.29 -0.06,-2.876c0,-0.586 -0.713,-0.813 -1.505,-0.813c-0.792,0 -2.5,1.115 -2.5,1.702Z" style="fill-rule:nonzero;"/>
    <path d="M18.379,6.673c0.114,-0.377 0.274,-0.253 0.485,-0.177c1.582,0.563 5.666,8.069 5.938,9.024c0.123,0.437 0.14,0.85 -0.032,1.209c-0.621,1.3 -4.989,2.971 -5.606,2.734c-0.239,-0.091 -0.429,-0.367 -0.58,-0.777c-1.036,-2.818 -0.393,-11.391 -0.205,-12.013Z" style="fill:#fffed5;fill-rule:nonzero;"/>
    <path d="M81.621,6.672c-0.114,-0.376 -0.273,-0.252 -0.485,-0.176c-1.581,0.563 -5.666,8.069 -5.937,9.024c-0.123,0.436 -0.141,0.85 0.031,1.209c0.621,1.3 4.99,2.971 5.607,2.734c0.239,-0.091 0.429,-0.367 0.58,-0.777c1.035,-2.818 0.392,-11.391 0.204,-12.014Z" style="fill:#fffed5;fill-rule:nonzero;"/>
    <path d="M34.464,98.788c0,0 0.746,-8.649 2.509,-10.917c0.9,-1.158 -0.215,-2.053 -1.437,-3.365c-1.001,-1.075 -2.096,-2.97 -2.681,-2.885c-0.198,0.029 -0.339,0.86 -0.396,1.252c-1.355,9.389 2.005,15.915 2.005,15.915Z" style="fill:#fffed5;fill-rule:nonzero;stroke:#6d6d6d;stroke-width:0.6px;"/>
    <path d="M58.192,48.615c0,0 3.237,-4.462 5.566,-5.183c3.031,-0.938 9.094,-6.085 9.111,-6.067c0.122,0.122 -0.957,1.427 -0.951,1.447c0.152,0.476 2.034,6.011 0.739,8.221c-1.351,2.306 -14.465,1.582 -14.465,1.582Z" style="fill:#fff8f8;stroke:#000;stroke-width:0.6px;stroke-linecap:round;stroke-linejoin:round;stroke-miterlimit:1.5;"/>
    <path d="M61.642,44.777c2.078,-1.675 1.882,-1.131 3.36,-1.882c1.855,-0.975 3.789,-2.278 4.805,-3.074c1.93,4.441 -0.533,8.491 -2.711,8.702c-1.298,0.125 -4.435,-1.678 -5.454,-3.746Z" style="fill:url(#_Radial1);stroke:#000;stroke-width:0.56px;stroke-linecap:round;stroke-linejoin:round;stroke-miterlimit:1.5;"/>
    <ellipse cx="66.694" cy="44.429" rx="1.208" ry="2.388" style="fill:#fff;stroke:#000;stroke-width:0.56px;stroke-linecap:round;stroke-linejoin:round;stroke-miterlimit:1.5;"/>
    <path d="M41.808,48.615c0,0 -3.237,-4.462 -5.566,-5.183c-3.031,-0.938 -9.094,-6.085 -9.111,-6.067c-0.122,0.122 0.957,1.427 0.951,1.447c-0.152,0.476 -2.034,6.011 -0.739,8.221c1.351,2.306 14.465,1.582 14.465,1.582Z" style="fill:#fff8f8;stroke:#000;stroke-width:0.6px;stroke-linecap:round;stroke-linejoin:round;stroke-miterlimit:1.5;"/>
    <path d="M38.358,44.777c-2.078,-1.675 -1.882,-1.131 -3.36,-1.882c-1.855,-0.975 -3.789,-2.278 -4.805,-3.074c-1.93,4.441 0.533,8.491 2.711,8.702c1.298,0.125 4.435,-1.678 5.454,-3.746Z" style="fill:url(#_Radial2);stroke:#000;stroke-width:0.56px;stroke-linecap:round;stroke-linejoin:round;stroke-miterlimit:1.5;"/>
    <ellipse cx="33.306" cy="44.429" rx="1.208" ry="2.388" style="fill:#fff;stroke:#000;stroke-width:0.56px;stroke-linecap:round;stroke-linejoin:round;stroke-miterlimit:1.5;"/>
    <defs>
        <radialGradient id="_Radial1" cx="0" cy="0" r="1" gradientUnits="userSpaceOnUse" gradientTransform="matrix(-2.9261,-2.42948,-2.14112,2.57879,66.5598,47.9583)"><stop offset="0" style="stop-color:#e8d3b1;stop-opacity:1"/><stop offset="1" style="stop-color:#a9721b;stop-opacity:1"/></radialGradient>
        <radialGradient id="_Radial2" cx="0" cy="0" r="1" gradientUnits="userSpaceOnUse" gradientTransform="matrix(2.9261,-2.42948,2.14112,2.57879,33.4402,47.9583)"><stop offset="0" style="stop-color:#e8d3b1;stop-opacity:1"/><stop offset="1" style="stop-color:#a9721b;stop-opacity:1"/></radialGradient>
    </defs>
</svg>
