<?xml version="1.0" encoding="UTF-8" standalone="no"?>
<svg
   xmlns:svg="http://www.w3.org/2000/svg"
   xmlns="http://www.w3.org/2000/svg"
   xmlns:xlink="http://www.w3.org/1999/xlink"
   height="100.00001"
   width="100"
   id="svg76"
   version="1.1"
   viewBox="-50 -50 100.00286 100.00001">
  <defs
     id="defs40">
    <radialGradient
       gradientTransform="translate(4.73e-4,1.5e-5)"
       spreadMethod="repeat"
       r="10.105"
       cy="171.15199"
       cx="228.75301"
       gradientUnits="userSpaceOnUse"
       id="gradient-2">
      <stop
         id="stop2"
         style="stop-color: rgb(175, 107, 5);"
         offset="0" />
      <stop
         id="stop4"
         offset="1" />
    </radialGradient>
    <radialGradient
       gradientTransform="translate(-79.447594,25.499054)"
       r="10.105"
       cy="171.15199"
       cx="176.114"
       gradientUnits="userSpaceOnUse"
       id="gradient-13">
      <stop
         id="stop7"
         style="stop-color: rgb(175, 107, 5);"
         offset="0" />
      <stop
         id="stop9"
         style="stop-color: rgba(0, 0, 0, 1)"
         offset="1" />
    </radialGradient>
    <radialGradient
       gradientTransform="matrix(1.000004,0,0,1.000004,-0.001798,-0.001924)"
       spreadMethod="pad"
       r="3.8329999"
       cy="165.217"
       cx="225.49899"
       gradientUnits="userSpaceOnUse"
       id="gradient-14">
      <stop
         id="stop12"
         style="stop-color: rgb(255, 255, 255);"
         offset="0" />
      <stop
         id="stop14"
         style="stop-color: rgb(169, 169, 169);"
         offset="1" />
    </radialGradient>
    <radialGradient
       gradientTransform="translate(-79.925034,26.305771)"
       r="3.8329999"
       cy="165.806"
       cx="172.138"
       gradientUnits="userSpaceOnUse"
       id="gradient-16">
      <stop
         id="stop17"
         style="stop-color: rgb(255, 255, 255);"
         offset="0" />
      <stop
         id="stop19"
         style="stop-color: rgb(169, 169, 169);"
         offset="1" />
    </radialGradient>
    <radialGradient
       gradientTransform="translate(4.73e-4,1.5e-5)"
       r="10.105"
       cy="171.15199"
       cx="228.75301"
       gradientUnits="userSpaceOnUse"
       id="gradient-0">
      <stop
         id="stop22"
         style="stop-color: #bada55"
         offset="0" />
      <stop
         id="stop24"
         style="stop-color: #758d29"
         offset="1" />
    </radialGradient>
    <radialGradient
       gradientTransform="matrix(1.000004,0,0,1.000004,-0.001798,-0.001924)"
       r="3.8329999"
       cy="165.217"
       cx="225.49899"
       gradientUnits="userSpaceOnUse"
       id="gradient-1">
      <stop
         id="stop27"
         style="stop-color: #bada55"
         offset="0" />
      <stop
         id="stop29"
         style="stop-color: #758d29"
         offset="1" />
    </radialGradient>
    <pattern
       height="100"
       width="100"
       preserveAspectRatio="none"
       patternUnits="userSpaceOnUse"
       viewBox="0 0 376.8517 285.5553"
       id="pattern-1">
      <g
         id="g36"
         transform="matrix(3.2650189399719243, 0, 0, 3.2650189399719243, 1288.2295227050784, 671.3172616958618)">
        <rect
           id="rect32"
           style="fill: rgb(160, 111, 6);"
           height="87.459"
           width="115.421"
           y="-205.609"
           x="-394.555" />
        <path
           id="path34"
           style="fill: rgb(201, 167, 65);"
           d="M -383.88 -205.609 L -366.52 -205.609 C -366.51 -202.766 -362.005 -202.615 -358.804 -200.737 C -355.842 -198.999 -355.992 -200.86 -353.238 -202.912 C -351.219 -204.417 -349.696 -204.54 -349.168 -205.609 L -324.745 -205.609 C -325.176 -202.551 -319.224 -205.135 -315.841 -203.15 C -312.879 -201.412 -313.65 -194.418 -310.896 -196.47 C -308.84 -198.002 -305.732 -202.058 -304.269 -205.609 L -279.134 -205.609 L -279.134 -201.912 C -279.475 -201.902 -279.807 -201.895 -280.124 -201.895 C -284.136 -201.895 -289.213 -202.404 -290.431 -198.581 C -291.69 -194.629 -287.416 -190.803 -283.839 -188.704 C -281.755 -187.481 -280.597 -189.884 -279.134 -192.132 L -279.134 -155.032 C -281.185 -152.775 -283.549 -150.241 -285.446 -150.241 C -289.458 -150.241 -295.932 -150.44 -297.15 -146.617 C -298.409 -142.665 -298.175 -141.945 -294.598 -139.846 C -291.636 -138.108 -283.863 -139.192 -281.109 -141.244 C -280.492 -141.704 -279.814 -142.525 -279.134 -143.57 L -279.134 -118.15 L -284.896 -118.15 C -282.412 -121.618 -280.021 -126.865 -280.576 -129.529 C -281.394 -133.457 -286.715 -126.319 -290.727 -126.319 C -294.739 -126.319 -298.573 -126.361 -299.791 -122.538 C -300.241 -121.126 -300.937 -119.61 -301.482 -118.15 L -337.052 -118.15 C -336.786 -119.125 -336.696 -120.018 -336.849 -120.753 C -337.249 -122.676 -342.482 -120.204 -344.701 -120.669 C -347.015 -121.154 -346.35 -124.533 -348.398 -124.533 C -352.068 -124.533 -355.978 -121.58 -357.551 -118.15 L -394.555 -118.15 L -394.555 -155.582 C -392.075 -154.369 -389.36 -153.605 -387.287 -155.149 C -384.321 -157.359 -389.728 -159.852 -390.482 -163.473 C -391.3 -167.401 -387.456 -172.224 -391.468 -172.224 C -392.497 -172.224 -393.545 -171.992 -394.555 -171.582 L -394.555 -198.286 C -393.558 -199.189 -392.588 -200.139 -391.674 -200.82 C -389.13 -202.715 -384.633 -203.22 -383.88 -205.609 Z M -306.626 -174.112 C -307.885 -170.16 -309.515 -160.897 -305.938 -158.798 C -302.976 -157.06 -297.688 -164.513 -294.934 -166.565 C -291.968 -168.775 -283.084 -164.899 -283.838 -168.52 C -284.656 -172.448 -293.084 -181.465 -297.096 -181.465 C -301.108 -181.465 -305.408 -177.935 -306.626 -174.112 Z M -377.464 -161.53 C -378.723 -157.578 -372.119 -156.081 -368.542 -153.982 C -365.58 -152.244 -356.565 -158.144 -353.811 -160.196 C -350.845 -162.406 -346.31 -164.433 -347.064 -168.054 C -347.882 -171.982 -357.708 -167.174 -361.72 -167.174 C -365.732 -167.174 -376.246 -165.353 -377.464 -161.53 Z M -355.56 -143.976 C -356.819 -140.024 -357.672 -132.469 -354.095 -130.37 C -351.133 -128.632 -347.865 -138.105 -345.111 -140.157 C -342.145 -142.367 -333.261 -144.549 -334.015 -148.17 C -334.833 -152.098 -341.086 -151.018 -345.098 -151.018 C -349.11 -151.018 -354.342 -147.799 -355.56 -143.976 Z M -324.491 -130.15 C -325.75 -126.198 -331.885 -124.08 -328.308 -121.981 C -325.346 -120.243 -318.816 -124.123 -316.062 -126.175 C -313.096 -128.385 -307.474 -136.16 -308.228 -139.781 C -309.046 -143.709 -315.299 -142.629 -319.311 -142.629 C -323.323 -142.629 -323.273 -133.973 -324.491 -130.15 Z M -383.346 -187.072 C -384.605 -183.12 -382.817 -181.158 -379.24 -179.059 C -376.278 -177.321 -372.389 -175.298 -369.635 -177.35 C -366.669 -179.56 -361.979 -187.956 -362.733 -191.577 C -363.551 -195.505 -369.804 -194.425 -373.816 -194.425 C -377.828 -194.425 -382.128 -190.895 -383.346 -187.072 Z M -344.579 -191.818 C -345.838 -187.866 -352.904 -181.865 -349.327 -179.766 C -346.365 -178.028 -340.612 -181.443 -337.858 -183.495 C -334.892 -185.705 -333.775 -187.421 -334.529 -191.042 C -335.347 -194.97 -333.056 -198.55 -337.068 -198.55 C -341.08 -198.55 -343.361 -195.641 -344.579 -191.818 Z M -384.453 -140.248 C -385.712 -136.296 -387.342 -132.159 -383.765 -130.06 C -380.803 -128.322 -373.496 -128.474 -370.742 -130.526 C -367.776 -132.736 -373.028 -134.608 -373.782 -138.229 C -374.6 -142.157 -370.911 -147.601 -374.923 -147.601 C -378.935 -147.601 -383.235 -144.071 -384.453 -140.248 Z M -319.347 -178.057 C -316.385 -176.319 -309.389 -179.579 -306.635 -181.631 C -303.669 -183.841 -322.546 -194.864 -323.764 -191.041 C -325.023 -187.089 -322.924 -180.156 -319.347 -178.057 Z M -333.656 -164.325 C -334.915 -160.373 -337.942 -158.256 -334.365 -156.157 C -331.403 -154.419 -331.553 -156.28 -328.799 -158.332 C -325.833 -160.542 -323.939 -159.773 -324.693 -163.394 C -325.511 -167.322 -322.133 -171.057 -326.145 -171.057 C -330.157 -171.057 -332.438 -168.148 -333.656 -164.325 Z" />
      </g>
    </pattern>
    <pattern
       xlink:href="#pattern-1"
       patternTransform="matrix(0.75921098,0.63746326,-0.77645892,0.92475312,-3.5729504,-79.271463)"
       id="pattern-1-0" />
  </defs>
  <path
     id="path44"
     style="fill:url(#pattern-1-0);fill-rule:evenodd;stroke:#250000;stroke-width:2.04435587"
     d="m -24.92529,19.803044 -3.2941,-6.50788 c -7.78221,-15.3694711 -10.09783,-27.140877 -6.94679,-35.312859 -0.0764,-6.309563 -0.0512,-15.030112 0.40073,-23.301582 0.52341,-9.54168 8.29741,1.580974 14.15374,11.456579 4.72114,-1.383354 10.49507,-2.075024 17.3184696,-2.075024 h 6.5889398 c 6.8193296,0 12.5891796,0.690995 17.3088996,2.072975 5.857071,-9.879004 13.637911,-21.015987 14.161261,-11.470877 0.45317,8.277586 0.4777,17.004271 0.40279,23.314524 3.15167,8.172655 0.83607,19.9447529 -6.94675,35.316264 l -3.29406,6.50788 c -16.6173206,32.822148 -33.2353204,32.822148 -49.85313,0 z" />
  <g
     id="g50"
     transform="matrix(0.68145237,0,0,0.68145237,-80.66634,-140.28956)">
    <ellipse
       id="ellipse46"
       transform="matrix(0.999998,0,0,1,-79.105413,25.499039)"
       style="fill:url(#gradient-2);stroke:url(#gradient-0);stroke-width:0"
       ry="10.285"
       rx="10.105"
       cy="171.15199"
       cx="228.75301" />
    <circle
       r="3.8329999"
       id="ellipse48"
       transform="matrix(1,0,0,0.999996,-79.756912,26.370882)"
       style="fill:url(#gradient-14);stroke:url(#gradient-1);stroke-width:0"
       cy="165.215"
       cx="225.498" />
  </g>
  <g
     id="g56"
     transform="matrix(0.68145237,0,0,0.68145237,-87.18123,-140.28956)">
    <ellipse
       id="ellipse52"
       style="fill:url(#gradient-13)"
       ry="10.285"
       rx="10.105"
       cy="196.651"
       cx="96.666" />
    <circle
       r="3.8329999"
       id="ellipse54"
       style="fill:url(#gradient-16)"
       cy="192.112"
       cx="92.212997" />
  </g>
  <path
     id="path58"
     style="fill:#fffed5;stroke:#6d6d6d;stroke-width:0.68145239"
     d="m 15.528609,48.793542 c 0,0 -0.74581,-8.64392 -2.50792,-10.91056 -0.89943,-1.15761 0.21547,-2.05148 1.4367,-3.36294 1.00066,-1.07441 2.09469,-2.96842 2.67904,-2.8836 0.19779,0.029 0.33949,0.86001 0.3963,1.252 1.35364,9.38349 -2.00412,15.9051 -2.00412,15.9051 z" />
  <g
     id="g66"
     transform="matrix(0.68145237,0,0,0.68145237,-83.78055,-122.20944)">
    <path
       id="path60"
       transform="rotate(180,123.48145,212.97241)"
       style="fill:#311004"
       d="m 119.899,213.431 c 1.445,-3.327 0.739,-9.557 2.397,-11.026 0.952,-0.844 1.528,-0.574 2.171,-0.035 1.309,1.098 0.461,7.065 2.25,10.704 l 4.106,1.982 c 6.597,1.184 13.829,5.383 5.865,8.871 -1.463,0.641 -3.507,1.581 -7.164,-1.06 l -5.822,-0.751 -6.143,0.599 c -6.204,1.768 -5.211,0.986 -6.817,0.557 -7.209,-1.924 -3.779,-6.417 5.061,-8.079 z" />
    <path
       id="path62"
       d="m 138.699,205.736 c 0,0.86 -4.8,2.914 -5.961,2.914 -1.161,0 0.088,-3.357 0.088,-4.217 0,-0.86 1.046,-1.193 2.207,-1.193 1.161,0 3.666,1.635 3.666,2.496 z" />
    <path
       id="path64"
       transform="rotate(180,112.38243,205.94501)"
       d="m 115.61,206.154 c 0,-0.86 -4.8,-2.914 -5.961,-2.914 -1.161,0 0.088,3.358 0.088,4.218 0,0.86 1.046,1.192 2.207,1.192 1.161,0 3.666,-1.635 3.666,-2.496 z" />
  </g>
  <g
     id="g68"
     transform="matrix(1.988763,0,0,1.988763,831.53659,307.87945)" />
  <path
     id="path70"
     style="fill:#fffed5;stroke-width:0.68145239"
     d="m -31.60081,-43.268104 c 0.1138,-0.376159 0.27332,-0.25214 0.48457,-0.176493 1.58094,0.562877 5.66285,8.064304 5.93416,9.01902 0.12329,0.436128 0.14025,0.849769 -0.0315,1.208215 -0.62083,1.298858 -4.98684,2.969087 -5.60358,2.732621 -0.23852,-0.09132 -0.42862,-0.366619 -0.57925,-0.776851 -1.03508,-2.816455 -0.39247,-11.384347 -0.20446,-12.006512 z" />
  <path
     id="path72"
     style="fill:#fffed5;stroke-width:0.68145239"
     d="m 31.60437,-43.268191 c -0.11383,-0.376166 -0.27328,-0.252136 -0.48452,-0.176498 -1.581,0.562881 -5.66289,8.064307 -5.93409,9.019024 -0.12325,0.436132 -0.14038,0.84977 0.0312,1.208214 0.62093,1.298848 4.98692,2.969087 5.60366,2.732622 0.23851,-0.09132 0.42867,-0.366621 0.57924,-0.776856 1.03516,-2.816441 0.39253,-11.384353 0.20446,-12.006506 z" />
  <path
     id="path74"
     style="fill:#fffed5;stroke:#6d6d6d;stroke-width:0.68145239"
     d="m -15.52541,48.793612 c 0,0 0.74579,-8.64392 2.50793,-10.91056 0.89944,-1.15762 -0.21553,-2.05149 -1.43677,-3.36296 -1.00068,-1.0744 -2.09458,-2.9684 -2.679,-2.88359 -0.19778,0.029 -0.33965,0.86 -0.39633,1.252 -1.35365,9.38349 2.00417,15.90511 2.00417,15.90511 z" />
</svg>
