<svg width="100" height="100" version="1.1" viewBox="0 0 99.999999 100.00001" xmlns="http://www.w3.org/2000/svg" xmlns:xlink="http://www.w3.org/1999/xlink">
 <defs>
  <radialGradient id="gradient-2" cx="228.75" cy="171.15" r="10.105" gradientTransform="translate(4.73e-4,1.5e-5)" gradientUnits="userSpaceOnUse" spreadMethod="repeat">
   <stop stop-color="#af6b05" offset="0"/>
   <stop offset="1"/>
  </radialGradient>
  <radialGradient id="gradient-13" cx="176.11" cy="171.15" r="10.105" gradientTransform="translate(-79.448 25.499)" gradientUnits="userSpaceOnUse">
   <stop stop-color="#af6b05" offset="0"/>
   <stop stop-color="rgba(0, 0, 0, 1)" offset="1"/>
  </radialGradient>
  <radialGradient id="gradient-14" cx="225.5" cy="165.22" r="3.833" gradientTransform="matrix(1 0 0 1 -.001798 -.001924)" gradientUnits="userSpaceOnUse">
   <stop stop-color="#fff" offset="0"/>
   <stop stop-color="#a9a9a9" offset="1"/>
  </radialGradient>
  <radialGradient id="gradient-16" cx="172.14" cy="165.81" r="3.833" gradientTransform="translate(-79.925 26.306)" gradientUnits="userSpaceOnUse">
   <stop stop-color="#fff" offset="0"/>
   <stop stop-color="#a9a9a9" offset="1"/>
  </radialGradient>
  <pattern id="pattern-1" width="100" height="100" patternUnits="userSpaceOnUse" preserveAspectRatio="none" viewBox="0 0 376.8517 285.5553">
   <g transform="matrix(3.265 0 0 3.265 1288.2 671.32)">
    <rect x="-394.56" y="-205.61" width="115.42" height="87.459" fill="#a06f06"/>
    <path d="m-383.88-205.61h17.36c0.01 2.843 4.515 2.994 7.716 4.872 2.962 1.738 2.812-0.123 5.566-2.175 2.019-1.505 3.542-1.628 4.07-2.697h24.423c-0.431 3.058 5.521 0.474 8.904 2.459 2.962 1.738 2.191 8.732 4.945 6.68 2.056-1.532 5.164-5.588 6.627-9.139h25.135v3.697c-0.341 0.01-0.673 0.017-0.99 0.017-4.012 0-9.089-0.509-10.307 3.314-1.259 3.952 3.015 7.778 6.592 9.877 2.084 1.223 3.242-1.18 4.705-3.428v37.1c-2.051 2.257-4.415 4.791-6.312 4.791-4.012 0-10.486-0.199-11.704 3.624-1.259 3.952-1.025 4.672 2.552 6.771 2.962 1.738 10.735 0.654 13.489-1.398 0.617-0.46 1.295-1.281 1.975-2.326v25.42h-5.762c2.484-3.468 4.875-8.715 4.32-11.379-0.818-3.928-6.139 3.21-10.151 3.21s-7.846-0.042-9.064 3.781c-0.45 1.412-1.146 2.928-1.691 4.388h-35.57c0.266-0.975 0.356-1.868 0.203-2.603-0.4-1.923-5.633 0.549-7.852 0.084-2.314-0.485-1.649-3.864-3.697-3.864-3.67 0-7.58 2.953-9.153 6.383h-37.004v-37.432c2.48 1.213 5.195 1.977 7.268 0.433 2.966-2.21-2.441-4.703-3.195-8.324-0.818-3.928 3.026-8.751-0.986-8.751-1.029 0-2.077 0.232-3.087 0.642v-26.704c0.997-0.903 1.967-1.853 2.881-2.534 2.544-1.895 7.041-2.4 7.794-4.789zm77.254 31.497c-1.259 3.952-2.889 13.215 0.688 15.314 2.962 1.738 8.25-5.715 11.004-7.767 2.966-2.21 11.85 1.666 11.096-1.955-0.818-3.928-9.246-12.945-13.258-12.945s-8.312 3.53-9.53 7.353zm-70.838 12.582c-1.259 3.952 5.345 5.449 8.922 7.548 2.962 1.738 11.977-4.162 14.731-6.214 2.966-2.21 7.501-4.237 6.747-7.858-0.818-3.928-10.644 0.88-14.656 0.88s-14.526 1.821-15.744 5.644zm21.904 17.554c-1.259 3.952-2.112 11.507 1.465 13.606 2.962 1.738 6.23-7.735 8.984-9.787 2.966-2.21 11.85-4.392 11.096-8.013-0.818-3.928-7.071-2.848-11.083-2.848s-9.244 3.219-10.462 7.042zm31.069 13.826c-1.259 3.952-7.394 6.07-3.817 8.169 2.962 1.738 9.492-2.142 12.246-4.194 2.966-2.21 8.588-9.985 7.834-13.606-0.818-3.928-7.071-2.848-11.083-2.848s-3.962 8.656-5.18 12.479zm-58.855-56.922c-1.259 3.952 0.529 5.914 4.106 8.013 2.962 1.738 6.851 3.761 9.605 1.709 2.966-2.21 7.656-10.606 6.902-14.227-0.818-3.928-7.071-2.848-11.083-2.848s-8.312 3.53-9.53 7.353zm38.767-4.746c-1.259 3.952-8.325 9.953-4.748 12.052 2.962 1.738 8.715-1.677 11.469-3.729 2.966-2.21 4.083-3.926 3.329-7.547-0.818-3.928 1.473-7.508-2.539-7.508s-6.293 2.909-7.511 6.732zm-39.874 51.57c-1.259 3.952-2.889 8.089 0.688 10.188 2.962 1.738 10.269 1.586 13.023-0.466 2.966-2.21-2.286-4.082-3.04-7.703-0.818-3.928 2.871-9.372-1.141-9.372s-8.312 3.53-9.53 7.353zm65.106-37.809c2.962 1.738 9.958-1.522 12.712-3.574 2.966-2.21-15.911-13.233-17.129-9.41-1.259 3.952 0.84 10.885 4.417 12.984zm-14.309 13.732c-1.259 3.952-4.286 6.069-0.709 8.168 2.962 1.738 2.812-0.123 5.566-2.175 2.966-2.21 4.86-1.441 4.106-5.062-0.818-3.928 2.56-7.663-1.452-7.663s-6.293 2.909-7.511 6.732z" fill="#c9a741"/>
   </g>
  </pattern>
  <pattern id="pattern-1-0" patternTransform="matrix(.75921 .63746 -.77646 .92475 46.426 -29.271)" xlink:href="#pattern-1"/>
 </defs>
 <path d="m25.073 69.803-3.2941-6.5079c-7.7822-15.369-10.098-27.141-6.9468-35.313-0.0764-6.3096-0.0512-15.03 0.40073-23.302 0.52341-9.5417 8.2974 1.581 14.154 11.457 4.7211-1.3834 10.495-2.075 17.318-2.075h6.5889c6.8193 0 12.589 0.691 17.309 2.073 5.8571-9.879 13.638-21.016 14.161-11.471 0.45317 8.2776 0.4777 17.004 0.40279 23.315 3.1517 8.1727 0.83607 19.945-6.9468 35.316l-3.2941 6.5079c-16.617 32.822-33.235 32.822-49.853 0z" fill="url(#pattern-1-0)" fill-rule="evenodd" stroke="#250000" stroke-width="2.0444"/>
 <g transform="matrix(.68145 0 0 .68145 -30.668 -90.29)" stroke-width="0">
  <ellipse transform="matrix(1 0 0 1 -79.105 25.499)" cx="228.75" cy="171.15" rx="10.105" ry="10.285" fill="url(#gradient-2)"/>
  <circle transform="matrix(1 0 0 1 -79.757 26.371)" cx="225.5" cy="165.22" r="3.833" fill="url(#gradient-14)"/>
 </g>
 <g transform="matrix(.68145 0 0 .68145 -37.183 -90.29)">
  <ellipse cx="96.666" cy="196.65" rx="10.105" ry="10.285" fill="url(#gradient-13)"/>
  <circle cx="92.213" cy="192.11" r="3.833" fill="url(#gradient-16)"/>
 </g>
 <path d="m65.527 98.794s-0.74581-8.6439-2.5079-10.911c-0.89943-1.1576 0.21547-2.0515 1.4367-3.3629 1.0007-1.0744 2.0947-2.9684 2.679-2.8836 0.19779 0.029 0.33949 0.86001 0.3963 1.252 1.3536 9.3835-2.0041 15.905-2.0041 15.905z" fill="#fffed5" stroke="#6d6d6d" stroke-width=".68145"/>
 <g transform="matrix(.68145 0 0 .68145 -33.782 -72.209)">
  <path transform="rotate(180 123.48 212.97)" d="m119.9 213.43c1.445-3.327 0.739-9.557 2.397-11.026 0.952-0.844 1.528-0.574 2.171-0.035 1.309 1.098 0.461 7.065 2.25 10.704l4.106 1.982c6.597 1.184 13.829 5.383 5.865 8.871-1.463 0.641-3.507 1.581-7.164-1.06l-5.822-0.751-6.143 0.599c-6.204 1.768-5.211 0.986-6.817 0.557-7.209-1.924-3.779-6.417 5.061-8.079z" fill="#311004"/>
  <path d="m138.7 205.74c0 0.86-4.8 2.914-5.961 2.914s0.088-3.357 0.088-4.217 1.046-1.193 2.207-1.193 3.666 1.635 3.666 2.496z"/>
  <path transform="rotate(180 112.38 205.95)" d="m115.61 206.15c0-0.86-4.8-2.914-5.961-2.914s0.088 3.358 0.088 4.218 1.046 1.192 2.207 1.192 3.666-1.635 3.666-2.496z"/>
 </g>
 <g fill="#fffed5" stroke-width=".68145">
  <path d="m18.398 6.7319c0.1138-0.37616 0.27332-0.25214 0.48457-0.17649 1.5809 0.56288 5.6628 8.0643 5.9342 9.019 0.12329 0.43613 0.14025 0.84977-0.0315 1.2082-0.62083 1.2989-4.9868 2.9691-5.6036 2.7326-0.23852-0.09132-0.42862-0.36662-0.57925-0.77685-1.0351-2.8165-0.39247-11.384-0.20446-12.007z"/>
  <path d="m81.603 6.7318c-0.11383-0.37617-0.27328-0.25214-0.48452-0.1765-1.581 0.56288-5.6629 8.0643-5.9341 9.019-0.12325 0.43613-0.14038 0.84977 0.0312 1.2082 0.62093 1.2988 4.9869 2.9691 5.6037 2.7326 0.23851-0.09132 0.42867-0.36662 0.57924-0.77686 1.0352-2.8164 0.39253-11.384 0.20446-12.007z"/>
  <path d="m34.473 98.794s0.74579-8.6439 2.5079-10.911c0.89944-1.1576-0.21553-2.0515-1.4368-3.363-1.0007-1.0744-2.0946-2.9684-2.679-2.8836-0.19778 0.029-0.33965 0.86-0.39633 1.252-1.3536 9.3835 2.0042 15.905 2.0042 15.905z" stroke="#6d6d6d"/>
 </g>
</svg>
