<svg width="100px" height="100px" viewBox="0 0 100 100" version="1.1" xmlns="http://www.w3.org/2000/svg" xmlns:xlink="http://www.w3.org/1999/xlink" xml:space="preserve" xmlns:serif="http://www.serif.com/" style="fill-rule:evenodd;clip-rule:evenodd;stroke-linejoin:round;stroke-miterlimit:1.41421;"><g><g><path id="path3704" d="M37.173,0.01c2.584,-0.366 42.271,9.239 43.936,10.555c1.942,1.536 18.867,37.964 18.891,40.488c0.024,2.523 -18.692,38.223 -20.37,39.787c-1.679,1.564 -42.019,9.758 -44.292,9.125c-2.273,-0.632 -33.928,-26.211 -34.861,-28.408c-0.932,-2.197 -0.414,-42.42 0.821,-44.549c1.243,-2.14 33.194,-26.618 35.875,-26.998l0,0Z" style="fill:#3d3d3d;fill-rule:nonzero;"/><path id="path3706" d="M41.464,1.947c2.291,-0.325 37.48,8.192 38.955,9.359c1.723,1.362 16.73,33.662 16.751,35.9c0.022,2.237 -16.572,33.891 -18.06,35.277c-1.489,1.388 -37.258,8.651 -39.273,8.092c-2.015,-0.561 -30.084,-23.241 -30.911,-25.189c-0.825,-1.948 -0.367,-37.613 0.729,-39.501c1.101,-1.898 29.432,-23.601 31.809,-23.938l0,0Z" style="fill:#828282;fill-opacity:0.219608;fill-rule:nonzero;"/></g><g opacity="0.464286"><path id="path37041" serif:id="path3704" d="M37.173,0.01c2.584,-0.366 42.271,9.239 43.936,10.555c1.942,1.536 18.867,37.964 18.891,40.488c0.024,2.523 -18.692,38.223 -20.37,39.787c-1.679,1.564 -42.019,9.758 -44.292,9.125c-2.273,-0.632 -33.928,-26.211 -34.861,-28.408c-0.932,-2.197 -0.414,-42.42 0.821,-44.549c1.243,-2.14 33.194,-26.618 35.875,-26.998l0,0Z" style="fill:url(#_Radial1);fill-rule:nonzero;"/><path id="path37061" serif:id="path3706" d="M41.464,1.947c2.291,-0.325 37.48,8.192 38.955,9.359c1.723,1.362 16.73,33.662 16.751,35.9c0.022,2.237 -16.572,33.891 -18.06,35.277c-1.489,1.388 -37.258,8.651 -39.273,8.092c-2.015,-0.561 -30.084,-23.241 -30.911,-25.189c-0.825,-1.948 -0.367,-37.613 0.729,-39.501c1.101,-1.898 29.432,-23.601 31.809,-23.938l0,0Z" style="fill:url(#_Radial2);fill-rule:nonzero;"/></g><g><path id="path3714" d="M26.957,67.413c-0.599,-2.386 0.049,-5.341 1.706,-7.179c1.647,-1.826 4.557,-2.959 6.993,-2.502c2.004,0.375 2.748,3.114 4.583,3.992c1.972,0.944 5.002,-0.439 6.471,1.164c2.812,3.065 3.693,9.194 0.991,12.354c-2.299,2.687 -7.217,1.896 -10.658,0.969c-2.485,-0.67 -4.361,-2.749 -6.262,-4.462c-1.434,-1.292 -3.357,-2.478 -3.824,-4.336l0,0Z" style="fill:#a5a5a5;fill-rule:nonzero;"/><path id="path37141" serif:id="path3714" d="M66.615,71.111c1.28,0.731 2.366,2.185 2.591,3.587c0.222,1.392 -0.319,3.004 -1.399,3.784c-0.888,0.641 -2.379,-0.175 -3.431,0.196c-1.13,0.398 -1.603,2.159 -2.847,2.091c-2.38,-0.13 -5.432,-2.266 -5.871,-4.617c-0.372,-2 1.75,-3.627 3.401,-4.614c1.193,-0.712 2.796,-0.612 4.245,-0.67c1.092,-0.044 2.313,-0.325 3.311,0.243l0,0Z" style="fill:#a5a5a5;fill-rule:nonzero;"/><path id="path37142" serif:id="path3714" d="M23.736,29.88c1.822,-0.68 4.2,-0.424 5.788,0.726c1.578,1.142 2.721,3.342 2.574,5.305c-0.12,1.615 -2.207,2.439 -2.737,3.964c-0.571,1.639 0.78,3.912 -0.352,5.211c-2.163,2.486 -6.902,3.712 -9.619,1.852c-2.311,-1.583 -2.118,-5.535 -1.689,-8.332c0.31,-2.021 1.78,-3.682 2.961,-5.331c0.89,-1.245 1.655,-2.866 3.074,-3.395l0,0Z" style="fill:#a5a5a5;fill-rule:nonzero;"/><path id="path37143" serif:id="path3714" d="M69.644,55.165c0.588,-1.853 2.256,-3.568 4.14,-4.11c1.872,-0.538 4.309,-0.082 5.764,1.245c1.197,1.09 0.56,3.241 1.434,4.599c0.939,1.459 3.561,1.798 3.885,3.489c0.624,3.236 -1.332,7.723 -4.472,8.716c-2.671,0.843 -7.942,-1.999 -9.88,-4.061c-1.399,-1.49 -1.329,-8.434 -0.871,-9.878l0,0Z" style="fill:#a5a5a5;fill-rule:nonzero;"/><path id="path37144" serif:id="path3714" d="M60.781,63.552c-1.131,0.501 -2.65,0.43 -3.702,-0.238c-1.045,-0.664 -1.855,-2.016 -1.837,-3.268c0.014,-1.029 1.307,-1.633 1.585,-2.621c0.299,-1.062 -0.645,-2.452 0.023,-3.32c1.277,-1.661 4.237,-2.621 6.033,-1.545c1.528,0.916 2.396,4.623 2.232,6.414c-0.12,1.294 -3.454,4.188 -4.334,4.578l0,0Z" style="fill:#a5a5a5;fill-rule:nonzero;"/><path id="path37145" serif:id="path3714" d="M83.249,29.52c0.483,1.884 -0.023,4.221 -1.334,5.679c-1.303,1.448 -3.612,2.352 -5.548,1.998c-1.594,-0.291 -2.192,-2.454 -3.653,-3.142c-1.569,-0.741 -3.972,0.361 -5.144,-0.902c-2.242,-2.414 -2.96,-7.256 -0.822,-9.761c1.818,-2.131 7.794,-2.512 10.53,-1.789c1.976,0.522 5.595,6.45 5.971,7.917l0,0Z" style="fill:#a5a5a5;fill-rule:nonzero;"/><path id="path37146" serif:id="path3714" d="M61.479,13.244c1.147,1.842 0.855,4.474 -0.871,6.428c-1.715,1.942 -5.105,3.624 -8.183,3.858c-2.533,0.193 -3.919,-1.907 -6.329,-2.177c-2.591,-0.29 -6.085,1.631 -8.169,0.663c-3.989,-1.849 -6.125,-6.747 -3.339,-10.069c2.371,-2.826 8.564,-3.408 12.961,-3.504c3.175,-0.068 5.842,1.195 8.477,2.145c1.987,0.717 4.559,1.222 5.453,2.656l0,0Z" style="fill:#a5a5a5;fill-rule:nonzero;"/><path id="path37147" serif:id="path3714" d="M34.969,50.936c-1.513,-0.954 -1.914,-3.084 -0.835,-5.267c1.074,-2.168 3.741,-4.804 6.492,-6.208c2.262,-1.155 4.059,-0.099 6.328,-0.852c2.438,-0.808 5.141,-3.669 7.288,-3.757c4.11,-0.171 7.301,2.728 5.6,6.38c-1.447,3.106 -6.952,6.015 -10.941,7.837c-2.881,1.315 -5.635,1.41 -8.281,1.73c-1.996,0.242 -4.471,0.879 -5.651,0.137l0,0Z" style="fill:#a5a5a5;fill-rule:nonzero;"/></g></g><defs><radialGradient id="_Radial1" cx="0" cy="0" r="1" gradientUnits="userSpaceOnUse" gradientTransform="matrix(107.233,0,0,107.233,94.1381,2.90319)"><stop offset="0" style="stop-color:#a6a6a6;stop-opacity:1"/><stop offset="0.47" style="stop-color:#898989;stop-opacity:1"/><stop offset="1" style="stop-color:#3d3d3d;stop-opacity:1"/></radialGradient><radialGradient id="_Radial2" cx="0" cy="0" r="1" gradientUnits="userSpaceOnUse" gradientTransform="matrix(107.233,0,0,107.233,94.1381,2.90319)"><stop offset="0" style="stop-color:#a6a6a6;stop-opacity:1"/><stop offset="0.47" style="stop-color:#898989;stop-opacity:1"/><stop offset="1" style="stop-color:#3d3d3d;stop-opacity:1"/></radialGradient></defs></svg>