<svg width="100px" height="100px" viewBox="0 0 100 100" version="1.1" xmlns="http://www.w3.org/2000/svg" xmlns:xlink="http://www.w3.org/1999/xlink" xml:space="preserve" xmlns:serif="http://www.serif.com/" style="fill-rule:evenodd;clip-rule:evenodd;stroke-linejoin:round;stroke-miterlimit:1.41421;"><g><g><path d="M51.939,0.815c0.019,0.782 0.727,1.378 1.136,0.969c0.243,-0.243 0.317,-0.615 0.187,-0.839c-0.28,-0.466 -1.323,-0.559 -1.323,-0.13Z" style="fill:#8e7148;"/><path d="M54.398,3.106c-0.615,0.671 -0.596,0.746 0.671,1.714c1.49,1.137 2.086,0.988 2.086,-0.559c0,-1.714 -1.639,-2.384 -2.757,-1.155Z" style="fill:#b89c73;"/><path d="M59.279,3.386c-0.391,0.391 0.093,0.875 0.876,0.875c0.41,0 0.726,-0.26 0.726,-0.559c0,-0.558 -1.136,-0.782 -1.602,-0.316Z" style="fill:#a48252;"/><path d="M50.188,5.416c-0.95,0.951 0.801,3.317 2.478,3.317c0.707,0 0.838,-2.739 0.167,-3.242c-0.82,-0.596 -2.086,-0.633 -2.645,-0.075Z" style="fill:#a48252;"/><path d="M58.608,12.504c-1.458,-0.338 -3.677,-1.901 -3.912,-2.989c-0.112,-0.54 -0.279,-1.174 -0.354,-1.416c-0.074,-0.261 0.242,-0.726 0.69,-1.043c0.875,-0.615 3.409,-0.522 4.713,0.186c0.391,0.205 1.062,0.373 1.472,0.373c0.875,0 2.645,2.384 2.627,3.54c-0.037,1.834 -5.001,3.024 -5.236,1.349Z" style="fill:#695335;"/><path d="M35.544,15.793c-0.298,0.168 -1.117,0.41 -1.807,0.522c-1.378,0.205 -2.124,1.006 -2.44,2.59c-0.112,0.577 -0.634,1.602 -1.155,2.273c-0.969,1.266 -1.211,2.608 -0.559,3.018c0.205,0.13 0.372,0.521 0.372,0.875c0,1.863 3.503,3.354 6.13,2.627c1.267,-0.354 1.509,-0.745 1.397,-2.198c-0.019,-0.317 0.112,-1.528 0.298,-2.702c0.261,-1.676 0.205,-2.44 -0.242,-3.502c-0.317,-0.764 -0.447,-1.77 -0.317,-2.292c0.317,-1.266 -0.54,-1.881 -1.677,-1.211Z" style="fill:#e3d8c8;"/><path d="M74.363,18.78l-0.028,0.069c-0.106,0.106 -1.068,1.247 -1.629,0.789c-0.821,-0.672 -1.764,-1.627 -1.764,-1.926c0.018,-0.428 0.559,-1.043 1.117,-1.248c1.118,-0.428 1.677,-0.261 2.106,0.652c0.242,0.522 0.368,1.552 0.2,1.664l-0.002,0Z" style="fill:#c7af8f;"/><path d="M72.562,22.016c-0.149,0.372 -0.726,1.099 -1.322,1.621c-1.267,1.118 -0.969,3.13 0.726,4.918c0.857,0.932 0.913,1.099 0.466,2.161c-0.447,1.062 -0.391,1.23 0.466,2.161c0.503,0.559 1.229,1.472 1.583,2.031c0.354,0.559 1.472,1.472 2.46,2.012c1.006,0.54 1.825,1.136 1.825,1.304c0,0.54 2.124,0.354 2.609,-0.242c0.335,-0.41 0.633,-0.447 1.192,-0.149c0.521,0.279 0.875,0.279 1.136,0.018c0.28,-0.279 0.112,-0.503 -0.54,-0.763c-1.919,-0.727 -2.981,-2.925 -1.788,-3.67c0.987,-0.615 0.931,-1.137 -0.168,-2.013c-0.503,-0.391 -1.006,-1.08 -1.137,-1.546c-0.521,-1.788 -1.881,-4.918 -2.198,-5.067c-0.186,-0.075 -0.95,-0.783 -1.677,-1.565c-1.602,-1.695 -3.26,-2.254 -3.633,-1.211Z" style="fill:#ae8c5d;"/><path d="M17.617,32.152l-0.384,-0.001c-0.764,-0.075 -1.211,-0.317 -1.229,-0.671c-0.019,-0.317 -0.149,-0.838 -0.317,-1.174c-1.006,-2.217 0.333,-4.657 3.016,-3.539c0.67,0.279 0.95,0.205 1.397,-0.429c0.447,-0.652 0.727,-0.745 1.565,-0.466c0.559,0.187 1.565,0.41 2.217,0.503c2.683,0.373 2.291,2.087 -0.932,4.062c-1.714,1.057 -4.712,1.917 -5.333,1.715Z" style="fill:#b29265;"/><path d="M83.852,29.095c-0.41,0.41 -0.279,1.435 0.298,2.199c0.895,1.211 1.528,0.167 0.783,-1.286c-0.634,-1.248 -0.689,-1.285 -1.081,-0.913Z" style="fill:#c7af8f;"/><path d="M8.587,36.566c-0.131,0.13 -0.243,0.727 -0.243,1.304c0,0.596 -0.354,1.77 -0.782,2.608c-0.894,1.733 -0.838,2.627 0.447,6.633c0.522,1.676 1.043,2.664 1.472,2.794c0.354,0.112 0.745,0.447 0.857,0.727c0.391,1.043 2.235,0.074 3.502,-1.863c1.621,-2.478 1.677,-4.527 0.131,-5.664c-0.578,-0.428 -1.174,-1.229 -1.304,-1.751c-0.131,-0.54 -0.578,-1.304 -0.988,-1.714c-0.391,-0.391 -0.726,-1.062 -0.726,-1.453c0,-0.764 -1.938,-2.068 -2.366,-1.621Z" style="fill:#a28051;"/><path d="M84.933,36.659c-0.317,0.485 0.596,2.292 1.062,2.143c0.726,-0.243 0.633,-1.547 -0.112,-2.031c-0.428,-0.242 -0.838,-0.298 -0.95,-0.112Z" style="fill:#c7af8f;"/><path d="M86.256,45.956c-0.634,0.409 -0.261,2.85 0.484,3.148c1.23,0.466 1.826,-1.826 0.764,-2.906c-0.689,-0.671 -0.596,-0.652 -1.248,-0.242Z" style="fill:#c7af8f;"/><path d="M14.995,48.173c-2.31,3.521 -1.322,9.371 1.565,9.371c0.857,0 1.1,0.167 1.1,0.745c0,1.006 3.502,1.08 4.657,0.093c2.161,-1.844 2.217,-2.143 0.801,-3.596c-0.708,-0.745 -1.639,-1.341 -2.049,-1.341c-1.099,0 -1.658,-0.727 -3.056,-3.875c-1.415,-3.242 -1.732,-3.372 -3.018,-1.397Z" style="fill:#634e32;"/><path d="M90.913,53.538c-0.894,1.397 -1.174,5.682 -0.447,6.8c0.708,1.081 2.459,1.304 2.459,0.317c0,-0.336 0.615,-1.36 1.342,-2.254c0,0 0.701,-1.053 0.816,-1.578c0.115,-0.524 -0.127,-1.571 -0.127,-1.571c-1.137,-2.496 -3.018,-3.298 -4.043,-1.714Z" style="fill:#bea47f;"/><path d="M81.124,56.434c-0.875,0.875 -0.521,1.509 0.447,0.782c0.485,-0.372 0.82,-0.801 0.727,-0.95c-0.242,-0.41 -0.671,-0.335 -1.174,0.168Z" style="fill:#c7af8f;"/><path d="M73.997,56.5c-1.136,1.137 -0.54,2.907 1.23,3.689c0.931,0.41 1.676,0.95 1.676,1.211c0,0.894 1.509,2.105 2.609,2.105c0.596,0 1.192,0.186 1.322,0.391c0.447,0.727 2.031,1.118 2.795,0.708c0.913,-0.484 0.888,-1.331 1.111,-1.331c1.174,0 2.41,-2.376 1.832,-3.419c-0.801,-1.398 -3.595,-1.863 -4.49,-0.727c-0.726,0.932 -2.161,0.689 -3.409,-0.577c-2.124,-2.106 -3.856,-2.869 -4.676,-2.05Z" style="fill:#b08f61;"/><path d="M95.682,61.121c-0.26,1.024 0.243,1.62 1.398,1.639c0.745,0 1.173,-1.453 0.633,-2.124c-0.689,-0.82 -1.77,-0.577 -2.031,0.485Z" style="fill:#c7af8f;"/><path d="M82.567,79.359c-0.447,0.317 -0.82,0.895 -0.82,1.286c0,0.782 1.816,2.683 2.4,2.472c0.584,-0.211 1.736,-2.062 1.103,-3.739c-0.299,-0.764 -1.603,-0.764 -2.683,-0.019Z" style="fill:#b08f61;"/><path d="M79.211,85.326l0.003,0.018c0,0.875 -3.242,1.766 -4.286,0.797c-1.322,-1.248 -1.043,-4.807 0.429,-5.403c3.074,-1.211 5.31,0.279 4.546,3.037c-0.166,0.565 -0.418,1.136 -0.692,1.551Z" style="fill:#826742;"/><path d="M24.598,85.076l-0.304,-0.051c-0.727,-0.224 -2.256,-2.946 -1.66,-3.914c0.615,-1.006 4.713,0.391 4.713,1.602c0,0.838 -1.826,2.432 -2.423,2.432l-0.326,-0.069Z" style="fill:#b49569;"/><path d="M57.901,85.675c-0.634,1.677 0.912,5.403 2.254,5.403c0.931,0 2.217,-1.938 2.217,-3.335c0,-2.496 -3.67,-4.192 -4.471,-2.068Z" style="fill:#c7af8f;"/><path d="M41.133,86.569c-0.95,0.988 -1.453,1.938 -1.62,2.981c-0.28,1.751 -0.429,1.826 -1.342,0.727c-0.689,-0.857 -1.714,-0.634 -1.36,0.298c0.336,0.838 -0.745,1.006 -2.086,0.335c-1.267,-0.633 -2.515,0.037 -1.901,1.025c0.112,0.205 0.243,0.801 0.261,1.322c0.019,0.634 0.354,1.118 0.969,1.435c5.067,2.534 6.427,2.85 9.129,2.161c2.273,-0.577 2.515,-1.118 2.31,-4.956c-0.131,-2.366 -0.373,-3.688 -0.764,-4.098c-0.317,-0.354 -0.745,-1.099 -0.95,-1.658c-0.522,-1.379 -1.006,-1.286 -2.646,0.428Z" style="fill:#b29265;"/><path d="M25.931,89.662c-0.242,0.242 -0.447,0.745 -0.447,1.099c0,0.354 -0.205,1.081 -0.447,1.621c-0.577,1.267 0.484,2.403 2.534,2.683c1.397,0.167 1.49,0.13 1.919,-1.081c0.875,-2.441 0.652,-3.167 -1.267,-4.005c-2.031,-0.895 -1.751,-0.857 -2.292,-0.317Z" style="fill:#94754a;"/><path d="M25.999,21.618c-0.611,-0.23 -3.123,-3.156 -3.123,-3.962c0,-1.173 0.428,-1.844 1.192,-1.844c0.392,0 0.969,-0.261 1.286,-0.559c0.298,-0.317 0.708,-0.559 0.913,-0.559c0.205,0 0.447,0.242 0.577,0.559c0.112,0.298 0.615,0.559 1.099,0.559c0.485,0 0.895,0.168 0.895,0.373c0,0.205 0.242,0.372 0.54,0.372c0.894,0 1.006,0.652 0.354,1.938c-0.752,1.503 -2.83,3.244 -3.545,3.175c-0.002,0 -0.004,0 -0.006,0c-0.066,0 -0.128,-0.019 -0.182,-0.052Z" style="fill:#b49569;"/><path d="M20.133,15.362c-0.416,-0.336 -0.723,-1.679 -0.48,-2.344c0.447,-1.156 3.223,0.055 3.223,1.415c0,0.732 -1.735,0.947 -2.272,1.007c-0.115,0.013 -0.416,-0.023 -0.471,-0.078Z" style="fill:#b5966b;"/><path d="M38.472,14.691c-1.677,-0.131 -3.146,-3.831 -1.81,-4.654c0.205,-0.131 0.373,-0.522 0.373,-0.876c0,-0.354 0.205,-0.857 0.447,-1.099c0.559,-0.559 0.559,-0.559 2.683,0.149c2.571,0.894 3.223,2.329 2.235,5.067c-0.54,1.491 -2.749,1.338 -3.383,1.413c-0.024,0.003 -0.047,0.006 -0.07,0.009c-0.066,0.011 -0.138,0.018 -0.214,0.018c-0.095,0 -0.184,-0.01 -0.261,-0.027Z" style="fill:#8c6f47;"/><path d="M5.082,41.589c-0.475,0.016 -1.901,0.263 -2.308,-0.235c-0.931,-1.118 -0.987,-3.67 -0.074,-3.391c0.652,0.205 0.801,0.112 0.801,-0.54c0,-0.428 0.186,-1.136 0.391,-1.546c0.801,-1.491 3.67,0.764 3.707,2.906c-0.32,0.74 -1.555,2.003 -1.974,2.471c-0.142,0.158 -0.331,0.327 -0.543,0.335Z" style="fill:#b99d75;"/><path d="M65.851,93.198c-0.62,-0.017 -1.989,-0.83 -1.989,-1.543c0,-0.615 0.429,-0.708 1.77,-0.335c0.83,0.217 1.136,1.307 0.527,1.765c-0.06,0.07 -0.154,0.116 -0.26,0.116c-0.016,0 -0.032,-0.001 -0.048,-0.003Z" style="fill:#c7af8f;"/><path d="M51.458,97.225c-0.097,0.476 -0.302,1.15 -0.473,1.619c-0.045,0.124 -0.176,0.363 -0.27,0.465c-0.094,0.101 -0.205,0.131 -0.339,0.145c-0.326,0.034 -0.667,-0.071 -0.982,-0.124c-0.358,-0.06 -0.692,-0.031 -0.99,-0.271c-0.551,-0.444 -0.711,-1.292 -0.779,-1.951c-0.115,-1.1 0.02,-2.268 0.422,-3.301c0.182,-0.47 0.429,-0.928 0.781,-1.295c1.118,-1.173 1.378,-1.118 2.254,0.541c0.459,0.876 0.548,1.969 0.487,2.938c-0.022,0.349 -0.035,0.865 -0.111,1.234Z" style="fill:#ad8b5b;"/></g><g><path d="M75.562,64.76c0.147,0.082 0.315,0.247 0.473,0.508c0.373,0.633 4.333,1.926 5.023,2.261c1.337,0.687 0.93,5.286 0.934,6.645c0.001,0.584 -0.456,1.142 -0.91,1.509c-1.598,1.294 -6.325,4.948 -8.851,6.172c-0.469,0.227 -0.838,0.628 -1.196,1.007c-0.751,0.793 -2.366,1.756 -3.206,1.589c-0.666,-0.132 -1.228,-0.38 -1.924,-0.671c-1.338,-0.566 -5.374,-1.026 -6.445,-0.648c-0.129,0.2 -0.384,0.426 -0.71,0.61c-0.069,0.039 -0.138,0.074 -0.206,0.105c-1.615,1.078 -5.502,3.132 -6.046,3.132c-0.298,0 -0.857,0.354 -1.248,0.764c-1.621,1.751 -3.987,0.373 -5.012,-2.906c-0.633,-2.05 -3.286,-2.613 -5.078,-1.945c-1.791,0.668 -3.529,5.95 -5.671,5.95c-2.609,0 -6.279,-4.434 -6.279,-7.582c0,-2.627 -0.745,-4.546 -1.956,-5.012c-1.211,-0.447 -1.211,-0.466 -2.142,1.043c-0.448,0.746 -1.621,0.056 -1.789,-1.061c-0.074,-0.429 -0.708,-1.323 -1.397,-1.994c-0.708,-0.671 -1.286,-1.397 -1.286,-1.639c0,-0.243 -0.298,-0.801 -0.652,-1.23c-0.633,-0.801 -0.652,-0.764 -0.689,1.267c-0.02,1.312 -2.18,2.321 -2.815,2.831c-0.265,0.213 -0.661,0.252 -0.993,0.231c-0.347,-0.022 -0.781,-0.484 -1.237,-1.178c-1.367,-2.079 -2.929,-6.239 -2.929,-6.84c0,-0.242 0.317,-0.596 0.69,-0.801c0.391,-0.186 0.912,-0.875 1.173,-1.509c0.522,-1.267 1.249,-1.304 1.416,-0.074c0.112,0.689 2.813,3.428 3.409,3.428c0.112,0 0.15,-0.876 0.094,-1.957c-0.075,-1.229 0.149,-2.72 0.596,-4.005l0.708,-2.049l2.049,-0.224c3.149,-0.354 5.291,-1.677 5.44,-3.372c0.149,-1.788 -1.807,-4.602 -3.465,-4.993c-1.137,-0.261 -6.148,-4.955 -6.148,-5.738c0,-0.223 -0.838,-2.254 -1.863,-4.49c-2.944,-6.446 -2.012,-9.166 2.403,-7.005l1.565,0.746l2.105,-1.174c1.565,-0.894 2.478,-1.174 3.559,-1.099c1.117,0.093 1.714,-0.112 2.645,-0.895c1.286,-1.08 1.919,-1.211 3.018,-0.633c0.578,0.317 0.894,0.186 1.714,-0.745c0.54,-0.615 1.342,-1.137 1.77,-1.155c0.429,0 1.546,-0.224 2.459,-0.485c0.859,-0.227 1.454,-0.332 1.873,-0.303c0.079,-0.026 0.163,-0.04 0.249,-0.04c0.274,0 0.518,0.138 0.678,0.355c0.387,0.153 0.875,0.403 1.41,0.733c2.105,1.286 4.826,2.273 6.037,0.522l1.043,-1.509l-0.894,-0.95c-0.485,-0.54 -1.826,-1.453 -2.981,-2.031c-2.869,-1.453 -3.298,-2.496 -2.441,-6.054c0.69,-2.888 2.441,-6.26 3.708,-7.173c0.633,-0.447 1.229,-0.503 2.496,-0.298c1.528,0.261 2.795,0.298 5.72,0.13c0.596,-0.018 2.273,0.447 3.726,1.062c1.472,0.615 3.8,1.397 5.179,1.751c4.713,1.174 6.297,4.49 3.651,7.601c-0.95,1.1 -1.043,1.379 -0.614,1.863c0.913,1.044 1.714,2.944 1.714,4.025c0,2.142 4.09,6.469 5.562,7.382c1.159,0.718 0.958,3.265 1.537,4.18c0.417,0.659 1.303,1.423 1.936,1.311c0.634,-0.13 1.006,0.075 1.342,0.727c0.26,0.484 0.968,1.062 1.565,1.285c0.875,0.335 1.099,0.652 1.099,1.49c0,1.472 0.633,2.143 2.533,2.683c1.621,0.447 2.217,1.286 3.205,4.397c0.148,0.452 0.003,0.848 -0.318,1.107c-0.145,0.148 -0.432,0.268 -0.795,0.335c-0.016,0.004 -0.033,0.007 -0.053,0.01c-0.19,0.031 -0.399,0.049 -0.618,0.049c-0.19,0 -0.373,-0.013 -0.541,-0.037c-3.272,-0.107 -11.663,-0.849 -13.38,0.306c-2.143,1.472 -2.832,3.931 -1.062,3.931c0.95,0 1.714,0.652 1.714,1.472c0,0.316 0.26,1.061 0.559,1.639c0.316,0.596 0.558,1.453 0.558,1.919c0,0.969 0.634,1.304 2.478,1.304c0.299,0 0.538,0.017 0.718,0.059c0.013,-0.001 0.026,-0.001 0.04,-0.001c0.099,0 0.191,0.029 0.267,0.079Zm-31.15,-13.215c-0.633,0.745 -1.416,1.434 -1.714,1.546c-1.006,0.391 -2.477,4.527 -1.788,5.03c0.335,0.242 0.596,0.894 0.596,1.435c0,0.558 0.484,1.639 1.099,2.384c0.764,0.969 1.081,1.77 1.044,2.683c-0.094,4.21 2.738,5.421 2.98,1.267c0.075,-1.211 0.298,-2.646 0.503,-3.167c0.298,-0.746 0.243,-1.323 -0.205,-2.385c-0.968,-2.347 -0.763,-3.223 1.286,-5.365c2.776,-2.888 2.515,-4.583 -0.727,-4.695c-1.751,-0.075 -1.993,0.037 -3.074,1.267Zm17.96,-16.227c0,0.279 -0.336,0.931 -0.745,1.453c-0.746,0.95 -0.746,0.95 0.037,2.72c0.428,0.969 0.875,2.776 0.987,4.043c0.298,3.558 2.161,5.048 3.764,3.018c0.558,-0.727 0.652,-1.174 0.409,-1.956c-1.136,-3.559 -1.471,-5.086 -1.471,-6.577c0,-1.49 -0.112,-1.732 -0.913,-1.919c-0.485,-0.13 -0.988,-0.465 -1.099,-0.764c-0.261,-0.67 -0.969,-0.689 -0.969,-0.018Zm-18.722,2.204c0.064,0.073 -0.076,0.199 -0.374,0.423c-0.391,0.298 -0.578,0.745 -0.429,1.099c0.149,0.41 -0.186,1.006 -0.987,1.751c-1.434,1.341 -2.72,1.36 -2.906,0.037c-0.093,-0.689 -0.28,-0.819 -0.932,-0.652c-0.577,0.131 -0.969,-0.037 -1.285,-0.54c-0.261,-0.41 -0.671,-0.708 -0.932,-0.671c-0.689,0.149 -2.124,-0.913 -2.105,-1.546c0.019,-0.82 2.254,-2.888 3.335,-3.074c1.192,-0.205 2.403,0.056 4.341,0.894c1.234,0.559 2.374,1.788 2.274,2.279Z" style="fill:url(#_Radial1);"/></g></g><defs><radialGradient id="_Radial1" cx="0" cy="0" r="1" gradientUnits="userSpaceOnUse" gradientTransform="matrix(48.9375,0,0,38.9705,49.884,52.8637)"><stop offset="0" style="stop-color:#c7af8f;stop-opacity:1"/><stop offset="0.47" style="stop-color:#b99f7c;stop-opacity:1"/><stop offset="1" style="stop-color:#94754a;stop-opacity:1"/></radialGradient></defs></svg>