<svg width="100px" height="100px" viewBox="0 0 100 100" version="1.1" xmlns="http://www.w3.org/2000/svg" xmlns:xlink="http://www.w3.org/1999/xlink" xml:space="preserve" xmlns:serif="http://www.serif.com/" style="fill-rule:evenodd;clip-rule:evenodd;stroke-linejoin:round;stroke-miterlimit:1.41421;"><path d="M25.675,24.594c17.293,-10.216 -5.121,-22.455 0.493,-20.857c11.079,3.153 18.74,18.096 27.724,19.871c9.04,1.786 15.296,-17.354 17.557,-18.332c5.554,-2.404 -9.907,12.406 3.326,19.721c5.658,3.128 16.202,-12.196 17.956,-11.048c2.012,1.316 -12.099,16.255 -9.311,23.119c2.396,5.9 15.6,1.805 13.771,3.414c-3.423,3.013 -14.349,13.644 -2.781,21.52c8.618,5.868 -11.963,0.448 -17.903,4.347c-4.912,3.225 20.217,14.75 13.051,17.972c-2.686,1.207 -21.251,-13.486 -28.784,-10.889c-10.01,3.451 -9.459,24.056 -13.156,22.786c-3.514,-1.206 -0.052,-13.731 -3.666,-12.5c-4.069,1.385 -8.823,8.888 -14.786,8.27c-2.072,-0.215 5.584,-13.182 3.198,-15.956c-4.278,-4.974 -15.809,9.35 -20.183,8.159c-4.396,-1.196 15.538,-12.391 13.152,-15.888c-3.656,-5.36 -24.599,-2.308 -17.905,-8.708c4.934,-4.717 16.551,-8.5 14.578,-15.44c-0.732,-2.571 -10.46,4.197 -13.407,1.346c-2.416,-2.338 6.3,-5.166 5.708,-9.282c-0.683,-4.763 -10.482,-10.738 -10.724,-11.419c-2.113,-5.972 11.472,6.067 22.092,-0.206Z" style="fill:url(#_Radial1);"/><defs><radialGradient id="_Radial1" cx="0" cy="0" r="1" gradientUnits="userSpaceOnUse" gradientTransform="matrix(51.8797,0,0,46.2287,48.6516,46.7368)"><stop offset="0" style="stop-color:#c6af8e;stop-opacity:1"/><stop offset="0.65" style="stop-color:#a9a380;stop-opacity:0.85098"/><stop offset="0.84" style="stop-color:#5b855b;stop-opacity:0.458824"/><stop offset="1" style="stop-color:#006130;stop-opacity:0"/></radialGradient></defs></svg>