<?xml version="1.0" encoding="UTF-8" standalone="no"?><!DOCTYPE svg PUBLIC "-//W3C//DTD SVG 1.1//EN" "http://www.w3.org/Graphics/SVG/1.1/DTD/svg11.dtd"><svg width="100%" height="100%" viewBox="0 0 100 100" version="1.1" xmlns="http://www.w3.org/2000/svg" xmlns:xlink="http://www.w3.org/1999/xlink" xml:space="preserve" style="fill-rule:evenodd;clip-rule:evenodd;stroke-linejoin:round;stroke-miterlimit:1.41421;"><g id="Sand"><path d="M21.646,7.595c49.512,3.851 30.886,-15.949 52.658,1.646c21.772,17.594 26.329,23.037 22.658,30.253c-3.671,7.215 6.709,47.468 -9.494,52.278c-13.544,4.021 -66.329,12.405 -57.848,-7.595c8.481,-20 -29.747,8.608 -23.797,-6.202c5.949,-14.81 -8.861,-8.481 -1.139,-22.152c7.721,-13.671 -5.823,-50 16.962,-48.228Z" style="fill:#c6af8e;"/><path d="M4.452,84.843c-0.077,3.803 5.436,6.847 5.924,5.648c0.408,-1.002 -1.11,-5.953 -2.21,-5.466c-1.1,0.486 -3.678,-1.932 -3.714,-0.182Z" style="fill:#c6af8e;"/><path d="M4.452,84.843c-0.077,3.803 5.436,6.847 5.924,5.648c0.408,-1.002 -1.11,-5.953 -2.21,-5.466c-1.1,0.486 -3.678,-1.932 -3.714,-0.182Z" style="fill:#c6af8e;"/><path d="M86.204,12.359c2.611,-4.348 -1.383,-10.465 -3.109,-10.461c-1.466,0.004 -5.966,1.633 -6.305,3.452c-0.333,1.791 2.047,3.972 3.816,4.541c1.526,0.492 4.397,4.47 5.598,2.468Z" style="fill:#c6af8e;"/><path d="M92.818,16.39c-5.036,-1.372 -5.403,2.593 -4.656,3.659c0.634,0.905 4.257,4.139 6.04,4.248c1.754,0.107 3.717,-1.138 3.468,-2.263c-0.215,-0.97 -2.534,-5.012 -4.852,-5.644Z" style="fill:#c6af8e;"/><path d="M86.041,97.175c1.582,0.105 4.025,-0.842 5.277,-1.933c1.605,-1.399 4.604,-6.009 4.356,-6.46c-0.248,-0.451 -3.572,2.797 -5.844,3.754c-2.308,0.971 -7.373,1.301 -8.005,2.074c-0.57,0.698 2.898,2.477 4.216,2.565Z" style="fill:#c6af8e;"/><path d="M17.553,7.057c0.233,-0.891 -2.62,-0.732 -2.807,-0.598c-0.159,0.113 -0.654,0.593 -0.67,0.908c-0.016,0.31 0.459,0.698 0.657,0.652c0.171,-0.039 2.713,-0.552 2.82,-0.962Z" style="fill:#c6af8e;"/><path d="M7.651,13.017c-0.186,1.256 1.006,1.326 1.242,1.114c0.201,-0.179 0.808,-0.912 0.783,-1.346c-0.025,-0.427 -0.735,-0.888 -1,-0.796c-0.228,0.08 -0.939,0.449 -1.025,1.028Z" style="fill:#c6af8e;"/><path d="M94.592,26.235c0.89,-0.196 0.632,-1.013 0.43,-1.118c-0.172,-0.088 -0.818,-0.308 -1.103,-0.18c-0.28,0.125 -0.408,0.719 -0.278,0.873c0.112,0.133 0.541,0.515 0.951,0.425Z" style="fill:#c6af8e;"/><path d="M10.479,9.257c-0.546,0.678 -0.777,2.35 -0.501,2.378c0.235,0.024 1.428,-1.782 2.054,-2.374c0.48,-0.454 1.579,-0.846 1.704,-1.178c0.124,-0.333 -0.415,-1.012 -0.958,-0.816c-0.543,0.195 -1.977,1.589 -2.299,1.99Z" style="fill:#c6af8e;"/></g></svg>