<svg width="100px" height="100px" viewBox="0 0 100 100" version="1.1" xmlns="http://www.w3.org/2000/svg" xmlns:xlink="http://www.w3.org/1999/xlink" xml:space="preserve" style="fill-rule:evenodd;clip-rule:evenodd;stroke-linejoin:round;stroke-miterlimit:1.41421;"><g id="Sand"><path d="M21.646,7.595c49.512,3.851 30.886,-15.949 52.658,1.646c21.772,17.594 26.329,23.037 22.658,30.253c-3.671,7.215 6.709,47.468 -9.494,52.278c-13.544,4.021 -66.329,12.405 -57.848,-7.595c8.481,-20 -29.747,8.608 -23.797,-6.202c5.949,-14.81 -8.861,-8.481 -1.139,-22.152c7.721,-13.671 -5.823,-50 16.962,-48.228Z" style="fill:#c6af8e;"/><path d="M4.452,84.843c-0.077,3.803 5.436,6.847 5.924,5.648c0.408,-1.002 -1.11,-5.953 -2.21,-5.466c-1.1,0.486 -3.678,-1.932 -3.714,-0.182Z" style="fill:#c6af8e;"/><path d="M4.452,84.843c-0.077,3.803 5.436,6.847 5.924,5.648c0.408,-1.002 -1.11,-5.953 -2.21,-5.466c-1.1,0.486 -3.678,-1.932 -3.714,-0.182Z" style="fill:#c6af8e;"/><path d="M86.204,12.359c2.611,-4.348 -1.383,-10.465 -3.109,-10.461c-1.466,0.004 -5.966,1.633 -6.305,3.452c-0.333,1.791 2.047,3.972 3.816,4.541c1.526,0.492 4.397,4.47 5.598,2.468Z" style="fill:#c6af8e;"/><path d="M92.818,16.39c-5.036,-1.372 -5.403,2.593 -4.656,3.659c0.634,0.905 4.257,4.139 6.04,4.248c1.754,0.107 3.717,-1.138 3.468,-2.263c-0.215,-0.97 -2.534,-5.012 -4.852,-5.644Z" style="fill:#c6af8e;"/><path d="M86.041,97.175c1.582,0.105 4.025,-0.842 5.277,-1.933c1.605,-1.399 4.604,-6.009 4.356,-6.46c-0.248,-0.451 -3.572,2.797 -5.844,3.754c-2.308,0.971 -7.373,1.301 -8.005,2.074c-0.57,0.698 2.898,2.477 4.216,2.565Z" style="fill:#c6af8e;"/><path d="M17.553,7.057c0.233,-0.891 -2.62,-0.732 -2.807,-0.598c-0.159,0.113 -0.654,0.593 -0.67,0.908c-0.016,0.31 0.459,0.698 0.657,0.652c0.171,-0.039 2.713,-0.552 2.82,-0.962Z" style="fill:#c6af8e;"/><path d="M7.651,13.017c-0.186,1.256 1.006,1.326 1.242,1.114c0.201,-0.179 0.808,-0.912 0.783,-1.346c-0.025,-0.427 -0.735,-0.888 -1,-0.796c-0.228,0.08 -0.939,0.449 -1.025,1.028Z" style="fill:#c6af8e;"/><path d="M94.592,26.235c0.89,-0.196 0.632,-1.013 0.43,-1.118c-0.172,-0.088 -0.818,-0.308 -1.103,-0.18c-0.28,0.125 -0.408,0.719 -0.278,0.873c0.112,0.133 0.541,0.515 0.951,0.425Z" style="fill:#c6af8e;"/><path d="M10.479,9.257c-0.546,0.678 -0.777,2.35 -0.501,2.378c0.235,0.024 1.428,-1.782 2.054,-2.374c0.48,-0.454 1.579,-0.846 1.704,-1.178c0.124,-0.333 -0.415,-1.012 -0.958,-0.816c-0.543,0.195 -1.977,1.589 -2.299,1.99Z" style="fill:#c6af8e;"/></g><g><path id="path3704" d="M27.087,74.306c0.099,0.055 1.224,1.439 1.247,1.529c0.027,0.105 -0.349,1.818 -0.415,1.906c-0.065,0.089 -1.66,0.834 -1.76,0.844c-0.1,0.01 -1.718,-0.772 -1.78,-0.855c-0.063,-0.082 -0.486,-1.808 -0.46,-1.909c0.026,-0.101 1.108,-1.485 1.207,-1.526c0.1,-0.042 1.858,-0.047 1.961,0.011l0,0Z" style="fill:#2f2f2f;fill-rule:nonzero;"/><path id="path3706" d="M27.185,74.487c0.088,0.049 1.085,1.276 1.106,1.355c0.023,0.093 -0.31,1.613 -0.368,1.691c-0.058,0.078 -1.472,0.739 -1.561,0.748c-0.088,0.009 -1.523,-0.685 -1.579,-0.758c-0.055,-0.073 -0.43,-1.603 -0.407,-1.693c0.023,-0.089 0.982,-1.316 1.07,-1.353c0.089,-0.037 1.647,-0.042 1.739,0.01l0,0Z" style="fill:#737373;fill-opacity:0.219608;fill-rule:nonzero;"/><path id="path37041" d="M35.11,78.187c0.099,0.055 1.224,1.439 1.247,1.529c0.027,0.104 -0.349,1.818 -0.415,1.906c-0.066,0.089 -1.66,0.834 -1.76,0.844c-0.1,0.01 -1.718,-0.773 -1.78,-0.855c-0.063,-0.082 -0.486,-1.808 -0.46,-1.909c0.025,-0.101 1.108,-1.485 1.207,-1.526c0.1,-0.042 1.857,-0.047 1.961,0.011l0,0Z" style="fill:#2f2f2f;fill-rule:nonzero;"/><path id="path37061" d="M35.207,78.367c0.089,0.05 1.086,1.277 1.106,1.356c0.024,0.093 -0.309,1.612 -0.367,1.691c-0.059,0.078 -1.473,0.739 -1.561,0.748c-0.088,0.009 -1.524,-0.685 -1.579,-0.758c-0.055,-0.073 -0.43,-1.603 -0.407,-1.693c0.022,-0.09 0.982,-1.317 1.07,-1.353c0.088,-0.037 1.647,-0.042 1.738,0.009l0,0Z" style="fill:#737373;fill-opacity:0.219608;fill-rule:nonzero;"/><path id="path37042" d="M90.484,52.469c0.113,-0.016 1.846,0.403 1.919,0.46c0.085,0.068 0.824,1.658 0.825,1.769c0.001,0.11 -0.817,1.669 -0.89,1.737c-0.073,0.069 -1.835,0.426 -1.934,0.399c-0.099,-0.028 -1.482,-1.145 -1.523,-1.241c-0.04,-0.096 -0.018,-1.852 0.036,-1.945c0.055,-0.094 1.45,-1.163 1.567,-1.179l0,0Z" style="fill:#2f2f2f;fill-rule:nonzero;"/><path id="path37062" d="M90.671,52.553c0.1,-0.014 1.637,0.358 1.702,0.409c0.075,0.059 0.73,1.47 0.731,1.568c0.001,0.097 -0.724,1.48 -0.789,1.54c-0.065,0.061 -1.627,0.378 -1.715,0.354c-0.088,-0.025 -1.313,-1.015 -1.35,-1.1c-0.036,-0.085 -0.016,-1.643 0.032,-1.725c0.048,-0.083 1.286,-1.031 1.389,-1.046l0,0Z" style="fill:#737373;fill-opacity:0.219608;fill-rule:nonzero;"/><path id="path37043" d="M47.952,12.595c0.113,-0.016 1.846,0.404 1.919,0.461c0.085,0.067 0.824,1.658 0.825,1.768c0.001,0.11 -0.816,1.669 -0.889,1.738c-0.074,0.068 -1.836,0.426 -1.935,0.398c-0.099,-0.027 -1.481,-1.144 -1.522,-1.24c-0.041,-0.096 -0.018,-1.853 0.036,-1.946c0.054,-0.093 1.449,-1.162 1.566,-1.179l0,0Z" style="fill:#2f2f2f;fill-rule:nonzero;"/><path id="path37063" d="M48.14,12.68c0.1,-0.015 1.637,0.357 1.701,0.408c0.075,0.06 0.731,1.47 0.732,1.568c0,0.098 -0.724,1.48 -0.789,1.541c-0.065,0.06 -1.627,0.378 -1.715,0.353c-0.088,-0.024 -1.314,-1.015 -1.35,-1.1c-0.036,-0.085 -0.016,-1.642 0.032,-1.725c0.048,-0.083 1.285,-1.031 1.389,-1.045l0,0Z" style="fill:#737373;fill-opacity:0.219608;fill-rule:nonzero;"/><path id="path37044" d="M41.876,22.089c0.113,-0.016 1.846,0.403 1.919,0.461c0.085,0.067 0.824,1.658 0.825,1.768c0.001,0.11 -0.816,1.669 -0.889,1.737c-0.074,0.069 -1.835,0.427 -1.935,0.399c-0.099,-0.028 -1.481,-1.145 -1.522,-1.241c-0.041,-0.096 -0.018,-1.852 0.036,-1.945c0.054,-0.094 1.449,-1.163 1.566,-1.179l0,0Z" style="fill:#2f2f2f;fill-rule:nonzero;"/><path id="path37064" d="M42.064,22.173c0.1,-0.014 1.637,0.358 1.701,0.409c0.075,0.06 0.731,1.47 0.732,1.568c0.001,0.098 -0.724,1.48 -0.789,1.54c-0.065,0.061 -1.627,0.378 -1.715,0.354c-0.088,-0.025 -1.314,-1.015 -1.35,-1.1c-0.036,-0.085 -0.016,-1.643 0.032,-1.725c0.048,-0.083 1.285,-1.031 1.389,-1.046l0,0Z" style="fill:#737373;fill-opacity:0.219608;fill-rule:nonzero;"/><path id="path37045" d="M27.087,74.306c0.099,0.055 1.224,1.439 1.247,1.529c0.027,0.105 -0.349,1.818 -0.415,1.906c-0.065,0.089 -1.66,0.834 -1.76,0.844c-0.1,0.01 -1.718,-0.772 -1.78,-0.855c-0.063,-0.082 -0.486,-1.808 -0.46,-1.909c0.026,-0.101 1.108,-1.485 1.207,-1.526c0.1,-0.042 1.858,-0.047 1.961,0.011l0,0Z" style="fill:#2f2f2f;fill-rule:nonzero;"/><path id="path37065" d="M27.185,74.487c0.088,0.049 1.085,1.276 1.106,1.355c0.023,0.093 -0.31,1.613 -0.368,1.691c-0.058,0.078 -1.472,0.739 -1.561,0.748c-0.088,0.009 -1.523,-0.685 -1.579,-0.758c-0.055,-0.073 -0.43,-1.603 -0.407,-1.693c0.023,-0.089 0.982,-1.316 1.07,-1.353c0.089,-0.037 1.647,-0.042 1.739,0.01l0,0Z" style="fill:#737373;fill-opacity:0.219608;fill-rule:nonzero;"/><path id="path37046" d="M37.826,12.722c0.113,-0.016 1.846,0.403 1.919,0.461c0.084,0.067 0.823,1.658 0.825,1.768c0.001,0.11 -0.817,1.669 -0.89,1.737c-0.073,0.069 -1.835,0.427 -1.934,0.399c-0.1,-0.028 -1.482,-1.145 -1.523,-1.241c-0.041,-0.096 -0.018,-1.852 0.036,-1.945c0.054,-0.094 1.45,-1.163 1.567,-1.179l0,0Z" style="fill:#2f2f2f;fill-rule:nonzero;"/><path id="path37066" d="M38.013,12.806c0.1,-0.014 1.637,0.358 1.701,0.409c0.076,0.059 0.731,1.47 0.732,1.568c0.001,0.097 -0.724,1.48 -0.789,1.54c-0.065,0.061 -1.627,0.378 -1.715,0.354c-0.088,-0.025 -1.314,-1.015 -1.35,-1.1c-0.036,-0.085 -0.016,-1.643 0.032,-1.725c0.048,-0.083 1.285,-1.031 1.389,-1.046l0,0Z" style="fill:#737373;fill-opacity:0.219608;fill-rule:nonzero;"/><path id="path37047" d="M37.826,12.722c0.113,-0.016 1.846,0.403 1.919,0.461c0.084,0.067 0.823,1.658 0.825,1.768c0.001,0.11 -0.817,1.669 -0.89,1.737c-0.073,0.069 -1.835,0.427 -1.934,0.399c-0.1,-0.028 -1.482,-1.145 -1.523,-1.241c-0.041,-0.096 -0.018,-1.852 0.036,-1.945c0.054,-0.094 1.45,-1.163 1.567,-1.179l0,0Z" style="fill:#2f2f2f;fill-rule:nonzero;"/><path id="path37067" d="M38.013,12.806c0.1,-0.014 1.637,0.358 1.701,0.409c0.076,0.059 0.731,1.47 0.732,1.568c0.001,0.097 -0.724,1.48 -0.789,1.54c-0.065,0.061 -1.627,0.378 -1.715,0.354c-0.088,-0.025 -1.314,-1.015 -1.35,-1.1c-0.036,-0.085 -0.016,-1.643 0.032,-1.725c0.048,-0.083 1.285,-1.031 1.389,-1.046l0,0Z" style="fill:#737373;fill-opacity:0.219608;fill-rule:nonzero;"/></g></svg>