<svg width="100px" height="100px" viewBox="0 0 100 100" version="1.1" xmlns="http://www.w3.org/2000/svg" xmlns:xlink="http://www.w3.org/1999/xlink" xml:space="preserve" xmlns:serif="http://www.serif.com/" style="fill-rule:evenodd;clip-rule:evenodd;stroke-linejoin:round;stroke-miterlimit:1.41421;"><g><path id="path3704" d="M37.173,0.01c2.584,-0.366 42.271,9.239 43.936,10.555c1.942,1.536 18.867,37.964 18.891,40.488c0.024,2.523 -18.692,38.223 -20.37,39.787c-1.679,1.564 -42.019,9.758 -44.292,9.125c-2.273,-0.632 -33.928,-26.211 -34.861,-28.408c-0.932,-2.197 -0.414,-42.42 0.821,-44.549c1.243,-2.14 33.194,-26.618 35.875,-26.998l0,0Z" style="fill-rule:nonzero;"/><path id="path3706" d="M41.464,1.947c2.291,-0.325 37.48,8.192 38.955,9.359c1.723,1.362 16.73,33.662 16.751,35.9c0.022,2.237 -16.572,33.891 -18.06,35.277c-1.489,1.388 -37.258,8.651 -39.273,8.092c-2.015,-0.561 -30.084,-23.241 -30.911,-25.189c-0.825,-1.948 -0.367,-37.613 0.729,-39.501c1.101,-1.898 29.432,-23.601 31.809,-23.938l0,0Z" style="fill:#131313;fill-rule:nonzero;"/><path id="path3710" d="M77.22,72.035c-6.894,-2.487 -6.906,2.273 -8.651,1.529c-1.897,-0.81 -0.841,-11.737 -1.25,-13.834c-1.332,-6.85 -8.297,-16.75 -6.047,-20.353c0.586,-0.941 4.499,3.869 6.107,2.972c3.628,-2.023 2.687,5.051 3.341,10.873c0.679,6.056 1.282,8.086 3.691,10.808c2.443,2.759 6.088,9.189 2.809,8.005l0,0Z" style="fill:#0046aa;fill-rule:nonzero;"/><path id="path3708" d="M82.361,21.655c1.505,-0.717 -1.452,-4.45 1.095,-4.821c0.513,-0.075 1.01,0.096 1.459,0.418c0,0 1.378,2.635 3.652,7.455c2.286,4.832 4.464,9.53 4.464,9.53c-0.017,0.078 0.001,0.119 -0.02,0.194c0,0 0.683,2.747 0.123,3.237c-0.864,0.728 -3.416,0.068 -4.144,-0.354c-0.569,-0.33 -0.803,-0.89 -0.828,-1.577c-0.101,-3.778 -9.929,-4.772 -11.444,-7.504c-1.062,-1.913 -1.317,-7.616 0.94,-8.814c1.532,-0.813 3.451,2.832 4.702,2.236l0.001,0Z" style="fill:#0046aa;fill-rule:nonzero;"/><path id="path3712" d="M50.423,15.491c2.559,3.129 -8.546,6.693 -7.594,9.423c0.91,2.611 7.913,0.019 5.229,3.109c-2.088,2.404 -11.243,3.475 -13.168,6.791c-0.69,1.188 -3.977,8.431 -6.318,10.039c-4.945,3.396 -6.568,-8.272 -5.038,-10.78c1.991,-3.265 2.04,-5.347 6.933,-6.907c2.964,-0.945 3.817,-3.445 4.719,-6.419c0.803,-2.647 6.194,-2.191 7.024,-4.545c0.602,-1.706 6.801,-2.438 8.213,-0.711l0,0Z" style="fill:#0046aa;fill-rule:nonzero;"/><path id="path3714" d="M26.957,67.413c-0.599,-2.386 0.049,-5.341 1.706,-7.179c1.647,-1.826 4.557,-2.959 6.993,-2.502c2.004,0.375 2.748,3.114 4.583,3.992c1.972,0.944 5.002,-0.439 6.471,1.164c2.812,3.065 3.693,9.194 0.991,12.354c-2.299,2.687 -7.217,1.896 -10.658,0.969c-2.485,-0.67 -4.361,-2.749 -6.262,-4.462c-1.434,-1.292 -3.357,-2.478 -3.824,-4.336l0,0Z" style="fill:#0046aa;fill-rule:nonzero;"/></g><g><g><path d="M50.692,14.441c3.624,2.779 6.283,5.406 5.934,5.86c-0.349,0.455 -3.574,-1.432 -7.198,-4.212c-3.624,-2.78 -6.283,-5.406 -5.934,-5.861c0.349,-0.455 3.574,1.433 7.198,4.213Z" style="fill:url(#_Radial1);"/><path d="M50.273,16.281c-1.957,0.41 -3.642,0.287 -3.759,-0.275c-0.117,-0.561 1.376,-1.349 3.333,-1.758c1.957,-0.409 3.642,-0.286 3.759,0.275c0.117,0.561 -1.376,1.349 -3.333,1.758Z" style="fill:url(#_Radial2);"/><path d="M51.092,15.377c-0.326,2.987 -1.053,5.362 -1.623,5.3c-0.569,-0.062 -0.767,-2.538 -0.442,-5.525c0.326,-2.987 1.054,-5.362 1.624,-5.3c0.569,0.063 0.767,2.538 0.441,5.525Z" style="fill:url(#_Radial3);"/></g><g><path d="M50.462,69.82c-3.465,4.381 -6.724,7.585 -7.274,7.15c-0.55,-0.435 1.816,-4.345 5.281,-8.726c3.465,-4.381 6.724,-7.585 7.274,-7.15c0.55,0.434 -1.817,4.345 -5.281,8.726Z" style="fill:url(#_Radial4);"/><path d="M48.218,69.274c-0.465,-2.401 -0.284,-4.458 0.404,-4.592c0.688,-0.133 1.625,1.708 2.09,4.108c0.466,2.401 0.285,4.458 -0.403,4.592c-0.689,0.133 -1.625,-1.708 -2.091,-4.108Z" style="fill:url(#_Radial5);"/><path d="M49.309,70.292c-3.647,-0.452 -6.537,-1.384 -6.451,-2.08c0.086,-0.696 3.117,-0.893 6.764,-0.441c3.647,0.453 6.537,1.385 6.451,2.081c-0.086,0.695 -3.117,0.893 -6.764,0.44Z" style="fill:url(#_Radial6);"/></g><g><path d="M25.691,67.692c-4.528,-3.271 -7.87,-6.388 -7.46,-6.956c0.411,-0.568 4.42,1.626 8.948,4.897c4.528,3.271 7.87,6.388 7.46,6.956c-0.411,0.568 -4.42,-1.626 -8.948,-4.897Z" style="fill:url(#_Radial7);"/><path d="M26.139,65.427c2.378,-0.569 4.442,-0.478 4.605,0.204c0.163,0.682 -1.635,1.697 -4.013,2.267c-2.378,0.569 -4.442,0.478 -4.605,-0.204c-0.163,-0.682 1.635,-1.697 4.013,-2.267Z" style="fill:url(#_Radial8);"/><path d="M25.169,66.561c0.293,-3.663 1.099,-6.591 1.798,-6.535c0.698,0.056 1.027,3.075 0.734,6.738c-0.293,3.663 -1.099,6.591 -1.798,6.535c-0.699,-0.056 -1.028,-3.075 -0.734,-6.738Z" style="fill:url(#_Radial9);"/></g><g><path d="M61.709,43.862c-3.918,3.347 -7.44,5.665 -7.86,5.173c-0.42,-0.491 2.42,-3.608 6.338,-6.955c3.918,-3.347 7.44,-5.665 7.86,-5.173c0.42,0.491 -2.42,3.608 -6.338,6.955Z" style="fill:url(#_Radial10);"/><path d="M59.776,42.967c0.008,-2.256 0.539,-4.086 1.185,-4.084c0.647,0.003 1.166,1.836 1.159,4.092c-0.007,2.256 -0.538,4.085 -1.185,4.083c-0.647,-0.002 -1.166,-1.835 -1.159,-4.091Z" style="fill:url(#_Radial11);"/><path d="M60.582,44.084c-3.22,-1.061 -5.67,-2.42 -5.468,-3.035c0.202,-0.614 2.981,-0.252 6.201,0.809c3.22,1.06 5.67,2.42 5.467,3.035c-0.202,0.614 -2.98,0.252 -6.2,-0.809Z" style="fill:url(#_Radial12);"/></g><g><path d="M75.902,20.029c1.79,-3.421 3.592,-6.017 4.021,-5.792c0.43,0.225 -0.675,3.185 -2.465,6.606c-1.79,3.421 -3.592,6.017 -4.021,5.792c-0.43,-0.225 0.675,-3.185 2.465,-6.606Z" style="fill:url(#_Radial13);"/><path d="M77.496,20.112c0.625,1.57 0.766,2.991 0.316,3.17c-0.45,0.179 -1.323,-0.951 -1.948,-2.521c-0.625,-1.571 -0.766,-2.992 -0.316,-3.171c0.45,-0.179 1.323,0.951 1.948,2.522Z" style="fill:url(#_Radial14);"/><path d="M76.624,19.56c2.535,-0.162 4.618,0.1 4.649,0.583c0.031,0.484 -2.002,1.008 -4.537,1.169c-2.535,0.162 -4.619,-0.1 -4.649,-0.583c-0.031,-0.484 2.002,-1.008 4.537,-1.169Z" style="fill:url(#_Radial15);"/></g><g><ellipse cx="22.617" cy="38.319" rx="5.471" ry="0.687" style="fill:url(#_Radial16);"/><path d="M23.138,38.766c-0.862,1.003 -1.795,1.616 -2.083,1.369c-0.287,-0.247 0.179,-1.262 1.041,-2.264c0.862,-1.002 1.795,-1.615 2.082,-1.368c0.288,0.247 -0.179,1.261 -1.04,2.263Z" style="fill:url(#_Radial17);"/><path d="M23.204,37.962c1.031,1.698 1.605,3.236 1.281,3.433c-0.324,0.197 -1.424,-1.022 -2.455,-2.72c-1.031,-1.698 -1.605,-3.236 -1.281,-3.433c0.324,-0.197 1.424,1.022 2.455,2.72Z" style="fill:url(#_Radial18);"/></g></g><defs><radialGradient id="_Radial1" cx="0" cy="0" r="1" gradientUnits="userSpaceOnUse" gradientTransform="matrix(6.56596,5.0368,-0.632149,0.824068,50.06,15.2646)"><stop offset="0" style="stop-color:#227cfe;stop-opacity:1"/><stop offset="1" style="stop-color:#227cfe;stop-opacity:0"/></radialGradient><radialGradient id="_Radial2" cx="0" cy="0" r="1" gradientUnits="userSpaceOnUse" gradientTransform="matrix(-3.54603,0.741874,-0.212685,-1.0166,50.06,15.2646)"><stop offset="0" style="stop-color:#227cfe;stop-opacity:1"/><stop offset="1" style="stop-color:#227cfe;stop-opacity:0"/></radialGradient><radialGradient id="_Radial3" cx="0" cy="0" r="1" gradientUnits="userSpaceOnUse" gradientTransform="matrix(-0.590595,5.4121,-1.03248,-0.112669,50.06,15.2646)"><stop offset="0" style="stop-color:#227cfe;stop-opacity:1"/><stop offset="1" style="stop-color:#227cfe;stop-opacity:0"/></radialGradient><radialGradient id="_Radial4" cx="0" cy="0" r="1" gradientUnits="userSpaceOnUse" gradientTransform="matrix(-6.27773,7.93827,-0.996301,-0.787893,49.4654,69.0319)"><stop offset="0" style="stop-color:#227cfe;stop-opacity:1"/><stop offset="1" style="stop-color:#227cfe;stop-opacity:0"/></radialGradient><radialGradient id="_Radial5" cx="0" cy="0" r="1" gradientUnits="userSpaceOnUse" gradientTransform="matrix(-0.843208,-4.34963,1.24698,-0.241736,49.4654,69.0319)"><stop offset="0" style="stop-color:#227cfe;stop-opacity:1"/><stop offset="1" style="stop-color:#227cfe;stop-opacity:0"/></radialGradient><radialGradient id="_Radial6" cx="0" cy="0" r="1" gradientUnits="userSpaceOnUse" gradientTransform="matrix(-6.60752,-0.819874,0.156409,-1.26053,49.4654,69.0319)"><stop offset="0" style="stop-color:#227cfe;stop-opacity:1"/><stop offset="1" style="stop-color:#227cfe;stop-opacity:0"/></radialGradient><radialGradient id="_Radial7" cx="0" cy="0" r="1" gradientUnits="userSpaceOnUse" gradientTransform="matrix(-8.20382,-5.92651,0.743812,-1.02963,26.4349,66.6625)"><stop offset="0" style="stop-color:#227cfe;stop-opacity:1"/><stop offset="1" style="stop-color:#227cfe;stop-opacity:0"/></radialGradient><radialGradient id="_Radial8" cx="0" cy="0" r="1" gradientUnits="userSpaceOnUse" gradientTransform="matrix(4.30884,-1.0316,0.295745,1.23528,26.4349,66.6625)"><stop offset="0" style="stop-color:#227cfe;stop-opacity:1"/><stop offset="1" style="stop-color:#227cfe;stop-opacity:0"/></radialGradient><radialGradient id="_Radial9" cx="0" cy="0" r="1" gradientUnits="userSpaceOnUse" gradientTransform="matrix(0.531698,-6.63692,1.26614,0.101433,26.4349,66.6625)"><stop offset="0" style="stop-color:#227cfe;stop-opacity:1"/><stop offset="1" style="stop-color:#227cfe;stop-opacity:0"/></radialGradient><radialGradient id="_Radial10" cx="0" cy="0" r="1" gradientUnits="userSpaceOnUse" gradientTransform="matrix(-7.09921,6.0644,-0.76112,-0.890994,60.9482,42.9709)"><stop offset="0" style="stop-color:#227cfe;stop-opacity:1"/><stop offset="1" style="stop-color:#227cfe;stop-opacity:0"/></radialGradient><radialGradient id="_Radial11" cx="0" cy="0" r="1" gradientUnits="userSpaceOnUse" gradientTransform="matrix(0.0132785,-4.08746,1.17182,0.00380676,60.9482,42.9709)"><stop offset="0" style="stop-color:#227cfe;stop-opacity:1"/><stop offset="1" style="stop-color:#227cfe;stop-opacity:0"/></radialGradient><radialGradient id="_Radial12" cx="0" cy="0" r="1" gradientUnits="userSpaceOnUse" gradientTransform="matrix(-5.83423,-1.92163,0.366594,-1.11301,60.9482,42.9709)"><stop offset="0" style="stop-color:#227cfe;stop-opacity:1"/><stop offset="1" style="stop-color:#227cfe;stop-opacity:0"/></radialGradient><radialGradient id="_Radial13" cx="0" cy="0" r="1" gradientUnits="userSpaceOnUse" gradientTransform="matrix(3.24319,-6.19906,0.778019,0.407041,76.6799,20.436)"><stop offset="0" style="stop-color:#227cfe;stop-opacity:1"/><stop offset="1" style="stop-color:#227cfe;stop-opacity:0"/></radialGradient><radialGradient id="_Radial14" cx="0" cy="0" r="1" gradientUnits="userSpaceOnUse" gradientTransform="matrix(1.13203,2.84593,-0.815887,0.324536,76.6799,20.436)"><stop offset="0" style="stop-color:#227cfe;stop-opacity:1"/><stop offset="1" style="stop-color:#227cfe;stop-opacity:0"/></radialGradient><radialGradient id="_Radial15" cx="0" cy="0" r="1" gradientUnits="userSpaceOnUse" gradientTransform="matrix(4.59337,-0.292765,0.0558513,0.876286,76.6799,20.436)"><stop offset="0" style="stop-color:#227cfe;stop-opacity:1"/><stop offset="1" style="stop-color:#227cfe;stop-opacity:0"/></radialGradient><radialGradient id="_Radial16" cx="0" cy="0" r="1" gradientUnits="userSpaceOnUse" gradientTransform="matrix(5.47086,0,0,0.686626,22.6169,38.3186)"><stop offset="0" style="stop-color:#227cfe;stop-opacity:1"/><stop offset="1" style="stop-color:#227cfe;stop-opacity:0"/></radialGradient><radialGradient id="_Radial17" cx="0" cy="0" r="1" gradientUnits="userSpaceOnUse" gradientTransform="matrix(-1.56153,1.816,-0.520623,-0.447669,22.6169,38.3186)"><stop offset="0" style="stop-color:#227cfe;stop-opacity:1"/><stop offset="1" style="stop-color:#227cfe;stop-opacity:0"/></radialGradient><radialGradient id="_Radial18" cx="0" cy="0" r="1" gradientUnits="userSpaceOnUse" gradientTransform="matrix(1.86794,3.07653,-0.586915,0.35635,22.6169,38.3186)"><stop offset="0" style="stop-color:#227cfe;stop-opacity:1"/><stop offset="1" style="stop-color:#227cfe;stop-opacity:0"/></radialGradient></defs></svg>