<svg width="100px" height="100px" viewBox="0 0 100 100" version="1.1" xmlns="http://www.w3.org/2000/svg" xmlns:xlink="http://www.w3.org/1999/xlink" xml:space="preserve" style="fill-rule:evenodd;clip-rule:evenodd;stroke-linejoin:round;stroke-miterlimit:1.41421;"><g><path d="M16.773,69.529c-1.126,-0.798 -3.6,-1.279 -4.26,-0.669c-0.865,0.802 -0.73,2.371 3.355,3.439c2.001,0.523 3.837,0.101 3.837,0.101c0,0 -1.342,-1.743 -2.932,-2.871Z" style="fill:#0d4e0a;"/><path d="M36.01,74.117c1.087,-0.85 2.256,-3.083 1.86,-3.889c-0.52,-1.059 -2.063,-1.378 -4.255,2.23c-1.074,1.767 -1.195,3.648 -1.195,3.648c0,0 2.054,-0.788 3.59,-1.989Z" style="fill:#0d4e0a;"/><path d="M33.206,71.657c1.374,-0.135 3.558,-1.394 3.656,-2.287c0.128,-1.173 -1.004,-2.269 -4.788,-0.397c-1.854,0.917 -2.963,2.439 -2.963,2.439c0,0 2.156,0.436 4.095,0.245Z" style="fill:#0d4e0a;"/><path d="M55.807,82.531c1.068,-0.874 2.187,-3.133 1.773,-3.931c-0.544,-1.046 -2.093,-1.331 -4.204,2.325c-1.034,1.791 -1.113,3.674 -1.113,3.674c0,0 2.036,-0.833 3.544,-2.068Z" style="fill:#0d4e0a;"/><path d="M77.41,65.28c-0.115,-1.375 -1.342,-3.577 -2.234,-3.688c-1.171,-0.145 -2.283,0.971 -0.466,4.782c0.89,1.867 2.396,2.998 2.396,2.998c0,0 0.467,-2.149 0.304,-4.092Z" style="fill:#0d4e0a;"/><path d="M76.942,37.853c-1.199,-0.684 -3.708,-0.921 -4.305,-0.249c-0.783,0.883 -0.494,2.431 3.676,3.094c2.042,0.324 3.828,-0.276 3.828,-0.276c0,0 -1.506,-1.602 -3.199,-2.569Z" style="fill:#0d4e0a;"/><path d="M59.123,16.568c-1.243,0.6 -2.86,2.534 -2.644,3.406c0.283,1.145 1.723,1.785 4.632,-1.276c1.424,-1.499 1.942,-3.311 1.942,-3.311c0,0 -2.175,0.334 -3.93,1.181Z" style="fill:#0d4e0a;"/><path d="M31.789,15.224c-0.21,1.364 0.467,3.792 1.308,4.109c1.104,0.415 2.447,-0.409 1.573,-4.54c-0.428,-2.023 -1.627,-3.476 -1.627,-3.476c0,0 -0.958,1.981 -1.254,3.907Z" style="fill:#0d4e0a;"/><path d="M73.495,36.179c0.318,-1.343 -0.164,-3.817 -0.977,-4.199c-1.067,-0.502 -2.471,0.212 -1.929,4.399c0.265,2.051 1.345,3.595 1.345,3.595c0,0 1.112,-1.898 1.561,-3.795Z" style="fill:#0d4e0a;"/><path d="M73.495,36.179c0.318,-1.343 -0.164,-3.817 -0.977,-4.199c-1.067,-0.502 -2.471,0.212 -1.929,4.399c0.265,2.051 1.345,3.595 1.345,3.595c0,0 1.112,-1.898 1.561,-3.795Z" style="fill:#0d4e0a;"/><path d="M15.306,38.075c1.34,-0.331 3.321,-1.889 3.29,-2.787c-0.041,-1.179 -1.317,-2.102 -4.795,0.292c-1.704,1.173 -2.584,2.838 -2.584,2.838c0,0 2.196,0.123 4.089,-0.343Z" style="fill:#0d4e0a;"/><path d="M34.267,29.073c-1.311,0.431 -3.168,2.136 -3.069,3.029c0.13,1.172 1.473,1.996 4.759,-0.656c1.609,-1.298 2.361,-3.026 2.361,-3.026c0,0 -2.199,0.044 -4.051,0.653Z" style="fill:#0d4e0a;"/><path d="M29.816,32.989c1.151,0.762 3.64,1.163 4.279,0.531c0.839,-0.829 0.653,-2.393 -3.464,-3.328c-2.017,-0.458 -3.838,0.023 -3.838,0.023c0,0 1.397,1.698 3.023,2.774Z" style="fill:#0d4e0a;"/><path d="M86.504,48.916c0.348,-1.335 -0.079,-3.82 -0.883,-4.22c-1.056,-0.526 -2.476,0.157 -2.027,4.355c0.219,2.057 1.265,3.624 1.265,3.624c0,0 1.154,-1.872 1.645,-3.759Z" style="fill:#0d4e0a;"/><path d="M79.536,51.531c1.373,-0.136 3.557,-1.395 3.655,-2.288c0.128,-1.172 -1.003,-2.268 -4.788,-0.397c-1.854,0.917 -2.963,2.44 -2.963,2.44c0,0 2.156,0.436 4.096,0.245Z" style="fill:#0d4e0a;"/><path d="M53.495,16.461c0.153,1.372 1.442,3.539 2.336,3.624c1.174,0.113 2.255,-1.033 0.332,-4.792c-0.941,-1.842 -2.479,-2.931 -2.479,-2.931c0,0 -0.406,2.162 -0.189,4.099Z" style="fill:#0d4e0a;"/></g><g><path d="M53.103,30.88c0.426,-0.375 1.447,-1.487 1.766,-3.731c0.415,-2.916 -2.493,-6.058 -2.493,-6.058c0,0 5.665,3.208 6.355,5.388c0.39,1.233 0.694,5.984 0.76,7.075c5.21,3.409 8.655,9.296 8.655,15.982c0,3.971 -1.215,7.66 -3.294,10.716c0.692,0.693 4.284,4.34 4.986,6.077c0.819,2.03 -1.082,7.524 -1.516,7.852c-0.434,0.328 -1.099,-5.651 -2.233,-7.296c-0.9,-1.306 -3.491,-2.903 -4.132,-3.286c-3.397,3.118 -7.926,5.022 -12.896,5.022c-8.503,0 -15.715,-5.573 -18.179,-13.263c-0.691,0.076 -5.528,0.568 -7.636,-0.205c-2.399,-0.879 -2.869,-6.241 -2.814,-6.873c0.056,-0.632 2.721,3.587 5.032,3.892c1.826,0.242 4.009,-1.125 4.547,-1.484c-0.023,-0.381 -0.035,-0.765 -0.035,-1.152c0,-10.534 8.552,-19.085 19.085,-19.085c1.387,0 2.739,0.148 4.042,0.429Z" style="fill:#4c2709;stroke:#000;stroke-width:0.71px;"/><circle cx="49.061" cy="49.536" r="16.674" style="fill:#6b370d;"/><circle cx="49.061" cy="49.536" r="13.042" style="fill:#804210;"/><circle cx="49.061" cy="49.536" r="6.605" style="fill:#9f5214;"/></g></svg>