<?xml version="1.0" encoding="UTF-8" standalone="no"?><!DOCTYPE svg PUBLIC "-//W3C//DTD SVG 1.1//EN"
        "http://www.w3.org/Graphics/SVG/1.1/DTD/svg11.dtd">
<svg width="100%" height="100%" viewBox="0 0 99 31" version="1.1" xmlns="http://www.w3.org/2000/svg" xml:space="preserve" style="fill-rule:evenodd;clip-rule:evenodd;stroke-linecap:round;stroke-linejoin:round;stroke-miterlimit:1.5;"><path d="M98.316,20.322L98.316,30.322L36.895,30.322" style="fill:none;stroke:#f00;stroke-width:0.6px;"/><path d="M26.36,30.322L0.316,30.322L0.316,20.322" style="fill:none;stroke:#f00;stroke-width:0.6px;"/><path d="M1.316,20.279L1.316,29.279L28.889,29.279" style="fill:none;stroke:#f00;stroke-width:0.4px;"/><path d="M39.217,29.279L97.316,29.279L97.316,20.279" style="fill:none;stroke:#f00;stroke-width:0.4px;"/><path d="M0.316,10.301L0.316,0.301L61.737,0.301" style="fill:none;stroke:#f00;stroke-width:0.6px;"/><path d="M72.272,0.301L98.316,0.301L98.316,10.301" style="fill:none;stroke:#f00;stroke-width:0.6px;"/><path d="M97.316,10.344L97.316,1.344L69.743,1.344" style="fill:none;stroke:#f00;stroke-width:0.4px;"/><path d="M59.415,1.344L1.316,1.344L1.316,10.344" style="fill:none;stroke:#f00;stroke-width:0.4px;"/><path d="M9.496,6.702L9.496,10.483C8.858,10.656 8.32,11.2 7.884,12.112C7.447,13.025 7.228,14.1 7.228,15.338L4.128,15.338C4.128,13.057 4.645,11.085 5.678,9.423C6.712,7.761 7.984,6.854 9.496,6.702ZM11.752,18.793C12.265,17.837 12.521,16.685 12.521,15.338C12.521,13.991 12.265,12.84 11.752,11.884C11.24,10.928 10.614,10.45 9.875,10.45L9.875,6.67C11.471,6.67 12.827,7.517 13.945,9.212C15.062,10.906 15.621,12.948 15.621,15.338C15.621,17.728 15.062,19.765 13.945,21.449C12.827,23.132 11.471,23.974 9.875,23.974C8.346,23.974 7.027,23.181 5.918,21.595C4.809,20.009 4.212,18.076 4.128,15.795L7.253,15.795C7.321,17.033 7.606,18.081 8.11,18.939C8.614,19.797 9.202,20.227 9.875,20.227C10.614,20.227 11.24,19.749 11.752,18.793Z" style="fill:#f00;fill-rule:nonzero;"/><path d="M16.377,23.877L16.377,11.069L19.401,11.069L19.401,23.877L16.377,23.877ZM23.244,14.491C23.589,14.035 23.761,13.492 23.761,12.862C23.761,12.232 23.589,11.694 23.244,11.248C22.9,10.803 22.501,10.58 22.047,10.58L16.301,10.58L16.301,6.767L22.047,6.767C23.358,6.767 24.475,7.36 25.399,8.544C26.323,9.728 26.785,11.167 26.785,12.862C26.785,14.556 26.323,16.001 25.399,17.196C24.475,18.391 23.358,18.988 22.047,18.988L19.779,18.988L19.779,15.175L22.047,15.175C22.501,15.175 22.9,14.947 23.244,14.491Z" style="fill:#f00;fill-rule:nonzero;"/><path d="M27.516,19.575L27.516,11.069L30.54,11.069L30.54,19.575L27.516,19.575ZM30.918,13.318L35.077,13.318L35.077,17.131L30.918,17.131L30.918,13.318ZM27.44,20.064L36.009,20.064L36.009,23.877L27.44,23.877L27.44,20.064ZM27.44,6.767L36.009,6.767L36.009,10.58L27.44,10.58L27.44,6.767Z" style="fill:#f00;fill-rule:nonzero;"/><path d="M43.57,23.877L43.57,6.767L46.443,6.767L46.443,23.877L43.57,23.877ZM36.765,10.971L38.252,10.971L39.638,15.078L39.638,23.877L36.765,23.877L36.765,10.971ZM43.192,15.534L43.192,23.877L42.99,23.877L38.504,10.483L36.69,10.483L36.69,6.767L40.218,6.767L43.192,15.534Z" style="fill:#f00;fill-rule:nonzero;"/><path d="M59.699,12.601C59.951,12.275 60.077,11.906 60.077,11.493C60.077,11.145 59.985,10.852 59.8,10.613C59.615,10.374 59.405,10.254 59.17,10.254L53.474,10.254L53.474,6.767L59.674,6.767C60.581,6.767 61.363,7.175 62.018,7.99C62.673,8.804 63.001,9.777 63.001,10.906C63.001,11.906 62.69,12.786 62.068,13.546C61.396,13.046 60.607,12.731 59.699,12.601ZM62.547,14.572C63.488,15.604 63.958,16.881 63.958,18.402C63.958,19.922 63.538,21.215 62.698,22.28C61.858,23.344 60.85,23.877 59.674,23.877L56.952,23.877L56.952,20.064L59.674,20.064C60.027,20.064 60.325,19.895 60.569,19.559C60.812,19.222 60.934,18.793 60.934,18.271C60.934,17.772 60.808,17.342 60.556,16.984C60.304,16.626 60.01,16.446 59.674,16.446L58.54,16.446L56.952,16.446L56.952,13.025L58.868,13.025C60.38,13.025 61.606,13.54 62.547,14.572ZM53.55,23.974L53.55,10.711L56.574,10.711L56.574,23.974L53.55,23.974Z" style="fill:#f00;fill-rule:nonzero;"/><path d="M64.765,19.575L64.765,11.069L67.789,11.069L67.789,19.575L64.765,19.575ZM68.167,13.318L72.326,13.318L72.326,17.131L68.167,17.131L68.167,13.318ZM64.689,20.064L73.258,20.064L73.258,23.877L64.689,23.877L64.689,20.064ZM64.689,6.767L73.258,6.767L73.258,10.58L64.689,10.58L64.689,6.767Z" style="fill:#f00;fill-rule:nonzero;"/><path d="M80.239,10.874L80.239,23.877L77.164,23.877L77.164,10.874L80.239,10.874ZM73.636,10.385L73.636,6.767L83.717,6.767L83.717,10.385L73.636,10.385Z" style="fill:#f00;fill-rule:nonzero;"/><path d="M89.942,6.767L89.967,6.767L94.504,23.877L91.278,23.877L88.329,12.829L89.942,6.767ZM85.935,20.357L85.002,23.877L81.802,23.877L86.338,6.767L89.539,6.767L86.842,16.935L89.009,16.935L89.942,20.357L85.935,20.357Z" style="fill:#f00;fill-rule:nonzero;"/></svg>