<?xml version="1.0" encoding="UTF-8" standalone="no"?><!DOCTYPE svg PUBLIC "-//W3C//DTD SVG 1.1//EN" "http://www.w3.org/Graphics/SVG/1.1/DTD/svg11.dtd">
<svg width="100%" height="100%" viewBox="0 0 100 100" version="1.1" xmlns="http://www.w3.org/2000/svg"  xml:space="preserve"  style="fill-rule:evenodd;clip-rule:evenodd;stroke-linecap:round;stroke-linejoin:round;stroke-miterlimit:1.5;"><g><path d="M99,55l0,10l-61.421,0" style="fill:none;stroke:#f00;stroke-width:0.6px;"/><path d="M27.044,65l-26.044,0l0,-10" style="fill:none;stroke:#f00;stroke-width:0.6px;"/><path d="M2,54.957l0,9l27.573,0" style="fill:none;stroke:#f00;stroke-width:0.4px;"/><path d="M39.901,63.957l58.099,0l0,-9" style="fill:none;stroke:#f00;stroke-width:0.4px;"/></g><g><path d="M1,44.979l0,-10l61.421,0" style="fill:none;stroke:#f00;stroke-width:0.6px;"/><path d="M72.956,34.979l26.044,0l0,10" style="fill:none;stroke:#f00;stroke-width:0.6px;"/><path d="M98,45.022l0,-9l-27.573,0" style="fill:none;stroke:#f00;stroke-width:0.4px;"/><path d="M60.099,36.022l-58.099,0l0,9" style="fill:none;stroke:#f00;stroke-width:0.4px;"/></g><g id="brosk"><path d="M10.18,41.38l0,3.781c-0.638,0.173 -1.176,0.717 -1.612,1.629c-0.437,0.913 -0.656,1.988 -0.656,3.226l-3.1,0c0,-2.281 0.517,-4.253 1.55,-5.915c1.034,-1.662 2.306,-2.569 3.818,-2.721Zm2.256,12.091c0.513,-0.956 0.769,-2.108 0.769,-3.455c0,-1.347 -0.256,-2.498 -0.769,-3.454c-0.512,-0.956 -1.138,-1.434 -1.877,-1.434l0,-3.78c1.596,0 2.952,0.847 4.07,2.542c1.117,1.694 1.676,3.736 1.676,6.126c0,2.39 -0.559,4.427 -1.676,6.111c-1.118,1.683 -2.474,2.525 -4.07,2.525c-1.529,0 -2.848,-0.793 -3.957,-2.379c-1.109,-1.586 -1.706,-3.519 -1.79,-5.8l3.125,0c0.068,1.238 0.353,2.286 0.857,3.144c0.504,0.858 1.092,1.288 1.765,1.288c0.739,0 1.365,-0.478 1.877,-1.434Z" style="fill:#f00;fill-rule:nonzero;"/><path d="M17.061,58.555l0,-12.808l3.024,0l0,12.808l-3.024,0Zm6.867,-9.386c0.345,-0.456 0.517,-0.999 0.517,-1.629c0,-0.63 -0.172,-1.168 -0.517,-1.614c-0.344,-0.445 -0.743,-0.668 -1.197,-0.668l-5.746,0l0,-3.813l5.746,0c1.311,0 2.428,0.593 3.352,1.777c0.924,1.184 1.386,2.623 1.386,4.318c0,1.694 -0.462,3.139 -1.386,4.334c-0.924,1.195 -2.041,1.792 -3.352,1.792l-2.268,0l0,-3.813l2.268,0c0.454,0 0.853,-0.228 1.197,-0.684Z" style="fill:#f00;fill-rule:nonzero;"/><path d="M28.2,54.253l0,-8.506l3.024,0l0,8.506l-3.024,0Zm3.402,-6.257l4.159,0l0,3.813l-4.159,0l0,-3.813Zm-3.478,6.746l8.569,0l0,3.813l-8.569,0l0,-3.813Zm0,-13.297l8.569,0l0,3.813l-8.569,0l0,-3.813Z" style="fill:#f00;fill-rule:nonzero;"/><path d="M44.254,58.555l0,-17.11l2.873,0l0,17.11l-2.873,0Zm-6.805,-12.906l1.487,0l1.386,4.107l0,8.799l-2.873,0l0,-12.906Zm6.427,4.563l0,8.343l-0.202,0l-4.486,-13.394l-1.814,0l0,-3.716l3.528,0l2.974,8.767Z" style="fill:#f00;fill-rule:nonzero;"/><path d="M60.383,47.279c0.252,-0.326 0.378,-0.695 0.378,-1.108c0,-0.348 -0.092,-0.641 -0.277,-0.88c-0.185,-0.239 -0.395,-0.359 -0.63,-0.359l-5.696,0l0,-3.487l6.2,0c0.907,0 1.689,0.408 2.344,1.223c0.655,0.814 0.983,1.787 0.983,2.916c0,1 -0.311,1.88 -0.933,2.64c-0.672,-0.5 -1.461,-0.815 -2.369,-0.945Zm2.848,1.971c0.941,1.032 1.411,2.309 1.411,3.83c0,1.52 -0.42,2.813 -1.26,3.878c-0.84,1.064 -1.848,1.597 -3.024,1.597l-2.722,0l0,-3.813l2.722,0c0.353,0 0.651,-0.169 0.895,-0.505c0.243,-0.337 0.365,-0.766 0.365,-1.288c0,-0.499 -0.126,-0.929 -0.378,-1.287c-0.252,-0.358 -0.546,-0.538 -0.882,-0.538l-1.134,0l-1.588,0l0,-3.421l1.916,0c1.512,0 2.738,0.515 3.679,1.547Zm-8.997,9.402l0,-13.263l3.024,0l0,13.263l-3.024,0Z" style="fill:#f00;fill-rule:nonzero;"/><path d="M65.449,54.253l0,-8.506l3.024,0l0,8.506l-3.024,0Zm3.402,-6.257l4.159,0l0,3.813l-4.159,0l0,-3.813Zm-3.478,6.746l8.569,0l0,3.813l-8.569,0l0,-3.813Zm0,-13.297l8.569,0l0,3.813l-8.569,0l0,-3.813Z" style="fill:#f00;fill-rule:nonzero;"/><path d="M80.923,45.552l0,13.003l-3.075,0l0,-13.003l3.075,0Zm-6.603,-0.489l0,-3.618l10.081,0l0,3.618l-10.081,0Z" style="fill:#f00;fill-rule:nonzero;"/><path d="M90.626,41.445l0.025,0l4.537,17.11l-3.226,0l-2.949,-11.048l1.613,-6.062Zm-4.007,13.59l-0.933,3.52l-3.2,0l4.536,-17.11l3.201,0l-2.697,10.168l2.167,0l0.933,3.422l-4.007,0Z" style="fill:#f00;fill-rule:nonzero;"/></g></svg>