<svg width="100px" height="100px" viewBox="0 0 100 100" version="1.1" xmlns="http://www.w3.org/2000/svg" xmlns:xlink="http://www.w3.org/1999/xlink" xml:space="preserve" xmlns:serif="http://www.serif.com/" style="fill-rule:evenodd;clip-rule:evenodd;">
    <g id="W_Mammoth">
        <path d="M63.467,86.405C56.891,75.14 58.254,66.503 54.512,70.219C54.084,70.645 54.742,72.015 55.075,73.886C55.437,75.914 55.907,77.828 56.487,79.629C56.753,80.457 57.902,80.865 58.215,81.645C58.4,82.107 57.734,82.957 57.936,83.403C59.01,85.778 60.314,87.913 61.848,89.808C63.436,91.77 65.913,90.666 66.183,90.099C66.453,89.532 64.323,87.872 63.467,86.405Z" style="fill:rgb(234,225,110);fill-rule:nonzero;stroke:black;stroke-width:0.64px;"/>
        <path d="M36.221,86.405C36.467,85.983 37.248,85.803 37.473,85.389C37.679,85.009 37.331,84.394 37.52,84.022C42.627,73.963 41.703,66.77 45.175,70.219C45.604,70.645 44.946,72.015 44.612,73.886C44.375,75.213 44.092,76.492 43.762,77.722C43.629,78.22 42.518,79.161 42.369,79.643C42.249,80.033 42.428,81.824 42.131,82.532C39.935,87.779 36.67,91.908 32.335,94.922C30.481,96.21 23.881,95.564 23.226,95.339C21.586,94.777 30.375,96.422 36.221,86.405Z" style="fill:rgb(234,225,110);fill-rule:nonzero;stroke:black;stroke-width:0.64px;"/>
        <path d="M53.67,71.754C54.341,74.276 53.381,78.27 53.381,78.27C53.381,78.27 54.754,82.965 54.751,83.548C54.746,84.421 56.623,89.171 57.165,91.073C57.72,93.023 58.818,96.313 58.632,97.465C58.471,98.467 57.75,96.128 56.145,97.174C54.386,98.32 55.653,100.009 55.048,99.353C54.197,98.43 53.579,94.882 52.594,93.121C51.867,91.821 50.636,87.161 49.636,85.702C48.519,84.074 47.661,78.949 47.661,78.949C47.661,78.949 45.192,74.644 45.477,72.004C41.891,71.445 38.393,69.997 35.322,67.618C31.319,64.517 28.989,58.061 28.132,51.912C21.263,53.106 21.921,15.602 32.509,9.445C36.548,7.096 41.517,5.167 46.687,4.779C47.343,4.078 49.348,0.342 51.623,0.505C53.58,0.645 54.722,3.696 54.963,4.655C61.483,5.185 66.447,7.878 71.147,11.045C80.922,17.63 76.626,53.631 71.125,51.96C70.357,55.863 68.439,61.118 66.468,63.663C63.151,67.945 58.578,70.681 53.67,71.754Z" style="fill:rgb(156,146,138);fill-rule:nonzero;stroke:black;stroke-width:0.64px;stroke-linecap:round;stroke-linejoin:round;"/>
        <g transform="matrix(0.337,0.235574,-0.231204,0.33075,77.067,-12.48)">
            <g transform="matrix(-0.433737,0.687151,-0.694749,-0.438532,92.838,83.2538)">
                <path d="M33.291,45.162L35.355,57.76L39.333,53.867L38.695,62.572L45.376,62.572L39.971,70.358L43.068,76.656L38.695,78.143L40.76,90.741L35.355,82.955L33.291,90.741L31.227,82.955L25.822,90.741L27.887,78.143L23.514,76.656L26.611,70.358L21.206,62.572L27.887,62.572L27.249,53.867L31.227,57.76L33.291,45.162Z" style="fill:rgb(242,165,134);stroke:black;stroke-width:1.77px;stroke-linecap:round;stroke-linejoin:round;stroke-miterlimit:1.5;"/>
            </g>
            <g transform="matrix(-0.165042,0.261469,-0.26436,-0.166867,54.1304,78.619)">
                <path d="M33.291,45.162L35.355,57.76L39.333,53.867L38.695,62.572L45.376,62.572L39.971,70.358L43.068,76.656L38.695,78.143L40.76,90.741L35.355,82.955L33.291,90.741L31.227,82.955L25.822,90.741L27.887,78.143L23.514,76.656L26.611,70.358L21.206,62.572L27.887,62.572L27.249,53.867L31.227,57.76L33.291,45.162Z" style="stroke:black;stroke-width:4.66px;stroke-linecap:round;stroke-linejoin:round;stroke-miterlimit:1.5;"/>
            </g>
            <g transform="matrix(-0.131382,0.208144,-0.210445,-0.132835,49.2165,77.9999)">
                <path d="M33.291,45.162L35.355,57.76L39.333,53.867L38.695,62.572L45.376,62.572L39.971,70.358L43.068,76.656L38.695,78.143L40.76,90.741L35.355,82.955L33.291,90.741L31.227,82.955L25.822,90.741L27.887,78.143L23.514,76.656L26.611,70.358L21.206,62.572L27.887,62.572L27.249,53.867L31.227,57.76L33.291,45.162Z" style="fill:rgb(236,90,76);stroke:black;stroke-width:2.01px;stroke-linecap:round;stroke-linejoin:round;stroke-miterlimit:1.5;"/>
            </g>
        </g>
        <g transform="matrix(-0.0701479,-0.0540971,0.0618504,-0.0830677,68.7981,44.6985)">
            <path d="M33.291,45.162L35.355,57.76L39.333,53.867L38.695,62.572L45.376,62.572L39.971,70.358L43.068,76.656L38.695,78.143L40.76,90.741L35.355,82.955L33.291,90.741L31.227,82.955L25.822,90.741L27.887,78.143L23.514,76.656L26.611,70.358L21.206,62.572L27.887,62.572L27.249,53.867L31.227,57.76L33.291,45.162Z" style="stroke:rgb(48,48,48);stroke-width:6.13px;stroke-linecap:round;stroke-linejoin:round;stroke-miterlimit:1.5;"/>
        </g>
        <g transform="matrix(-0.0854553,0.0233372,-0.0289682,-0.0994312,37.0699,60.4511)">
            <path d="M33.291,45.162L35.355,57.76L39.333,53.867L38.695,62.572L45.376,62.572L39.971,70.358L43.068,76.656L38.695,78.143L40.76,90.741L35.355,82.955L33.291,90.741L31.227,82.955L25.822,90.741L27.887,78.143L23.514,76.656L26.611,70.358L21.206,62.572L27.887,62.572L27.249,53.867L31.227,57.76L33.291,45.162Z" style="stroke:rgb(48,48,48);stroke-width:6.13px;stroke-linecap:round;stroke-linejoin:round;stroke-miterlimit:1.5;"/>
        </g>
        <g transform="matrix(0.0560537,-0.0685945,0.0812905,0.0641683,37.5835,12.4164)">
            <path d="M33.291,45.162L35.355,57.76L39.333,53.867L38.695,62.572L45.376,62.572L39.971,70.358L43.068,76.656L38.695,78.143L40.76,90.741L35.355,82.955L33.291,90.741L31.227,82.955L25.822,90.741L27.887,78.143L23.514,76.656L26.611,70.358L21.206,62.572L27.887,62.572L27.249,53.867L31.227,57.76L33.291,45.162Z" style="stroke:rgb(48,48,48);stroke-width:6.13px;stroke-linecap:round;stroke-linejoin:round;stroke-miterlimit:1.5;"/>
        </g>
        <g transform="matrix(1.03062,0.299493,-0.186003,0.640076,-7.33346,-3.31701)">
            <path d="M42.336,18.494C40.512,18.494 39.032,22.594 39.032,27.643C39.032,32.692 40.512,36.791 42.336,36.791C41.789,34.657 41.345,31.292 41.345,27.643C41.345,23.993 41.789,20.629 42.336,18.494Z" style="fill:rgb(242,165,134);stroke:black;stroke-width:0.23px;stroke-linecap:round;stroke-linejoin:round;stroke-miterlimit:1.5;"/>
        </g>
        <g transform="matrix(0.39416,0.114541,-0.141137,0.485684,17.1072,8.32685)">
            <path d="M42.336,18.494C40.512,18.494 39.032,22.594 39.032,27.643C39.032,32.692 40.512,36.791 42.336,36.791C41.789,34.657 41.345,31.292 41.345,27.643C41.345,23.993 41.789,20.629 42.336,18.494Z" style="fill:rgb(236,90,76);stroke:black;stroke-width:0.44px;stroke-linecap:round;stroke-linejoin:round;stroke-miterlimit:1.5;"/>
        </g>
        <g transform="matrix(-0.189405,0.364152,-0.448709,-0.233385,61.5352,50.6745)">
            <path d="M42.336,18.494C40.512,18.494 39.032,22.594 39.032,27.643C39.032,32.692 40.512,36.791 42.336,36.791C41.789,34.657 41.345,31.292 41.345,27.643C41.345,23.993 41.789,20.629 42.336,18.494Z" style="fill:rgb(43,40,38);stroke:black;stroke-width:0.44px;stroke-linecap:round;stroke-linejoin:round;stroke-miterlimit:1.5;"/>
        </g>
        <g transform="matrix(0.266961,0.31179,-0.384189,0.328949,57.2157,37.7371)">
            <path d="M42.336,18.494C40.512,18.494 39.032,22.594 39.032,27.643C39.032,32.692 40.512,36.791 42.336,36.791C41.789,34.657 41.345,31.292 41.345,27.643C41.345,23.993 41.789,20.629 42.336,18.494Z" style="fill:rgb(43,40,38);stroke:black;stroke-width:0.44px;stroke-linecap:round;stroke-linejoin:round;stroke-miterlimit:1.5;"/>
        </g>
        <g transform="matrix(-0.167767,-0.300755,0.344956,-0.192423,71.6448,38.2648)">
            <path d="M48.714,47.042C49.957,47.042 50.966,46.033 50.966,44.79L52.304,18.756C52.304,17.513 51.231,18.487 49.988,18.487C48.745,18.487 47.8,17.513 47.8,18.756L46.462,44.79C46.462,46.033 47.471,47.042 48.714,47.042Z" style="fill:url(#_Radial1);stroke:black;stroke-width:0.28px;"/>
        </g>
        <g>
            <g>
                <path d="M42.33,63.55C41.608,64.754 40.044,65.145 38.84,64.422C37.636,63.7 37.245,62.136 37.967,60.932C38.69,59.728 40.254,59.337 41.458,60.06C42.662,60.782 43.053,62.346 42.33,63.55Z" style="fill:white;"/>
                <clipPath id="_clip2">
                    <path d="M42.33,63.55C41.608,64.754 40.044,65.145 38.84,64.422C37.636,63.7 37.245,62.136 37.967,60.932C38.69,59.728 40.254,59.337 41.458,60.06C42.662,60.782 43.053,62.346 42.33,63.55Z"/>
                </clipPath>
                <g clip-path="url(#_clip2)">
                    <path d="M41.129,64.467C40.372,64.683 39.583,64.245 39.366,63.488C39.15,62.731 39.589,61.941 40.346,61.725C41.102,61.509 41.892,61.948 42.108,62.704C42.325,63.461 41.886,64.251 41.129,64.467Z" style="fill:rgb(12,11,11);"/>
                </g>
                <path d="M42.33,63.55C41.608,64.754 40.044,65.145 38.84,64.422C37.636,63.7 37.245,62.136 37.967,60.932C38.69,59.728 40.254,59.337 41.458,60.06C42.662,60.782 43.053,62.346 42.33,63.55Z" style="fill:none;stroke:rgb(84,83,83);stroke-width:0.27px;"/>
            </g>
            <g>
                <path d="M62.033,63.55C61.31,64.754 59.746,65.145 58.542,64.422C57.338,63.7 56.947,62.136 57.67,60.932C58.392,59.728 59.956,59.337 61.16,60.06C62.364,60.782 62.755,62.346 62.033,63.55Z" style="fill:white;"/>
                <clipPath id="_clip3">
                    <path d="M62.033,63.55C61.31,64.754 59.746,65.145 58.542,64.422C57.338,63.7 56.947,62.136 57.67,60.932C58.392,59.728 59.956,59.337 61.16,60.06C62.364,60.782 62.755,62.346 62.033,63.55Z"/>
                </clipPath>
                <g clip-path="url(#_clip3)">
                    <g transform="matrix(1,0,0,1,-0.957639,0.291455)">
                        <path d="M60.831,64.467C60.075,64.683 59.285,64.245 59.069,63.488C58.852,62.731 59.291,61.941 60.048,61.725C60.805,61.509 61.595,61.948 61.811,62.704C62.027,63.461 61.588,64.251 60.831,64.467Z" style="fill:rgb(12,11,11);"/>
                    </g>
                </g>
                <path d="M62.033,63.55C61.31,64.754 59.746,65.145 58.542,64.422C57.338,63.7 56.947,62.136 57.67,60.932C58.392,59.728 59.956,59.337 61.16,60.06C62.364,60.782 62.755,62.346 62.033,63.55Z" style="fill:none;stroke:rgb(84,83,83);stroke-width:0.27px;"/>
            </g>
        </g>
        <path d="M62.081,50.587C60.515,48.31 57.05,47.446 57.05,47.446C57.05,47.446 64.774,46.078 62.962,44.937C61.777,44.19 59.036,43.341 59.036,43.341C59.036,43.341 63.54,38.677 61.726,39.016C59.409,39.449 55.676,42.149 55.676,42.149C55.676,42.149 57.002,38.179 56.543,36.738C56.001,35.04 52.662,40.654 52.662,40.654C52.662,40.654 53.359,36.583 52.542,35.212C51.854,34.058 49.339,38.705 49.339,38.705C49.339,38.705 47.657,35.08 47.382,36.124C46.936,37.815 47.296,40.371 47.296,40.371C47.296,40.371 43.197,35.987 43.314,37.6C43.475,39.821 45.033,43.285 45.033,43.285C45.033,43.285 40.085,42.576 38.948,43.408C37.638,44.369 42.833,46.353 42.833,46.353C42.833,46.353 37.841,47.821 36.862,48.751C36.158,49.42 41.728,48.65 41.728,48.65C41.728,48.65 37.256,53.307 38.364,53.408C40.03,53.56 45.354,50.794 45.354,50.794C45.354,50.794 39.917,57.764 42.013,57.022C43.282,56.573 47.285,54.49 47.285,54.49C47.285,54.49 45.156,60.643 46.403,59.655C47.593,58.711 49.427,56.566 49.427,56.566C49.427,56.566 49.631,62.664 50.536,61.326C52.015,59.138 52.555,54.098 52.555,54.098C52.555,54.098 53.974,56.911 55.354,58.119C56.55,59.165 56.813,53.582 56.813,53.582C56.813,53.582 59.284,55.072 60.708,55.353C62.591,55.725 58.12,50.731 58.12,50.731C58.12,50.731 62.681,51.46 62.081,50.587Z" style="fill:rgb(43,40,38);fill-rule:nonzero;stroke:black;stroke-width:0.64px;"/>
    </g>
    <defs>
        <radialGradient id="_Radial1" cx="0" cy="0" r="1" gradientUnits="userSpaceOnUse" gradientTransform="matrix(-2.52141,46.6401,-2.281,-0.123313,49.3681,32.1006)"><stop offset="0" style="stop-color:rgb(88,35,8);stop-opacity:1"/><stop offset="1" style="stop-color:black;stop-opacity:1"/></radialGradient>
    </defs>
</svg>
