<svg width="100px" height="100px" viewBox="0 0 100 100" version="1.1" xmlns="http://www.w3.org/2000/svg"  xml:space="preserve"  style="fill-rule:evenodd;clip-rule:evenodd;stroke-linecap:round;stroke-linejoin:round;stroke-miterlimit:1.5;"><g><g><circle cx="50" cy="50" r="50" style="fill:#e2a850;fill-opacity:0.368627;"/><circle cx="50" cy="50" r="41.199" style="fill:#e6b053;fill-opacity:0.627451;"/></g><g><circle cx="50.274" cy="63.815" r="14.675" style="fill:#e6a153;fill-opacity:0.368627;"/><circle cx="50.274" cy="63.815" r="12.092" style="fill:#e6a153;fill-opacity:0.627451;"/><circle cx="49.887" cy="51.735" r="10.64" style="fill:#ff9e46;"/><path d="M50,38.304c7.165,0 12.983,5.818 12.983,12.983c0,7.166 -5.818,12.983 -12.983,12.983c-7.165,0 -12.983,-5.817 -12.983,-12.983c0,-7.165 5.818,-12.983 12.983,-12.983Zm-4.589,15.952c0.894,0 1.62,0.726 1.62,1.621c0,0.894 -0.726,1.62 -1.62,1.62c-0.895,0 -1.621,-0.726 -1.621,-1.62c0,-0.895 0.726,-1.621 1.621,-1.621Zm9.178,0c0.895,0 1.621,0.726 1.621,1.621c0,0.894 -0.726,1.62 -1.621,1.62c-0.894,0 -1.62,-0.726 -1.62,-1.62c0,-0.895 0.726,-1.621 1.62,-1.621Zm-4.589,0c0.895,0 1.621,0.726 1.621,1.621c0,0.894 -0.726,1.62 -1.621,1.62c-0.895,0 -1.621,-0.726 -1.621,-1.62c0,-0.895 0.726,-1.621 1.621,-1.621Zm-4.589,-4.59c0.894,0 1.62,0.727 1.62,1.621c0,0.895 -0.726,1.621 -1.62,1.621c-0.895,0 -1.621,-0.726 -1.621,-1.621c0,-0.894 0.726,-1.621 1.621,-1.621Zm4.589,0c0.895,0 1.621,0.727 1.621,1.621c0,0.895 -0.726,1.621 -1.621,1.621c-0.895,0 -1.621,-0.726 -1.621,-1.621c0,-0.894 0.726,-1.621 1.621,-1.621Zm4.589,0c0.895,0 1.621,0.727 1.621,1.621c0,0.895 -0.726,1.621 -1.621,1.621c-0.894,0 -1.62,-0.726 -1.62,-1.621c0,-0.894 0.726,-1.621 1.62,-1.621Zm-9.178,-4.589c0.894,0 1.62,0.726 1.62,1.621c0,0.894 -0.726,1.621 -1.62,1.621c-0.895,0 -1.621,-0.727 -1.621,-1.621c0,-0.895 0.726,-1.621 1.621,-1.621Zm4.589,0c0.895,0 1.621,0.726 1.621,1.621c0,0.894 -0.726,1.621 -1.621,1.621c-0.895,0 -1.621,-0.727 -1.621,-1.621c0,-0.895 0.726,-1.621 1.621,-1.621Zm4.589,0c0.895,0 1.621,0.726 1.621,1.621c0,0.894 -0.726,1.621 -1.621,1.621c-0.894,0 -1.62,-0.727 -1.62,-1.621c0,-0.895 0.726,-1.621 1.62,-1.621Z" style="fill:#704f1b;"/><path d="M61.009,66.068c-3.073,2.294 -6.884,3.652 -11.009,3.652c-4.125,0 -7.936,-1.358 -11.009,-3.652l22.018,0Z" style="fill:#9c9c9c;stroke:#000;stroke-width:0.29px;"/><path d="M50,32.855c10.173,0 18.432,8.259 18.432,18.432c0,7.816 -4.875,14.503 -11.748,17.182c-2.073,0.807 -2.112,-0.918 -6.684,-0.918c-4.958,0 -4.897,1.667 -7.076,0.759c-6.666,-2.777 -11.356,-9.356 -11.356,-17.023c0,-10.173 8.259,-18.432 18.432,-18.432Zm0,6.709c6.47,0 11.723,5.253 11.723,11.723c0,4.082 -2.09,7.679 -5.258,9.779c-1.854,1.228 -2.474,-0.224 -6.465,-0.224c-3.991,0 -4.514,1.483 -6.343,0.304c-3.236,-2.088 -5.38,-5.725 -5.38,-9.859c0,-6.47 5.253,-11.723 11.723,-11.723Z" style="fill:#4c4c4c;stroke:#000;stroke-width:0.29px;"/><g><path d="M45.09,61.664l0.067,0.702l0.235,0.77l0,0.334l-0.168,0.335l-0.053,0.854l0.067,0.268l-0.168,1.003l-0.134,0.368l-0.1,0.469l0,0.2l0.034,0.803l-0.374,0.569l0.154,0.183l-0.087,-0.116l0.741,-0.234l1.024,-0.319l0.669,-0.1l0.335,0l0.368,-0.201l0.703,0.167l0.669,-0.301l0.267,0l0.569,0.101l0.301,0.033l1.64,0.234l0.167,0.034l1.104,0l1.204,0.468l0.335,0.301l0.201,0.067l0.201,0.101l0,-0.201l0.066,-0.636l-0.234,-0.401l-0.803,-0.736l-0.2,-0.301l-0.134,-0.235l-0.034,-0.267l-0.267,-0.368l0,-0.268l0.167,-0.602l0,-0.268l-0.067,-0.602l0.067,-0.301l-0.268,-0.335l0,-0.2l-0.167,-0.67l0,-0.267l-0.067,-0.736l0,-0.301l-0.836,-0.067l-0.368,0l-1.171,-0.067l-0.469,-0.101l-0.635,0.168l-0.268,0.067l-0.301,-0.034l-0.904,-0.067l-1.438,0.402l-0.435,0.133l-0.201,0l-0.535,0.101l-0.469,0.067Z" style="fill:url(#_Radial1);stroke:#000;stroke-width:0.16px;"/><path d="M57.24,60.565l0.258,-0.011l0.189,0.086l0.205,0.188l0.052,0.326l0.257,0.325l0,0.274l0.415,0.118l0,0.171l0.365,0.142l0.529,0.548l0.438,0.282l0.274,0.154l0.206,0.035l0.171,0.257l-0.062,0.3l0.12,0.291l0.172,0.154l0.449,-0.237l0.274,0.051l-0.018,0.394l0.103,0.257l0.075,0.852l-0.087,0.233l-0.137,0.206l-0.445,-0.172l-0.051,0.052l-0.103,0.12l-0.052,0.154l-0.102,0.12l-0.155,0l-0.205,0.12l-0.326,0.377l-0.12,0.257l-0.359,-0.035l-0.429,0.24l-0.137,0l-0.411,0.411l-0.257,0.103l-0.171,0.188l-0.12,0l-0.223,0.069l-0.017,0.223l-0.394,0l-0.12,-0.018l-0.205,0.018l-0.514,0.428l-0.154,0.017l-0.12,0.051l-0.291,-0.171l-0.343,-0.034l-0.137,-0.411l0,-0.154l0.017,-0.343l-0.462,-0.36l-0.257,-0.12l-0.069,-0.171l-0.222,-0.325l-0.171,0.033l-0.017,-0.326l-0.051,-0.188l-0.274,-0.327l0,-0.119l0.069,-0.377l-0.206,-0.479l-0.017,-0.171l0.016,-0.479l0.017,-0.394l-0.172,-0.497l0.018,-0.205l-0.035,-0.463l-0.154,-0.257l-0.017,-0.102l-0.137,-0.257l-0.034,-0.24l-0.023,-0.366l0.186,0.042l0.316,0.05l0.137,0l0.326,0.12l0.12,0l0.205,0.017l0.463,-0.035l0.171,0l0.291,-0.068l0.086,0l0.343,-0.069l0.102,-0.171l0.24,-0.103l0.12,-0.154l0.274,-0.034l0.154,-0.086l0.103,-0.154l0.257,-0.171Z" style="fill:url(#_Radial2);stroke:#000;stroke-width:0.16px;"/><path d="M60.938,55.833l0.552,0.332l0.214,0.081l0.428,0l0.589,-0.027l0.562,0.321l0.455,0l0.375,0.161l0.491,0.229l0.241,0l0.509,0.321l0.241,0l0.7,-0.219l0.375,0.08l0.374,0.241l0.134,0.027l-0.138,0.647l-0.08,0.214l-0.027,0.268l-0.268,0.348l0,0.321l-0.133,0.348l-0.188,0.295l-0.08,0.267l-0.455,0.348l-0.027,0.536l0,0.187l-0.401,0.375l-0.081,0.348l-0.508,0.348l-0.241,0.374l-0.509,0.455l-0.026,0.241l0.053,0.616l-0.669,0.321l-0.509,0.027l-0.24,0.803l-0.322,0l-0.321,-0.375l-0.08,-0.321l0,-0.188l0.027,-0.481l-0.482,-0.268l-0.214,-0.054l-0.268,-0.026l-0.027,-0.161l-0.267,-0.455l-0.509,-0.08l-0.214,0l-0.241,-0.375l-0.642,-0.482l-0.589,-0.348l-0.107,-0.374l-0.241,-0.295l-0.241,-0.401l-0.214,-0.161l0.187,-0.053l0.214,-0.188l0.268,-0.267l0.161,-0.402l0.214,-0.027l0.187,-0.187l0.509,-0.696l0.08,-0.294l0.268,-0.268l0.133,-0.294l0.375,-0.188l0.321,-0.401l0,-0.107l0,-0.669l0,-0.215l0.107,-0.08l0.215,-0.053Z" style="fill:url(#_Radial3);stroke:#000;stroke-width:0.16px;"/><path d="M40.265,57.978l0.328,0.374l0.609,0.75l0.703,0.281l0.421,0.468l0.094,0.375l0.609,0.562l1.077,0.468l0.235,0.047l0.327,0.328l0,0.328l0.094,0.89l0,0.656l-0.235,0.779l0.14,0.702l-0.234,1.405l0.047,0.562l-0.374,1.095l0,0.703l-0.328,-0.047l-1.077,-0.562l-1.358,-0.187l-1.686,-1.031l-0.563,-0.14l-0.234,-0.516l-0.697,-0.6l-0.212,-1.028l-0.766,0.219l-0.573,-0.886l-0.843,-0.843l-0.188,-0.047l-0.515,-0.702l-0.655,-0.375l-0.338,-1.188l0.422,-0.375l0.749,-0.327l0.572,0.063l0.047,-0.281l0.374,-0.234l0.984,-0.094l0.375,0l0.873,-0.922l0.281,-0.046l1.094,0.031l0.047,-0.281l0.374,-0.374Z" style="fill:url(#_Radial4);stroke:#000;stroke-width:0.16px;"/><path d="M39.802,36.253l0.858,0.513l-0.047,1.218l1.265,2.53l0.187,0.421l0,0.89l0.328,0.188l0.515,0.046l1.031,-1.03l0.515,-0.187l0.422,-0.422l0.374,-0.141l0.375,0.047l1.077,0l0.703,-0.562l0.515,-0.234l0.281,-0.422l1.312,0l0.328,-0.374l0.093,-0.328l-0.187,-0.703l-0.065,-1.567l0.191,-0.735l-0.382,-0.586l0.132,-0.832l-0.115,-1.092l-0.745,0.039l-0.721,0.161l-0.234,-0.093l-1.152,0.068l-0.937,0.796l-1.359,-0.327l-0.421,0l-1.124,0.608l-1.031,0.844l-0.281,0.421l-0.937,0.328l-0.281,0.047l-0.483,0.47Z" style="fill:url(#_Radial5);stroke:#000;stroke-width:0.16px;"/><path d="M50.36,32.931l-0.096,0.672l0,0.24l0.144,0.455l0,0.12l0.072,0.456l0,0.767l0.048,0.432l0,0.216l-0.192,0.455l0,0.288l0.072,0.504l0.024,0.288l0,0.191l-0.024,0.552l0.12,0.552l-0.12,0.359l0.312,0.168l0.288,0.048l0.216,0l0.503,0.168l0.264,0.048l0.384,0.12l1.127,0l0.479,0.144l1.895,0.791l0.624,0.624l0.383,0.12l0.048,-0.216l0.336,-0.672l0.336,-0.12l0.287,-0.024l0.216,-0.072l0.096,-0.167l0.12,-0.6l0.36,-0.504l0.12,-0.287l0.024,-0.144l0.144,-0.48l0.575,-0.671l0.072,-0.192l0.288,-0.552l0.432,-0.384l0.144,-0.191l0.047,-0.408l-0.023,-0.264l-0.24,-0.24l-0.312,-0.144l-0.552,-0.191l-0.695,-0.648l-0.384,-0.12l-0.24,-0.072l-0.383,-0.24l-0.696,-0.096l-0.288,0l-0.311,-0.191l-0.24,-0.048l-0.336,0.024l-0.504,-0.264l-0.311,-0.12l-0.48,-0.12l-0.192,0l-0.312,-0.072l-0.215,0l-0.24,-0.024l-0.6,-0.144l-0.336,0l-0.407,-0.12l-0.288,-0.024l-0.288,-0.048l-0.384,-0.048l-0.527,0l-0.384,0.12Z" style="fill:url(#_Radial6);stroke:#000;stroke-width:0.16px;"/><path d="M57.163,42.147l0.481,-0.907l0.606,0.12l0.3,-0.487l0.376,-1.189l0.187,-0.637l0.375,-0.413l0.224,-0.524l0.488,-0.15l0.337,-0.637l0.15,-0.45l0.508,-0.603l0.764,0.818l0.525,0.487l0.262,0.525l0.225,0.225l0.487,0.412l0.15,0.3l0.412,0.3l0.563,0.674l0.337,0.075l0.262,0.225l0,0.749l0.487,0.675l0.075,0.225l0.526,1.526l0.637,0.831l-0.9,0.188l-0.453,0.844l-1.011,0.165l-0.782,0.781l-1.211,-0.041l-0.553,0.052l-0.375,0.375l-0.449,0l-1.125,-0.824l-0.224,-0.787l-0.038,-0.637l-1.461,-1.424l-1.162,-0.862Z" style="fill:url(#_Radial7);stroke:#000;stroke-width:0.16px;"/><path d="M60.987,47.246l0.479,-0.168l0.864,-0.455l0.263,0l0.792,0.096l0.288,0.024l0.239,-0.072l0.6,-0.288l0.264,-0.096l0.527,-0.024l0.648,-0.828l0.482,-0.486l0.309,0.198l0.384,-0.035l0.384,0l0.072,0.767l0,0.312l0.192,0.384l0.096,0.311l0.119,0.336l-0.024,0.216l-0.143,0.528l0,0.191l0.095,0.312l0.264,0.552l0.048,0.216l0,0.239l-0.144,0.84l0,1.103l-0.072,0.288l0,0.12l-0.072,0.359l0,0.48l0.264,1.223l0.144,0.576l-0.432,0.623l-0.024,0.192l-0.119,0.336l-0.024,0.36l-0.192,0.359l0,0.36l-0.312,-0.024l-0.911,-0.216l-0.576,0.312l-0.36,-0.144l-0.383,-0.144l-0.864,-0.312l-0.455,-0.167l-0.216,-0.024l-0.528,-0.024l-0.36,-0.12l-0.551,-0.024l-0.384,-0.048l-0.527,-0.336l0.024,-0.36l0.263,-0.983l-0.024,-0.216l-0.072,-0.288l0.096,-0.767l0.072,-0.216l0,-0.144l0,-0.455l0.096,-1.391l0.048,-0.168l0,-0.168l-0.072,-0.504l0,-0.24l-0.048,-0.551l0,-0.264l-0.24,-0.552l-0.047,-0.479l-0.24,-0.432Z" style="fill:url(#_Radial8);stroke:#000;stroke-width:0.16px;"/><path d="M42.231,42.575l-0.374,-0.469l-0.843,-1.124l0,-1.03l-1.031,-1.359l0.076,-0.915l-0.374,-0.608l-0.592,-0.069l-0.281,-0.234l-0.047,-0.188l-0.187,0.281l-0.562,0.656l-0.796,0.562l-0.469,0.188l-0.094,1.03l-1.311,1.358l-0.094,0.375l-0.374,0.609l-0.422,0.187l-0.656,0.75l-0.047,0.328l-0.468,0.562l-0.094,0.281l-0.281,0.843l0.797,0.515l0.515,0.188l0.515,0.093l0.047,0.328l0.281,0.984l0.234,0.047l1.171,0.187l0.703,0.094l0.328,0.14l0.187,0.328l0.468,0.187l0.469,0.047l-0.047,-0.702l0.562,-0.563l0.047,-0.327l0.374,-0.422l0.047,-0.468l0.375,-0.375l1.733,-1.733l0,-0.141l0.515,-0.421Z" style="fill:url(#_Radial9);stroke:#000;stroke-width:0.16px;"/><path d="M32.07,45.459l0.793,0.001l0.287,0.024l0.552,0.065l0.048,0.215l0.048,0.192l0.264,-0.096l0.057,0.942l0.168,0.024l0.239,0.096l0.36,0.168l0.675,0.116l0.239,0.071l0.576,0.288l0.12,-0.072l0.599,0.408l0.429,0.324l0.216,-0.024l0.336,0.479l0.335,-0.095l0.12,0.263l-0.048,0.456l-0.12,0.48l-0.023,0.144l-0.072,0.311l0,0.36l0.287,0.432l0.024,0.168l-0.455,0.599l0,0.336l0.671,0.647l0,0.216l-0.096,0.624l-0.024,0.335l0.168,0.696l0.144,0.264l-0.024,0.455l0,0.168l0.192,0.216l0.096,0.24l0.36,0.144l-0.096,0.599l0.407,0.483l0.117,0.308l-0.316,0.129l-0.424,0.15l-0.456,-0.11l-0.072,0.311l-0.216,0.024l-0.479,0.192l-0.432,0.408l-0.096,0l-0.288,0.096l-0.335,0.216l-0.096,0.12l-0.216,-0.048l-0.312,0.311l-0.432,0.024l-0.215,0.12l-0.192,0.24l-0.528,0.096l-1.031,0.12l-0.36,-0.024l0.048,-0.48l0,-0.215l-0.432,-0.432l-0.072,-0.384l-0.071,-0.24l0,-0.12l-0.096,-0.383l-0.332,-0.727l0.144,-0.336l0.048,-0.456l-0.264,-0.336l-0.455,-0.335l-0.168,-0.312l-0.024,-0.336l-0.072,-0.743l-0.072,-0.768l0.048,-0.24l0,-0.239l-0.024,-0.696l0.024,-1.223l-0.072,-0.24l-0.096,-0.407l0,-0.504l-0.12,-0.624l-0.072,-0.215l0,-0.48l0,-0.144l0.072,-0.36l0.6,-1.241l-0.015,-1.229Z" style="fill:url(#_Radial10);stroke:#000;stroke-width:0.16px;"/></g><g><path d="M61.121,44.891c-1.868,-0.383 -6.412,-1.508 -11.173,-1.508c-4.76,0 -9.736,1.601 -11.676,2.079c-0.255,0.063 -0.226,0.817 0.036,0.788c1.942,-0.215 6.861,-2.079 11.621,-2.079c4.76,0 9.362,1.388 11.227,1.508c0.262,0.017 0.222,-0.735 -0.035,-0.788Z" style="fill:#9c9c9c;"/><path d="M62.2,53.291c-2.073,0.289 -7.644,0.943 -12.404,0.943c-4.76,0 -10.175,-0.311 -12.203,-0.53c-0.261,-0.029 -0.228,-0.783 0.035,-0.789c2.031,-0.043 7.388,0.531 12.149,0.531c4.76,0 10.388,-0.917 12.458,-0.943c0.263,-0.004 0.225,0.752 -0.035,0.788Z" style="fill:#9c9c9c;"/><path d="M61.209,57.739c-1.933,0.327 -6.805,1.172 -11.565,1.172c-4.761,0 -9.636,-1.559 -11.556,-2.029c-0.255,-0.062 -0.226,-0.816 0.036,-0.788c1.922,0.207 6.74,2.028 11.5,2.028c4.76,0 9.69,-1.107 11.621,-1.171c0.263,-0.009 0.224,0.744 -0.036,0.788Z" style="fill:#9c9c9c;"/><path d="M62.289,48.901c-2.088,-0.28 -7.733,-0.892 -12.493,-0.892c-4.76,0 -10.133,1.114 -12.152,1.495c-0.259,0.049 -0.227,0.804 0.035,0.788c2.022,-0.118 7.337,-1.495 12.098,-1.495c4.76,0 10.462,0.875 12.547,0.892c0.263,0.002 0.225,-0.753 -0.035,-0.788Z" style="fill:#9c9c9c;"/><path d="M57.144,61.862c0.41,-1.82 1.737,-6.116 1.671,-10.876c-0.066,-4.76 -2.119,-9.321 -2.7,-11.176c-0.079,-0.251 -0.832,-0.213 -0.788,0.047c0.319,1.861 2.634,6.36 2.7,11.12c0.066,4.76 -1.523,9.117 -1.67,10.932c-0.021,0.262 0.73,0.21 0.787,-0.047Z" style="fill:#9c9c9c;"/><path d="M46.958,62.021c-0.235,-1.811 -0.685,-6.064 -0.619,-10.824c0.065,-4.76 0.353,-10.189 0.581,-12.217c0.029,-0.261 0.783,-0.217 0.788,0.046c0.034,2.035 -0.515,7.403 -0.581,12.162c-0.066,4.76 0.647,9.074 0.618,10.88c-0.004,0.263 -0.754,0.214 -0.787,-0.047Z" style="fill:#9c9c9c;"/><path d="M43.07,61.767c-0.478,-1.783 -2.149,-5.894 -2.083,-10.654c0.066,-4.76 2.278,-9.373 2.891,-11.239c0.082,-0.25 0.836,-0.212 0.787,0.046c-0.35,1.872 -2.824,6.425 -2.89,11.185c-0.065,4.759 1.867,8.932 2.083,10.709c0.032,0.261 -0.72,0.207 -0.788,-0.047Z" style="fill:#9c9c9c;"/><path d="M52.634,61.862c0.27,-1.806 0.895,-6.032 0.83,-10.792c-0.066,-4.76 -0.633,-10.01 -0.917,-12.002c-0.037,-0.261 -0.791,-0.217 -0.788,0.046c0.022,1.999 0.85,7.187 0.916,11.947c0.066,4.76 -0.822,9.048 -0.829,10.848c-0.001,0.263 0.749,0.214 0.788,-0.047Z" style="fill:#9c9c9c;"/></g></g></g><defs><radialGradient id="_Radial1" cx="0" cy="0" r="1" gradientUnits="userSpaceOnUse" gradientTransform="matrix(18.2639,0,0,17.9908,50.1066,50.7856)"><stop offset="0" style="stop-color:#7d7d7d;stop-opacity:1"/><stop offset="1" style="stop-color:#111;stop-opacity:1"/></radialGradient><radialGradient id="_Radial2" cx="0" cy="0" r="1" gradientUnits="userSpaceOnUse" gradientTransform="matrix(18.2639,0,0,17.9908,50.1066,50.7856)"><stop offset="0" style="stop-color:#7d7d7d;stop-opacity:1"/><stop offset="1" style="stop-color:#111;stop-opacity:1"/></radialGradient><radialGradient id="_Radial3" cx="0" cy="0" r="1" gradientUnits="userSpaceOnUse" gradientTransform="matrix(18.2639,0,0,17.9908,50.1066,50.7856)"><stop offset="0" style="stop-color:#7d7d7d;stop-opacity:1"/><stop offset="1" style="stop-color:#111;stop-opacity:1"/></radialGradient><radialGradient id="_Radial4" cx="0" cy="0" r="1" gradientUnits="userSpaceOnUse" gradientTransform="matrix(18.2639,0,0,17.9908,50.1066,50.7856)"><stop offset="0" style="stop-color:#7d7d7d;stop-opacity:1"/><stop offset="1" style="stop-color:#111;stop-opacity:1"/></radialGradient><radialGradient id="_Radial5" cx="0" cy="0" r="1" gradientUnits="userSpaceOnUse" gradientTransform="matrix(18.2639,0,0,17.9908,50.1066,50.7856)"><stop offset="0" style="stop-color:#7d7d7d;stop-opacity:1"/><stop offset="1" style="stop-color:#111;stop-opacity:1"/></radialGradient><radialGradient id="_Radial6" cx="0" cy="0" r="1" gradientUnits="userSpaceOnUse" gradientTransform="matrix(18.2639,0,0,17.9908,50.1066,50.7856)"><stop offset="0" style="stop-color:#7d7d7d;stop-opacity:1"/><stop offset="1" style="stop-color:#111;stop-opacity:1"/></radialGradient><radialGradient id="_Radial7" cx="0" cy="0" r="1" gradientUnits="userSpaceOnUse" gradientTransform="matrix(18.2639,0,0,17.9908,50.1066,50.7856)"><stop offset="0" style="stop-color:#7d7d7d;stop-opacity:1"/><stop offset="1" style="stop-color:#111;stop-opacity:1"/></radialGradient><radialGradient id="_Radial8" cx="0" cy="0" r="1" gradientUnits="userSpaceOnUse" gradientTransform="matrix(18.2639,0,0,17.9908,50.1066,50.7856)"><stop offset="0" style="stop-color:#7d7d7d;stop-opacity:1"/><stop offset="1" style="stop-color:#111;stop-opacity:1"/></radialGradient><radialGradient id="_Radial9" cx="0" cy="0" r="1" gradientUnits="userSpaceOnUse" gradientTransform="matrix(18.2639,0,0,17.9908,50.1066,50.7856)"><stop offset="0" style="stop-color:#7d7d7d;stop-opacity:1"/><stop offset="1" style="stop-color:#111;stop-opacity:1"/></radialGradient><radialGradient id="_Radial10" cx="0" cy="0" r="1" gradientUnits="userSpaceOnUse" gradientTransform="matrix(18.2639,0,0,17.9908,50.1066,50.7856)"><stop offset="0" style="stop-color:#7d7d7d;stop-opacity:1"/><stop offset="1" style="stop-color:#111;stop-opacity:1"/></radialGradient></defs></svg>